<svg xmlns="http://www.w3.org/2000/svg" viewBox="0 0 743.9 564.19">
  <defs>
    <style>
      .cls-1 {
        fill: #69539c;
      }

      .cls-2 {
        fill: #e3038c;
      }

      .cls-3 {
        fill: #406325;
      }

      .cls-4 {
        fill: #f9a01b;
      }

      .cls-5 {
        fill: #d56f7e;
      }

      .cls-6 {
        fill: #9669a4;
      }

      .cls-7 {
        fill: none;
        stroke: #231f20;
        stroke-miterlimit: 10;
        stroke-width: 2px;
      }
    </style>
  </defs>
  <title>Asset 1mandala</title>
  <g id="Layer_2" data-name="Layer 2">
    <g id="Layer_1-2" data-name="Layer 1">
      <g>
        <g>
          <path class="cls-1" d="M442.36,86.3c-2.71-5,.36-12.35,5.95-13.87,5.79-1.56,12.33,3.47,12.42,9.47s-6.14,11.2-12.05,10.16a10.52,10.52,0,0,1-7.2-5.43Z" transform="translate(0 -0.16)"/>
          <path class="cls-2" d="M427.54,496.38c3.95,5-1.44,13.68-7.74,14.43s-12.08-6.9-9.15-12.52C412.63,493.52,420.54,487.62,427.54,496.38Z" transform="translate(0 -0.16)"/>
          <path class="cls-2" d="M334.26,76.92c7.13,1.32,6.91,14,1.11,18.37s-15.59.87-17.33-6.17C318.91,81.91,321.44,74.55,334.26,76.92Z" transform="translate(0 -0.16)"/>
          <path class="cls-1" d="M302.18,484.3c6.62,3.36,7.24,14.32,1,18.4s-16-.8-16.5-8.2v-.18C286.36,486.91,295.57,480.94,302.18,484.3Z" transform="translate(0 -0.16)"/>
          <path class="cls-1" d="M645.78,226.41c3.36,4.82,1.12,12.55-4.35,14.67S629,238.84,628.69,233l-1.39,0a10.51,10.51,0,0,1,3.05-8C634.59,220.92,642.43,221.59,645.78,226.41Z" transform="translate(0 -0.16)"/>
          <path class="cls-2" d="M611.81,134.67c.84,7-8.41,10.82-15.42,9.93-3.48-.44-7.14-1.59-9.22-4.4,2.72-4.64,5.84-9.27,10.68-11.46C603.21,126.31,611.11,128.83,611.81,134.67Z" transform="translate(0 -0.16)"/>
          <path class="cls-2" d="M192.63,400.39c2.56,4.17.57,10.63-4.12,12s-10.06-3.95-8.17-8.46C180.67,398,190.08,396.22,192.63,400.39Z" transform="translate(0 -0.16)"/>
          <path class="cls-1" d="M155.71,327.55c2.15,5.1-2.13,11.72-7.67,11.84s-10.11-6.3-8.18-11.49C143.74,321.19,153.38,322,155.71,327.55Z" transform="translate(0 -0.16)"/>
          <path class="cls-2" d="M621.2,362.15c8-.88,15.87,8.54,11.93,15.57-2.74,4.92-9.7,6.35-14.85,4.06-4.24-1.88-7.31-5.68-9.2-10C611.38,366.77,615.75,362.74,621.2,362.15Z" transform="translate(0 -0.16)"/>
          <path class="cls-1" d="M565.64,420.8c6.29,2.5,8.3,12.77,2.42,16.13-4.19,2.38-9.84.11-12.63-3.82a20,20,0,0,1-3.19-9.59C556.09,420.47,561.15,419,565.64,420.8Z" transform="translate(0 -0.16)"/>
          <path class="cls-2" d="M139.62,207.62l-.19-.18c2.58-2.64,5.85-5.14,9.52-4.22,5.75,1.44,8.92,9,6.52,14.4s-10.19,7.65-14.94,4.09C136.25,218.5,136,211.33,139.62,207.62Z" transform="translate(0 -0.16)"/>
          <path class="cls-1" d="M178.91,147.43c-.83-3.47-2.75-6,4.3-11.34,4.41-3.35,11.66,1.78,13.33,7s-2.21,11.77-7.72,12.23c-4,.33-8.38-2-9.65-5.16A8.31,8.31,0,0,0,178.91,147.43Z" transform="translate(0 -0.16)"/>
          <path class="cls-3" d="M592,295.82l-1.13-.11c-3-5.61-1.07-12.66,3.42-17.44s11.43-7.75,18.36-9.43c21.6-5.23,44.41-.41,66.6,2.24s47,2.41,64-10.6q-30.32,25.84-60.64,51.68c-9.4,8-18.9,16.1-30,22.19s-24,10.1-37,9.16-25.81-7.45-31.32-18C579.13,315.54,582.08,302.2,592,295.82Z" transform="translate(0 -0.16)"/>
          <path class="cls-4" d="M652.77,160.5a27.36,27.36,0,0,1,7.26-1.32c8.64-.34,18.17,5.86,18.1,14.51,0,6.5-5.18,11.73-10.24,15.81s-10.5,7.81-16.81,9.08-13.58-.48-17.32-5.72c-5.37-7.51-1.28-18.39,5.31-24.86.63-.61,1.28-1.21,2-1.78a53.32,53.32,0,0,1,11.71-5.72Z" transform="translate(0 -0.16)"/>
          <path class="cls-4" d="M595.9,411.68a17.34,17.34,0,0,1,7.16-11,19.14,19.14,0,0,1,19.79-.48c8.69,5,12.43,17.05,8.09,26.07s-16.12,13.61-25.43,9.92-14.73-15.11-11.71-24.65Z" transform="translate(0 -0.16)"/>
          <path class="cls-3" d="M476.28,444.13c-.27-.25-.53-.49-.79-.76,1.86-6,8.45-10.21,15.33-11.22,7.08-1,14.33.79,20.8,3.56,20.2,8.63,34,25.57,48.84,40.51s33.89,29.24,56.27,29.3L533,509.34c-13,.6-26.08,1.18-38.92-.66s-25.56-6.34-34.71-14.6-14.11-20.69-10.6-31.88C452.13,451.58,464.12,443.19,476.28,444.13Z" transform="translate(0 -0.16)"/>
          <path class="cls-3" d="M492.7,127.33q-.4.38-.81.72a17.62,17.62,0,0,1-13-13.39c-1.35-6.29.51-12.82,3.43-18.67,9.11-18.27,27.7-31,44-44.7s31.82-31,31.28-51q3.25,37.32,6.52,74.64c1,11.58,2,23.27.3,34.78s-6.4,23-15.4,31.38-22.78,13.16-35.39,10.33C501.7,148.68,492,138.21,492.7,127.33Z" transform="translate(0 -0.16)"/>
          <path class="cls-5" d="M518.36,335.73c3.18,1.52,6.55,4.31,6,7.8s-4.25,5.12-7.57,5.87a43.71,43.71,0,0,1-29.27-3.82,41.76,41.76,0,0,0-7.57-5.15c.2-.57.39-1.14.58-1.71l.15,0a52.41,52.41,0,0,0,15.79-6.17A38,38,0,0,1,518.36,335.73Z" transform="translate(0 -0.16)"/>
          <path class="cls-4" d="M513.46,223.76a8.19,8.19,0,0,1,4.25,6.82c-.08,4.68-5.17,7.71-9.81,8.32a26.87,26.87,0,0,1-12.31-1.43,37.51,37.51,0,0,0-14.74-8.38l-.06-.15a89.14,89.14,0,0,0,13.62-6.61,44.91,44.91,0,0,1,11-.65A18,18,0,0,1,513.46,223.76Z" transform="translate(0 -0.16)"/>
          <path class="cls-4" d="M509.54,202.53c1.68,1.66,1.76,4.46.78,6.61a15.49,15.49,0,0,1-4.62,5.29,88.23,88.23,0,0,1-11.29,7.9,46.15,46.15,0,0,0-15.57,5.86,53.3,53.3,0,0,1,20.53-24.74C502.48,201.47,506.92,199.93,509.54,202.53Z" transform="translate(0 -0.16)"/>
          <path class="cls-4" d="M506.9,256.4c.83,3.44.79,7.81-2.25,9.62s-6.65-.08-9.32-2.19a43.62,43.62,0,0,1-15.45-25.11,42.53,42.53,0,0,0-.77-9.15q.84-.3,1.68-.63l.06.15a52.51,52.51,0,0,0,14.74,8.38A38,38,0,0,1,506.9,256.4Z" transform="translate(0 -0.16)"/>
          <path class="cls-5" d="M505.1,311.08c3.59,3,2.73,8.87.29,12.86a26.71,26.71,0,0,1-8.87,8.66,37.34,37.34,0,0,0-15.79,6.17l-.15,0A90.88,90.88,0,0,0,484,324a45.17,45.17,0,0,1,6.41-8.94,17.84,17.84,0,0,1,6.7-5A8.18,8.18,0,0,1,505.1,311.08Z" transform="translate(0 -0.16)"/>
          <path class="cls-5" d="M479.88,341.5l-.3.1c.13-.34.26-.68.37-1a42.24,42.24,0,0,0,7.62,5A43,43,0,0,1,498,358.68c2,3.82,3.35,8.17,2.54,12.39s-4.44,8.11-8.73,8c-5.41-.09-8.85-5.76-10.57-10.88A66.21,66.21,0,0,1,478,352.72a28.7,28.7,0,0,0,0-7.8l.34-.05c.43-1.07.85-2.15,1.23-3.24Z" transform="translate(0 -0.16)"/>
          <path class="cls-3" d="M481.81,274.8c5.95,1.11,8.94,9.57,5,14.17s-12.76,3-14.78-2.75S475.86,273.69,481.81,274.8Z" transform="translate(0 -0.16)"/>
          <path class="cls-5" d="M485,310.24A89,89,0,0,1,484,324a46.05,46.05,0,0,0-5.25,15.79,53.31,53.31,0,0,1-6.29-31.53c.41-3.67,2-8.08,5.69-8.48,2.35-.26,4.57,1.44,5.62,3.56A15.44,15.44,0,0,1,485,310.24Z" transform="translate(0 -0.16)"/>
          <path class="cls-4" d="M483.53,191c1.26,1.41,1.2,3.52,1,5.4a167.47,167.47,0,0,1-5.79,31.79c-.62.37-1.23.75-1.83,1.17-.55-.31-1.11-.61-1.67-.89a41,41,0,0,1-1.57-32.21,11.34,11.34,0,0,1,3.68-5.52C479.22,189.49,482,189.36,483.53,191Z" transform="translate(0 -0.16)"/>
          <path class="cls-4" d="M479,229.63a41.37,41.37,0,0,0,.92,9.09A43.07,43.07,0,0,1,476.25,255c-1.74,3.93-4.24,7.75-8,9.77s-9.09,1.66-11.74-1.72c-3.33-4.25-1.1-10.5,1.8-15.06a65.24,65.24,0,0,1,10.08-12.26,28.73,28.73,0,0,0,6-4.93l.26.24q1.67-.51,3.3-1.08l.48.27-.46-.28Z" transform="translate(0 -0.16)"/>
          <path class="cls-5" d="M478.76,339.83c-.11.72-.19,1.45-.25,2.17-.58.23-1.17.47-1.74.74a41,41,0,0,1-26-19.07,11.42,11.42,0,0,1-2-6.33c.16-2.23,1.83-4.51,4.07-4.61,1.89-.09,3.49,1.29,4.86,2.6A168.9,168.9,0,0,1,478.76,339.83Z" transform="translate(0 -0.16)"/>
          <path class="cls-5" d="M476.24,343l.43-.2.1,0h0l1.73-.69c-.09.94-.15,1.88-.17,2.82l-.34.05c0-.22-.06-.44-.1-.66a64.55,64.55,0,0,0,.14,8.46,29.59,29.59,0,0,1-5.62,14,14.27,14.27,0,0,1-6.83,5.42c-2.82.88-6.29.16-8-2.28-1.95-2.88-.82-6.8.78-9.88A38.87,38.87,0,0,1,476.24,343Z" transform="translate(0 -0.16)"/>
          <path class="cls-4" d="M475.28,228.51c.54.31,1.08.62,1.63.92-.78.51-1.55,1.06-2.3,1.64l-.26-.24q.24-.24.45-.48a63.8,63.8,0,0,0-6.44,5.41,29.83,29.83,0,0,1-14.49,4.5c-2.95.11-6.05-.26-8.51-1.9s-4.09-4.79-3.23-7.62c1-3.32,4.75-4.92,8.16-5.61a38.8,38.8,0,0,1,24.48,3.13,4.93,4.93,0,0,1,.46.23Z" transform="translate(0 -0.16)"/>
          <path class="cls-5" d="M476.2,343c-6.62,2.59-13.35,5-20.38,5.81-3.18.39-6.64.41-9.3-1.36s-3.93-5.92-1.74-8.26c1.88-2,5.08-1.77,7.8-1.32Q464.52,339.81,476.2,343Z" transform="translate(0 -0.16)"/>
          <path class="cls-4" d="M474.75,228.22c-6.18-3.52-12.26-7.26-17.36-12.19-2.3-2.22-4.49-4.9-4.8-8.08s2.13-6.78,5.33-6.56c2.75.19,4.57,2.84,5.94,5.24Q469.85,217.15,474.75,228.22Z" transform="translate(0 -0.16)"/>
          <path class="cls-1" d="M436.7,328.78c4.22,5.8,7.55,14,3.27,19.78-4.12,5.54-12.53,5-19.17,3.17a88.75,88.75,0,0,1-48.57-35.07,86.42,86.42,0,0,0-8.53-16.52c.89-.82,1.78-1.64,2.65-2.48l.22.23c11,3,22.87,5,34.22,4.23A77,77,0,0,1,436.7,328.78Z" transform="translate(0 -0.16)"/>
          <path class="cls-6" d="M436.83,272c3.5,8.84-3.69,18.47-11.91,23.24a54.52,54.52,0,0,1-24.13,6.92,75.8,75.8,0,0,0-34.22-4.23l-.22-.23a183.77,183.77,0,0,0,20.41-23,91.41,91.41,0,0,1,20-9.74c5.39-1.84,11.12-3.2,16.76-2.39S434.73,266.67,436.83,272Z" transform="translate(0 -0.16)"/>
          <path class="cls-3" d="M423.25,182.56l-2.58-.47c2.16-3.77,7.12-5.88,11.24-4.39,4.59,1.66,7.09,7.66,4.83,12s-8.88,5.59-12.43,2.25C421.81,189.58,421.6,185.47,423.25,182.56Z" transform="translate(0 -0.16)"/>
          <path class="cls-3" d="M419,391.73c-1.69-4.14-2.85-3.8.19-8.78,2.59-4.25,7.81-4.42,11.55-1.14s3.91,10,.05,13.1c-3.58,2.89-9.79,1.38-11.6-2.71a3.07,3.07,0,0,1-.17-.42A.08.08,0,0,0,419,391.73Z" transform="translate(0 -0.16)"/>
          <path class="cls-2" d="M412.3,414c3.34,1.14,7,3.5,6.93,7s-3.62,5.58-6.82,6.72a43.66,43.66,0,0,1-29.57-.36,42.37,42.37,0,0,0-8.07-4.2c.13-.58.25-1.16.36-1.75l.16,0a52.77,52.77,0,0,0,15-8A38,38,0,0,1,412.3,414Z" transform="translate(0 -0.16)"/>
          <path class="cls-4" d="M394.33,57.63l0,.07c-9.11-5.52-9.58-20.9-.78-26.93s23.09,0,24.84,10.61-9.79,20.91-20.1,18A13.61,13.61,0,0,1,394.33,57.63Z" transform="translate(0 -0.16)"/>
          <path class="cls-2" d="M411.14,184.92c2.08,2.86,3.72,6.91,1.61,9.75s-6.17,2.48-9.44,1.56a43.73,43.73,0,0,1-23.94-17.3,42.09,42.09,0,0,0-4.19-8.11c.44-.41.88-.81,1.31-1.23l.11.12a52.59,52.59,0,0,0,16.83,2.08A37.83,37.83,0,0,1,411.14,184.92Z" transform="translate(0 -0.16)"/>
          <path class="cls-2" d="M411.21,156.94c1.72,4.35-1.82,9.09-5.87,11.44a26.87,26.87,0,0,1-11.91,3.41,37.22,37.22,0,0,0-16.83-2.08l-.11-.12a90.24,90.24,0,0,0,10.05-11.35,44.83,44.83,0,0,1,9.87-4.8,18,18,0,0,1,8.26-1.17A8.19,8.19,0,0,1,411.21,156.94Z" transform="translate(0 -0.16)"/>
          <path class="cls-1" d="M399.66,225.75c4.44,1.81,6.77,7,6.61,11.78s-2.28,9.29-4.54,13.52a183.23,183.23,0,0,1-15,23.57,94,94,0,0,0-24.66,23.15,108.3,108.3,0,0,1,19.22-62.37C385.6,229.26,392.73,222.93,399.66,225.75Z" transform="translate(0 -0.16)"/>
          <path class="cls-2" d="M394.78,439.23c2.4,3.56,4.3,7.72,4,12s-3.45,8.57-7.72,9c-5.38.55-9.47-4.67-11.78-9.55a64.88,64.88,0,0,1-5-15.05,29.9,29.9,0,0,0-1-7.71l.33-.09c.31-1.12.59-2.25.85-3.38l.48-.26-.47.24c.09-.36.17-.71.24-1.07a40.88,40.88,0,0,0,8.1,4.05A43,43,0,0,1,394.78,439.23Z" transform="translate(0 -0.16)"/>
          <path class="cls-2" d="M396.22,391.12c3.92,2.56,3.76,8.48,1.8,12.73a27,27,0,0,1-7.76,9.65,37.43,37.43,0,0,0-15,8l-.16,0a88.8,88.8,0,0,0,1.68-15.07,45.73,45.73,0,0,1,5.31-9.61,17.76,17.76,0,0,1,6.07-5.72A8.17,8.17,0,0,1,396.22,391.12Z" transform="translate(0 -0.16)"/>
          <path class="cls-2" d="M392.9,134.17c2.19.89,3.33,3.44,3.26,5.8a15.6,15.6,0,0,1-2.24,6.66,90.72,90.72,0,0,1-7.38,11.61,46.39,46.39,0,0,0-12.14,11.4,53.41,53.41,0,0,1,9.46-30.72C386,135.9,389.48,132.78,392.9,134.17Z" transform="translate(0 -0.16)"/>
          <path class="cls-2" d="M379.37,178.93a43.07,43.07,0,0,1,2.94,16.5c-.1,4.29-.93,8.78-3.66,12.1s-7.76,5-11.5,2.92c-4.71-2.65-5-9.27-4.12-14.6a65,65,0,0,1,4.59-15.18,28.72,28.72,0,0,0,3.65-6.85l.33.12c.89-.74,1.77-1.49,2.63-2.27l.54.06-.52-.08q.4-.35.81-.72A41.68,41.68,0,0,0,379.37,178.93Z" transform="translate(0 -0.16)"/>
          <path class="cls-1" d="M372.23,316.66a87.48,87.48,0,0,1,5.93,33.44c-.19,8.72-1.89,17.83-7.42,24.57s-15.74,10.2-23.35,5.93c-9.56-5.38-10.24-18.83-8.37-29.63a133,133,0,0,1,9.31-30.8,59.25,59.25,0,0,0,7.38-13.79l.71.1c1.82-1.5,3.61-3,5.37-4.6l1.08.12-1-.16,1.62-1.47A85,85,0,0,0,372.23,316.66Z" transform="translate(0 -0.16)"/>
          <path class="cls-4" d="M358.34,502.14c14.53,2.84,24.14,20.4,18.7,34.17s-24.47,20-37,12.12c-10.24-6.44-13.85-20.87-9.34-31.85a.06.06,0,0,1,0-.05C335.75,506.7,347.32,500,358.34,502.14Z" transform="translate(0 -0.16)"/>
          <path class="cls-2" d="M376.15,392.66a90.09,90.09,0,0,1,.66,13.74,46.09,46.09,0,0,0-3.35,16.32,53.41,53.41,0,0,1-10-30.57c0-3.69,1.05-8.26,4.65-9.09,2.3-.53,4.71.89,6,2.87A15.48,15.48,0,0,1,376.15,392.66Z" transform="translate(0 -0.16)"/>
          <path class="cls-2" d="M371.34,426.2l.37-.24a.24.24,0,0,0,.11-.06h0l1.63-.88q0,1.41.18,2.82l-.33.09-.18-.65a63.42,63.42,0,0,0,1.15,8.36,29.69,29.69,0,0,1-3.93,14.63,14.31,14.31,0,0,1-6.15,6.19c-2.69,1.21-6.23.9-8.16-1.33-2.28-2.62-1.63-6.65-.4-9.89A38.81,38.81,0,0,1,371.34,426.2Z" transform="translate(0 -0.16)"/>
          <path class="cls-2" d="M373.46,422.79c0,.72,0,1.45,0,2.18-.55.29-1.09.6-1.63.93h0A41,41,0,0,1,343.75,410a11.37,11.37,0,0,1-2.7-6.05c-.11-2.24,1.28-4.69,3.49-5.06,1.86-.31,3.62.86,5.13,2A167.62,167.62,0,0,1,373.46,422.79Z" transform="translate(0 -0.16)"/>
          <path class="cls-2" d="M374.36,169.69c-.43.59-.85,1.19-1.25,1.8q-.93-.12-1.86-.18h0a40.94,40.94,0,0,1-13.82-29.14,11.38,11.38,0,0,1,1.28-6.5c1.2-1.9,3.75-3.1,5.77-2.13,1.7.82,2.46,2.8,3,4.59A168,168,0,0,1,374.36,169.69Z" transform="translate(0 -0.16)"/>
          <path class="cls-2" d="M371.24,171.31h0l1.83.23c-.52.78-1,1.58-1.48,2.4l-.33-.12c.08-.21.16-.42.23-.63a63,63,0,0,0-3.88,7.48A29.8,29.8,0,0,1,356,190.38a14.28,14.28,0,0,1-8.59,1.51c-2.9-.56-5.61-2.85-5.91-5.79-.35-3.45,2.5-6.37,5.38-8.31a38.74,38.74,0,0,1,23.8-6.51A5.63,5.63,0,0,1,371.24,171.31Z" transform="translate(0 -0.16)"/>
          <path class="cls-2" d="M371.29,426.19c-6.26,3.36-12.67,6.49-19.55,8.18-3.11.77-6.54,1.19-9.4-.25s-4.6-5.42-2.7-8c1.62-2.22,4.84-2.36,7.59-2.23A239.67,239.67,0,0,1,371.29,426.19Z" transform="translate(0 -0.16)"/>
          <path class="cls-2" d="M370.62,171.23c-7.05-.86-14.1-2-20.69-4.57-3-1.17-6-2.8-7.54-5.63s-.63-7.07,2.4-8.09c2.61-.88,5.32.86,7.5,2.55A241,241,0,0,1,370.62,171.23Z" transform="translate(0 -0.16)"/>
          <path class="cls-6" d="M362,297.87c-.87,1.19-1.72,2.4-2.53,3.64-1.26-.16-2.53-.28-3.8-.37A83.14,83.14,0,0,1,327.64,242c-.15-4.55.16-9.35,2.59-13.2s7.62-6.29,11.72-4.31c3.45,1.67,5,5.67,6.16,9.32A340.89,340.89,0,0,1,362,297.87Z" transform="translate(0 -0.16)"/>
          <path class="cls-6" d="M355.71,301.16l3.72.44q-1.59,2.38-3,4.88l-.71-.1c.18-.47.35-.94.51-1.42a131.2,131.2,0,0,0-7.89,15.21,60.39,60.39,0,0,1-23.62,19.68c-5.44,2.52-11.54,4.23-17.43,3.08s-11.39-5.79-12-11.76c-.71-7,5.08-12.93,10.92-16.88a78.79,78.79,0,0,1,48.32-13.22l.93.06Z" transform="translate(0 -0.16)"/>
          <path class="cls-1" d="M354.46,301c-14.33-1.77-28.63-4.05-42-9.3-6.05-2.38-12.24-5.68-15.29-11.42s-1.29-14.35,4.87-16.43c5.3-1.78,10.79,1.76,15.21,5.18A488.63,488.63,0,0,1,354.46,301Z" transform="translate(0 -0.16)"/>
          <path class="cls-3" d="M327.16,398.1c3.53,3.51,1.86,10.58-2.86,12.15s-10.29-3.1-9.56-8L315,401C316.58,396.27,323.64,394.58,327.16,398.1Z" transform="translate(0 -0.16)"/>
          <path class="cls-3" d="M323,187c5.86,2,7.73,10.93,3.16,15.12s-13.3,1.56-14.79-4.46l-.14-.64C310.18,190.89,317.13,185,323,187Z" transform="translate(0 -0.16)"/>
          <path class="cls-4" d="M306.78,382.15c2.07,2.85,3.71,6.91,1.61,9.74s-6.17,2.48-9.45,1.56A43.67,43.67,0,0,1,275,376.14a42.58,42.58,0,0,0-4.19-8.1c.44-.4.88-.81,1.31-1.23l.11.12A52.57,52.57,0,0,0,289.05,369,38,38,0,0,1,306.78,382.15Z" transform="translate(0 -0.16)"/>
          <path class="cls-4" d="M306.84,354.16c1.73,4.35-1.82,9.1-5.87,11.45a26.81,26.81,0,0,1-11.92,3.4,37.21,37.21,0,0,0-16.82-2.08l-.11-.12a89.29,89.29,0,0,0,10-11.33,45.39,45.39,0,0,1,9.88-4.81,17.91,17.91,0,0,1,8.26-1.18A8.17,8.17,0,0,1,306.84,354.16Z" transform="translate(0 -0.16)"/>
          <path class="cls-5" d="M298.6,250c2.08,2.85,3.72,6.91,1.61,9.74s-6.17,2.48-9.44,1.56A43.69,43.69,0,0,1,266.83,244a42.05,42.05,0,0,0-4.2-8.1l1.32-1.23.1.11a52.53,52.53,0,0,0,16.82,2.08A38,38,0,0,1,298.6,250Z" transform="translate(0 -0.16)"/>
          <path class="cls-5" d="M298.67,222c1.72,4.35-1.82,9.1-5.87,11.44a26.86,26.86,0,0,1-11.93,3.41,37.18,37.18,0,0,0-16.82-2.08l-.1-.11A91.76,91.76,0,0,0,274,223.31a45.28,45.28,0,0,1,9.87-4.8,17.91,17.91,0,0,1,8.26-1.18A8.2,8.2,0,0,1,298.67,222Z" transform="translate(0 -0.16)"/>
          <path class="cls-3" d="M273.34,135.15c.29.21.58.42.87.66-1,6.14-7,11.05-13.67,12.81-6.88,1.81-14.33.78-21.13-1.25-21.23-6.35-37.21-21.66-54-34.86S147.73,87.2,125.51,89.59l82.54-13c12.81-2,25.73-4,38.72-3.6S273,76.52,283.22,83.72s16.85,19,14.9,30.47C296.27,125.09,285.53,134.73,273.34,135.15Z" transform="translate(0 -0.16)"/>
          <path class="cls-4" d="M288.53,331.39c2.19.89,3.33,3.44,3.26,5.81a15.69,15.69,0,0,1-2.24,6.66,89.14,89.14,0,0,1-7.39,11.62A46.2,46.2,0,0,0,270,366.88a53.28,53.28,0,0,1,9.47-30.73C281.6,333.12,285.11,330,288.53,331.39Z" transform="translate(0 -0.16)"/>
          <path class="cls-5" d="M280.36,199.23c2.19.89,3.33,3.44,3.25,5.8a15.45,15.45,0,0,1-2.23,6.66A90.83,90.83,0,0,1,274,223.31a46.31,46.31,0,0,0-12.15,11.41A53.45,53.45,0,0,1,271.32,204C273.43,201,276.94,197.84,280.36,199.23Z" transform="translate(0 -0.16)"/>
          <path class="cls-4" d="M275,376.14a43.15,43.15,0,0,1,2.94,16.51c-.09,4.29-.93,8.79-3.66,12.11s-7.75,5-11.5,2.91c-4.71-2.64-5-9.27-4.12-14.59a64.73,64.73,0,0,1,4.6-15.2A29.18,29.18,0,0,0,266.9,371l.33.12c.9-.74,1.78-1.5,2.64-2.27l.53.06-.52-.08c.27-.23.54-.47.81-.73A41.68,41.68,0,0,0,275,376.14Z" transform="translate(0 -0.16)"/>
          <path class="cls-5" d="M266.83,244a43.07,43.07,0,0,1,2.94,16.5c-.1,4.29-.94,8.78-3.66,12.1s-7.76,5-11.5,2.92c-4.71-2.65-5.05-9.27-4.13-14.59a65.48,65.48,0,0,1,4.6-15.21,28.46,28.46,0,0,0,3.64-6.84l.34.13c.89-.74,1.77-1.49,2.63-2.27l.54.06-.52-.08q.41-.35.81-.72A41.14,41.14,0,0,0,266.83,244Z" transform="translate(0 -0.16)"/>
          <path class="cls-4" d="M270,366.93c-.43.59-.85,1.18-1.24,1.78-.62-.08-1.25-.14-1.88-.18a40.94,40.94,0,0,1-13.82-29.14,11.4,11.4,0,0,1,1.28-6.5c1.2-1.9,3.75-3.1,5.77-2.12,1.7.82,2.46,2.79,3,4.59A167.86,167.86,0,0,1,270,366.93Z" transform="translate(0 -0.16)"/>
          <path class="cls-3" d="M261.2,292.59c5.24.24,9,6.89,6.45,11.48s-10.14,5-13.15.72l-.76-1.35C251.64,298.64,256,292.35,261.2,292.59Z" transform="translate(0 -0.16)"/>
          <path class="cls-4" d="M266.29,368.5l.55,0a0,0,0,0,0,0,0h0l1.85.22c-.53.79-1,1.59-1.49,2.4l-.33-.12c.08-.21.16-.42.23-.63a64.42,64.42,0,0,0-3.87,7.47,29.78,29.78,0,0,1-11.65,9.72,14.35,14.35,0,0,1-8.59,1.52c-2.9-.57-5.61-2.86-5.91-5.8-.35-3.45,2.51-6.36,5.38-8.31A38.74,38.74,0,0,1,266.29,368.5Z" transform="translate(0 -0.16)"/>
          <path class="cls-3" d="M253.63,444c.3-.22.59-.43.89-.63A17,17,0,0,1,265.82,458c.6,6.38-2,12.7-5.62,18.24C249,493.5,229,504.41,211.12,516.47S175.8,544.33,174,564.26q1.18-37.43,2.38-74.84c.36-11.61.75-23.32,3.83-34.61s9.09-22.26,19-29.75,24.21-10.92,36.41-6.91C247.21,422,255.61,433.29,253.63,444Z" transform="translate(0 -0.16)"/>
          <path class="cls-5" d="M261.81,234.77c-.43.58-.84,1.18-1.24,1.78q-.93-.12-1.86-.18h0a40.94,40.94,0,0,1-13.82-29.14,11.3,11.3,0,0,1,1.27-6.5c1.2-1.9,3.75-3.1,5.77-2.13,1.71.83,2.47,2.8,3,4.6A167.08,167.08,0,0,1,261.81,234.77Z" transform="translate(0 -0.16)"/>
          <path class="cls-5" d="M258.7,236.37h0l1.83.23c-.52.78-1,1.58-1.48,2.4l-.34-.13c.08-.2.16-.41.23-.62a66.67,66.67,0,0,0-3.87,7.46,29.65,29.65,0,0,1-11.65,9.73,14.24,14.24,0,0,1-8.58,1.51c-2.9-.56-5.61-2.85-5.91-5.79-.35-3.45,2.5-6.37,5.38-8.31a38.74,38.74,0,0,1,23.8-6.51A5.63,5.63,0,0,1,258.7,236.37Z" transform="translate(0 -0.16)"/>
          <path class="cls-4" d="M266.25,368.46c-7.05-.87-14.1-2-20.69-4.58-3-1.17-6-2.8-7.54-5.63s-.63-7.07,2.4-8.09c2.61-.88,5.32.87,7.5,2.55A241.08,241.08,0,0,1,266.25,368.46Z" transform="translate(0 -0.16)"/>
          <path class="cls-5" d="M258.08,236.29c-7-.86-14.1-2-20.7-4.57-3-1.17-6-2.8-7.53-5.63s-.63-7.07,2.4-8.09c2.61-.88,5.32.86,7.49,2.55Q249.3,228,258.08,236.29Z" transform="translate(0 -0.16)"/>
          <path class="cls-4" d="M167.12,154.55c2.54,3.1,4.6,6.9,4.36,10.9-.34,5.77-5.29,10.21-10.42,12.87-9.07,4.71-20.37,5.84-29.5,1.25a24.54,24.54,0,0,1-12.38-15.08,19.1,19.1,0,0,1,.62-4.18c2.51-9.47,11.74-16.45,21.51-17.3S160.91,147,167.12,154.55Z" transform="translate(0 -0.16)"/>
          <path class="cls-4" d="M127.77,368.7c4.56-6.52,12.9-10.69,20.86-9.22,12.2,2.25,20.51,16.12,17.66,28.19s-15.56,20.62-27.93,19.74c-9.44-.67-18.89-7.16-20.63-16.46-1.23-6.59,1.52-13.47,6-18.46A32.24,32.24,0,0,1,127.77,368.7Z" transform="translate(0 -0.16)"/>
          <path class="cls-3" d="M154.62,285.71l1.11.18c2.43,5.81-.1,12.7-5,17.14s-12.11,6.89-19.16,8.05c-22,3.63-44.3-2.84-66.17-7.1s-46.66-5.85-64.8,5.87l65.17-47.07c10.11-7.3,20.32-14.66,31.92-19.91s24.85-8.31,37.68-6.43,25,9.32,29.56,20.21A23.4,23.4,0,0,1,154.62,285.71Z" transform="translate(0 -0.16)"/>
        </g>
        <g>
          <path class="cls-7" d="M258.08,236.29l0,.05.43.4" transform="translate(0 -0.16)"/>
          <path class="cls-7" d="M258.08,236.29c-7-.86-14.1-2-20.7-4.57-3-1.17-6-2.8-7.53-5.63s-.63-7.07,2.4-8.09c2.61-.88,5.32.86,7.49,2.55Q249.3,228,258.08,236.29Z" transform="translate(0 -0.16)"/>
          <path class="cls-7" d="M258.7,236.37l-.62-.08" transform="translate(0 -0.16)"/>
          <path class="cls-7" d="M258.71,236.37q.93.06,1.86.18l1.14.16.52.08-.54-.06-1.15-.13-1.83-.23" transform="translate(0 -0.16)"/>
          <line class="cls-7" x1="258.71" y1="236.21" x2="258.7" y2="236.21"/>
          <path class="cls-7" d="M259.41,237c-.24-.2-.48-.4-.71-.61a40.94,40.94,0,0,1-13.82-29.14,11.3,11.3,0,0,1,1.27-6.5c1.2-1.9,3.75-3.1,5.77-2.13,1.71.83,2.47,2.8,3,4.6a167.08,167.08,0,0,1,6.85,31.57c0,.1,0,.2,0,.3v-.35A53.45,53.45,0,0,1,271.32,204c2.11-3,5.62-6.15,9-4.76,2.19.89,3.33,3.44,3.25,5.8a15.45,15.45,0,0,1-2.23,6.66A90.83,90.83,0,0,1,274,223.31,91.76,91.76,0,0,1,264,234.66l-1.32,1.23-.11.1q-.4.38-.81.72l0,0c-.86.78-1.74,1.53-2.63,2.27.47-.82,1-1.62,1.48-2.4l0,0c.4-.6.81-1.2,1.24-1.78l0-.05A46.31,46.31,0,0,1,274,223.31a45.28,45.28,0,0,1,9.87-4.8,17.91,17.91,0,0,1,8.26-1.18,8.2,8.2,0,0,1,6.54,4.67c1.72,4.35-1.82,9.1-5.87,11.44a26.86,26.86,0,0,1-11.93,3.41,52.53,52.53,0,0,1-16.82-2.08,37.18,37.18,0,0,1,16.82,2.08A38,38,0,0,1,298.6,250c2.08,2.85,3.72,6.91,1.61,9.74s-6.17,2.48-9.44,1.56A43.69,43.69,0,0,1,266.83,244a41.14,41.14,0,0,1-4.31-8c-.1-.23-.2-.47-.29-.71.14.2.27.4.4.61a42.05,42.05,0,0,1,4.2,8.1,43.07,43.07,0,0,1,2.94,16.5c-.1,4.29-.94,8.78-3.66,12.1s-7.76,5-11.5,2.92c-4.71-2.65-5.05-9.27-4.13-14.59a65.48,65.48,0,0,1,4.6-15.21,66.67,66.67,0,0,1,3.87-7.46c-.07.21-.15.42-.23.62a28.46,28.46,0,0,1-3.64,6.84,29.65,29.65,0,0,1-11.65,9.73,14.24,14.24,0,0,1-8.58,1.51c-2.9-.56-5.61-2.85-5.91-5.79-.35-3.45,2.5-6.37,5.38-8.31a38.74,38.74,0,0,1,23.8-6.51,5.63,5.63,0,0,1,.58,0" transform="translate(0 -0.16)"/>
          <path class="cls-7" d="M371.29,426.19h0l.59.08" transform="translate(0 -0.16)"/>
          <path class="cls-7" d="M371.29,426.19c-6.26,3.36-12.67,6.49-19.55,8.18-3.11.77-6.54,1.19-9.4-.25s-4.6-5.42-2.7-8c1.62-2.22,4.84-2.36,7.59-2.23A239.67,239.67,0,0,1,371.29,426.19Z" transform="translate(0 -0.16)"/>
          <path class="cls-7" d="M371.71,426l-.42.23" transform="translate(0 -0.16)"/>
          <path class="cls-7" d="M371.83,425.9c.54-.33,1.08-.64,1.63-.93.34-.19.69-.37,1-.53l.47-.24-.48.26-1,.56-1.63.88" transform="translate(0 -0.16)"/>
          <path class="cls-7" d="M371.82,425.9a.24.24,0,0,1-.11.06" transform="translate(0 -0.16)"/>
          <path class="cls-7" d="M372.77,426c-.31,0-.63-.05-.94-.09h0A41,41,0,0,1,343.75,410a11.37,11.37,0,0,1-2.7-6.05c-.11-2.24,1.28-4.69,3.49-5.06,1.86-.31,3.62.86,5.13,2a167.62,167.62,0,0,1,23.79,21.86l.21.23-.21-.3a53.41,53.41,0,0,1-10-30.57c0-3.69,1.05-8.26,4.65-9.09,2.3-.53,4.71.89,6,2.87a15.48,15.48,0,0,1,2,6.73,90.09,90.09,0,0,1,.66,13.74,88.8,88.8,0,0,1-1.68,15.07c-.11.59-.23,1.17-.36,1.75a.4.4,0,0,1,0,.15c-.07.36-.15.71-.24,1.07v0c-.26,1.13-.54,2.26-.85,3.38q-.13-1.41-.18-2.82v0c0-.73,0-1.46,0-2.18a.08.08,0,0,1,0-.07,45.91,45.91,0,0,1,8.66-25.93,17.76,17.76,0,0,1,6.07-5.72,8.17,8.17,0,0,1,8,.05c3.92,2.56,3.76,8.48,1.8,12.73a27,27,0,0,1-7.76,9.65,52.77,52.77,0,0,1-15,8,37.43,37.43,0,0,1,15-8,38,38,0,0,1,22,.53c3.34,1.14,7,3.5,6.93,7s-3.62,5.58-6.82,6.72a43.66,43.66,0,0,1-29.57-.36,40.88,40.88,0,0,1-8.1-4.05c-.22-.13-.43-.27-.64-.41l.67.26a42.37,42.37,0,0,1,8.07,4.2,43,43,0,0,1,11.94,11.81c2.4,3.56,4.3,7.72,4,12s-3.45,8.57-7.72,9c-5.38.55-9.47-4.67-11.78-9.55a64.88,64.88,0,0,1-5-15.05,63.42,63.42,0,0,1-1.15-8.36l.18.65a29.81,29.81,0,0,1-3,22.34,14.31,14.31,0,0,1-6.15,6.19c-2.69,1.21-6.23.9-8.16-1.33-2.28-2.62-1.63-6.65-.4-9.89a38.81,38.81,0,0,1,15.7-19l.37-.24" transform="translate(0 -0.16)"/>
          <path class="cls-7" d="M370.62,171.23l0,.05.43.4" transform="translate(0 -0.16)"/>
          <path class="cls-7" d="M370.62,171.23c-7.05-.86-14.1-2-20.69-4.57-3-1.17-6-2.8-7.54-5.63s-.63-7.07,2.4-8.09c2.61-.88,5.32.86,7.5,2.55A241,241,0,0,1,370.62,171.23Z" transform="translate(0 -0.16)"/>
          <path class="cls-7" d="M371.24,171.31l-.62-.08" transform="translate(0 -0.16)"/>
          <path class="cls-7" d="M371.25,171.31q.93.06,1.86.18l1.14.16.52.08-.54-.06-1.15-.13-1.83-.23" transform="translate(0 -0.16)"/>
          <line class="cls-7" x1="371.25" y1="171.15" x2="371.24" y2="171.15"/>
          <path class="cls-7" d="M374.4,169.64a46.39,46.39,0,0,1,12.14-11.4,44.83,44.83,0,0,1,9.87-4.8,18,18,0,0,1,8.26-1.17,8.19,8.19,0,0,1,6.54,4.67c1.72,4.35-1.82,9.09-5.87,11.44a26.87,26.87,0,0,1-11.91,3.41,52.59,52.59,0,0,1-16.83-2.08,37.22,37.22,0,0,1,16.83,2.08,37.83,37.83,0,0,1,17.71,13.13c2.08,2.86,3.72,6.91,1.61,9.75s-6.17,2.48-9.44,1.56a43.73,43.73,0,0,1-23.94-17.3,41.68,41.68,0,0,1-4.31-8c-.1-.23-.19-.47-.28-.71.14.2.27.4.4.6a42.09,42.09,0,0,1,4.19,8.11,43.07,43.07,0,0,1,2.94,16.5c-.1,4.29-.93,8.78-3.66,12.1s-7.76,5-11.5,2.92c-4.71-2.65-5-9.27-4.12-14.6a65,65,0,0,1,4.59-15.18,63,63,0,0,1,3.88-7.48c-.07.21-.15.42-.23.63a28.72,28.72,0,0,1-3.65,6.85A29.8,29.8,0,0,1,356,190.38a14.28,14.28,0,0,1-8.59,1.51c-2.9-.56-5.61-2.85-5.91-5.79-.35-3.45,2.5-6.37,5.38-8.31a38.74,38.74,0,0,1,23.8-6.51,5.63,5.63,0,0,1,.58,0" transform="translate(0 -0.16)"/>
          <path class="cls-7" d="M372,171.92c-.24-.2-.48-.4-.71-.61a40.94,40.94,0,0,1-13.82-29.14,11.38,11.38,0,0,1,1.28-6.5c1.2-1.9,3.75-3.1,5.77-2.13,1.7.82,2.46,2.8,3,4.59a168,168,0,0,1,6.86,31.56c0,.11,0,.21,0,.32v-.36h0a53.41,53.41,0,0,1,9.46-30.72c2.11-3,5.62-6.14,9-4.75,2.19.89,3.33,3.44,3.26,5.8a15.6,15.6,0,0,1-2.24,6.66,91.32,91.32,0,0,1-17.43,23c-.43.42-.87.82-1.31,1.23l-.12.11q-.4.38-.81.72s0,0,0,0c-.86.78-1.74,1.53-2.63,2.27.47-.82,1-1.62,1.48-2.4l0,0c.4-.61.82-1.21,1.25-1.8l0,0" transform="translate(0 -0.16)"/>
          <path class="cls-7" d="M476.2,343l0,0,.58.15" transform="translate(0 -0.16)"/>
          <path class="cls-7" d="M476.2,343c-6.62,2.59-13.35,5-20.38,5.81-3.18.39-6.64.41-9.3-1.36s-3.93-5.92-1.74-8.26c1.88-2,5.08-1.77,7.8-1.32Q464.52,339.81,476.2,343Z" transform="translate(0 -0.16)"/>
          <path class="cls-7" d="M476.67,342.78l-.47.18" transform="translate(0 -0.16)"/>
          <path class="cls-7" d="M480.09,341.42l-.21.08-.31.13-1.06.42-1.73.69" transform="translate(0 -0.16)"/>
          <path class="cls-7" d="M476.77,342.74c.57-.27,1.16-.51,1.74-.74l1.07-.4.3-.1" transform="translate(0 -0.16)"/>
          <path class="cls-7" d="M476.77,342.74l-.1,0" transform="translate(0 -0.16)"/>
          <path class="cls-7" d="M477.69,342.93l-.91-.19h0a41,41,0,0,1-26-19.07,11.42,11.42,0,0,1-2-6.33c.16-2.23,1.83-4.51,4.07-4.61,1.89-.09,3.49,1.29,4.86,2.6a168.9,168.9,0,0,1,21,24.5l.18.26c-.06-.11-.12-.21-.17-.32a53.31,53.31,0,0,1-6.29-31.53c.41-3.67,2-8.08,5.69-8.48,2.35-.26,4.57,1.44,5.62,3.56a15.44,15.44,0,0,1,1.2,6.92A89,89,0,0,1,484,324a90.88,90.88,0,0,1-3.44,14.74c-.19.57-.38,1.14-.58,1.71a.88.88,0,0,1-.05.15c-.11.34-.24.68-.37,1,0,0,0,0,0,0-.38,1.09-.8,2.17-1.23,3.24,0-.94.08-1.88.17-2.82a0,0,0,0,1,0-.05c.06-.72.14-1.45.25-2.17a.13.13,0,0,1,0-.06A46.05,46.05,0,0,1,484,324a45.17,45.17,0,0,1,6.41-8.94,17.84,17.84,0,0,1,6.7-5,8.18,8.18,0,0,1,8,1c3.59,3,2.73,8.87.29,12.86a26.71,26.71,0,0,1-8.87,8.66,52.41,52.41,0,0,1-15.79,6.17,37.34,37.34,0,0,1,15.79-6.17,38,38,0,0,1,21.84,3.13c3.18,1.52,6.55,4.31,6,7.8s-4.25,5.12-7.57,5.87a43.71,43.71,0,0,1-29.27-3.82,42.24,42.24,0,0,1-7.62-5l-.58-.49.63.34a41.76,41.76,0,0,1,7.57,5.15A43,43,0,0,1,498,358.68c2,3.82,3.35,8.17,2.54,12.39s-4.44,8.11-8.73,8c-5.41-.09-8.85-5.76-10.57-10.88A66.21,66.21,0,0,1,478,352.72a64.55,64.55,0,0,1-.14-8.46c0,.22.07.44.1.66a28.7,28.7,0,0,1,0,7.8,29.59,29.59,0,0,1-5.62,14,14.27,14.27,0,0,1-6.83,5.42c-2.82.88-6.29.16-8-2.28-1.95-2.88-.82-6.8.78-9.88a38.87,38.87,0,0,1,17.83-17l.43-.2" transform="translate(0 -0.16)"/>
          <path class="cls-7" d="M474.75,228.22a.08.08,0,0,1,0,0l.24.53" transform="translate(0 -0.16)"/>
          <path class="cls-7" d="M474.75,228.22c-6.18-3.52-12.26-7.26-17.36-12.19-2.3-2.22-4.49-4.9-4.8-8.08s2.13-6.78,5.33-6.56c2.75.19,4.57,2.84,5.94,5.24Q469.85,217.15,474.75,228.22Z" transform="translate(0 -0.16)"/>
          <path class="cls-7" d="M475.23,228.49l-.48-.27" transform="translate(0 -0.16)"/>
          <path class="cls-7" d="M475.28,228.51c.56.28,1.12.58,1.67.89.33.19.66.38,1,.58l.46.28-.48-.27-1-.56c-.55-.3-1.09-.61-1.63-.92" transform="translate(0 -0.16)"/>
          <path class="cls-7" d="M475.28,228.51l0,0" transform="translate(0 -0.16)"/>
          <path class="cls-7" d="M475.7,229.35q-.22-.42-.42-.84a41,41,0,0,1-1.57-32.21,11.34,11.34,0,0,1,3.68-5.52c1.83-1.29,4.65-1.42,6.14.26,1.26,1.41,1.2,3.52,1,5.4a167.47,167.47,0,0,1-5.79,31.79c0,.1,0,.2-.08.3.05-.11.09-.23.14-.34a53.3,53.3,0,0,1,20.53-24.74c3.11-2,7.55-3.52,10.17-.92,1.68,1.66,1.76,4.46.78,6.61a15.49,15.49,0,0,1-4.62,5.29,88.23,88.23,0,0,1-11.29,7.9,89.14,89.14,0,0,1-13.62,6.61q-.84.33-1.68.63l-.15.06-1,.35h0q-1.64.57-3.3,1.08c.75-.58,1.52-1.13,2.3-1.64,0,0,0,0,0,0,.6-.42,1.21-.8,1.83-1.17l.06,0a46.15,46.15,0,0,1,15.57-5.86,44.91,44.91,0,0,1,11-.65,18,18,0,0,1,8.07,2.08,8.19,8.19,0,0,1,4.25,6.82c-.08,4.68-5.17,7.71-9.81,8.32a26.87,26.87,0,0,1-12.31-1.43,52.51,52.51,0,0,1-14.74-8.38,37.51,37.51,0,0,1,14.74,8.38A38,38,0,0,1,506.9,256.4c.83,3.44.79,7.81-2.25,9.62s-6.65-.08-9.32-2.19a43.62,43.62,0,0,1-15.45-25.11,41.37,41.37,0,0,1-.92-9.09c0-.26,0-.52,0-.77,0,.24.1.47.14.71a42.53,42.53,0,0,1,.77,9.15A43.07,43.07,0,0,1,476.25,255c-1.74,3.93-4.24,7.75-8,9.77s-9.09,1.66-11.74-1.72c-3.33-4.25-1.1-10.5,1.8-15.06a65.24,65.24,0,0,1,10.08-12.26,63.8,63.8,0,0,1,6.44-5.41q-.21.24-.45.48a28.73,28.73,0,0,1-6,4.93,29.83,29.83,0,0,1-14.49,4.5c-2.95.11-6.05-.26-8.51-1.9s-4.09-4.79-3.23-7.62c1-3.32,4.75-4.92,8.16-5.61a38.8,38.8,0,0,1,24.48,3.13,4.93,4.93,0,0,1,.46.23" transform="translate(0 -0.16)"/>
          <path class="cls-7" d="M266.25,368.46l0,0,.43.4" transform="translate(0 -0.16)"/>
          <path class="cls-7" d="M266.25,368.46c-7.05-.87-14.1-2-20.69-4.58-3-1.17-6-2.8-7.54-5.63s-.63-7.07,2.4-8.09c2.61-.88,5.32.87,7.5,2.55A241.08,241.08,0,0,1,266.25,368.46Z" transform="translate(0 -0.16)"/>
          <path class="cls-7" d="M266.84,368.53l-.59-.07" transform="translate(0 -0.16)"/>
          <path class="cls-7" d="M266.87,368.53c.63,0,1.26.1,1.88.18l1.13.16.52.08-.53-.06-1.15-.13-1.85-.22" transform="translate(0 -0.16)"/>
          <path class="cls-7" d="M266.87,368.53a0,0,0,0,1,0,0" transform="translate(0 -0.16)"/>
          <path class="cls-7" d="M267.58,369.14l-.71-.6h0a40.94,40.94,0,0,1-13.82-29.14,11.4,11.4,0,0,1,1.28-6.5c1.2-1.9,3.75-3.1,5.77-2.12,1.7.82,2.46,2.79,3,4.59A167.86,167.86,0,0,1,270,366.93c0,.1,0,.21,0,.31v-.36a53.28,53.28,0,0,1,9.47-30.73c2.1-3,5.61-6.15,9-4.76,2.19.89,3.33,3.44,3.26,5.81a15.69,15.69,0,0,1-2.24,6.66,91.2,91.2,0,0,1-17.43,22.95c-.43.42-.87.83-1.31,1.23a.53.53,0,0,1-.12.1c-.27.26-.54.5-.81.73,0,0,0,0,0,0-.86.77-1.74,1.53-2.64,2.27.47-.81,1-1.61,1.49-2.4a.09.09,0,0,1,0-.05c.39-.6.81-1.19,1.24-1.78l0-.05a46.2,46.2,0,0,1,12.13-11.4,45.39,45.39,0,0,1,9.88-4.81,17.91,17.91,0,0,1,8.26-1.18,8.17,8.17,0,0,1,6.54,4.67c1.73,4.35-1.82,9.1-5.87,11.45a26.81,26.81,0,0,1-11.92,3.4,52.57,52.57,0,0,1-16.82-2.08A37.21,37.21,0,0,1,289.05,369a38,38,0,0,1,17.73,13.14c2.07,2.85,3.71,6.91,1.61,9.74s-6.17,2.48-9.45,1.56A43.67,43.67,0,0,1,275,376.14a41.68,41.68,0,0,1-4.31-8c-.1-.23-.19-.47-.28-.7l.4.6a42.58,42.58,0,0,1,4.19,8.1,43.15,43.15,0,0,1,2.94,16.51c-.09,4.29-.93,8.79-3.66,12.11s-7.75,5-11.5,2.91c-4.71-2.64-5-9.27-4.12-14.59a66.09,66.09,0,0,1,8.47-22.67c-.07.21-.15.42-.23.63a29.18,29.18,0,0,1-3.64,6.84,29.78,29.78,0,0,1-11.65,9.72,14.35,14.35,0,0,1-8.59,1.52c-2.9-.57-5.61-2.86-5.91-5.8-.35-3.45,2.51-6.36,5.38-8.31a38.74,38.74,0,0,1,23.8-6.51l.55,0" transform="translate(0 -0.16)"/>
          <path class="cls-7" d="M354.46,301a.23.23,0,0,1,.07.07l.87.82" transform="translate(0 -0.16)"/>
          <path class="cls-7" d="M354.46,301c-14.33-1.77-28.63-4.05-42-9.3-6.05-2.38-12.24-5.68-15.29-11.42s-1.29-14.35,4.87-16.43c5.3-1.78,10.79,1.76,15.21,5.18A488.63,488.63,0,0,1,354.46,301Z" transform="translate(0 -0.16)"/>
          <path class="cls-7" d="M357.13,302.38c-.48-.4-.95-.8-1.42-1.22,0,0,0,0,0,0A83.14,83.14,0,0,1,327.64,242c-.15-4.55.16-9.35,2.59-13.2s7.62-6.29,11.72-4.31c3.45,1.67,5,5.67,6.16,9.32A340.89,340.89,0,0,1,362,297.87c0,.21.06.43.08.64,0-.25,0-.49,0-.74a108.3,108.3,0,0,1,19.22-62.37c4.28-6.14,11.41-12.47,18.34-9.65,4.44,1.81,6.77,7,6.61,11.78s-2.28,9.29-4.54,13.52a184.69,184.69,0,0,1-35.38,46.61c-.87.84-1.76,1.66-2.65,2.48l-.25.23-1.62,1.47,0,0c-1.76,1.56-3.55,3.1-5.37,4.6q1.43-2.49,3-4.88l.06-.09c.81-1.24,1.66-2.45,2.53-3.64l.08-.1a94,94,0,0,1,24.66-23.15,91.41,91.41,0,0,1,20-9.74c5.39-1.84,11.12-3.2,16.76-2.39s11.18,4.18,13.28,9.47c3.5,8.84-3.69,18.47-11.91,23.24a54.52,54.52,0,0,1-24.13,6.92c-11.35.74-23.18-1.23-34.22-4.23a75.8,75.8,0,0,1,34.22,4.23,77,77,0,0,1,35.91,26.66c4.22,5.8,7.55,14,3.27,19.78-4.12,5.54-12.53,5-19.17,3.17a88.75,88.75,0,0,1-48.57-35.07,85,85,0,0,1-8.78-16.29c-.2-.48-.39-1-.58-1.45.28.4.55.81.83,1.22a86.42,86.42,0,0,1,8.53,16.52,87.48,87.48,0,0,1,5.93,33.44c-.19,8.72-1.89,17.83-7.42,24.57s-15.74,10.2-23.35,5.93c-9.56-5.38-10.24-18.83-8.37-29.63a133,133,0,0,1,9.31-30.8A131.2,131.2,0,0,1,356.22,305c-.16.48-.33,1-.51,1.42a59.25,59.25,0,0,1-7.38,13.79,60.39,60.39,0,0,1-23.62,19.68c-5.44,2.52-11.54,4.23-17.43,3.08s-11.39-5.79-12-11.76c-.71-7,5.08-12.93,10.92-16.88a78.79,78.79,0,0,1,48.32-13.22l.93.06h.23c1.27.09,2.54.21,3.8.37q1.17.14,2.34.33l1,.16-1.08-.12-2.36-.28-3.72-.44-.25,0-1-.13" transform="translate(0 -0.16)"/>
          <path class="cls-7" d="M440.5,158.73c5.24-.75,10.05-3,14.63-5.39a183.44,183.44,0,0,0,36.76-25.29q.41-.35.81-.72a176.82,176.82,0,0,0,14.38-14.47,161.73,161.73,0,0,0,28.55-45.42" transform="translate(0 -0.16)"/>
          <path class="cls-7" d="M492.44,128.17a4.88,4.88,0,0,1-.55-.12,17.62,17.62,0,0,1-13-13.39c-1.35-6.29.51-12.82,3.43-18.67,9.11-18.27,27.7-31,44-44.7s31.82-31,31.28-51q3.25,37.32,6.52,74.64c1,11.58,2,23.27.3,34.78s-6.4,23-15.4,31.38-22.78,13.16-35.39,10.33c-12-2.7-21.68-13.17-21-24a17.17,17.17,0,0,1,.2-1.74" transform="translate(0 -0.16)"/>
          <path class="cls-7" d="M505,116.72a43.53,43.53,0,0,0,2.07-3.86,45.08,45.08,0,0,0,3.41-29.28" transform="translate(0 -0.16)"/>
          <path class="cls-7" d="M511.32,108.15a110,110,0,0,1,40.1-25.27" transform="translate(0 -0.16)"/>
          <path class="cls-7" d="M551.08,42C549.78,59.06,541,75.63,526.9,87.32" transform="translate(0 -0.16)"/>
          <path class="cls-7" d="M500.45,121.26c12.52-10,30.81-14,47.08-10.16" transform="translate(0 -0.16)"/>
          <path class="cls-7" d="M504.76,114.69A50.76,50.76,0,0,0,509,82" transform="translate(0 -0.16)"/>
          <path class="cls-7" d="M531.75,279.52c4,3.15,8.94,5.06,13.91,6.72a202.33,202.33,0,0,0,45.18,9.47l1.13.11a212.07,212.07,0,0,0,21.69.81,205.66,205.66,0,0,0,57.41-8.93" transform="translate(0 -0.16)"/>
          <path class="cls-7" d="M591.08,296.17a4,4,0,0,1-.24-.46c-3-5.61-1.07-12.66,3.42-17.44s11.43-7.75,18.36-9.43c21.6-5.23,44.41-.41,66.6,2.24s47,2.41,64-10.6q-30.32,25.84-60.64,51.68c-9.4,8-18.9,16.1-30,22.19s-24,10.1-37,9.16-25.81-7.45-31.32-18c-5.23-10-2.28-23.34,7.61-29.72.53-.34,1.07-.66,1.64-1" transform="translate(0 -0.16)"/>
          <path class="cls-7" d="M609,297.64c1.58-.28,3.15-.61,4.7-1a56.82,56.82,0,0,0,27.51-16.14" transform="translate(0 -0.16)"/>
          <path class="cls-7" d="M620.38,296.59a119.24,119.24,0,0,1,47.27,11.8" transform="translate(0 -0.16)"/>
          <path class="cls-7" d="M702.94,282.28c-15.67,9.92-35.62,14.28-54.64,11.94" transform="translate(0 -0.16)"/>
          <path class="cls-7" d="M602.13,297.35c16.62,2.33,31.6,12.5,38.57,26.17" transform="translate(0 -0.16)"/>
          <path class="cls-7" d="M610.56,296.18a64.24,64.24,0,0,0,31-17.68" transform="translate(0 -0.16)"/>
          <path class="cls-7" d="M442.54,396.67c.69,4.69,3.08,9.05,5.63,13.2a166.14,166.14,0,0,0,27.32,33.5c.26.27.52.51.79.76a178.7,178.7,0,0,0,15.82,13.23,190.67,190.67,0,0,0,50,26.71" transform="translate(0 -0.16)"/>
          <path class="cls-7" d="M475.34,443.87a4.74,4.74,0,0,1,.15-.5c1.86-6,8.45-10.21,15.33-11.22,7.08-1,14.33.79,20.8,3.56,20.2,8.63,34,25.57,48.84,40.51s33.89,29.24,56.27,29.3L533,509.34c-13,.6-26.08,1.18-38.92-.66s-25.56-6.34-34.71-14.6-14.11-20.69-10.6-31.88c3.33-10.62,15.32-19,27.48-18.07.65,0,1.3.12,1.94.22" transform="translate(0 -0.16)"/>
          <path class="cls-7" d="M487.81,455.4c1.4.71,2.83,1.37,4.29,2a62.06,62.06,0,0,0,32.65,3.82" transform="translate(0 -0.16)"/>
          <path class="cls-7" d="M497.24,461.26a97.62,97.62,0,0,1,27.2,36.49" transform="translate(0 -0.16)"/>
          <path class="cls-7" d="M570.25,498.54c-19.11-1.61-37.42-9.94-50.12-22.8" transform="translate(0 -0.16)"/>
          <path class="cls-7" d="M482.85,451.2c10.89,11.45,14.82,27.89,10.11,42.32" transform="translate(0 -0.16)"/>
          <path class="cls-7" d="M490.09,455.23a69.78,69.78,0,0,0,36.43,4.68" transform="translate(0 -0.16)"/>
          <path class="cls-7" d="M309.25,417.78c-5.29.24-10.34,2-15.18,4a188.61,188.61,0,0,0-39.55,21.67c-.3.2-.59.41-.89.63a179.51,179.51,0,0,0-16,13.07,166.66,166.66,0,0,0-33.77,42.43" transform="translate(0 -0.16)"/>
          <path class="cls-7" d="M254,443.24l.54.17A17,17,0,0,1,265.82,458c.6,6.38-2,12.7-5.62,18.24C249,493.5,229,504.41,211.12,516.47S175.8,544.33,174,564.26q1.18-37.43,2.38-74.84c.36-11.61.75-23.32,3.83-34.61s9.09-22.26,19-29.75,24.21-10.92,36.41-6.91c11.59,3.81,20,15.14,18,25.89a15,15,0,0,1-.41,1.73" transform="translate(0 -0.16)"/>
          <path class="cls-7" d="M240.12,453.43a42.91,42.91,0,0,0-2.53,3.68,45.53,45.53,0,0,0-6.85,28.76" transform="translate(0 -0.16)"/>
          <path class="cls-7" d="M232.83,461.36A113.47,113.47,0,0,1,190,482.69" transform="translate(0 -0.16)"/>
          <path class="cls-7" d="M185.43,523.42c3.32-16.89,14.07-32.53,29.43-42.83" transform="translate(0 -0.16)"/>
          <path class="cls-7" d="M245.2,449.35c-13.65,8.79-32.3,11-48,5.64" transform="translate(0 -0.16)"/>
          <path class="cls-7" d="M240.13,455.48A51.4,51.4,0,0,0,232,487.54" transform="translate(0 -0.16)"/>
          <path class="cls-7" d="M213.13,306.36c-3.65-3.43-8.45-5.7-13.24-7.72a200.57,200.57,0,0,0-44.16-12.75l-1.11-.18a210.27,210.27,0,0,0-21.56-2.4A206.86,206.86,0,0,0,75,288" transform="translate(0 -0.16)"/>
          <path class="cls-7" d="M155.53,285.42c.07.16.14.31.2.47,2.43,5.81-.1,12.7-5,17.14s-12.11,6.89-19.16,8.05c-22,3.63-44.3-2.84-66.17-7.1s-46.66-5.85-64.8,5.87l65.17-47.07c10.11-7.3,20.32-14.66,31.92-19.91s24.85-8.31,37.68-6.43,25,9.32,29.56,20.21a23.4,23.4,0,0,1-10.3,29.06c-.56.3-1.13.58-1.73.84" transform="translate(0 -0.16)"/>
          <path class="cls-7" d="M137.85,282.65c-1.61.16-3.21.38-4.79.66a58.1,58.1,0,0,0-28.89,14.07" transform="translate(0 -0.16)"/>
          <path class="cls-7" d="M126.36,282.86a117.76,117.76,0,0,1-46-15.22" transform="translate(0 -0.16)"/>
          <path class="cls-7" d="M42.77,291.07a85.28,85.28,0,0,1,55.55-7.89" transform="translate(0 -0.16)"/>
          <path class="cls-7" d="M144.62,283.44c-16.34-3.54-30.34-14.77-36-28.91" transform="translate(0 -0.16)"/>
          <path class="cls-7" d="M136.12,284a65.66,65.66,0,0,0-32.54,15.36" transform="translate(0 -0.16)"/>
          <path class="cls-7" d="M313.32,178.55c-1.33-4.59-4.29-8.64-7.4-12.49a172.88,172.88,0,0,0-31.71-30.25c-.29-.24-.58-.45-.87-.66a189.49,189.49,0,0,0-17.53-11.41,196.69,196.69,0,0,0-53.33-21" transform="translate(0 -0.16)"/>
          <path class="cls-7" d="M274.29,135.3c0,.17-.05.34-.08.51-1,6.14-7,11.05-13.67,12.81-6.88,1.81-14.33.78-21.13-1.25-21.23-6.35-37.21-21.66-54-34.86S147.73,87.2,125.51,89.59l82.54-13c12.81-2,25.73-4,38.72-3.6S273,76.52,283.22,83.72s16.85,19,14.9,30.47c-1.85,10.9-12.59,20.54-24.78,21-.65,0-1.31,0-2,0" transform="translate(0 -0.16)"/>
          <path class="cls-7" d="M260.33,125.22c-1.48-.56-3-1-4.52-1.48a62.27,62.27,0,0,0-32.93-.21" transform="translate(0 -0.16)"/>
          <path class="cls-7" d="M250.17,120.43a101.71,101.71,0,0,1-32-33.23" transform="translate(0 -0.16)"/>
          <path class="cls-7" d="M172.6,91.43c19.19-.49,38.5,5.77,52.87,17.14" transform="translate(0 -0.16)"/>
          <path class="cls-7" d="M265.83,128.84C253.45,118.67,247.3,102.79,250,88" transform="translate(0 -0.16)"/>
          <path class="cls-7" d="M258.09,125.64A70.11,70.11,0,0,0,221.3,125" transform="translate(0 -0.16)"/>
          <path class="cls-7" d="M318,89.12c.87-7.21,3.4-14.57,16.22-12.2,7.13,1.32,6.91,14,1.11,18.37S319.78,96.16,318,89.12Z" transform="translate(0 -0.16)"/>
          <path class="cls-7" d="M394.23,42.74c-3.62,1.22-5.37,5.79-4.22,9.42a10.45,10.45,0,0,0,4.32,5.47,13.61,13.61,0,0,0,3.92,1.78c10.31,2.88,21.85-7.47,20.1-18s-16-16.66-24.84-10.61-8.33,21.41.78,26.93l.11.07" transform="translate(0 -0.16)"/>
          <path class="cls-7" d="M440.49,78.43a10.66,10.66,0,0,0,1,8.2,10.52,10.52,0,0,0,7.2,5.43c5.91,1,12.14-4.16,12.05-10.16s-6.63-11-12.42-9.47c-5.59,1.52-8.66,8.83-5.95,13.87.09.18.2.35.31.53" transform="translate(0 -0.16)"/>
          <path class="cls-7" d="M587.17,140.2l-.86,1.5" transform="translate(0 -0.16)"/>
          <path class="cls-7" d="M587.17,140.2c2.08,2.81,5.74,4,9.22,4.4,7,.89,16.26-2.91,15.42-9.93-.7-5.84-8.6-8.36-14-5.93C593,130.93,589.89,135.56,587.17,140.2Z" transform="translate(0 -0.16)"/>
          <path class="cls-7" d="M589,131.13c-3.3,1.26-3.91,6.13-1.84,9l.06.08" transform="translate(0 -0.16)"/>
          <path class="cls-7" d="M652.74,160.5A53.32,53.32,0,0,0,641,166.22c-1.56.95-3.09,1.94-4.6,2.93" transform="translate(0 -0.16)"/>
          <path class="cls-7" d="M667,165.56c-3.22-4.17-9-5.86-14.2-5.06h0A24.28,24.28,0,0,0,641,166.22c-.68.57-1.33,1.17-2,1.78-6.59,6.47-10.68,17.35-5.31,24.86,3.74,5.24,11,7,17.32,5.72s11.81-5,16.81-9.08,10.19-9.31,10.24-15.81c.07-8.65-9.46-14.85-18.1-14.51a27.36,27.36,0,0,0-7.26,1.32" transform="translate(0 -0.16)"/>
          <path class="cls-7" d="M628.69,233c.3,5.86,7.27,10.23,12.74,8.1s7.71-9.85,4.35-14.67-11.19-5.49-15.43-1.43a10.51,10.51,0,0,0-3.05,8,10.81,10.81,0,0,0,3.38,7.67" transform="translate(0 -0.16)"/>
          <path class="cls-7" d="M609.08,371.82a19.71,19.71,0,0,0-1.8,7.55" transform="translate(0 -0.16)"/>
          <path class="cls-7" d="M609.08,371.82c1.89,4.28,5,8.08,9.2,10,5.15,2.29,12.11.86,14.85-4.06,3.94-7-3.92-16.45-11.93-15.57C615.75,362.74,611.38,366.77,609.08,371.82Z" transform="translate(0 -0.16)"/>
          <path class="cls-7" d="M608,369a24.63,24.63,0,0,0,1.08,2.81" transform="translate(0 -0.16)"/>
          <path class="cls-7" d="M593.8,411.52c-3,9.54,2.41,21,11.71,24.65s21.08-.91,25.43-9.92.6-21.1-8.09-26.07a19.14,19.14,0,0,0-19.79.48,17.34,17.34,0,0,0-7.16,11,15.47,15.47,0,0,0,.29,7.25" transform="translate(0 -0.16)"/>
          <path class="cls-7" d="M552.24,423.52a17.56,17.56,0,0,0-4,4.34" transform="translate(0 -0.16)"/>
          <path class="cls-7" d="M552.24,423.52a20,20,0,0,0,3.19,9.59c2.79,3.93,8.44,6.2,12.63,3.82,5.88-3.36,3.87-13.63-2.42-16.13C561.15,419,556.09,420.47,552.24,423.52Z" transform="translate(0 -0.16)"/>
          <path class="cls-7" d="M552,419.29c0,1.4.09,2.82.24,4.23" transform="translate(0 -0.16)"/>
          <path class="cls-7" d="M410.65,498.29c-2.93,5.62,2.86,13.26,9.15,12.52s11.69-9.47,7.74-14.43C420.54,487.62,412.63,493.52,410.65,498.29Z" transform="translate(0 -0.16)"/>
          <path class="cls-7" d="M330.69,516.58a22.84,22.84,0,0,0-2.59,10.14" transform="translate(0 -0.16)"/>
          <path class="cls-7" d="M335,509.84a22.19,22.19,0,0,0-4.26,6.69.06.06,0,0,0,0,.05c-4.51,11-.9,25.41,9.34,31.85,12.54,7.89,31.56,1.65,37-12.12s-4.17-31.33-18.7-34.17c-11-2.16-22.59,4.56-27.63,14.39" transform="translate(0 -0.16)"/>
          <path class="cls-7" d="M286.72,494.5c.48,7.4,10.31,12.29,16.5,8.2s5.58-15-1-18.4-15.82,2.61-15.47,10" transform="translate(0 -0.16)"/>
          <path class="cls-7" d="M180.34,403.94c-1.89,4.51,3.48,9.84,8.17,8.46s6.68-7.84,4.12-12S180.67,398,180.34,403.94Z" transform="translate(0 -0.16)"/>
          <path class="cls-7" d="M127.77,368.7a18.2,18.2,0,0,0-3.47,11.9" transform="translate(0 -0.16)"/>
          <path class="cls-7" d="M127.77,368.7a32.24,32.24,0,0,0-4,3.79c-4.47,5-7.22,11.87-6,18.46,1.74,9.3,11.19,15.79,20.63,16.46,12.37.88,25.07-7.67,27.93-19.74s-5.46-25.94-17.66-28.19C140.67,358,132.33,362.18,127.77,368.7Z" transform="translate(0 -0.16)"/>
          <path class="cls-7" d="M140.35,361.49a55.79,55.79,0,0,0-12.58,7.21" transform="translate(0 -0.16)"/>
          <path class="cls-7" d="M139.86,327.9c-1.93,5.19,2.64,11.61,8.18,11.49s9.82-6.74,7.67-11.84C153.38,322,143.74,321.19,139.86,327.9Z" transform="translate(0 -0.16)"/>
          <path class="cls-7" d="M140.93,206.57a7.94,7.94,0,0,0-1.31,1.05c-3.67,3.71-3.37,10.88.91,14.09,4.75,3.56,12.54,1.33,14.94-4.09s-.77-13-6.52-14.4c-3.67-.92-6.94,1.58-9.52,4.22-1.28,1.31-2.4,2.65-3.31,3.62" transform="translate(0 -0.16)"/>
          <path class="cls-7" d="M119.18,164.49c-.33,8.36,4.59,17,12.46,19.88" transform="translate(0 -0.16)"/>
          <path class="cls-7" d="M119.18,164.49a24.54,24.54,0,0,0,12.38,15.08c9.13,4.59,20.43,3.46,29.5-1.25,5.13-2.66,10.08-7.1,10.42-12.87.24-4-1.82-7.8-4.36-10.9-6.21-7.59-16-12.39-25.81-11.54s-19,7.83-21.51,17.3A19.1,19.1,0,0,0,119.18,164.49Z" transform="translate(0 -0.16)"/>
          <path class="cls-7" d="M119,154.16a19.57,19.57,0,0,0,.15,10.33" transform="translate(0 -0.16)"/>
          <path class="cls-7" d="M179.31,146.21a5,5,0,0,0-.4,1.22,4.77,4.77,0,0,0,.26,2.78c1.27,3.19,5.67,5.49,9.65,5.16,5.51-.46,9.4-7,7.72-12.23s-8.92-10.4-13.33-7c-7.05,5.33-5.13,7.87-4.3,11.34a8.31,8.31,0,0,1,.26,2.78,3.22,3.22,0,0,1,0,.43" transform="translate(0 -0.16)"/>
          <path class="cls-7" d="M254.5,304.79c3,4.29,10.62,3.88,13.15-.72s-1.21-11.24-6.45-11.48-9.56,6.05-7.46,10.85" transform="translate(0 -0.16)"/>
          <path class="cls-7" d="M311.23,197c-1.05-6.11,5.9-12,11.77-10s7.73,10.93,3.16,15.12-13.3,1.56-14.79-4.46" transform="translate(0 -0.16)"/>
          <path class="cls-7" d="M426.31,179.76a6.46,6.46,0,0,0-3.06,2.8c-1.65,2.91-1.44,7,1.06,9.37,3.55,3.34,10.17,2.07,12.43-2.25s-.24-10.32-4.83-12c-4.12-1.49-9.08.62-11.24,4.39a8,8,0,0,0-.62,1.32" transform="translate(0 -0.16)"/>
          <path class="cls-7" d="M472,286.22c-2-5.72,3.83-12.53,9.78-11.42s8.94,9.57,5,14.17S474.05,291.93,472,286.22Z" transform="translate(0 -0.16)"/>
          <path class="cls-7" d="M418.88,391.19c.05.19.1.37.16.54a.08.08,0,0,1,0,0,3.07,3.07,0,0,0,.17.42c1.81,4.09,8,5.6,11.6,2.71,3.86-3.13,3.68-9.82-.05-13.1s-9-3.11-11.55,1.14c-3,5-1.88,4.64-.19,8.78" transform="translate(0 -0.16)"/>
          <path class="cls-7" d="M314.74,402.22c-.73,4.93,4.83,9.59,9.56,8s6.39-8.64,2.86-12.15S316.58,396.27,315,401" transform="translate(0 -0.16)"/>
        </g>
      </g>
    </g>
  </g>
</svg>
