<svg xmlns="http://www.w3.org/2000/svg" viewBox="0 0 623.06 319.02">
  <defs>
    <style>
      .cls-1 {
        fill: #92d7e7;
      }

      .cls-2 {
        fill: #5bc9e1;
      }

      .cls-3 {
        fill: #808285;
      }

      .cls-4 {
        fill: #58595b;
      }

      .cls-5 {
        fill: #231f20;
      }

      .cls-6 {
        fill: #6d6e71;
      }

      .cls-10, .cls-7, .cls-8, .cls-9 {
        fill: none;
        stroke-miterlimit: 10;
      }

      .cls-10, .cls-7, .cls-9 {
        stroke: #231f20;
      }

      .cls-7 {
        stroke-width: 3px;
      }

      .cls-8 {
        stroke: #fff;
      }

      .cls-10, .cls-8 {
        stroke-width: 2px;
      }

      .cls-11 {
        fill: #fff;
      }
    </style>
  </defs>
  <title>Asset 1sealo</title>
  <g id="Layer_2" data-name="Layer 2">
    <g id="Layer_1-2" data-name="Layer 1">
      <g>
        <g>
          <path class="cls-1" d="M428.4,159.5q-7.38,1.67-14.8,3.13-1.34-3.75-2.45-7.55c-.36-1.23-.71-2.47-1-3.71Q419.28,155.39,428.4,159.5Z"/>
          <path class="cls-2" d="M223.23,235.83c29.35,12.09,56.62,34.12,87.92,30.93,14.05-1.43,27-7.95,40.74-11.37,32.43-8.07,72.18,5.74,104.19,15.37a182.49,182.49,0,0,1-34.34,3.65c-12.1.13-24.29-.92-36.23,1-13.7,2.22-26.43,8.23-39.5,12.91a210.92,210.92,0,0,1-68.66,12.29,219.54,219.54,0,0,1-32.89-4.13C206.69,288.54,172.91,268.08,140,248c-.13-1.35-.28-2.7-.47-4,15.51-8.78,32.55-15.62,50.2-15.63,1,0,2,0,3,.06C203.25,228.83,213.36,231.77,223.23,235.83Z"/>
          <path class="cls-1" d="M407.54,140.51c-2.75-13.09-4.42-26.43-6.49-39.68l.74-.11c73.32-8.5,150-16.61,219,9.2-14.45,21,.28,53.36-14,74.84-10,15.11-30.92,19.2-42.92,32.81-14.78,16.76-12.13,42.59-21.82,62.73-13.23,27.47-47.08,39-77.55,38.17s-59.87-11.17-90.1-15.05c-32.08-4.12-64.86-1-97.06-2.8A210.92,210.92,0,0,0,346,288.33c13.07-4.68,25.8-10.69,39.5-12.91,11.94-1.93,24.13-.88,36.23-1a182.49,182.49,0,0,0,34.34-3.65,190.46,190.46,0,0,0,42.67-14.06c-38-18.35-70.92-54.06-85.15-94.07q7.42-1.47,14.8-3.13-9.12-4.11-18.29-8.13Q408.67,146,407.54,140.51Z"/>
          <path class="cls-1" d="M215.61,156.62c-.38,5.37-.8,10.61-1.37,15.71-2.41,21.57-7.57,40.56-24.55,56-17.65,0-34.69,6.85-50.2,15.63a125.51,125.51,0,0,0-44.23-79.78,125.52,125.52,0,0,0-83.36-28c27.83-14.27,61.61-15.22,93.33-13.37,36.28,2.11,77.56,5.39,112.32-5.22h0c-.7,12.22-.94,24.53-1.78,36.69C215.72,155,215.67,155.82,215.61,156.62Z"/>
          <path class="cls-3" d="M356.82,119.66c-10.28-8.17-25-15.62-38-13.48S295.4,121,288.29,132.08a16.81,16.81,0,0,0,9.54,11.52,67.43,67.43,0,0,1,1.34-16.34,5.29,5.29,0,0,1,1.51-3.2c1.76-1.41,4.58,0,5.47,2s.46,4.44.07,6.65c-.93,5.38-1.47,11.1.6,16.15s11.29,9.57,16.61,8.32l.09-.74.71.08a28.53,28.53,0,0,0,14-4.61l-.07-.1a10.3,10.3,0,0,0,4-6.62c.63-3.78-.58-7.66-2.35-11.06a34.55,34.55,0,0,1-3-6.29c-.64-2.23-.5-4.87,1.07-6.59s4.78-1.89,6,.07c1.07,1.66.39,3.94,1.2,5.74,1.27,2.79,5.58,2.83,7.88.8S356.14,122.66,356.82,119.66ZM342.5,70.75a5.49,5.49,0,0,0-.41,5l-.88.28a41.9,41.9,0,0,0,15.61,21.14c1.59,1.12,3.54,2.16,5.4,1.6,2.88-.88,3.39-4.75,2.9-7.72A31.05,31.05,0,0,0,353,71.27C349.88,68.94,344.77,67.53,342.5,70.75Zm65,69.76q1.14,5.46,2.57,10.86c.33,1.24.68,2.48,1,3.71q1.11,3.79,2.45,7.55-8.44,1.71-16.93,3.17-7.71,1.35-15.46,2.49a671.65,671.65,0,0,1-110,7.35q-6.88-.09-13.78-.34-8.4-.31-16.8-.83-13.2-.79-26.38-2.14c.57-5.1,1-10.34,1.37-15.71.06-.8.11-1.6.17-2.4.84-12.16,1.08-24.47,1.78-36.69q.34-6.32.91-12.57c.42.07.83.13,1.25.18a9.31,9.31,0,0,0-1.21-.54c.1-1,.21-2.1.32-3.14.27-2.52.58-5,.95-7.53A138.23,138.23,0,0,1,226,67.65c9.88-28,32.06-52.08,60.19-61.7s61.71-3.53,83,17.26c14.76,14.43,22.75,34.26,27.52,54.49.29,1.22.56,2.44.83,3.66l.15.71c.28,1.27.54,2.55.79,3.82l-2.23,3.35a12.58,12.58,0,0,0,2.6-1.35c.83,4.3,1.54,8.61,2.21,12.94C403.12,114.08,404.79,127.42,407.54,140.51ZM281.65,84.67c.71-2.09,1.17-4.73-.46-6.2-1.93-1.73-5-.34-7,1.25a44.06,44.06,0,0,0-8.94,9.45A23,23,0,0,0,262.85,93h0a43.86,43.86,0,0,0-4.21,10.28c-.83,3.13-.71,7.47,2.38,8.46,2.38.77,4.75-1.14,6.4-3a46.84,46.84,0,0,0,4.18-5.55A61.54,61.54,0,0,0,281.65,84.67Z"/>
          <path class="cls-4" d="M351.89,255.39c-13.71,3.42-26.69,9.94-40.74,11.37-31.3,3.19-58.57-18.84-87.92-30.93a245.82,245.82,0,0,1,34.19-60.53q6.88.24,13.78.34a671.65,671.65,0,0,0,110-7.35q7.74-1.14,15.46-2.49,8.49-1.47,16.93-3.17c14.23,40,47.16,75.72,85.15,94.07a190.46,190.46,0,0,1-42.67,14.06C424.07,261.13,384.32,247.32,351.89,255.39Z"/>
          <path class="cls-4" d="M240.62,174.47q8.4.53,16.8.83a245.82,245.82,0,0,0-34.19,60.53c-9.87-4.06-20-7-30.56-7.47-1,0-2-.06-3-.06,17-15.41,22.14-34.4,24.55-56Q227.41,173.68,240.62,174.47Z"/>
          <path class="cls-5" d="M207.85,97.75a36.42,36.42,0,0,0,4.6,2.28,33.47,33.47,0,0,1,3.77,3.17,23.26,23.26,0,0,0-3.07-2.89c.56.22,1.12.42,1.69.61a3.62,3.62,0,0,0,1.86.56l.24-.15a15.25,15.25,0,0,0-2-2.53l.08-.07a9.28,9.28,0,0,0,3.81,2.73c-.11,1-.22,2.09-.32,3.14a19.38,19.38,0,0,0-4.32-.89,21.26,21.26,0,0,1-5.47-3.28,16.65,16.65,0,0,0,3.23-.11A12.79,12.79,0,0,1,207.85,97.75Z"/>
          <path class="cls-5" d="M352.83,73.39a35.56,35.56,0,0,1,4.26,6.46,21.57,21.57,0,0,0-13.36-7.24,25.84,25.84,0,0,0-.21,3.29c-.06-.19-.12-.38-.17-.58a5.24,5.24,0,0,1,1.5-5.17c1.71-.62,3.78.3,5.37,1.35C351.12,72.09,352,72.73,352.83,73.39Z"/>
          <path class="cls-5" d="M270.29,102.29a61.94,61.94,0,0,0,5.38-9.69v0l1.68-2.7c.19-.31.39-.63.57-.95a49.65,49.65,0,0,1-6.34,14.2q-.6.77-1.23,1.5c-2.34,2.77-6.28,5.51-9.26,3.44s-1.87-6.44-.31-9.56c.09-.17.17-.35.26-.52a9.07,9.07,0,0,0,0,4.85,4.34,4.34,0,0,0,3.85,3.07,3,3,0,0,0,.85-.12h0C267.55,105.56,269.21,103.88,270.29,102.29Z"/>
          <path class="cls-5" d="M269.87,101.91c-1,1.62-2.3,3.4-4.06,3.88h0a2.84,2.84,0,0,1-1.6-.27c-1.59-.77-2.07-2.92-1.53-4.6A10.27,10.27,0,0,1,265.42,97c-.16,1.91.38,3.79,2.14,4s2.88-1.53,3.69-3l7.35-13.48a61.61,61.61,0,0,1-2.92,8.1v0Q272.76,97.25,269.87,101.91Z"/>
          <path class="cls-5" d="M360.92,91.57c.9-1,.84-2.9.38-4.33a20.77,20.77,0,0,0-4.21-7.39,35.56,35.56,0,0,0-4.26-6.46,35.39,35.39,0,0,1,8,9,10.83,10.83,0,0,1,2,5.61A5.1,5.1,0,0,1,361,91.88C361,91.78,360.94,91.67,360.92,91.57Z"/>
          <path class="cls-6" d="M404.73,79.42a12.44,12.44,0,0,0,.35-3,14.51,14.51,0,0,0-7.55,5c-.27-1.22-.54-2.44-.83-3.66a58.81,58.81,0,0,1,4.41-7.45c1.62-2.34,4.26-4.83,6.93-3.81,2.31.88,2.95,4,2,6.34s-2.86,4-4.57,5.78C405.25,78.84,405,79.12,404.73,79.42Z"/>
          <path class="cls-5" d="M353,71.27a31.05,31.05,0,0,1,12.08,19.78c.49,3,0,6.84-2.9,7.72-1.86.56-3.81-.48-5.4-1.6A41.9,41.9,0,0,1,341.21,76l.88-.28a5.49,5.49,0,0,1,.41-5C344.77,67.53,349.88,68.94,353,71.27ZM362.76,88a10.83,10.83,0,0,0-2-5.61,35.39,35.39,0,0,0-8-9c-.3-.37-.6-.73-.92-1.08-1.5-1.67-3.56-3.33-5.75-2.81a3.23,3.23,0,0,0-1.31.65,3.73,3.73,0,0,0-.63.32c-2,1.29-1.69,4-.66,6.34a9.43,9.43,0,0,0,.66,2.82,5.08,5.08,0,0,0,.33.66,6.3,6.3,0,0,0,.78,1.08,50,50,0,0,0,9,9.25,15.11,15.11,0,0,0,1.36,1,17.44,17.44,0,0,0,1.84,2.2,1.46,1.46,0,0,0,1.06,1.47,1.76,1.76,0,0,0,.51,0h0s0,0,0,0a1.79,1.79,0,0,0,.59-.2L361.34,97a36.66,36.66,0,0,0-.37-5.13A5.1,5.1,0,0,0,362.76,88Z"/>
          <path class="cls-5" d="M208.88,94.84a7,7,0,0,1,2.39,2c1.06,1.44,2.13,3.18,3.57,4-.57-.19-1.13-.39-1.69-.61a24.16,24.16,0,0,0-6.31-3.62,11.28,11.28,0,0,1-1.36-1.94,2.42,2.42,0,0,1,1.69-.45A13,13,0,0,1,208.88,94.84Z"/>
          <path class="cls-5" d="M272.74,83.89A36.69,36.69,0,0,0,266,94.71a8.08,8.08,0,0,0-.54,2.29,10.27,10.27,0,0,0-2.77,3.92c-.54,1.68-.06,3.83,1.53,4.6a2.84,2.84,0,0,0,1.6.27,3,3,0,0,1-.85.12,4.34,4.34,0,0,1-3.85-3.07,9.07,9.07,0,0,1,0-4.85,59,59,0,0,1,10.73-14.73,22.43,22.43,0,0,1,7.69-3c-.1,1.24-.26,2.48-.46,3.71a3,3,0,0,0-2.16-2.19C275.27,81.48,273.82,82.7,272.74,83.89Z"/>
          <path class="cls-5" d="M205,93.91a8.52,8.52,0,0,0,.46.84,2.31,2.31,0,0,0-.4.37,2,2,0,0,0-.44.83,3.57,3.57,0,0,0,1.83,3.84,5.88,5.88,0,0,0,2.25.64,21.26,21.26,0,0,0,5.47,3.28l-2.16-.23c-2.63-.3-5.4-.87-7.29-2.71a5.68,5.68,0,0,1-1.54-2.87,4.14,4.14,0,0,1,1.24-4.13c2.36-1.91,5.93-.16,8,2.06.86.92,1.68,2,2.57,2.9l-.08.07a16.31,16.31,0,0,0-6.06-4,4.54,4.54,0,0,0-1.71-.54A15.91,15.91,0,0,0,205,93.91Z"/>
          <path class="cls-5" d="M267.41,108.68c-1.65,1.89-4,3.8-6.4,3-3.09-1-3.21-5.33-2.38-8.46A43.86,43.86,0,0,1,262.84,93a22.24,22.24,0,0,0-1.71,4.68c0,.11-.05.22-.08.34s-.17.35-.26.52c-1.56,3.12-2.55,7.56.31,9.56s6.92-.67,9.26-3.44q.63-.73,1.23-1.5A46.84,46.84,0,0,1,267.41,108.68Z"/>
          <path class="cls-5" d="M360.74,91.76a1.93,1.93,0,0,1-.72.39,3,3,0,0,1-2.32-.45l-.27-.28a19.76,19.76,0,0,0-.47-3.83,16.36,16.36,0,0,1,2.15,1.83A6.73,6.73,0,0,1,360.74,91.76Z"/>
          <path class="cls-5" d="M357.43,91.42l-.16-.16-4.13-4.33.09.22-2.32-2.36a17.23,17.23,0,0,1,6,2.8A19.76,19.76,0,0,1,357.43,91.42Z"/>
          <path class="cls-5" d="M405.08,76.38a12.44,12.44,0,0,1-.35,3,8.64,8.64,0,0,0-2.41,5.15,13.72,13.72,0,0,1-3.48,3.32c-.11-.65-.23-1.29-.36-1.94,0,0,0,0,0-.06,1.58-2.37,3.15-4.74,4.73-7.1a8.25,8.25,0,0,0-5.52,3.28l-.15-.71A14.51,14.51,0,0,1,405.08,76.38Z"/>
          <path class="cls-5" d="M403.2,78.79c-1.58,2.36-3.15,4.73-4.73,7.1-.25-1.27-.51-2.55-.79-3.82A8.25,8.25,0,0,1,403.2,78.79Z"/>
          <path class="cls-5" d="M323.52,156.47l-.09.74c-5.32,1.25-14.53-3.27-16.61-8.32s-1.53-10.77-.6-16.15c.39-2.21.82-4.58-.07-6.65s-3.71-3.44-5.47-2a5.29,5.29,0,0,0-1.51,3.2,67.43,67.43,0,0,0-1.34,16.34,16.81,16.81,0,0,1-9.54-11.52c7.11-11,17.6-23.76,30.56-25.9s27.69,5.31,38,13.48c-.68,3-1.48,6.2-3.79,8.23s-6.61,2-7.88-.8c-.81-1.8-.13-4.08-1.2-5.74-1.26-2-4.47-1.79-6-.07s-1.71,4.36-1.07,6.59a34.55,34.55,0,0,0,3,6.29c1.77,3.4,3,7.28,2.35,11.06a10.3,10.3,0,0,1-4,6.62l.07.1a28.53,28.53,0,0,1-14,4.61Z"/>
          <path class="cls-5" d="M271.78,83.26a24.31,24.31,0,0,0-6.55,5.91,44.06,44.06,0,0,1,8.94-9.45c2-1.59,5.09-3,7-1.25,1.63,1.47,1.17,4.11.46,6.2a61.54,61.54,0,0,1-10.06,18.46,49.65,49.65,0,0,0,6.34-14.2,8,8,0,0,0,1.26-3.42A4.15,4.15,0,0,0,279,84c.2-1.23.36-2.47.46-3.71A22.43,22.43,0,0,0,271.78,83.26Z"/>
          <path class="cls-6" d="M215.5,90.47a21.29,21.29,0,0,1,4.28,3.46c-.37,2.5-.68,5-.95,7.53A9.28,9.28,0,0,1,215,98.73c-.89-.94-1.71-2-2.57-2.9-2.08-2.22-5.65-4-8-2.06a4.14,4.14,0,0,0-1.24,4.13l-1,.19c-1.65-3,.26-7.16,3.39-8.64S212.52,88.71,215.5,90.47Z"/>
        </g>
        <g>
          <path class="cls-7" d="M189.68,228.31h0c17-15.41,22.14-34.4,24.55-56,.57-5.1,1-10.34,1.37-15.71.06-.8.11-1.6.17-2.4.84-12.16,1.08-24.47,1.78-36.69q.34-6.32.91-12.57c0-.12,0-.24,0-.36.1-1,.21-2.1.32-3.14.27-2.52.58-5,.95-7.53A138.23,138.23,0,0,1,226,67.65c9.88-28,32.06-52.08,60.19-61.7s61.71-3.53,83,17.26c14.76,14.43,22.75,34.26,27.52,54.49.29,1.22.56,2.44.83,3.66l.15.71c.28,1.27.54,2.55.79,3.82,0,0,0,0,0,.06.13.65.25,1.29.36,1.94.83,4.3,1.54,8.61,2.21,12.94,2.07,13.25,3.74,26.59,6.49,39.68q1.14,5.46,2.57,10.86c.33,1.24.68,2.48,1,3.71q1.11,3.79,2.45,7.55c14.23,40,47.16,75.72,85.15,94.07"/>
          <path class="cls-8" d="M185.89,168.84q14.13,2.06,28.35,3.49,13.17,1.35,26.38,2.14,8.4.53,16.8.83,6.88.24,13.78.34a671.65,671.65,0,0,0,110-7.35q7.74-1.14,15.46-2.49,8.49-1.47,16.93-3.17,7.42-1.47,14.8-3.13A661.68,661.68,0,0,0,497.61,140"/>
          <path class="cls-7" d="M263.71,135.37a81.2,81.2,0,0,1,111.6-18"/>
          <path class="cls-9" d="M288.17,131.53c0,.18.07.37.12.55a16.81,16.81,0,0,0,9.54,11.52,67.43,67.43,0,0,1,1.34-16.34,5.29,5.29,0,0,1,1.51-3.2c1.76-1.41,4.58,0,5.47,2s.46,4.44.07,6.65c-.93,5.38-1.47,11.1.6,16.15s11.29,9.57,16.61,8.32h0"/>
          <path class="cls-9" d="M356.82,119.66c-.68,3-1.48,6.2-3.79,8.23s-6.61,2-7.88-.8c-.81-1.8-.13-4.08-1.2-5.74-1.26-2-4.47-1.79-6-.07s-1.71,4.36-1.07,6.59a34.55,34.55,0,0,0,3,6.29c1.77,3.4,3,7.28,2.35,11.06a10.3,10.3,0,0,1-4,6.62,7.45,7.45,0,0,1-3.24,1.35"/>
          <path class="cls-7" d="M322.63,126.43a102.21,102.21,0,0,1,.89,30l-.09.74a100.16,100.16,0,0,1-2.89,14.47"/>
          <path class="cls-9" d="M324.23,156.55a28.53,28.53,0,0,0,14-4.61,17.18,17.18,0,0,0,3.41-3"/>
          <path class="cls-9" d="M288.29,132.08c7.11-11,17.6-23.76,30.56-25.9s27.69,5.31,38,13.48"/>
          <path class="cls-9" d="M280,159.46l1.5,1.51"/>
          <path class="cls-10" d="M292.82,168.49h3.76"/>
          <path class="cls-10" d="M369.62,135.42l-.75,4.51"/>
          <path class="cls-10" d="M363.55,148.23l-2.25,3"/>
          <path class="cls-10" d="M352.22,158l-2.26-.75"/>
          <path class="cls-9" d="M373.24,153.46c-.54-1-2.35.66-1.34,1.26"/>
          <path class="cls-10" d="M383.63,145.14c-.25,1-.49,2-.73,3"/>
          <path class="cls-10" d="M270.26,166.23h3"/>
          <path class="cls-9" d="M265.78,105.79a2.84,2.84,0,0,1-1.6-.27c-1.59-.77-2.07-2.92-1.53-4.6A10.27,10.27,0,0,1,265.42,97l.32-.32.12,3,2.9-2.66"/>
          <path class="cls-9" d="M275.67,92.6a61.94,61.94,0,0,1-5.38,9.69c-1.08,1.59-2.74,3.27-4.48,3.5"/>
          <path class="cls-9" d="M275.68,92.58l1.68-2.7c.19-.31.39-.63.57-.95a8,8,0,0,0,1.26-3.42A4.15,4.15,0,0,0,279,84a3,3,0,0,0-2.16-2.19c-1.58-.32-3,.9-4.11,2.09A36.69,36.69,0,0,0,266,94.71a8.08,8.08,0,0,0-.54,2.29c-.16,1.91.38,3.79,2.14,4s2.88-1.53,3.69-3l7.35-13.48a61.61,61.61,0,0,1-2.92,8.1"/>
          <path class="cls-9" d="M275.68,92.58v0"/>
          <path class="cls-9" d="M265.81,105.79c1.76-.48,3-2.26,4.06-3.88q2.89-4.65,5.8-9.31"/>
          <path class="cls-9" d="M265.81,105.79h0"/>
          <path class="cls-9" d="M262.84,93a22.24,22.24,0,0,0-1.71,4.68c0,.11-.05.22-.08.34a9.07,9.07,0,0,0,0,4.85,4.34,4.34,0,0,0,3.85,3.07,3,3,0,0,0,.85-.12"/>
          <path class="cls-9" d="M272.78,82.28c-.34.32-.67.65-1,1A59,59,0,0,0,261.05,98c-.09.17-.17.35-.26.52-1.56,3.12-2.55,7.56.31,9.56s6.92-.67,9.26-3.44q.63-.73,1.23-1.5a61.54,61.54,0,0,0,10.06-18.46c.71-2.09,1.17-4.73-.46-6.2-1.93-1.73-5-.34-7,1.25a44.06,44.06,0,0,0-8.94,9.45A41.47,41.47,0,0,0,262.85,93h0a43.86,43.86,0,0,0-4.21,10.28c-.83,3.13-.71,7.47,2.38,8.46,2.38.77,4.75-1.14,6.4-3a46.84,46.84,0,0,0,4.18-5.55,49.65,49.65,0,0,0,6.34-14.2A46.8,46.8,0,0,0,279,84c.2-1.23.36-2.47.46-3.71a22.43,22.43,0,0,0-7.69,3,24.31,24.31,0,0,0-6.55,5.91A23,23,0,0,0,262.85,93"/>
          <path class="cls-9" d="M357.7,91.7l.87.89a.46.46,0,0,1,.07.07l.73.74.5.51"/>
          <path class="cls-9" d="M357.27,91.26l-4.13-4.33.09.22c.11.29.22.57.35.85s.35.74.54,1.11a20.41,20.41,0,0,0,1.53,2.48,17.44,17.44,0,0,0,1.84,2.2,15.86,15.86,0,0,0,1.57,1.49h0s0,0,0,0a1.24,1.24,0,0,0,.34-.49,1.74,1.74,0,0,0-.05-1.38,1.5,1.5,0,0,0-.66-.74.46.46,0,0,0-.14-.07l-.2-.07a.77.77,0,0,0-.27.08.72.72,0,0,0-.34.25,1.36,1.36,0,0,0-.27.94,1.46,1.46,0,0,0,1.06,1.47,1.76,1.76,0,0,0,.51,0h0a1.79,1.79,0,0,0,.59-.2,2.59,2.59,0,0,0,1.27-2.27,3,3,0,0,0-.13-.8c0-.08-.05-.16-.07-.24a6.73,6.73,0,0,0-1.63-2.34A16.36,16.36,0,0,0,357,87.59a17.23,17.23,0,0,0-6-2.8l-.11,0L353.58,88l1.84,2.13,2,2.3.36.42c.56.64,1.11,1.29,1.66,1.93l.25.29L361.34,97a36.66,36.66,0,0,0-.37-5.13c0-.1,0-.21-.05-.31a37.61,37.61,0,0,0-3.83-11.72,35.56,35.56,0,0,0-4.26-6.46c-.3-.37-.6-.73-.92-1.08-1.5-1.67-3.56-3.33-5.75-2.81a3.23,3.23,0,0,0-1.31.65,5.24,5.24,0,0,0-1.5,5.17c0,.2.11.39.17.58a14.89,14.89,0,0,0,3.85,5.28c.65.66,1.29,1.32,1.95,2l1.59,1.63,2.32,2.36,4,4.11"/>
          <path class="cls-9" d="M357.27,91.26l.16.16"/>
          <path class="cls-9" d="M352,78.12a20.44,20.44,0,0,1,5,9.47,19.76,19.76,0,0,1,.47,3.83l.27.28"/>
          <path class="cls-9" d="M352,78.09a2.16,2.16,0,0,0-.39-.41Z"/>
          <path class="cls-9" d="M352,78.09l0,0"/>
          <path class="cls-9" d="M340.27,72.65c.26,1.14.58,2.27.94,3.38a41.9,41.9,0,0,0,15.61,21.14c1.59,1.12,3.54,2.16,5.4,1.6,2.88-.88,3.39-4.75,2.9-7.72A31.05,31.05,0,0,0,353,71.27c-3.16-2.33-8.27-3.74-10.54-.52a5.49,5.49,0,0,0-.41,5,14.55,14.55,0,0,0,1.84,3.65c.2.3.41.6.62.89s.51.73.78,1.08a50,50,0,0,0,9,9.25,15.11,15.11,0,0,0,1.36,1,7.21,7.21,0,0,0,1.75.84,3.4,3.4,0,0,0,.7.17,5,5,0,0,0,.54.06h.07a4.17,4.17,0,0,0,.85-.09,3.31,3.31,0,0,0,1.25-.57.83.83,0,0,0,.16-.12A5.1,5.1,0,0,0,362.76,88a10.83,10.83,0,0,0-2-5.61,35.39,35.39,0,0,0-8-9c-.84-.66-1.71-1.3-2.61-1.89-1.59-1-3.66-2-5.37-1.35a3.73,3.73,0,0,0-.63.32c-2,1.29-1.69,4-.66,6.34a13.24,13.24,0,0,0,.94,1.71,43.41,43.41,0,0,0,3.39,4.5,45.41,45.41,0,0,0,6.23,6.09c.42.35.86.69,1.3,1s1,.72,1.49,1.07a8.85,8.85,0,0,0,.79.5,3,3,0,0,0,2.32.45,1.93,1.93,0,0,0,.72-.39.8.8,0,0,0,.18-.19c.9-1,.84-2.9.38-4.33a20.77,20.77,0,0,0-4.21-7.39,21.57,21.57,0,0,0-13.36-7.24,25.84,25.84,0,0,0-.21,3.29c0,.31,0,.61,0,.91a9.43,9.43,0,0,0,.66,2.82,5.08,5.08,0,0,0,.33.66,6.3,6.3,0,0,0,.78,1.08A5.48,5.48,0,0,0,347.89,83a3.62,3.62,0,0,0,1.43.14,2,2,0,0,0,.47-.06c2.12-.44,3.39-3.33,2.21-5"/>
          <path class="cls-9" d="M219.32,101.6a3.94,3.94,0,0,1-.49-.14A9.28,9.28,0,0,1,215,98.73c-.89-.94-1.71-2-2.57-2.9-2.08-2.22-5.65-4-8-2.06a4.14,4.14,0,0,0-1.24,4.13,5.68,5.68,0,0,0,1.54,2.87c1.89,1.84,4.66,2.41,7.29,2.71l2.16.23a19.38,19.38,0,0,1,4.32.89,9.31,9.31,0,0,1,1.21.54c-.42,0-.83-.11-1.25-.18a20.59,20.59,0,0,1-4.28-1.25,21.26,21.26,0,0,1-5.47-3.28A20.3,20.3,0,0,1,204.66,96l.77.23c.23.07.47.15.7.24s.47.16.71.26a24.16,24.16,0,0,1,6.31,3.62,23.26,23.26,0,0,1,3.07,2.89,33.69,33.69,0,0,0-9.31-6.42c-.26-.13-.52-.25-.78-.35s-.64-.29-1-.42c.09.06.18.13.27.18.78.56,1.59,1.08,2.42,1.56a36.42,36.42,0,0,0,4.6,2.28l.7.28c.56.22,1.12.42,1.69.61s1.24.39,1.86.56a3.62,3.62,0,0,1-1.86-.56c-1.44-.87-2.51-2.61-3.57-4a7,7,0,0,0-2.39-2,4.54,4.54,0,0,0-1.71-.54,2.42,2.42,0,0,0-1.69.45,2.31,2.31,0,0,0-.4.37,2,2,0,0,0-.44.83,3.57,3.57,0,0,0,1.83,3.84,5.88,5.88,0,0,0,2.25.64,16.65,16.65,0,0,0,3.23-.11,12.79,12.79,0,0,1-4.1-2.57c-.33-.31-.64-.63-.94-1l-.07-.09a11.28,11.28,0,0,1-1.36-1.94,8.52,8.52,0,0,1-.46-.84,15.91,15.91,0,0,1,2.15.39,13,13,0,0,1,1.71.54,16.31,16.31,0,0,1,6.06,4,15.25,15.25,0,0,1,2,2.53c.1.15.19.3.28.45"/>
          <path class="cls-9" d="M202.18,98.09c-1.65-3,.26-7.16,3.39-8.64s7-.74,9.93,1a21.29,21.29,0,0,1,4.28,3.46c1.15,1.15,2.22,2.38,3.27,3.61"/>
          <path class="cls-9" d="M394.81,86.66a14.08,14.08,0,0,1,2.72-5.3,14.51,14.51,0,0,1,7.55-5,12.44,12.44,0,0,1-.35,3,14,14,0,0,1-2.41,5.15,13.72,13.72,0,0,1-3.48,3.32,12.58,12.58,0,0,1-2.6,1.35l2.23-3.35c1.58-2.37,3.15-4.74,4.73-7.1a8.25,8.25,0,0,0-5.52,3.28,7.65,7.65,0,0,0-1.4,3.05"/>
          <path class="cls-9" d="M393.6,85.06a61.31,61.31,0,0,1,7.51-14.81c1.62-2.34,4.26-4.83,6.93-3.81,2.31.88,2.95,4,2,6.34s-2.86,4-4.57,5.78c-.26.28-.52.56-.78.86a8.64,8.64,0,0,0-2.41,5.15,3.38,3.38,0,0,0,0,.45"/>
          <path class="cls-8" d="M216.12,156.62h-.51l-89.7-.86"/>
          <path class="cls-8" d="M406.53,140.73l1-.22a671.68,671.68,0,0,0,106.13-31.93"/>
          <path class="cls-10" d="M264.6,156.58a201.87,201.87,0,0,0-24,17.89,203.91,203.91,0,0,0-41.11,48.86"/>
          <path class="cls-10" d="M266.93,163.69q-4.94,5.66-9.51,11.61a245.82,245.82,0,0,0-34.19,60.53q-2.11,5.4-4,10.9"/>
          <path class="cls-10" d="M279.71,167.35a77.46,77.46,0,0,0-8.51,8.29,79.05,79.05,0,0,0-18.29,37.2"/>
          <path class="cls-10" d="M361.21,156.55a54.31,54.31,0,0,1,20,11.74,54.87,54.87,0,0,1,15.43,24.24"/>
          <path class="cls-10" d="M379.58,152.42a92.9,92.9,0,0,1,17.09,13.38q2.83,2.8,5.43,5.85c13.26,15.59,21.11,35.31,24.51,55.49"/>
          <path class="cls-10" d="M391.71,143.37q9.23,3.94,18.4,8t18.29,8.13q5.16,2.33,10.31,4.68c15,6.83,31.15,15.21,37,30.57"/>
          <path class="cls-9" d="M401.79,100.72c73.32-8.5,150-16.61,219,9.2l2.07.78"/>
          <path class="cls-9" d="M217.55,117.53c-34.76,10.61-76,7.33-112.32,5.22-31.72-1.85-65.5-.9-93.33,13.37a96.51,96.51,0,0,0-11.61,7"/>
          <path class="cls-8" d="M135.4,246.31q2-1.22,4.09-2.38c15.51-8.78,32.55-15.62,50.2-15.63,1,0,2,0,3,.06,10.58.47,20.69,3.41,30.56,7.47,29.35,12.09,56.62,34.12,87.92,30.93,14.05-1.43,27-7.95,40.74-11.37,32.43-8.07,72.18,5.74,104.19,15.37h0"/>
          <path class="cls-8" d="M238.08,297.38a209.31,209.31,0,0,0,39.27,3.24A210.92,210.92,0,0,0,346,288.33c13.07-4.68,25.8-10.69,39.5-12.91,11.94-1.93,24.13-.88,36.23-1a182.49,182.49,0,0,0,34.34-3.65,190.46,190.46,0,0,0,42.67-14.06,186.9,186.9,0,0,0,56.3-40.23"/>
          <path class="cls-9" d="M4.35,136.61c2.51-.25,5-.42,7.55-.49a125.52,125.52,0,0,1,83.36,28,125.51,125.51,0,0,1,44.23,79.78c.19,1.34.34,2.69.47,4,32.95,20.11,66.73,40.57,104.5,48.52a219.54,219.54,0,0,0,32.89,4.13c32.2,1.82,65-1.32,97.06,2.8,30.23,3.88,59.62,14.19,90.1,15.05s64.32-10.7,77.55-38.17c9.69-20.14,7-46,21.82-62.73,12-13.61,32.87-17.7,42.92-32.81,14.3-21.48-.43-53.87,14-74.84.31-.44.62-.87.95-1.3"/>
        </g>
      </g>
      <path class="cls-11" d="M312.9,120.94a20.75,20.75,0,0,1,25.58-9.77c1,.4-.15-1-.26-1.13a6.87,6.87,0,0,0-2.82-1.94,21.34,21.34,0,0,0-26.46,9.78c-.47.88,3.7,3.54,4,3.06Z"/>
      <path class="cls-5" d="M348.34,85.28c2.16,2.7,10.59,13.77,14.89,9.14,1.74-1.87,0-7.77-.61-9.9a18.43,18.43,0,0,0-6.1-9.22c-.85-.69-5.61-.42-4.58.83a31.46,31.46,0,0,1,5.32,9.48,2.34,2.34,0,0,0,.46,1.27c.5.64.42.75-.23.31-.94,0-2.5-1.35-3.27-1.89a25.8,25.8,0,0,1-5-4.67c-1-1.24-5.74-.55-4.82.55,3.22,3.88,9.78,10.17,15.47,8.4,6.28-2-.85-11.29-3.09-14l-4.58.83a16.68,16.68,0,0,1,5.24,7.51c.69,2,2.45,8,1,9.84l2.42-.81c.37,0-3-3.11-3.21-3.33a46.84,46.84,0,0,1-4.45-4.89c-1-1.26-5.74-.59-4.83.55Z"/>
      <path class="cls-5" d="M341.75,71.31c-1.12,5.27,1.91,10.28,5.1,14.27,2.47,3.08,7.73,9.87,12.09,10.12,5.21.31,4.51-6.35,3.82-9.6A27.07,27.07,0,0,0,354,71.59a2,2,0,0,0-2.95,2.51c1.22,1.9,4.08,5.83,3.7,8.16-.52,3.18-4.64-2-5.86-3.12l-2.57,3.06A14.35,14.35,0,0,0,353,85.06a1.79,1.79,0,0,0,2.11-1.28,14.72,14.72,0,0,0-1.67-9.18L350,76.65c2.67,3.36,5.35,6.78,4.12,11.31l2.67-1.1.73.8-4.37-.26c.8,2.63,3,6.31,6.33,5.07,3-1.11,2-4.54.07-6.13a2.2,2.2,0,0,0-2.66-.14c-1.14.86-4.62-2.35-5.32-3.13l-2.59-2.84c-1.57-1.71-4.58-4-4.23-6.61l-4.31-.83a31.2,31.2,0,0,0,15.3,21.84c2.8,1.65,3.31-2.81,1-4.17a25.27,25.27,0,0,1-12-18c-.29-1.78-4-3.33-4.3-.83-.8,6,4.45,10,8.1,14,3,3.29,7,7.79,11.62,4.34l-2.66-.15.61.5-1.19-2.18.54-1.11c-.64-2.12-4.22-3.24-4.36-.26A4.27,4.27,0,0,0,355.75,91a1.85,1.85,0,0,0,2.67-1.1c1.67-6.16-1.71-11.23-5.4-15.88-1.63-2.06-4.78-.46-3.43,2a8.87,8.87,0,0,1,1.14,5.7l2.1-1.28a9.1,9.1,0,0,1-4.4-1.84,2,2,0,1,0-2.57,3.06c2.44,2.33,8.54,10.75,12.55,6.45,3.62-3.88-1.35-12.2-3.53-15.58l-2.95,2.5a20.81,20.81,0,0,1,5.39,7.47c.66,1.58,3,10.57-1,7s-11.55-10.16-10.25-16.32c.52-2.47-3.73-4.88-4.34-2Z"/>
      <path class="cls-5" d="M266.65,86.58c-3.46,4.8-6.57,10.27-3.67,16.12a2.51,2.51,0,0,0,2.67,1.11c6.54-1.38,9.86-6.68,12.66-12.28l-4.65-1.34A14,14,0,0,1,270,95a14.89,14.89,0,0,0-1.63,1.22c.22.09,1.13-2.27,1.14-2.29a40,40,0,0,1,6.68-9.81l-4.05-2.35c-2.51,3.08-10.63,12.58-6.18,16.7,1.72,1.59,4.4,1,6-.36,3.14-2.6,5.73-6.28,8.45-9.31,2.12-2.36-2.19-4.42-4.05-2.35L272.22,91l-1.84,2-.93,1c-.78.77-.57.73.62-.12,1-1.46,1.41-3.43,2.38-5a52.62,52.62,0,0,1,3.71-4.94c2-2.51-2.22-4.38-4.05-2.35a44.55,44.55,0,0,0-6.74,9.7c-1.21,2.39-3.33,6-.93,8.35,4.79,4.67,12.1-4.65,13.87-8.25,1.36-2.75-3.42-3.8-4.65-1.34-2,3.91-4.16,8.37-8.83,9.35l2.67,1.11c-2.12-4.25.76-8.34,3.2-11.72,1.87-2.58-2.4-4.64-4.05-2.35Z"/>
      <path class="cls-11" d="M345.52,75.52a10.73,10.73,0,0,0,5.39,6.07c.88.43,2.73.08,2.57-1.2a9.3,9.3,0,0,0-2-4.75c-1-1.17-2.56-2.69-4.21-2.57a2,2,0,0,0-1.71,3.1,19.81,19.81,0,0,0,4.06,4.7c.91.83,3.46-.53,2.24-1.63a20,20,0,0,1-2.32-2.46A13.23,13.23,0,0,1,348,74.6l-.95.56c-.11,0,.95.88,1.08,1a7.85,7.85,0,0,1,1.25,1.5,8.08,8.08,0,0,1,1.2,3.49l2.57-1.2a9.28,9.28,0,0,1-4.74-5.22c-.45-1.27-3.34-.46-2.89.78Z"/>
      <path class="cls-11" d="M276,82.11a12.89,12.89,0,0,0-4.52,5.4c-.63,1.46-1.29,3.76,1.15,3.54,2.17-.19,3.77-2.84,4.9-4.44.85-1.2,3-4.24.14-4.49-2.15-.19-4.15,2.21-5.34,3.69a17.25,17.25,0,0,0-1.95,3c-.37.72-1.11,1.9-.88,2.74.54,1.91,3.25.68,4.1-.2A24.86,24.86,0,0,0,278,84.4c.64-1.39-2.27-1.2-2.73-.19a29.66,29.66,0,0,1-2,3.76c-.42.65-.86,1.27-1.33,1.88l-.68.84c.89.32,1.36.08,1.42-.71.72-1,1.12-2.27,1.9-3.31a13.86,13.86,0,0,1,1.23-1.43q.38-.39.78-.75c.75-.48.8-.61.14-.4l-.59-.49c.39.88-1,2.42-1.49,3.06s-1.53,2.37-2.43,2.75l1.47-.16A24.65,24.65,0,0,1,275.07,86a10.22,10.22,0,0,1,2.76-2.84c1.6-1.14-.82-1.82-1.86-1.08Z"/>
      <path class="cls-11" d="M332.39,112.56v.34c0,.67.73.8,1.28.74s1.63-.4,1.63-1v-.34c0-.67-.73-.8-1.28-.74s-1.63.4-1.63,1Z"/>
      <path class="cls-5" d="M209.83,98a10.69,10.69,0,0,1,5.08,2.84l2.73-1c-3.3-1.63-8.87-5.8-12.46-2.93a.3.3,0,0,0-.14.28c.37,2.43,4.28,2.38,6.16,2.17.24,0,2.83-.93,1.81-1.15-1.25-.27-7.07-2.41-8.29-.14s5.43,2.37,6.56,2.34c.28,0,2.56-.8,2-1.09a8.94,8.94,0,0,1-3.06-2.08c-1.54-2.06,1.63,0,2.32.56,2.58,2,5,4.34,7.34,6.62l2.73-1-9.87-5c-.67-.34-3.16.73-2.73,1l11,6.64c.71.42,3.12-.76,2.73-1l-11-6.64-2.73,1,9.87,5c.52.26,3.28-.46,2.73-1-3.9-3.74-10.91-12.77-16.84-7.72a.29.29,0,0,0-.13.28,13,13,0,0,0,4.92,4.32l2-1.08c-.81,0-5.2.17-5-1.66l-.62.59a26.33,26.33,0,0,0,3.77,1.18l1.81-1.15c.83-.1-6.21-.25-4.25-1.81l-2.25.7c2.72-.06,6.58,2.57,9,3.75.52.26,3.28-.45,2.73-1a11.34,11.34,0,0,0-5.43-3c-.67-.17-3.2.92-2.38,1.13Z"/>
      <path class="cls-5" d="M201.3,98.16a10.37,10.37,0,0,0,6.78,3.58,2.77,2.77,0,0,0,2-.55c.39-.37.42-.74-.22-.82A9.08,9.08,0,0,1,204,97.1c-.55-.64-3.31.35-2.72,1.06Z"/>
      <path class="cls-5" d="M396.46,88.13A30.78,30.78,0,0,1,400.94,81l-2.63-.69-4.07,6.88c-.83,1.41,1.94,1.56,2.62.69,1.63-2.07,3.21-4.16,4.74-6.29,1.09-1.51-1.61-2.13-2.45-1-1.54,2.12-3.12,4.22-4.74,6.28l2.62.69,4.07-6.88c.85-1.43-1.93-1.51-2.62-.69a33.8,33.8,0,0,0-4.82,7.67c-.71,1.55,2.22,1.67,2.8.41Z"/>
      <path class="cls-6" d="M398.38,75.52l-6,11.65c-.62,1.2,2.27.88,2.7,0l6-11.65c.62-1.2-2.27-.88-2.7,0Z"/>
      <path class="cls-6" d="M216.57,93.32l0-.64-2.79,1q3.56,3,7.25,5.82l2.49-1.3a25,25,0,0,1-6-5.29L215,94.18a17.65,17.65,0,0,1,6.19,5.58l2.5-1.3-6.42-3.63c-.67-.39-3.37.56-2.49,1.3,2,1.63,4,3.24,6,4.81.77.61,3.55-.37,2.69-1.15a117,117,0,0,0-10.23-8.5c-.65-.47-3.28.41-2.49,1.3a77.07,77.07,0,0,0,13.83,12.18c.81.56,3.47-.63,2.29-1.44a74.54,74.54,0,0,1-13.43-11.9l-2.49,1.3a111.59,111.59,0,0,1,9.83,8.21l2.69-1.15c-2-1.58-4-3.18-6-4.82L215,96.27l6.41,3.64c.66.37,3.22-.26,2.49-1.3a18.87,18.87,0,0,0-6.58-5.88c-.64-.35-3.3.32-2.49,1.3a26.31,26.31,0,0,0,6.37,5.58c.72.46,3.34-.65,2.49-1.3q-3.7-2.82-7.26-5.82c-.71-.6-2.87-.18-2.79,1l0,.63c.07,1,3,.38,2.9-.77Z"/>
      <path class="cls-6" d="M202.28,93.66c-4,8.78,12.06,11.67,17.27,13.5,1.29.45,3.4-1.4,1.66-2-4.1-1.44-19.23-4.39-16.15-11.12.7-1.52-2.22-1.58-2.78-.37Z"/>
      <path class="cls-6" d="M211.23,93.6q5.84,6,12.1,11.47c.5.44,3.21-.24,2.8-.92l-5.21-8.8-2.81.92,5.69,7.53c.49.65,3.27-.26,2.71-1.06l-4.59-6.56-2.71,1.06a45,45,0,0,1,4.91,5l2.71-1.06-6.28-6.5-2.71,1.07,6.77,6.39c.62.59,3.33-.45,2.71-1.06l-4.53-4.46-2.71,1.06q1.56,1.5,3,3.1c.3.34,2.78,2.64,1.51,1.07l-2.72,1.07c1.4,1.17,4.21,2.49,5.9,1,2-1.84-2.21-4.8-3.36-5.85-.59-.53-3.33.31-2.71,1.06.34.42,3.57,4,2.76,4.53l1.78-.38a1.71,1.71,0,0,1-1.4-.89c-.56-.64-3.32.37-2.71,1.06a3.33,3.33,0,0,0,4.8.38c1.73-1.71-1.47-4.47-2.52-5.76L221.72,99c.68.62,4.41,3.58,3.6,4.68l1.93-.74a3.76,3.76,0,0,1-2.64-1.18c-.59-.49-3.34.3-2.72,1.07,1.25,1.53,3.76,2.26,5.35.56,1.85-2-3.29-5.74-4.45-6.86-.63-.61-3.34.44-2.71,1.06l4.53,4.46,2.71-1.06-6.77-6.4c-.61-.58-3.34.42-2.71,1.07l6.28,6.49c.58.59,3.32-.35,2.71-1.06a44.14,44.14,0,0,0-4.91-4.95c-.57-.5-3.3.22-2.71,1.06l4.59,6.56,2.71-1.06-5.69-7.53c-.47-.62-3.16.32-2.8.92l5.22,8.8L226,104Q219.79,98.51,214,92.54c-.61-.62-3.33.43-2.72,1.06Z"/>
      <path class="cls-6" d="M203.92,91.78l-.73.86c-1.14,1.34,1.34,1.64,2.15,1,1.93-1.49,6.17,1.18,7.73,2.1A32.82,32.82,0,0,1,218,99.37c.92.8,3.47-.55,2.24-1.63-3.86-3.37-11.7-9.25-16.8-5.33l2.16,1,.73-.86c1.17-1.39-1.6-1.75-2.41-.79Z"/>
      <path class="cls-6" d="M394,86.44l5.13-7.29c.73-1,1.44-2.1,2.2-3.12a13.82,13.82,0,0,1,1.52-1.89c2.11-.36,3.13.19,3.08,1.63.53,2.42-2.11,5.4-3.5,7.21a46.6,46.6,0,0,1-6.41,6.76c-1.27,1.11,1.58,1.21,2.34.54,2.82-2.48,16-14.78,8.45-18.24-2.47-1.13-5.27.42-6.92,2.21-3.26,3.57-5.82,8.13-8.6,12.08-.79,1.12,2.13.93,2.71.11Z"/>
      <path class="cls-6" d="M397.42,81.69a48.42,48.42,0,0,1,7.07-7.38c1.49-1.24,2.56-2.78,2.8-.4.17,1.69-1.13,3.89-1.83,5.35-.27.56,2.47.18,2.87-.49a10.93,10.93,0,0,0,.81-10.23l-2.81.9c3.15,3,.84,6.69-1.18,9.5l2.86-.49a12.47,12.47,0,0,0,1-9.89l-2.81.89c7.59,7.74-7.37,15.5-10.46,21.51-.25.49,2.47.29,2.87-.48,3.12-6.1,18.34-13.85,10.32-22-.43-.43-3,.2-2.82.9a12.11,12.11,0,0,1-.94,9.6c-.3.56,2.44.09,2.86-.49,2.23-3.09,4.31-6.91,1-10-.43-.41-3.08.24-2.81.9a10.61,10.61,0,0,1-.78,9.94l2.87-.49c1-2.16,4.27-9.46-1-8-4.9,1.36-9.62,7.34-12.56,11.1-.61.77,2.18.41,2.63-.17Z"/>
    </g>
  </g>
</svg>
