<svg xmlns="http://www.w3.org/2000/svg" viewBox="0 0 295.66 572.45">
  <defs>
    <style>
      .cls-1 {
        fill: #a7a9ac;
      }

      .cls-2 {
        fill: #bcbec0;
      }

      .cls-3 {
        fill: #939598;
      }

      .cls-10, .cls-4, .cls-8 {
        fill: none;
        stroke: #231f20;
        stroke-miterlimit: 10;
      }

      .cls-4 {
        stroke-width: 2px;
      }

      .cls-5 {
        fill: #fff;
      }

      .cls-6 {
        fill: #262262;
      }

      .cls-7 {
        fill: #2b3990;
      }

      .cls-9 {
        fill: #6d91cb;
      }

      .cls-10 {
        stroke-width: 0.22px;
      }

      .cls-11 {
        fill: #4668a6;
      }

      .cls-12 {
        fill: #231f20;
      }
    </style>
  </defs>
  <title>Asset 1kott</title>
  <g id="Layer_2" data-name="Layer 2">
    <g id="Layer_1-2" data-name="Layer 1">
      <g>
        <g>
          <path class="cls-1" d="M200.62,271.17a183.1,183.1,0,0,1-20.47-28.74C193,242,210.29,248.86,219.1,258l.49,0-.3,7.12c-.19,4.49-.89,9.82-4.9,11.86C209.58,279.45,204.17,275.23,200.62,271.17Z"/>
          <path class="cls-2" d="M137.44,131h0c1.07-38,19.15-68.09,40-99.85,11-16.81,28.74-33.55,48.44-29.48,11.23,2.31,20.24,11.32,25,21.74S256.86,45.5,257,57c.47,48.42-15.8,95.64-17.52,144-3.22,90.42,44,175.08,54,265,1.94,17.42,2.34,35.69-4.65,51.77-14,32.32-52.61,45.62-87.53,50.34A371.09,371.09,0,0,1,94.46,567c-18.08-2.82-37.17-7.68-49.37-21.31-16.66-18.62-15-46.69-13.17-71.61a1185.21,1185.21,0,0,0-3.58-214.43l-.87-.81C17.39,201.72,7.3,144.5,1.93,86.72c-2-21.55-2.12-46.4,13.92-60.93,10.61-9.61,26.39-12.09,40.34-8.85,27,6.28,45.86,30.79,58.28,55.62C123.78,91.17,130.9,110.93,137.44,131Zm42.71,111.48a183.1,183.1,0,0,0,20.47,28.74c3.55,4.06,9,8.28,13.77,5.85,4-2,4.71-7.37,4.9-11.86l.3-7.12,8.64-204.91c.26-6.22.5-12.58-1.39-18.5s-6.4-11.41-12.48-12.69c-10.83-2.26-19.41,8.8-24.56,18.59C168,81.88,154.74,118.87,148.35,165.16,157,192.13,166.28,218.63,180.15,242.43Zm-6,42.05c1.25-3.56.2-7.47-.87-11.09q-5.76-19.44-12.21-38.67-8-23.94-17.09-47.5h0q-6.12-15.92-12.72-31.65-21.36-51-47.56-99.76C80,48.89,76.15,41.9,70.44,36.52s-13.62-9-21.35-7.68S35,36.28,31.45,43.38s-4.56,15.12-5.29,23c-5.16,56.2,4.92,112.48,15.9,167.93a17.11,17.11,0,0,0,2.41,12.83c3.14,4.69,8.47,7.35,13.59,9.73a553.23,553.23,0,0,0,92.58,33.34C159.27,292.48,171.25,292.91,174.19,284.48Z"/>
          <path class="cls-3" d="M42.06,234.31c1.26-7.08,6-14.14,11.84-18.75,19.15-15.17,49.5-13.67,67.07,3.31-1-19.56,3.8-44.85,10.33-63.31q6.6,15.74,12.72,31.65h0c-2,9.24-4,18.35-2.33,27.66s7.86,18.48,17.07,20.63l2.35-.79q6.45,19.23,12.21,38.67c1.07,3.62,2.12,7.53.87,11.09-2.94,8.43-14.92,8-23.55,5.73a553.23,553.23,0,0,1-92.58-33.34c-5.12-2.38-10.45-5-13.59-9.73A17.11,17.11,0,0,1,42.06,234.31Z"/>
        </g>
        <g>
          <path class="cls-4" d="M28.34,259.68a1185.21,1185.21,0,0,1,3.58,214.43c-1.84,24.92-3.49,53,13.17,71.61,12.2,13.63,31.29,18.49,49.37,21.31a371.09,371.09,0,0,0,106.8,1.09c34.92-4.72,73.49-18,87.53-50.34,7-16.08,6.59-34.35,4.65-51.77-10-89.92-57.21-174.58-54-265,1.72-48.4,18-95.62,17.52-144-.11-11.47-1.24-23.2-6-33.61s-13.81-19.43-25-21.74c-19.7-4.07-37.39,12.67-48.44,29.48C156.6,62.86,138.52,93,137.45,131"/>
          <path class="cls-4" d="M27.47,258.87C17.39,201.72,7.3,144.5,1.93,86.72c-2-21.55-2.12-46.4,13.92-60.93,10.61-9.61,26.39-12.09,40.34-8.85,27,6.28,45.86,30.79,58.28,55.62,9.31,18.61,16.43,38.37,23,58.39,3.72,11.38,7.26,22.83,10.91,34.21,8.65,27,17.93,53.47,31.8,77.27a183.1,183.1,0,0,0,20.47,28.74c3.55,4.06,9,8.28,13.77,5.85,4-2,4.71-7.37,4.9-11.86l.3-7.12,8.64-204.91c.26-6.22.5-12.58-1.39-18.5s-6.4-11.41-12.48-12.69c-10.83-2.26-19.41,8.8-24.56,18.59C168,81.88,154.74,118.87,148.35,165.16"/>
          <path class="cls-4" d="M144,187.22q9.07,23.55,17.09,47.5,6.45,19.23,12.21,38.67c1.07,3.62,2.12,7.53.87,11.09-2.94,8.43-14.92,8-23.55,5.73a553.23,553.23,0,0,1-92.58-33.34c-5.12-2.38-10.45-5-13.59-9.73a17.11,17.11,0,0,1-2.41-12.83c1.26-7.08,6-14.14,11.84-18.75,19.15-15.17,49.5-13.67,67.07,3.31-1-19.56,3.8-44.85,10.33-63.31"/>
          <path class="cls-4" d="M44.24,245.29q-1.1-5.47-2.18-11C31.08,178.86,21,122.58,26.16,66.38c.73-7.88,1.8-15.9,5.29-23s9.84-13.22,17.64-14.54,15.65,2.3,21.35,7.68S80,48.89,83.74,55.8q26.16,48.71,47.56,99.76,6.6,15.74,12.72,31.65"/>
          <path class="cls-4" d="M144,187.21h0c-2,9.24-4,18.35-2.33,27.66s7.86,18.48,17.07,20.63"/>
          <path class="cls-4" d="M179.46,242.46l.69,0C193,242,210.29,248.86,219.1,258"/>
          <path class="cls-4" d="M197.76,332.74c11.29,55.32,22.6,110.71,38,165.05,3.49,12.37,9.32,26.72,21.92,29.21,8.19,1.61,16.63-2.82,22.07-9.15s8.46-14.33,11.38-22.15"/>
        </g>
      </g>
      <g>
        <g>
          <path class="cls-5" d="M79.46,398.22c-4,1.51-5.47,6.25-6.38,9.52-.29-2.09-3.56-2.91-4.8-1.2l-1.83-2.23a3.84,3.84,0,0,0-2.2,2.73c.19-1.6-2.17-2.65-3.67-1.88s-2.31,2.57-3.08,4.15-1.9,3.26-3.63,3.49V404l-1.56,3.11a9.11,9.11,0,0,1,3.22-7.2c-1.12.81-3.37,2.56-4.09,4.05a6.24,6.24,0,0,1,2.36-5.15c-.31-.93-1.73-.95-2.49-.32a12.2,12.2,0,0,0-1.68,2.41c-.57.8-1.64,1.45-2.51,1a1.82,1.82,0,0,1-.24-2.67,6.17,6.17,0,0,1,2.59-1.57,4.09,4.09,0,0,0,2.33-1.87c.41-.94-.17-2.31-1.19-2.28s-1.86,1.59-3,1.36-1-1.79-.21-2.4a4.09,4.09,0,0,1,2.91-.46l5,.49c.35-1.08-1.09-1.79-2.21-2s-2.56-.83-2.28-1.92,1.62-1,2.57-.72c2.26.71,4.22,2.16,6.44,3s5,.88,6.63-.87a2.88,2.88,0,0,0,.41-3.54c-.78-1-2.76-.88-3.1.36-.27,1,.32,2.32-.55,2.8s-1.69-.77-1.58-1.72.64-1.92.34-2.83c-.45-1.33-2.43-1.51-3.54-.65A6.69,6.69,0,0,0,56.53,388a3.71,3.71,0,0,1,2.78-6.1c.11-.95-1-1.64-1.93-1.68s-1.91.3-2.87.21-2-.9-1.73-1.83,1.67-1.12,2.58-.65a22,22,0,0,0,2.58,1.64c1,.34,2.36-.26,2.2-1.27S58.88,377.17,58,377s-1.93-.88-1.61-1.71a1.43,1.43,0,0,1,.65-.66c2.37-1.36,5.41.33,7.09,2.49S66.88,382,69,383.68a8.06,8.06,0,0,0,9.81.06c1.23-1,2.12-3,1-4a1.66,1.66,0,0,0-2.46,2.22c-.88.41-1.53-1-1.35-1.92s.53-2.14-.24-2.73c-1-.74-2.28.64-2.28,1.87s.6,2.45.28,3.63a4.18,4.18,0,0,1-1.93-5.39c.49-1,1.41-2.33.59-3.14s-2.26.28-2.63,1.42-.56,2.57-1.66,3a4.28,4.28,0,0,1,1-4.84c.63-.55,1.5-1.08,1.46-1.91s-1.16-1.32-2-1a4.16,4.16,0,0,0-1.87,1.73,6.71,6.71,0,0,1,5.38-3.8c2.29-.2,5.77,1.93,7.09,3.81a22.66,22.66,0,0,1,1.17-2.09,2,2,0,0,0-.12-2.24c-.73-.71-2-.28-2.73.39-.31.28-.81.59-1.08.27a.68.68,0,0,1,0-.69,3.52,3.52,0,0,1,4.3-1.81,5.42,5.42,0,0,0,1.87.65c.66,0,1.34-.78.92-1.3-.31-.37-.88-.28-1.36-.36s-.92-.73-.51-1a.73.73,0,0,1,.42-.05c2.86.28,5.48,3.23,6,6.07,37-11.17,80.62,6.16,99.87,39.69s12.24,79.92-16.06,106.26c.32-1.68-.57-4.15-2.28-4.08s-3.37.82-5.07.63a5,5,0,0,1-2.18-.79c16.48-11.16,23.43-30.53,22.2-50.4s-11.78-38.55-26.77-51.66-34-20.55-53.64-24.06c-.13.29-.57.31-.7.6,0,.83.88,1.36,1.68,1.62s1.74.57,2,1.38-.69,1.76-1.61,1.74a3.12,3.12,0,0,1-2.27-1.4c-.33-.43-.81-1-1.3-.74s-.42.87-.21,1.33.52.95.35,1.43a.71.71,0,0,1-.48.46h-.71a1.26,1.26,0,0,1-.71-.53,2.62,2.62,0,0,1-.36-2.07,4.75,4.75,0,0,0-2.92-4.77,1.42,1.42,0,0,0-1.07,0,10.73,10.73,0,0,0,1.11,2.05c.33.71.26,1.76-.48,2a1.45,1.45,0,0,1-1.53-.75,9.18,9.18,0,0,0-1-1.54,1.12,1.12,0,0,0-1.61-.09,1.24,1.24,0,0,0,.16,1.41c.56.83,1.47,1.39,2,2.22s.65,2.19-.24,2.65-1.84-.26-2.45-1A10.28,10.28,0,0,1,89.69,388c-.08-.35-.2-.77-.55-.87-.5-.14-.83.51-.92,1a10.75,10.75,0,0,0,0,3.49c.11.73.09,1.77-.64,1.86a1.21,1.21,0,0,1-.94-.5,4.57,4.57,0,0,1-1.06-3.36h-.06a1.83,1.83,0,0,0-2,0,1.79,1.79,0,0,0-.7,1.82,3.13,3.13,0,0,1,1.08,1.72,1,1,0,0,1-.1.68.75.75,0,0,1-.92.46c-.68-.29-.6-1.53-1.32-1.66-.55-.1-.9.6-.92,1.16,0,.85.26,1.7.22,2.55a2.12,2.12,0,0,1-.83,1.68Z"/>
          <path class="cls-6" d="M184.5,461.82c1.23,19.87-5.72,39.24-22.2,50.4-2.71-1.75-4.08-5.88-6.7-8.21-4.35-3.86-11-2.08-16.83-2.23a25.63,25.63,0,0,1-2.77-.22c10.54-12.64,17.33-27.44,18.84-43.83s-3.22-33.57-14.15-45.87c-9.33-10.5-24.8-19-39.18-19.34a.71.71,0,0,0,.48-.46c.17-.48-.14-1-.35-1.43s-.25-1.12.21-1.33,1,.31,1.3.74a3.12,3.12,0,0,0,2.27,1.4c.92,0,1.86-.85,1.61-1.74s-1.17-1.12-2-1.38-1.72-.79-1.68-1.62c.13-.29.57-.31.7-.6,19.59,3.51,38.66,10.95,53.64,24.06S183.26,442,184.5,461.82Z"/>
          <path class="cls-7" d="M154.84,457.73c-1.51,16.39-8.3,31.19-18.84,43.83-7.46-1-14.57-4.76-22.12-4.59-4.8.1-9.47,1.81-14.27,1.75a21.73,21.73,0,0,1-4.35-.51c10.11-10.27,18.43-20.13,24.28-33.31s7.64-28.86,2-42.18S102,391.82,87.57,393.45c.73-.09.75-1.13.64-1.86a10.75,10.75,0,0,1,0-3.49c.09-.51.42-1.16.92-1,.35.1.47.52.55.87a10.28,10.28,0,0,0,2.06,4.14c.61.74,1.6,1.44,2.45,1a33.62,33.62,0,0,1,6.6-.58,1.32,1.32,0,0,0,.71,0c14.38.35,29.85,8.84,39.18,19.34C151.62,424.16,156.35,441.34,154.84,457.73Z"/>
          <path class="cls-6" d="M121.51,422.72c5.67,13.32,3.91,28.94-2,42.18s-14.17,23-24.28,33.31c-4.81-1-9.34-3.5-13.69-5.92a104.83,104.83,0,0,1-13.76-8.62c9.14-1.83,13-7.06,19.25-14.08s10.51-13.37,15.55-22.79c4.23-7.91,6-16.69,5-24.22-2.21-16-15.8-27.67-23.79-28.75a1,1,0,0,0,.1-.68,3.13,3.13,0,0,0-1.08-1.72,1.79,1.79,0,0,1,.7-1.82,1.83,1.83,0,0,1,2,0h.06A4.57,4.57,0,0,0,86.63,393a1.21,1.21,0,0,0,.94.5C102,391.82,115.83,409.4,121.51,422.72Z"/>
          <path class="cls-7" d="M107.62,422.58c1,7.53-.78,16.31-5,24.22-5,9.42-9.33,15.85-15.55,22.79S77,481.84,67.81,483.67h0c-1.13-.89-2.22-1.82-3.27-2.81C58.8,475.44,52.06,467.94,44.21,467a67.51,67.51,0,0,0,50.06-34.68c2.77-5.21,4.87-11,4.7-16.85s-3-12-8.09-14.89c-4.82-2.73-8.29-3.26-10.82-2.56a2.12,2.12,0,0,0,.83-1.68c0-.85-.25-1.7-.22-2.55,0-.56.37-1.26.92-1.16.72.13.64,1.37,1.32,1.66a.75.75,0,0,0,.92-.46C91.82,394.91,105.41,406.58,107.62,422.58Z"/>
          <path class="cls-6" d="M100.09,392a1.26,1.26,0,0,0,.71.53,33.62,33.62,0,0,0-6.6.58c.89-.46.82-1.83.24-2.65s-1.48-1.39-2-2.22a1.24,1.24,0,0,1-.16-1.41,1.12,1.12,0,0,1,1.61.09,9.18,9.18,0,0,1,1,1.54,1.45,1.45,0,0,0,1.53.75c.74-.26.81-1.31.48-2a10.73,10.73,0,0,1-1.11-2.05,1.42,1.42,0,0,1,1.07,0,4.75,4.75,0,0,1,2.92,4.77A2.62,2.62,0,0,0,100.09,392Z"/>
        </g>
        <g>
          <path class="cls-8" d="M44.21,467a67.51,67.51,0,0,0,50.06-34.68c2.77-5.21,4.87-11,4.7-16.85s-3-12-8.09-14.89c-4.82-2.73-8.29-3.26-10.82-2.56l-.6.2c-4,1.51-5.47,6.25-6.38,9.52"/>
          <path class="cls-8" d="M88,370.51c37-11.17,80.62,6.16,99.87,39.69s12.24,79.92-16.06,106.26"/>
          <path class="cls-8" d="M67.81,483.67c9.14-1.83,13-7.06,19.25-14.08s10.51-13.37,15.55-22.79c4.23-7.91,6-16.69,5-24.22-2.21-16-15.8-27.67-23.79-28.75"/>
          <path class="cls-8" d="M95.14,498.33l.12-.12c10.11-10.27,18.43-20.13,24.28-33.31s7.64-28.86,2-42.18S102,391.82,87.57,393.45"/>
          <path class="cls-8" d="M136,501.56c10.54-12.64,17.33-27.44,18.84-43.83s-3.22-33.57-14.15-45.87c-9.33-10.5-24.8-19-39.18-19.34h-.71a33.62,33.62,0,0,0-6.6.58"/>
          <path class="cls-8" d="M64.25,407a3.84,3.84,0,0,1,2.2-2.73l1.83,2.23c1.24-1.71,4.51-.89,4.8,1.2"/>
          <path class="cls-8" d="M64.25,407l0,.19A1.25,1.25,0,0,1,64.25,407Z"/>
          <path class="cls-8" d="M56.08,399.43c-.19.14-.38.28-.56.43a9.11,9.11,0,0,0-3.22,7.2L53.86,404v8.85c1.73-.23,2.87-1.91,3.63-3.49S59,406,60.58,405.16s3.86.28,3.67,1.88"/>
          <path class="cls-8" d="M88,370.51c-.47-2.84-3.09-5.79-6-6.07a.73.73,0,0,0-.42.05c-.41.25,0,.91.51,1s1,0,1.36.36c.42.52-.26,1.3-.92,1.3a5.42,5.42,0,0,1-1.87-.65,3.52,3.52,0,0,0-4.3,1.81.68.68,0,0,0,0,.69c.27.32.77,0,1.08-.27.76-.67,2-1.1,2.73-.39a2,2,0,0,1,.12,2.24,22.66,22.66,0,0,0-1.17,2.09,1.68,1.68,0,0,0,.6,2.1c.25-1,.73-2.29,1.79-2.44a1.15,1.15,0,0,1,.66.09c.67.32.76,1.25.58,2a5.54,5.54,0,0,0-.4,2.18c.13.73,1.1,1.34,1.63.81a2.82,2.82,0,0,1-.37-2.7A2.78,2.78,0,0,1,85.82,373"/>
          <path class="cls-8" d="M79.18,372.65c-1.32-1.88-4.8-4-7.09-3.81a6.71,6.71,0,0,0-5.38,3.8,4.16,4.16,0,0,1,1.87-1.73c.82-.28,1.94.18,2,1s-.83,1.36-1.46,1.91a4.28,4.28,0,0,0-1,4.84c1.1-.47,1.28-1.91,1.66-3s1.78-2.26,2.63-1.42-.1,2.1-.59,3.14a4.18,4.18,0,0,0,1.93,5.39c.32-1.18-.28-2.41-.28-3.63s1.31-2.61,2.28-1.87c.77.59.41,1.78.24,2.73s.47,2.33,1.35,1.92a1.66,1.66,0,0,1,2.46-2.22c1.16,1.07.27,3.06-1,4a8.06,8.06,0,0,1-9.81-.06c-2.12-1.73-3.18-4.42-4.86-6.58s-4.72-3.85-7.09-2.49a1.43,1.43,0,0,0-.65.66c-.32.83.73,1.52,1.61,1.71s2,.46,2.13,1.34-1.24,1.61-2.2,1.27A22,22,0,0,1,55.36,378c-.91-.47-2.32-.34-2.58.65s.78,1.75,1.73,1.83,1.91-.25,2.87-.21,2,.73,1.93,1.68a3.71,3.71,0,0,0-2.78,6.1,6.69,6.69,0,0,1,1.93-3.66c1.11-.86,3.09-.68,3.54.65.3.91-.22,1.87-.34,2.83s.73,2.18,1.58,1.72.28-1.84.55-2.8c.34-1.24,2.32-1.38,3.1-.36a2.88,2.88,0,0,1-.41,3.54c-1.59,1.75-4.41,1.7-6.63.87s-4.18-2.27-6.44-3c-.95-.3-2.32-.25-2.57.72s1.17,1.74,2.28,1.92,2.56.9,2.21,2l-5-.49a4.09,4.09,0,0,0-2.91.46c-.8.61-.78,2.19.21,2.4s1.83-1.33,3-1.36,1.6,1.34,1.19,2.28a4.09,4.09,0,0,1-2.33,1.87,6.17,6.17,0,0,0-2.59,1.57,1.82,1.82,0,0,0,.24,2.67c.87.47,1.94-.18,2.51-1a12.2,12.2,0,0,1,1.68-2.41c.76-.63,2.18-.61,2.49.32a6.24,6.24,0,0,0-2.36,5.15c.72-1.49,3-3.24,4.09-4.05l.64-.45"/>
          <path class="cls-8" d="M65.8,395.83a4.59,4.59,0,0,0-4.56,2.22,1,1,0,0,0-.17.68c.11.46.78.58,1.19.34a4.22,4.22,0,0,0,1-1,1.22,1.22,0,0,1,1.26-.5,1,1,0,0,1,.51,1.13,2.45,2.45,0,0,1-.7,1.13,7.45,7.45,0,0,0-1.15,1.42,1.75,1.75,0,0,0,0,1.74,1,1,0,0,0,1.56.25,2.05,2.05,0,0,0,.35-1.15,2.4,2.4,0,0,1,.86-1.57,1.46,1.46,0,0,1,1.7-.1,3.35,3.35,0,0,1,.85,1.49c.23.54.69,1.09,1.26,1,.33-.54,0-1.22-.32-1.79s-.45-1.38.08-1.73,1.23.14,1.69.59,1.19.93,1.71.53A1,1,0,0,0,73,399.2a11.26,11.26,0,0,0-.85-1.11,1.27,1.27,0,0,1-.2-1.31c.24-.4,1-.41,1.09,0"/>
          <path class="cls-8" d="M73.4,389.87A3.34,3.34,0,0,0,71,391.06a.9.9,0,0,0-.23.95c.2.36.75.33,1.09.11s.59-.58.94-.8.9-.23,1.09.13a3,3,0,0,1-.29,1.49,2.8,2.8,0,0,0-.26,1.5,1,1,0,0,0,1.09.83c.68-.18.7-1.1.85-1.79a2.79,2.79,0,0,1,2.26-2.12,8.3,8.3,0,0,0,.19,5.21c.3.81.92,1.69,1.78,1.65h0a1.15,1.15,0,0,0,.57-.2,2.12,2.12,0,0,0,.83-1.68c0-.85-.25-1.7-.22-2.55,0-.56.37-1.26.92-1.16.72.13.64,1.37,1.32,1.66a.75.75,0,0,0,.92-.46,1,1,0,0,0,.1-.68,3.13,3.13,0,0,0-1.08-1.72"/>
          <path class="cls-8" d="M89.15,382.83a5.89,5.89,0,0,0-8,1.87c-.42.7-.61,1.74,0,2.22s1.8-.21,2.4-.94,1.51-1.59,2.37-1.17a1.56,1.56,0,0,1,.62,1.74,13.91,13.91,0,0,1-.77,1.83,3.94,3.94,0,0,0-.28,1.21A4.57,4.57,0,0,0,86.63,393a1.21,1.21,0,0,0,.94.5c.73-.09.75-1.13.64-1.86a10.75,10.75,0,0,1,0-3.49c.09-.51.42-1.16.92-1,.35.1.47.52.55.87a10.28,10.28,0,0,0,2.06,4.14c.61.74,1.6,1.44,2.45,1s.82-1.83.24-2.65-1.48-1.39-2-2.22a1.24,1.24,0,0,1-.16-1.41,1.12,1.12,0,0,1,1.61.09,9.18,9.18,0,0,1,1,1.54,1.45,1.45,0,0,0,1.53.75c.74-.26.81-1.31.48-2a10.73,10.73,0,0,1-1.11-2.05"/>
          <path class="cls-8" d="M100.73,373.34a5.8,5.8,0,0,0-7.4-.21,2.18,2.18,0,0,0-.83,1.18,1,1,0,0,0,.62,1.2,1.55,1.55,0,0,0,1-.15l2.58-1a1.35,1.35,0,0,1,1.07-.09c.48.27.41,1,0,1.43a4.2,4.2,0,0,1-1.46.74,4.8,4.8,0,0,0-2.51,2.39,2.13,2.13,0,0,0-.24,1.18,1,1,0,0,0,.78.82c.68.07,1.06-.73,1.44-1.29A3.27,3.27,0,0,1,99,378.25a3.64,3.64,0,0,0-.58,2.19c.13.76,1,1.43,1.66,1.06s.63-1.23.6-1.95.11-1.62.8-1.8a2.94,2.94,0,0,0,.72,1.73c.47.43,1.4.39,1.6-.22.27-.81-.88-1.85-.23-2.42"/>
          <path class="cls-8" d="M99.73,389.91a2.62,2.62,0,0,0,.36,2.07,1.26,1.26,0,0,0,.71.53,1.32,1.32,0,0,0,.71,0,.71.71,0,0,0,.48-.46c.17-.48-.14-1-.35-1.43s-.25-1.12.21-1.33,1,.31,1.3.74a3.12,3.12,0,0,0,2.27,1.4c.92,0,1.86-.85,1.61-1.74s-1.17-1.12-2-1.38-1.72-.79-1.68-1.62"/>
          <path class="cls-8" d="M104.09,386.1c19.59,3.51,38.66,10.95,53.64,24.06S183.26,442,184.5,461.82s-5.72,39.24-22.2,50.4"/>
          <path class="cls-8" d="M104.09,386.1c-.13.29-.57.31-.7.6"/>
          <path class="cls-8" d="M99.71,390.07a.78.78,0,0,0,0-.16,4.75,4.75,0,0,0-2.92-4.77,1.42,1.42,0,0,0-1.07,0"/>
          <path class="cls-8" d="M82.85,391.43a1.79,1.79,0,0,1,.7-1.82,1.83,1.83,0,0,1,2,0"/>
          <path class="cls-8" d="M44.21,467c7.85.94,14.59,8.44,20.33,13.86,1,1,2.14,1.92,3.27,2.81h0a104.83,104.83,0,0,0,13.76,8.62c4.35,2.42,8.88,4.89,13.69,5.92a21.73,21.73,0,0,0,4.35.51c4.8.06,9.47-1.65,14.27-1.75,7.55-.17,14.66,3.61,22.12,4.59a25.63,25.63,0,0,0,2.77.22c5.81.15,12.48-1.63,16.83,2.23,2.62,2.33,4,6.46,6.7,8.21a5,5,0,0,0,2.18.79c1.7.19,3.36-.57,5.07-.63s2.6,2.4,2.28,4.08"/>
        </g>
      </g>
      <g>
        <g>
          <g>
            <path class="cls-9" d="M179.39,395l-1.18-.21-.47-.08-.55-.09-1.09-.17-.55-.08c-.54-.08-1.08-.16-1.63-.22h0l-1.62-.19-.52-.05h-.06l-.5-.05c-1.26-.12-2.52-.22-3.78-.29l-1.61-.07-1.06,0c-2-.06-4.05,0-6.07,0h-.09l-.52,0-.57,0-1.1.06h-.14l-1,.07-.49,0,.33-.23.68-.45.08-.06.58-.38.63-.4.64-.41.17-.1c7.14-3,14.74-5.21,22.37-4.85l-3.6,2.52a26,26,0,0,1,5.76.82c.72.18,1.53.5,1.74,1.21.26.88-.66,1.72-1.57,1.83a8.48,8.48,0,0,1-2.7-.47,2.6,2.6,0,0,0-2.56.53A2.68,2.68,0,0,1,179.39,395Z"/>
            <path class="cls-9" d="M177.28,382.37q-2.37.81-4.66,1.73l-.38.16-.29.12c-.62.25-1.24.51-1.85.78l-.38.17-.39.17-.77.35-1.51.71-.76.37c-.49.24-1,.49-1.48.75l-.74.38c-.48.25-1,.51-1.45.78l-.72.39-1.42.81-.7.41-.69.42h0l-.68.41-.53.33c-1.07.45-2.12.91-3.17,1.39,5.22-7.22,11.39-14.2,19.29-18.2-.63,1.32-1.25,2.65-1.88,4a26.46,26.46,0,0,1,5.41-2.13,2.23,2.23,0,0,1,2.11.2c.66.64.27,1.83-.47,2.37a8.39,8.39,0,0,1-2.57.92,2.6,2.6,0,0,0-2,1.72A2.66,2.66,0,0,1,177.28,382.37Z"/>
            <path class="cls-9" d="M175.37,407.91l-.54-.45-.08-.07-.61-.5-.53-.43-1.21-.95-.34-.26h0l-.51-.38c-.17-.14-.35-.27-.53-.4l-.27-.2-.43-.31-.23-.18-.42-.3-.35-.25L169,403l-.28-.2-.42-.28-.33-.23-.36-.24-.3-.21-.4-.26-.29-.2-.41-.26-.35-.23-.7-.45-.35-.22-.34-.21-.37-.23-.35-.21-.7-.42-.71-.42-.55-.32-.52-.3-.92-.51-.51-.28-.17-.09-.69-.37-.57-.3-.06,0-.21-.11-.08-.05-.55-.28-.69-.35-.82-.4-.72-.34-.73-.34-.09,0-.39-.18-.14-.08.09-.16h0l.2-.14c9,.73,18.36,2.4,26,7.19l-4.38.43a26.15,26.15,0,0,1,4.62,3.55c.53.51,1.08,1.18.91,1.9-.2.9-1.42,1.18-2.27.82A8.26,8.26,0,0,1,177,406.2a2.62,2.62,0,0,0-2.49-.8,2.72,2.72,0,0,1,.94,2.55Z"/>
            <path class="cls-9" d="M169.23,367.12c.87.27,1.06,1.51.64,2.32a8.45,8.45,0,0,1-1.89,2,2.58,2.58,0,0,0-1,2.42,2.68,2.68,0,0,1,2.6-.74l-.6.62-.55.57-.54.58-.1.1-.45.5c-.21.22-.42.45-.62.68s-.33.37-.5.56l0,.05c-.12.15-.25.29-.38.44a1.46,1.46,0,0,0-.16.19l-.52.6-.42.5h0l-.26.3-.38.46-.43.53,0,0-.19.24-.31.39-.26.32-.77,1-.17.23-.33.43-.11.16-.39.51-.49.67-.21.3c-.25.34-.5.7-.75,1.05a2.75,2.75,0,0,0-.19.28l-.11.15-.4.58-.23.34-.23.34-.22.34-.23.34-.22.34-.22.34c-.07.12-.15.23-.22.34l-.18.29-.25.4-.21.34-.21.34-.21.33c-.28.47-.56.93-.83,1.4l-.34.59-.25.44a.41.41,0,0,0-.05.09l-.15.26,0,.06-.57.26c1.43-9,3.82-18.21,9.21-25.48l.09,4.39a26.23,26.23,0,0,1,3.89-4.33A2.22,2.22,0,0,1,169.23,367.12Z"/>
            <path class="cls-9" d="M163.71,420.56l-2.9-3.3a25.66,25.66,0,0,1-.19,5.81c-.1.74-.33,1.58-1,1.86-.85.35-1.79-.47-2-1.36a8.4,8.4,0,0,1,.17-2.73,2.6,2.6,0,0,0-.8-2.49,2.68,2.68,0,0,1-1.52,2.24c.06-.77.11-1.53.15-2.3,0-.26,0-.52,0-.77v-.17c0-.41,0-.82.05-1.24h0a94.17,94.17,0,0,0-.26-10.08c0-.6-.1-1.21-.16-1.82l-.06-.6c-.1-1-.22-2-.36-3h0c0-.19-.05-.39-.08-.58l-.09-.59-.09-.58a.13.13,0,0,0,0-.06c0-.18,0-.36-.08-.54s-.07-.38-.1-.57c-.16-.93-.33-1.85-.51-2.77l.08.1.49.62.49.63.13.17C159.47,403.87,163.18,412,163.71,420.56Z"/>
            <path class="cls-9" d="M157,368.13c-.07.25-.13.5-.2.75s-.13.5-.19.75l-.18.74-.12.48,0,.12-.06.27h0l-.15.64c0,.17-.07.35-.11.52l0,.08c0,.1,0,.2-.07.31s-.05.26-.08.39-.05.25-.08.38c-.08.39-.16.78-.23,1.16,0,.13-.05.26-.07.39s-.05.26-.08.39l-.06.36c0,.14,0,.27-.07.41s0,.26-.07.38q-.14.75-.24,1.5c0,.14,0,.28-.07.43l-.06.38c0,.13,0,.26-.05.39l-.06.38c-.1.77-.2,1.53-.28,2.3s-.17,1.52-.23,2.28c0,.38-.07.76-.1,1.14,0,.12,0,.25,0,.38l0,.37c0,.13,0,.26,0,.38,0,.38-.05.75-.07,1.13,0,.12,0,.25,0,.38h0c0,.17,0,.34,0,.51s0,.4,0,.6,0,.25,0,.37,0,.27,0,.4,0,.23,0,.35v.1c0,.16,0,.32,0,.48v.19c0,.22,0,.44,0,.67v1.68l-.28.13c-3.22-8.57-5.74-17.88-4.61-26.94l2.25,3.78a25.21,25.21,0,0,1,1.26-5.68c.24-.7.61-1.48,1.34-1.64.89-.19,1.67.8,1.7,1.71a8.29,8.29,0,0,1-.68,2.65,2.63,2.63,0,0,0,.33,2.6A2.72,2.72,0,0,1,157,368.13Z"/>
            <path class="cls-9" d="M155.09,396.43c-.41-.71-.84-1.41-1.26-2.11l.07,0h0l.16.07c7.73,4.68,15.32,10.35,20,18l-4.1-1.57a25.88,25.88,0,0,1,2.54,5.24,2.19,2.19,0,0,1,0,2.11,1.65,1.65,0,0,1-2.4-.28,8.57,8.57,0,0,1-1.12-2.5,2.58,2.58,0,0,0-1.87-1.82,2.69,2.69,0,0,1-.29,2.69c-.12-.27-.23-.53-.35-.79s-.21-.49-.32-.73-.13-.28-.2-.41-.12-.29-.19-.43,0,0,0,0c-.11-.25-.23-.5-.35-.75s-.24-.51-.37-.77-.25-.51-.38-.77-.24-.49-.37-.73l0-.09-.36-.69-.39-.73,0-.05-.39-.71q-1.78-3.3-3.84-6.43l-.45-.69h0l-.45-.68c-.15-.22-.3-.45-.46-.67l-.46-.66v0c-.15-.22-.31-.43-.47-.65l-.46-.65,0,0-.47-.63c-.15-.21-.3-.42-.46-.62l-.07-.1Z"/>
            <path class="cls-9" d="M153.64,394.73c.31,9.26-.27,19-4.32,27.34l-.9-4.3a25.66,25.66,0,0,1-3,5c-.45.59-1.06,1.21-1.8,1.12-.91-.11-1.32-1.29-1.06-2.17A8.83,8.83,0,0,1,144,419.4a2.58,2.58,0,0,0,.53-2.56,2.7,2.7,0,0,1-2.43,1.21l.46-.69,0,0,.4-.62a.41.41,0,0,0,.07-.11l.33-.51.14-.21.38-.62c.15-.23.29-.47.43-.7s.27-.44.4-.66l.37-.62c.05-.09.11-.18.16-.28l.27-.46.15-.27.26-.46c.06-.1.12-.2.17-.3.3-.54.6-1.08.88-1.62.12-.21.23-.42.34-.63s.13-.25.19-.37l.19-.38c.13-.24.26-.49.38-.74l.19-.38.15-.3.21-.44.18-.38.18-.37c.11-.23.22-.46.32-.69s.14-.29.2-.43.12-.25.17-.38.23-.5.34-.75c.22-.5.44-1,.65-1.5,0-.12.1-.24.14-.35s.11-.27.17-.4c.26-.63.51-1.25.75-1.88s.38-1,.56-1.51c0-.12.1-.25.14-.37l.15-.43.12-.33c.18-.51.35-1,.52-1.53h0c.09-.18.17-.35.25-.53Z"/>
            <path class="cls-9" d="M153.42,394.89a.88.88,0,0,0,0,.15c0,.1-.07.21-.11.31-3.81,8.19-8.63,16.35-15.76,21.83l1.11-4.25a25.91,25.91,0,0,1-4.92,3.09,2.21,2.21,0,0,1-2.11.2c-.77-.5-.61-1.75,0-2.41a8.18,8.18,0,0,1,2.36-1.38,2.63,2.63,0,0,0,1.62-2.06,2.71,2.71,0,0,1-2.71,0l1.43-.83.71-.43.42-.25.4-.25.67-.42.67-.42.38-.25.41-.26.12-.09.55-.36.31-.21.35-.23.36-.25.34-.23.29-.2.5-.35,0,0,.67-.48.66-.48.05,0,.62-.46,0,0,.63-.48.66-.51.65-.51.65-.52.64-.52.63-.52.62-.52.62-.54.62-.53.6-.54.6-.54.57-.52.14-.13.43-.41c.38-.35.76-.71,1.12-1.07l.37-.36,0,0Z"/>
            <path class="cls-9" d="M153.25,394.77l-.81.8h0c-7.31,5.09-15.45,9.63-24.23,10.79l3.09-3.12a26.26,26.26,0,0,1-5.81.22c-.74-.06-1.59-.22-1.92-.89s.34-1.81,1.22-2.07a8.12,8.12,0,0,1,2.74,0,2.6,2.6,0,0,0,2.42-1,2.66,2.66,0,0,1-2.34-1.35h2.77c.72,0,1.43,0,2.14-.07l.37,0,.41,0,.42,0,.41,0,.85,0,.39,0,.41,0,.41,0,.41,0,.7-.07.52,0,.41,0,.4-.05.81-.09.81-.1.4-.05,1.6-.23q2.56-.39,5.11-.91l.77-.16.38-.09.46-.1.69-.16.76-.18.38-.09c.76-.19,1.51-.38,2.25-.59Z"/>
            <path class="cls-9" d="M152.67,393.53l.15.32-.45-.36,0,0-.26-.21c-6.35-6.42-12.34-13.77-15-22.36l3.6,2.52a25.84,25.84,0,0,1-1.19-5.69,2.2,2.2,0,0,1,.55-2.05c.74-.54,1.85,0,2.25.86a8.32,8.32,0,0,1,.48,2.69,2.6,2.6,0,0,0,1.37,2.23,2.68,2.68,0,0,1,.94-2.54q.16,1,.36,2l.06.33a1.16,1.16,0,0,0,0,.18c0,.14.05.28.08.42s0,.28.08.42l.09.42.06.3c0,.12.05.25.08.37s0,.27.08.4.06.25.08.37l.15.65c0,.13.06.27.1.41l.09.41c0,.14.07.28.1.41s.07.28.1.41.07.28.11.42l.21.81c.18.68.36,1.35.56,2,.07.26.15.53.23.8.23.79.48,1.58.74,2.37q1.38,4.26,3.17,8.36c.21.49.43,1,.65,1.46l.27.59C152.6,393.38,152.64,393.45,152.67,393.53Z"/>
            <path class="cls-9" d="M152.7,393.89c-8.84-2.94-17.87-6.87-24.31-13.6l4.35.65a25.59,25.59,0,0,1-3.61-4.56,2.18,2.18,0,0,1-.43-2.07,1.65,1.65,0,0,1,2.4-.25,8.5,8.5,0,0,1,1.63,2.2,2.61,2.61,0,0,0,2.22,1.38,2.69,2.69,0,0,1-.29-2.69c.49.67,1,1.34,1.48,2l.37.48.34.44.39.48.48.62.27.32.31.38.13.16.4.48.16.18c.12.16.26.31.39.47l.15.17c.13.16.27.32.41.47a.69.69,0,0,0,.11.13l.45.52.11.12c.13.15.26.3.4.44s.15.17.23.26.23.26.36.39l.16.18c.14.15.28.31.43.46l.07.08.54.56q.25.28.54.57l.32.33c.08.08.16.17.25.25l.49.5.35.35.07.07.3.29.29.29.3.28.29.28.3.28.3.28a3.07,3.07,0,0,0,.26.25l.33.31.24.21.36.34.22.19.38.35.2.17.41.36.3.26.47.41.66.56.62.51.09.07.52.43.09.08.34.27Z"/>
            <path class="cls-9" d="M152.56,394.06l.38.06h0c-9.23,1.83-19.13,2.89-28.13.18l4.1-1.58a25.72,25.72,0,0,1-5.39-2.19c-.65-.35-1.36-.86-1.39-1.6,0-.91,1.06-1.51,2-1.39a8.58,8.58,0,0,1,2.5,1.11,2.6,2.6,0,0,0,2.61.11,2.68,2.68,0,0,1-1.58-2.2l1.14.51.38.17.21.09.25.11.89.38.29.12.4.17.39.16.39.15h0l1.18.46.4.16.39.14c.93.35,1.85.68,2.79,1,1.31.44,2.64.86,4,1.24l.79.23.1,0,1.89.51.39.1.4.1.79.19.4.09.39.09a2.88,2.88,0,0,0,.4.09l.39.09.4.09,1.18.25.4.08.39.07.8.15.77.14.85.15.52.08.16,0Z"/>
          </g>
          <g>
            <path class="cls-10" d="M154.27,393.69c-.07.11-.13.23-.19.34l-.08.15"/>
            <path class="cls-10" d="M154.62,393.05l-.16.3-.15.27"/>
            <path class="cls-10" d="M154.81,392.72l-.15.26"/>
            <path class="cls-10" d="M155.45,391.6l-.34.59-.25.44"/>
            <path class="cls-10" d="M156.49,389.87l-.21.33"/>
            <path class="cls-10" d="M156.91,389.19l-.21.34"/>
            <path class="cls-10" d="M157.34,388.5l-.18.29"/>
            <path class="cls-10" d="M157.78,387.82l-.22.34"/>
            <path class="cls-10" d="M158.23,387.14l-.23.34"/>
            <path class="cls-10" d="M158.68,386.46l-.23.34"/>
            <path class="cls-10" d="M159.31,385.54l-.4.58"/>
            <path class="cls-10" d="M159.61,385.11a2.75,2.75,0,0,0-.19.28"/>
            <path class="cls-10" d="M160.57,383.76l-.21.3"/>
            <path class="cls-10" d="M161.45,382.58l-.39.51"/>
            <path class="cls-10" d="M162.06,381.76l-.17.23-.33.43"/>
            <path class="cls-10" d="M163.09,380.45l-.26.32"/>
            <path class="cls-10" d="M163.59,379.82l-.19.24"/>
            <path class="cls-10" d="M164.05,379.26l-.43.53"/>
            <path class="cls-10" d="M164.69,378.5l-.26.3"/>
            <path class="cls-10" d="M165.64,377.39l-.52.6-.42.5"/>
            <path class="cls-10" d="M166.18,376.76l-.38.44"/>
            <path class="cls-10" d="M166.73,376.15c-.17.18-.33.37-.5.56"/>
            <path class="cls-10" d="M167.8,375l-.45.5"/>
            <path class="cls-10" d="M169,373.72l-.55.57-.54.58"/>
            <path class="cls-10" d="M153.92,394.23l0-.17v0c0-.1,0-.2.05-.31l.06-.41c1.43-9,3.82-18.21,9.21-25.48l.09,4.39a26.23,26.23,0,0,1,3.89-4.33,2.22,2.22,0,0,1,2-.76c.87.27,1.06,1.51.64,2.32a8.45,8.45,0,0,1-1.89,2,2.58,2.58,0,0,0-1,2.42,2.68,2.68,0,0,1,2.6-.74"/>
            <path class="cls-10" d="M153.9,394.36h0v0a.41.41,0,0,1,0-.11"/>
            <path class="cls-10" d="M154,394.18l-.09.16v0h0"/>
            <path class="cls-10" d="M154.27,393.69c-.07.11-.13.23-.19.34l-.08.15"/>
            <path class="cls-10" d="M169.59,373.1l-.6.62-.55.57-.54.58-.1.1-.45.5c-.21.22-.42.45-.62.68s-.33.37-.5.56l0,.05c-.12.15-.25.29-.38.44a1.46,1.46,0,0,0-.16.19l-.52.6-.42.5h0l-.26.3-.38.46-.43.53,0,0-.19.24-.31.39-.26.32-.77,1-.17.23-.33.43-.11.16-.39.51-.49.67-.21.3c-.25.34-.5.7-.75,1.05-.06.09-.13.18-.19.28l-.11.15-.4.58-.23.34-.23.34-.22.34-.23.34-.22.34c-.07.12-.15.23-.22.34s-.15.23-.22.34l-.18.29-.25.4-.21.34-.21.34-.21.33c-.28.47-.56.93-.83,1.4l-.34.59-.25.44a.41.41,0,0,0-.05.09l-.15.26,0,.06h0l-.17.31a2.15,2.15,0,0,0-.14.26.25.25,0,0,0,0,.07"/>
            <path class="cls-10" d="M153.75,391.1c0,.22,0,.44,0,.67v.76"/>
            <path class="cls-10" d="M153.76,390.43c0,.16,0,.32,0,.48"/>
            <path class="cls-10" d="M153.77,390c0,.12,0,.23,0,.35"/>
            <path class="cls-10" d="M153.8,389.21c0,.12,0,.25,0,.37"/>
            <path class="cls-10" d="M153.84,388.1c0,.17,0,.34,0,.51"/>
            <path class="cls-10" d="M154,386.2c0,.13,0,.26,0,.38,0,.38-.05.75-.07,1.13,0,.12,0,.25,0,.38"/>
            <path class="cls-10" d="M154.67,379.35l-.06.38c-.1.77-.2,1.53-.28,2.3s-.17,1.52-.23,2.28c0,.38-.07.76-.1,1.14,0,.12,0,.25,0,.38"/>
            <path class="cls-10" d="M154.78,378.58l-.06.38"/>
            <path class="cls-10" d="M155.16,376.27c0,.13,0,.26-.07.38q-.14.75-.24,1.5"/>
            <path class="cls-10" d="M155.29,375.5l-.06.36"/>
            <path class="cls-10" d="M155.44,374.72c0,.13-.05.26-.07.39"/>
            <path class="cls-10" d="M155.75,373.18c0,.12-.05.25-.08.38"/>
            <path class="cls-10" d="M155.9,372.48c0,.1,0,.2-.07.31"/>
            <path class="cls-10" d="M156.18,371.24l-.15.64c0,.17-.07.35-.11.52"/>
            <path class="cls-10" d="M156.24,371l-.06.27"/>
            <path class="cls-10" d="M153.75,394.36h0v0s0,0,0,0h0a.14.14,0,0,1,0-.06l-.09-.21-.09-.24h0l-.06-.17c-3.22-8.57-5.74-17.88-4.61-26.94l2.25,3.78a25.21,25.21,0,0,1,1.26-5.68c.24-.7.61-1.48,1.34-1.64.89-.19,1.67.8,1.7,1.71a8.29,8.29,0,0,1-.68,2.65,2.63,2.63,0,0,0,.33,2.6,2.72,2.72,0,0,1,1.91-1.93c-.07.25-.13.5-.2.75s-.13.5-.19.75l-.18.74-.12.48"/>
            <path class="cls-10" d="M157,368.13c-.07.25-.13.5-.2.75s-.13.5-.19.75l-.18.74-.12.48,0,.12-.06.27h0l-.15.64c0,.17-.07.35-.11.52l0,.08-.07.31c0,.13-.05.26-.08.39s-.05.25-.08.38c-.08.39-.16.78-.23,1.16,0,.13-.05.26-.07.39s-.05.26-.08.39l-.06.36c0,.14,0,.27-.07.41l-.07.38q-.14.75-.24,1.5c0,.14,0,.28-.07.43l-.06.38c0,.13,0,.26-.05.39l-.06.38c-.1.77-.2,1.53-.28,2.3s-.16,1.52-.23,2.28c0,.38-.07.76-.1,1.14,0,.12,0,.25,0,.38l0,.37c0,.13,0,.26,0,.38,0,.38-.05.75-.07,1.13,0,.12,0,.25,0,.38h0c0,.17,0,.34,0,.51s0,.4,0,.6,0,.25,0,.37,0,.27,0,.4,0,.23,0,.35v.1c0,.16,0,.32,0,.48v.19c0,.22,0,.44,0,.67v2h0a2.44,2.44,0,0,1,0,.27v.28h0v0h0"/>
            <path class="cls-10" d="M154.77,393.65l-.35.24"/>
            <path class="cls-10" d="M155.78,393l-.68.45-.33.23"/>
            <path class="cls-10" d="M156.44,392.53l-.58.38"/>
            <path class="cls-10" d="M159.08,390.88l-.68.41-.53.33-.16.1-.64.41"/>
            <path class="cls-10" d="M169.33,385.5l-.77.35-1.51.71-.76.37c-.49.24-1,.49-1.48.75l-.74.38c-.48.25-1,.51-1.45.78l-.72.39-1.42.81-.7.41-.69.42"/>
            <path class="cls-10" d="M170.1,385.16l-.38.17"/>
            <path class="cls-10" d="M172.62,384.1l-.38.16-.29.12"/>
            <path class="cls-10" d="M153.74,394.36h0l0,0h0l0,0h0l.15-.21a.05.05,0,0,0,0,0l.24-.33.24-.33h0l.24-.34c5.22-7.22,11.39-14.2,19.29-18.2-.63,1.32-1.25,2.65-1.88,4a26.46,26.46,0,0,1,5.41-2.13,2.23,2.23,0,0,1,2.11.2c.66.64.27,1.83-.47,2.37a8.39,8.39,0,0,1-2.57.92,2.6,2.6,0,0,0-2,1.72,2.66,2.66,0,0,1,2.66.51"/>
            <path class="cls-10" d="M153.81,394.31l0,0,0,0h0"/>
            <path class="cls-10" d="M153.82,394.31h0"/>
            <path class="cls-10" d="M154.77,393.65l-.35.24-.22.15-.2.14h0l-.08.05h0l-.09.06v0"/>
            <path class="cls-10" d="M177.28,382.37q-2.37.81-4.66,1.73l-.38.16-.29.12c-.62.25-1.24.51-1.85.78l-.38.17-.39.17-.77.35-1.51.71-.76.37c-.49.24-1,.49-1.48.75l-.74.38c-.48.25-1,.51-1.45.78l-.72.39-1.42.81-.7.41-.69.42h0l-.68.41-.52.33-.17.1-.64.41-.63.4-.58.38-.08.06-.68.45-.33.23"/>
            <path class="cls-10" d="M153.67,394.25l0,0-.44-.19"/>
            <path class="cls-10" d="M154.44,394.6l-.38-.17-.16-.07h0l-.07,0h0"/>
            <path class="cls-10" d="M156,395.33l-.72-.34-.73-.34"/>
            <path class="cls-10" d="M158,396.36l-.55-.28-.69-.35"/>
            <path class="cls-10" d="M158.33,396.52l-.21-.11"/>
            <path class="cls-10" d="M159.65,397.22l-.69-.37-.57-.3"/>
            <path class="cls-10" d="M160.33,397.59l-.51-.28"/>
            <path class="cls-10" d="M161.77,398.4l-.52-.3"/>
            <path class="cls-10" d="M164.08,399.77l-.35-.21-.7-.42-.71-.42"/>
            <path class="cls-10" d="M164.79,400.21l-.34-.21"/>
            <path class="cls-10" d="M166.19,401.11l-.35-.23-.7-.45"/>
            <path class="cls-10" d="M166.89,401.57l-.29-.2"/>
            <path class="cls-10" d="M167.59,402l-.3-.21"/>
            <path class="cls-10" d="M168.28,402.51l-.33-.23"/>
            <path class="cls-10" d="M169,403l-.28-.2"/>
            <path class="cls-10" d="M169.67,403.48l-.35-.25"/>
            <path class="cls-10" d="M170.32,404l-.23-.18"/>
            <path class="cls-10" d="M171,404.47l-.27-.2"/>
            <path class="cls-10" d="M172.06,405.25l-.51-.38"/>
            <path class="cls-10" d="M172.4,405.51l-.34-.26"/>
            <path class="cls-10" d="M174.75,407.39l-.61-.5-.53-.43"/>
            <path class="cls-10" d="M175.37,407.91l-.54-.45"/>
            <path class="cls-10" d="M153,394h.3l.31,0h.59c9,.73,18.36,2.4,26,7.19l-4.38.43a26.15,26.15,0,0,1,4.62,3.55c.53.51,1.08,1.18.91,1.9-.2.9-1.42,1.18-2.27.82A8.26,8.26,0,0,1,177,406.2a2.62,2.62,0,0,0-2.49-.8,2.72,2.72,0,0,1,.94,2.55"/>
            <path class="cls-10" d="M153.19,394,153,394"/>
            <path class="cls-10" d="M153.75,394.29h0l-.05,0,0,0-.44-.19"/>
            <path class="cls-10" d="M153.78,394.3h0"/>
            <path class="cls-10" d="M153.83,394.32h-.05"/>
            <path class="cls-10" d="M175.42,408l0,0-.54-.45-.08-.07-.61-.5-.53-.43-1.21-.95-.34-.26h0l-.51-.38c-.17-.14-.35-.27-.53-.4l-.27-.2-.43-.31-.23-.18-.42-.3-.35-.25L169,403l-.28-.2-.42-.28-.33-.23-.36-.24-.3-.21-.4-.26-.29-.2-.41-.26-.35-.23-.7-.45-.35-.22-.34-.21-.37-.23-.35-.21-.7-.42-.71-.42-.55-.32-.52-.3-.92-.51-.51-.28-.17-.09-.69-.37-.57-.3-.06,0-.21-.11-.08-.05-.55-.28-.69-.35-.82-.4-.72-.34-.73-.34-.09,0-.39-.18-.15-.06h0l-.07,0"/>
            <path class="cls-10" d="M154,393.71l-.26,0-.22,0-.51.05"/>
            <path class="cls-10" d="M154.67,393.66l-.4,0h0"/>
            <path class="cls-10" d="M156.26,393.54l-1,.07"/>
            <path class="cls-10" d="M157.5,393.47l-1.1.06"/>
            <path class="cls-10" d="M158.59,393.43l-.52,0"/>
            <path class="cls-10" d="M171.7,393.85l-.5-.05c-1.26-.12-2.52-.22-3.78-.29l-1.61-.07-1.06,0c-2-.06-4.05,0-6.07,0"/>
            <path class="cls-10" d="M173.9,394.1l-1.62-.19-.52-.05"/>
            <path class="cls-10" d="M177.19,394.58l-1.09-.17-.55-.08c-.54-.08-1.08-.16-1.63-.22"/>
            <path class="cls-10" d="M178.21,394.75l-.47-.08"/>
            <path class="cls-10" d="M153,393.8h0l.45-.22.28-.13.32-.15.57-.26.07,0c1.05-.48,2.1-.94,3.17-1.39h0c7.14-3,14.74-5.21,22.37-4.85l-3.6,2.52a26,26,0,0,1,5.76.82c.72.18,1.53.5,1.74,1.21.26.88-.66,1.72-1.57,1.83a8.48,8.48,0,0,1-2.7-.47,2.6,2.6,0,0,0-2.56.53,2.68,2.68,0,0,1,2.07,1.75"/>
            <path class="cls-10" d="M179.39,395l-1.18-.21-.47-.08-.55-.09-1.09-.17-.55-.08c-.54-.08-1.08-.16-1.63-.22h0l-1.62-.19-.52-.05h-.06l-.5-.05c-1.27-.12-2.53-.22-3.78-.29l-1.61-.07-1.06,0q-3.08-.09-6.07,0h-.09l-.52,0-.57,0-1.1.06h-.14l-1,.07-.49,0h-.1l-.4,0h-.06l-.21,0-.26,0-.22,0-.51,0h0"/>
            <path class="cls-10" d="M153.63,394.58h0l-.08-.1h0"/>
            <path class="cls-10" d="M153.81,394.8l-.1-.12,0,0-.06-.07"/>
            <path class="cls-10" d="M153.91,394.92l-.09-.1"/>
            <path class="cls-10" d="M155.4,396.83l-.31-.4-.12-.16-.49-.63L154,395l-.08-.1"/>
            <path class="cls-10" d="M156.4,398.18l-.47-.63c-.15-.21-.3-.42-.46-.62"/>
            <path class="cls-10" d="M157.35,399.5c-.15-.22-.31-.43-.47-.65l-.46-.65"/>
            <path class="cls-10" d="M158.73,401.53l-.45-.68c-.15-.22-.3-.45-.46-.67l-.46-.66"/>
            <path class="cls-10" d="M163.42,409.36l-.39-.71q-1.78-3.3-3.84-6.43l-.45-.69"/>
            <path class="cls-10" d="M164.19,410.83l-.36-.69-.39-.73"/>
            <path class="cls-10" d="M165.7,413.94c-.11-.25-.23-.5-.35-.75s-.24-.51-.37-.77-.25-.51-.38-.77-.24-.49-.37-.73"/>
            <path class="cls-10" d="M166.11,414.81c-.07-.14-.13-.28-.2-.41s-.12-.29-.19-.43"/>
            <path class="cls-10" d="M153,393.79h0l.29.17.4.24.05,0h.05l0,0,.08,0h0l.14.08h0c7.73,4.68,15.32,10.35,20,18l-4.1-1.57a25.88,25.88,0,0,1,2.54,5.24,2.19,2.19,0,0,1,0,2.11,1.65,1.65,0,0,1-2.4-.28,8.57,8.57,0,0,1-1.12-2.5,2.58,2.58,0,0,0-1.87-1.82,2.69,2.69,0,0,1-.29,2.69c-.12-.27-.23-.53-.35-.79"/>
            <path class="cls-10" d="M153.54,394.47c-.11-.15-.23-.29-.35-.43h0l-.06-.08-.13-.16h0"/>
            <path class="cls-10" d="M153.55,394.47h0"/>
            <path class="cls-10" d="M153.69,394.65l-.06-.07h0l-.08-.09"/>
            <path class="cls-10" d="M153.91,394.92l-.09-.1s0,0,0,0l-.1-.12,0,0"/>
            <path class="cls-10" d="M166.78,416.33c-.12-.27-.23-.53-.35-.79s-.21-.49-.32-.73-.13-.28-.2-.41-.12-.29-.19-.43,0,0,0,0c-.11-.25-.23-.5-.35-.75s-.25-.52-.37-.77-.25-.51-.38-.77-.24-.49-.37-.73l0-.09-.36-.69-.39-.73,0-.05-.39-.71q-1.82-3.34-3.84-6.43l-.45-.69h0l-.45-.68-.46-.67-.46-.66v0l-.47-.65-.46-.65,0,0-.47-.63c-.15-.21-.3-.42-.46-.62l-.07-.1-.3-.39-.13-.17-.49-.63L154,395l-.08-.1"/>
            <path class="cls-10" d="M152.82,393.85h0"/>
            <path class="cls-10" d="M152.37,393.49l.45.36"/>
            <path class="cls-10" d="M151.75,393l.33.26.26.21"/>
            <path class="cls-10" d="M151.14,392.49l.52.43"/>
            <path class="cls-10" d="M150.43,391.91l.62.51"/>
            <path class="cls-10" d="M149.3,390.94l.47.41"/>
            <path class="cls-10" d="M148.59,390.32l.41.36"/>
            <path class="cls-10" d="M147.79,389.61l.22.19.38.35"/>
            <path class="cls-10" d="M147.19,389.06l.24.21"/>
            <path class="cls-10" d="M146.6,388.5a3.07,3.07,0,0,0,.26.25"/>
            <path class="cls-10" d="M146,387.94l.3.28"/>
            <path class="cls-10" d="M145.41,387.38l.3.28"/>
            <path class="cls-10" d="M144.82,386.8l.3.29"/>
            <path class="cls-10" d="M144.4,386.38l.35.35"/>
            <path class="cls-10" d="M143.66,385.63c.08.08.16.17.25.25"/>
            <path class="cls-10" d="M142.26,384.17l.54.56q.25.28.54.57"/>
            <path class="cls-10" d="M141.76,383.63c.14.15.28.31.43.46"/>
            <path class="cls-10" d="M140.61,382.36c.13.15.26.3.4.44s.15.17.23.26.23.26.36.39"/>
            <path class="cls-10" d="M140.05,381.72l.45.52"/>
            <path class="cls-10" d="M139.53,381.12c.13.16.27.32.41.47"/>
            <path class="cls-10" d="M139,380.48c.12.16.26.31.39.47"/>
            <path class="cls-10" d="M138.43,379.82l.4.48"/>
            <path class="cls-10" d="M137.72,379l.27.32.31.38"/>
            <path class="cls-10" d="M136.85,377.86l.39.48"/>
            <path class="cls-10" d="M136.14,376.94l.37.48"/>
            <path class="cls-10" d="M152.87,393.94l-.17-.05c-8.84-2.94-17.87-6.87-24.31-13.6l4.35.65a25.59,25.59,0,0,1-3.61-4.56,2.18,2.18,0,0,1-.43-2.07,1.65,1.65,0,0,1,2.4-.25,8.5,8.5,0,0,1,1.63,2.2,2.61,2.61,0,0,0,2.22,1.38,2.69,2.69,0,0,1-.29-2.69"/>
            <path class="cls-10" d="M153,394l-.12,0"/>
            <path class="cls-10" d="M152.82,393.85h0l.14.11"/>
            <path class="cls-10" d="M134.66,375c.49.67,1,1.34,1.48,2l.37.48.34.44.39.48.48.62.27.32.31.38.13.16.4.48.16.18.39.47.15.17c.13.16.27.32.41.47a.69.69,0,0,0,.11.13l.45.52.11.12c.13.15.26.3.4.44s.15.17.23.26l.36.39.16.18c.14.15.28.31.43.46l.07.08.54.56c.18.19.35.38.54.57l.32.33c.08.08.16.17.25.25l.49.5.35.35.07.07.3.29.29.29.3.28.29.28.3.28.3.28.26.25.33.31.24.21.36.34.22.19.38.35.2.17.41.36.3.26.47.41.66.56.62.51.09.07.52.43.09.08.34.27.25.2,0,0,.45.36"/>
            <path class="cls-10" d="M152.15,394l.41.06"/>
            <path class="cls-10" d="M151.47,393.89l.52.08"/>
            <path class="cls-10" d="M149.85,393.6l.77.14"/>
            <path class="cls-10" d="M143.91,392.31l.4.1.79.19.4.09.39.09a2.88,2.88,0,0,0,.4.09l.39.09.4.09,1.18.25.4.08.39.07"/>
            <path class="cls-10" d="M141.63,391.7l1.89.51"/>
            <path class="cls-10" d="M132,388.44l1.18.46.4.16.39.14c.93.35,1.85.68,2.79,1,1.31.44,2.64.86,4,1.24l.79.23"/>
            <path class="cls-10" d="M130.51,387.83l.29.12.4.17.39.16.39.15"/>
            <path class="cls-10" d="M129.37,387.34l.25.11"/>
            <path class="cls-10" d="M128.78,387.08l.38.17"/>
            <path class="cls-10" d="M153,394.13h0c-9.23,1.83-19.13,2.89-28.13.18l4.1-1.58a25.72,25.72,0,0,1-5.39-2.19c-.65-.35-1.36-.86-1.39-1.6,0-.91,1.06-1.51,2-1.39a8.58,8.58,0,0,1,2.5,1.11,2.6,2.6,0,0,0,2.61.11,2.68,2.68,0,0,1-1.58-2.2"/>
            <path class="cls-10" d="M153,394.12h0"/>
            <path class="cls-10" d="M127.64,386.57l1.14.51.38.17.21.09.25.11.89.38.29.12.4.17.39.16.39.15h0l1.18.46.4.16.39.14c.93.35,1.86.68,2.79,1,1.32.44,2.65.86,4,1.24l.79.23.1,0,1.89.51.39.1.4.1.79.19.4.09.39.09.4.09.39.09.4.09,1.18.25.4.08.39.07.8.15.77.14.85.15.52.08.16,0,.41.06.38.06h0"/>
            <path class="cls-10" d="M152.87,393.94l.08.18"/>
            <path class="cls-10" d="M152.67,393.53l.15.32h0l0,0"/>
            <path class="cls-10" d="M146.74,376.88l.21.81c.18.68.36,1.35.56,2,.07.26.15.53.23.8.23.79.48,1.58.74,2.37q1.38,4.26,3.17,8.36c.21.49.43,1,.65,1.46l.27.59"/>
            <path class="cls-10" d="M146.24,374.82c0,.13.06.27.1.41l.09.41c0,.14.07.28.1.41s.07.28.1.41"/>
            <path class="cls-10" d="M145.85,373c0,.12.05.25.08.37s0,.27.08.4.06.25.08.37"/>
            <path class="cls-10" d="M145.54,371.47c0,.14.05.28.08.42s0,.28.08.42l.09.42"/>
            <path class="cls-10" d="M145.44,371l.06.33"/>
            <path class="cls-10" d="M153,394.14h0l-.24-.23-.61-.62h0c-6.35-6.42-12.34-13.77-15-22.36l3.6,2.52a25.84,25.84,0,0,1-1.19-5.69,2.2,2.2,0,0,1,.55-2.05c.74-.54,1.85,0,2.25.86a8.32,8.32,0,0,1,.48,2.69,2.6,2.6,0,0,0,1.37,2.23,2.68,2.68,0,0,1,.94-2.54"/>
            <path class="cls-10" d="M145.08,368.92q.16,1,.36,2l.06.33a1.16,1.16,0,0,0,0,.18c0,.14.05.28.08.42s0,.28.08.42l.09.42.06.3c0,.12.05.25.08.37s0,.27.08.4.06.25.08.37l.15.65c0,.13.06.27.1.41l.09.41c0,.14.07.28.1.41s.07.28.1.41.07.28.11.42l.21.81c.18.68.36,1.35.56,2,.07.26.15.53.23.8.24.8.48,1.59.74,2.37q1.41,4.33,3.17,8.36c.21.49.43,1,.65,1.46l.27.59c0,.08.07.15.1.23l.15.32h0l0,0,0,.06h0l.08.18h0"/>
            <path class="cls-10" d="M153.26,395.35c0-.1.07-.21.11-.31"/>
            <path class="cls-10" d="M152.62,397.21l.12-.33"/>
            <path class="cls-10" d="M151,401.4c.26-.63.51-1.25.75-1.88s.38-1,.56-1.51c0-.12.1-.25.14-.37"/>
            <path class="cls-10" d="M149.55,404.78c.06-.13.12-.25.17-.38s.23-.5.34-.75c.22-.5.44-1,.65-1.5,0-.12.1-.24.14-.35"/>
            <path class="cls-10" d="M149,405.9c.11-.23.22-.46.32-.69"/>
            <path class="cls-10" d="M148.67,406.65l.18-.38"/>
            <path class="cls-10" d="M148.31,407.39l.15-.3"/>
            <path class="cls-10" d="M147.55,408.89l.19-.38c.13-.24.26-.49.38-.74"/>
            <path class="cls-10" d="M147,409.89c.12-.21.23-.42.34-.63"/>
            <path class="cls-10" d="M146,411.81c.06-.1.12-.2.17-.3"/>
            <path class="cls-10" d="M145.56,412.54l.15-.27"/>
            <path class="cls-10" d="M145.13,413.28c.05-.09.11-.18.16-.28"/>
            <path class="cls-10" d="M143.55,415.88l.38-.62c.15-.23.29-.47.43-.7s.27-.44.4-.66"/>
            <path class="cls-10" d="M143.08,416.6l.33-.51"/>
            <path class="cls-10" d="M142.61,417.33l.4-.62"/>
            <path class="cls-10" d="M153.62,394.25c0,.05,0,.09,0,.13v.2h0a.22.22,0,0,1,0,.08v.07c.31,9.26-.27,19-4.32,27.34l-.9-4.3a25.66,25.66,0,0,1-3,5c-.45.59-1.06,1.21-1.8,1.12-.91-.11-1.32-1.29-1.06-2.17A8.83,8.83,0,0,1,144,419.4a2.58,2.58,0,0,0,.53-2.56,2.7,2.7,0,0,1-2.43,1.21l.46-.69"/>
            <path class="cls-10" d="M153.56,394.45l.06-.2"/>
            <path class="cls-10" d="M142.13,418.05l.46-.69,0,0,.4-.62a.41.41,0,0,0,.07-.11l.33-.51.14-.21.38-.62c.15-.23.29-.47.43-.7s.27-.44.4-.66l.37-.62.16-.28.27-.46.15-.27.26-.46c.06-.1.12-.2.17-.3.3-.54.6-1.08.88-1.62.12-.21.23-.42.34-.63s.13-.25.19-.37l.19-.38c.13-.25.26-.49.38-.74l.19-.38.15-.3.21-.44.18-.38.18-.37c.11-.23.22-.46.32-.69s.14-.29.2-.43.12-.25.17-.38.23-.5.34-.75c.22-.5.44-1,.65-1.5,0-.12.1-.24.14-.35s.11-.27.17-.4c.26-.63.51-1.26.75-1.88s.38-1,.56-1.51c0-.12.1-.25.14-.37l.15-.43.12-.33c.18-.51.35-1,.52-1.53,0-.1.07-.21.11-.31a.88.88,0,0,1,0-.15l.06-.18c0-.08.05-.16.07-.23h0v0"/>
            <path class="cls-10" d="M154.6,398.8c0-.18,0-.36-.08-.54s-.07-.38-.1-.57"/>
            <path class="cls-10" d="M154.87,400.61c0-.19-.05-.39-.08-.58l-.09-.59-.09-.58"/>
            <path class="cls-10" d="M155.71,416.1a94.17,94.17,0,0,0-.26-10.08c0-.6-.1-1.21-.16-1.82l-.06-.6c-.1-1-.22-2-.36-3"/>
            <path class="cls-10" d="M155.66,417.35c0-.41,0-.82.05-1.24"/>
            <path class="cls-10" d="M155.62,418.29c0-.26,0-.52,0-.77"/>
            <path class="cls-10" d="M153.77,394.22h0v0h0l0,0h0c.42.7.85,1.4,1.26,2.11h0c4.37,7.43,8.08,15.59,8.61,24.12l-2.9-3.3a25.66,25.66,0,0,1-.19,5.81c-.1.74-.33,1.58-1,1.86-.85.35-1.79-.47-2-1.36a8.4,8.4,0,0,1,.17-2.73,2.6,2.6,0,0,0-.8-2.49,2.68,2.68,0,0,1-1.52,2.24"/>
            <path class="cls-10" d="M155.47,420.59c.06-.77.11-1.53.15-2.3,0-.26,0-.52,0-.77v-.17c0-.41,0-.83.05-1.24h0a96.08,96.08,0,0,0-.26-10.08c0-.61-.1-1.21-.16-1.82l-.06-.6c-.1-1-.22-2-.36-3h0c0-.2-.06-.39-.08-.58l-.09-.59-.09-.58a.13.13,0,0,0,0-.06c0-.18,0-.36-.08-.54s-.07-.38-.1-.57c-.16-.93-.33-1.85-.51-2.77h0l-.12-.59v0h0v0h0v0"/>
            <path class="cls-10" d="M152,396l.37-.36,0,0"/>
            <path class="cls-10" d="M150.48,397.45l.43-.41"/>
            <path class="cls-10" d="M142.85,403.83l.63-.48.66-.51.65-.51.65-.52.64-.52.63-.52.62-.52.62-.54.62-.53.6-.54.6-.54.57-.52"/>
            <path class="cls-10" d="M142.18,404.32l.62-.46"/>
            <path class="cls-10" d="M140.8,405.32l.67-.48.66-.48"/>
            <path class="cls-10" d="M138.08,407.17l.55-.36c.1-.07.21-.13.31-.21l.35-.23.36-.25.34-.23.29-.2.5-.35"/>
            <path class="cls-10" d="M137.17,407.77l.38-.25.41-.26"/>
            <path class="cls-10" d="M134.3,409.54l.71-.43.42-.25.4-.25.67-.42"/>
            <path class="cls-10" d="M153.58,394.68l-.07.14c-.08.18-.16.35-.25.53h0c-3.81,8.19-8.63,16.35-15.76,21.83l1.11-4.25a25.91,25.91,0,0,1-4.92,3.09,2.21,2.21,0,0,1-2.11.2c-.77-.5-.61-1.75,0-2.41a8.18,8.18,0,0,1,2.36-1.38,2.63,2.63,0,0,0,1.62-2.06,2.71,2.71,0,0,1-2.71,0"/>
            <path class="cls-10" d="M153.78,394.22v0h0l0,0h0v0c0,.08-.07.16-.11.23v0a.54.54,0,0,0,0,.11"/>
            <path class="cls-10" d="M153.25,394.77l.29-.3h0l0,0h0a.46.46,0,0,0,.07-.07l.09-.1h0l0,0h0"/>
            <path class="cls-10" d="M152.44,395.57l.81-.8"/>
            <path class="cls-10" d="M132.87,410.37l1.43-.83.71-.43.42-.25.4-.25.67-.42.67-.42.38-.25.41-.26.12-.09.55-.36.31-.21.35-.23.36-.25.34-.23.29-.2.5-.35,0,0,.67-.48.66-.48.05,0,.62-.46,0,0,.63-.48.66-.51.65-.51.65-.52.64-.52.63-.52.62-.52.62-.54.62-.53.6-.54.6-.54.57-.52.14-.13.43-.41c.38-.35.76-.71,1.12-1.07l.37-.36,0,0"/>
            <path class="cls-10" d="M153.48,394.71l.1,0"/>
            <path class="cls-10" d="M153.05,394.82l.2-.05h0"/>
            <path class="cls-10" d="M150.42,395.5l.38-.09"/>
            <path class="cls-10" d="M149,395.84l.69-.16"/>
            <path class="cls-10" d="M140.65,397.33l1.6-.23q2.56-.39,5.11-.91l.77-.16.38-.09"/>
            <path class="cls-10" d="M137.82,397.66l.41,0,.4-.05.81-.09.81-.1"/>
            <path class="cls-10" d="M135.78,397.85l.41,0,.41,0,.7-.07"/>
            <path class="cls-10" d="M135,397.91l.39,0"/>
            <path class="cls-10" d="M133.72,398l.41,0"/>
            <path class="cls-10" d="M132.52,398.05l.37,0,.41,0"/>
            <path class="cls-10" d="M129.54,398.14h.84"/>
            <path class="cls-10" d="M153.79,394.62l-.08.06h0l-.07.05-.13.09-.09.07-1,.68h0c-7.31,5.09-15.45,9.63-24.23,10.79l3.09-3.12a26.26,26.26,0,0,1-5.81.22c-.74-.06-1.59-.22-1.92-.89s.34-1.81,1.22-2.07a8.12,8.12,0,0,1,2.74,0,2.6,2.6,0,0,0,2.42-1,2.66,2.66,0,0,1-2.34-1.35"/>
            <path class="cls-10" d="M127.61,398.15h2.77c.72,0,1.43,0,2.14-.07l.37,0,.41,0,.42,0,.41,0,.85,0,.39,0,.41,0,.41,0,.41,0,.7-.07.52,0,.41,0,.4-.05.81-.09.81-.1.4-.05,1.6-.23q2.59-.39,5.11-.91l.77-.16.38-.09.46-.1.69-.16.76-.18.38-.09c.76-.19,1.51-.38,2.25-.59l.2-.05h0l.23-.06.1,0h0l.06,0h.05l.1,0"/>
          </g>
        </g>
        <g>
          <g>
            <path class="cls-11" d="M167.17,405.17a.92.92,0,0,1-1.36.1,4.4,4.4,0,0,1-.89-1.27,1.48,1.48,0,0,0-1.24-.82,1.53,1.53,0,0,1,.12,1.53c-.13-.18-.25-.37-.38-.56s-.11-.14-.16-.22l-.18-.25-.37-.51-.18-.25-.57-.75h0l-.57-.72-.19-.24,0,0L161,401c-.46-.56-.92-1.1-1.4-1.64l-.61-.68c-.13-.15-.27-.29-.41-.44q-1.17-1.26-2.43-2.43l0,0-.22-.21-.24-.22-.46-.41-.06-.06-.42-.37-.22-.18.23,0,.45.09h.06l.38.08.41.09.43.1.1,0c4.06,1.68,8,3.85,10.89,7.07l-2.45-.44a14.51,14.51,0,0,1,2,2.64A1.26,1.26,0,0,1,167.17,405.17Z"/>
            <path class="cls-11" d="M160.1,409.23a1.23,1.23,0,0,1-.4,1.13c-.44.27-1-.1-1.24-.59a4.92,4.92,0,0,1-.15-1.54,1.46,1.46,0,0,0-.67-1.32,1.51,1.51,0,0,1-.65,1.39l0-.43a.13.13,0,0,1,0-.06c0-.15,0-.29,0-.44s0-.26,0-.39c0-.29-.07-.57-.1-.86l0-.24h0c0-.12,0-.24-.05-.36s0-.25-.05-.37l0-.19c0-.1,0-.2-.05-.3a.88.88,0,0,0,0-.16c0-.1,0-.2,0-.29a1466420864280.76,1466420864280.76,0,0,1-.08-.48l0-.19c0-.09,0-.19,0-.28s0-.15,0-.23,0-.16,0-.24l0-.2-.06-.26a1.18,1.18,0,0,0,0-.2,2.56,2.56,0,0,0-.05-.27c0-.08,0-.15-.05-.23s-.07-.31-.1-.46,0-.15,0-.23a1.89,1.89,0,0,1-.05-.23l-.06-.23c0-.08,0-.15-.05-.23s-.07-.3-.11-.45l-.12-.45-.09-.35-.09-.33c0-.19-.1-.38-.16-.58l-.09-.31,0-.1c0-.15-.08-.29-.13-.43s-.07-.23-.1-.35v0c0-.05,0-.09-.05-.13v-.06c0-.11-.07-.22-.11-.33s-.09-.28-.13-.42l-.17-.48-.15-.43-.15-.43,0,0c0-.08-.06-.16-.08-.23l0-.09.11,0h0l.13,0c3.31,3.92,6.37,8.35,7.49,13.33L159.68,406A15,15,0,0,1,160.1,409.23Z"/>
            <path class="cls-11" d="M171.18,397.57c0,.52-.62.85-1.14.76a4.67,4.67,0,0,1-1.39-.66,1.47,1.47,0,0,0-1.48-.11,1.55,1.55,0,0,1,.86,1.27c-.85-.42-1.71-.81-2.56-1.18l-.22-.09-.16-.07-1.05-.43-.23-.08-.22-.09-.45-.17-.89-.33-.45-.15c-.29-.11-.59-.21-.89-.3l-.45-.15-.89-.27-.45-.13-.89-.25-.45-.11-.44-.12h0l-.44-.11-.34-.08-1.82-.72c5-.78,10.26-1.09,15,.49l-2.35.83a14.52,14.52,0,0,1,3,1.33C170.78,396.86,171.18,397.16,171.18,397.57Z"/>
            <path class="cls-11" d="M154.63,409.56c-.33-.76-.67-1.52-1-2.28a14.17,14.17,0,0,1-1.09,3.11c-.18.38-.44.8-.86.84s-.89-.56-.84-1.08a4.66,4.66,0,0,1,.55-1.45,1.48,1.48,0,0,0,0-1.48,1.54,1.54,0,0,1-1.2,1l.18-.46.16-.42.09-.24a2.5,2.5,0,0,0,.09-.25v0c.06-.15.11-.29.16-.44s.11-.31.16-.46.11-.3.16-.46l.15-.44,0-.05c0-.14.09-.28.13-.42s.1-.3.14-.45v0c.05-.15.09-.29.13-.44.41-1.36.76-2.73,1.06-4.11l.09-.46h0l.09-.45.09-.46c0-.15,0-.3.08-.45h0c0-.15.05-.3.08-.44s.05-.3.07-.45h0c0-.15.05-.3.07-.45s.05-.29.07-.43a.17.17,0,0,1,0-.07,2.7,2.7,0,0,1,0-.28c.11-.45.23-.9.34-1.35,0,0,0,0,0,0h0a.36.36,0,0,1,0,.09C155.1,399.29,155.86,404.61,154.63,409.56Z"/>
            <path class="cls-11" d="M170.94,389.5c.24.46-.18,1-.68,1.19a5,5,0,0,1-1.55,0,1.45,1.45,0,0,0-1.37.57,1.5,1.5,0,0,1,1.34.75h-.94l-.45,0h-.46l-.52,0-.42,0h0l-.33,0h-.14l-.45,0-.37,0h0l-.22,0-.34,0-.38,0h0l-.17,0-.28,0-.23,0-.71.08-.16,0-.31,0-.1,0-.37.05-.46.07-.2,0-.73.12-.18,0-.11,0-.39.08-.23,0-.23,0-.23.05-.22,0-.23.05-.22.05-.23,0-.19,0-.26.06-.22.05-.22.05-.21,0-.9.22-.37.1-.28.08h-.06l-.16.05h0l-.33-.13c4.18-3,8.85-5.74,13.93-6.47l-1.73,1.79a14.59,14.59,0,0,1,3.3-.16A1.23,1.23,0,0,1,170.94,389.5Z"/>
            <path class="cls-11" d="M147.24,408.63c.06-.82.11-1.65.17-2.48A15.57,15.57,0,0,1,145,408.4a1.25,1.25,0,0,1-1.15.33.94.94,0,0,1-.25-1.35,5,5,0,0,1,1.17-1,1.49,1.49,0,0,0,.68-1.31,1.53,1.53,0,0,1-1.51.28l1-.86.33-.29.07-.07.51-.47h0a51.37,51.37,0,0,0,3.95-4.13c.23-.26.45-.52.67-.79l.22-.26c.36-.44.71-.89,1-1.34h0l.2-.27.2-.27c.07-.09.13-.18.2-.26l0,0,.18-.25.19-.27c.31-.43.62-.87.91-1.31a.2.2,0,0,1,0,.07c0,.15,0,.29,0,.44l-.06.45,0,.12C152.26,400.26,150.46,405,147.24,408.63Z"/>
            <path class="cls-11" d="M165.63,385l-.37.22-.38.22-.38.23-.23.14-.07,0-.13.08h0l-.31.2-.26.16,0,0-.15.1-.19.12-.19.13-.55.37-.19.12-.18.13-.18.11-.19.14-.18.13-.7.49-.2.15-.18.13-.17.13-.18.13-1,.81c-.34.26-.67.54-1,.82l-.49.41-.16.14-.17.14-.16.14-.48.43-.16.14h0l-.22.19-.25.23-.15.14-.17.16-.14.13,0,.05-.2.18-.08.08-.27.26-.31.3-.37.37-.16-.06c2.16-4.72,4.9-9.45,9-12.61l-.63,2.41a14.73,14.73,0,0,1,2.79-1.76,1.23,1.23,0,0,1,1.19-.12.93.93,0,0,1,0,1.37,4.78,4.78,0,0,1-1.33.79,1.47,1.47,0,0,0-.91,1.17A1.52,1.52,0,0,1,165.63,385Z"/>
            <path class="cls-11" d="M153.61,394.26c-3.6,3.83-7.76,7.49-12.72,9.19l1.37-2.08a14.87,14.87,0,0,1-3.21.77,1.26,1.26,0,0,1-1.17-.28c-.32-.41,0-1,.45-1.29a4.84,4.84,0,0,1,1.52-.31,1.49,1.49,0,0,0,1.24-.82,1.52,1.52,0,0,1-1.46-.49l.46-.09h0l.4-.09h.07l.34-.08.14,0,.4-.09.46-.11.42-.1.4-.1.17,0,.3-.08.17-.05.29-.08.18-.05,1-.29.39-.12.22-.07.23-.07.45-.15.22-.07.19-.06.26-.09.22-.08.23-.08.4-.14.26-.1.21-.08.44-.16.86-.34.2-.08.23-.1c.35-.14.71-.29,1.06-.45l.83-.37.2-.1.24-.1.17-.09.83-.4h0l.31-.11Z"/>
            <path class="cls-11" d="M153.46,394.24l-.08,0-.17.08c-4.82,1.74-10,3.06-15.08,2.38l2.16-1.25a14.78,14.78,0,0,1-3.22-.75c-.39-.14-.84-.35-.92-.76s.46-1,1-1a4.77,4.77,0,0,1,1.5.4,1.5,1.5,0,0,0,1.47-.17,1.54,1.54,0,0,1-1.08-1.1l.91.25.45.12.27.06.26.07.44.1.44.1.25,0,.27.06.08,0,.36.07.21,0,.23.05.25.05.23,0,.19,0,.35.06h0l.46.08.45.07h0l.44.06h0l.45.06.46.06.47.06.46.05.47,0,.46.05.46,0,.46,0,.46,0,.46,0,.46,0,.43,0h.45l.88,0h.32Z"/>
            <path class="cls-11" d="M153.44,394.12h-.65c-5-.91-10-2.37-14-5.44h2.49a15.1,15.1,0,0,1-2.41-2.25,1.27,1.27,0,0,1-.41-1.13c.17-.49.87-.58,1.33-.34a5,5,0,0,1,1.1,1.1,1.47,1.47,0,0,0,1.36.58,1.5,1.5,0,0,1-.39-1.48l.77.77.17.17c.06.06.12.11.17.17l.89.83.15.14.17.15.18.16.17.16.36.32.17.14.18.15.18.16.17.15.31.25.23.19.18.15.18.14.36.29.36.29.19.14.73.55c.78.59,1.59,1.15,2.4,1.69l.38.25.18.12.23.14.34.21.37.24.19.11c.38.23.76.46,1.14.67Z"/>
            <path class="cls-11" d="M153.58,393.74h0c-4.43-3-8.81-6.54-11.32-11.25l2.28,1a14,14,0,0,1-1.27-3,1.26,1.26,0,0,1,.08-1.2.94.94,0,0,1,1.35.24,4.69,4.69,0,0,1,.55,1.45c.17.49.49,1,1,1.09a1.53,1.53,0,0,1,.26-1.51l.24.66.09.22a.61.61,0,0,0,0,.12.58.58,0,0,0,.05.14l.21.52.06.16.09.23a1.47,1.47,0,0,1,.1.22l.09.22h0c.09.22.18.44.28.66l.1.22.1.22c.23.51.46,1,.71,1.51.35.71.71,1.41,1.09,2.1l.22.41,0,.05c.18.33.36.65.55,1l.12.2.12.2.24.4.12.2.12.19.12.2.12.19.12.19.38.58.12.19a1.27,1.27,0,0,1,.13.19l.26.38c.08.12.17.24.25.37l.28.39.18.25.05.07.13.19Z"/>
            <path class="cls-11" d="M153.64,393.58a3.11,3.11,0,0,1,0-.32v0a1.23,1.23,0,0,1,0-.19c0-5.12.61-10.46,3-15l.42,2.46a14.41,14.41,0,0,1,1.82-2.75c.27-.33.63-.67,1-.6s.72.76.56,1.25a4.82,4.82,0,0,1-.9,1.27,1.48,1.48,0,0,0-.35,1.44,1.53,1.53,0,0,1,1.4-.64l-.68,1s-.07.1-.1.16l-.06.08c0,.07-.09.14-.14.2l-.14.21-.13.2-.09.14-.12.18-.13.2-.12.18-.2.31-.12.21a1.37,1.37,0,0,0-.13.2l-.13.21-.12.2-.13.21-.24.41c-.2.34-.4.68-.59,1-.08.14-.16.27-.23.41-.23.42-.45.83-.66,1.25q-1.16,2.25-2.1,4.61c-.11.28-.22.56-.32.85,0,.11-.09.23-.13.34a1.12,1.12,0,0,0,0,.13C153.68,393.46,153.66,393.52,153.64,393.58Z"/>
            <path class="cls-11" d="M153.58,393.06c0,.16,0,.33,0,.49-2.35-4.73-4.37-9.93-4.24-15.21l1.48,2a14,14,0,0,1,.39-3.28c.09-.41.26-.87.66-1s1,.36,1.06.87a4.8,4.8,0,0,1-.23,1.54,1.48,1.48,0,0,0,.33,1.44,1.5,1.5,0,0,1,1-1.19c-.08.46-.15.93-.22,1.39,0,.11,0,.22,0,.34s0,.2,0,.31,0,.23,0,.35,0,.29-.05.44l0,.24,0,.27s0,.08,0,.12l0,.36a.53.53,0,0,0,0,.13l0,.34a.57.57,0,0,0,0,.13l0,.35v.1c0,.13,0,.26,0,.39a.28.28,0,0,0,0,.09c0,.11,0,.23,0,.34s0,.13,0,.19,0,.2,0,.3v.14c0,.12,0,.24,0,.36v.06c0,.15,0,.29,0,.44s0,.29,0,.44,0,.18,0,.26v1.64a1.77,1.77,0,0,1,0,.23v.23a1.85,1.85,0,0,1,0,.23,1.48,1.48,0,0,0,0,.21,2.35,2.35,0,0,0,0,.26v.18a2.53,2.53,0,0,1,0,.28.81.81,0,0,1,0,.16c0,.1,0,.2,0,.29v.15c0,.1,0,.21,0,.31s0,.15,0,.23,0,.23,0,.35,0,.32,0,.49,0,.3,0,.45,0,0,0,.06,0,.26,0,.39v.06Z"/>
          </g>
          <g>
            <path class="cls-10" d="M154.28,394.1l-.21.06-.09,0"/>
            <path class="cls-10" d="M154.68,394l-.19.05-.17,0"/>
            <path class="cls-10" d="M154.88,393.93l-.16.05"/>
            <path class="cls-10" d="M155.59,393.74l-.37.1-.28.08"/>
            <path class="cls-10" d="M156.7,393.47l-.21,0"/>
            <path class="cls-10" d="M157.14,393.37l-.22.05"/>
            <path class="cls-10" d="M157.59,393.27l-.19,0"/>
            <path class="cls-10" d="M158,393.17l-.22.05"/>
            <path class="cls-10" d="M158.49,393.08l-.22,0"/>
            <path class="cls-10" d="M159,393l-.23,0"/>
            <path class="cls-10" d="M159.57,392.87l-.39.08"/>
            <path class="cls-10" d="M159.86,392.82l-.18,0"/>
            <path class="cls-10" d="M160.79,392.67l-.2,0"/>
            <path class="cls-10" d="M161.62,392.55l-.37.05"/>
            <path class="cls-10" d="M162.19,392.47l-.16,0-.31,0"/>
            <path class="cls-10" d="M163.13,392.36l-.23,0"/>
            <path class="cls-10" d="M163.58,392.31l-.17,0"/>
            <path class="cls-10" d="M164,392.27l-.38,0"/>
            <path class="cls-10" d="M164.55,392.22l-.22,0"/>
            <path class="cls-10" d="M165.38,392.16l-.45,0-.37,0"/>
            <path class="cls-10" d="M165.85,392.13l-.33,0"/>
            <path class="cls-10" d="M166.31,392.11l-.42,0"/>
            <path class="cls-10" d="M167.22,392.07h-.39"/>
            <path class="cls-10" d="M168.19,392.05h-.45l-.45,0"/>
            <path class="cls-10" d="M153.92,394.18l.08-.06h0l.14-.11.19-.14c4.18-3,8.85-5.74,13.93-6.47l-1.73,1.79a14.59,14.59,0,0,1,3.3-.16,1.23,1.23,0,0,1,1.09.48c.24.46-.18,1-.68,1.19a5,5,0,0,1-1.55,0,1.45,1.45,0,0,0-1.37.57,1.5,1.5,0,0,1,1.34.75"/>
            <path class="cls-10" d="M153.86,394.22h0l0,0"/>
            <path class="cls-10" d="M154,394.19l-.11,0h0"/>
            <path class="cls-10" d="M154.28,394.1l-.21.06-.09,0"/>
            <path class="cls-10" d="M168.68,392h-.94l-.45,0h-.46l-.52,0-.42,0h0l-.33,0h-.14l-.45,0-.37,0h0l-.22,0-.34,0-.38,0h0l-.17,0-.28,0-.23,0-.71.08-.16,0-.31,0-.1,0-.37.05-.46.07-.2,0-.73.12-.18,0-.11,0-.39.08-.23,0-.23,0-.23.05-.22,0-.23.05-.22.05-.23,0-.19,0-.26.06-.22.05-.22.05-.21,0-.9.22-.37.1-.28.08h-.06l-.16.05h0l-.19.05-.17,0h0"/>
            <path class="cls-10" d="M155.11,392.86l-.27.26-.31.3"/>
            <path class="cls-10" d="M155.39,392.6l-.2.18"/>
            <path class="cls-10" d="M155.57,392.42l-.14.13"/>
            <path class="cls-10" d="M155.89,392.12l-.15.14"/>
            <path class="cls-10" d="M156.36,391.7l-.22.19"/>
            <path class="cls-10" d="M157.16,391l-.16.14-.48.43-.16.14"/>
            <path class="cls-10" d="M160.21,388.53l-.18.13-1,.81c-.34.26-.67.54-1,.82l-.49.41-.16.14"/>
            <path class="cls-10" d="M160.56,388.27l-.18.13"/>
            <path class="cls-10" d="M161.64,387.5l-.18.13-.7.49"/>
            <path class="cls-10" d="M162,387.25l-.18.11"/>
            <path class="cls-10" d="M162.38,387l-.19.12"/>
            <path class="cls-10" d="M163.12,386.5l-.19.13"/>
            <path class="cls-10" d="M163.46,386.28l-.15.1"/>
            <path class="cls-10" d="M164.07,385.9l-.31.2-.26.16"/>
            <path class="cls-10" d="M164.2,385.82l-.13.08"/>
            <path class="cls-10" d="M153.8,394.16h0v0h0v0l0-.12.07-.13h0l0-.1c2.16-4.72,4.9-9.45,9-12.61l-.63,2.41a14.73,14.73,0,0,1,2.79-1.76,1.23,1.23,0,0,1,1.19-.12.93.93,0,0,1,0,1.37,4.78,4.78,0,0,1-1.33.79,1.47,1.47,0,0,0-.91,1.17,1.52,1.52,0,0,1,1.53,0l-.37.22-.38.22-.38.23-.23.14"/>
            <path class="cls-10" d="M165.63,385l-.37.22-.38.22-.38.23-.23.14-.07,0-.13.08h0l-.31.2-.26.16,0,0-.15.1-.19.12-.19.13-.55.37-.19.12-.18.13-.18.11-.19.14-.18.13-.7.49-.2.15-.18.13-.17.13-.18.13-1,.81-1,.82-.49.41-.16.14-.17.14a1.07,1.07,0,0,1-.16.14l-.48.43-.16.14h0l-.22.19-.25.23-.15.14-.17.16-.14.13,0,.05-.2.18-.08.08-.27.26-.31.3-.37.37-.11.12h0l-.11.11-.09.09h0l0,0h0"/>
            <path class="cls-10" d="M154.49,394.29l-.23-.05"/>
            <path class="cls-10" d="M155.17,394.42l-.45-.09-.23,0"/>
            <path class="cls-10" d="M155.61,394.51l-.38-.08"/>
            <path class="cls-10" d="M157.33,394.91l-.44-.11-.34-.08-.1,0-.43-.1"/>
            <path class="cls-10" d="M163.59,396.89l-.45-.17-.89-.33-.45-.15c-.29-.11-.59-.21-.89-.3l-.45-.15-.89-.27-.45-.13-.89-.25-.45-.11-.44-.12"/>
            <path class="cls-10" d="M164,397.06l-.23-.08"/>
            <path class="cls-10" d="M165.47,397.65l-.22-.09-.16-.07"/>
            <path class="cls-10" d="M153.8,394.16h.06l.14,0h0l.22,0,.24,0h0l.24,0c5-.78,10.26-1.09,15,.49l-2.35.83a14.52,14.52,0,0,1,3,1.33c.36.21.76.51.76.92s-.62.85-1.14.76a4.67,4.67,0,0,1-1.39-.66,1.47,1.47,0,0,0-1.48-.11,1.55,1.55,0,0,1,.86,1.27"/>
            <path class="cls-10" d="M153.84,394.16h0"/>
            <path class="cls-10" d="M153.85,394.17h0"/>
            <path class="cls-10" d="M154.49,394.28l-.23,0-.15,0-.13,0h-.13"/>
            <path class="cls-10" d="M168,398.83c-.85-.42-1.71-.81-2.56-1.18l-.22-.09-.16-.07-1.05-.43-.23-.08-.22-.09-.45-.17-.89-.33-.45-.15c-.3-.11-.59-.21-.89-.3l-.45-.15-.89-.27-.45-.13-.89-.25-.45-.11-.44-.12h0l-.44-.11-.34-.08-.1,0-.43-.1-.41-.09-.38-.08h-.06l-.45-.09-.23,0"/>
            <path class="cls-10" d="M153.83,394.11l-.12-.3"/>
            <path class="cls-10" d="M154,394.54l-.08-.23a.36.36,0,0,0,0-.09h0s0,0,0,0v0h0"/>
            <path class="cls-10" d="M154.3,395.45l-.15-.43-.15-.43"/>
            <path class="cls-10" d="M154.71,396.68c0-.11-.07-.22-.11-.33s-.09-.28-.13-.42"/>
            <path class="cls-10" d="M154.77,396.87c0-.05,0-.09-.05-.13"/>
            <path class="cls-10" d="M155,397.68c0-.15-.08-.29-.13-.43s-.07-.23-.1-.35"/>
            <path class="cls-10" d="M155.13,398.09l-.09-.31"/>
            <path class="cls-10" d="M155.38,399l-.09-.33"/>
            <path class="cls-10" d="M155.75,400.48c0-.08,0-.15-.05-.23s-.07-.3-.11-.45l-.12-.45"/>
            <path class="cls-10" d="M155.86,400.94a1.89,1.89,0,0,1-.05-.23"/>
            <path class="cls-10" d="M156.06,401.86c0-.08,0-.15-.05-.23s-.07-.31-.1-.46"/>
            <path class="cls-10" d="M156.15,402.33a1.18,1.18,0,0,0,0-.2"/>
            <path class="cls-10" d="M156.24,402.79l0-.2"/>
            <path class="cls-10" d="M156.33,403.26c0-.07,0-.15,0-.23"/>
            <path class="cls-10" d="M156.41,403.73l0-.19"/>
            <path class="cls-10" d="M156.49,404.21a2,2,0,0,0,0-.24"/>
            <path class="cls-10" d="M156.56,404.66a.88.88,0,0,0,0-.16"/>
            <path class="cls-10" d="M156.64,405.15l0-.19"/>
            <path class="cls-10" d="M156.74,405.88c0-.12,0-.24-.05-.36"/>
            <path class="cls-10" d="M156.77,406.12l0-.24"/>
            <path class="cls-10" d="M157,407.81c0-.15,0-.29,0-.44s0-.26,0-.39"/>
            <path class="cls-10" d="M153.67,393.7l.05.05.06.08.11.13.05.06.08.09h0l0,0h0a.1.1,0,0,0,0,0c3.31,3.92,6.37,8.35,7.49,13.33L159.68,406a15,15,0,0,1,.42,3.27,1.23,1.23,0,0,1-.4,1.13c-.44.27-1-.1-1.24-.59a4.92,4.92,0,0,1-.15-1.54,1.46,1.46,0,0,0-.67-1.32,1.51,1.51,0,0,1-.65,1.39l0-.43"/>
            <path class="cls-10" d="M153.71,393.81l0-.11"/>
            <path class="cls-10" d="M153.83,394.13h0l-.12-.3"/>
            <path class="cls-10" d="M153.84,394.15h0v0"/>
            <path class="cls-10" d="M153.85,394.18v0h0"/>
            <path class="cls-10" d="M157,408.3l0-.43a.13.13,0,0,1,0-.06c0-.15,0-.29,0-.44s0-.26,0-.39c0-.29-.07-.57-.1-.86l0-.24h0c0-.12,0-.24-.05-.36s0-.25-.05-.37l0-.19c0-.1,0-.2-.05-.3a.88.88,0,0,0,0-.16c0-.1,0-.2,0-.29a1466420864280.76,1466420864280.76,0,0,1-.08-.48l0-.19c0-.09,0-.19,0-.28s0-.15,0-.23,0-.16,0-.24l0-.2-.06-.26,0-.2a2.56,2.56,0,0,0-.05-.27c0-.08,0-.15-.05-.23s-.07-.31-.1-.46,0-.15,0-.23a1.89,1.89,0,0,1-.05-.23l-.06-.23c0-.08,0-.15-.05-.23s-.08-.3-.11-.45l-.12-.45-.09-.35-.09-.33c0-.19-.1-.38-.16-.58l-.09-.31,0-.1c0-.15-.08-.29-.13-.43s-.07-.23-.1-.35v0c0-.05,0-.09-.05-.13v-.06c0-.11-.07-.22-.11-.33s-.09-.28-.13-.42l-.17-.48-.15-.43-.15-.43,0,0c0-.08-.06-.16-.08-.23l0-.09h0v0"/>
            <path class="cls-10" d="M154.16,394l-.11-.09-.09-.08-.23-.19"/>
            <path class="cls-10" d="M154.45,394.25l-.17-.15h0"/>
            <path class="cls-10" d="M155.13,394.84l-.42-.37"/>
            <path class="cls-10" d="M155.65,395.31l-.46-.41"/>
            <path class="cls-10" d="M156.11,395.74l-.22-.21"/>
            <path class="cls-10" d="M161.18,401.18,161,401c-.46-.56-.92-1.1-1.4-1.64l-.61-.68c-.13-.15-.27-.29-.41-.44q-1.17-1.26-2.43-2.43"/>
            <path class="cls-10" d="M162,402.16l-.57-.72-.19-.24"/>
            <path class="cls-10" d="M163.08,403.68l-.37-.51-.18-.25-.57-.75"/>
            <path class="cls-10" d="M163.42,404.15c0-.07-.11-.14-.16-.22"/>
            <path class="cls-10" d="M153.72,393.63h0l.27.09.16.06.19.07.33.13h0l1.82.72h0c4.06,1.68,8,3.85,10.89,7.07l-2.45-.44a14.51,14.51,0,0,1,2,2.64,1.26,1.26,0,0,1,.21,1.18.92.92,0,0,1-1.36.1,4.4,4.4,0,0,1-.89-1.27,1.48,1.48,0,0,0-1.24-.82,1.53,1.53,0,0,1,.12,1.53"/>
            <path class="cls-10" d="M163.8,404.71c-.13-.18-.25-.37-.38-.56s-.11-.14-.16-.22l-.18-.25-.37-.51-.18-.25-.57-.75h0l-.57-.72-.19-.24,0,0L161,401c-.46-.56-.92-1.11-1.4-1.64l-.61-.68c-.13-.15-.27-.29-.41-.44q-1.19-1.26-2.43-2.43l0,0-.22-.21-.24-.22-.46-.41-.06-.06-.42-.37-.22-.18h0l0,0-.17-.15,0,0-.09-.08-.11-.09-.09-.08-.23-.19h0"/>
            <path class="cls-10" d="M153.67,394.2h0a.13.13,0,0,1,0-.06h0"/>
            <path class="cls-10" d="M153.64,394.45c0-.06,0-.12,0-.18v0s0,0,0-.05"/>
            <path class="cls-10" d="M153.47,395.81a2.7,2.7,0,0,1,0-.28s0-.08,0-.12l.06-.45c0-.15,0-.29,0-.44a.2.2,0,0,0,0-.07"/>
            <path class="cls-10" d="M153.32,396.76c0-.15.05-.3.07-.45s.05-.29.07-.43"/>
            <path class="cls-10" d="M153.17,397.66c0-.15.05-.3.08-.44s.05-.3.07-.45"/>
            <path class="cls-10" d="M152.91,399l.09-.45.09-.46c0-.15,0-.3.08-.45"/>
            <path class="cls-10" d="M151.63,404c.05-.15.09-.29.13-.44.41-1.36.76-2.73,1.06-4.11l.09-.46"/>
            <path class="cls-10" d="M151.35,404.94c0-.14.09-.28.13-.42s.1-.3.14-.45"/>
            <path class="cls-10" d="M150.7,406.79c.06-.15.11-.29.16-.44s.11-.31.16-.46.11-.3.16-.46l.15-.44"/>
            <path class="cls-10" d="M150.51,407.3l.09-.24a2.5,2.5,0,0,0,.09-.25"/>
            <path class="cls-10" d="M153.73,393.63h0c0,.06,0,.12.05.19l.06.25v0h0v.07h0l0,.09h0c1.2,5,2,10.3.73,15.25-.33-.76-.67-1.52-1-2.28a14.17,14.17,0,0,1-1.09,3.11c-.18.38-.44.8-.86.84s-.89-.56-.84-1.08a4.66,4.66,0,0,1,.55-1.45,1.48,1.48,0,0,0,0-1.48,1.54,1.54,0,0,1-1.2,1l.18-.46"/>
            <path class="cls-10" d="M153.68,394.12l0-.31h0a.13.13,0,0,1,0-.06.41.41,0,0,1,0-.11h0"/>
            <path class="cls-10" d="M153.68,394.13h0"/>
            <path class="cls-10" d="M153.66,394.25s0,0,0-.05h0a.13.13,0,0,1,0-.06"/>
            <path class="cls-10" d="M153.64,394.45c0-.06,0-.12,0-.18v0"/>
            <path class="cls-10" d="M150.17,408.18l.18-.46.16-.42.09-.24a2.5,2.5,0,0,0,.09-.25v0c.06-.15.11-.29.16-.44s.11-.31.16-.46.11-.3.16-.46l.15-.44,0-.05c0-.14.09-.28.13-.42s.1-.3.14-.45v0c.05-.15.09-.29.13-.44.41-1.37.76-2.75,1.06-4.11l.09-.46h0l.09-.45.09-.46c0-.15,0-.3.08-.45h0c0-.15.05-.3.08-.44s.05-.3.07-.45h0c0-.15.05-.3.07-.45s.05-.29.07-.43a.17.17,0,0,1,0-.07l0-.28,0-.12.06-.45c0-.15,0-.29,0-.44a.2.2,0,0,0,0-.07"/>
            <path class="cls-10" d="M153.64,393.58s0,.08,0,.12"/>
            <path class="cls-10" d="M153.6,393.26a3.11,3.11,0,0,0,0,.32"/>
            <path class="cls-10" d="M153.55,392.81l0,.24a1.23,1.23,0,0,0,0,.19"/>
            <path class="cls-10" d="M153.51,392.36c0,.13,0,.26,0,.39"/>
            <path class="cls-10" d="M153.46,391.85c0,.15,0,.3,0,.45"/>
            <path class="cls-10" d="M153.4,391c0,.11,0,.23,0,.35"/>
            <path class="cls-10" d="M153.37,390.47c0,.1,0,.21,0,.31"/>
            <path class="cls-10" d="M153.33,389.87a.81.81,0,0,1,0,.16c0,.1,0,.2,0,.29"/>
            <path class="cls-10" d="M153.32,389.41v.18"/>
            <path class="cls-10" d="M153.3,388.94a1.48,1.48,0,0,0,0,.21"/>
            <path class="cls-10" d="M153.29,388.48v.23"/>
            <path class="cls-10" d="M153.28,388v.23"/>
            <path class="cls-10" d="M153.28,387.55v.23"/>
            <path class="cls-10" d="M153.28,387.21v.28"/>
            <path class="cls-10" d="M153.28,386.61v.2"/>
            <path class="cls-10" d="M153.31,385.47c0,.15,0,.29,0,.44s0,.29,0,.44"/>
            <path class="cls-10" d="M153.33,385.05c0,.12,0,.24,0,.36"/>
            <path class="cls-10" d="M153.38,384.08c0,.11,0,.23,0,.34s0,.13,0,.19,0,.2,0,.3"/>
            <path class="cls-10" d="M153.41,383.6c0,.13,0,.26,0,.39"/>
            <path class="cls-10" d="M153.45,383.15l0,.35"/>
            <path class="cls-10" d="M153.49,382.68l0,.34"/>
            <path class="cls-10" d="M153.53,382.19l0,.36"/>
            <path class="cls-10" d="M153.6,381.56l0,.24,0,.27"/>
            <path class="cls-10" d="M153.69,380.77c0,.12,0,.23,0,.35"/>
            <path class="cls-10" d="M153.77,380.12c0,.11,0,.22,0,.34"/>
            <path class="cls-10" d="M153.62,393.64l-.05-.09c-2.35-4.73-4.37-9.93-4.24-15.21l1.48,2a14,14,0,0,1,.39-3.28c.09-.41.26-.87.66-1s1,.36,1.06.87a4.8,4.8,0,0,1-.23,1.54,1.48,1.48,0,0,0,.33,1.44,1.5,1.5,0,0,1,1-1.19"/>
            <path class="cls-10" d="M153.65,393.7l0-.06"/>
            <path class="cls-10" d="M153.64,393.59v.11"/>
            <path class="cls-10" d="M154,378.73c-.08.46-.15.93-.22,1.39,0,.11,0,.22,0,.34s0,.2,0,.31,0,.23,0,.35,0,.29-.05.44l0,.24,0,.27s0,.08,0,.12l0,.36a.53.53,0,0,0,0,.13l0,.34a.57.57,0,0,0,0,.13l0,.35v.1c0,.13,0,.26,0,.39a.28.28,0,0,0,0,.09c0,.11,0,.23,0,.34s0,.13,0,.19,0,.2,0,.3v.14c0,.12,0,.24,0,.36v.06c0,.15,0,.29,0,.44s0,.29,0,.44,0,.18,0,.26v1.64a1.77,1.77,0,0,1,0,.23v.23a1.85,1.85,0,0,1,0,.23v.21a2.35,2.35,0,0,0,0,.26v.18a2.53,2.53,0,0,1,0,.28.81.81,0,0,1,0,.16c0,.1,0,.2,0,.29v.15c0,.1,0,.21,0,.31s0,.15,0,.23,0,.23,0,.35,0,.32,0,.49,0,.3,0,.45,0,0,0,.06,0,.26,0,.39v.06l0,.25a1.1,1.1,0,0,0,0,.18v0a3.11,3.11,0,0,0,0,.32"/>
            <path class="cls-10" d="M153.31,393.37l.13.19"/>
            <path class="cls-10" d="M153.08,393.05l.18.25"/>
            <path class="cls-10" d="M152.55,392.29c.08.12.17.24.25.37"/>
            <path class="cls-10" d="M150.7,389.38l.12.2.24.4.12.2.12.19.12.2.12.19.12.19.38.58.12.19a1.27,1.27,0,0,1,.13.19"/>
            <path class="cls-10" d="M150,388.22c.18.33.36.65.55,1"/>
            <path class="cls-10" d="M147.5,383.05c.09.22.18.44.28.66l.1.22.1.22c.23.51.46,1,.71,1.51.35.71.71,1.41,1.09,2.1l.22.41"/>
            <path class="cls-10" d="M147.15,382.21l.06.16.09.23a1.47,1.47,0,0,1,.1.22l.09.22"/>
            <path class="cls-10" d="M146.89,381.55a.58.58,0,0,0,.05.14"/>
            <path class="cls-10" d="M146.75,381.21l.09.22"/>
            <path class="cls-10" d="M153.58,393.75h0c-4.43-3-8.81-6.54-11.32-11.25l2.28,1a14,14,0,0,1-1.27-3,1.26,1.26,0,0,1,.08-1.2.94.94,0,0,1,1.35.24,4.69,4.69,0,0,1,.55,1.45c.17.49.49,1,1,1.09a1.53,1.53,0,0,1,.26-1.51"/>
            <path class="cls-10" d="M153.58,393.75h0"/>
            <path class="cls-10" d="M146.51,380.55l.24.66.09.22a.61.61,0,0,0,0,.12.58.58,0,0,0,.05.14l.21.52.06.16.09.23a1.47,1.47,0,0,1,.1.22l.09.22h0c.09.22.18.44.28.66l.1.22.1.22c.23.51.46,1,.71,1.51.35.71.71,1.41,1.09,2.1l.22.41,0,.05c.18.33.36.65.55,1l.12.2.12.2.24.4.12.2.12.19.12.2.12.19.12.19.38.58.12.19.13.19.26.38c.08.12.17.24.25.37l.28.39.18.25.05.07.13.19.14.18h0"/>
            <path class="cls-10" d="M153.62,393.64s0,.07,0,.11"/>
            <path class="cls-10" d="M153.71,393.39c0,.07-.05.13-.07.19h0"/>
            <path class="cls-10" d="M158,384.36l-.24.41c-.2.34-.4.68-.59,1-.08.14-.16.27-.23.41-.23.42-.45.83-.66,1.25q-1.16,2.25-2.1,4.61c-.11.28-.22.56-.32.85,0,.11-.09.23-.13.34"/>
            <path class="cls-10" d="M158.66,383.33l-.12.21a1.37,1.37,0,0,0-.13.2l-.13.21-.12.2"/>
            <path class="cls-10" d="M159.23,382.46l-.12.18-.13.2-.12.18"/>
            <path class="cls-10" d="M159.73,381.71c0,.07-.09.14-.14.2l-.14.21-.13.2"/>
            <path class="cls-10" d="M159.89,381.47s-.07.1-.1.16"/>
            <path class="cls-10" d="M153.57,393.76h0a1.21,1.21,0,0,0,0-.19c0-.16,0-.33,0-.49h0c0-5.12.61-10.46,3-15l.42,2.46a14.41,14.41,0,0,1,1.82-2.75c.27-.33.63-.67,1-.6s.72.76.56,1.25a4.82,4.82,0,0,1-.9,1.27,1.48,1.48,0,0,0-.35,1.44,1.53,1.53,0,0,1,1.4-.64"/>
            <path class="cls-10" d="M160.57,380.51l-.68,1s-.07.1-.1.16l-.06.08c0,.07-.09.14-.14.2l-.14.21-.13.2-.09.14-.12.18-.13.2-.12.18-.2.31-.12.21a1.37,1.37,0,0,0-.13.2l-.13.21-.12.2-.13.21-.24.41c-.2.34-.4.68-.59,1l-.23.41c-.23.42-.45.83-.66,1.25-.79,1.53-1.48,3.07-2.1,4.61-.11.28-.22.57-.32.85,0,.11-.09.23-.13.34a1.12,1.12,0,0,0,0,.13c0,.07-.05.13-.07.19h0l0,.05h0l0,.11h0"/>
            <path class="cls-10" d="M153.21,394.36l.17-.08"/>
            <path class="cls-10" d="M152.21,394.85l.17-.09"/>
            <path class="cls-10" d="M149.88,395.87c.35-.14.71-.29,1.06-.45l.83-.37.2-.1"/>
            <path class="cls-10" d="M147.94,396.63l.21-.08.44-.16.86-.34.2-.08"/>
            <path class="cls-10" d="M147.28,396.87l.4-.14"/>
            <path class="cls-10" d="M146.83,397l.22-.08"/>
            <path class="cls-10" d="M146.38,397.18l.19-.06"/>
            <path class="cls-10" d="M145.48,397.47l.23-.07.45-.15"/>
            <path class="cls-10" d="M144.87,397.66l.39-.12"/>
            <path class="cls-10" d="M143.68,398l.18-.05"/>
            <path class="cls-10" d="M143.22,398.13l.17-.05"/>
            <path class="cls-10" d="M142.75,398.25l.17,0"/>
            <path class="cls-10" d="M141.07,398.65l.4-.09.46-.11.42-.1"/>
            <path class="cls-10" d="M140.59,398.76l.34-.08"/>
            <path class="cls-10" d="M140.12,398.86l.4-.09"/>
            <path class="cls-10" d="M153.79,394.07l0,.05-.06.07h0l0,0,0,0c-3.6,3.83-7.76,7.49-12.72,9.19l1.37-2.08a14.87,14.87,0,0,1-3.21.77,1.26,1.26,0,0,1-1.17-.28c-.32-.41,0-1,.45-1.29a4.84,4.84,0,0,1,1.52-.31,1.49,1.49,0,0,0,1.24-.82,1.52,1.52,0,0,1-1.46-.49l.46-.09"/>
            <path class="cls-10" d="M153.69,394.12l.1-.05"/>
            <path class="cls-10" d="M139.63,399l.46-.09h0l.4-.09h.07l.34-.08.14,0,.4-.09.46-.11.42-.1.4-.1.17,0,.3-.08.17-.05.29-.08.18-.05,1-.29.39-.12.22-.07.23-.07.45-.15.22-.07.19-.06.26-.09.22-.08.23-.08.4-.14.26-.1.21-.08.44-.16.86-.34.2-.08.23-.1c.36-.14.71-.29,1.06-.45l.83-.37.2-.1.24-.1.17-.09.83-.4.17-.08.08,0,.09-.05.13-.06h0"/>
            <path class="cls-10" d="M152.36,396.28l.18-.25.19-.27"/>
            <path class="cls-10" d="M151.74,397.11l.2-.27.2-.27c.07-.09.13-.18.2-.26"/>
            <path class="cls-10" d="M145.84,403.63a51.37,51.37,0,0,0,3.95-4.13c.23-.26.45-.52.67-.79l.22-.26c.36-.44.71-.89,1-1.34"/>
            <path class="cls-10" d="M145.32,404.11l.51-.47"/>
            <path class="cls-10" d="M144.92,404.47l.33-.29"/>
            <path class="cls-10" d="M153.86,394.11h0v0h0v0h0c-.11.45-.23.9-.34,1.35h0c-1.24,4.73-3,9.48-6.26,13.1.06-.82.11-1.65.17-2.48A15.57,15.57,0,0,1,145,408.4a1.25,1.25,0,0,1-1.15.33.94.94,0,0,1-.25-1.35,5,5,0,0,1,1.17-1,1.49,1.49,0,0,0,.68-1.31,1.53,1.53,0,0,1-1.51.28"/>
            <path class="cls-10" d="M143.94,405.33l1-.86.33-.29.07-.07.51-.47h0a52.77,52.77,0,0,0,3.95-4.13c.23-.26.45-.52.67-.79l.22-.26c.36-.44.71-.89,1-1.34h0l.2-.27.2-.27c.07-.09.13-.18.2-.26l0,0,.18-.25.19-.27c.31-.43.62-.87.91-1.31h0l.19-.29h0v0h0"/>
            <path class="cls-10" d="M152.47,394.11h.32"/>
            <path class="cls-10" d="M151.25,394.08h.34"/>
            <path class="cls-10" d="M145.64,393.56l.45.06.46.06.47.06.46.05.47,0,.46.05.46,0,.46,0,.46,0,.46,0,.46,0,.43,0"/>
            <path class="cls-10" d="M145.17,393.49l.44.06"/>
            <path class="cls-10" d="M144.22,393.33l.46.08.45.07"/>
            <path class="cls-10" d="M142.39,393l.36.07.21,0,.23.05.25.05.23,0,.19,0,.35.06"/>
            <path class="cls-10" d="M141.79,392.85l.25,0,.27.06"/>
            <path class="cls-10" d="M139.93,392.4l.45.12.27.06.26.07.44.1"/>
            <path class="cls-10" d="M153.6,394.22l-.08,0-.31.11h0c-4.82,1.74-10,3.06-15.08,2.38l2.16-1.25a14.78,14.78,0,0,1-3.22-.75c-.39-.14-.84-.35-.92-.76s.46-1,1-1a4.77,4.77,0,0,1,1.5.4,1.5,1.5,0,0,0,1.47-.17,1.54,1.54,0,0,1-1.08-1.1"/>
            <path class="cls-10" d="M153.87,394.12h-.06l-.13.05h0l-.07,0"/>
            <path class="cls-10" d="M153.44,394.12h.43"/>
            <path class="cls-10" d="M152.79,394.12h.65"/>
            <path class="cls-10" d="M139,392.15l.91.25.45.12.27.06.26.07.44.1.44.1.25,0,.27.06.08,0,.36.07.21,0,.23.05.25.05.23,0,.19,0,.35.06h0l.46.08.45.07h0l.44.06h0l.45.06.46.06.47.06.46.05.47,0,.46.05.46,0,.46,0,.46,0,.46,0,.46,0,.43,0h.45l.88,0h.32"/>
            <path class="cls-10" d="M153.55,394.19l0,0"/>
            <path class="cls-10" d="M153.34,394.06l.1.06h0"/>
            <path class="cls-10" d="M152,393.28l.19.11"/>
            <path class="cls-10" d="M151.3,392.83l.34.21"/>
            <path class="cls-10" d="M147.38,390.08l.73.55c.78.59,1.59,1.15,2.4,1.69l.38.25.18.12"/>
            <path class="cls-10" d="M146.11,389.07l.18.15.18.14.36.29.36.29"/>
            <path class="cls-10" d="M145.22,388.32l.18.16.17.15.31.25"/>
            <path class="cls-10" d="M144.87,388l.17.14"/>
            <path class="cls-10" d="M144.34,387.55l.17.16"/>
            <path class="cls-10" d="M143.84,387.1l.15.14.17.15"/>
            <path class="cls-10" d="M142.61,385.93l.17.17c.06.06.12.11.17.17"/>
            <path class="cls-10" d="M153.72,394.28h-.26l-.67-.12h0c-5-.91-10-2.37-14-5.44h2.49a15.1,15.1,0,0,1-2.41-2.25,1.27,1.27,0,0,1-.41-1.13c.17-.49.87-.58,1.33-.34a5,5,0,0,1,1.1,1.1,1.47,1.47,0,0,0,1.36.58,1.5,1.5,0,0,1-.39-1.48"/>
            <path class="cls-10" d="M141.84,385.16l.77.77.17.17c.06.06.12.11.17.17l.89.83.15.14.17.15.18.16.17.16.36.32.17.14.18.15.18.16.17.15.31.25.23.19.18.15.18.14.36.29.36.29.19.14.73.55c.79.59,1.59,1.15,2.4,1.69l.38.25.18.12.23.14.34.21.37.24.19.11c.38.23.76.46,1.14.67l.1.06h0l.11.07,0,0h0l0,0h0l.06,0"/>
          </g>
        </g>
      </g>
      <g>
        <g>
          <path class="cls-5" d="M149.16,462.55a31,31,0,0,1-27.36,12.54l1.71-.43-24.25,3.2,1.16-.87c-5.83-.06-11.31-2.56-16.75-4.65s-11.41-3.81-17-2.27a10.32,10.32,0,0,0,6.9-3.32,56.12,56.12,0,0,1,27.21-4.59L97.41,461a210.88,210.88,0,0,1,25.7-2.36l-1.55-1.05a33.61,33.61,0,0,1,28,4"/>
          <path class="cls-12" d="M148.1,462.75a28.91,28.91,0,0,1-25.59,11.92l-.63.72,1.71-.43c.51-.12,1.56-.86.39-.7l-24.25,3.19.49.31,1.16-.87c.29-.21-.08-.31-.26-.31-6.28-.14-12-3-17.74-5.08-5.44-2-11.1-3.2-16.83-1.73-.51.13-1.57.8-.39.7a13.41,13.41,0,0,0,6.72-2.39c.54-.39,1-.89,1.51-1.27a9.41,9.41,0,0,1,2.2-1c1.52-.58,3.07-1.09,4.63-1.52A54.3,54.3,0,0,1,100,462.57a2.74,2.74,0,0,0,1.31-.3c.06,0,.69-.37.41-.47l-3.34-1.18-1.22.72a210.85,210.85,0,0,1,25.21-2.3c.18,0,2.13-.49,1.72-.77l-1.56-1-.93.65a32.57,32.57,0,0,1,26.93,4.06c.49.32,2.27-.56,2-.72a35.11,35.11,0,0,0-29.12-3.94c-.06,0-1.28.43-.93.66L122.1,459l1.72-.77a219,219,0,0,0-26.2,2.4c-.11,0-1.59.59-1.22.72l3.33,1.18,1.71-.77a59.54,59.54,0,0,0-26.45,4,13.89,13.89,0,0,0-2.07.86,8.44,8.44,0,0,0-1.2,1,7.86,7.86,0,0,1-4.61,2l-.4.71c5.94-1.53,12.15.84,17.62,3,5,1.95,10,3.94,15.38,4.06l-.26-.32-1.16.86c-.4.3.36.33.49.31L123,475.07l.39-.71-1.71.42c-.3.08-1.55.64-.62.72a33.21,33.21,0,0,0,29.12-13.15c.21-.29-.79-.18-.85-.16a2.06,2.06,0,0,0-1.27.56Z"/>
        </g>
        <g>
          <path class="cls-5" d="M123.58,474.7l6.45-2.87"/>
          <path class="cls-12" d="M123.63,474.75l6.45-2.87c.16-.07,0-.14-.1-.09l-6.45,2.87c-.16.07,0,.14.1.09Z"/>
        </g>
        <g>
          <path class="cls-5" d="M101,477.19l6.18-3.73"/>
          <path class="cls-12" d="M101.11,477.23l6.18-3.74c.14-.09-.08-.11-.16-.06L101,477.16c-.14.09.08.11.16.07Z"/>
        </g>
        <g>
          <path class="cls-5" d="M101.65,462.24l4.42-.08"/>
          <path class="cls-12" d="M101.63,462.32l4.43-.07c.14,0,.2-.17,0-.17l-4.42.07c-.14,0-.2.17,0,.17Z"/>
        </g>
        <g>
          <path class="cls-5" d="M124.3,458.67a9.8,9.8,0,0,1,5.29,1.09"/>
          <path class="cls-12" d="M124.29,458.76a9.76,9.76,0,0,1,5.2,1.06c.09.05.32-.07.2-.13a10,10,0,0,0-5.37-1.1c-.14,0-.21.18,0,.17Z"/>
        </g>
        <path class="cls-12" d="M83.43,469a86.72,86.72,0,0,0,21.72-.33c7.19-.92,14.31-2.39,21.45-3.84a207.34,207.34,0,0,1,21.68-3.49,69.89,69.89,0,0,1,21.89,1.05,89.15,89.15,0,0,0-21.72.5c-7.19,1-14.3,2.45-21.45,3.9a199,199,0,0,1-21.69,3.43A68.66,68.66,0,0,1,83.43,469Z"/>
      </g>
    </g>
  </g>
</svg>
