<svg xmlns="http://www.w3.org/2000/svg" viewBox="0 0 262.13 235.4">
  <defs>
    <style>
      .cls-1 {
        fill: #f58220;
      }

      .cls-2 {
        fill: #2b517e;
      }

      .cls-3 {
        fill: none;
        stroke: #231f20;
        stroke-miterlimit: 10;
        stroke-width: 4px;
      }

      .cls-4 {
        fill: #fff;
      }
    </style>
  </defs>
  <title>Asset 1qr</title>
  <g id="Layer_2" data-name="Layer 2">
    <g id="Layer_1-2" data-name="Layer 1">
      <g>
        <g>
          <path class="cls-1" d="M168.14,166a141,141,0,0,0-95.5-10.66C80.1,125.63,83.13,100.48,80.87,70l89.83-1.48c3,0,6.48.07,8.5,2.34s1.7,5.73,1.27,8.74Z"/>
          <path class="cls-2" d="M175.28,9.93c48.55,14.6,88.19,62,84.62,112.52-2.23,31.56-20.38,60.67-45,80.49-40.41,32.48-100,40.42-146.13,16.82S-6.12,141,4,90.14C8.26,69.05,19.36,49.73,34.59,34.58,59.28,19,87.62,8.29,116.4,5.07A147.06,147.06,0,0,1,175.28,9.93Zm27.44,156c14-16.84,22.2-39.33,18.48-60.9-3.68-21.34-18.55-39.53-36.57-51.55-26-17.36-48.18-24.78-89.83-15.85C57.82,53.09,33.22,88,38.15,123.47s33.34,66.14,68.05,74.77S179.87,193.5,202.72,166Z"/>
        </g>
        <g>
          <path class="cls-3" d="M94.8,37.68C57.82,53.09,33.22,88,38.15,123.47s33.34,66.14,68.05,74.77,73.67-4.74,96.52-32.26c14-16.84,22.2-39.33,18.48-60.9-3.68-21.34-18.55-39.53-36.57-51.55C158.6,36.17,136.45,28.75,94.8,37.68Z"/>
          <path class="cls-3" d="M116.06,2.21c-30.26-2-60,11-81.47,32.37C19.36,49.73,8.26,69.05,4,90.14c-10.16,50.83,18.54,106,64.7,129.62s105.72,15.66,146.13-16.82c24.65-19.82,42.8-48.93,45-80.49,3.57-50.57-36.07-97.92-84.62-112.52A147.06,147.06,0,0,0,116.4,5.07C87.62,8.29,59.28,19,34.59,34.58q-2,1.28-4,2.59"/>
          <path class="cls-3" d="M80.87,70l-7,.11"/>
          <path class="cls-3" d="M80.87,70c2.26,30.51-.77,55.66-8.23,85.33A141,141,0,0,1,168.14,166l12.33-86.39c.43-3,.74-6.46-1.27-8.74s-5.46-2.39-8.5-2.34Z"/>
          <line class="cls-3" x1="80.87" y1="69.96" x2="80.87" y2="69.97"/>
        </g>
      </g>
      <path class="cls-1" d="M30.24,166.72a14.22,14.22,0,0,0,11.39-4.46c1.25-1.33-1.52-1.84-2.43-.88a10,10,0,0,1-8,3.21c-1.42-.08-2.95,2-1,2.13Z"/>
      <path class="cls-1" d="M26.84,162.26a11.4,11.4,0,0,0,6.56,11.51c.76.35,3-.84,2.73-1a11.13,11.13,0,0,1-6.39-11.3c0-.36-2.81-.09-2.9.78Z"/>
      <path class="cls-1" d="M21.36,158.42l16.84-3.64c1.82-.39,1.25-2.46-.56-2.07L20.8,156.34c-1.83.4-1.25,2.47.56,2.08Z"/>
      <path class="cls-1" d="M32.88,155.57c-1.36-.6-3.06-1.34-3.59-2.85a2.94,2.94,0,0,1,.15-1.92,1.28,1.28,0,0,1,.3-.43l-.65.23a6.72,6.72,0,0,1,.85.47,11.36,11.36,0,0,0,2.55,1.83,4,4,0,0,0,3.19-.46c.43-.24.82-.66.29-1s-1.58.05-2,.31c1,0,1.18-.08.66-.24a3.39,3.39,0,0,1-.5-.34c-.25-.18-.47-.39-.71-.59a7.65,7.65,0,0,0-1.69-1.18,4.31,4.31,0,0,0-4.23.63,3.24,3.24,0,0,0-.95,3.76c.74,1.6,2.52,2.41,4,3.08.77.34,3.42-.82,2.34-1.3Z"/>
      <path class="cls-1" d="M27.45,143c-.14-3.18-.87-7.24-4.81-7.43-2.34-.11-5.2,1.14-5.2,3.8,0,3.23,3.44,4.08,6,3.63,3.64-.63,6-3,7.84-6.06.16-.26-2.42-.17-2.85.53-1.08,1.77-2.76,4.7-5.18,4.53a3.38,3.38,0,0,1-2.95-3.62,3.09,3.09,0,0,1,.29-1.11c.22-.43.75-.58.21-.57a3.6,3.6,0,0,1,2.28,1.44c1.26,1.56,1.33,3.73,1.42,5.64,0,.42,2.93,0,2.9-.78Z"/>
      <path class="cls-1" d="M16.8,127.89c2.35,1.17,6,1.51,7.83-.84,1.72-2.19.15-4.82-2.39-5-.51,0-3,.93-1.71,1.55A30.64,30.64,0,0,1,34,136.41c.56,1,3.36.05,2.9-.77A32,32,0,0,0,22.84,122.2l-1.71,1.55c1.11.07,3.53,5.5-2,2.72-.86-.43-3.51.82-2.3,1.42Z"/>
      <path class="cls-1" d="M26.09,82.58c-2.51-2.89-9.41-1-8.5,3.39.48,2.33,2.7,2.83,4.75,3,1.23.1,2.88-.08,3.87.82,1.89,1.69-.18,4-1.6,5.13l2.76-.5.24-1.89c0-.34-2.79-.1-2.9.78l-.24,1.89c-.08.64,2.55-.34,2.76-.5,1.37-1.06,3.1-2.78,2.5-4.69-.46-1.47-1.91-1.88-3.28-2.06-1.67-.21-3.83.12-5.15-1.15-1.89-1.81-.39-6.06,2.06-3.24.46.54,3.17-.48,2.73-1Z"/>
      <path class="cls-1" d="M33.68,83.94c2.77-1.38,4.74-5.58,1.32-7.62C32.77,75,28.84,76,27.24,77.91c-2.54,3,.29,5.74,3.51,5,5.3-1.28,4.43-6,2.17-9.87l-2.64.94c6.25,1.09,13.14-3.6,10.28-10.49l-2.82.88a21.25,21.25,0,0,0,4,1.1c.67.12,3.14-1,2.39-1.1a14.14,14.14,0,0,1-3.66-1c-.38-.15-3.1.18-2.82.87,1.46,3.51.4,9.55-5,8.61-.32-.06-3,.37-2.64.94.85,1.46,1.93,3.12,2,4.87.13,3.48-3.85,2.73-2.38-.17,2.06-4,6.88,2.86,2.37,5.12-1.71.85,1,.68,1.66.34Z"/>
      <path class="cls-1" d="M32.25,56h.52a2.2,2.2,0,0,0,1.9-.82c.34-.59-.29-1-.82-1h-.51a2.19,2.19,0,0,0-1.9.83c-.34.58.29,1,.81,1Z"/>
      <path class="cls-1" d="M51.57,59.55c2.73-.78,5.52-2.89,5.08-6.13-.41-3.07-3.56-4.87-6.45-4.45-2.7.4-5.75,2.83-5.41,5.86.29,2.48,2.84,3.33,4.81,2,3.23-2.27,2.25-9.36,2.06-12.68-.16-2.89,0-9.38-4.1-9.87a3.32,3.32,0,0,0-3.7,4.19c.88,4.37,6.08,7.06,10,7.92,1,.24,3.42-1.33,1.73-1.71A12.49,12.49,0,0,1,48,40l-1.1-1.87c.7-.55,1-.47,1.05.26a13.87,13.87,0,0,1,.65,3.92,46.52,46.52,0,0,1,.07,9.14c-.06.85-.16,1.69-.28,2.54l-.54-.85L53,52.31c1.4,2.39.76,4.25-1.9,5.6-1.74.5-1.32,2.15.44,1.64Z"/>
      <path class="cls-1" d="M81.63,25.19c.31-.92,0-1.38-.94-1.66-.47-.14-2.5.18-2.62.81a14.92,14.92,0,0,0,1.79,10.75c.4.68,3.1-.43,2.9-.77a14.71,14.71,0,0,1-1.84-10.51l-2.62.81.48,1.1c-.15.48,2.62.19,2.85-.53Z"/>
      <path class="cls-1" d="M106.33,18.16,107.39,16c.09-.17-.1-.27-.24-.3-2.86-.49-7,1.06-7.35,4.34-.4,3.69,3.92,4.89,6.72,4,.23-.06,1.49-.41,1.34-.82s-1.33-.13-1.57-.05c-1.39.42-3-1.31-3.43-2.43s.11-4.27,1.91-3.95l-.24-.3-1.06,2.11c-.2.4,2.49.23,2.86-.51Z"/>
      <path class="cls-1" d="M114.69,22c1.86,2.57,5.65,2.22,7.9.41.24-.19.42-.57.18-.83-1.67-1.76-3.51-3.46-6.06-3.6-2-.11-4.33.73-5.17,2.69-1.8,4.18,5.06,5.12,6.3,1.59.36-1-2.55-.66-2.9.34-.32,0-.53-.12-.62-.48a1.76,1.76,0,0,1-.13-1c.14-1.24,1.28-1.63,2.38-1.22a10.19,10.19,0,0,1,3.51,2.82l.17-.84c-1,.8-2.3-.25-2.87-1S114,21,114.69,22Z"/>
      <path class="cls-1" d="M126.15,18.76a4.74,4.74,0,0,0-2,4.77c.14.87,2.24,0,2.59-.23,2.72-2,7.73.48,10.85.3A8.47,8.47,0,0,0,143,21.43c1.17-1.1-1.67-.89-2.28-.32-1,.9-3.47,1.05-4.74.84-.59-.1-1.18-.24-1.77-.36a19.14,19.14,0,0,0-4.2-.5A9.24,9.24,0,0,0,124.47,23l2.59-.23a3.39,3.39,0,0,1,1.37-3.67c1.24-1-1.64-.82-2.28-.32Z"/>
      <path class="cls-1" d="M148.61,11.64a14.12,14.12,0,0,0-6.85,13.29c.05.59,3,.06,2.9-.78a13.08,13.08,0,0,1,6.19-12.36c1.22-.75-1.67-.49-2.24-.15Z"/>
      <path class="cls-1" d="M154.3,28.12c2,.48,4.35.83,5.89-.91,1.41-1.58.63-3.3-1.14-4.14-4.55-2.19-10.12,1.36-12.19,5.33-.64,1.25,1.38,1.27,2,1A51.83,51.83,0,0,0,169,15c1-1.21-1-1.7-1.85-1.26-6,3.09-9.27,8.85-10.2,15.41-.21,1.45,2.75,1.06,2.93-.23.8-5.57,3.36-10.82,8.55-13.5l-1.85-1.26a48.66,48.66,0,0,1-18.93,13.57l2,1a6.68,6.68,0,0,1,2.28-2.82c1.51-1.52,2.86-1.42,4.07.28-1.23-.29-3.43,1.53-1.68,1.94Z"/>
      <path class="cls-1" d="M184,26.94c-4.74,2.42-11.61,9.49-6.39,14.8,3.09,3.16,9.7,1.25,9.79-3.41,0-.2-.42-.29-.53-.31l-7.61-1.25c-.78-.13-3.37,1.13-1.82,1.39l3.26.54c.43.07,3,.24,3.26.54,1.45,1.46-1.45,2.79-2.82,2.08a4.5,4.5,0,0,1-2-2.48c-1.82-4.79,2.7-9.28,6.57-11.26,1.72-.88-.91-1.06-1.74-.64Z"/>
      <path class="cls-1" d="M185.37,42.1c1.44,2.48,3.38,4.68,6.5,4.27,2-.26,5.56-1.92,4.2-4.5-1.13-2.12-4.37-1.89-6.21-1-2.84,1.3-3.25,4.53-2.43,7.25.23.76,3.12,0,2.9-.78a6.73,6.73,0,0,1-.11-4.23c.26-.75.67-1.6,1.53-1.45a2.27,2.27,0,0,1,1.36,1c.82,1.27-.07,3-1.62,2.26a8.1,8.1,0,0,1-3.23-3.52c-.46-.78-3.19.27-2.89.78Z"/>
      <path class="cls-1" d="M217.81,60.05c-2.05-6.31-11.29-5.2-12.85.85-.17.66.89.78,1.28.73l9.46-1.11-1-1.2-4.53,5.05c-1.16,1.3,1.64,1.42,2.36.61l4.53-5.05c.73-.81-.22-1.29-1-1.2l-9.46,1.12,1.28.73c1.1-4.25,5.84-3.47,7,.24.36,1.13,3.25.32,2.89-.77Z"/>
      <path class="cls-1" d="M221.14,67.6l-5-.4c-.31,0-3,.74-2.28,1.16l5.75,3.34,2.54-1.11c-3.42-.73-8.07,2-4.87,5.73.92,1.08,1.9,1.15,3.11,1.73,1.47.69,1.37-.26,2.59,1.43.42.57.4,1.71.81,2.39,1.41,2.32,3.73,3,6.26,2.91l.47-1.17a10,10,0,0,0-3.41,1.58A35.79,35.79,0,0,0,224.53,88c-1.48,1.37-7,4.43-5.1-.64l-2.62.84a48.47,48.47,0,0,1,18.08,9c2.25,1.79,4.49,3.89,7.43,2.15,2.17-1.29,1.72-3.53-.92-3.94-4-.61-9.38,3.9-12.5,5.6-1.69.92.94.93,1.7.51,1.3-.7,7.39-2.93,7.81-4.26.26-.85-3.94-3.47-5.29-4.32a49.25,49.25,0,0,0-14-6c-.66-.18-2.33.07-2.61.83-1.13,3,1.81,4.64,4.52,4.23,4.67-.7,5.66-6.12,9.75-7.35.74-.23,2.09-1.24.47-1.18-3.51.15-5.52-2.93-5.3-6,0-.18-.45-.25-.53-.25a9.85,9.85,0,0,1-5.05-1.45,2.64,2.64,0,0,1-.6-4c.45.1,3.23-.71,2.54-1.11l-5.75-3.34-2.29,1.16,5,.4c.7,0,3.33-1.17,1.85-1.29Z"/>
      <path class="cls-1" d="M233.55,94.59a30.77,30.77,0,0,0-1,10.46c.08,1.15,3,.5,2.9-.77a29.4,29.4,0,0,1,1-10c.34-1.23-2.61-.86-2.92.28Z"/>
      <path class="cls-1" d="M246,112.83a18,18,0,0,0-9.44-3.32l-.67,1.95c1.4-.25-1.07,2.37-1.19,2.45a10.51,10.51,0,0,1-1.83.54,5.92,5.92,0,0,0-3.06,2.25,2.61,2.61,0,0,0-.06,2.78,3.74,3.74,0,0,0,1.08,1.09c1,.77,2.49,1.92,3.46,2.5-1-.59-3.59.79-2.26,1.58a3.1,3.1,0,0,0,4.33-1.35,2.44,2.44,0,0,0-.75-2.61,17.26,17.26,0,0,0-1.52-1.06c-.82-.24-1.11-.83-.86-1.78-.61-1.24-.2-1.89,1.22-1.94,1.85-.64,4.62-1.25,4.83-3.66a2.52,2.52,0,0,0-3.09-2.74c-1,.18-2.6,1.82-.67,1.95a15.65,15.65,0,0,1,8.22,3c1,.68,3.54-.67,2.26-1.58Z"/>
      <path class="cls-1" d="M243.05,122c1.63,0,2.24-2.07.27-2.07-1.64,0-2.25,2.07-.27,2.07Z"/>
      <path class="cls-1" d="M227,125.62l3.54,3.14c.66.58,3.34-.49,2.71-1.06a8.68,8.68,0,0,0-4.42-2.13c-.38-.06-3,.71-2.27,1.23a3.2,3.2,0,0,1,1.51,2.32c.1.87-.3,2.65-1.47,2.5a2.77,2.77,0,0,0-2.05.55c-.39.38-.42.76.22.84a6.09,6.09,0,0,0,5.57-2.14,3.65,3.65,0,0,0-1.07-5.14L227,127a6.94,6.94,0,0,1,3.54,1.8l2.71-1.06-3.54-3.14c-.67-.59-3.34.5-2.71,1.06Z"/>
      <path class="cls-1" d="M233.89,146.52a6.64,6.64,0,0,0,7.15-1.78c2.15-2.61.25-5.77-2.8-6.33-1.31-.23-5.3.11-5.21,2.17,0,1,.88.77,1.26,1.35a3.14,3.14,0,0,0,1,.36,3.24,3.24,0,0,1-3.13,3.29c-1.49.56-4.85,1.72-6.39,1.54-5.73-.66-2.78-4.9.76-3.36.72.31,3.36-.8,2.35-1.24-2.57-1.11-6.45-1.53-8.45,1-2.82,3.59,1.86,5.09,4.62,4.9,3.74-.25,10.09-1.65,12.92-4.32,1.06-1,1.18-1.33.53-2.62l-.86-.44q-1.87-2.16.45-.34c.73,1.29,1.8,5.94-1.89,4.57-.73-.28-3.35.86-2.35,1.23Z"/>
      <path class="cls-4" d="M84.62,78.45l1.16,3.66c.27.88.53,3,1.15,3.66.93,1,3.26,1.29,4.55,1.45,2.64.33,5.81-.35,7.47-2.61,1.94-2.63.12-5.82-2.67-6.84-3.13-1.14-6.58.27-9.22,1.94-1.66,1,.86,1.46,1.8.86,2-1.27,4.68-2.35,6.71-.46,1.45,1.35,1.92,3.89,0,5.09a5.07,5.07,0,0,1-3.9.13,3.55,3.55,0,0,1-2.39-2.17,39.77,39.77,0,0,1-1.73-5.49c-.32-1-3.21-.21-2.9.78Z"/>
      <path class="cls-4" d="M81.4,139.58,79.63,145c-.12.35.29.49.54.55a24,24,0,0,0,12-.38c.49-.14,1.29-.44,1.27-1.06l-.15-5.92c0-.33-.67-.38-.87-.38l-8.5.05c-1,0-3.1,1.55-1.16,1.54l8.5,0L90.4,139l.15,5.92,1.27-1.05A19.34,19.34,0,0,1,82,144l.54.55,1.78-5.4c.3-.9-2.58-.53-2.89.39Z"/>
      <path class="cls-4" d="M153.46,149.78c-.49,1.65-.43,4,1.1,5.06a26.9,26.9,0,0,0,3.51,1.67l3.79,1.8a2.09,2.09,0,0,0,2.51-.67,8.93,8.93,0,0,0,.11-7.86c-.25-.5-.78-.53-1.28-.52l-8.2.24c-1.53.05-2.33,1.88-.33,1.82l8.19-.24-1.28-.52a7.81,7.81,0,0,1,.06,6.91l2.5-.67-5.55-2.64c-1-.47-2-.8-2.33-2a4.64,4.64,0,0,1,.11-2.71c.35-1.17-2.58-.79-2.91.3Z"/>
      <path class="cls-4" d="M161.08,78.1c-1.57,3.61,1.27,7.08,5,6.93A7.34,7.34,0,0,0,171,83.14c.72-.77.45-1.89.48-2.9l.11-4a.36.36,0,0,0-.27-.22,14.37,14.37,0,0,0-7.79.66c-.35.13-1.15.48-.84.94s1.57,0,1.89-.1a7.36,7.36,0,0,1,2.75-.46c1.31,0,1.34.54,1.31,1.67,0,1.28.51,4.6-1.08,5-3.22.7-4.57-3.77-3.58-6,.27-.62-2.52-.35-2.88.46Z"/>
      <path class="cls-4" d="M102.33,76.46v1c0,.72,2.9.23,2.9-.78v-1c0-.72-2.9-.23-2.9.78Z"/>
      <path class="cls-4" d="M109,76.46V78c0,.52,2.89.09,2.89-.78V75.68c0-.52-2.89-.1-2.89.78Z"/>
      <path class="cls-4" d="M125.17,76.38c1.09,0,3.08-1.64,1.13-1.64-1.09,0-3.08,1.64-1.13,1.64Z"/>
      <path class="cls-4" d="M135.31,79.16c1.64,0,2.23-2.1.26-2.1-1.65,0-2.23,2.1-.26,2.1Z"/>
      <path class="cls-4" d="M139.35,76.74l-.51.51a.72.72,0,0,0,.34,1.25,2.16,2.16,0,0,0,2-.55l.52-.51a.72.72,0,0,0-.34-1.25,2.16,2.16,0,0,0-2.05.55Z"/>
      <path class="cls-4" d="M152.91,75.46a2.41,2.41,0,0,0-2,1.18,1.48,1.48,0,0,0,.07,1.57c.75,1.17,3.49,0,2.64-1.31.3.46-1,.8-1,.79.66-.08,1.52-.45,1.59-1.21s-.75-1.1-1.36-1Z"/>
      <path class="cls-4" d="M139.61,92.62l-.51,1.53c-.19.58.93.51,1.21.47.51-.07,1.48-.32,1.67-.89l.51-1.54c.2-.57-.93-.51-1.21-.46-.5.07-1.47.32-1.67.89Z"/>
      <path class="cls-4" d="M128.3,86,127.79,89c-.18,1.09,2.74.6,2.9-.37l.51-3.07c.18-1.09-2.74-.59-2.9.38Z"/>
      <path class="cls-4" d="M121.14,84.86l-.5,1.54c-.22.67.88.89,1.31.83a1.8,1.8,0,0,0,1.61-1.1l.5-1.54c.22-.67-.88-.89-1.31-.84a1.79,1.79,0,0,0-1.61,1.11Z"/>
      <path class="cls-4" d="M118.89,84.78l-.51.51a.94.94,0,0,0,.4,1.51,2,2,0,0,0,2-.55l.51-.51a.94.94,0,0,0-.4-1.51,2,2,0,0,0-2,.55Z"/>
      <path class="cls-4" d="M121.46,92l-.51.51a.8.8,0,0,0,.37,1.36,2.05,2.05,0,0,0,2.05-.54l.51-.52a.8.8,0,0,0-.37-1.36,2.08,2.08,0,0,0-2.05.55Z"/>
      <path class="cls-4" d="M126.35,93.18l-.51,2c-.13.49.92.31,1.15.27a4.34,4.34,0,0,0,1.11-.35c.17-.08.54-.23.59-.44l.52-2c.12-.49-.93-.31-1.16-.27a4.34,4.34,0,0,0-1.11.35c-.17.08-.54.23-.59.44Z"/>
      <path class="cls-4" d="M126.84,97.9v.51c0,.22.42.33.55.35a2.58,2.58,0,0,0,1.07-.08c.5-.13,1.28-.43,1.28-1v-.51c0-.22-.42-.33-.55-.35a2.63,2.63,0,0,0-1.08.08c-.5.13-1.27.43-1.27,1Z"/>
      <path class="cls-4" d="M118.15,102.66c.57,0,3.25-1.1,1.9-1.1-.58,0-3.26,1.1-1.9,1.1Z"/>
      <path class="cls-4" d="M113.8,96.57l-.51.51a.86.86,0,0,0,.38,1.42,2,2,0,0,0,2-.55l.51-.51a.86.86,0,0,0-.39-1.42,2,2,0,0,0-2,.55Z"/>
      <path class="cls-4" d="M109.48,88.71v.51c0,.61,2.89.16,2.89-.77v-.51c0-.62-2.89-.16-2.89.77Z"/>
      <path class="cls-4" d="M107.67,85.36l-.51.51a.82.82,0,0,0,.37,1.37,2.06,2.06,0,0,0,2-.55l.51-.51a.81.81,0,0,0-.37-1.37,2.06,2.06,0,0,0-2,.55Z"/>
      <path class="cls-4" d="M98.23,86.42V89c0,.68.73.85,1.3.8s1.62-.42,1.62-1.09V86.14c0-.69-.72-.86-1.3-.8s-1.62.41-1.62,1.08Z"/>
      <path class="cls-4" d="M95.22,95.42h-.51c-.63,0-1.52.49-1.59,1.18s.77,1,1.34,1H95c.63,0,1.52-.49,1.59-1.18s-.76-1-1.34-1Z"/>
      <path class="cls-4" d="M88.76,98.3a1.85,1.85,0,0,0-.77,1.89,1.72,1.72,0,0,0,1.35,1.35,3.19,3.19,0,0,0,2-.34c.24-.12,1-.73.33-.86a1.05,1.05,0,0,1-.79-.82,1.42,1.42,0,0,1,0-.58,1,1,0,0,1,.08-.29s.17-.23.07-.15c.43-.34.38-.69-.2-.75a3.19,3.19,0,0,0-2,.55Z"/>
      <path class="cls-4" d="M99.18,103l0,2.55c0,.56,2.9.11,2.9-.77l0-2.56c0-.55-2.9-.11-2.9.78Z"/>
      <path class="cls-4" d="M104.37,103.52v4.09c0,.87,2.9.33,2.9-.78v-4.09c0-.87-2.9-.33-2.9.78Z"/>
      <path class="cls-4" d="M117,120.22l1-3.06c.15-.45-1-.24-1.14-.21-.38.07-1.56.28-1.71.75l-1,3.06c-.15.46,1,.25,1.14.21.37-.07,1.55-.28,1.71-.75Z"/>
      <path class="cls-4" d="M121.26,115.77l-.52,1c-.31.62.28,1,.84,1a2,2,0,0,0,1.9-.84l.52-1c.31-.62-.28-1-.84-1a2,2,0,0,0-1.9.84Z"/>
      <path class="cls-4" d="M123.77,118.84v.51c0,.4,2.9,0,2.9-.78v-.51c0-.4-2.9,0-2.9.78Z"/>
      <path class="cls-4" d="M128.26,118.86c1.22,0,3-1.84,1.08-1.84-1.22,0-3,1.84-1.08,1.84Z"/>
      <path class="cls-4" d="M149.81,91.56v5.1c0,1.26,2.91.67,2.91-.34v-5.1c0-1.26-2.91-.67-2.91.34Z"/>
      <path class="cls-4" d="M157.52,92.8l-.52,1c-.31.61.28,1,.83,1a2.1,2.1,0,0,0,1.9-.84l.52-1c.31-.61-.28-1-.83-1a2.09,2.09,0,0,0-1.9.83Z"/>
      <path class="cls-4" d="M160.41,91.73c1.13,0,3.06-1.71,1.11-1.71-1.13,0-3.06,1.71-1.11,1.71Z"/>
      <path class="cls-4" d="M162.68,91.42l.51.51c.66.66,3.39-.41,2.7-1.09l-.51-.51c-.65-.65-3.38.41-2.7,1.09Z"/>
      <path class="cls-4" d="M167.7,97.72l-.51,6.64c-.08,1,2.81.43,2.88-.42l.51-6.64c.08-1-2.82-.43-2.88.42Z"/>
      <path class="cls-4" d="M159,106.29l-.37,5.56c0,.47.27.71.65.92,4,2.14,9.23-1.31,8.28-5.91-.15-.74-1.17-.78-1.73-.66a4.26,4.26,0,0,1-3-.51c-1.25-.65-3.31,1.18-1.66,2a7.54,7.54,0,0,0,5.22.57l-1.73-.66c.5,2.4-1.46,4.31-3.73,3.11l.65.92.36-5.56c.1-1.56-2.85-1.19-2.94.19Z"/>
      <path class="cls-4" d="M126.84,108.12l.16,2.52c0,.51.94.67,1.31.61l2.51-.43a10,10,0,0,0,2.51-.51,2.75,2.75,0,0,0,1.24-2.85,4.11,4.11,0,0,0-4.64-3.45c-.6.09-1.52.41-1.6,1.13s.78.94,1.31.86c1.63-.23,2.42,2.24,1.69,3.39l1.53-.87-4.26.74,1.3.6-.16-2.52c-.08-1.22-3-.55-2.9.78Z"/>
      <path class="cls-4" d="M136.41,135.2l.47,3.84c.05.36.63.44.89.45,3.59.14,7.5-2.88,6.64-6.77,0-.24-.36-.36-.56-.41l-2.39-.52a2.42,2.42,0,0,0-2.05.55c-.43.42-.34.9.28,1l2.39.53-.57-.41c.37,1.64-.58,4.4-2.62,4.32l.89.45-.47-3.85c-.12-1-3-.33-2.9.78Z"/>
      <path class="cls-4" d="M155.43,130h-.51a2.62,2.62,0,0,0-1.92.75c-.42.53.36.68.74.68h.51a2.62,2.62,0,0,0,1.92-.75c.42-.53-.36-.68-.74-.68Z"/>
      <path class="cls-4" d="M154.78,138v1c0,.66.73.78,1.28.72s1.63-.4,1.63-1v-1c0-.67-.74-.78-1.28-.73s-1.63.4-1.63,1Z"/>
      <path class="cls-4" d="M159,131.61v.51c0,.59,2.9.14,2.9-.78v-.51c0-.6-2.9-.15-2.9.78Z"/>
      <path class="cls-4" d="M160.39,136.07c1,0,3.1-1.53,1.16-1.53-1,0-3.1,1.53-1.16,1.53Z"/>
      <path class="cls-4" d="M163,136.6c1,0,3.09-1.57,1.15-1.57-1,0-3.1,1.57-1.15,1.57Z"/>
      <path class="cls-4" d="M162.37,140.21l-.51.51c-.41.4-.36.83.25.95a2.61,2.61,0,0,0,2-.55l.51-.51c.41-.4.36-.84-.25-1a2.61,2.61,0,0,0-2,.55Z"/>
      <path class="cls-4" d="M162.44,146.81c1,0,3.09-1.57,1.14-1.57-1,0-3.09,1.57-1.14,1.57Z"/>
      <path class="cls-4" d="M155.91,119.67h-.51a2.36,2.36,0,0,0-1.91.79c-.37.57.32.86.79.86h.51a2.34,2.34,0,0,0,1.91-.8c.37-.56-.31-.85-.79-.85Z"/>
      <path class="cls-4" d="M153.71,118.05c1.71,0,2.18-2.27.22-2.27-1.71,0-2.18,2.27-.22,2.27Z"/>
      <path class="cls-4" d="M155.82,115.72c1.12,0,3.06-1.69,1.11-1.69-1.13,0-3.06,1.69-1.11,1.69Z"/>
      <path class="cls-4" d="M159.89,116.69c1.05,0,3.08-1.59,1.14-1.59-1.06,0-3.09,1.59-1.14,1.59Z"/>
      <path class="cls-4" d="M142.14,113l-.51,3.07c-.22,1.36,2.73,1,2.93-.26l.51-3.07c.23-1.36-2.72-1-2.93.26Z"/>
      <path class="cls-4" d="M143.69,121.9v1c0,.75,2.9.25,2.9-.77v-1c0-.74-2.9-.25-2.9.77Z"/>
      <path class="cls-4" d="M145.08,122.46l1,3.06c.23.66,1.13.68,1.7.53s1.43-.65,1.2-1.31l-1.05-3c-.22-.66-1.13-.68-1.69-.53s-1.43.64-1.2,1.3Z"/>
      <path class="cls-4" d="M98.47,107.83l3.58,1a3.34,3.34,0,0,0,2-.39c.27-.12,1-.52.37-.69l-3.57-1a3.36,3.36,0,0,0-2,.38c-.26.12-1,.52-.37.69Z"/>
      <path class="cls-4" d="M100.43,103.77a3.56,3.56,0,0,0,5.1-.15.93.93,0,0,0-.41-1.5,1.93,1.93,0,0,0-2.05.54.34.34,0,0,1,.16-.13c-.16.08-.15.08,0,0s-.18,0,.13,0c-.07,0-.36-.1-.17,0-.14-.06-.16-.07-.06,0-.11-.1-.13-.11-.08,0a1.67,1.67,0,0,0-2-.27c-.47.23-1.19,1-.66,1.58Z"/>
      <path class="cls-4" d="M107.79,99.27c1,0,3.11-1.47,1.17-1.47-1,0-3.11,1.47-1.17,1.47Z"/>
      <path class="cls-4" d="M110,105.35l-.52,1c-.1.2.14.41.29.47a1.8,1.8,0,0,0,1,.08,2.08,2.08,0,0,0,1.65-1l.52-1c.1-.21-.14-.41-.29-.48a1.88,1.88,0,0,0-.94-.08,2.11,2.11,0,0,0-1.66.95Z"/>
      <path class="cls-4" d="M111,110.48l-.52,1c-.27.54,1,.47,1.2.44a2.3,2.3,0,0,0,1.68-.88l.51-1c.28-.54-1-.47-1.2-.44a2.26,2.26,0,0,0-1.67.88Z"/>
      <path class="cls-4" d="M95.57,120.34c1.15,0,3.05-1.74,1.1-1.74-1.16,0-3.06,1.74-1.1,1.74Z"/>
      <path class="cls-4" d="M94.49,113c.9,0,3.14-1.34,1.21-1.34-.9,0-3.14,1.34-1.21,1.34Z"/>
      <path class="cls-4" d="M94.16,103l.51,2.55c.13.69,3,0,2.9-.77l-.51-2.56c-.14-.68-3.06,0-2.9.78Z"/>
      <path class="cls-4" d="M96.43,105.75l-.51.51a.88.88,0,0,0,.39,1.45,2,2,0,0,0,2-.55l.51-.51a.88.88,0,0,0-.39-1.45,2,2,0,0,0-2,.55Z"/>
      <path class="cls-4" d="M91,111.59c1.07,0,3.09-1.6,1.14-1.6-1.06,0-3.08,1.6-1.14,1.6Z"/>
      <path class="cls-4" d="M90.46,108.59c1.15,0,3.05-1.73,1.1-1.73-1.15,0-3,1.73-1.1,1.73Z"/>
      <path class="cls-4" d="M93.48,105.61H93a4,4,0,0,0-2,.55c-.43.28-.42.62.17.62h.51a4,4,0,0,0,2.05-.55c.44-.28.42-.62-.17-.62Z"/>
      <path class="cls-4" d="M99.73,111h-.51a2.26,2.26,0,0,0-1.9.81c-.36.57.3.91.8.91h.51a2.28,2.28,0,0,0,1.91-.8c.35-.58-.3-.92-.81-.92Z"/>
      <path class="cls-4" d="M99.1,112.54c1,0,3.12-1.46,1.18-1.46-1,0-3.11,1.46-1.18,1.46Z"/>
      <path class="cls-4" d="M100.92,112.74l-.52,1c-.31.62.28,1,.85,1.08a2.06,2.06,0,0,0,1.9-.85l.51-1c.32-.62-.28-1-.84-1.08a2.07,2.07,0,0,0-1.9.85Z"/>
      <path class="cls-4" d="M101.54,117.5l-1,1a.86.86,0,0,0,.38,1.43,2,2,0,0,0,2-.55l1-1a.86.86,0,0,0-.38-1.43,2,2,0,0,0-2,.55Z"/>
      <path class="cls-4" d="M101.31,118.78h-.51a2.69,2.69,0,0,0-1.93.74c-.42.52.38.64.73.64h.51a2.7,2.7,0,0,0,1.93-.73c.43-.53-.37-.65-.73-.65Z"/>
      <path class="cls-4" d="M102.49,110.33l-1.53.51c-.55.18-1.38.65-1.19,1.36s1.18.77,1.71.59l1.54-.51c.54-.19,1.38-.65,1.18-1.37s-1.17-.76-1.71-.58Z"/>
      <path class="cls-4" d="M102.69,108.91v1c0,.66.74.78,1.28.73s1.63-.41,1.63-1v-1c0-.67-.73-.78-1.28-.73s-1.63.4-1.63,1Z"/>
      <path class="cls-4" d="M105.9,112.38c.59,0,3.26-1.14,1.89-1.14-.6,0-3.27,1.14-1.89,1.14Z"/>
      <path class="cls-4" d="M109.2,109.83l-1,1a.88.88,0,0,0,.39,1.45,2,2,0,0,0,2-.55l1-1a.88.88,0,0,0-.39-1.45,2,2,0,0,0-2,.55Z"/>
      <path class="cls-4" d="M107.44,115.49c.64,0,3.29-1.23,1.87-1.23-.65,0-3.29,1.23-1.87,1.23Z"/>
      <path class="cls-4" d="M98.77,113.2h-.51a2.76,2.76,0,0,0-1.93.72c-.44.51.39.6.71.6h.51a2.76,2.76,0,0,0,1.93-.73c.44-.51-.39-.59-.71-.59Z"/>
      <path class="cls-4" d="M96.72,117.64l-.51,1c-.28.56,1,.53,1.22.5a2.2,2.2,0,0,0,1.66-.92l.51-1c.28-.56-1-.53-1.22-.5a2.18,2.18,0,0,0-1.66.92Z"/>
      <path class="cls-4" d="M101.6,120.78l-.51.51c-.42.41-.35.87.26,1a2.53,2.53,0,0,0,2.05-.55l.51-.51c.42-.41.35-.87-.26-1a2.49,2.49,0,0,0-2.05.55Z"/>
      <path class="cls-4" d="M103.47,122.08l-.51.51c-.48.48.42.63.73.62a2.94,2.94,0,0,0,1.92-.73l.51-.51c.48-.48-.41-.63-.72-.62a3,3,0,0,0-1.93.73Z"/>
      <path class="cls-4" d="M105.25,126.4c1.06,0,3.09-1.6,1.14-1.6-1.06,0-3.09,1.6-1.14,1.6Z"/>
      <path class="cls-4" d="M110.4,120.44c1.28,0,3-1.94,1-1.94-1.28,0-3,1.94-1,1.94Z"/>
      <path class="cls-4" d="M110.9,127c1.2,0,3-1.82,1.08-1.82-1.2,0-3,1.82-1.08,1.82Z"/>
      <path class="cls-4" d="M110.81,133.84c1.67,0,2.2-2.18.24-2.18-1.68,0-2.21,2.18-.24,2.18Z"/>
      <path class="cls-4" d="M101.31,129.56v1c0,.46,2.89,0,2.89-.77v-1c0-.46-2.89,0-2.89.77Z"/>
      <path class="cls-4" d="M99.77,127.52V128c0,.76,2.9.26,2.9-.78v-.51c0-.75-2.9-.25-2.9.78Z"/>
      <path class="cls-4" d="M92.23,125.1l-1,1c-.5.49.42.73.75.72a2.78,2.78,0,0,0,1.92-.75l1-1c.49-.49-.42-.73-.75-.72a2.76,2.76,0,0,0-1.92.75Z"/>
      <path class="cls-4" d="M89.21,119.63a2,2,0,0,0-.09,2.89c.12.12.61.06.73,0a4.68,4.68,0,0,0,1.12-.26c.22-.07,1.22-.42.89-.75a1.65,1.65,0,0,1,0-2.21c.45-.43-.41-.42-.66-.39a3.58,3.58,0,0,0-2,.67Z"/>
      <path class="cls-4" d="M86.5,132.35c.66,0,3.3-1.24,1.87-1.24-.66,0-3.29,1.24-1.87,1.24Z"/>
      <path class="cls-4" d="M94,131.82c1.69,0,2.19-2.22.23-2.22-1.69,0-2.19,2.22-.23,2.22Z"/>
      <path class="cls-4" d="M99.37,132.51l-1,2c-.26.53,1,.44,1.2.41.54-.09,1.4-.31,1.68-.86l1-2c.27-.53-1-.44-1.19-.41-.55.09-1.4.31-1.68.86Z"/>
      <path class="cls-4" d="M104,139.91l-.51.52c-.49.49.42.72.75.72a2.77,2.77,0,0,0,1.92-.76l.51-.51c.5-.49-.42-.72-.75-.72a2.78,2.78,0,0,0-1.92.75Z"/>
      <path class="cls-4" d="M104.77,144.4c1.23,0,3-1.85,1.07-1.85-1.22,0-3,1.85-1.07,1.85Z"/>
      <path class="cls-4" d="M112,136.2v.51c0,.39,2.9,0,2.9-.77v-.52c0-.38-2.9,0-2.9.78Z"/>
      <path class="cls-4" d="M84.83,142.84v1c0,.22.42.33.55.36a2.58,2.58,0,0,0,1.07-.08c.51-.14,1.27-.44,1.27-1.06v-1c0-.21-.41-.33-.55-.35a2.58,2.58,0,0,0-1.07.07c-.51.14-1.27.44-1.27,1.06Z"/>
      <path class="cls-4" d="M91.93,82.84c.87,0,3.14-1.29,1.22-1.29-.86,0-3.14,1.29-1.22,1.29Z"/>
      <path class="cls-4" d="M165.67,80l-.52,1c-.33.64.3,1.16.89,1.23a1.88,1.88,0,0,0,1.88-.89l.52-1c.33-.64-.3-1.15-.89-1.23a1.9,1.9,0,0,0-1.88.89Z"/>
      <path class="cls-4" d="M161.27,153.05l-.51-.51a1.72,1.72,0,0,0-2-.22c-.43.21-1.21,1-.68,1.49l.51.51a1.72,1.72,0,0,0,2,.22c.43-.21,1.21-1,.68-1.49Z"/>
      <path class="cls-4" d="M131.21,145.76l.51-1c.26-.5-1-.36-1.17-.34-.52.09-1.42.3-1.69.83l-.52,1c-.25.5,1,.37,1.18.34.51-.08,1.42-.29,1.69-.82Z"/>
      <path class="cls-4" d="M131.29,141.33v-.51a1.12,1.12,0,0,0-1.35-1c-.58.06-1.59.46-1.59,1.2v.51a1.12,1.12,0,0,0,1.35,1c.58-.06,1.59-.46,1.59-1.2Z"/>
      <path class="cls-4" d="M129.21,134.94c.89,0,3.14-1.32,1.22-1.32-.89,0-3.14,1.32-1.22,1.32Z"/>
      <path class="cls-4" d="M131.85,130.67c1.31,0,3-2,1-2-1.3,0-3,2-1,2Z"/>
      <path class="cls-4" d="M133.47,129.83v1c0,.67.72.86,1.29.79s1.62-.41,1.62-1.08v-1c0-.67-.72-.86-1.29-.79s-1.62.41-1.62,1.08Z"/>
      <path class="cls-4" d="M139.46,132.51c1,0,3.09-1.56,1.15-1.56-1,0-3.1,1.56-1.15,1.56Z"/>
      <path class="cls-4" d="M140.87,131.35l-.51.51a.77.77,0,0,0,.35,1.31,2.15,2.15,0,0,0,2-.55l.51-.51a.76.76,0,0,0-.35-1.31,2.12,2.12,0,0,0-2,.55Z"/>
      <path class="cls-4" d="M138.58,129.56v.51c0,.77,2.9.26,2.9-.77v-.51c0-.77-2.9-.27-2.9.77Z"/>
      <path class="cls-4" d="M140.85,128.39l.51-1.53c.18-.53-.94-.39-1.17-.35-.45.07-1.51.3-1.69.83l-.52,1.53c-.17.52,1,.38,1.18.34.45-.07,1.51-.29,1.69-.82Z"/>
      <path class="cls-4" d="M140.49,124.4c1.12,0,3.07-1.68,1.12-1.68-1.11,0-3.07,1.68-1.12,1.68Z"/>
      <path class="cls-4" d="M138.48,120.94c1.28,0,3-1.92,1.06-1.92-1.27,0-3,1.92-1.06,1.92Z"/>
      <path class="cls-4" d="M136.08,115.36h-.51c-.62,0-1.52.48-1.6,1.16s.78.93,1.33.93h.51c.63,0,1.53-.48,1.6-1.16s-.77-.93-1.33-.93Z"/>
      <path class="cls-4" d="M131.21,117.41c1.61,0,2.26-2,.29-2-1.61,0-2.27,2-.29,2Z"/>
      <path class="cls-4" d="M128.51,112.94l-1,1c-.46.46.4.5.68.48a3.39,3.39,0,0,0,1.94-.69l1-1c.46-.46-.4-.5-.68-.48a3.29,3.29,0,0,0-1.94.69Z"/>
      <path class="cls-4" d="M138.46,112.19c1.18,0,3-1.78,1.1-1.78-1.18,0-3.05,1.78-1.1,1.78Z"/>
      <path class="cls-4" d="M137.45,108.64c1.2,0,3-1.82,1.08-1.82-1.2,0-3,1.82-1.08,1.82Z"/>
      <path class="cls-4" d="M140.52,104.07c1.24,0,3-1.87,1.07-1.87-1.24,0-3,1.87-1.07,1.87Z"/>
      <path class="cls-4" d="M140.24,103.18l-.51.51c-.49.48.41.64.72.63a3,3,0,0,0,1.93-.73l.51-.51c.48-.48-.41-.64-.73-.63a2.94,2.94,0,0,0-1.92.73Z"/>
      <path class="cls-4" d="M142,102.43h.51a2.35,2.35,0,0,0,1.92-.8c.36-.56-.32-.86-.79-.86h-.51a2.31,2.31,0,0,0-1.91.8c-.37.56.31.86.78.86Z"/>
      <path class="cls-4" d="M145.34,100.12l-1,1c-.48.48.42.64.73.63A3,3,0,0,0,147,101l1-1c.48-.48-.42-.64-.73-.63a3,3,0,0,0-1.93.73Z"/>
      <path class="cls-4" d="M146.35,101.16l.51.51c.47.47,1.38.3,1.93.06.35-.15,1.23-.74.75-1.22L149,100c-.47-.47-1.38-.3-1.92-.06-.36.15-1.24.74-.76,1.22Z"/>
      <path class="cls-4" d="M148,98.06l-.51.51a.93.93,0,0,0,.4,1.5,1.93,1.93,0,0,0,2.05-.55l.51-.51a.93.93,0,0,0-.4-1.5,2,2,0,0,0-2.05.55Z"/>
      <path class="cls-4" d="M149.16,97.8c1.05,0,3.09-1.59,1.15-1.59-1.06,0-3.09,1.59-1.15,1.59Z"/>
      <path class="cls-4" d="M149.65,95.16c.94,0,3.12-1.42,1.19-1.42-.94,0-3.12,1.42-1.19,1.42Z"/>
      <path class="cls-4" d="M149.94,98.68l.51.51a1.69,1.69,0,0,0,2,.26c.46-.23,1.2-1,.67-1.57l-.51-.51a1.67,1.67,0,0,0-2-.25c-.45.22-1.2,1-.67,1.56Z"/>
      <path class="cls-4" d="M151.64,101.61c1.63,0,2.25-2.06.27-2.06-1.63,0-2.24,2.06-.27,2.06Z"/>
      <path class="cls-4" d="M152.15,104.65c1.61,0,2.25-2,.28-2-1.62,0-2.26,2-.28,2Z"/>
      <path class="cls-4" d="M151.84,105.28v.51a1.11,1.11,0,0,0,1.35,1c.57-.06,1.59-.46,1.59-1.19v-.51a1.11,1.11,0,0,0-1.35-1c-.57.06-1.59.45-1.59,1.19Z"/>
      <path class="cls-4" d="M154.53,108.86l.51.51a1.75,1.75,0,0,0,2,.16c.41-.19,1.22-.89.7-1.4l-.51-.51a1.75,1.75,0,0,0-1.95-.17c-.41.19-1.22.9-.71,1.41Z"/>
      <path class="cls-4" d="M156.54,109.76l.51.51c.55.55,3.21-.52,2.73-1l-.51-.51c-.55-.55-3.21.52-2.73,1Z"/>
      <path class="cls-4" d="M160.88,110.18h-.51a3.7,3.7,0,0,0-2.05.55c-.42.29-.42.67.18.67H159a3.68,3.68,0,0,0,2.05-.55c.43-.28.42-.67-.18-.67Z"/>
      <path class="cls-4" d="M152.15,90.37c1.63,0,2.25-2.05.28-2.05-1.63,0-2.25,2.05-.28,2.05Z"/>
      <path class="cls-4" d="M151.68,91.52c.86,0,3.14-1.29,1.22-1.29-.87,0-3.14,1.29-1.22,1.29Z"/>
      <path class="cls-4" d="M155.43,93.82v.51c0,.48,2.9.07,2.9-.78V93c0-.48-2.9-.07-2.9.78Z"/>
      <path class="cls-4" d="M158.83,96.13c.87,0,3.14-1.31,1.21-1.31-.87,0-3.14,1.31-1.21,1.31Z"/>
      <path class="cls-4" d="M161.4,96.71c1,0,3.12-1.46,1.18-1.46-1,0-3.12,1.46-1.18,1.46Z"/>
      <path class="cls-4" d="M163,92.8l-1,.52c-.4.2-1.19.73-.75,1.26s1.45.32,1.94.08l1-.52c.4-.2,1.2-.73.75-1.26s-1.45-.32-1.93-.08Z"/>
      <path class="cls-4" d="M159.87,88c1,0,3.11-1.46,1.18-1.46-1,0-3.12,1.46-1.18,1.46Z"/>
      <path class="cls-4" d="M160.43,86.17c1.21,0,3-1.82,1.08-1.82-1.21,0-3,1.82-1.08,1.82Z"/>
      <path class="cls-4" d="M162.3,81.66l.51-.51c.49-.49-.42-.7-.74-.7a2.87,2.87,0,0,0-1.93.75l-.51.51c-.49.49.42.7.75.7a2.82,2.82,0,0,0,1.92-.75Z"/>
      <path class="cls-4" d="M154.39,81.9h-.51a2.39,2.39,0,0,0-1.92.78c-.37.57.32.83.78.83h.51a2.4,2.4,0,0,0,1.92-.78c.37-.56-.32-.83-.78-.83Z"/>
      <path class="cls-4" d="M144.21,86.13h-.51a2.84,2.84,0,0,0-1.93.72c-.44.52.39.61.72.61H143a2.76,2.76,0,0,0,1.93-.73c.44-.51-.39-.6-.72-.6Z"/>
      <path class="cls-4" d="M131.74,141.51c1.68,0,2.2-2.2.24-2.2-1.68,0-2.2,2.2-.24,2.2Z"/>
      <path class="cls-4" d="M135.91,145.9c1.19,0,3-1.79,1.09-1.79-1.19,0-3,1.79-1.09,1.79Z"/>
      <path class="cls-4" d="M139.16,144.28l-.51,1c-.23.44,1,.25,1.14.22.46-.08,1.46-.27,1.71-.75l.51-1c.23-.44-1-.24-1.14-.22-.45.09-1.46.27-1.71.76Z"/>
      <path class="cls-4" d="M112.64,76.82c1,0,3.11-1.51,1.16-1.51-1,0-3.1,1.51-1.16,1.51Z"/>
      <path class="cls-4" d="M116.47,75.29c1,0,3.11-1.51,1.16-1.51-1,0-3.1,1.51-1.16,1.51Z"/>
      <path class="cls-4" d="M117.23,74.48c.94,0,3.12-1.42,1.18-1.42-.94,0-3.12,1.42-1.18,1.42Z"/>
      <path class="cls-4" d="M120.36,70.16c1.3,0,3-2,1-2-1.3,0-3,2-1,2Z"/>
      <path class="cls-4" d="M123.26,68.56v2.3c0,.67.73.81,1.28.75s1.63-.4,1.63-1.06V68.26c0-.68-.73-.82-1.29-.76s-1.62.41-1.62,1.06Z"/>
      <path class="cls-4" d="M128.75,77.68c1.13,0,3.07-1.7,1.11-1.7-1.12,0-3.06,1.7-1.11,1.7Z"/>
      <path class="cls-4" d="M134.86,72.26c1,0,3.09-1.57,1.15-1.57-1,0-3.09,1.57-1.15,1.57Z"/>
      <path class="cls-4" d="M137,71.6v.76c0,.69.71,1,1.32.89s1.6-.43,1.6-1.13v-.77c0-.69-.71-1-1.32-.89s-1.6.43-1.6,1.14Z"/>
      <path class="cls-4" d="M166.16,107.86v.77c0,.66,2.9.19,2.9-.78v-.77c0-.66-2.9-.19-2.9.78Z"/>
      <path class="cls-4" d="M173.18,111.4c1.15,0,3.06-1.73,1.11-1.73-1.15,0-3.06,1.73-1.11,1.73Z"/>
      <path class="cls-4" d="M174.58,114v1.53c0,.69,2.9.21,2.9-.78v-1.53c0-.69-2.9-.21-2.9.78Z"/>
      <path class="cls-4" d="M163.86,121.44V123c0,.64.75.71,1.26.65s1.64-.39,1.64-1v-1.54c0-.64-.75-.71-1.26-.64s-1.64.38-1.64,1Z"/>
      <path class="cls-4" d="M165.39,126.79l-.77,2.3c-.21.64.91.7,1.26.66a2,2,0,0,0,1.65-1l.76-2.3c.21-.64-.91-.7-1.26-.66-.6.07-1.43.37-1.64,1Z"/>
      <path class="cls-4" d="M171.61,128.88c1,0,3.12-1.45,1.18-1.45-1,0-3.11,1.45-1.18,1.45Z"/>
      <path class="cls-4" d="M172.32,128.09l-.77,1.52c-.63,1.24,2.26.93,2.7.07l.77-1.52c.63-1.24-2.26-.93-2.7-.07Z"/>
      <path class="cls-4" d="M172,130.25c.59,0,3.27-1.13,1.9-1.13-.59,0-3.27,1.13-1.9,1.13Z"/>
      <path class="cls-4" d="M165.26,129.5l-1.53.78c-.31.16-.93.61-.33.84a3,3,0,0,0,2-.35L167,130c.31-.15.93-.61.33-.84a3,3,0,0,0-2,.35Z"/>
      <path class="cls-4" d="M159.42,129.89c1.28,0,3-1.94,1.05-1.94-1.28,0-3,1.94-1.05,1.94Z"/>
      <path class="cls-4" d="M160.8,132.37v.77c0,.64,2.89.18,2.89-.78v-.77c0-.64-2.89-.18-2.89.78Z"/>
      <path class="cls-4" d="M167.79,137.33c1,0,3.11-1.5,1.17-1.5-1,0-3.11,1.5-1.17,1.5Z"/>
      <path class="cls-4" d="M169.22,138.5v.76c0,.22.42.33.55.35a2.58,2.58,0,0,0,1.07-.08c.5-.14,1.28-.43,1.28-1v-.77c0-.21-.42-.32-.55-.34a2.42,2.42,0,0,0-1.07.08c-.5.13-1.28.43-1.28,1Z"/>
      <path class="cls-4" d="M169,144.8c.58,0,3.26-1.12,1.89-1.12-.58,0-3.26,1.12-1.89,1.12Z"/>
      <path class="cls-4" d="M134,152.83v.77c0,.65.74.74,1.27.68s1.64-.39,1.64-1v-.76c0-.66-.74-.75-1.27-.69s-1.64.39-1.64,1Z"/>
      <path class="cls-4" d="M132.2,153.27c.65,0,3.29-1.22,1.87-1.22-.64,0-3.28,1.22-1.87,1.22Z"/>
      <path class="cls-4" d="M126.42,149.56c1,0,3.12-1.45,1.18-1.45-1,0-3.12,1.45-1.18,1.45Z"/>
      <path class="cls-4" d="M130.76,154.8V154c0-.66-.74-.76-1.27-.7s-1.63.4-1.63,1v.77c0,.65.73.75,1.27.69s1.63-.39,1.63-1Z"/>
      <path class="cls-4" d="M96.58,152.74c1.12,0,3.07-1.68,1.12-1.68-1.12,0-3.07,1.68-1.12,1.68Z"/>
      <path class="cls-4" d="M98.52,147.53c1.61,0,2.27-2,.3-2-1.61,0-2.27,2-.3,2Z"/>
      <path class="cls-4" d="M100.08,142.24c1.66,0,2.22-2.13.25-2.13-1.66,0-2.22,2.13-.25,2.13Z"/>
      <path class="cls-4" d="M100,147.89c.61,0,3.27-1.17,1.88-1.17-.61,0-3.28,1.17-1.88,1.17Z"/>
      <path class="cls-4" d="M101.88,147.83h-.77c-.6,0-1.52.47-1.61,1.13s.8.87,1.32.87h.77c.6,0,1.52-.46,1.61-1.12s-.8-.88-1.32-.88Z"/>
      <path class="cls-4" d="M102.81,149.9l-.77.76a.92.92,0,0,0,.4,1.49,2,2,0,0,0,2-.55l.77-.77a.91.91,0,0,0-.4-1.48,1.93,1.93,0,0,0-2,.55Z"/>
      <path class="cls-4" d="M107,152.22c1.68,0,2.21-2.18.25-2.18-1.68,0-2.21,2.18-.25,2.18Z"/>
      <path class="cls-4" d="M108.84,151.22c1.13,0,3.06-1.71,1.11-1.71-1.13,0-3.06,1.71-1.11,1.71Z"/>
      <path class="cls-4" d="M114.9,151.67h-.76c-.61,0-1.53.46-1.61,1.12s.79.87,1.31.87h.77c.6,0,1.52-.46,1.61-1.12s-.8-.87-1.32-.87Z"/>
      <path class="cls-4" d="M81.14,103.26v1.54c0,.65,2.89.18,2.89-.78v-1.53c0-.66-2.89-.19-2.89.77Z"/>
      <path class="cls-4" d="M82.68,111.92l-.77,1.53c-.32.62.28,1,.84,1.07a2,2,0,0,0,1.9-.85l.77-1.52c.32-.62-.28-1-.84-1.07a2.06,2.06,0,0,0-1.9.84Z"/>
    </g>
  </g>
</svg>
