<svg xmlns="http://www.w3.org/2000/svg" viewBox="0 0 363.51 630.96">
  <defs>
    <style>
      .cls-1 {
        fill: #ed1c24;
      }

      .cls-2 {
        fill: #ffde17;
      }

      .cls-3 {
        fill: #603913;
      }

      .cls-4 {
        fill: #754c29;
      }

      .cls-5 {
        fill: #f26522;
      }

      .cls-6 {
        fill: none;
        stroke: #231f20;
        stroke-miterlimit: 10;
        stroke-width: 4px;
      }
    </style>
  </defs>
  <title>Asset 3</title>
  <g id="Layer_2" data-name="Layer 2">
    <g id="Layer_1-2" data-name="Layer 1">
      <g>
        <path class="cls-1" d="M47.66,511.4c-1.81-7.44,2.94-14.14-5.83.41-9.49,15.74-5.66,6.75,1,6.05a9.72,9.72,0,0,1,10.46,6.69c1.66,4.83.26,10.34-1,15.1A181.65,181.65,0,0,1,46.7,557a144.89,144.89,0,0,1-6,13.85c-.15.3-1.63,3.18-.94,1.86-2.47,4.74,1.47-2.43-1.21,2.19l-.83,1.43q.82-1.4,0,0c-.54.87-.24.42-1.12,1.76a171,171,0,0,1-21.72,26.29L.66,630.64c24.6-25.71,59.87-35.28,93.23-43.91,1.28-.33,2.62-2.55,3.22-3.38a102.09,102.09,0,0,0,5.86-9.24,107.91,107.91,0,0,0,5.08-9.71c.18-.4,1.63-4.55,1.32-4.47-33.72,8.72-69.64,18.47-94.5,44.45-4.34,4.55-7.48,10.45-10.45,16C3,623,1.24,625.79.41,628.69c-.07.27-1,3.24.25,1.95C28.17,603,49.85,567.46,62.83,530.76c3.06-8.65,15-37.48-1.92-39.69-10.33-1.35-16.36,10.8-20.57,18-5.33,9.12-10.78,18.32-8.15,29.11.14.57,3.77-4.13,3.21-3.37a101.55,101.55,0,0,0,5.87-9.25c1.81-3.17,3.59-6.37,5.08-9.71.56-1.26,1.66-3.06,1.31-4.47Z"/>
        <path class="cls-1" d="M145.29,460.26a161.82,161.82,0,0,0-21.51,35.5c-4,9-6.77,18.51-7.15,28.38-.59,15.32,4.78,40.7,25.5,36.46,9.32-1.91,16.3-9,22.25-16,8.54-10,15.49-21.4,21.66-32.95,8-15,22.06-42.34,4.76-56.34-8.08-6.54-19.49-3.9-27.16,2-10.31,7.9-17,20.83-23.34,31.84-.69,1.2-7.84,13.1-6.31,14s8.72-12.05,8.95-12.45c.39-.69,2.81-4.08,1-1.73a36.86,36.86,0,0,1,2.72-3.14,27.59,27.59,0,0,1,11.25-6.93c7.89-2.38,16.13-.24,21.11,6.49,5.58,7.54,5.22,17.28,2.56,25.86a62.1,62.1,0,0,1-2.18,5.89c-2,4.58.19-1,.76-1-.48,0-4.63,5.76-5.6,6.82-5.88,6.45-13.66,12.37-22.9,11.62-8-.66-13.42-6.72-16.28-13.82-3.13-7.78-3.81-16.58-3.1-24.87a63.05,63.05,0,0,1,2.31-12.49c.51-1.73,1.53-3.5,1.89-5.25-.54,2.65-7.22,10.93-3,5.7A97.5,97.5,0,0,0,144.36,466c.66-1.32,4.55-10.25.93-5.78Z"/>
        <path class="cls-1" d="M241.31,447.94l-19.22,83.52c-.45,2,2.07-1,1.81-.76,2-2.07,3.77-5.23,5.24-7.65,3.15-5.17,7.2-11,8.58-17l19.22-83.52c.45-2-2.07,1-1.81.75-2,2.08-3.77,5.23-5.24,7.65-3.16,5.17-7.2,11-8.58,17Z"/>
        <path class="cls-1" d="M362,391.73c-1.47-7.34-7.34-12.58-14.45-14.47-8-2.12-16.35.47-23.48,4.12-16.39,8.37-28.23,23.08-37.58,38.54-5.46,9-13.65,20.72-13.91,31.75-.18,7.42,4.12,13.81,11.93,14.16,7.31.32,15-3.5,21.38-6.75A92.17,92.17,0,0,0,325,446c16.35-14.46,28.41-34.69,37-54.53l-14.23,21.65C343.24,429,338.6,444.94,332,460.08c-.82,1.91-1.66,3.82-2.57,5.7.16-.33-2.18,4.31-1.11,2.22-2.35,4.58,2.27-3.41-.5.9,1.25-1.95-1.48,2.13-1.35,2A93.12,93.12,0,0,1,310.37,488c-4.59,3.87-7.64,10.75-10.45,15.94-1.43,2.65-3.18,5.46-4,8.36-.1.36-1.1,3.09.26,1.95,19.46-16.41,33.14-39.45,44.11-62.11,10-20.65,16.81-42.44,23.16-64.44.4-1.38-1,0-1.26.17-1.44,1-3,3.82-3.81,5.11a109.35,109.35,0,0,0-9.17,16.36c-.71,1.64-2.7,5.78.42-.32.38-.73,2.21-3,.14-.49s-4,4.87-6.19,7.11a91.43,91.43,0,0,1-16.31,13.1c-9.19,5.8-32.71,18.83-38.33,2.16a14.1,14.1,0,0,1-.69-5.36,19.56,19.56,0,0,1,.52-3.33q2.44-7-4.07,6.71c1.93-2.26,3.65-4.65,5.73-6.79A76.13,76.13,0,0,1,309.13,408c12.61-6.69,33.86-7.2,37.4,10.5.11.55,3.77-4.14,3.22-3.38a100.87,100.87,0,0,0,5.86-9.25,106.41,106.41,0,0,0,5.08-9.7c.58-1.3,1.61-3,1.32-4.47Z"/>
      </g>
      <g>
        <g>
          <path class="cls-2" d="M219,114.31c3.57,3.78,6,9.32,4.21,14.19-1.35,3.63-4.72,6.07-8.06,8s-7.79,3.2-9.37,6.72c-1.7,3.77-.77,7.26-.64,10.64-5.58-8.4-2.9-11.52.05-16.46,4.75-6.55,9.6-13.66,7-21.32-1.58-4.66-5.65-7.94-8.79-11.74s-6.63-5.61-2.88-13.52c-.64,7.06,2.59,10.06,6.45,13.56S215.39,110.52,219,114.31Z"/>
          <path class="cls-3" d="M217.71,433c.63,6.54-7.85,10.07-11.26,10.34-6.11.48-7.87-1.77-11.18-2.63v-.09a946.58,946.58,0,0,0-80.13-182.15c14,2.16,28.26,1.21,41.22-4A926,926,0,0,0,217.71,433Z"/>
          <path class="cls-2" d="M181.05,146.2c10.86,10.51,22.67,23.8,19.74,38.63a26.67,26.67,0,0,1-7.46,13.47c-5.56,5.69-13.29,9.89-20.68,13.15-9.43,4.16-23.33,9.69-36.78,10.88-65.53,5.8-71.37-12.65-78.89-19.7-14.63-16.87-21.76-48-15.55-69.44s21-39.67,38.73-53.31a27.24,27.24,0,0,0-3.93,18.44c27.41-21,44.06-62.46,35.59-91.82l.05-.34c9.68,7.33,22.79,16.45,30.57,25.78S156.08,52.6,157,64.71s-3.74,25-13.54,32.17c6,.05,16.61-2.34,22.21-6,5.37-3.55,5.91-15.65,2.55-20.61,9.64,8.25,17,22,22.1,33.65s3.94,27.05-6.17,34.71c-3.84,2.91-8.68,4.55-11.81,8.21s-3,10.69,1.6,12A10.35,10.35,0,0,1,181.05,146.2Zm-34.8,58.49c10.47-5.93,17.19-10.87,19.41-23.13a16,16,0,0,1-13.82,6.78,14,14,0,0,1-13.19-13.13c-.22-9,8-15.47,13.36-22.65,8.52-11.35,12.15-22.07,6.24-35.34.77,9.11-2.45,9.59-8.59,13.46s-13.6,4.85-20.56,6.9S115.44,147,112.36,150.2a93,93,0,0,0,1.46-80c3.52,22.83-7.62,45.08-18.43,65.48-2.53,4.79-5.19,9.73-9.46,13.07s-8.84,5.59-13.31,2.53-4.45-8.22-1.74-14.37c-8.63,12.07-12.37,30.23-7.36,45.34S106,231.14,146.25,204.69Z"/>
          <path class="cls-4" d="M193.33,198.3c3.18,22.7-13.38,45.44-34.22,55-.91.42-1.82.81-2.75,1.18-13,5.23-27.27,6.18-41.22,4a102.6,102.6,0,0,1-22.87-6.38c-10.25-4.17-20.12-10-27.14-18.51s-10.84-20.22-8.15-31c7.52,7.05,13.36,25.5,78.89,19.7,13.45-1.19,27.35-6.72,36.78-10.88C180,208.19,187.77,204,193.33,198.3Z"/>
          <path class="cls-5" d="M165.66,181.56c-2.22,12.26-8.94,17.2-19.41,23.13-40.25,26.45-77.72-7.31-82.73-22.41S62.25,149,70.88,136.94c-2.71,6.15-2.74,11.32,1.74,14.37s9,.8,13.31-2.53,6.93-8.28,9.46-13.07c10.81-20.4,22-42.65,18.43-65.48a93,93,0,0,1-1.46,80c3.08-3.23,9.77-10.57,16.74-12.62s14.42-3,20.56-6.9,9.36-4.35,8.59-13.46c5.91,13.27,2.28,24-6.24,35.34-5.38,7.18-13.58,13.68-13.36,22.65a14,14,0,0,0,13.19,13.13A16,16,0,0,0,165.66,181.56Z"/>
          <path class="cls-2" d="M89.87,26.74c4.77,6.42,3.06,15.12-2.13,21.2-4.85,5.68-18.25,4.6-16.88,24.78-4.27-5.29-1-13.21,3.08-18.62S83.27,43,82.62,36.24c-.45-4.74-3.75-8.65-6.94-12.18s-6.6-7.28-7.37-12S70.84,1.74,75.59,2c-3.13,2-3.66,6.61-2.08,10s4.68,5.71,7.78,7.76S87.65,23.76,89.87,26.74Z"/>
          <path class="cls-2" d="M36.68,195.07c-3.87-1.23-3.33-1.46-7.2-2.69-9.57-5.59-12.11-18-13.71-29C22.4,174.67,29.06,185.7,36.68,195.07Z"/>
        </g>
        <g>
          <path class="cls-6" d="M57,202.63c-2.69,10.73,1.13,22.39,8.15,31S82,247.92,92.27,252.09a102.6,102.6,0,0,0,22.87,6.38c14,2.16,28.26,1.21,41.22-4,.93-.37,1.84-.76,2.75-1.18,20.84-9.53,37.4-32.27,34.22-55"/>
          <path class="cls-6" d="M57,202.63c-14.63-16.87-21.76-48-15.55-69.44s21-39.67,38.73-53.31a27.24,27.24,0,0,0-3.93,18.44c27.41-21,44.06-62.46,35.59-91.82l.05-.34c9.68,7.33,22.79,16.45,30.57,25.78S156.08,52.6,157,64.71s-3.74,25-13.54,32.17c6,.05,16.61-2.34,22.21-6,5.37-3.55,5.91-15.65,2.55-20.61,9.64,8.25,17,22,22.1,33.65s3.94,27.05-6.17,34.71c-3.84,2.91-8.68,4.55-11.81,8.21s-3,10.69,1.6,12a10.35,10.35,0,0,1,7.12-12.62c10.86,10.51,22.67,23.8,19.74,38.63a26.67,26.67,0,0,1-7.46,13.47c-5.56,5.69-13.29,9.89-20.68,13.15-9.43,4.16-23.33,9.69-36.78,10.88-65.53,5.8-71.37-12.65-78.89-19.7"/>
          <path class="cls-6" d="M146.25,204.69c-40.25,26.45-77.72-7.31-82.73-22.41S62.25,149,70.88,136.94c-2.71,6.15-2.74,11.32,1.74,14.37s9,.8,13.31-2.53,6.93-8.28,9.46-13.07c10.81-20.4,22-42.65,18.43-65.48a93,93,0,0,1-1.46,80c3.08-3.23,9.77-10.57,16.74-12.62s14.42-3,20.56-6.9,9.36-4.35,8.59-13.46c5.91,13.27,2.28,24-6.24,35.34-5.38,7.18-13.58,13.68-13.36,22.65a14,14,0,0,0,13.19,13.13,16,16,0,0,0,13.82-6.78C163.44,193.82,156.72,198.76,146.25,204.69Z"/>
          <path class="cls-6" d="M205.15,137.42c4.75-6.55,9.6-13.66,7-21.32-1.58-4.66-5.65-7.94-8.79-11.74s-6.63-5.61-2.88-13.52c-.64,7.06,2.59,10.06,6.45,13.56s8.47,6.12,12,9.91,6,9.32,4.21,14.19c-1.35,3.63-4.72,6.07-8.06,8s-7.79,3.2-9.37,6.72c-1.7,3.77-.77,7.26-.64,10.64C199.52,145.48,202.2,142.36,205.15,137.42Z"/>
          <path class="cls-6" d="M70.86,72.72c-1.37-20.18,12-19.1,16.88-24.78,5.19-6.08,6.9-14.78,2.13-21.2-2.22-3-5.49-4.95-8.58-7s-6.21-4.4-7.78-7.76S72.46,4,75.59,2c-4.75-.27-8,5.38-7.28,10.08s4.17,8.45,7.37,12,6.49,7.44,6.94,12.18c.65,6.76-4.56,12.45-8.68,17.86S66.59,67.43,70.86,72.72Z"/>
          <path class="cls-6" d="M29.48,192.38c-9.57-5.59-12.11-18-13.71-29,6.63,11.26,13.29,22.29,20.91,31.66C32.81,193.84,33.35,193.61,29.48,192.38Z"/>
          <path class="cls-6" d="M204.83,260.11a174.23,174.23,0,0,0,45.63-88.85"/>
          <path class="cls-6" d="M235,253.36a224.23,224.23,0,0,0,32-54"/>
          <path class="cls-6" d="M115.14,258.47a946.58,946.58,0,0,1,80.13,182.15v.09c3.31.86,5.07,3.11,11.18,2.63,3.41-.27,11.89-3.8,11.26-10.34a926,926,0,0,1-61.35-178.55"/>
        </g>
      </g>
    </g>
  </g>
</svg>
