<svg xmlns="http://www.w3.org/2000/svg" viewBox="0 0 323.01 266.72">
  <defs>
    <style>
      .cls-1 {
        fill: #9e1f63;
      }

      .cls-2 {
        fill: #ee2a7b;
      }

      .cls-3 {
        fill: #ec008c;
      }

      .cls-4 {
        fill: #a97c50;
      }

      .cls-5 {
        fill: #8b5e3c;
      }

      .cls-6 {
        fill: #c49a6c;
      }

      .cls-7 {
        fill: none;
        stroke: #231f20;
        stroke-miterlimit: 10;
      }
    </style>
  </defs>
  <title>kink</title>
  <g id="Layer_2" data-name="Layer 2">
    <g id="Layer_1-2" data-name="Layer 1">
      <g>
        <g>
          <path class="cls-1" d="M185.67,76.93c0,.11,0,.21,0,.32a2.73,2.73,0,0,0-.05.4h0c-10.4,6.36-24.27,7.13-36.39,5.84-3.19-.34-6.38-.78-9.57-1.23l2-2.4a74.49,74.49,0,0,0,9.77-1.11C163.15,76.67,174.63,72.3,185.67,76.93Z"/>
          <path class="cls-2" d="M185.91,81.47a9.46,9.46,0,0,0,2.6,4c-18.14,11.12-43,11.64-65.52,15.7a104.3,104.3,0,0,0-22.85,6.39c-19,8.22-33.43,24.86-42.67,43.4S43.64,190,39.76,210.3A44.12,44.12,0,0,0,1.19,190.92c18.23-20,30.15-44.91,46.18-66.75s38.44-41.65,65.44-43.75c9-.7,17.87.59,26.79,1.84,3.19.45,6.38.89,9.57,1.23,12.12,1.29,26,.52,36.39-5.84h0A9,9,0,0,0,185.91,81.47Z"/>
          <path class="cls-3" d="M199.69,123.07c-3.11,45.14,3.31,93.42,13.95,137.46-6.84-.74-13.78-1.46-20.7-1.94-7.42-45.12-15.68-92-24.79-136.79h0a209.06,209.06,0,0,0,20.36-36.32,13.85,13.85,0,0,0,7.59,3.42,24.41,24.41,0,0,0,7.38-.34,166.88,166.88,0,0,0-3.79,34.51Z"/>
          <path class="cls-1" d="M310.74,172.63c0,.57,0,1.14,0,1.71q-5.61,15.91-9.71,32.37a239,239,0,0,1-14-81.36c0-5.27-.3-11.46-3.8-15a8.89,8.89,0,0,0-2-1.49,180,180,0,0,1-33.65-6.55h0a34.5,34.5,0,0,0-10.38-10.49C231,87.65,226,85.9,218.84,83.41a10.12,10.12,0,0,0,4.31-6.87h0L224,77c10.1,6,25.51,6.82,37.11,8,10.57,1,22.11,4,28.73,11.88a22,22,0,0,1,2.28,3.23c4.56,8,3.64,17.73,4,26.88A89.74,89.74,0,0,0,310.74,172.63Z"/>
          <path class="cls-2" d="M250.66,109.53c1.43,6.15.24,12.24-1.62,18.34-1.81,5.92-4.26,11.85-5.58,17.85a49.61,49.61,0,0,0,10.3,41.89,48.27,48.27,0,0,0-31.89,23.48c-7.2-24.11-7.19-50.06-2-74.68.8-3.81,1.72-7.63,2.38-11.47a48,48,0,0,0,.76-11.47c-.54-7.73-12.14-21.83-19.22-25,1.83-.34,3.65-.8,5.45-1.27l2.19-.58a23.75,23.75,0,0,0,6.93-2.88,5.48,5.48,0,0,0,.49-.35h0C226,85.9,231,87.65,237.28,91.84a34.5,34.5,0,0,1,10.38,10.49h0A24.61,24.61,0,0,1,250.66,109.53Z"/>
          <path class="cls-3" d="M209.85,66.28a23.63,23.63,0,0,1,3,.16A15.5,15.5,0,0,1,217,67.52q.39.17.78.36c3,1.52,5.33,4.5,5.38,7.82a7.87,7.87,0,0,1,0,.84,10.12,10.12,0,0,1-4.31,6.87h0a5.48,5.48,0,0,1-.49.35,23.75,23.75,0,0,1-6.93,2.88c-5.15-6.55-17.52-10.7-25.74-9.38h0c0-.11,0-.21,0-.32a13.07,13.07,0,0,1,2.48-5.49c.2-.26.41-.52.62-.77s.63-.69,1-1a18.19,18.19,0,0,1,8.51-2.82c2.8-.32,5.73-.28,8.68-.43l.58,0,.58,0C208.67,66.3,209.26,66.29,209.85,66.28Z"/>
          <path class="cls-2" d="M211.41,86.64l-2.19.58c-1.8.47-3.62.93-5.45,1.27l-.29.06a24.41,24.41,0,0,1-7.38.34,13.85,13.85,0,0,1-7.59-3.42,9.46,9.46,0,0,1-2.6-4,9,9,0,0,1-.34-3.82,2.73,2.73,0,0,1,.05-.4h0C193.89,75.94,206.26,80.09,211.41,86.64Z"/>
          <path class="cls-2" d="M242.4,53.14l.68,0A143.46,143.46,0,0,0,224,76.93L224,77l-.78-.48h0a7.87,7.87,0,0,0,0-.84c-.05-3.32-2.42-6.3-5.38-7.82q-.39-.19-.78-.36c6.11-3,13.19-11.1,19.76-12.95C238.64,54.05,240.52,53.58,242.4,53.14Z"/>
          <path class="cls-3" d="M116.37,35.39c-.24,7.1,5.87,13.76,12.78,16.39,7.74,2.95,16.29,2.43,24.54,3.21a61,61,0,0,1,6.72,1c11,2.3,18.38,7.48,27.74,15.43a13.07,13.07,0,0,0-2.48,5.49c-11-4.63-22.52-.26-34.31,1.82a74.49,74.49,0,0,1-9.77,1.11c-9,.39-18-1.27-24-7.74-4.66-5.1-6.38-12.36-6.13-19.26s3.19-13.44,5.21-20A10.9,10.9,0,0,0,116.37,35.39Z"/>
          <path class="cls-3" d="M284.26,21.41c1.54-6.13-1.44-13.07-6.59-16.94h0c5.52,2,9.16,3.37,13.66,7.16S299,21.31,298,27.09s-5.78,10-10.74,12.92c-13.17,7.86-28.89,9.47-43.92,12.91l-.91.22c-1.88.44-3.76.91-5.61,1.43-6.57,1.85-13.65,9.9-19.76,12.95a15.5,15.5,0,0,0-4.14-1.08q2.36-2.31,4.83-4.48A124.27,124.27,0,0,1,262.1,36.73c8.3-2.64,18-5.32,21.49-13.3A12.58,12.58,0,0,0,284.26,21.41Z"/>
          <path class="cls-1" d="M198.24,66.83h0a18.19,18.19,0,0,0-8.51,2.82c-.33.32-.65.66-1,1A59.65,59.65,0,0,0,174.71,50,58.92,58.92,0,0,0,161,40.17c-13.1-6.75-30.45-8.75-44.64-4.78a10.9,10.9,0,0,1,.35-2.58c1.24-4.82,5.44-8.49,10.14-10.14s9.83-1.56,14.76-.92C160.33,24.19,178,35.5,189.38,50.92A69.11,69.11,0,0,1,198.24,66.83Z"/>
          <path class="cls-1" d="M277.67,4.47c5.15,3.87,8.13,10.81,6.59,16.94-23.92.95-50,12.72-66.62,30.93a72.21,72.21,0,0,0-10.14,14l-.58,0a70,70,0,0,1,4.26-14.34c5.53-13.49,14.9-26.61,24.38-36.13C241,10.49,247,5.38,254.14,2.57s15.67-3,22.23,1A12.56,12.56,0,0,1,277.67,4.47Z"/>
          <path class="cls-2" d="M217.64,52.34q5.91.24,11.83.43A122.85,122.85,0,0,0,217.72,62q-2.47,2.17-4.83,4.48a23.63,23.63,0,0,0-3-.16c-.59,0-1.18,0-1.77.06l-.58,0A72.21,72.21,0,0,1,217.64,52.34Z"/>
          <path class="cls-4" d="M188.51,85.47a209.06,209.06,0,0,1-20.36,36.32h0c-25-.23-49.83,1.58-74.31,6.9A296.29,296.29,0,0,0,123,101.17C145.46,97.11,170.37,96.59,188.51,85.47Z"/>
          <path class="cls-4" d="M223,113.47a48,48,0,0,1-.76,11.47q-11.26-1.09-22.54-1.87h0a166.88,166.88,0,0,1,3.79-34.51l.29-.06C210.85,91.64,222.45,105.74,223,113.47Z"/>
          <path class="cls-4" d="M281.32,108.88a8.89,8.89,0,0,1,2,1.49,180.68,180.68,0,0,0-7.57,20.8c-8.87-1.12-17.76-2.24-26.67-3.3,1.86-6.1,3.05-12.19,1.62-18.34a24.61,24.61,0,0,0-3-7.2A180,180,0,0,0,281.32,108.88Z"/>
          <path class="cls-4" d="M188.77,70.67c-.21.25-.42.51-.62.77-9.36-7.95-16.76-13.13-27.74-15.43,1.7-2.24,3.4-4.48,5.08-6.71,3.07.24,6.14.46,9.22.68A59.65,59.65,0,0,1,188.77,70.67Z"/>
          <path class="cls-4" d="M211.18,52.07a70,70,0,0,0-4.26,14.34c-2.95.15-5.88.11-8.68.43h0a69.11,69.11,0,0,0-8.86-15.91Q200.29,51.58,211.18,52.07Z"/>
          <path class="cls-4" d="M322.51,52.85a184.4,184.4,0,0,0-32.7,44C283.19,89,271.65,86,261.08,85c-11.6-1.15-27-2-37.11-8l.05-.09a143.46,143.46,0,0,1,19.06-23.77Q282.79,54.08,322.51,52.85Z"/>
          <path class="cls-5" d="M301.06,206.71a353.54,353.54,0,0,0-9.33,56.55c-11.74-41.1-19.05-89.49-16-132.09a180.68,180.68,0,0,1,7.57-20.8c3.5,3.52,3.82,9.71,3.8,15A239,239,0,0,0,301.06,206.71Z"/>
          <path class="cls-5" d="M322.51,52.85c-7,36.8-12.79,82.1-11.77,119.78A89.74,89.74,0,0,1,296.08,127c-.35-9.15.57-18.93-4-26.88a22,22,0,0,0-2.28-3.23A184.4,184.4,0,0,1,322.51,52.85Z"/>
          <path class="cls-6" d="M291.73,263.26c0,.06,0,.12,0,.18-20.74-1.59-37,.69-57.77-.9-6.57-.51-13.38-1.26-20.3-2-10.64-44-17.06-92.32-13.95-137.46q11.26.77,22.54,1.87c-.66,3.84-1.58,7.66-2.38,11.47-5.17,24.62-5.18,50.57,2,74.68a48.27,48.27,0,0,1,31.89-23.48,49.61,49.61,0,0,1-10.3-41.89c1.32-6,3.77-11.93,5.58-17.85,8.91,1.06,17.8,2.18,26.67,3.3C272.68,173.77,280,222.16,291.73,263.26Z"/>
          <path class="cls-6" d="M168.15,121.8c9.11,44.75,17.37,91.67,24.79,136.79-19.67-1.36-39.2-.68-55.67,7.68-4.33-47.94-19.09-96-43.43-137.57C118.32,123.38,143.17,121.57,168.15,121.8Z"/>
        </g>
        <g>
          <path class="cls-7" d="M283.28,110.37a180.68,180.68,0,0,0-7.57,20.8"/>
          <path class="cls-7" d="M222.23,124.94q-11.26-1.09-22.54-1.87"/>
          <path class="cls-7" d="M275.71,131.17c-8.87-1.12-17.76-2.24-26.67-3.3"/>
          <path class="cls-7" d="M243.08,53.16l-.68,0"/>
          <path class="cls-7" d="M217.64,52.34q5.91.24,11.83.43"/>
          <path class="cls-7" d="M243.08,53.16q39.71.92,79.43-.31"/>
          <path class="cls-7" d="M123,101.17A296.29,296.29,0,0,1,93.84,128.7"/>
          <path class="cls-7" d="M168.15,121.8c-25-.23-49.83,1.58-74.31,6.9"/>
          <path class="cls-7" d="M139.6,82.26l2-2.4"/>
          <path class="cls-7" d="M289.81,96.87a184.4,184.4,0,0,1,32.7-44"/>
          <path class="cls-7" d="M160.41,56c1.7-2.24,3.4-4.48,5.08-6.71,3.07.24,6.14.46,9.22.68"/>
          <path class="cls-7" d="M211.18,52.07q-10.91-.49-21.8-1.15"/>
          <path class="cls-7" d="M310.74,172.63c0,.57,0,1.14,0,1.71"/>
          <path class="cls-7" d="M322.51,52.85c-7,36.8-12.79,82.1-11.77,119.78"/>
          <path class="cls-7" d="M291.73,263.26l.09.31"/>
          <path class="cls-7" d="M275.71,131.17c-3,42.6,4.28,91,16,132.09"/>
          <path class="cls-7" d="M301.06,206.71q4.1-16.43,9.71-32.37"/>
          <path class="cls-7" d="M301.06,206.71a353.54,353.54,0,0,0-9.33,56.55"/>
          <path class="cls-7" d="M291.71,263.44c0-.06,0-.12,0-.18"/>
          <path class="cls-7" d="M93.84,128.7c24.34,41.53,39.1,89.63,43.43,137.57"/>
          <path class="cls-7" d="M213.64,260.53c-6.84-.74-13.78-1.46-20.7-1.94"/>
          <path class="cls-7" d="M291.71,263.44c-20.74-1.59-37,.69-57.77-.9-6.57-.51-13.38-1.26-20.3-2"/>
          <path class="cls-7" d="M192.94,258.59c-19.67-1.36-39.2-.68-55.67,7.68"/>
          <path class="cls-7" d="M192.94,258.59c.1.62.21,1.26.31,1.88"/>
          <path class="cls-7" d="M168.15,121.8c9.11,44.75,17.37,91.67,24.79,136.79"/>
          <line class="cls-7" x1="168.15" y1="121.8" x2="168.15" y2="121.79"/>
          <path class="cls-7" d="M213.64,260.53l.33,1.39"/>
          <line class="cls-7" x1="199.69" y1="123.07" x2="199.69" y2="123.06"/>
          <path class="cls-7" d="M199.69,123.07c-3.11,45.14,3.31,93.42,13.95,137.46"/>
          <path class="cls-7" d="M189.38,50.92a69.11,69.11,0,0,1,8.86,15.91"/>
          <path class="cls-7" d="M116.72,32.81a10.9,10.9,0,0,0-.35,2.58"/>
          <path class="cls-7" d="M160.41,56c11,2.3,18.38,7.48,27.74,15.43"/>
          <path class="cls-7" d="M160.41,56a61,61,0,0,0-6.72-1c-8.25-.78-16.8-.26-24.54-3.21-6.91-2.63-13-9.29-12.78-16.39"/>
          <path class="cls-7" d="M116.72,32.81c1.24-4.82,5.44-8.49,10.14-10.14s9.83-1.56,14.76-.92C160.33,24.19,178,35.5,189.38,50.92"/>
          <path class="cls-7" d="M207.5,66.38l.58,0c.59,0,1.18,0,1.77-.06"/>
          <path class="cls-7" d="M209.85,66.28a23.63,23.63,0,0,1,3,.16"/>
          <path class="cls-7" d="M207.5,66.38l-.58,0"/>
          <path class="cls-7" d="M188.77,70.67c.31-.35.63-.69,1-1a18.19,18.19,0,0,1,8.51-2.82c2.8-.32,5.73-.28,8.68-.43"/>
          <path class="cls-7" d="M188.15,71.44a13.07,13.07,0,0,0-2.48,5.49c0,.11,0,.21,0,.32a2.73,2.73,0,0,0-.05.4,9,9,0,0,0,.34,3.82,9.46,9.46,0,0,0,2.6,4,13.85,13.85,0,0,0,7.59,3.42,24.41,24.41,0,0,0,7.38-.34l.29-.06c1.83-.34,3.65-.8,5.45-1.27l2.19-.58"/>
          <path class="cls-7" d="M218.84,83.41a10.12,10.12,0,0,0,4.31-6.87,7.87,7.87,0,0,0,0-.84c-.05-3.32-2.42-6.3-5.38-7.82q-.39-.19-.78-.36a15.5,15.5,0,0,0-4.14-1.08"/>
          <path class="cls-7" d="M211.41,86.64a23.75,23.75,0,0,0,6.93-2.88,5.48,5.48,0,0,0,.49-.35"/>
          <path class="cls-7" d="M188.15,71.44c.2-.26.41-.52.62-.77"/>
          <path class="cls-7" d="M211.41,86.64c-5.15-6.55-17.52-10.7-25.74-9.38"/>
          <path class="cls-7" d="M211.18,52.07a70,70,0,0,0-4.26,14.34"/>
          <path class="cls-7" d="M284.26,21.41c1.54-6.13-1.44-13.07-6.59-16.94a12.56,12.56,0,0,0-1.3-.9c-6.56-4-15.07-3.81-22.23-1S241,10.49,235.56,15.94c-9.48,9.52-18.85,22.64-24.38,36.13"/>
          <path class="cls-7" d="M284.26,21.41a12.58,12.58,0,0,1-.67,2c-3.49,8-13.19,10.66-21.49,13.3a124,124,0,0,0-32.63,16"/>
          <path class="cls-7" d="M229.47,52.77A122.85,122.85,0,0,0,217.72,62"/>
          <path class="cls-7" d="M212.89,66.44q2.36-2.31,4.83-4.48"/>
          <path class="cls-7" d="M174.71,50A58.92,58.92,0,0,0,161,40.17c-13.1-6.75-30.45-8.75-44.64-4.78"/>
          <path class="cls-7" d="M174.71,50a59.65,59.65,0,0,1,14.06,20.69"/>
          <path class="cls-7" d="M116.37,35.39h0"/>
          <path class="cls-7" d="M185.67,76.93c-11-4.63-22.52-.26-34.31,1.82a74.49,74.49,0,0,1-9.77,1.11"/>
          <path class="cls-7" d="M141.59,79.86c-9,.39-18-1.27-24-7.74-4.66-5.1-6.38-12.36-6.13-19.26s3.19-13.44,5.21-20"/>
          <path class="cls-7" d="M217.64,52.34a72.21,72.21,0,0,0-10.14,14"/>
          <path class="cls-7" d="M284.28,21.41h0"/>
          <path class="cls-7" d="M284.26,21.41c-23.92.95-50,12.72-66.62,30.93"/>
          <path class="cls-7" d="M209.77,66.33l.08,0"/>
          <path class="cls-7" d="M243.31,52.92l-.91.22"/>
          <path class="cls-7" d="M243.31,52.92c15-3.44,30.75-5.05,43.92-12.91,5-3,9.71-7.23,10.74-12.92s-2.14-11.68-6.63-15.47-8.14-5.14-13.66-7.16"/>
          <path class="cls-7" d="M242.4,53.14c-1.88.44-3.76.91-5.61,1.43-6.57,1.85-13.65,9.9-19.76,12.95"/>
          <path class="cls-7" d="M188.51,85.47a209.06,209.06,0,0,1-20.36,36.32"/>
          <path class="cls-7" d="M203.48,88.55a166.88,166.88,0,0,0-3.79,34.51"/>
          <path class="cls-7" d="M188.51,85.47c-18.14,11.12-43,11.64-65.52,15.7"/>
          <path class="cls-7" d="M185.56,77.65c-10.4,6.36-24.27,7.13-36.39,5.84-3.19-.34-6.38-.78-9.57-1.23"/>
          <path class="cls-7" d="M139.6,82.26c-8.92-1.25-17.84-2.54-26.79-1.84-27,2.1-49.42,21.91-65.44,43.75S19.42,170.89,1.19,190.92A44.12,44.12,0,0,1,39.76,210.3C43.64,190,48.22,169.49,57.47,151s23.66-35.18,42.67-43.4A104.3,104.3,0,0,1,123,101.17"/>
          <path class="cls-7" d="M247.67,102.33a24.61,24.61,0,0,1,3,7.2c1.43,6.15.24,12.24-1.62,18.34"/>
          <path class="cls-7" d="M218.83,83.41h0C226,85.9,231,87.65,237.28,91.84a34.5,34.5,0,0,1,10.38,10.49"/>
          <path class="cls-7" d="M222.23,124.94a48,48,0,0,0,.76-11.47c-.54-7.73-12.14-21.83-19.22-25"/>
          <path class="cls-7" d="M222.23,124.94c-.66,3.84-1.58,7.66-2.38,11.47-5.17,24.62-5.18,50.57,2,74.68a48.27,48.27,0,0,1,31.89-23.48,49.61,49.61,0,0,1-10.3-41.89c1.32-6,3.77-11.93,5.58-17.85"/>
          <path class="cls-7" d="M247.66,102.33h0a180,180,0,0,0,33.65,6.55"/>
          <path class="cls-7" d="M283.28,110.37c3.5,3.52,3.82,9.71,3.8,15a239,239,0,0,0,14,81.36"/>
          <path class="cls-7" d="M301.06,206.71c.12.34.24.69.36,1"/>
          <path class="cls-7" d="M283.28,110.37a8.89,8.89,0,0,0-2-1.49"/>
          <path class="cls-7" d="M310.74,172.63c.56.86,1.15,1.72,1.74,2.56"/>
          <path class="cls-7" d="M289.81,96.87a22,22,0,0,1,2.28,3.23c4.56,8,3.64,17.73,4,26.88a89.74,89.74,0,0,0,14.66,45.65"/>
          <path class="cls-7" d="M223.19,76.54,224,77c10.1,6,25.51,6.82,37.11,8,10.57,1,22.11,4,28.73,11.88"/>
          <path class="cls-7" d="M243.08,53.16l.23-.24"/>
          <path class="cls-7" d="M243.08,53.16A143.46,143.46,0,0,0,224,76.93"/>
        </g>
      </g>
    </g>
  </g>
</svg>
