<svg xmlns="http://www.w3.org/2000/svg" viewBox="0 0 490.43 371.95">
  <defs>
    <style>
      .cls-1 {
        fill: #406325;
      }

      .cls-2 {
        fill: #f9a01b;
      }

      .cls-3 {
        fill: #69539c;
      }

      .cls-4 {
        fill: #e3038c;
      }

      .cls-5 {
        fill: #d56f7e;
      }

      .cls-6 {
        fill: #9669a4;
      }

      .cls-7 {
        fill: none;
        stroke: #231f20;
        stroke-miterlimit: 10;
        stroke-width: 1.32px;
      }
    </style>
  </defs>
  <title>mandala</title>
  <g id="Layer_2" data-name="Layer 2">
    <g id="Layer_1-2" data-name="Layer 1">
      <g>
        <g>
          <path class="cls-1" d="M390.26,195l-.74-.07c-2-3.7-.71-8.35,2.25-11.5s7.54-5.11,12.11-6.21c14.24-3.45,29.27-.27,43.9,1.47s31,1.59,42.22-7L450,205.8c-6.19,5.28-12.46,10.61-19.76,14.62s-15.82,6.66-24.37,6-17-4.91-20.64-11.84A15.23,15.23,0,0,1,390.26,195Z" transform="translate(0 -0.11)"/>
          <path class="cls-2" d="M430.35,105.81a18.26,18.26,0,0,1,4.78-.87c5.7-.22,12,3.86,11.93,9.57,0,4.28-3.41,7.73-6.75,10.42s-6.92,5.15-11.08,6-9-.32-11.42-3.78c-3.54-5-.84-12.12,3.5-16.38.42-.41.85-.8,1.3-1.18a35.13,35.13,0,0,1,7.72-3.77Z" transform="translate(0 -0.11)"/>
          <path class="cls-3" d="M425.74,149.26c2.21,3.18.74,8.28-2.87,9.67s-8.2-1.47-8.4-5.34l-.92,0a6.72,6.72,0,0,1,12.19-4.35Z" transform="translate(0 -0.11)"/>
          <path class="cls-4" d="M409.53,238.75c5.28-.58,10.47,5.63,7.87,10.27-1.81,3.24-6.4,4.18-9.79,2.67a12.46,12.46,0,0,1-6.07-6.56C403.06,241.8,405.94,239.14,409.53,238.75Z" transform="translate(0 -0.11)"/>
          <path class="cls-2" d="M392.85,271.41a11.44,11.44,0,0,1,4.72-7.27,12.64,12.64,0,0,1,13.05-.32,13.2,13.2,0,1,1-19.15,7.48Z" transform="translate(0 -0.11)"/>
          <path class="cls-1" d="M314,292.8c-.18-.17-.35-.32-.52-.5,1.23-3.95,5.57-6.73,10.11-7.4s9.44.52,13.71,2.35c13.32,5.69,22.39,16.85,32.2,26.7s22.34,19.28,37.1,19.32l-55.18,2.52c-8.56.39-17.2.78-25.66-.44s-16.85-4.18-22.89-9.62-9.3-13.64-7-21C298.07,297.71,306,292.18,314,292.8Z" transform="translate(0 -0.11)"/>
          <path class="cls-4" d="M403.34,88.78c.56,4.63-5.54,7.14-10.16,6.55-2.3-.29-4.71-1-6.08-2.9,1.79-3.06,3.85-6.11,7-7.56C397.67,83.27,402.88,84.93,403.34,88.78Z" transform="translate(0 -0.11)"/>
          <path class="cls-3" d="M372.9,277.42c4.15,1.65,5.48,8.42,1.6,10.63-2.76,1.57-6.49.07-8.33-2.52a13.16,13.16,0,0,1-2.1-6.32C366.61,277.2,369.94,276.24,372.9,277.42Z" transform="translate(0 -0.11)"/>
          <path class="cls-1" d="M324.82,83.94q-.27.25-.54.48a11.62,11.62,0,0,1-8.55-8.83c-.89-4.15.33-8.45,2.26-12.31,6-12,18.26-20.44,29-29.47S368,13.35,367.63.16q2.14,24.62,4.3,49.21c.66,7.64,1.33,15.34.2,22.93S367.91,87.46,362,93s-15,8.67-23.33,6.81C330.75,98,324.35,91.12,324.82,83.94Z" transform="translate(0 -0.11)"/>
          <path class="cls-5" d="M341.73,221.33c2.1,1,4.32,2.85,4,5.15s-2.8,3.37-5,3.87a28.87,28.87,0,0,1-19.3-2.52,27.81,27.81,0,0,0-5-3.4c.14-.37.26-.75.39-1.12l.1,0a34.79,34.79,0,0,0,10.41-4.07A25.06,25.06,0,0,1,341.73,221.33Z" transform="translate(0 -0.11)"/>
          <path class="cls-2" d="M338.5,147.52a5.41,5.41,0,0,1,2.81,4.49c-.06,3.09-3.41,5.09-6.47,5.49a17.69,17.69,0,0,1-8.12-.95A24.72,24.72,0,0,0,317,151l0-.1a58.48,58.48,0,0,0,9-4.36,30.3,30.3,0,0,1,7.24-.43A11.75,11.75,0,0,1,338.5,147.52Z" transform="translate(0 -0.11)"/>
          <path class="cls-2" d="M335.92,133.52a3.93,3.93,0,0,1,.51,4.36,10.36,10.36,0,0,1-3,3.49,57.4,57.4,0,0,1-7.45,5.2,30.55,30.55,0,0,0-10.26,3.87,35.15,35.15,0,0,1,13.53-16.31C331.26,132.82,334.19,131.81,335.92,133.52Z" transform="translate(0 -0.11)"/>
          <path class="cls-2" d="M334.18,169c.55,2.27.52,5.15-1.48,6.35s-4.39-.06-6.15-1.45a28.7,28.7,0,0,1-10.18-16.55,28.29,28.29,0,0,0-.51-6c.37-.14.74-.27,1.11-.42l0,.1a34.49,34.49,0,0,0,9.72,5.52A25.07,25.07,0,0,1,334.18,169Z" transform="translate(0 -0.11)"/>
          <path class="cls-5" d="M333,205.08c2.37,2,1.8,5.85.19,8.48a17.52,17.52,0,0,1-5.84,5.71,24.54,24.54,0,0,0-10.41,4.07l-.1,0a60.36,60.36,0,0,0,2.26-9.72,29.68,29.68,0,0,1,4.23-5.9,11.85,11.85,0,0,1,4.42-3.27A5.41,5.41,0,0,1,333,205.08Z" transform="translate(0 -0.11)"/>
          <path class="cls-5" d="M316.37,225.14l-.2.06c.08-.22.17-.44.24-.67a28.24,28.24,0,0,0,5,3.3,28.2,28.2,0,0,1,6.87,8.63c1.3,2.52,2.21,5.39,1.68,8.17s-2.93,5.35-5.76,5.3c-3.56-.06-5.83-3.79-7-7.17a43.48,43.48,0,0,1-2.11-10.23,18.83,18.83,0,0,0,0-5.14l.22,0c.28-.71.56-1.42.81-2.14Z" transform="translate(0 -0.11)"/>
          <path class="cls-1" d="M317.64,181.16c3.92.74,5.89,6.31,3.29,9.35s-8.41,2-9.74-1.82S313.71,180.43,317.64,181.16Z" transform="translate(0 -0.11)"/>
          <path class="cls-5" d="M319.73,204.53a58.48,58.48,0,0,1-.64,9.06A30.45,30.45,0,0,0,315.63,224a35.16,35.16,0,0,1-4.14-20.79c.27-2.42,1.33-5.33,3.75-5.59a3.92,3.92,0,0,1,3.7,2.35A10.07,10.07,0,0,1,319.73,204.53Z" transform="translate(0 -0.11)"/>
          <path class="cls-2" d="M318.77,125.94c.83.93.79,2.33.69,3.56a111.26,111.26,0,0,1-3.82,21c-.41.25-.81.5-1.21.77-.36-.2-.73-.4-1.1-.58a27,27,0,0,1-1-21.24,7.5,7.5,0,0,1,2.42-3.64A3.16,3.16,0,0,1,318.77,125.94Z" transform="translate(0 -0.11)"/>
          <path class="cls-2" d="M315.76,151.39a26.83,26.83,0,0,0,.61,6,28.47,28.47,0,0,1-2.4,10.75c-1.15,2.59-2.79,5.11-5.29,6.44s-6,1.1-7.74-1.13c-2.2-2.8-.73-6.92,1.19-9.93a42.6,42.6,0,0,1,6.64-8.08,19.07,19.07,0,0,0,4-3.25l.17.16c.73-.23,1.46-.47,2.18-.72l.31.18-.3-.18Z" transform="translate(0 -0.11)"/>
          <path class="cls-5" d="M315.63,224c-.08.47-.13,1-.17,1.43-.38.15-.77.31-1.15.49a27,27,0,0,1-17.14-12.58,7.46,7.46,0,0,1-1.3-4.17,3.17,3.17,0,0,1,2.68-3c1.25-.06,2.3.85,3.21,1.71A111.93,111.93,0,0,1,315.63,224Z" transform="translate(0 -0.11)"/>
          <path class="cls-5" d="M314,226.11l.28-.13.06,0s0,0,0,0l1.14-.46c-.06.62-.1,1.24-.11,1.86l-.22,0c0-.14,0-.29-.07-.43a43.12,43.12,0,0,0,.09,5.57,19.52,19.52,0,0,1-3.7,9.26,9.44,9.44,0,0,1-4.51,3.57,4.72,4.72,0,0,1-5.24-1.5c-1.29-1.9-.54-4.48.51-6.51A25.61,25.61,0,0,1,314,226.11Z" transform="translate(0 -0.11)"/>
          <path class="cls-2" d="M313,150.48l.3.15,0,0c.36.2.71.41,1.08.6-.52.34-1,.7-1.52,1.09l-.17-.16.3-.32a41.19,41.19,0,0,0-4.25,3.57,19.62,19.62,0,0,1-9.55,3,9.37,9.37,0,0,1-5.61-1.25,4.71,4.71,0,0,1-2.13-5c.66-2.19,3.13-3.25,5.38-3.7A25.61,25.61,0,0,1,313,150.48Z" transform="translate(0 -0.11)"/>
          <path class="cls-5" d="M313.94,226.1a55.84,55.84,0,0,1-13.44,3.83c-2.09.26-4.37.27-6.13-.9s-2.59-3.9-1.14-5.44c1.23-1.33,3.34-1.17,5.14-.87Q306.25,224,313.94,226.1Z" transform="translate(0 -0.11)"/>
          <path class="cls-2" d="M313,150.46a56,56,0,0,1-11.44-8c-1.52-1.46-3-3.23-3.17-5.33s1.41-4.47,3.52-4.32c1.81.12,3,1.87,3.91,3.45A158.07,158.07,0,0,1,313,150.46Z" transform="translate(0 -0.11)"/>
          <path class="cls-3" d="M291.63,56.89a6.66,6.66,0,0,1,3.92-9.14c3.82-1,8.13,2.29,8.19,6.24a7,7,0,0,1-7.94,6.7,6.92,6.92,0,0,1-4.75-3.58Z" transform="translate(0 -0.11)"/>
          <path class="cls-3" d="M287.9,216.75c2.78,3.83,5,9.25,2.15,13s-8.26,3.32-12.63,2.09a58.46,58.46,0,0,1-32-23.12,57.31,57.31,0,0,0-5.63-10.89c.59-.54,1.18-1.08,1.75-1.63l.14.15c7.28,2,15.08,3.27,22.56,2.79A50.71,50.71,0,0,1,287.9,216.75Z" transform="translate(0 -0.11)"/>
          <path class="cls-6" d="M288,179.29c2.31,5.83-2.43,12.18-7.85,15.32a36,36,0,0,1-15.91,4.57,49.93,49.93,0,0,0-22.56-2.79l-.14-.15A121.17,121.17,0,0,0,255,181.05a60,60,0,0,1,13.21-6.43c3.55-1.21,7.33-2.1,11.05-1.57S286.6,175.81,288,179.29Z" transform="translate(0 -0.11)"/>
          <path class="cls-1" d="M279,120.35l-1.7-.31a6.4,6.4,0,0,1,7.41-2.89,5.89,5.89,0,0,1,3.18,7.9,5.47,5.47,0,0,1-8.19,1.48A5.18,5.18,0,0,1,279,120.35Z" transform="translate(0 -0.11)"/>
          <path class="cls-1" d="M276.26,258.25c-1.12-2.73-1.88-2.5.12-5.79,1.71-2.8,5.15-2.91,7.62-.75s2.57,6.58,0,8.64a5.23,5.23,0,0,1-7.65-1.79,1.53,1.53,0,0,1-.11-.27S276.26,258.26,276.26,258.25Z" transform="translate(0 -0.11)"/>
          <path class="cls-4" d="M281.86,327.24c2.6,3.27-.95,9-5.1,9.52s-8-4.55-6-8.26C272,325.36,277.24,321.47,281.86,327.24Z" transform="translate(0 -0.11)"/>
          <path class="cls-4" d="M271.81,273c2.2.76,4.63,2.31,4.57,4.64s-2.39,3.68-4.5,4.43a28.74,28.74,0,0,1-19.49-.24,28,28,0,0,0-5.32-2.77c.09-.38.16-.76.24-1.15l.1,0a34.51,34.51,0,0,0,9.87-5.28A25.06,25.06,0,0,1,271.81,273Z" transform="translate(0 -0.11)"/>
          <path class="cls-2" d="M260,38l0,0c-6-3.64-6.32-13.78-.52-17.76s15.23,0,16.38,7-6.45,13.78-13.25,11.89A8.87,8.87,0,0,1,260,38Z" transform="translate(0 -0.11)"/>
          <path class="cls-4" d="M271.05,121.91c1.37,1.89,2.45,4.56,1.06,6.43s-4.07,1.63-6.22,1A28.83,28.83,0,0,1,250.1,118a27.93,27.93,0,0,0-2.76-5.35c.29-.27.58-.53.86-.81l.08.08a34.54,34.54,0,0,0,11.09,1.37A25,25,0,0,1,271.05,121.91Z" transform="translate(0 -0.11)"/>
          <path class="cls-4" d="M271.09,103.46c1.14,2.87-1.2,6-3.87,7.55a17.67,17.67,0,0,1-7.85,2.24,24.62,24.62,0,0,0-11.09-1.37l-.08-.08a58.82,58.82,0,0,0,6.63-7.48,29.24,29.24,0,0,1,6.51-3.16,11.69,11.69,0,0,1,5.44-.77A5.38,5.38,0,0,1,271.09,103.46Z" transform="translate(0 -0.11)"/>
          <path class="cls-3" d="M263.48,148.83c2.93,1.19,4.46,4.61,4.36,7.76s-1.51,6.13-3,8.92A119.93,119.93,0,0,1,255,181.05a62,62,0,0,0-16.25,15.26,71.39,71.39,0,0,1,12.67-41.12C254.21,151.14,258.91,147,263.48,148.83Z" transform="translate(0 -0.11)"/>
          <path class="cls-4" d="M260.26,289.57c1.58,2.34,2.84,5.09,2.63,7.91s-2.27,5.65-5.09,5.94c-3.54.36-6.24-3.08-7.76-6.3a42.18,42.18,0,0,1-3.29-9.92,20.21,20.21,0,0,0-.64-5.08l.21-.06c.21-.74.39-1.48.57-2.23l.31-.17-.31.16c.06-.24.11-.47.16-.71a26.65,26.65,0,0,0,5.34,2.67A28.2,28.2,0,0,1,260.26,289.57Z" transform="translate(0 -0.11)"/>
          <path class="cls-4" d="M261.21,257.85c2.59,1.69,2.48,5.59,1.19,8.39a17.78,17.78,0,0,1-5.12,6.36,24.69,24.69,0,0,0-9.87,5.28l-.1,0a58.27,58.27,0,0,0,1.1-9.94,30.12,30.12,0,0,1,3.51-6.33,11.54,11.54,0,0,1,4-3.77A5.39,5.39,0,0,1,261.21,257.85Z" transform="translate(0 -0.11)"/>
          <path class="cls-4" d="M259,88.45a3.94,3.94,0,0,1,2.15,3.83,10.15,10.15,0,0,1-1.48,4.39,59.88,59.88,0,0,1-4.86,7.65,30.63,30.63,0,0,0-8,7.52,35.22,35.22,0,0,1,6.23-20.26C254.45,89.59,256.77,87.54,259,88.45Z" transform="translate(0 -0.11)"/>
          <path class="cls-4" d="M250.1,118A28.32,28.32,0,0,1,252,128.84c-.07,2.83-.61,5.79-2.41,8s-5.12,3.31-7.58,1.92c-3.11-1.75-3.33-6.11-2.72-9.62a42.69,42.69,0,0,1,3-10,18.85,18.85,0,0,0,2.4-4.52l.22.08c.59-.49,1.17-1,1.73-1.5l.36,0-.34,0,.53-.47A27.6,27.6,0,0,0,250.1,118Z" transform="translate(0 -0.11)"/>
          <path class="cls-3" d="M245.4,208.76a57.69,57.69,0,0,1,3.9,22.05c-.12,5.75-1.24,11.75-4.89,16.2S234,253.73,229,250.92c-6.3-3.55-6.75-12.42-5.52-19.54a87.14,87.14,0,0,1,6.14-20.3,39.06,39.06,0,0,0,4.86-9.1l.47.07q1.8-1.49,3.54-3l.71.08-.68-.11,1.07-1A55.59,55.59,0,0,0,245.4,208.76Z" transform="translate(0 -0.11)"/>
          <path class="cls-2" d="M236.24,331c9.58,1.87,15.91,13.45,12.33,22.53s-16.14,13.19-24.4,8c-6.75-4.25-9.13-13.76-6.16-21a0,0,0,0,1,0,0C221.35,334.05,229,329.62,236.24,331Z" transform="translate(0 -0.11)"/>
          <path class="cls-4" d="M248,258.87a58.25,58.25,0,0,1,.43,9.05,30.53,30.53,0,0,0-2.2,10.76,35.19,35.19,0,0,1-6.58-20.15c0-2.43.7-5.45,3.07-6a3.91,3.91,0,0,1,4,1.89A10.17,10.17,0,0,1,248,258.87Z" transform="translate(0 -0.11)"/>
          <path class="cls-4" d="M244.81,281l.24-.16a.2.2,0,0,0,.08,0h0l1.08-.58c0,.62.06,1.24.11,1.86l-.21.06-.12-.43a40.79,40.79,0,0,0,.76,5.51,19.7,19.7,0,0,1-2.59,9.65,9.52,9.52,0,0,1-4.06,4.08,4.72,4.72,0,0,1-5.38-.88c-1.5-1.73-1.07-4.38-.26-6.52A25.55,25.55,0,0,1,244.81,281Z" transform="translate(0 -0.11)"/>
          <path class="cls-4" d="M246.21,278.73c0,.47,0,1,0,1.44-.37.19-.72.39-1.08.61h0a27,27,0,0,1-18.51-10.46,7.47,7.47,0,0,1-1.78-4,3.16,3.16,0,0,1,2.3-3.34,4.69,4.69,0,0,1,3.38,1.32A110.44,110.44,0,0,1,246.21,278.73Z" transform="translate(0 -0.11)"/>
          <path class="cls-4" d="M246.8,111.87c-.28.39-.56.78-.82,1.19q-.61-.09-1.23-.12h0a27,27,0,0,1-9.11-19.21,7.5,7.5,0,0,1,.85-4.29,3.15,3.15,0,0,1,3.8-1.4c1.12.54,1.62,1.84,2,3A111.47,111.47,0,0,1,246.8,111.87Z" transform="translate(0 -0.11)"/>
          <path class="cls-4" d="M244.36,112.92a2.36,2.36,0,0,1,.38,0h0l1.21.15c-.35.51-.67,1-1,1.58l-.22-.08a3.39,3.39,0,0,0,.15-.41,41,41,0,0,0-2.55,4.93,19.71,19.71,0,0,1-7.68,6.4,9.43,9.43,0,0,1-5.66,1,4.72,4.72,0,0,1-3.9-3.82c-.23-2.28,1.65-4.2,3.55-5.48A25.5,25.5,0,0,1,244.36,112.92Z" transform="translate(0 -0.11)"/>
          <path class="cls-4" d="M244.78,281a55.44,55.44,0,0,1-12.89,5.39c-2,.51-4.31.79-6.2-.16s-3-3.57-1.78-5.28c1.07-1.46,3.19-1.55,5-1.47Q236.88,279.81,244.78,281Z" transform="translate(0 -0.11)"/>
          <path class="cls-4" d="M244.33,112.88a55.54,55.54,0,0,1-13.64-3c-2-.77-4-1.84-5-3.71s-.41-4.66,1.59-5.33c1.72-.58,3.5.56,4.94,1.68A159.07,159.07,0,0,1,244.33,112.88Z" transform="translate(0 -0.11)"/>
          <path class="cls-6" d="M238.66,196.37c-.57.79-1.13,1.59-1.66,2.4-.83-.1-1.67-.18-2.51-.24a54.8,54.8,0,0,1-18.49-39c-.1-3,.1-6.16,1.71-8.7s5-4.14,7.72-2.84c2.28,1.1,3.29,3.74,4.06,6.15A223.56,223.56,0,0,1,238.66,196.37Z" transform="translate(0 -0.11)"/>
          <path class="cls-6" d="M234.5,198.54l2.46.29c-.7,1-1.36,2.13-2,3.22l-.47-.07c.12-.31.24-.62.34-.93a86.59,86.59,0,0,0-5.2,10,39.91,39.91,0,0,1-15.57,13c-3.59,1.66-7.61,2.79-11.49,2s-7.51-3.82-7.91-7.75c-.47-4.63,3.35-8.53,7.2-11.13a52,52,0,0,1,31.86-8.72l.61,0Z" transform="translate(0 -0.11)"/>
          <path class="cls-3" d="M233.68,198.44c-9.45-1.17-18.87-2.67-27.71-6.13-4-1.57-8.07-3.75-10.08-7.53S195,175.32,199.1,174c3.5-1.18,7.12,1.16,10,3.41A322,322,0,0,1,233.68,198.44Z" transform="translate(0 -0.11)"/>
          <path class="cls-4" d="M220.36,50.71c4.7.87,4.56,9.24.73,12.11s-10.27.57-11.42-4.07C210.24,54,211.91,49.15,220.36,50.71Z" transform="translate(0 -0.11)"/>
          <path class="cls-1" d="M215.68,262.45c2.33,2.32,1.23,7-1.88,8s-6.79-2-6.31-5.29l.19-.81C208.71,261.25,213.36,260.13,215.68,262.45Z" transform="translate(0 -0.11)"/>
          <path class="cls-1" d="M212.94,123.27c3.86,1.32,5.1,7.2,2.08,10s-8.77,1-9.75-2.94l-.09-.43C204.49,125.85,209.07,121.94,212.94,123.27Z" transform="translate(0 -0.11)"/>
          <path class="cls-2" d="M202.25,251.94c1.36,1.88,2.44,4.55,1.06,6.42s-4.07,1.63-6.23,1A28.85,28.85,0,0,1,181.29,248a27.85,27.85,0,0,0-2.76-5.34q.43-.39.87-.81l.07.08a34.57,34.57,0,0,0,11.09,1.37A25.07,25.07,0,0,1,202.25,251.94Z" transform="translate(0 -0.11)"/>
          <path class="cls-2" d="M202.29,233.48c1.14,2.87-1.2,6-3.87,7.55a17.65,17.65,0,0,1-7.86,2.24,24.64,24.64,0,0,0-11.09-1.37l-.07-.08a59.52,59.52,0,0,0,6.62-7.47,30.17,30.17,0,0,1,6.51-3.17,11.69,11.69,0,0,1,5.44-.77A5.38,5.38,0,0,1,202.29,233.48Z" transform="translate(0 -0.11)"/>
          <path class="cls-3" d="M199.21,319.28c4.37,2.22,4.78,9.44.69,12.13s-10.56-.53-10.88-5.4v-.12C188.78,321,194.86,317.07,199.21,319.28Z" transform="translate(0 -0.11)"/>
          <path class="cls-5" d="M196.85,164.81c1.37,1.88,2.46,4.55,1.07,6.42s-4.07,1.63-6.23,1a28.81,28.81,0,0,1-15.78-11.41,28.48,28.48,0,0,0-2.77-5.34l.87-.81.07.07a34.8,34.8,0,0,0,11.08,1.38A25,25,0,0,1,196.85,164.81Z" transform="translate(0 -0.11)"/>
          <path class="cls-5" d="M196.9,146.36c1.13,2.86-1.2,6-3.87,7.54a17.8,17.8,0,0,1-7.87,2.25,24.44,24.44,0,0,0-11.08-1.38l-.07-.07a61.14,61.14,0,0,0,6.63-7.48,30.32,30.32,0,0,1,6.5-3.17,11.75,11.75,0,0,1,5.45-.77A5.42,5.42,0,0,1,196.9,146.36Z" transform="translate(0 -0.11)"/>
          <path class="cls-1" d="M180.2,89.1l.57.43c-.67,4-4.6,7.29-9,8.45s-9.45.51-13.93-.83c-14-4.18-24.53-14.27-35.62-23S97.39,57.49,82.74,59.06l54.42-8.54c8.44-1.33,17-2.65,25.52-2.38s17.3,2.31,24,7,11.11,12.52,9.83,20.09C195.32,82.47,188.24,88.82,180.2,89.1Z" transform="translate(0 -0.11)"/>
          <path class="cls-2" d="M190.21,218.47a3.94,3.94,0,0,1,2.15,3.83,10.26,10.26,0,0,1-1.47,4.39,59.77,59.77,0,0,1-4.87,7.66,30.32,30.32,0,0,0-8,7.52,35.14,35.14,0,0,1,6.24-20.26C185.65,219.61,188,217.56,190.21,218.47Z" transform="translate(0 -0.11)"/>
          <path class="cls-5" d="M184.83,131.34a4,4,0,0,1,2.14,3.83,10.13,10.13,0,0,1-1.47,4.39,60,60,0,0,1-4.86,7.66,30.35,30.35,0,0,0-8,7.52,35.18,35.18,0,0,1,6.24-20.26C180.26,132.48,182.57,130.43,184.83,131.34Z" transform="translate(0 -0.11)"/>
          <path class="cls-2" d="M181.29,248a28.37,28.37,0,0,1,1.94,10.89c-.06,2.83-.61,5.79-2.41,8s-5.11,3.31-7.58,1.92c-3.11-1.74-3.33-6.11-2.72-9.62a42.94,42.94,0,0,1,3-10,19.31,19.31,0,0,0,2.39-4.51l.22.08c.6-.49,1.18-1,1.74-1.49l.35,0-.34,0c.18-.15.36-.31.53-.48A27.86,27.86,0,0,0,181.29,248Z" transform="translate(0 -0.11)"/>
          <path class="cls-5" d="M175.91,160.85a28.51,28.51,0,0,1,1.94,10.88c-.07,2.83-.62,5.79-2.42,8s-5.11,3.31-7.58,1.92c-3.1-1.74-3.33-6.11-2.72-9.62a43.1,43.1,0,0,1,3-10,18.62,18.62,0,0,0,2.4-4.51l.23.08c.58-.48,1.16-1,1.73-1.49l.36,0-.35-.06.54-.47A26.53,26.53,0,0,0,175.91,160.85Z" transform="translate(0 -0.11)"/>
          <path class="cls-2" d="M178,241.9c-.28.39-.56.78-.82,1.18-.4-.06-.82-.1-1.23-.12a27,27,0,0,1-9.12-19.21,7.58,7.58,0,0,1,.85-4.29,3.15,3.15,0,0,1,3.8-1.4c1.12.54,1.62,1.84,2,3A110.49,110.49,0,0,1,178,241.9Z" transform="translate(0 -0.11)"/>
          <path class="cls-1" d="M172.2,192.89c3.45.16,5.91,4.55,4.25,7.57s-6.69,3.3-8.67.48l-.5-.89C165.89,196.88,168.74,192.74,172.2,192.89Z" transform="translate(0 -0.11)"/>
          <path class="cls-2" d="M175.55,242.94a2.36,2.36,0,0,1,.37,0h0l1.21.15c-.34.52-.67,1-1,1.58l-.22-.08c.06-.14.11-.27.16-.41a41,41,0,0,0-2.55,4.92,19.69,19.69,0,0,1-7.69,6.41,9.42,9.42,0,0,1-5.66,1,4.7,4.7,0,0,1-3.89-3.82c-.24-2.28,1.65-4.19,3.54-5.48A25.57,25.57,0,0,1,175.55,242.94Z" transform="translate(0 -0.11)"/>
          <path class="cls-1" d="M167.21,292.74c.19-.15.39-.28.58-.42a11.24,11.24,0,0,1,7.45,9.6c.4,4.2-1.33,8.37-3.7,12-7.41,11.41-20.59,18.6-32.36,26.55S115.9,358.86,114.68,372q.78-24.67,1.57-49.34c.24-7.66.5-15.38,2.53-22.82s6-14.68,12.55-19.61,16-7.2,24-4.56C163,278.18,168.51,285.65,167.21,292.74Z" transform="translate(0 -0.11)"/>
          <path class="cls-5" d="M172.6,154.77c-.28.39-.55.78-.82,1.18l-1.22-.12h0a27,27,0,0,1-9.11-19.21,7.42,7.42,0,0,1,.84-4.29,3.15,3.15,0,0,1,3.8-1.4,4.63,4.63,0,0,1,2,3A109.73,109.73,0,0,1,172.6,154.77Z" transform="translate(0 -0.11)"/>
          <path class="cls-5" d="M170.55,155.83h0l1.2.15c-.34.52-.66,1-1,1.58l-.23-.08c.05-.13.11-.27.15-.41a44,44,0,0,0-2.55,4.92,19.51,19.51,0,0,1-7.68,6.41,9.39,9.39,0,0,1-5.65,1,4.71,4.71,0,0,1-3.9-3.82c-.23-2.27,1.65-4.2,3.55-5.48a25.53,25.53,0,0,1,15.69-4.29Z" transform="translate(0 -0.11)"/>
          <path class="cls-2" d="M175.53,242.91a55.81,55.81,0,0,1-13.64-3c-2-.77-4-1.84-5-3.71s-.42-4.66,1.58-5.33c1.72-.58,3.5.57,4.94,1.68Q169.74,237.42,175.53,242.91Z" transform="translate(0 -0.11)"/>
          <path class="cls-5" d="M170.14,155.78a56,56,0,0,1-13.65-3c-2-.77-4-1.84-5-3.71s-.42-4.66,1.58-5.33c1.72-.58,3.51.57,4.94,1.68Q164.35,150.29,170.14,155.78Z" transform="translate(0 -0.11)"/>
          <path class="cls-3" d="M118,97.19c-.55-2.28-1.82-4,2.83-7.47,2.91-2.21,7.69,1.17,8.79,4.65s-1.46,7.76-5.09,8.06c-2.62.22-5.53-1.3-6.36-3.4A5.71,5.71,0,0,0,118,97.19Z" transform="translate(0 -0.11)"/>
          <path class="cls-4" d="M127,264c1.69,2.75.38,7-2.71,7.92s-6.64-2.6-5.39-5.58C119.11,262.36,125.31,261.21,127,264Z" transform="translate(0 -0.11)"/>
          <path class="cls-2" d="M110.17,101.89c1.68,2,3,4.55,2.88,7.18-.23,3.81-3.49,6.74-6.87,8.49-6,3.1-13.43,3.85-19.45.82a16.14,16.14,0,0,1-8.16-9.94,12.19,12.19,0,0,1,.41-2.75c1.65-6.25,7.74-10.85,14.18-11.41S106.08,96.88,110.17,101.89Z" transform="translate(0 -0.11)"/>
          <path class="cls-2" d="M84.23,243.07c3-4.3,8.51-7,13.75-6.08,8,1.48,13.53,10.63,11.65,18.59s-10.26,13.59-18.42,13c-6.22-.44-12.45-4.72-13.6-10.85-.81-4.35,1-8.88,4-12.17A21.72,21.72,0,0,1,84.23,243.07Z" transform="translate(0 -0.11)"/>
          <path class="cls-1" d="M101.93,188.36l.73.12c1.61,3.83-.06,8.37-3.3,11.3s-8,4.54-12.63,5.3c-14.52,2.4-29.21-1.87-43.62-4.68S12.35,196.55.39,204.27l43-31c6.67-4.81,13.4-9.66,21-13.13s16.39-5.47,24.85-4.23,16.5,6.14,19.48,13.32A15.42,15.42,0,0,1,101.93,188.36Z" transform="translate(0 -0.11)"/>
          <path class="cls-3" d="M102.65,215.94c1.42,3.36-1.4,7.73-5.06,7.81s-6.66-4.16-5.39-7.58C94.76,211.75,101.12,212.3,102.65,215.94Z" transform="translate(0 -0.11)"/>
          <path class="cls-4" d="M92,136.88l-.12-.12c1.7-1.74,3.86-3.39,6.27-2.79,3.8.95,5.89,5.92,4.3,9.5s-6.71,5-9.85,2.69A6.47,6.47,0,0,1,92,136.88Z" transform="translate(0 -0.11)"/>
        </g>
        <g>
          <path class="cls-7" d="M170.14,155.78l0,0,.28.26" transform="translate(0 -0.11)"/>
          <path class="cls-7" d="M170.14,155.78a56,56,0,0,1-13.65-3c-2-.77-4-1.84-5-3.71s-.42-4.66,1.58-5.33c1.72-.58,3.51.57,4.94,1.68Q164.35,150.29,170.14,155.78Z" transform="translate(0 -0.11)"/>
          <path class="cls-7" d="M170.55,155.83l-.41-.05" transform="translate(0 -0.11)"/>
          <path class="cls-7" d="M170.56,155.83l1.22.12.75.1.35.06-.36,0c-.25,0-.51-.06-.76-.09l-1.2-.15" transform="translate(0 -0.11)"/>
          <line class="cls-7" x1="170.56" y1="155.72" x2="170.55" y2="155.72"/>
          <path class="cls-7" d="M171,156.23c-.16-.13-.32-.26-.47-.4a27,27,0,0,1-9.11-19.21,7.42,7.42,0,0,1,.84-4.29,3.15,3.15,0,0,1,3.8-1.4,4.63,4.63,0,0,1,2,3,109.73,109.73,0,0,1,4.52,20.81l0,.2v-.23a35.18,35.18,0,0,1,6.24-20.26c1.39-2,3.7-4,6-3.14a4,4,0,0,1,2.14,3.83,10.13,10.13,0,0,1-1.47,4.39,60,60,0,0,1-4.86,7.66A61.14,61.14,0,0,1,174,154.7l-.87.81-.07.07-.54.47s0,0,0,0c-.57.51-1.15,1-1.73,1.49.31-.54.63-1.06,1-1.58,0,0,0,0,0,0,.27-.4.54-.79.82-1.18l0,0a30.48,30.48,0,0,1,14.51-10.69,11.75,11.75,0,0,1,5.45-.77,5.42,5.42,0,0,1,4.31,3.08c1.13,2.86-1.2,6-3.87,7.54a17.8,17.8,0,0,1-7.87,2.25,34.8,34.8,0,0,1-11.08-1.38,24.44,24.44,0,0,1,11.08,1.38,25,25,0,0,1,11.69,8.66c1.37,1.88,2.46,4.55,1.07,6.42s-4.07,1.63-6.23,1a28.81,28.81,0,0,1-15.78-11.41,26.53,26.53,0,0,1-2.84-5.27c-.07-.15-.13-.31-.19-.47l.26.4a28.39,28.39,0,0,1,4.71,16.22c-.07,2.83-.62,5.79-2.42,8s-5.11,3.31-7.58,1.92c-3.1-1.74-3.33-6.11-2.72-9.62a43.1,43.1,0,0,1,3-10,44,44,0,0,1,2.55-4.92c0,.14-.1.28-.15.41a18.62,18.62,0,0,1-2.4,4.51,19.51,19.51,0,0,1-7.68,6.41,9.39,9.39,0,0,1-5.65,1,4.71,4.71,0,0,1-3.9-3.82c-.23-2.27,1.65-4.2,3.55-5.48a25.53,25.53,0,0,1,15.69-4.29l.38,0" transform="translate(0 -0.11)"/>
          <path class="cls-7" d="M244.78,281h0l.39,0" transform="translate(0 -0.11)"/>
          <path class="cls-7" d="M244.78,281a55.44,55.44,0,0,1-12.89,5.39c-2,.51-4.31.79-6.2-.16s-3-3.57-1.78-5.28c1.07-1.46,3.19-1.55,5-1.47Q236.88,279.81,244.78,281Z" transform="translate(0 -0.11)"/>
          <path class="cls-7" d="M245.05,280.82l-.27.15" transform="translate(0 -0.11)"/>
          <path class="cls-7" d="M245.13,280.78c.36-.22.71-.42,1.08-.61a6.24,6.24,0,0,1,.68-.35l.31-.16-.31.17c-.23.13-.46.24-.68.37l-1.08.58" transform="translate(0 -0.11)"/>
          <path class="cls-7" d="M245.13,280.78a.2.2,0,0,1-.08,0" transform="translate(0 -0.11)"/>
          <path class="cls-7" d="M245.75,280.84l-.62-.06h0a27,27,0,0,1-18.51-10.46,7.47,7.47,0,0,1-1.78-4,3.16,3.16,0,0,1,2.3-3.34,4.69,4.69,0,0,1,3.38,1.32,110.44,110.44,0,0,1,15.69,14.41l.13.15-.13-.2a35.19,35.19,0,0,1-6.58-20.15c0-2.43.7-5.45,3.07-6a3.91,3.91,0,0,1,4,1.89,10.17,10.17,0,0,1,1.33,4.44,60.5,60.5,0,0,1-.67,19c-.08.39-.15.77-.24,1.15a.3.3,0,0,1,0,.1c-.05.24-.1.47-.16.71h0c-.18.75-.36,1.49-.57,2.23,0-.62-.09-1.24-.11-1.86v0c0-.48,0-1,0-1.44a0,0,0,0,1,0-.05,30.53,30.53,0,0,1,2.2-10.76,30.12,30.12,0,0,1,3.51-6.33,11.54,11.54,0,0,1,4-3.77,5.39,5.39,0,0,1,5.29,0c2.59,1.69,2.48,5.59,1.19,8.39a17.78,17.78,0,0,1-5.12,6.36,34.51,34.51,0,0,1-9.87,5.28,24.69,24.69,0,0,1,9.87-5.28,25.06,25.06,0,0,1,14.53.35c2.2.76,4.63,2.31,4.57,4.64s-2.39,3.68-4.5,4.43a28.74,28.74,0,0,1-19.49-.24,26.65,26.65,0,0,1-5.34-2.67l-.42-.27.44.17a28.57,28.57,0,0,1,13.19,10.56c1.58,2.34,2.84,5.09,2.63,7.91s-2.27,5.65-5.09,5.94c-3.54.36-6.24-3.08-7.76-6.3a42.18,42.18,0,0,1-3.29-9.92,40.79,40.79,0,0,1-.76-5.51l.12.43a20.21,20.21,0,0,1,.64,5.08,19.7,19.7,0,0,1-2.59,9.65,9.52,9.52,0,0,1-4.06,4.08,4.72,4.72,0,0,1-5.38-.88c-1.5-1.73-1.07-4.38-.26-6.52A25.55,25.55,0,0,1,244.81,281l.24-.16" transform="translate(0 -0.11)"/>
          <path class="cls-7" d="M244.33,112.88l0,0a3.45,3.45,0,0,1,.28.26" transform="translate(0 -0.11)"/>
          <path class="cls-7" d="M244.33,112.88a55.54,55.54,0,0,1-13.64-3c-2-.77-4-1.84-5-3.71s-.41-4.66,1.59-5.33c1.72-.58,3.5.56,4.94,1.68A159.07,159.07,0,0,1,244.33,112.88Z" transform="translate(0 -0.11)"/>
          <path class="cls-7" d="M244.74,112.94l-.41-.06" transform="translate(0 -0.11)"/>
          <path class="cls-7" d="M244.75,112.94q.62,0,1.23.12l.75.1.34,0-.36,0-.75-.08-1.21-.15" transform="translate(0 -0.11)"/>
          <line class="cls-7" x1="244.75" y1="112.83" x2="244.74" y2="112.83"/>
          <path class="cls-7" d="M246.83,111.84a30.63,30.63,0,0,1,8-7.52,29.24,29.24,0,0,1,6.51-3.16,11.69,11.69,0,0,1,5.44-.77,5.38,5.38,0,0,1,4.31,3.07c1.14,2.87-1.2,6-3.87,7.55a17.67,17.67,0,0,1-7.85,2.24,34.54,34.54,0,0,1-11.09-1.37,24.62,24.62,0,0,1,11.09,1.37,25,25,0,0,1,11.68,8.66c1.37,1.89,2.45,4.56,1.06,6.43s-4.07,1.63-6.22,1A28.83,28.83,0,0,1,250.1,118a27.6,27.6,0,0,1-2.84-5.27l-.18-.47.26.39A27.93,27.93,0,0,1,250.1,118,28.32,28.32,0,0,1,252,128.84c-.07,2.83-.61,5.79-2.41,8s-5.12,3.31-7.58,1.92c-3.11-1.75-3.33-6.11-2.72-9.62a42.69,42.69,0,0,1,3-10,41,41,0,0,1,2.55-4.93,3.39,3.39,0,0,1-.15.41,18.85,18.85,0,0,1-2.4,4.52,19.71,19.71,0,0,1-7.68,6.4,9.43,9.43,0,0,1-5.66,1,4.72,4.72,0,0,1-3.9-3.82c-.23-2.28,1.65-4.2,3.55-5.48a25.5,25.5,0,0,1,15.69-4.29,2.36,2.36,0,0,1,.38,0" transform="translate(0 -0.11)"/>
          <path class="cls-7" d="M245.21,113.34c-.16-.13-.32-.26-.47-.4a27,27,0,0,1-9.11-19.21,7.5,7.5,0,0,1,.85-4.29,3.15,3.15,0,0,1,3.8-1.4c1.12.54,1.62,1.84,2,3a111.47,111.47,0,0,1,4.52,20.81l0,.21v-.24h0a35.22,35.22,0,0,1,6.23-20.26c1.39-2,3.71-4,6-3.13a3.94,3.94,0,0,1,2.15,3.83,10.15,10.15,0,0,1-1.48,4.39,59.88,59.88,0,0,1-4.86,7.65,58.82,58.82,0,0,1-6.63,7.48c-.28.28-.57.54-.86.81l-.08.08-.53.47s0,0,0,0c-.56.52-1.14,1-1.73,1.5.31-.54.63-1.07,1-1.58,0,0,0,0,0,0,.26-.41.54-.8.82-1.19l0,0" transform="translate(0 -0.11)"/>
          <path class="cls-7" d="M313.94,226.1h0l.38.1" transform="translate(0 -0.11)"/>
          <path class="cls-7" d="M313.94,226.1a55.84,55.84,0,0,1-13.44,3.83c-2.09.26-4.37.27-6.13-.9s-2.59-3.9-1.14-5.44c1.23-1.33,3.34-1.17,5.14-.87Q306.25,224,313.94,226.1Z" transform="translate(0 -0.11)"/>
          <path class="cls-7" d="M314.25,226l-.31.12" transform="translate(0 -0.11)"/>
          <path class="cls-7" d="M316.5,225.09l-.13,0-.21.08-.7.28-1.14.46" transform="translate(0 -0.11)"/>
          <path class="cls-7" d="M314.31,226c.38-.18.77-.34,1.15-.49l.71-.27.2-.06" transform="translate(0 -0.11)"/>
          <path class="cls-7" d="M314.31,226l-.06,0" transform="translate(0 -0.11)"/>
          <path class="cls-7" d="M314.92,226.08l-.6-.12s0,0,0,0a27,27,0,0,1-17.14-12.58,7.46,7.46,0,0,1-1.3-4.17,3.17,3.17,0,0,1,2.68-3c1.25-.06,2.3.85,3.21,1.71A111.93,111.93,0,0,1,315.63,224l.12.17-.12-.21a35.16,35.16,0,0,1-4.14-20.79c.27-2.42,1.33-5.33,3.75-5.59a3.92,3.92,0,0,1,3.7,2.35,10.07,10.07,0,0,1,.79,4.56,58.48,58.48,0,0,1-.64,9.06,60.36,60.36,0,0,1-2.26,9.72c-.13.37-.25.75-.39,1.12a.29.29,0,0,1,0,.1c-.07.23-.16.45-.24.67,0,0,0,0,0,0-.25.72-.53,1.43-.81,2.14,0-.62,0-1.24.11-1.86v0c0-.48.09-1,.17-1.43v0a30.45,30.45,0,0,1,3.46-10.41,29.68,29.68,0,0,1,4.23-5.9,11.85,11.85,0,0,1,4.42-3.27,5.41,5.41,0,0,1,5.25.66c2.37,2,1.8,5.85.19,8.48a17.52,17.52,0,0,1-5.84,5.71,34.79,34.79,0,0,1-10.41,4.07,24.54,24.54,0,0,1,10.41-4.07,25.06,25.06,0,0,1,14.39,2.06c2.1,1,4.32,2.85,4,5.15s-2.8,3.37-5,3.87a28.87,28.87,0,0,1-19.3-2.52,28.24,28.24,0,0,1-5-3.3l-.38-.32c.14.07.28.14.41.22a27.81,27.81,0,0,1,5,3.4,28.2,28.2,0,0,1,6.87,8.63c1.3,2.52,2.21,5.39,1.68,8.17s-2.93,5.35-5.76,5.3c-3.56-.06-5.83-3.79-7-7.17a42.85,42.85,0,0,1-2.2-15.8c0,.14.05.29.07.43a18.83,18.83,0,0,1,0,5.14,19.52,19.52,0,0,1-3.7,9.26,9.44,9.44,0,0,1-4.51,3.57,4.72,4.72,0,0,1-5.24-1.5c-1.29-1.9-.54-4.48.51-6.51A25.61,25.61,0,0,1,314,226.11l.28-.13" transform="translate(0 -0.11)"/>
          <path class="cls-7" d="M313,150.46l0,0,.15.35" transform="translate(0 -0.11)"/>
          <path class="cls-7" d="M313,150.46a56,56,0,0,1-11.44-8c-1.52-1.46-3-3.23-3.17-5.33s1.41-4.47,3.52-4.32c1.81.12,3,1.87,3.91,3.45A158.07,158.07,0,0,1,313,150.46Z" transform="translate(0 -0.11)"/>
          <path class="cls-7" d="M313.3,150.63l-.32-.17" transform="translate(0 -0.11)"/>
          <path class="cls-7" d="M313.33,150.65c.37.18.74.38,1.1.58s.44.25.65.39l.3.18-.31-.18c-.22-.12-.45-.24-.66-.37-.37-.19-.72-.4-1.08-.6" transform="translate(0 -0.11)"/>
          <path class="cls-7" d="M313.33,150.65l0,0" transform="translate(0 -0.11)"/>
          <path class="cls-7" d="M313.61,151.2c-.1-.18-.19-.37-.28-.55a27,27,0,0,1-1-21.24,7.5,7.5,0,0,1,2.42-3.64,3.16,3.16,0,0,1,4,.17c.83.93.79,2.33.69,3.56a111.26,111.26,0,0,1-3.82,21,1.46,1.46,0,0,1-.05.2l.09-.22a35.15,35.15,0,0,1,13.53-16.31c2.05-1.31,5-2.32,6.71-.61a3.93,3.93,0,0,1,.51,4.36,10.36,10.36,0,0,1-3,3.49,57.4,57.4,0,0,1-7.45,5.2,58.48,58.48,0,0,1-9,4.36c-.37.15-.74.28-1.11.42l-.1,0-.68.23h0c-.72.25-1.45.49-2.18.72.5-.39,1-.75,1.52-1.09a0,0,0,0,1,0,0c.4-.27.8-.52,1.21-.77l0,0a30.36,30.36,0,0,1,17.5-4.3,11.75,11.75,0,0,1,5.32,1.38,5.41,5.41,0,0,1,2.81,4.49c-.06,3.09-3.41,5.09-6.47,5.49a17.69,17.69,0,0,1-8.12-.95A34.49,34.49,0,0,1,317,151a24.72,24.72,0,0,1,9.72,5.52A25.07,25.07,0,0,1,334.18,169c.55,2.27.52,5.15-1.48,6.35s-4.39-.06-6.15-1.45a28.7,28.7,0,0,1-10.18-16.55,26.83,26.83,0,0,1-.61-6c0-.18,0-.35,0-.51l.09.47A28.2,28.2,0,0,1,314,168.13c-1.15,2.59-2.79,5.11-5.29,6.44s-6,1.1-7.74-1.13c-2.2-2.8-.73-6.92,1.19-9.93a42.6,42.6,0,0,1,6.64-8.08,41.19,41.19,0,0,1,4.25-3.57l-.3.32a19.07,19.07,0,0,1-4,3.25,19.62,19.62,0,0,1-9.55,3,9.37,9.37,0,0,1-5.61-1.25,4.71,4.71,0,0,1-2.13-5c.66-2.19,3.13-3.25,5.38-3.7A25.61,25.61,0,0,1,313,150.48l.3.15" transform="translate(0 -0.11)"/>
          <path class="cls-7" d="M175.53,242.91s0,0,0,0l.29.26" transform="translate(0 -0.11)"/>
          <path class="cls-7" d="M175.53,242.91a55.81,55.81,0,0,1-13.64-3c-2-.77-4-1.84-5-3.71s-.42-4.66,1.58-5.33c1.72-.58,3.5.57,4.94,1.68Q169.74,237.42,175.53,242.91Z" transform="translate(0 -0.11)"/>
          <path class="cls-7" d="M175.92,243l-.39-.05" transform="translate(0 -0.11)"/>
          <path class="cls-7" d="M175.94,243c.41,0,.83.06,1.23.12l.75.1.34,0-.35,0-.76-.09-1.21-.15" transform="translate(0 -0.11)"/>
          <path class="cls-7" d="M175.94,243h0" transform="translate(0 -0.11)"/>
          <path class="cls-7" d="M176.4,243.36l-.46-.4h0a27,27,0,0,1-9.12-19.21,7.58,7.58,0,0,1,.85-4.29,3.15,3.15,0,0,1,3.8-1.4c1.12.54,1.62,1.84,2,3A110.49,110.49,0,0,1,178,241.9a1.52,1.52,0,0,1,0,.21v-.24a35.14,35.14,0,0,1,6.24-20.26c1.39-2,3.7-4.05,6-3.14a3.94,3.94,0,0,1,2.15,3.83,10.26,10.26,0,0,1-1.47,4.39,60.06,60.06,0,0,1-11.49,15.13q-.43.42-.87.81a.18.18,0,0,1-.08.07c-.17.17-.35.33-.53.48,0,0,0,0,0,0-.56.5-1.14,1-1.74,1.49.31-.53.64-1.06,1-1.58,0,0,0,0,0,0,.26-.4.54-.79.82-1.18l0,0a30.36,30.36,0,0,1,14.51-10.69,11.69,11.69,0,0,1,5.44-.77,5.38,5.38,0,0,1,4.32,3.07c1.14,2.87-1.2,6-3.87,7.55a17.65,17.65,0,0,1-7.86,2.24,34.57,34.57,0,0,1-11.09-1.37,24.64,24.64,0,0,1,11.09,1.37,25.07,25.07,0,0,1,11.69,8.67c1.36,1.88,2.44,4.55,1.06,6.42s-4.07,1.63-6.23,1A28.85,28.85,0,0,1,181.29,248a27.86,27.86,0,0,1-2.84-5.27l-.18-.46.26.39a27.85,27.85,0,0,1,2.76,5.34,28.37,28.37,0,0,1,1.94,10.89c-.06,2.83-.61,5.79-2.41,8s-5.11,3.31-7.58,1.92c-3.11-1.74-3.33-6.11-2.72-9.62a42.94,42.94,0,0,1,3-10,41,41,0,0,1,2.55-4.92c-.05.14-.1.27-.16.41a19.31,19.31,0,0,1-2.39,4.51,19.69,19.69,0,0,1-7.69,6.41,9.42,9.42,0,0,1-5.66,1,4.7,4.7,0,0,1-3.89-3.82c-.24-2.28,1.65-4.19,3.54-5.48a25.57,25.57,0,0,1,15.69-4.29,2.36,2.36,0,0,1,.37,0" transform="translate(0 -0.11)"/>
          <path class="cls-7" d="M233.68,198.44l0,0,.57.54" transform="translate(0 -0.11)"/>
          <path class="cls-7" d="M233.68,198.44c-9.45-1.17-18.87-2.67-27.71-6.13-4-1.57-8.07-3.75-10.08-7.53S195,175.32,199.1,174c3.5-1.18,7.12,1.16,10,3.41A322,322,0,0,1,233.68,198.44Z" transform="translate(0 -0.11)"/>
          <path class="cls-7" d="M235.44,199.35c-.32-.27-.63-.53-.94-.81h0a54.8,54.8,0,0,1-18.49-39c-.1-3,.1-6.16,1.71-8.7s5-4.14,7.72-2.84c2.28,1.1,3.29,3.74,4.06,6.15a223.56,223.56,0,0,1,9.17,42.23l.06.43c0-.17,0-.33,0-.49a71.39,71.39,0,0,1,12.67-41.12c2.82-4.05,7.52-8.22,12.09-6.36,2.93,1.19,4.46,4.61,4.36,7.76s-1.51,6.13-3,8.92A119.93,119.93,0,0,1,255,181.05a121.17,121.17,0,0,1-13.45,15.19c-.57.55-1.16,1.09-1.75,1.63l-.16.15-1.07,1,0,0q-1.74,1.54-3.54,3c.63-1.09,1.29-2.17,2-3.22l0-.06c.53-.81,1.09-1.61,1.66-2.4l.06-.06A62,62,0,0,1,255,181.05a60,60,0,0,1,13.21-6.43c3.55-1.21,7.33-2.1,11.05-1.57s7.37,2.76,8.75,6.24c2.31,5.83-2.43,12.18-7.85,15.32a36,36,0,0,1-15.91,4.57c-7.48.48-15.28-.81-22.56-2.79a49.93,49.93,0,0,1,22.56,2.79,50.71,50.71,0,0,1,23.68,17.57c2.78,3.83,5,9.25,2.15,13s-8.26,3.32-12.63,2.09a58.46,58.46,0,0,1-32-23.12A55.59,55.59,0,0,1,239.61,198l-.39-1c.19.26.37.53.55.8a57.63,57.63,0,0,1,9.53,32.94c-.12,5.75-1.24,11.75-4.89,16.2S234,253.73,229,250.92c-6.3-3.55-6.75-12.42-5.52-19.54a88.21,88.21,0,0,1,11.34-30.33c-.1.31-.22.62-.34.93a39.06,39.06,0,0,1-4.86,9.1,39.91,39.91,0,0,1-15.57,13c-3.59,1.66-7.61,2.79-11.49,2s-7.51-3.82-7.91-7.75c-.47-4.63,3.35-8.53,7.2-11.13a52,52,0,0,1,31.86-8.72l.61,0h.15c.84.06,1.68.14,2.51.24.51.06,1,.14,1.54.22l.68.11-.71-.08-1.55-.19-2.46-.29-.16,0-.66-.08" transform="translate(0 -0.11)"/>
          <path class="cls-7" d="M290.4,104.64a30.22,30.22,0,0,0,9.65-3.55,121.12,121.12,0,0,0,24.23-16.67q.27-.23.54-.48a116.87,116.87,0,0,0,9.48-9.54,106.79,106.79,0,0,0,18.82-29.94" transform="translate(0 -0.11)"/>
          <path class="cls-7" d="M324.65,84.5l-.37-.08a11.62,11.62,0,0,1-8.55-8.83c-.89-4.15.33-8.45,2.26-12.31,6-12,18.26-20.44,29-29.47S368,13.35,367.63.16q2.14,24.62,4.3,49.21c.66,7.64,1.33,15.34.2,22.93S367.91,87.46,362,93s-15,8.67-23.33,6.81c-7.89-1.78-14.29-8.68-13.82-15.86A8.84,8.84,0,0,1,325,82.8" transform="translate(0 -0.11)"/>
          <path class="cls-7" d="M332.93,77a28.46,28.46,0,0,0,1.37-2.55,29.76,29.76,0,0,0,2.25-19.3" transform="translate(0 -0.11)"/>
          <path class="cls-7" d="M337.09,71.3a72.54,72.54,0,0,1,26.44-16.66" transform="translate(0 -0.11)"/>
          <path class="cls-7" d="M363.3,27.66c-.85,11.28-6.67,22.2-15.94,29.91" transform="translate(0 -0.11)"/>
          <path class="cls-7" d="M329.93,79.94c8.25-6.61,20.31-9.22,31-6.7" transform="translate(0 -0.11)"/>
          <path class="cls-7" d="M332.77,75.61a33.47,33.47,0,0,0,2.81-21.53" transform="translate(0 -0.11)"/>
          <path class="cls-7" d="M350.56,184.28a30,30,0,0,0,9.17,4.43A133.8,133.8,0,0,0,389.52,195l.74.07a142.18,142.18,0,0,0,14.3.54,136,136,0,0,0,37.85-5.89" transform="translate(0 -0.11)"/>
          <path class="cls-7" d="M389.68,195.25a1.73,1.73,0,0,1-.16-.3c-2-3.7-.71-8.35,2.25-11.5s7.54-5.11,12.11-6.21c14.24-3.45,29.27-.27,43.9,1.47s31,1.59,42.22-7L450,205.8c-6.19,5.28-12.46,10.61-19.76,14.62s-15.82,6.66-24.37,6-17-4.91-20.64-11.84a15.23,15.23,0,0,1,5-19.6q.53-.33,1.08-.63" transform="translate(0 -0.11)"/>
          <path class="cls-7" d="M401.46,196.22c1-.18,2.08-.4,3.1-.66a37.44,37.44,0,0,0,18.14-10.64" transform="translate(0 -0.11)"/>
          <path class="cls-7" d="M409,195.53a78.77,78.77,0,0,1,31.17,7.78" transform="translate(0 -0.11)"/>
          <path class="cls-7" d="M463.42,186.1a55.73,55.73,0,0,1-36,7.87" transform="translate(0 -0.11)"/>
          <path class="cls-7" d="M397,196c11,1.54,20.83,8.24,25.43,17.25" transform="translate(0 -0.11)"/>
          <path class="cls-7" d="M402.52,195.26A42.38,42.38,0,0,0,423,183.6" transform="translate(0 -0.11)"/>
          <path class="cls-7" d="M291.75,261.51c.45,3.09,2,6,3.71,8.7a109.68,109.68,0,0,0,18,22.09c.17.18.34.33.52.5a120.07,120.07,0,0,0,10.43,8.72,126.06,126.06,0,0,0,33,17.61" transform="translate(0 -0.11)"/>
          <path class="cls-7" d="M313.37,292.63a3.18,3.18,0,0,1,.1-.33c1.23-3.95,5.57-6.73,10.11-7.4s9.44.52,13.71,2.35c13.32,5.69,22.39,16.85,32.2,26.7s22.34,19.28,37.1,19.32l-55.18,2.52c-8.56.39-17.2.78-25.66-.44s-16.85-4.18-22.89-9.62-9.3-13.64-7-21c2.19-7,10.1-12.53,18.11-11.91.43,0,.86.08,1.28.14" transform="translate(0 -0.11)"/>
          <path class="cls-7" d="M321.59,300.23c.93.47,1.87.9,2.83,1.29A40.9,40.9,0,0,0,346,304" transform="translate(0 -0.11)"/>
          <path class="cls-7" d="M327.81,304.09a64.39,64.39,0,0,1,17.93,24.06" transform="translate(0 -0.11)"/>
          <path class="cls-7" d="M375.94,328.67c-12.6-1.06-24.67-6.55-33-15" transform="translate(0 -0.11)"/>
          <path class="cls-7" d="M318.32,297.46a28.2,28.2,0,0,1,6.67,27.9" transform="translate(0 -0.11)"/>
          <path class="cls-7" d="M323.1,300.12a46,46,0,0,0,24,3.08" transform="translate(0 -0.11)"/>
          <path class="cls-7" d="M203.87,275.43a30.74,30.74,0,0,0-10,2.61,124.46,124.46,0,0,0-26.08,14.28c-.19.14-.39.27-.58.42a117.61,117.61,0,0,0-10.58,8.62,109.83,109.83,0,0,0-22.26,28" transform="translate(0 -0.11)"/>
          <path class="cls-7" d="M167.44,292.21l.35.11a11.24,11.24,0,0,1,7.45,9.6c.4,4.2-1.33,8.37-3.7,12-7.41,11.41-20.59,18.6-32.36,26.55S115.9,358.86,114.68,372q.78-24.67,1.57-49.34c.24-7.66.5-15.38,2.53-22.82s6-14.68,12.55-19.61,16-7.2,24-4.56c7.64,2.51,13.18,10,11.88,17.07q-.11.57-.27,1.14" transform="translate(0 -0.11)"/>
          <path class="cls-7" d="M158.3,298.93a26.81,26.81,0,0,0-1.67,2.43,30,30,0,0,0-4.51,19" transform="translate(0 -0.11)"/>
          <path class="cls-7" d="M153.49,304.16a74.78,74.78,0,0,1-28.27,14.06" transform="translate(0 -0.11)"/>
          <path class="cls-7" d="M122.24,345.07c2.19-11.13,9.28-21.44,19.41-28.23" transform="translate(0 -0.11)"/>
          <path class="cls-7" d="M161.65,296.24A37.78,37.78,0,0,1,130,300" transform="translate(0 -0.11)"/>
          <path class="cls-7" d="M158.31,300.28A33.93,33.93,0,0,0,153,321.42" transform="translate(0 -0.11)"/>
          <path class="cls-7" d="M140.51,202a29,29,0,0,0-8.73-5.09,132.23,132.23,0,0,0-29.12-8.4l-.73-.12a137.82,137.82,0,0,0-14.21-1.58,136.35,136.35,0,0,0-38.25,3.09" transform="translate(0 -0.11)"/>
          <path class="cls-7" d="M102.53,188.17a2.88,2.88,0,0,1,.13.31c1.61,3.83-.06,8.37-3.3,11.3s-8,4.54-12.63,5.3c-14.52,2.4-29.21-1.87-43.62-4.68S12.35,196.55.39,204.27l43-31c6.67-4.81,13.4-9.66,21-13.13s16.39-5.47,24.85-4.23,16.5,6.14,19.48,13.32a15.42,15.42,0,0,1-6.79,19.16c-.37.2-.74.38-1.14.55" transform="translate(0 -0.11)"/>
          <path class="cls-7" d="M90.88,186.34c-1.06.11-2.12.25-3.16.44a38.24,38.24,0,0,0-19,9.27" transform="translate(0 -0.11)"/>
          <path class="cls-7" d="M83.3,186.48a77.63,77.63,0,0,1-30.34-10" transform="translate(0 -0.11)"/>
          <path class="cls-7" d="M28.19,191.89a56.25,56.25,0,0,1,36.63-5.2" transform="translate(0 -0.11)"/>
          <path class="cls-7" d="M95.34,186.86c-10.77-2.33-20-9.74-23.75-19.06" transform="translate(0 -0.11)"/>
          <path class="cls-7" d="M89.74,187.22a43.29,43.29,0,0,0-21.46,10.12" transform="translate(0 -0.11)"/>
          <path class="cls-7" d="M206.56,117.71c-.88-3-2.83-5.7-4.88-8.23a113.86,113.86,0,0,0-20.91-20l-.57-.43a123.13,123.13,0,0,0-11.56-7.52,129.45,129.45,0,0,0-35.15-13.86" transform="translate(0 -0.11)"/>
          <path class="cls-7" d="M180.83,89.2l-.06.33c-.67,4-4.6,7.29-9,8.45s-9.45.51-13.93-.83c-14-4.18-24.53-14.27-35.62-23S97.39,57.49,82.74,59.06l54.42-8.54c8.44-1.33,17-2.65,25.52-2.38s17.3,2.31,24,7,11.11,12.52,9.83,20.09c-1.22,7.19-8.3,13.54-16.34,13.82-.43,0-.86,0-1.3,0" transform="translate(0 -0.11)"/>
          <path class="cls-7" d="M171.62,82.55c-1-.37-2-.69-3-1a41,41,0,0,0-21.71-.14" transform="translate(0 -0.11)"/>
          <path class="cls-7" d="M164.93,79.39a67,67,0,0,1-21.1-21.9" transform="translate(0 -0.11)"/>
          <path class="cls-7" d="M113.79,60.28a54.65,54.65,0,0,1,34.85,11.3" transform="translate(0 -0.11)"/>
          <path class="cls-7" d="M175.25,84.94c-8.16-6.71-12.22-17.18-10.44-27" transform="translate(0 -0.11)"/>
          <path class="cls-7" d="M170.15,82.83a46.33,46.33,0,0,0-24.26-.44" transform="translate(0 -0.11)"/>
          <path class="cls-7" d="M209.67,58.75c.57-4.75,2.24-9.6,10.69-8,4.7.87,4.56,9.24.73,12.11S210.82,63.39,209.67,58.75Z" transform="translate(0 -0.11)"/>
          <path class="cls-7" d="M259.9,28.18c-2.39.8-3.54,3.81-2.78,6.21A6.88,6.88,0,0,0,260,38a8.87,8.87,0,0,0,2.58,1.18c6.8,1.89,14.4-4.93,13.25-11.89s-10.55-11-16.38-7-5.49,14.12.52,17.76l.07,0" transform="translate(0 -0.11)"/>
          <path class="cls-7" d="M290.4,51.71a7,7,0,0,0,.65,5.4,6.92,6.92,0,0,0,4.75,3.58,7,7,0,0,0,7.94-6.7c-.06-4-4.37-7.27-8.19-6.24a6.66,6.66,0,0,0-3.92,9.14c.06.12.13.23.2.35" transform="translate(0 -0.11)"/>
          <path class="cls-7" d="M387.1,92.43l-.57,1" transform="translate(0 -0.11)"/>
          <path class="cls-7" d="M387.1,92.43c1.37,1.85,3.78,2.61,6.08,2.9,4.62.59,10.72-1.92,10.16-6.55-.46-3.85-5.67-5.51-9.2-3.91C391,86.32,388.89,89.37,387.1,92.43Z" transform="translate(0 -0.11)"/>
          <path class="cls-7" d="M388.27,86.45c-2.17.83-2.58,4-1.21,5.93l0,.05" transform="translate(0 -0.11)"/>
          <path class="cls-7" d="M430.33,105.81a35.13,35.13,0,0,0-7.72,3.77c-1,.63-2,1.28-3,1.93" transform="translate(0 -0.11)"/>
          <path class="cls-7" d="M439.71,109.15a10,10,0,0,0-9.36-3.34h0a16,16,0,0,0-7.72,3.77c-.45.38-.88.77-1.3,1.18-4.34,4.26-7,11.43-3.5,16.38,2.47,3.46,7.27,4.61,11.42,3.78s7.79-3.33,11.08-6,6.72-6.14,6.75-10.42c.05-5.71-6.23-9.79-11.93-9.57a18.26,18.26,0,0,0-4.78.87" transform="translate(0 -0.11)"/>
          <path class="cls-7" d="M414.47,153.59c.2,3.87,4.79,6.75,8.4,5.34s5.08-6.49,2.87-9.67a6.72,6.72,0,0,0-12.19,4.35,7.1,7.1,0,0,0,2.23,5" transform="translate(0 -0.11)"/>
          <path class="cls-7" d="M401.54,245.13a12.88,12.88,0,0,0-1.18,5" transform="translate(0 -0.11)"/>
          <path class="cls-7" d="M401.54,245.13a12.46,12.46,0,0,0,6.07,6.56c3.39,1.51,8,.57,9.79-2.67,2.6-4.64-2.59-10.85-7.87-10.27C405.94,239.14,403.06,241.8,401.54,245.13Z" transform="translate(0 -0.11)"/>
          <path class="cls-7" d="M400.83,243.27a18.23,18.23,0,0,0,.71,1.86" transform="translate(0 -0.11)"/>
          <path class="cls-7" d="M391.47,271.3a13.2,13.2,0,1,0,19.15-7.48,12.64,12.64,0,0,0-13.05.32,11.44,11.44,0,0,0-4.72,7.27,10.26,10.26,0,0,0,.19,4.77" transform="translate(0 -0.11)"/>
          <path class="cls-7" d="M364.07,279.21a11.62,11.62,0,0,0-2.61,2.86" transform="translate(0 -0.11)"/>
          <path class="cls-7" d="M364.07,279.21a13.16,13.16,0,0,0,2.1,6.32c1.84,2.59,5.57,4.09,8.33,2.52,3.88-2.21,2.55-9-1.6-10.63C369.94,276.24,366.61,277.2,364.07,279.21Z" transform="translate(0 -0.11)"/>
          <path class="cls-7" d="M363.91,276.42c0,.93.06,1.86.16,2.79" transform="translate(0 -0.11)"/>
          <path class="cls-7" d="M270.72,328.5c-1.93,3.71,1.89,8.75,6,8.26s7.7-6.25,5.1-9.52C277.24,321.47,272,325.36,270.72,328.5Z" transform="translate(0 -0.11)"/>
          <path class="cls-7" d="M218,340.56a15.06,15.06,0,0,0-1.71,6.69" transform="translate(0 -0.11)"/>
          <path class="cls-7" d="M220.83,336.12a14.77,14.77,0,0,0-2.81,4.41,0,0,0,0,0,0,0c-3,7.24-.59,16.75,6.16,21,8.26,5.2,20.8,1.09,24.4-8s-2.75-20.66-12.33-22.53c-7.27-1.42-14.89,3-18.22,9.49" transform="translate(0 -0.11)"/>
          <path class="cls-7" d="M189,326c.32,4.87,6.8,8.1,10.88,5.4s3.68-9.91-.69-12.13S188.78,321,189,325.89" transform="translate(0 -0.11)"/>
          <path class="cls-7" d="M118.89,266.3c-1.25,3,2.29,6.49,5.39,5.58s4.4-5.17,2.71-7.92S119.11,262.36,118.89,266.3Z" transform="translate(0 -0.11)"/>
          <path class="cls-7" d="M84.23,243.07a12,12,0,0,0-2.29,7.85" transform="translate(0 -0.11)"/>
          <path class="cls-7" d="M84.23,243.07a21.72,21.72,0,0,0-2.67,2.5c-3,3.29-4.76,7.82-4,12.17,1.15,6.13,7.38,10.41,13.6,10.85,8.16.58,16.53-5.06,18.42-13S106,238.47,98,237C92.74,236,87.24,238.77,84.23,243.07Z" transform="translate(0 -0.11)"/>
          <path class="cls-7" d="M92.52,238.32a36.82,36.82,0,0,0-8.29,4.75" transform="translate(0 -0.11)"/>
          <path class="cls-7" d="M92.2,216.17c-1.27,3.42,1.74,7.66,5.39,7.58s6.48-4.45,5.06-7.81C101.12,212.3,94.76,211.75,92.2,216.17Z" transform="translate(0 -0.11)"/>
          <path class="cls-7" d="M92.91,136.18a5.44,5.44,0,0,0-.87.7,6.47,6.47,0,0,0,.6,9.28c3.14,2.35,8.27.88,9.85-2.69s-.5-8.55-4.3-9.5c-2.41-.6-4.57,1.05-6.27,2.79-.85.86-1.58,1.74-2.18,2.38" transform="translate(0 -0.11)"/>
          <path class="cls-7" d="M78.57,108.44c-.22,5.51,3,11.2,8.21,13.11" transform="translate(0 -0.11)"/>
          <path class="cls-7" d="M78.57,108.44a16.14,16.14,0,0,0,8.16,9.94c6,3,13.47,2.28,19.45-.82,3.38-1.75,6.64-4.68,6.87-8.49.16-2.63-1.2-5.14-2.88-7.18-4.09-5-10.57-8.17-17-7.61S80.63,99.44,79,105.69A12.19,12.19,0,0,0,78.57,108.44Z" transform="translate(0 -0.11)"/>
          <path class="cls-7" d="M78.47,101.63a12.9,12.9,0,0,0,.1,6.81" transform="translate(0 -0.11)"/>
          <path class="cls-7" d="M118.21,96.39a2.87,2.87,0,0,0-.26.8,3.11,3.11,0,0,0,.17,1.84c.83,2.1,3.74,3.62,6.36,3.4,3.63-.3,6.2-4.58,5.09-8.06s-5.88-6.86-8.79-4.65c-4.65,3.51-3.38,5.19-2.83,7.47a5.71,5.71,0,0,1,.17,1.84c0,.09,0,.18,0,.28" transform="translate(0 -0.11)"/>
          <path class="cls-7" d="M167.78,200.94c2,2.82,7,2.55,8.67-.48s-.8-7.41-4.25-7.57-6.31,4-4.92,7.16" transform="translate(0 -0.11)"/>
          <path class="cls-7" d="M205.18,129.87c-.69-4,3.89-7.93,7.76-6.6s5.1,7.2,2.08,10-8.77,1-9.75-2.94" transform="translate(0 -0.11)"/>
          <path class="cls-7" d="M281.05,118.51a4.21,4.21,0,0,0-2,1.84,5.18,5.18,0,0,0,.7,6.18,5.47,5.47,0,0,0,8.19-1.48,5.89,5.89,0,0,0-3.18-7.9,6.4,6.4,0,0,0-7.41,2.89,5.75,5.75,0,0,0-.41.87" transform="translate(0 -0.11)"/>
          <path class="cls-7" d="M311.19,188.69c-1.33-3.77,2.52-8.26,6.45-7.53s5.89,6.31,3.29,9.35S312.52,192.46,311.19,188.69Z" transform="translate(0 -0.11)"/>
          <path class="cls-7" d="M276.15,257.9a3.58,3.58,0,0,0,.11.35s0,0,0,0a1.53,1.53,0,0,0,.11.27,5.23,5.23,0,0,0,7.65,1.79c2.54-2.06,2.42-6.47,0-8.64s-5.91-2.05-7.62.75c-2,3.29-1.24,3.06-.12,5.79" transform="translate(0 -0.11)"/>
          <path class="cls-7" d="M207.49,265.17c-.48,3.25,3.19,6.32,6.31,5.29s4.21-5.69,1.88-8-7-1.2-8,1.91" transform="translate(0 -0.11)"/>
        </g>
      </g>
    </g>
  </g>
</svg>
