<?xml version="1.0" encoding="utf-8"?>
<!-- Generator: Adobe Illustrator 24.0.0, SVG Export Plug-In . SVG Version: 6.00 Build 0)  -->
<svg version="1.1" id="Layer_1" xmlns="http://www.w3.org/2000/svg" xmlns:xlink="http://www.w3.org/1999/xlink" x="0px" y="0px"
	 viewBox="0 0 595.3 841.9" style="enable-background:new 0 0 595.3 841.9;" xml:space="preserve">
<style type="text/css">
	.st0{fill:#281C20;}
	.st1{fill:#342423;}
	.st2{fill:#D4A79B;}
	.st3{fill:#673434;}
	.st4{fill:#010101;}
	.st5{fill:#493735;}
	.st6{fill:#CCCCC6;}
	.st7{fill:#CCAEA5;}
	.st8{fill:#1B3665;}
	.st9{fill:#676734;}
	.st10{fill:#0F1131;}
	.st11{fill:#AB5A69;}
	.st12{fill:#939785;}
	.st13{fill:#FFFFFF;}
	.st14{fill:#995B61;}
	.st15{fill:#4E5A6C;}
	.st16{fill:none;stroke:#010101;stroke-width:4;stroke-miterlimit:10;}
	.st17{fill:none;stroke:#010101;stroke-width:2;stroke-miterlimit:10;}
	.st18{fill:none;stroke:#010101;stroke-miterlimit:10;}
	.st19{fill:none;stroke:#FFFFFF;stroke-miterlimit:10;}
</style>
<g>
	<g id="face2">
		<g id="XMLID_7_">
			<g>
				<path class="st0" d="M405.9,444.6c-7.6-29.5-19.2-58-34.5-84.4c-2.5-4.4-5.1-8.6-7.8-12.9c1.4-6.5,3.2-12.9,5.6-19.2l-0.6-0.7
					c4.3-4,8.6-8.2,12.1-12.9c9.8-13.4,12.9-30.4,18.2-46.2c3.7-11,8.7-22,9.1-33.6c0-1.1,0-2.1,0-3.2h0l2.4-0.1h0
					c4.3-6.1,7.2-13.2,8.4-20.5c0.4-2.2,0.3-5-1.7-5.9c-1.5-0.7-3.4,0.2-4.3,1.6c-0.2,0.2-0.3,0.5-0.4,0.8c0.5-3,0.5-6,0.1-9h0
					l0.3,0c0.1-22.5-3.2-47.3-20-62.2c-2.1-1.9-4.4-3.6-6.8-5.1c-8.5-5.6-18.2-9.7-25.6-16.6c-8-7.4-13-17.9-13.8-28.8l-0.8-0.2
					c1.3-1.4,2.4-3,3.3-4.8l-5.4-6.3c-0.7-4.1-2.4-7.7-4.9-10.8l1.3-0.6c22,1.5,41.8,15.4,55.3,32.8c13.5,17.5,21.8,38.4,29.4,59.1
					c7.9,21.3,15.4,42.9,18.9,65.4c3.4,21.9,3,44.2,1.8,66.4c-0.7,12.4-1.7,24.9-0.6,37.3c1.4,14.9,5.7,29.4,9.2,44
					c13.2,56,12.8,115.2-1.3,171c0.2,7.4-0.5,14.9-2.3,22.1c-0.7-5.1-1.5-10.2-2.2-15.3c-1,19.8-10.9,37.9-20.5,55.2
					c-7.8,14-15.6,28-23.4,42c2.6-10.3,2-21.1,1.4-31.7c-11.9,27.4-29.6,52.3-51.5,72.6c5.9-10.2,10.9-20.9,14.9-31.9
					c1-1,1.8-2.1,2.5-3.2c3.6-5.6,4.5-12.1,4.1-18.8c3-12.3,4.8-24.9,5.5-37.5c0.3,4.4,0.6,8.8,1,13.2c0.4,5,2.1,11.5,7.1,11.8
					c4.6,0.3,7.4-5,8.8-9.5c1.5-4.5,2.9-9,4.4-13.5l-0.5,0.1l-1.8,0.4c3.9-2.7,7.2-7.5,9-12.1c5.1-13,6.6-27.2,7.1-41.2
					C417.7,509,414.1,476.2,405.9,444.6z"/>
				<path class="st1" d="M412.4,207.4c0.1-0.3,0.3-0.5,0.4-0.8c0.9-1.4,2.8-2.3,4.3-1.6c2,0.9,2.1,3.7,1.7,5.9
					c-1.2,7.4-4.1,14.5-8.4,20.5h0l-2.4,0.1h0c-0.1-3.8-0.6-7.5-1.3-11.3l0.1,0c1.2-3.1,2.8-6.1,4.7-8.8l-0.1-0.1h0
					C411.5,210,411.8,208.6,412.4,207.4z"/>
				<path class="st0" d="M371.4,360.2c15.3,26.4,26.8,54.9,34.5,84.4c8.2,31.6,11.8,64.4,10.6,97.1c-0.5,14-2,28.1-7.1,41.2
					c-1.8,4.6-5.1,9.3-9,12.1l-7.6,1.7l-5.8-2.3c0,0,0,0,0,0c-0.5-0.5-1-1.1-1.3-1.7l-0.8-1.3c0,0,0-0.1,0-0.1
					c-2-4.1-2.3-9.7-2.2-14.5c0.6-37.6-5.4-75.3-17.4-110.9c-3-9.1-6.5-18-10.3-26.8c0.9-13.9,1.8-27.8,2.8-41.7
					c1.1-16.8,2.3-33.7,5.9-50C366.3,351.5,368.9,355.8,371.4,360.2z"/>
				<path class="st0" d="M391.8,141.6l-0.8,0.5c-2.1-3.2-4.1-6.4-6.2-9.6l1.1-1.7c2.4,1.6,4.7,3.2,6.8,5.1
					c16.8,15,20.1,39.7,20,62.2l-0.3,0h0c0.4,3,0.4,6-0.1,9c-0.6,1.2-0.8,2.6-1,4h0l0.1,0.1c-1.9,2.7-3.5,5.7-4.7,8.8l-0.1,0
					c-0.9-4.8-1.9-9.6-2.6-14.5c-1.5-11-1-22.1-1.9-33.1S398.6,150.4,391.8,141.6z"/>
				<path class="st2" d="M360.1,197.9c-0.9,0.4-1.7,0.9-2.6,1.3c-2.1,1.2-4.3,2.5-6.4,3.7c-2.1,1.2-4.2,2.4-5.9,4.2
					c-0.5,0.5-1,1.1-1,1.9c0,1,1,1.8,1.9,1.9c1,0.2,2,0,2.9-0.2c4.7-0.7,9.5,0.6,14.3,1c1.8,0.2,3.6,0.2,5.4,0
					c4.4-0.5,10.6-4.1,13.6-7.5c-0.1,0-0.1,0-0.2-0.1c-1.4-0.5-2.6-1.3-3.8-2.2c1.7,0.6,3.6,0.6,5.3,0c-0.8-1.1-1.6-2.1-2.6-3.1
					c-1.5,1.4-3.8,1.9-5.6,1.1c0,0-0.1,0-0.1-0.1c-2.7-1.8-6-2.8-9.2-2.9c-0.5,0-1,0-1.5,0c-0.1,0-0.3,0-0.4,0
					c-1.1,0.1-2.2,0.2-3.3,0.6C360.6,197.7,360.4,197.8,360.1,197.9z M353.9,287.8l-0.1-0.3c-7.1-1.4-14-3.4-20.8-5.8
					c-2.4-0.8-4.9-1.8-7.3-1.1c-3.1,0.8-5.7,4.1-8.9,3.5c-1.5-0.3-2.6-1.3-4-1.8c-1.8-0.7-3.7-0.5-5.6-0.2
					c-4.6,0.7-9.1,1.9-13.5,3.6c-4.3,1.7-8.8,3.8-13.3,2.9c0.2,0.2,0.4,0.4,0.6,0.6l-0.9,1c2.3,3.4,4.6,6.9,7.8,9.4
					c3,2.5,6.8,4,10.4,5.4c6.7,2.6,13.6,5,20.8,5.2c14.2,0.4,28.2-8.8,33.5-22l0-0.1C352.9,288.1,353.4,288,353.9,287.8z
					 M342.4,181.9L342.4,181.9c-0.5,0.8-0.3,2.2,0.6,2.9c1.2,0.8,2.8,0.6,4.2,0.3c5.8-1.2,11.5-2.7,17.1-4.6c2.7-0.9,5.4-2,8.2-2.5
					c9.6-1.8,20.1,2.9,25.1,11.3c-1-4.5-4.4-8-7.7-11.1c-2.2-2.1-4.6-4.2-7.5-5.3c-4.8-1.8-10.2-0.7-15.2,0.5
					c-5,1.2-9.9,2.3-14.9,3.5C348.7,177.7,344.5,179,342.4,181.9z M265.7,192.2c-1.9,0.6-3.7,1.4-5.3,2.5c-1.4,0.9-2.7,1.9-3.7,3.2
					c1,1.5,2.8,2.5,4.6,2.3l0.3,0.4c-1.2,0.8-2.4,1.6-3.8,2.2l0.3,1.1c4.9,4.2,11.6,6.2,18.1,5.5c1.2-0.1,2.4-0.4,3.6-0.6
					c3.7-0.7,7.4-1.6,10.9-0.4c1.1,0.4,2.1,0.9,3.2,1c1.1,0.1,2.4-0.5,2.7-1.6c0.2-0.9-0.3-1.8-0.8-2.5c-2.5-3.5-6.1-6.3-10.1-8
					c-1.5-0.6-3-1.1-4.5-1.4c-0.9-0.2-1.7-0.3-2.6-0.4c-0.1,0-0.1,0-0.1,0c-0.5-0.1-1-0.1-1.4-0.1c-0.1,0-0.3,0-0.4,0v-0.2
					c-0.9-1.1-1.5-2.5-1.6-3.9l-0.1-1.1c-0.8,0.1-1.7,0.2-2.5,0.4c-0.8,0.1-1.6,0.3-2.3,0.5C268.5,191.3,267.1,191.7,265.7,192.2z
					 M245.2,191L245.2,191c-0.1-0.1-0.1-0.2-0.2-0.3h0v0c0-0.1,0-0.2,0.1-0.3c0.3-1.8,0.6-3.6,0.9-5.4c5.9-3.8,12.3-7.1,19.2-6.5
					c1.8,0.2,3.7,0.6,5.5,1.1c7.9,2,15.7,3.9,23.6,5.9c1.3,0.3,2.7,0.6,3.8-0.1c1.6-0.9,1.6-3.4,0.5-4.9c-1.1-1.5-2.9-2.2-4.7-2.8
					c-5.9-2.1-11.9-3.8-18-5c-5.2-1.1-10.8-1.8-15.8,0.2c-3.8,1.6-6.7,4.6-9.7,7.5h0l-0.1-0.1c-0.4-1.4-1.4-2.6-2.7-3.3
					c3.2-15.6,7.7-30.8,15.6-44.4c14.4-15.9,32.7-28.1,53.2-34.1c10.4-3.1,22.6-5.4,29.6-13h0l0.8,0.2c0.8,10.9,5.8,21.4,13.8,28.8
					c7.5,6.9,17.1,11,25.6,16.6l-1.1,1.7c2.1,3.2,4.1,6.4,6.2,9.6l0.8-0.5c6.8,8.7,9.4,20,10.3,31s0.4,22.1,1.9,33.1
					c0.7,4.8,1.7,9.6,2.6,14.5c0.7,3.7,1.2,7.5,1.3,11.3c0.1,1.1,0.1,2.1,0,3.2c-0.4,11.7-5.4,22.6-9.1,33.6
					c-5.3,15.7-8.4,32.7-18.2,46.2c-3.5,4.8-7.7,8.9-12.1,12.9c-0.9,0.9-1.8,1.7-2.8,2.6c-2.8,2.6-5.7,5.2-8.7,7.7
					c-4.2-5.7-9-11-15.2-14.5l-0.3,0.4c-7.2,8.3-13.3,17.5-18.4,27.2c-2.6,0.1-5.2,0-7.8-0.1c-5.3-0.2-10.7-0.6-15.9-2.1
					c-5.2-1.5-10-4-14.5-7.1c-4.9-3.3-9.5-7.2-13.9-11.1c-2-1.8-4.1-3.6-6.1-5.4c-2.4-2.3-4.7-4.6-6.7-7.2
					c-3.1-3.9-5.4-8.3-7.3-12.9c-2.8-6.7-4.6-13.9-6.2-21c-2.8-12.1-5.3-24.3-5.7-36.7c-0.5-13.5,1.4-26.9,3.3-40.2
					c0.6-4.6,1.3-9.1,2-13.7c0.3-0.3,0.5-0.5,0.7-0.9C245.4,192,245.4,191.4,245.2,191z M322.1,319.6c1.3-1,1.2-3.2-0.2-4
					c-1.1-0.6-2.6-0.2-3.2,0.8h0l-0.2-0.1c-0.6,0.5-0.7,1.5-0.4,2.2C318.8,319.9,320.9,320.5,322.1,319.6z"/>
				<path class="st3" d="M323,763.8c0,0-0.1-0.1-0.1-0.1c-2.7-5.8-0.1-12.8-1.9-19c-1.5-5.3-6-11.5-2.2-15.5
					c1.1-1.1,2.2-2.2,3.2-3.3l1.3-0.7c0.7,1.4,1.7,2.6,3,3.7c4.2,3.4,10.2,2.9,15.5,2.3c3-0.3,5.9-0.7,8.9-1
					c1.9-0.2,3.8-0.4,5.6-0.6c3.4,1.6,2.7,8.5,6.5,8.6l5.7,5.8c1.5-1.4,3.4-2.3,5.4-2.7c0.2,0.5,0.5,1,0.8,1.5
					c0.8-0.6,1.6-1.1,2.5-1.5c7-3.6,16.3-2.8,22.4,2.3c6.9,5.7,9.1,16.3,5.1,24.4c-0.4,0.8-0.8,1.5-1.3,2.2
					c-4.4,6.8-12.8,10.6-21,11.4c-8.4,0.8-16.9-1-25.1-3c-1.6-0.7-3.2-1.4-4.8-1.8c-1.8-0.5-3.7-0.7-5.6-0.7
					c-2.2-0.5-4.4-1.1-6.6-1.6C333.6,772.5,326,770.1,323,763.8z"/>
				<path class="st0" d="M402.7,594.4c-1.5,4.5-2.9,9-4.4,13.5c-1.4,4.4-4.1,9.8-8.8,9.5c-5-0.3-6.7-6.8-7.1-11.8
					c-0.3-4.4-0.6-8.8-1-13.2c0.1-1,0.1-2,0.1-3l1.6-0.9l1.7,2.9c0,0,0,0,0,0.1c0.2,0.4,0.5,0.9,0.8,1.3l0.9,1.5l0.5,0.2
					c0,0,0,0,0,0c0.9,0.9,1.9,1.6,3.1,2.1c3.6,1.6,7.2,0.7,10.3-1.5l1.8-0.4L402.7,594.4z"/>
				<path class="st4" d="M403.5,769.8c-1.8,6.7-5.2,13.1-11.3,16.2c-4.4,2.2-9.6,2.5-14.4,1.4c-4.8-1-9.3-3.2-13.6-5.6
					c-2.2-1.2-4.5-2.5-6.8-3.6c8.2,2,16.7,3.8,25.1,3C390.7,780.4,399.1,776.6,403.5,769.8z"/>
				<path class="st0" d="M392.8,596.6l7.6-1.7c-3.2,2.2-6.7,3.1-10.3,1.5c-1.2-0.5-2.2-1.2-3.1-2.1L392.8,596.6z"/>
				<path class="st5" d="M342.5,181.9L342.5,181.9c2-2.9,6.2-4.3,9.9-5.1c5-1.2,9.9-2.3,14.9-3.5c5-1.2,10.4-2.3,15.2-0.5
					c2.9,1.1,5.3,3.2,7.5,5.3c3.4,3.1,6.7,6.6,7.7,11.1c-5-8.4-15.5-13.1-25.1-11.3c-2.8,0.5-5.5,1.6-8.2,2.5
					c-5.6,1.9-11.3,3.5-17.1,4.6c-1.4,0.3-3,0.5-4.2-0.3C342.1,184.1,341.9,182.7,342.5,181.9z"/>
				<path class="st0" d="M386.9,594.3l-0.5-0.2l-0.9-1.5C386,593.2,386.4,593.8,386.9,594.3z"/>
				<path class="st0" d="M384.9,591.3l0.8,1.3C385.3,592.2,385.1,591.7,384.9,591.3z"/>
				<path class="st0" d="M371.3,551c-1.3-2.5-2.5-5-3.6-7.5c-0.1-0.5-0.3-1-0.4-1.5c-1.2-9.1-1.5-18.2-1.8-27.4
					c-0.5-16.1-1.1-32.2-1.6-48.4l1.3-0.4c12,35.7,18,73.3,17.4,110.9c-0.1,4.8,0.2,10.3,2.2,14.5l-1.7-2.9l-1.6,0.9
					c0-0.3,0-0.5,0-0.8c-2.4,5.9-5.5,11.5-9.4,16.5c-0.7-4.5-1.2-9-1.6-13.6c1-3.1,1.8-6.3,2.4-9.5C375,571.7,374.9,560.8,371.3,551
					C371.3,551.1,371.3,551,371.3,551z"/>
				<path class="st6" d="M378.4,202.1c1.2,0.9,2.4,1.7,3.8,2.2c0.1,0,0.1,0.1,0.2,0.1c-3.1,3.4-9.2,7-13.6,7.5
					c-1.8,0.2-3.6,0.1-5.4,0v0l0.1-1.3v0c2.5,0.2,5-1,6.3-3.1c1.8-3,0.1-7.8-3.2-9.2c0,0-4.3-0.3-7.1,0.9l-0.3-0.6l0,0
					c0.3-0.2,0.6-0.4,0.9-0.6c0.3-0.1,0.5-0.2,0.8-0.3c1.1-0.4,2.2-0.5,3.3-0.6c0.1,0,0.3,0,0.4,0c0.5,0.1,1,0.1,1.5,0
					c3.3,0.2,6.5,1.2,9.2,2.9c0,0,0.1,0,0.1,0.1C376.4,200.6,377.4,201.4,378.4,202.1z"/>
				<path class="st7" d="M381.1,198.9c0.9,1,1.8,2.1,2.6,3.1c-1.7,0.6-3.6,0.6-5.3,0c-1-0.7-1.9-1.5-3-2.1
					C377.3,200.8,379.6,200.3,381.1,198.9z"/>
				<path class="st2" d="M381.2,589.4l0.3-0.2c0,1-0.1,2-0.1,3C381.4,591.3,381.3,590.3,381.2,589.4z"/>
				<path class="st0" d="M375.9,629.7c0.3,6.7-0.5,13.2-4.1,18.8c-0.7,1.2-1.6,2.2-2.5,3.2C371.9,644.6,374.1,637.2,375.9,629.7z"/>
				<path class="st8" d="M354.9,439c-0.2,3-0.4,6-0.6,9c-0.7,10.3-1.4,20.7-1.1,31.1c0.5,19.4,4.4,38.6,11.3,56.7
					c-5.1,5.3-12.8,7.8-20.1,6.5c-1.5,0.3-2.2,2-2.2,3.5c0,1.4,0.5,2.7,1.3,3.8l-0.5,0.4c0.6,7.6,1.1,15.3,1.7,22.9
					c0.1,1.8,0.3,3.6,1.3,5.1c1,1.5,3.1,2.3,4.6,1.3c3.6,5.7,14,4.4,16.1-2.1l3.1-0.1c0.1,4.7,0.3,9.4,0.7,14.1
					c-2.7,8.9-6.6,17.6-10.5,26.1c4.5-3.7,8.5-7.9,12-12.5c0.3,2.1,0.7,4.2,1,6.2c1.1,6,2.4,12.4,2.7,18.6c-1.8,7.5-4,14.9-6.7,22.1
					c-4.5,4.8-10.9,7.7-17.5,8.6c-0.3,0.1-0.5,0.1-0.8,0.1c-8.2,0.9-16.5-1-24.2-4c-1.5-0.6-3.1-1.3-4.1-2.5
					c-1.4-1.6-1.8-3.8-2.1-5.9c-2.5-16-6.5-31.7-11.8-47c-7.5-21.5-17.7-41.9-28.4-62c0.6-3.9,1.3-7.9,2.1-11.8
					c6.7-35.2,17.8-69.7,19.9-105.4c0.1-2,0.2-4,0.3-6h0.3c2.7-10.5,5.3-20.9,8-31.4c0.7-2.9,1.5-5.7,2.3-8.6
					c2.5-8.8,5.9-17.2,10.1-25.3c5.4-0.1,10.8-0.8,15.9-2.5c6.6-2.2,12.4-6.1,17.8-10.6c1.6,2.1,3,4.3,4.4,6.4
					c0.7,1.1,1.4,2.1,2.1,3.2c-3.6,16.3-4.8,33.3-5.9,50C356.8,411.2,355.8,425.1,354.9,439z"/>
				<path class="st3" d="M370,725.5c4.1,3.6,1.8,10.6,4,15.6c-2,0.4-3.9,1.3-5.4,2.7l-5.7-5.8c-2.9-1.8-4.5-5.6-3.6-8.9
					c3.5-0.6,7-1.7,8.4-4.7C368.5,724.5,369.3,724.9,370,725.5z"/>
				<path class="st0" d="M372.2,604.9L372.2,604.9c-3.5,4.7-7.5,8.9-12,12.5c3.9-8.6,7.7-17.2,10.5-26.1
					C371,595.9,371.5,600.4,372.2,604.9z"/>
				<path class="st9" d="M361.1,202.8c0,0.2,0,0.5,0.3,0.8c0.2,0.2,0.5,0.5,1,0.7c1.2,0.5,2.6-1.3,1.9-2.5c-0.7-1.1-2.8-0.8-3.1,0.6
					C361.2,202.4,361.1,202.5,361.1,202.8z M366.6,198.2c3.3,1.4,5,6.2,3.2,9.2c-1.3,2.1-3.9,3.2-6.3,3.1c-1.1-0.1-2.1-0.4-3-1
					c-3-1.9-5-6.9-2.5-9.4c0.4-0.4,0.9-0.7,1.5-1C362.3,197.9,366.6,198.2,366.6,198.2z"/>
				<path class="st8" d="M367.8,545.5c-0.1-0.9-0.3-1.8-0.4-2.7c0.1,0.3,0.2,0.5,0.3,0.8c2.7,9.7,2.1,20.4,2.1,30.6
					c0,1,0,2.1,0.1,3.1l-3.1,0.1c-2.1,6.4-12.4,7.8-16.1,2.1c-1.5,1-3.6,0.2-4.6-1.3c-1-1.5-1.2-3.3-1.3-5.1
					c-0.6-7.6-1.1-15.3-1.7-22.9l0.5-0.4c1.9,2.6,5.6,4.1,9,3.7c4.8-0.6,8.7-4,12.1-7.4L367.8,545.5z"/>
				<path class="st0" d="M368.5,327.4l0.6,0.7c-2.3,6.3-4.2,12.7-5.6,19.2c-0.7-1.1-1.4-2.1-2.1-3.2c-1.4-2.2-2.9-4.3-4.4-6.4
					c3-2.5,5.9-5.1,8.7-7.7C366.7,329.2,367.6,328.3,368.5,327.4z"/>
				<path class="st10" d="M290.7,594.7c7.1,22-2.7,45.9-2.4,69c0.3,19.5,7.7,38.9,3.9,58c-0.3,1.2-0.6,2.5-1,3.6
					c-0.5,1.1-1.1,2.2-2.1,2.9c-1.2,1-2.8,1.5-4.4,1.7c-0.1-0.6-0.3-1.1-0.5-1.6c-0.3,0.6-0.5,1.2-0.8,1.7c-0.7,0.1-1.5,0.1-2.2,0.1
					c-0.2,0-0.3,0-0.5,0c-0.6-1-1.2-2-1.8-2.9c-0.7,0.9-1.3,1.8-2,2.8c-5-1.2-10.4-1-15.3,0.4c-1.1,0-2.1,0-3.2,0
					c-3.9,0-8.8-0.5-10.2-4.2c-0.1-0.3-0.2-0.7-0.3-1c-0.3-1.6,0.2-3.3,0.5-5c4.6-19.7,3.3-40.8-3.6-59.8l-0.1-2.8
					c2.5,0,4.9-0.2,7.3-0.5c5.2-0.6,10.8-1.3,15-4.4c7.9-5.9,8-17.5,7.7-27.3c-1-28.8,0.9-57.7,5.6-86.1
					c10.7,20.1,20.9,40.5,28.4,62c5.3,15.3,9.3,31,11.8,47c0.3,2.1,0.7,4.3,2.1,5.9c1.1,1.2,2.6,1.9,4.1,2.5c7.7,3,16,4.9,24.2,4
					c0.3,0,0.5-0.1,0.8-0.1c-2.6,7.7-1.6,16.1,1,23.9c0.6,1.8,1.3,3.6,2,5.3c3.9,9.2,9.3,17.8,12.5,27.3c0.8,2.3,1.4,4.9,0.5,7.2
					c0,0.1-0.1,0.2-0.1,0.3c-2.9-0.7-6.3,0.6-7.8,3.3c-0.3,0.5-0.4,1-0.6,1.5c-0.6,0.1-1.2,0.2-1.8,0.2c-0.3,0-0.7,0.1-1,0.1
					c0,0-0.1,0-0.1-0.1c-1.3-0.6-2.8-0.1-4.2,0.3c-0.5,0.1-0.9,0.3-1.4,0.4c-3,0.3-5.9,0.7-8.9,1c-5.3,0.6-11.3,1.1-15.5-2.3
					c-1.3-1-2.2-2.3-3-3.7c-2.3-4.5-2.1-10.5-2.2-15.9c-0.1-12.2-3.2-24.2-6.2-36.1C308.3,646.5,301.5,619.8,290.7,594.7z"/>
				<path class="st8" d="M367.8,545.5l-3.1,0.5c-3.4,3.4-7.3,6.7-12.1,7.4c-3.4,0.4-7.1-1.1-9-3.7c-0.8-1.1-1.3-2.4-1.3-3.8
					c0-1.5,0.8-3.2,2.2-3.5c7.2,1.2,15-1.3,20.1-6.5c0.9,2.3,1.8,4.6,2.9,6.9C367.5,543.7,367.7,544.5,367.8,545.5z"/>
				<path class="st0" d="M367.7,543.5c-0.1-0.3-0.2-0.5-0.3-0.8c0-0.3-0.1-0.5-0.1-0.8C367.5,542.5,367.6,543,367.7,543.5z"/>
				<path class="st0" d="M367.3,542c0,0.3,0.1,0.5,0.1,0.8c-1-2.3-2-4.6-2.9-6.9c0.1,0,0.1-0.1,0.1-0.1
					C365.8,537.7,366.6,539.8,367.3,542z"/>
				<path class="st0" d="M365.5,514.6c0.3,9.1,0.6,18.3,1.8,27.4c-0.7-2.2-1.5-4.3-2.6-6.3c-0.1,0.1-0.1,0.1-0.1,0.1
					c-7-18.1-10.9-37.3-11.3-56.7c-0.3-10.4,0.4-20.8,1.1-31.1c0.2-3,0.4-6,0.6-9c3.8,8.8,7.3,17.7,10.3,26.8l-1.3,0.4
					C364.5,482.4,365,498.5,365.5,514.6z"/>
				<path class="st11" d="M364.6,197c0.5,0,1,0,1.5,0C365.6,197.1,365.1,197.1,364.6,197z"/>
				<path class="st12" d="M364.3,201.8c0.7,1.1-0.7,3-1.9,2.5c-0.5-0.2-0.8-0.4-1-0.7c0.1,0,0.1,0,0.1-0.1c0.1-0.3-0.1-0.6-0.3-0.7
					c0-0.3,0.1-0.4,0.1-0.4C361.4,201,363.6,200.7,364.3,201.8z M364.1,202.8c0-0.5-0.4-0.8-0.9-0.8c-0.5,0-0.9,0.4-0.9,0.8
					c0,0.5,0.4,0.8,0.9,0.8C363.7,203.6,364.1,203.3,364.1,202.8z"/>
				<path class="st6" d="M363.5,210.5L363.5,210.5l-0.1,1.3v0c-4.8-0.5-9.5-1.8-14.3-1c-1,0.2-2,0.4-2.9,0.2c-1-0.2-1.9-1-1.9-1.9
					c0-0.7,0.5-1.3,1-1.9c1.7-1.7,3.8-2.9,5.9-4.2c2.1-1.2,4.3-2.5,6.4-3.7c0.8-0.5,1.7-1,2.6-1.3c-0.3,0.2-0.6,0.4-0.9,0.6l0,0
					l0.3,0.6c-0.6,0.3-1.1,0.6-1.5,1c-2.5,2.5-0.5,7.5,2.5,9.4C361.4,210.1,362.4,210.4,363.5,210.5z"/>
				<path class="st13" d="M363.2,202c0.5,0,0.9,0.4,0.9,0.8c0,0.5-0.4,0.8-0.9,0.8c-0.5,0-0.9-0.4-0.9-0.8
					C362.2,202.3,362.6,202,363.2,202z"/>
				<path class="st11" d="M361.1,202.8c0.3,0.1,0.4,0.4,0.3,0.7c0,0,0,0.1-0.1,0.1C361.1,203.3,361,203,361.1,202.8z"/>
				<path class="st2" d="M357.1,337.7c-5.4,4.5-11.2,8.4-17.8,10.6c-5.1,1.7-10.5,2.4-15.9,2.5c5-9.8,11.2-18.9,18.4-27.2l0.3-0.4
					C348,326.6,352.9,331.9,357.1,337.7z"/>
				<path class="st14" d="M353.8,287.5l0.1,0.3c-0.5,0.1-1,0.3-1.4,0.4c-5.2,1.9-9.9,5.9-15.4,5.5c-3.4-0.3-6.6-2.2-9.9-1.7
					c-3.3,0.5-6,3.4-9.3,3.6c-2.2,0.2-4.2-0.7-6.3-1.2c-4.5-1-9.2-0.1-13.8-0.2c-5.2,0-10.4-1.3-15-3.7c-0.6-0.4-1.2-0.8-1.7-1.3
					c-0.2-0.2-0.4-0.4-0.6-0.6c4.5,0.9,9-1.3,13.3-2.9c4.3-1.6,8.9-2.9,13.5-3.6c1.9-0.3,3.8-0.5,5.6,0.2c1.4,0.5,2.5,1.5,4,1.8
					c3.2,0.6,5.7-2.7,8.9-3.5c2.4-0.6,5,0.3,7.3,1.1C339.8,284.2,346.7,286.1,353.8,287.5z"/>
				<path class="st11" d="M282.7,290.7c4.6,2.4,9.8,3.6,15,3.7c4.6,0,9.3-0.9,13.8,0.2c2.1,0.5,4.2,1.4,6.3,1.2
					c3.4-0.3,6-3.1,9.3-3.6c3.3-0.5,6.5,1.5,9.9,1.7c5.5,0.4,10.2-3.7,15.4-5.5l0,0.1c-5.2,13.2-19.3,22.4-33.5,22
					c-7.2-0.2-14.1-2.7-20.8-5.2c-3.7-1.4-7.4-2.9-10.4-5.4c-3.2-2.6-5.5-6-7.8-9.4l0.9-1C281.5,289.9,282.1,290.3,282.7,290.7z"/>
				<path class="st0" d="M198.8,554.5c-0.2,8.1-0.4,16.3-0.6,24.4c-2.5-3.6-4.9-7.3-7.4-10.9c-1.2,10,0.1,20.4,3.9,29.8
					c-3.9-1.2-7-4.7-7.6-8.7c-1.6,25,8,50.5,25.7,68.2c-11-6.8-22.1-13.9-31.1-23.1c-9.1-9.3-16.1-21.1-17.2-34
					c-2.2,12.8-1.2,26.1,2.8,38.4c-6-14.1-11.9-28.2-17.9-42.3c-5.7-13.5-11.5-27.1-14.8-41.5c-2-8.6-3-17.3-3.2-26.1h0h-0.5
					c-3.8-19.2,5.5-38.1,12.5-56.4c11.9-30.7,17.9-63.6,17.7-96.4c-0.1-12.4-1-24.9,0-37.2c1.9-22.7,10.3-44.2,15-66.4
					c8.5-40.1,5.1-83,21.8-120.4c13.6-30.6,39.1-54,64.5-75.7c12.6-10.8,26.3-21.8,42.7-24.4c12.3-2,26.4,2.6,33.8,11.9
					c2.5,3.1,4.2,6.7,4.9,10.8l5.4,6.3c-0.9,1.8-2,3.4-3.3,4.8h0c-7,7.6-19.2,9.9-29.6,13c-20.5,6-38.7,18.3-53.2,34.1
					c-6.6,7.3-12.4,15.3-17.2,23.8c-4.2,7.4-7.7,15-10.6,23c-7.7,21.2-11,44.2-10.7,66.8c0.3,24.2,4.6,48.2,6.4,72.3
					c0.9,12.4,1.2,24.9,0.8,37.4l7.1,2.7c-5,9.3-9,19.2-12.1,29.3c-7.6,24.8-10.2,50.8-12.7,76.7c-1.9,20-3.9,40-5.8,60
					C204.2,534.2,201.1,544.3,198.8,554.5z"/>
				<path class="st4" d="M347,775.7c-2.5-0.1-5,0.2-7.5,0.7c-2.6,0.5-5.3,1.3-7.9,0.7c-3.5-0.8-6.1-3.9-7.4-7.2c-0.7-2-1-4-1.2-6.1
					c2.9,6.3,10.6,8.6,17.3,10.3C342.6,774.7,344.8,775.2,347,775.7z"/>
				<path class="st2" d="M315.5,350.7c2.6,0.1,5.2,0.1,7.8,0.1c-4.2,8.1-7.6,16.6-10.1,25.3c-0.8,2.8-1.6,5.7-2.3,8.6
					c-2.7,10.5-5.3,20.9-8,31.4h-0.3c0.7-25.9-4.2-52.9-17.5-74.5c4.5,3,9.3,5.6,14.5,7.1C304.8,350.1,310.1,350.5,315.5,350.7z"/>
				<path class="st15" d="M318.7,316.4c0.6-1,2.2-1.5,3.2-0.8c1.3,0.8,1.4,3.1,0.2,4c-1.2,1-3.3,0.4-3.9-1.1
					c-0.3-0.7-0.2-1.7,0.4-2.2L318.7,316.4L318.7,316.4z"/>
				<path class="st8" d="M282.4,435.1c-0.3,3.3-0.4,6.5-0.1,9.8c0,0.6,0.1,1.2,0.5,1.6c0.6,0.6,1.7,0.3,2.5-0.1
					c4.6-2.9,5-10.6,0.6-13.8c-0.6,0.9-1.2,1.8-1.8,2.7L282.4,435.1z M277.9,475.4l-0.3,0.7c-3.1,2.7-4.7,7.1-4.2,11.2
					c0.1,0.7,0.2,1.4,0.7,1.9c1,1.3,3.2,0.9,4.3-0.3c1.1-1.2,1.5-2.9,1.8-4.4c0.4-2.2,0.9-4.5,0.1-6.6
					C279.8,476.9,278.9,475.9,277.9,475.4z M240.4,480.6c10.2-20.3,12.8-43.7,13.4-66.5c0.4-14.4,0-28.9-1.1-43.3h0l1.5-0.1v0
					c2.2-12,2.7-24.4,1.6-36.6c2.9-3.2,6-6.3,9.4-9.1c2,1.9,4,3.6,6.1,5.4c4.4,3.9,9,7.8,13.9,11.1c13.3,21.6,18.2,48.5,17.5,74.5
					c0,2-0.1,4-0.3,6c-2.2,35.7-13.2,70.2-19.9,105.4c-0.8,3.9-1.5,7.9-2.1,11.8c-4.7,28.4-6.5,57.3-5.6,86.1
					c0.3,9.8,0.2,21.4-7.7,27.3c-4.2,3.1-9.7,3.8-15,4.4c-2.3,0.3-4.8,0.5-7.3,0.5c-6.2,0.1-12.4-1.1-16.2-5.7
					c-3.4-4.1-3.9-9.8-4.1-15.1c-0.5-10.1-0.8-20.2-1-30.4l0.4-0.1l-0.4-16.6c0-1.7,0-3.4,0.1-5.1c3.4,4,8.2,7,13.4,7.5
					c5.3,0.5,11-1.9,13.8-6.5c3.7-6.4,1.1-15,3.4-21.9c1,0.1,1.9,0.1,2.9,0.1c4.8-4.8-0.8-12.9-6.8-16c-6-3.2-13.7-6.3-14.4-13
					c-3.9,4.3-6.5,9.3-8.3,14.7l-2.5-3c3.8-19.5,7.6-39.1,11.3-58.6c0.2-0.8,0.3-1.7,0.5-2.5c1-1.6,2-3.3,3-4.9L240.4,480.6z
					 M270.1,532.3c1.2-2.6,1.6-5.7,1.1-8.5c-0.5-2.6-3.4-5.4-5.3-3.6l0.2,0.2c-1.4,3-2.1,6.5-1.8,9.8c0.1,2.1,1.4,4.8,3.5,4.4
					C268.8,534.4,269.6,533.3,270.1,532.3z"/>
				<path class="st5" d="M298.4,180.5c1.1,1.5,1.1,4-0.5,4.9c-1.1,0.7-2.5,0.4-3.8,0.1c-7.9-2-15.7-3.9-23.6-5.9
					c-1.8-0.4-3.6-0.9-5.5-1.1c-6.9-0.6-13.3,2.8-19.2,6.5c0.1-0.3,0.1-0.7,0.2-1c1.5-1.1,2.8-2.3,4.1-3.6h0c3-2.9,5.9-6,9.7-7.5
					c4.9-2.1,10.5-1.3,15.8-0.2c6.1,1.3,12.1,2.9,18,5C295.5,178.2,297.3,179,298.4,180.5z"/>
				<path class="st3" d="M218.4,774.4c-0.9-1.6-1.5-3.4-1.6-5.4c-0.2-4,1.7-7.7,3.4-11.3c0.7-1.4,1.4-2.8,2.1-4.2
					c0.7-0.1,1.4-0.1,2.1-0.1c2.8-1.9,5.5-3.8,8.3-5.7c5.6-1.7,11.9-3.4,17-0.6c1.7,0.9,3,2.1,4,3.6l1.1-3.6
					c-8.7-2.3-14-13.3-10.2-21.6l3.2-0.3c0.1,0.3,0.1,0.7,0.3,1c1.4,3.7,6.3,4.2,10.2,4.2c1.1,0,2.1,0,3.2,0
					c6.4-0.1,12.8-0.1,19.1-0.2c0.5,0.8,1,1.7,1.5,2.5c0.4-0.9,0.8-1.7,1.2-2.6c0.4,0,0.8-0.1,1.2-0.1c1.6-0.2,3.2-0.7,4.4-1.7
					c0.9-0.8,1.6-1.8,2.1-2.9l3.5,0.3c1.1,6.1,1.8,12.2,2.1,18.4c0.1,3.3,0.1,6.7-0.7,9.8c-0.3,1.1-0.6,2.1-1.1,3.1
					c-1.7,3.9-4.6,7.4-7.7,10.3c-1.7,1.6-3.5,3.2-5.3,4.6h0c-2.3,0.6-4.1,2.3-5.9,4.1c-3.7,2.3-7.7,4.1-11.8,5.6
					c-9,3.2-18.9,4.4-28.4,3C229,783.5,221.6,780.1,218.4,774.4z"/>
				<path class="st6" d="M285.6,197.2c4,1.7,7.5,4.4,10.1,8c0.5,0.7,1,1.6,0.8,2.5c-0.3,1.1-1.6,1.7-2.7,1.6c-1.1-0.1-2.2-0.6-3.2-1
					c-3.5-1.2-7.2-0.3-10.9,0.4l-0.2-0.8c0.5-0.1,1.1-0.3,1.6-0.6c1.9-1.1,3-3.3,2.9-5.5c-0.1-2.2-1.2-4.4-3-5.6
					c-0.8-0.4-1.6-0.7-2.4-0.8c0.9,0.1,1.8,0.2,2.6,0.4C282.6,196.2,284.2,196.6,285.6,197.2z"/>
				<path class="st4" d="M295,757c0.6,2.9,1,5.7,0.3,8.6c-0.8,3.5-3.7,6.7-7.2,6.8c-1.6,0-3.2-0.6-4.8-0.6c-0.5,0-1,0.1-1.4,0.2
					c1.9-1.5,3.6-3,5.3-4.6C290.4,764.3,293.2,760.9,295,757z"/>
				<path class="st8" d="M285.9,432.5c4.4,3.2,4.1,11-0.6,13.8c-0.8,0.5-1.9,0.8-2.5,0.1c-0.4-0.4-0.5-1-0.5-1.6
					c-0.2-3.2-0.2-6.5,0.1-9.8l1.7,0.1C284.7,434.3,285.3,433.4,285.9,432.5z"/>
				<path class="st9" d="M274.8,201.5c0.2,0.9,0.7,1.6,1.5,1.2c1-0.4,1.2-1.9,0.3-2.5c-0.8-0.5-1.9,0.3-1.9,1.1
					C274.8,201.4,274.8,201.5,274.8,201.5C274.8,201.5,274.8,201.5,274.8,201.5z M284,201.9c0.1,2.2-1,4.4-2.9,5.5
					c-0.5,0.3-1,0.5-1.6,0.6c-1.5,0.3-3,0.2-4.5-0.2c-1.7-0.4-3.5-1.1-4.7-2.4c-1.2-1.3-1.9-3.2-1.2-4.9c0.2-0.6,3.2-3.5,2.7-3.9
					c0,0,2.4-1.1,5.1-1.2c0.5,0,1,0,1.4,0.1c0,0,0.1,0,0.1,0c0.8,0.1,1.7,0.4,2.4,0.8C282.8,197.4,283.8,199.7,284,201.9z"/>
				<path class="st8" d="M280.2,478c0.8,2.1,0.4,4.4-0.1,6.6c-0.3,1.6-0.7,3.3-1.8,4.4c-1.1,1.2-3.3,1.5-4.3,0.3
					c-0.4-0.5-0.6-1.2-0.7-1.9c-0.5-4.1,1.1-8.4,4.2-11.2l0.3-0.7C278.9,475.9,279.8,476.9,280.2,478z"/>
				<path class="st6" d="M272.7,195.8c1.3-0.2,2.5-0.3,3.8-0.3c0.1,0,0.3,0,0.4,0c-2.7,0.1-5.1,1.2-5.1,1.2c0.6,0.4-2.4,3.3-2.7,3.9
					c-0.7,1.7,0,3.6,1.2,4.9c1.2,1.3,3,2,4.7,2.4c1.5,0.4,3,0.5,4.5,0.2l0.2,0.8c-1.2,0.3-2.4,0.5-3.6,0.6
					c-6.4,0.7-13.1-1.3-18.1-5.5l-0.3-1.1c1.3-0.6,2.6-1.4,3.8-2.2c0.8-0.6,1.7-1.1,2.5-1.7c0.6-0.4,1.2-0.7,1.8-1
					c1-0.5,2.1-1,3.2-1.3C270.2,196.2,271.4,195.9,272.7,195.8z"/>
				<path class="st2" d="M276.9,195.4c0.5,0,0.9,0,1.4,0.1C277.9,195.4,277.4,195.4,276.9,195.4z"/>
				<path class="st12" d="M276.7,200.3c0.8,0.6,0.6,2.1-0.3,2.5c-0.8,0.3-1.3-0.4-1.5-1.2c0,0,0,0,0,0c0,0,0-0.1,0-0.1
					C274.8,200.5,275.9,199.8,276.7,200.3z M276.9,201.3c0-0.3-0.2-0.6-0.5-0.6c-0.3,0-0.5,0.3-0.5,0.6c0,0.3,0.2,0.6,0.5,0.6
					C276.7,201.8,276.9,201.6,276.9,201.3z"/>
				<ellipse class="st13" cx="276.4" cy="201.3" rx="0.5" ry="0.6"/>
				<path class="st2" d="M271.1,193.5l-0.4,0.1c-0.4-0.6-0.6-1.3-0.6-2l-0.1-0.6c0.8-0.2,1.6-0.3,2.3-0.5c0.8-0.1,1.7-0.3,2.5-0.4
					l0.1,1.1c0.1,1.4,0.6,2.8,1.6,3.9v0.2c-1.3,0-2.6,0.1-3.8,0.3C271.9,195.2,271.3,194.4,271.1,193.5z"/>
				<path class="st4" d="M276,776c-0.7,0.7-1.4,1.4-2,2c-3.7,3.5-8.4,5.8-13.2,7.8c-7.9,3.3-16.4,5.9-24.9,4.6
					c-8.4-1.3-16.4-7.6-17.5-16c3.1,5.7,10.6,9.2,17.4,10.2c9.5,1.4,19.3,0.3,28.4-3C268.3,780.1,272.3,778.3,276,776z"/>
				<path class="st8" d="M271.2,523.7c0.5,2.9,0.1,5.9-1.1,8.5c-0.5,1-1.2,2.1-2.3,2.3c-2.1,0.4-3.4-2.3-3.5-4.4
					c-0.2-3.4,0.4-6.8,1.8-9.8l-0.2-0.2C267.8,518.3,270.7,521.2,271.2,523.7z"/>
				<path class="st7" d="M271.1,193.5c0.2,0.9,0.8,1.8,1.5,2.3c-1.2,0.2-2.5,0.5-3.6,0.9v0l0-0.1c-1.4-1.2-2.5-2.7-3.2-4.4
					c1.4-0.5,2.8-0.8,4.2-1.1l0.1,0.6c0,0.7,0.2,1.4,0.6,2L271.1,193.5z"/>
				<path class="st7" d="M265.5,197.3c-2,0.4-4.1-0.9-5.1-2.7c1.6-1,3.5-1.8,5.3-2.5c0.7,1.7,1.8,3.2,3.2,4.4l0,0.1v0
					c-1.1,0.3-2.2,0.8-3.2,1.3v0L265.5,197.3z"/>
				<path class="st7" d="M265.8,197.9L265.8,197.9c-0.6,0.3-1.2,0.6-1.8,1c-0.8,0.5-1.7,1.1-2.5,1.7l-0.3-0.4
					c-1.8,0.2-3.6-0.8-4.6-2.3c1.1-1.3,2.3-2.3,3.7-3.2c1,1.8,3,3,5.1,2.7L265.8,197.9z"/>
				<path class="st0" d="M258.4,317.8c2,2.6,4.3,5,6.7,7.2c-3.3,2.8-6.5,5.9-9.4,9.1c-0.8-9.8-2.8-19.5-5.7-28.9l1-0.3
					C253,309.5,255.4,313.9,258.4,317.8z"/>
				<path class="st8" d="M254.1,563.5c-10.1-0.9-19.8-5.9-26.3-13.8l-0.3-0.4c1.8-5.4,4.4-10.5,8.3-14.7c0.7,6.7,8.4,9.9,14.4,13
					c6,3.2,11.6,11.2,6.8,16C256.1,563.6,255.1,563.5,254.1,563.5z"/>
				<path class="st0" d="M255.8,334.1c1.1,12.2,0.5,24.5-1.6,36.6v0l-1.5,0.1h0c-0.8-9.7-1.8-19.4-3.3-29
					C251.4,339.2,253.6,336.6,255.8,334.1z"/>
				<path class="st0" d="M238.9,436.2c-2.5,18.3-7,36.2-14.5,53.1c-3.6,8.1-7.7,15.9-11.4,23.8c-0.2,0.5-0.5,1-0.7,1.4
					c-1.5,3.3-2.9,6.6-4.2,9.9c2-20,3.9-40,5.8-60c2.5-25.8,5.1-51.9,12.7-76.7c3.1-10.1,7.1-20,12.1-29.3
					c3.1-5.8,6.7-11.4,10.7-16.6c1.4,9.6,2.5,19.3,3.3,29c1.1,14.4,1.5,28.8,1.1,43.3c-0.6,22.8-3.2,46.2-13.4,66.5l-0.5-0.3
					c-1,1.7-2,3.3-3,4.9c1.6-8.3,3.1-16.6,3.4-25.1C240.5,452.2,239.8,444.2,238.9,436.2z"/>
				<path class="st8" d="M254.1,563.5c-2.3,6.9,0.3,15.5-3.4,21.9c-2.7,4.6-8.4,7-13.8,6.5c-5.2-0.5-10-3.5-13.4-7.5
					c0-2,0.1-4,0.1-6c0.2-9.8,0.8-20,3.9-29.2l0.3,0.4C234.3,557.5,244,562.6,254.1,563.5z"/>
				<path class="st0" d="M249.4,341.8c-4,5.2-7.5,10.8-10.7,16.6l-7.1-2.7c0.4-12.4,0.1-24.9-0.8-37.4c-1.8-24.1-6-48.1-6.4-72.3
					c-0.3-22.7,2.9-45.6,10.7-66.8l3.7,1.3h0c-0.7,1.8-0.8,3.9-0.1,5.8c0.4,1.2,1.1,2.4,2.1,3.2c0.7,0.5,1.5,0.9,2.3,1.1
					c-0.3,0.5-0.4,1-0.2,1.5c0.1,0.3,0.5,0.5,0.8,0.5c0.1,0.4,0.2,0.8,0.3,1.1c0.2-0.1,0.3-0.3,0.5-0.5c-0.7,4.6-1.4,9.2-2,13.7
					c-1.9,13.3-3.8,26.7-3.3,40.2c0.4,12.4,2.9,24.6,5.7,36.7c1.6,7.1,3.5,14.3,6.2,21l-1,0.3c2.9,9.4,4.9,19.1,5.7,28.9
					C253.6,336.6,251.4,339.2,249.4,341.8z"/>
				<path class="st2" d="M247.1,178.2c0.1-0.4,0.2-0.8,0.3-1.3c1.3,0.7,2.3,1.8,2.7,3.3l0.1,0.1c-1.3,1.3-2.7,2.5-4.1,3.6
					C246.4,182,246.8,180.1,247.1,178.2z"/>
				<path class="st0" d="M263,132.5c-7.9,13.7-12.4,28.9-15.6,44.4c-0.8-0.4-1.6-0.6-2.4-0.6c-2.3-0.1-4.6,1.3-5.7,3.3
					c-0.2,0.3-0.3,0.6-0.4,0.9h0l-3.7-1.3c2.9-7.9,6.4-15.6,10.6-23C250.6,147.8,256.4,139.8,263,132.5z"/>
				<path class="st0" d="M247.4,177c-0.1,0.4-0.2,0.8-0.3,1.3c-0.4-0.1-0.9-0.1-1.3-0.2c-1-0.1-2-0.3-2.9,0
					c-0.9,0.3-1.7,1.3-1.5,2.2c-0.2,0-0.5,0-0.7,0c-1,2-1.6,4.4-0.9,6.5c0.5,1.6,1.9,2.8,3.4,3.4c-0.1,0.2-0.2,0.4-0.3,0.5
					c-0.8-0.2-1.6-0.6-2.3-1.1c-1-0.8-1.7-2-2.1-3.2c-0.6-1.9-0.6-4,0.1-5.8c0.1-0.3,0.3-0.6,0.4-0.9c1.2-2,3.4-3.4,5.7-3.3
					C245.8,176.3,246.6,176.6,247.4,177z"/>
				<path class="st0" d="M245.9,185c-0.3,1.8-0.6,3.6-0.9,5.4c-0.3,0-0.6-0.1-0.8-0.1c-0.3-0.1-0.5-0.1-0.8-0.2
					c-1.6-0.6-2.9-1.8-3.4-3.4c-0.7-2.1-0.1-4.5,0.9-6.5c0.2,0,0.5,0,0.7,0c-0.2-0.9,0.6-1.9,1.5-2.2c0.9-0.3,1.9-0.2,2.9,0
					c0.4,0.1,0.9,0.1,1.3,0.2c-0.4,1.9-0.7,3.8-1.1,5.7C246,184.3,245.9,184.6,245.9,185z"/>
				<path class="st11" d="M245.2,191c0.2,0.4,0.2,1,0,1.4c-0.2,0.3-0.4,0.6-0.7,0.9c0.1-0.8,0.3-1.5,0.4-2.3c0,0,0,0,0,0
					C245,191,245.1,191,245.2,191L245.2,191z"/>
				<path class="st11" d="M245.1,191c-0.1,0-0.1,0-0.2,0c0,0,0,0,0,0c0-0.1,0-0.2,0-0.2h0C245,190.8,245.1,190.9,245.1,191z"/>
				<path class="st0" d="M245,190.4c0,0.1,0,0.2-0.1,0.3c-0.3-0.2-0.6-0.3-0.9-0.1c0-0.1,0.1-0.2,0.1-0.3
					C244.4,190.4,244.7,190.4,245,190.4z"/>
				<path class="st11" d="M244.9,190.7L244.9,190.7c0,0.1,0,0.2,0,0.3c-0.3,0-0.6-0.1-1-0.2c0-0.1,0-0.2,0.1-0.2
					C244.3,190.5,244.7,190.5,244.9,190.7z"/>
				<path class="st11" d="M243.7,191.6c0-0.3,0.1-0.5,0.2-0.8c0.3,0.1,0.6,0.1,1,0.2c-0.1,0.8-0.3,1.5-0.4,2.3
					c-0.1,0.2-0.3,0.3-0.5,0.5c-0.2-0.4-0.3-0.7-0.3-1.1C243.6,192.3,243.6,191.9,243.7,191.6z"/>
				<path class="st0" d="M244.2,190.3c-0.1,0.1-0.1,0.2-0.1,0.3c-0.1,0-0.2,0.1-0.3,0.2c-0.2,0-0.4-0.1-0.6-0.1
					c0.1-0.2,0.2-0.4,0.3-0.5C243.6,190.2,243.9,190.3,244.2,190.3z"/>
				<path class="st11" d="M244,190.6c-0.1,0.1-0.1,0.1-0.1,0.2c-0.1,0-0.1,0-0.2-0.1C243.8,190.7,243.9,190.6,244,190.6z"/>
				<path class="st11" d="M243.7,190.8c0.1,0,0.2,0.1,0.2,0.1c-0.1,0.3-0.2,0.5-0.2,0.8c-0.1-0.1-0.2-0.3-0.2-0.5
					C243.5,190.9,243.6,190.9,243.7,190.8z"/>
				<path class="st0" d="M243.7,191.6c-0.1,0.3-0.1,0.7,0,1c-0.3,0-0.7-0.2-0.8-0.5c-0.2-0.5-0.1-1,0.2-1.5c0.2,0.1,0.4,0.1,0.6,0.1
					c-0.1,0.1-0.1,0.2-0.2,0.3C243.5,191.3,243.5,191.5,243.7,191.6z"/>
				<path class="st0" d="M238.9,436.2c1,8,1.7,16,1.3,24c-0.3,8.4-1.8,16.8-3.4,25.1c-2.7,4.3-5.4,8.5-8.2,12.6
					c0,0.6,0.1,1.3,0.1,1.9c-2,0.4-2.4,3-2.8,5c-0.4,2-1.1,3.9-1.8,5.8c-4.2,11.8-4.6,24.6-5,37.1c-2.4-11.4-4.4-22.8-5.8-34.4
					l-0.3-0.1c3.7-8,7.9-15.8,11.4-23.8C231.8,472.4,236.4,454.5,238.9,436.2z"/>
				<path class="st8" d="M236.8,485.2c-0.2,0.8-0.3,1.6-0.5,2.5c-3.8,19.5-7.6,39.1-11.3,58.6l2.5,3c-3,9.2-3.6,19.4-3.9,29.2
					c-0.1,2-0.1,4-0.1,6c-0.1-0.1-0.1-0.2-0.2-0.3l0,0.5l-3.9-0.7c-3.6,4.1-10.9,1.8-13.6-2.8c-2.7-4.7-2.3-10.5-1.8-15.9
					c1.3-13.6,2.6-27.2,4-40.8c1.3-3.3,2.7-6.6,4.2-9.9c0.2-0.5,0.4-1,0.7-1.4l0.3,0.1c1.4,11.5,3.4,23,5.8,34.4
					c0.4-12.5,0.8-25.3,5-37.1c0.7-1.9,1.5-3.8,1.8-5.8c0.4-2,0.8-4.6,2.8-5c0-0.6-0.1-1.3-0.1-1.9
					C231.4,493.7,234.1,489.5,236.8,485.2z"/>
				<path class="st2" d="M223.5,589.6c-0.1,5.6-0.1,11.2,0,16.8l-4.2,1.5c-5.6-0.8-10.1-5.3-12.4-10.5s-2.7-11-3.1-16.6l2.1,0.3
					c2.7,4.6,10,6.9,13.6,2.8l3.9,0.7L223.5,589.6z"/>
				<path class="st11" d="M167.1,638.5c1.8,4.1,3.5,8.3,5.3,12.4C170.3,646.9,168.5,642.7,167.1,638.5z"/>
			</g>
			<g>
				<path class="st16" d="M236.8,485.2c-0.2,0.8-0.3,1.6-0.5,2.5c-3.8,19.5-7.6,39.1-11.3,58.6l2.5,3l0.3,0.4
					c6.4,7.9,16.2,12.9,26.3,13.8c1,0.1,1.9,0.1,2.9,0.1c4.8-4.8-0.8-12.9-6.8-16c-6-3.2-13.7-6.3-14.4-13
					c-3.9,4.3-6.5,9.3-8.3,14.7c-3,9.2-3.6,19.4-3.9,29.2c-0.1,2-0.1,4-0.1,6c0,1.7-0.1,3.4-0.1,5.1c-0.1,5.6-0.1,11.2,0,16.8
					c0.1,10.1,0.4,20.2,1,30.4c0.3,5.3,0.8,11,4.1,15.1c3.8,4.6,10,5.8,16.2,5.7c2.5,0,4.9-0.2,7.3-0.5c5.2-0.6,10.8-1.3,15-4.4
					c7.9-5.9,8-17.5,7.7-27.3c-1-28.8,0.9-57.7,5.6-86.1c0.6-3.9,1.3-7.9,2.1-11.8c6.7-35.2,17.8-69.7,19.9-105.4c0.1-2,0.2-4,0.3-6
					c0.7-25.9-4.2-52.9-17.5-74.5"/>
				<path class="st16" d="M208.1,524.5c-1.3,13.6-2.6,27.2-4,40.8c-0.5,5.4-1,11.2,1.8,15.9c2.7,4.6,10,6.9,13.6,2.8l3.9,0.7"/>
				<path class="st17" d="M238.7,358.5c-5,9.3-9,19.2-12.1,29.3c-7.6,24.8-10.2,50.8-12.7,76.7c-1.9,20-3.9,40-5.8,60"/>
				<path class="st16" d="M265.2,325.1c-3.3,2.8-6.5,5.9-9.4,9.1"/>
				<path class="st16" d="M205.9,581.1l-2.1-0.3c0.4,5.6,0.8,11.4,3.1,16.6s6.8,9.7,12.4,10.5l4.2-1.5l0.4-0.1l-0.4-16.6l-0.1-4.9
					l0-0.5c0.1,0.1,0.1,0.2,0.2,0.3c3.4,4,8.2,7,13.4,7.5c5.3,0.5,11-1.9,13.8-6.5c3.7-6.4,1.1-15,3.4-21.9c0.3-0.9,0.7-1.8,1.2-2.7
					"/>
				<path class="st16" d="M323.3,350.8c-4.2,8.1-7.6,16.6-10.1,25.3c-0.8,2.8-1.6,5.7-2.3,8.6c-2.7,10.5-5.3,20.9-8,31.4"/>
				<path class="st16" d="M364.5,535.8c-5.1,5.3-12.8,7.8-20.1,6.5c-1.5,0.3-2.2,2-2.2,3.5c0,1.4,0.5,2.7,1.3,3.8
					c1.9,2.6,5.6,4.1,9,3.7c4.8-0.6,8.7-4,12.1-7.4"/>
				<path class="st16" d="M369.9,577.2c0-1-0.1-2.1-0.1-3.1c0-10.2,0.6-20.9-2.1-30.6"/>
				<path class="st17" d="M370.6,591.3c-0.4-4.7-0.7-9.4-0.7-14.1"/>
				<path class="st16" d="M375.9,629.7c-0.3-6.2-1.6-12.5-2.7-18.6c-0.4-2.1-0.7-4.2-1-6.2"/>
				<path class="st16" d="M280,538.7c0.1,0.2,0.2,0.4,0.3,0.6c10.7,20.1,20.9,40.5,28.4,62c5.3,15.3,9.3,31,11.8,47
					c0.3,2.1,0.7,4.3,2.1,5.9c1.1,1.2,2.6,1.9,4.1,2.5c7.7,3,16,4.9,24.2,4c0.3,0,0.5-0.1,0.8-0.1c6.6-0.9,13-3.8,17.5-8.6"/>
				<path class="st16" d="M343.1,550c0.6,7.6,1.1,15.3,1.7,22.9c0.1,1.8,0.3,3.6,1.3,5.1c1,1.5,3.1,2.3,4.6,1.3
					c3.6,5.7,14,4.4,16.1-2.1"/>
				<path class="st17" d="M354.9,439c-5-11.4-10.6-22.6-16.9-33.4"/>
				<path class="st16" d="M357.1,337.7c1.6,2.1,3,4.3,4.4,6.4c0.7,1.1,1.4,2.1,2.1,3.2"/>
				<path class="st16" d="M339,388.5c-0.5-16.8,7.1-33.6,20.1-44.3"/>
				<path class="st16" d="M368.8,551.1c-0.4-1.9-0.8-3.8-1-5.7c-0.1-0.9-0.3-1.8-0.4-2.7"/>
				<path class="st16" d="M381.4,592.2c-0.1-1-0.1-1.9-0.2-2.9l0.3-0.2"/>
				<path class="st16" d="M244.9,660.3c7,19,8.3,40.1,3.6,59.8c-0.4,1.6-0.8,3.3-0.5,5c0.1,0.3,0.1,0.7,0.3,1
					c1.4,3.7,6.3,4.2,10.2,4.2c1.1,0,2.1,0,3.2,0c6.4-0.1,12.8-0.1,19.1-0.2c0.2,0,0.3,0,0.5,0c0.7,0,1.5,0,2.2-0.1
					c0.4,0,0.8-0.1,1.2-0.1c1.6-0.2,3.2-0.7,4.4-1.7c0.9-0.8,1.6-1.8,2.1-2.9c0.5-1.1,0.8-2.4,1-3.6c3.8-19.1-3.7-38.5-3.9-58
					c-0.3-23.2,9.5-47,2.4-69c0-0.1-0.1-0.2-0.1-0.3"/>
				<path class="st16" d="M286.1,584.6c1.6,3.3,3.1,6.7,4.6,10c10.8,25.1,17.6,51.8,24.4,78.4c3,11.9,6.1,23.9,6.2,36.1
					c0.1,5.3-0.2,11.4,2.2,15.9c0.7,1.4,1.7,2.6,3,3.7c4.2,3.4,10.2,2.9,15.5,2.3c3-0.3,5.9-0.7,8.9-1c1.9-0.2,3.8-0.4,5.6-0.6
					c0.3-0.1,0.7-0.1,1-0.1c0.6-0.1,1.2-0.1,1.8-0.2c3.5-0.6,7-1.7,8.4-4.7c0.1-0.1,0.1-0.2,0.1-0.3c0.9-2.3,0.3-4.8-0.5-7.2
					c-3.2-9.5-8.6-18.1-12.5-27.3c-0.7-1.7-1.4-3.5-2-5.3c-2.6-7.8-3.6-16.2-1-23.9c0,0,0,0,0-0.1"/>
				<path class="st16" d="M244.8,725.4c-3.8,8.2,1.5,19.3,10.2,21.6c0,0,0.1,0,0.1,0"/>
				<path class="st16" d="M259.7,744.8c0.6-4.2-5.5-8.1-3.3-11.8c0.7-1.1,2-1.7,3.2-2.2c0.6-0.2,1.3-0.4,2-0.6
					c5-1.4,10.3-1.5,15.3-0.4c0.7-0.9,1.3-1.8,2-2.8c0.6,1,1.2,2,1.8,2.9c0.5,0.8,1,1.7,1.5,2.5c0.4-0.9,0.8-1.7,1.2-2.6
					c0.3-0.6,0.5-1.2,0.8-1.7c0.2,0.5,0.3,1.1,0.5,1.6c1.2,5.2,0.2,10.9-2.7,15.3"/>
				<path class="st16" d="M281.9,771.9c-1.9,1.5-3.9,2.8-5.9,4.1c-3.7,2.3-7.7,4.1-11.8,5.6c-9,3.2-18.9,4.4-28.4,3
					c-6.8-1-14.3-4.5-17.4-10.2c-0.9-1.6-1.5-3.4-1.6-5.4c-0.2-4,1.7-7.7,3.4-11.3c0.7-1.4,1.4-2.8,2.1-4.2c0.7-0.1,1.4-0.1,2.1-0.1
					c2.8-1.9,5.5-3.8,8.3-5.7c5.6-1.7,11.9-3.4,17-0.6c1.7,0.9,3,2.1,4,3.6c3.2,4.5,3.6,11.3,2.7,17.1"/>
				<path class="st16" d="M294.7,725.6c1.1,6.1,1.8,12.2,2.1,18.4c0.1,3.3,0.1,6.7-0.7,9.8c-0.3,1.1-0.6,2.1-1.1,3.1
					c-1.7,3.9-4.6,7.4-7.7,10.3c-1.7,1.6-3.5,3.2-5.3,4.6"/>
				<path class="st16" d="M322.1,725.8c-1.1,1.1-2.2,2.2-3.2,3.3c-3.8,4.1,0.7,10.2,2.2,15.5c1.8,6.2-0.8,13.2,1.9,19
					c0,0.1,0.1,0.1,0.1,0.1c2.9,6.3,10.6,8.6,17.3,10.3c2.2,0.5,4.4,1.1,6.6,1.6c2.9,0.7,5.8,1.4,8.6,2.1c0.6,0.1,1.2,0.3,1.8,0.4
					c8.2,2,16.7,3.8,25.1,3c8.2-0.8,16.5-4.6,21-11.4c0.5-0.7,0.9-1.4,1.3-2.2c4-8,1.7-18.6-5.1-24.4c-6.1-5.1-15.3-5.9-22.4-2.3
					c-0.9,0.4-1.7,1-2.5,1.5c-0.3-0.5-0.6-1-0.8-1.5c-2.1-5,0.1-11.9-4-15.6c-0.7-0.6-1.5-1-2.4-1.3c-2.9-0.7-6.3,0.6-7.8,3.3
					c-0.3,0.5-0.4,1-0.6,1.5c-0.9,3.3,0.7,7.1,3.6,8.9c-3.8-0.1-3.1-7-6.5-8.6c0,0-0.1,0-0.1-0.1c-1.3-0.6-2.8-0.1-4.2,0.3
					c-0.5,0.1-0.9,0.3-1.4,0.4c-4.1,1.3-8.2,2.6-12.3,3.9c1.7,3.4,3.4,6.7,5,10.1c-1.1,0.9-2.8,0.2-3.6-1c-0.8-1.1-1.1-2.5-1.6-3.8
					c-2.2-5.1-8.5-6.8-13.9-7.9"/>
				<path class="st16" d="M361.4,754.7c3.1-1.1,3.5-5.1,5-8.1c0.5-1.1,1.3-2.1,2.2-2.9c1.5-1.4,3.4-2.3,5.4-2.7
					c1.1-0.2,2.2-0.3,3.3-0.1c0.2,0,0.4,0.1,0.6,0.1"/>
				<path class="st16" d="M218.4,774.2c0,0.1,0,0.1,0,0.2c1,8.4,9.1,14.7,17.5,16c8.4,1.3,17-1.3,24.9-4.6c4.7-2,9.4-4.3,13.2-7.8
					c0.7-0.6,1.4-1.3,2-2c1.8-1.8,3.7-3.5,5.9-4.1h0c0.4-0.1,0.9-0.2,1.4-0.2c1.6,0,3.1,0.6,4.8,0.6c3.6-0.1,6.4-3.3,7.2-6.8
					c0.6-2.8,0.3-5.7-0.3-8.6c-0.1-0.7-0.3-1.4-0.4-2"/>
				<path class="st16" d="M322.9,759.3c0,1.5,0,3,0.1,4.6c0.2,2.1,0.5,4.1,1.2,6.1c1.2,3.4,3.9,6.5,7.4,7.2c2.6,0.6,5.3-0.2,7.9-0.7
					c2.5-0.5,5-0.8,7.5-0.7c1.9,0,3.8,0.3,5.6,0.7c1.7,0.4,3.3,1.1,4.8,1.8c2.3,1.1,4.6,2.4,6.8,3.6c4.3,2.4,8.8,4.5,13.6,5.6
					c4.8,1,10,0.8,14.4-1.4c6.1-3.1,9.5-9.4,11.3-16.2c0.5-1.8,0.9-3.7,1.1-5.6"/>
				<path class="st16" d="M282.7,433.3c-0.1,0.6-0.2,1.2-0.2,1.8c-0.3,3.3-0.4,6.5-0.1,9.8c0,0.6,0.1,1.2,0.5,1.6
					c0.6,0.6,1.7,0.3,2.5-0.1c4.6-2.9,5-10.6,0.6-13.8c-0.6,0.9-1.2,1.8-1.8,2.7"/>
				<path class="st16" d="M277.5,476.1c-3.1,2.7-4.7,7.1-4.2,11.2c0.1,0.7,0.2,1.4,0.7,1.9c1,1.3,3.2,0.9,4.3-0.3
					c1.1-1.2,1.5-2.9,1.8-4.4c0.4-2.2,0.9-4.5,0.1-6.6c-0.4-1.1-1.3-2-2.3-2.5c-1-0.5-2-0.6-2.9-0.1"/>
				<path class="st16" d="M266.1,520.3c-1.4,3-2.1,6.5-1.8,9.8c0.1,2.1,1.4,4.8,3.5,4.4c1.1-0.2,1.9-1.3,2.3-2.3
					c1.2-2.6,1.6-5.7,1.1-8.5c-0.5-2.6-3.4-5.4-5.3-3.6"/>
				<line class="st17" x1="378.4" y1="202.1" x2="378.4" y2="202.1"/>
				<path class="st17" d="M343.3,181.3c-0.4,0.1-0.7,0.3-0.8,0.6c-0.5,0.8-0.3,2.2,0.6,2.8c1.2,0.8,2.8,0.6,4.2,0.3
					c5.8-1.2,11.5-2.7,17.1-4.6c2.7-0.9,5.4-2,8.2-2.5c9.6-1.8,20.1,2.9,25.1,11.3c-1-4.5-4.4-8-7.7-11.1c-2.2-2.1-4.6-4.2-7.5-5.3
					c-4.8-1.8-10.2-0.7-15.2,0.5c-5,1.2-9.9,2.3-14.9,3.5c-3.7,0.9-7.9,2.2-9.9,5.1c-0.4,0.6-0.8,1.3-1,2.1"/>
				<path class="st17" d="M243.3,185.7c1-0.5,1.9-1.1,2.8-1.8c1.5-1.1,2.8-2.3,4.1-3.6h0c3-2.9,5.9-6,9.7-7.5
					c4.9-2.1,10.5-1.3,15.8-0.2c6.1,1.3,12.1,2.9,18,5c1.8,0.6,3.6,1.4,4.7,2.8c1.1,1.5,1.1,4-0.5,4.9c-1.1,0.7-2.5,0.4-3.8,0.1
					c-7.9-2-15.7-3.9-23.6-5.9c-1.8-0.4-3.6-0.9-5.5-1.1c-6.9-0.6-13.3,2.8-19.2,6.5c-0.9,0.6-1.7,1.1-2.6,1.7"/>
				<path class="st17" d="M342.7,202.7c5.4-8.6,16.1-13.5,26.1-12c1.5,0.2,3,0.6,4.3,1.3c1.3,0.6,2.4,1.5,3.5,2.4
					c1.6,1.4,3.2,2.9,4.6,4.5c0.9,1,1.8,2.1,2.6,3.1c0.1,0.2,0.3,0.3,0.4,0.5"/>
				<path class="st17" d="M389.1,201.9c-0.9,2.5-4.2,3.2-6.7,2.4c-0.1,0-0.1,0-0.2-0.1c-1.4-0.5-2.6-1.3-3.8-2.2
					c-1-0.7-1.9-1.5-3-2.1c0,0-0.1,0-0.1-0.1c-2.7-1.8-6-2.8-9.2-2.9c-0.5,0-1,0-1.5,0c-0.1,0-0.3,0-0.4,0c-1.1,0.1-2.2,0.2-3.3,0.6
					c-0.3,0.1-0.5,0.2-0.8,0.3c-0.9,0.4-1.7,0.9-2.6,1.3c-2.1,1.2-4.3,2.5-6.4,3.7c-2.1,1.2-4.2,2.4-5.9,4.2c-0.5,0.5-1,1.1-1,1.9
					c0,1,1,1.8,1.9,1.9c1,0.2,2,0,2.9-0.2c4.7-0.7,9.5,0.6,14.3,1c1.8,0.2,3.6,0.2,5.4,0c4.4-0.5,10.6-4.1,13.6-7.5
					c0.1-0.1,0.2-0.2,0.3-0.3"/>
				<path class="st17" d="M359.5,199.1c-0.6,0.3-1.1,0.6-1.5,1c-2.5,2.5-0.5,7.5,2.5,9.4c0.9,0.6,2,0.9,3,1c2.5,0.2,5-1,6.3-3.1
					c1.8-3,0.1-7.8-3.2-9.2C366.6,198.2,362.3,197.9,359.5,199.1z"/>
				<path class="st17" d="M360.8,203.3c-0.2,0.3,0.4,0.6,0.6,0.3c0.1,0,0.1,0,0.1-0.1c0.1-0.3-0.1-0.6-0.3-0.7
					c-0.1-0.1-0.2-0.1-0.2-0.1"/>
				<path class="st17" d="M361.3,203.6c0.2,0.2,0.5,0.5,1,0.7c1.2,0.5,2.6-1.3,1.9-2.5c-0.7-1.1-2.8-0.8-3.1,0.6
					c0,0-0.1,0.2-0.1,0.4C361,203,361.1,203.3,361.3,203.6z"/>
				<path class="st17" d="M356.4,220.4c4,1.4,8.3,2.5,12.6,2.4c4.3-0.1,8.7-1.6,11.6-4.8"/>
				<path class="st17" d="M350.4,202.6c1.9-1,3.1-3.4,2.6-5.5"/>
				<path class="st17" d="M354,200.7c1.9-0.6,3.3-2.5,3.3-4.6"/>
				<path class="st17" d="M359.2,198.5c0.3-0.2,0.6-0.4,0.9-0.6c1.3-1,2.1-2.5,2.3-4"/>
				<path class="st17" d="M364.1,196.8c0.2,0.1,0.3,0.1,0.5,0.1c0.5,0.1,1,0.1,1.5,0c1.6-0.3,3.1-1.5,3.4-3.1"/>
				<path class="st17" d="M369.9,197.5c1.9,0.8,4.4,0.1,5.5-1.6"/>
				<path class="st17" d="M375.1,199.9c0.1,0.1,0.2,0.1,0.3,0.1c1.9,0.8,4.2,0.3,5.6-1.1c0.2-0.2,0.4-0.3,0.5-0.6"/>
				<path class="st17" d="M378.4,202.1c1.7,0.6,3.6,0.6,5.3,0c1.1-0.3,2.1-0.9,2.9-1.7"/>
				<path class="st17" d="M278.5,195.5c0.9,0.1,1.8,0.2,2.6,0.4c1.5,0.3,3.1,0.8,4.5,1.4c4,1.7,7.5,4.4,10.1,8
					c0.5,0.7,1,1.6,0.8,2.5c-0.3,1.1-1.6,1.7-2.7,1.6c-1.1-0.1-2.2-0.6-3.2-1c-3.5-1.2-7.2-0.3-10.9,0.4c-1.2,0.3-2.4,0.5-3.6,0.6
					c-6.4,0.7-13.1-1.3-18.1-5.5l-0.3-1.1"/>
				<path class="st17" d="M250.8,202.3c1.9,1.6,4.7,1.4,7,0.5c1.3-0.6,2.6-1.4,3.8-2.2c0.8-0.6,1.7-1.1,2.5-1.7
					c0.6-0.4,1.2-0.7,1.8-1c1-0.5,2.1-1,3.2-1.3c1.2-0.4,2.4-0.7,3.6-0.9c1.3-0.2,2.5-0.3,3.8-0.3c0.1,0,0.3,0,0.4,0
					c0.5,0,1,0,1.4,0.1"/>
				<path class="st17" d="M255.7,199.1c0.3-0.4,0.6-0.9,1-1.3c1.1-1.3,2.3-2.3,3.7-3.2c1.6-1,3.5-1.8,5.3-2.5
					c1.4-0.5,2.8-0.8,4.2-1.1c0.8-0.2,1.6-0.3,2.3-0.5c0.8-0.1,1.7-0.3,2.5-0.4c2.2-0.3,4.4-0.4,6.5-0.1c7.9,1.2,13.7,7.8,18.1,14.4
					"/>
				<path class="st17" d="M265.8,219.8c7.4,1.8,15.6,0.6,22.2-3.3"/>
				<path class="st17" d="M278.5,195.5c0.8,0.1,1.7,0.4,2.4,0.8c1.9,1.1,2.9,3.4,3,5.6c0.1,2.2-1,4.4-2.9,5.5
					c-0.5,0.3-1,0.5-1.6,0.6c-1.5,0.3-3,0.2-4.5-0.2c-1.7-0.4-3.5-1.1-4.7-2.4c-1.2-1.3-1.9-3.2-1.2-4.9c0.2-0.6,3.2-3.5,2.7-3.9
					c0,0,2.4-1.1,5.1-1.2c0.5,0,0.9,0,1.4,0.1C278.4,195.5,278.4,195.5,278.5,195.5z"/>
				<path class="st17" d="M274.8,201.7c0-0.1,0-0.1,0-0.2"/>
				<path class="st17" d="M274.8,201.5c0.2,0.9,0.7,1.6,1.5,1.2c1-0.4,1.2-1.9,0.3-2.5c-0.8-0.5-1.9,0.3-1.9,1.1"/>
				<path class="st17" d="M274.8,201.5C274.8,201.5,274.8,201.5,274.8,201.5c0-0.1,0-0.1,0-0.1"/>
				<path class="st17" d="M274.7,201.2c0,0.1,0,0.1,0,0.2"/>
				<path class="st17" d="M258.3,202.5c-2-0.6-3.8-2-4.7-3.8"/>
				<path class="st17" d="M261.2,200.2c-1.8,0.2-3.6-0.8-4.6-2.3c-0.5-0.8-0.8-1.7-0.8-2.7"/>
				<path class="st17" d="M265.5,197.3L265.5,197.3c-2,0.4-4.1-0.9-5.1-2.7c-0.4-0.7-0.6-1.5-0.6-2.3"/>
				<path class="st17" d="M269,196.6c-1.4-1.2-2.5-2.7-3.2-4.4c-0.2-0.5-0.4-1-0.6-1.5"/>
				<path class="st17" d="M272.9,195.9c-0.1-0.1-0.2-0.1-0.3-0.2c-0.8-0.5-1.3-1.4-1.5-2.3c0-0.2-0.1-0.4-0.1-0.6"/>
				<path class="st17" d="M276.5,195.2c-0.9-1.1-1.5-2.5-1.6-3.9"/>
				<path class="st17" d="M270.7,193.6c-0.4-0.6-0.6-1.3-0.6-2"/>
				<path class="st17" d="M279.8,195.5c-0.8-0.7-1.3-1.8-1.3-2.9"/>
				<path class="st17" d="M284,196.2c-0.8-0.6-1.4-1.6-1.3-2.6"/>
				<path class="st17" d="M285.6,197.5c0-0.1,0-0.2,0-0.2c0.1-0.8,0.2-1.6,0.3-2.4"/>
				<path class="st17" d="M288.6,198.1c0-0.1,0-0.2,0-0.3"/>
				<path class="st17" d="M245.2,191c1.8,0.2,3.8,0.1,5.4-0.8c1.7-0.9,2.9-3,2.4-4.8"/>
				<path class="st17" d="M250.1,180.2c-0.4-1.4-1.4-2.6-2.7-3.3c-0.8-0.4-1.6-0.6-2.4-0.6c-2.3-0.1-4.6,1.3-5.7,3.3
					c-0.2,0.3-0.3,0.6-0.4,0.9c-0.7,1.8-0.8,3.9-0.1,5.8c0.4,1.2,1.1,2.4,2.1,3.2c0.7,0.5,1.5,0.9,2.3,1.1c0.2,0.1,0.4,0.1,0.6,0.1
					c0.1,0,0.2,0.1,0.2,0.1c0.3,0.1,0.6,0.1,1,0.2c0,0,0,0,0,0c0.1,0,0.1,0,0.2,0"/>
				<path class="st17" d="M244.9,190.7c-0.3-0.2-0.6-0.3-0.9-0.1c-0.1,0-0.2,0.1-0.3,0.2c-0.1,0.1-0.1,0.2-0.2,0.3
					c-0.1,0.2,0,0.4,0.2,0.5c0.3,0.3,0.7,0.4,0.9,0"/>
				<path class="st17" d="M244.3,190c-0.1,0.1-0.1,0.2-0.2,0.3c-0.1,0.1-0.1,0.2-0.1,0.3c-0.1,0.1-0.1,0.1-0.1,0.2
					c-0.1,0.3-0.2,0.5-0.2,0.8c-0.1,0.3-0.1,0.7,0,1c0.1,0.4,0.2,0.8,0.3,1.1c0.2-0.1,0.3-0.3,0.5-0.5c0.3-0.3,0.5-0.5,0.7-0.9
					c0.2-0.4,0.2-1,0-1.4h0c-0.1-0.1-0.1-0.2-0.2-0.3h0"/>
				<path class="st17" d="M333.2,199.4c-1.9,1-2.9,3.2-2.9,5.3c0,2.1,0.7,4.2,1.4,6.2c1.7,4.7,3.5,9.5,6.2,13.6"/>
				<path class="st17" d="M297,256.1c-0.3,2.9,1.3,5.9,3.8,7.4c0.2,0.1,0.5,0.3,0.8,0.2c0.3-0.1,0.5-0.4,0.8-0.7
					c1.7-2.2,5.2-1.3,7.4,0.3c2.2,1.6,4.2,3.9,6.9,4.2c3.1,0.3,5.7-2,8.4-3.5c1.6-0.9,3.2-1.5,4.9-2.1c0.9-0.3,2-0.7,2.8-0.3
					c0.9,0.4,1.1,2,0.2,2.3c3.4,0.2,6.9-1.6,8.7-4.6s1.8-6.9,0.1-9.8c-0.8-1.3-2-2.5-3.5-2.8c-1.5-0.3-3.3,0.7-3.5,2.3"/>
				<path class="st17" d="M282,290.3c0.2,0.1,0.4,0.2,0.7,0.3c4.6,2.4,9.8,3.6,15,3.7c4.6,0,9.3-0.9,13.8,0.2
					c2.1,0.5,4.2,1.4,6.3,1.2c3.4-0.3,6-3.1,9.3-3.6c3.3-0.5,6.5,1.5,9.9,1.7c5.5,0.4,10.2-3.7,15.4-5.5c0.5-0.2,0.9-0.3,1.4-0.4
					c0.8-0.2,1.6-0.4,2.4-0.4"/>
				<path class="st17" d="M353.8,287.5c-7.1-1.4-14-3.4-20.8-5.8c-2.4-0.8-4.9-1.8-7.3-1.1c-3.1,0.8-5.7,4.1-8.9,3.5
					c-1.5-0.3-2.6-1.3-4-1.8c-1.8-0.7-3.7-0.5-5.6-0.2c-4.6,0.7-9.1,1.9-13.5,3.6c-4.3,1.7-8.8,3.8-13.3,2.9
					c0.2,0.2,0.4,0.4,0.6,0.6c0.5,0.5,1.1,1,1.7,1.3c0.1,0.1,0.2,0.1,0.3,0.2"/>
				<path class="st17" d="M280,290.3c2.3,3.4,4.6,6.9,7.8,9.4c3,2.5,6.8,4,10.4,5.4c6.7,2.6,13.6,5,20.8,5.2
					c14.2,0.4,28.2-8.8,33.5-22"/>
				<path class="st18" d="M318.5,316.3c-0.6,0.5-0.7,1.5-0.4,2.2c0.6,1.5,2.7,2,3.9,1.1c1.3-1,1.2-3.2-0.2-4
					c-1.1-0.6-2.6-0.2-3.2,0.8"/>
				<path class="st17" d="M277,270.1c-1.4,1.8-2.8,3.6-4.2,5.4c-1.8,2.3-3.6,4.6-4.1,7.5s0.5,6.2,3.1,7.3"/>
				<path class="st17" d="M359.8,268.6c1.3,2.6,3.3,4.8,4.9,7.2c1.6,2.4,2.9,5.3,2.6,8.2c-0.4,3.4-2.7,6.1-5,8.6"/>
				<path class="st17" d="M391.8,141.6L391.8,141.6c6.8,8.8,9.4,20,10.3,31s0.4,22.1,1.9,33.1c0.7,4.8,1.7,9.6,2.6,14.5
					c0.7,3.7,1.2,7.5,1.3,11.3c0.1,1.1,0.1,2.1,0,3.2c-0.4,11.7-5.4,22.6-9.1,33.6c-5.3,15.7-8.4,32.7-18.2,46.2
					c-3.5,4.8-7.7,8.9-12.1,12.9c-0.9,0.9-1.8,1.7-2.8,2.6c-2.8,2.6-5.7,5.2-8.7,7.7c-5.4,4.5-11.2,8.4-17.8,10.6
					c-5.1,1.7-10.5,2.4-15.9,2.5c-2.6,0.1-5.2,0-7.8-0.1c-5.3-0.2-10.7-0.6-15.9-2.1c-5.2-1.5-10-4-14.5-7.1
					c-4.9-3.3-9.5-7.2-13.9-11.1c-2-1.8-4.1-3.6-6.1-5.4c-2.4-2.3-4.7-4.6-6.7-7.2c-3.1-3.9-5.4-8.3-7.3-12.9
					c-2.8-6.7-4.6-13.9-6.2-21c-2.8-12.1-5.3-24.3-5.7-36.7c-0.5-13.5,1.4-26.9,3.3-40.2c0.6-4.6,1.3-9.1,2-13.7
					c0.1-0.8,0.3-1.5,0.4-2.3c0-0.1,0-0.2,0-0.2v0c0-0.1,0-0.2,0.1-0.3c0.3-1.8,0.6-3.6,0.9-5.4c0.1-0.3,0.1-0.7,0.2-1
					c0.3-1.9,0.7-3.8,1.1-5.7c0.1-0.4,0.2-0.8,0.3-1.3c3.2-15.6,7.7-30.8,15.6-44.4c0.4-0.6,0.7-1.2,1.1-1.8"/>
				<path class="st17" d="M349,80.6c-0.9,1.8-2,3.4-3.3,4.8h0c-7,7.6-19.2,9.9-29.6,13c-20.5,6-38.7,18.3-53.2,34.1
					c-6.6,7.3-12.4,15.3-17.2,23.8c-4.2,7.4-7.7,15-10.6,23c-7.7,21.2-11,44.2-10.7,66.8c0.3,24.2,4.6,48.2,6.4,72.3
					c0.9,12.4,1.2,24.9,0.8,37.4"/>
				<path class="st17" d="M231.6,235.7c-0.1,28.9,8.6,57.1,14.2,85.5c1.4,6.9,2.6,13.8,3.6,20.7c1.4,9.6,2.5,19.3,3.3,29
					c1.1,14.4,1.5,28.8,1.1,43.3c-0.6,22.8-3.2,46.2-13.4,66.5c-0.3,0.7-0.7,1.3-1,2"/>
				<path class="st17" d="M343.7,74.3c-0.7-4.1-2.4-7.7-4.9-10.8c-7.4-9.4-21.5-14-33.8-11.9c-16.4,2.7-30.1,13.7-42.7,24.4
					c-25.5,21.7-51,45.1-64.5,75.7c-16.6,37.4-13.3,80.4-21.8,120.4c-4.7,22.2-13.1,43.7-15,66.4c-1,12.4-0.1,24.8,0,37.2
					c0.2,32.9-5.8,65.8-17.7,96.4c-7,18.2-16.3,37.2-12.5,56.4v0"/>
				<path class="st17" d="M340.1,62.9c22,1.5,41.8,15.4,55.3,32.8c13.5,17.5,21.8,38.4,29.4,59.1c7.9,21.3,15.4,42.9,18.9,65.4
					c3.4,21.9,3,44.2,1.8,66.4c-0.7,12.4-1.7,24.9-0.6,37.3c1.4,14.9,5.7,29.4,9.2,44c13.2,56,12.8,115.2-1.3,171
					c-0.4,1.7-0.9,3.4-1.3,5.1"/>
				<path class="st17" d="M369.2,328.1c-2.3,6.3-4.2,12.7-5.6,19.2c-3.6,16.3-4.8,33.3-5.9,50c-0.9,13.9-1.9,27.8-2.8,41.7
					c-0.2,3-0.4,6-0.6,9c-0.7,10.3-1.4,20.7-1.1,31.1c0.5,19.4,4.4,38.6,11.3,56.7c0.9,2.3,1.8,4.6,2.9,6.9c0.1,0.3,0.2,0.5,0.3,0.8
					c1.1,2.5,2.3,5.1,3.6,7.5"/>
				<path class="st17" d="M411.3,211.3c0.2-1.3,0.4-2.7,1-4c0.1-0.3,0.3-0.5,0.4-0.8c0.9-1.4,2.8-2.3,4.3-1.6c2,0.9,2.1,3.7,1.7,5.9
					c-1.2,7.4-4.1,14.5-8.4,20.5"/>
				<path class="st17" d="M207.6,189.5c-3.3,11.1-6,22.3-8,33.7"/>
				<path class="st17" d="M206.8,213.7c-0.7,27-5.8,53.8-15.2,79.1"/>
				<path class="st17" d="M212.5,256.4c-4,24-7.9,47.9-11.9,71.9c-1.3,8-2.6,15.9-3.3,24c-0.7,8.6-0.6,17.3-1,26
					c-1.7,39.8-12.4,79.2-31.2,114.4"/>
				<path class="st17" d="M218.8,443.7c4.6-15.6,8-31.5,10.2-47.6"/>
				<path class="st17" d="M241,374.7c1,20.4,0.7,41.2-2.1,61.4c-2.5,18.3-7,36.2-14.5,53.1c-3.6,8.1-7.7,15.9-11.4,23.8
					c-0.2,0.5-0.5,1-0.7,1.4c-1.5,3.3-2.9,6.6-4.2,9.9c-3.9,9.7-7,19.8-9.3,30c-0.2,0.6-0.3,1.3-0.4,1.9"/>
				<path class="st17" d="M368.9,370.3c0.7-3.4,1.5-6.8,2.5-10.1c4.7-16.2,12.6-31.4,23.2-44.5"/>
				<path class="st17" d="M346.5,85.6c0.8,10.9,5.8,21.4,13.8,28.8c7.5,6.9,17.1,11,25.6,16.6c2.4,1.6,4.7,3.2,6.8,5.1
					c16.8,15,20.1,39.7,20,62.2"/>
				<path class="st17" d="M421.4,185.2c7.7,11.3,7.5,26.4,4,39.7c-3.5,13.2-10,25.5-14,38.6c-4.6,14.7-6,30.3-4.3,45.6"/>
				<path class="st17" d="M427.6,292.8c-8,28-1.6,58.1-4.8,87c-2.5,22.1-10.5,43.3-16.9,64.7c-5,16.5-8.9,33.1-8.7,50.3"/>
				<path class="st17" d="M432.5,529.1c-5.3-16.3-3.6-34.1,0-50.8c3.6-16.8,9.1-33.1,11.4-50.1c2.2-16.3,1.3-32.9-2.6-48.9"/>
				<path class="st17" d="M167.1,638.5c-4-12.3-5-25.6-2.8-38.4c1.2,12.9,8.2,24.8,17.2,34c9.1,9.3,20.1,16.3,31.1,23.1
					C195,639.5,185.4,614,187,589c0.7,4,3.7,7.5,7.6,8.7c-3.7-9.4-5.1-19.7-3.9-29.8c2.5,3.6,4.9,7.3,7.4,10.9
					c0.2-8.1,0.4-16.3,0.6-24.4c0.1-2.1,0.1-4.2,0.2-6.3"/>
				<path class="st17" d="M167.1,638.5c1.8,4.1,3.5,8.3,5.3,12.4C170.3,646.9,168.5,642.7,167.1,638.5z"/>
				<path class="st17" d="M131.3,528.2c0,0.1,0,0.3,0,0.4c0.1,8.8,1.2,17.5,3.2,26.1c3.3,14.3,9.1,27.9,14.8,41.5
					c6,14.1,11.9,28.2,17.9,42.3"/>
				<path class="st17" d="M368.5,545c1.1,2,2,4,2.8,6.1c0,0,0,0.1,0,0.1c3.5,9.7,3.6,20.6,1.7,30.7c-0.6,3.2-1.4,6.4-2.4,9.5
					c-2.7,8.9-6.6,17.6-10.5,26.1c4.5-3.7,8.5-7.9,12-12.5v0c3.9-5.1,7-10.6,9.4-16.5c0,0.3,0,0.5,0,0.8c0,1-0.1,2-0.1,3
					c-0.6,12.6-2.5,25.2-5.5,37.5c-1.8,7.5-4,14.9-6.7,22.1c-4,11-9,21.8-14.9,31.9c21.9-20.3,39.5-45.2,51.5-72.6
					c0.6,10.6,1.2,21.4-1.4,31.7c7.8-14,15.6-28,23.4-42c9.6-17.3,19.5-35.4,20.5-55.2c0.7,5.1,1.5,10.2,2.2,15.3
					c1.8-7.2,2.5-14.7,2.3-22.1c-0.1-1.9-0.2-3.7-0.4-5.6"/>
				<path class="st17" d="M239.8,480.3c-1,1.7-2,3.3-3,4.9c-2.7,4.3-5.4,8.5-8.2,12.6c0,0.6,0.1,1.3,0.1,1.9c-2,0.4-2.4,3-2.8,5
					c-0.4,2-1.1,3.9-1.8,5.8c-4.2,11.8-4.6,24.6-5,37.1c-2.4-11.4-4.4-22.8-5.8-34.4"/>
				<path class="st17" d="M384.8,132.6c2.1,3.2,4.1,6.4,6.2,9.6c0.7,1,1.3,2.1,2,3.1"/>
				<path class="st17" d="M412.3,207.7c0-0.1,0-0.2,0.1-0.4c0.5-3,0.5-6,0.1-9c-0.1-0.7-0.2-1.4-0.4-2.2"/>
				<path class="st17" d="M406.7,220.2c1.2-3.1,2.8-6.1,4.7-8.8c0.5-0.8,1.1-1.5,1.6-2.2"/>
				<path class="st17" d="M250.1,305.2c2.9,9.4,4.9,19.1,5.7,28.9c1.1,12.2,0.5,24.5-1.6,36.6"/>
				<path class="st19" d="M248.8,179.6c0.4-0.6-0.5-1.2-1.2-1.3c-0.2,0-0.3-0.1-0.5-0.1c-0.4-0.1-0.9-0.1-1.3-0.2
					c-1-0.1-2-0.3-2.9,0c-0.9,0.3-1.7,1.3-1.5,2.2c-0.2,0-0.5,0-0.7,0c-1,2-1.6,4.4-0.9,6.5c0.5,1.6,1.9,2.8,3.4,3.4
					c0.3,0.1,0.5,0.2,0.8,0.2c0.3,0.1,0.5,0.1,0.8,0.1c0.5,0,1,0,1.5-0.1c2.7-0.7,4.5-3.6,4-6.3"/>
				<path class="st19" d="M243.5,189.9c0,0.1-0.1,0.1-0.1,0.2c-0.1,0.2-0.2,0.4-0.3,0.5c-0.3,0.5-0.4,1-0.2,1.5
					c0.1,0.3,0.5,0.5,0.8,0.5c0.4,0,0.9-0.2,0.8-0.7"/>
				<path class="st19" d="M319.9,317.3c-0.1,0.3-0.2,0.7-0.3,1"/>
			</g>
		</g>
	</g>
</g>
</svg>
