<svg xmlns="http://www.w3.org/2000/svg" viewBox="0 0 335.91 742.63">
  <defs>
    <style>
      .cls-1 {
        fill: #281c20;
      }

      .cls-2 {
        fill: #342423;
      }

      .cls-3 {
        fill: #d4a79b;
      }

      .cls-4 {
        fill: #673434;
      }

      .cls-5 {
        fill: #010101;
      }

      .cls-6 {
        fill: #493735;
      }

      .cls-7 {
        fill: #ccccc6;
      }

      .cls-8 {
        fill: #ccaea5;
      }

      .cls-9 {
        fill: #1b3665;
      }

      .cls-10 {
        fill: #676734;
      }

      .cls-11 {
        fill: #0f1131;
      }

      .cls-12 {
        fill: #ab5a69;
      }

      .cls-13 {
        fill: #939785;
      }

      .cls-14 {
        fill: #fff;
      }

      .cls-15 {
        fill: #995b61;
      }

      .cls-16 {
        fill: #4e5a6c;
      }

      .cls-17, .cls-18, .cls-19, .cls-20 {
        fill: none;
        stroke-miterlimit: 10;
      }

      .cls-17, .cls-18, .cls-19 {
        stroke: #010101;
      }

      .cls-17 {
        stroke-width: 4px;
      }

      .cls-18 {
        stroke-width: 2px;
      }

      .cls-20 {
        stroke: #fff;
      }
    </style>
  </defs>
  <title>mina</title>
  <g id="Layer_2" data-name="Layer 2">
    <g id="Layer_1-2" data-name="Layer 1">
      <g id="face2">
        <g>
          <g>
            <path class="cls-1" d="M226.1,389.1q1.38-21,2.78-41.89c1.56-23.42,3.21-47.26,11.48-69.23l-.63-.66a93,93,0,0,0,12.07-12.95C261.61,251,264.7,234,270,218.2c3.73-11,8.74-22,9.15-33.64,0-1.06,0-2.1,0-3.16h0l2.42-.05h0A49.3,49.3,0,0,0,290,160.81c.36-2.19.27-5-1.74-5.9a3.69,3.69,0,0,0-4.32,1.58,3.54,3.54,0,0,0-.43.75,30.5,30.5,0,0,0,.05-9h0l.3,0c.11-22.49-3.23-47.27-20-62.23a57.77,57.77,0,0,0-6.82-5.15c-8.5-5.59-18.15-9.66-25.63-16.59a43.93,43.93,0,0,1-13.79-28.77l-.75-.17a20.61,20.61,0,0,0,3.3-4.78l-5.38-6.31A23.72,23.72,0,0,0,210,13.42l1.33-.59c22,1.53,41.8,15.37,55.33,32.84s21.77,38.38,29.43,59.11c7.89,21.31,15.4,42.9,18.92,65.36,3.44,21.9,3,44.22,1.76,66.36-.72,12.41-1.71,24.87-.6,37.25,1.37,14.94,5.72,29.41,9.19,44a362.21,362.21,0,0,1-1.3,171,83.21,83.21,0,0,1-2.29,22.12l-2.21-15.34c-1,19.79-10.88,37.88-20.51,55.19q-11.68,21-23.37,42c2.58-10.29,2-21.09,1.36-31.69a218.56,218.56,0,0,1-51.46,72.64,203.81,203.81,0,0,0,14.91-31.94,20.82,20.82,0,0,0,2.53-3.23c3.6-5.62,4.46-12.11,4.14-18.83a204,204,0,0,0,5.65-41.36,70.51,70.51,0,0,1-9.38,16.53c-.68-4.52-1.22-9-1.58-13.57a96.14,96.14,0,0,0,2.39-9.49c2-10.19,1.84-21.07-1.67-30.74,0,0,0-.07,0-.09-1.25-2.48-2.45-5-3.57-7.53a38.26,38.26,0,0,0-3-7.82c-.06.05-.09.11-.15.14A169.26,169.26,0,0,1,224.4,429c-.27-10.37.41-20.75,1.11-31.1C225.71,395,225.9,392,226.1,389.1Z"/>
            <path class="cls-2" d="M283.55,157.24a3.54,3.54,0,0,1,.43-.75,3.69,3.69,0,0,1,4.32-1.58c2,.93,2.1,3.71,1.74,5.9a49.3,49.3,0,0,1-8.43,20.54h0l-2.42.05h0a76.9,76.9,0,0,0-1.31-11.28l.06,0a42.54,42.54,0,0,1,4.73-8.82l-.09-.07h0A13.14,13.14,0,0,1,283.55,157.24Z"/>
            <path class="cls-1" d="M283.6,148.24a30.5,30.5,0,0,1-.05,9,13.14,13.14,0,0,0-1,4h0l.09.07a42.54,42.54,0,0,0-4.73,8.82l-.06,0c-.86-4.81-1.92-9.61-2.58-14.46-1.52-10.95-1-22.09-1.94-33.1s-3.49-22.3-10.29-31l-.84.54c-2.08-3.2-4.15-6.41-6.21-9.6l1.11-1.65A57.77,57.77,0,0,1,263.91,86c16.78,15,20.12,39.74,20,62.23l-.3,0Z"/>
            <path class="cls-3" d="M235.77,146.88h-.42a12.07,12.07,0,0,0-3.26.58c-.27.09-.54.2-.81.32a20.45,20.45,0,0,0-2.58,1.35l-6.38,3.71a27.36,27.36,0,0,0-5.87,4.16,2.9,2.9,0,0,0-1,1.86,2.21,2.21,0,0,0,1.92,1.94,7.82,7.82,0,0,0,2.92-.2c4.73-.71,9.51.56,14.26,1a25.46,25.46,0,0,0,5.38,0c4.41-.5,10.56-4.11,13.63-7.48a.73.73,0,0,1-.2-.05,15,15,0,0,1-3.8-2.17,8.14,8.14,0,0,0,5.25,0,34.12,34.12,0,0,0-2.56-3.14,5.33,5.33,0,0,1-5.65,1.06l-.07,0a19,19,0,0,0-9.22-3C236.81,146.86,236.29,146.86,235.77,146.88Zm-22.15-15.11,0,0a2.27,2.27,0,0,0,.55,2.84c1.19.82,2.8.61,4.22.32a134.64,134.64,0,0,0,17.05-4.63,60.23,60.23,0,0,1,8.18-2.49,24.75,24.75,0,0,1,25.13,11.26c-1-4.48-4.36-8-7.71-11.12-2.25-2.11-4.63-4.21-7.5-5.32-4.79-1.85-10.15-.69-15.16.48l-14.86,3.53C219.86,127.54,215.66,128.87,213.62,131.77Zm11.44,106-.07-.33a150.9,150.9,0,0,1-20.81-5.77c-2.36-.84-4.87-1.76-7.31-1.13-3.14.81-5.69,4.09-8.88,3.53-1.45-.25-2.64-1.25-4-1.77a11.09,11.09,0,0,0-5.61-.18,66.64,66.64,0,0,0-13.46,3.57c-4.32,1.65-8.78,3.8-13.32,2.94.18.21.36.43.56.64l-.94,1c2.28,3.41,4.59,6.87,7.77,9.43s6.76,4,10.42,5.38c6.69,2.59,13.61,5,20.79,5.24a35.77,35.77,0,0,0,33.48-22l0-.11A14.53,14.53,0,0,1,225.06,237.72ZM116.34,140.89h0a1,1,0,0,0-.2-.26h0c0-.11,0-.2,0-.31q.44-2.72.91-5.43c5.91-3.77,12.31-7.14,19.18-6.55a35.46,35.46,0,0,1,5.47,1.06l23.56,5.9c1.26.31,2.68.61,3.79,0,1.59-.94,1.61-3.41.5-4.9a9.57,9.57,0,0,0-4.68-2.83,131.49,131.49,0,0,0-18-5c-5.22-1.1-10.83-1.83-15.76.23-3.81,1.58-6.71,4.63-9.73,7.53h0l-.09-.11a5.31,5.31,0,0,0-2.73-3.28c3.16-15.56,7.7-30.76,15.57-44.42,14.44-15.86,32.66-28.14,53.16-34.15,10.44-3.07,22.58-5.42,29.59-13h0l.75.17a43.93,43.93,0,0,0,13.79,28.77c7.48,6.93,17.13,11,25.63,16.59L256,82.47c2.06,3.19,4.13,6.4,6.21,9.6l.84-.54c6.8,8.73,9.36,20,10.29,31s.42,22.15,1.94,33.1c.66,4.85,1.72,9.65,2.58,14.46a76.9,76.9,0,0,1,1.31,11.28c.06,1.06.06,2.1,0,3.16-.41,11.67-5.42,22.6-9.15,33.64C264.7,234,261.61,251,251.8,264.37a93,93,0,0,1-12.07,12.95c-.93.86-1.85,1.72-2.78,2.56-8,7.3-16.28,14.8-26.54,18.26a53.66,53.66,0,0,1-15.89,2.53c-2.62.09-5.24,0-7.86-.06a65.93,65.93,0,0,1-15.85-2.06,50.79,50.79,0,0,1-14.49-7.08,146.63,146.63,0,0,1-13.9-11.1c-4.54-3.95-9.11-7.91-12.79-12.67a54.71,54.71,0,0,1-7.32-12.91,132.07,132.07,0,0,1-6.24-21c-2.8-12.07-5.27-24.3-5.72-36.68-.49-13.45,1.42-26.86,3.32-40.19.64-4.56,1.31-9.15,2-13.74a2.82,2.82,0,0,0,.67-.88A1.65,1.65,0,0,0,116.34,140.89Zm15.24,3.62a15,15,0,0,0-3.74,3.23,5,5,0,0,0,4.59,2.31l.3.45a21.44,21.44,0,0,1-3.76,2.19l.32,1.06a24.14,24.14,0,0,0,18.06,5.47c1.18-.15,2.37-.36,3.55-.61,3.69-.72,7.39-1.6,10.87-.43a14.43,14.43,0,0,0,3.23,1,2.5,2.5,0,0,0,2.7-1.56,3.21,3.21,0,0,0-.82-2.53,23.8,23.8,0,0,0-10.08-8,23.13,23.13,0,0,0-4.52-1.38,17.75,17.75,0,0,0-2.62-.36.39.39,0,0,0-.14,0,6.18,6.18,0,0,0-1.42-.05,3.1,3.1,0,0,0-.43,0v-.18a7,7,0,0,1-1.56-4l-.14-1.09c-.85.09-1.69.23-2.53.38s-1.56.28-2.35.46a39.93,39.93,0,0,0-4.16,1.13A23.63,23.63,0,0,0,131.58,144.51Zm61.7,124.93a2.55,2.55,0,0,0-.16-4,2.49,2.49,0,0,0-3.23.84h0l-.16-.11a2,2,0,0,0-.38,2.21A2.7,2.7,0,0,0,193.28,269.44Z"/>
            <path class="cls-4" d="M194.21,713.71a1.07,1.07,0,0,1-.07-.15c-2.65-5.84-.14-12.84-1.9-19-1.52-5.32-6-11.48-2.19-15.55l3.23-3.31,1.33-.74a10.72,10.72,0,0,0,3,3.66c4.19,3.35,10.17,2.9,15.49,2.29l8.86-1,5.65-.64c3.39,1.59,2.69,8.46,6.46,8.55l5.74,5.83a10.87,10.87,0,0,1,5.36-2.65,7.72,7.72,0,0,0,.81,1.45,16.56,16.56,0,0,1,2.51-1.54,20.11,20.11,0,0,1,27.49,26.67,21.08,21.08,0,0,1-1.25,2.17c-4.45,6.77-12.79,10.61-21,11.42-8.41.84-16.86-1-25.09-3a27.84,27.84,0,0,0-4.84-1.79,23.79,23.79,0,0,0-5.58-.73L211.56,724C204.79,722.35,197.15,720,194.21,713.71Z"/>
            <path class="cls-5" d="M274.69,719.72c-1.8,6.74-5.24,13-11.3,16.15-4.38,2.25-9.58,2.46-14.39,1.44a50.22,50.22,0,0,1-13.59-5.56c-2.24-1.24-4.48-2.53-6.8-3.61,8.23,2,16.68,3.84,25.09,3C261.9,730.33,270.24,726.49,274.69,719.72Z"/>
            <path class="cls-6" d="M213.64,131.79l0,0c2-2.9,6.24-4.23,9.92-5.11l14.86-3.53c5-1.17,10.37-2.33,15.16-.48,2.87,1.11,5.25,3.21,7.5,5.32,3.35,3.14,6.72,6.64,7.71,11.12a24.75,24.75,0,0,0-25.13-11.26,60.23,60.23,0,0,0-8.18,2.49A134.64,134.64,0,0,1,218.41,135c-1.42.29-3,.5-4.22-.32A2.27,2.27,0,0,1,213.64,131.79Z"/>
            <path class="cls-7" d="M249.56,152a15,15,0,0,0,3.8,2.17.73.73,0,0,0,.2.05c-3.07,3.37-9.22,7-13.63,7.48a25.46,25.46,0,0,1-5.38,0h0l.12-1.28h0a6.92,6.92,0,0,0,6.32-3.07c1.83-3.05.1-7.77-3.16-9.2,0,0-4.32-.27-7.14.93l-.29-.63v0a5.18,5.18,0,0,0,.89-.57c.27-.12.54-.23.81-.32a12.07,12.07,0,0,1,3.26-.58h.42a3.48,3.48,0,0,0,1.54,0,19,19,0,0,1,9.22,3l.07,0C247.62,150.53,248.57,151.29,249.56,152Z"/>
            <path class="cls-8" d="M252.25,148.83a34.12,34.12,0,0,1,2.56,3.14,8.14,8.14,0,0,1-5.25,0c-1-.7-1.94-1.46-3-2.1A5.33,5.33,0,0,0,252.25,148.83Z"/>
            <path class="cls-1" d="M247.12,579.63c.32,6.72-.54,13.21-4.14,18.83a20.82,20.82,0,0,1-2.53,3.23A206,206,0,0,0,247.12,579.63Z"/>
            <path class="cls-9" d="M222.93,610.29a6.63,6.63,0,0,1-.76.11c-8.19.93-16.52-1-24.21-4a10.2,10.2,0,0,1-4.14-2.48c-1.4-1.57-1.76-3.78-2.08-5.86a267.84,267.84,0,0,0-11.8-47c-7.52-21.49-17.72-41.9-28.41-62q.94-5.89,2.08-11.79c6.74-35.15,17.77-69.66,19.94-105.36.13-2,.22-4,.25-6h.31q4-15.69,8-31.39a73.49,73.49,0,0,1,2.27-8.57c3.09-8.11,1.91-5.22,10.14-25.32a53.66,53.66,0,0,0,15.89-2.53c10.26-3.46,18.56-11,26.54-18.26.93-.84,1.85-1.7,2.78-2.56l.63.66c-8.27,22-9.92,45.81-11.48,69.23q-1.4,20.93-2.78,41.89c-.2,2.93-.39,5.87-.59,8.81-.7,10.35-1.38,20.73-1.11,31.1a169.26,169.26,0,0,0,11.33,56.69,23,23,0,0,1-20,6.55c-1.45.34-2.21,2-2.22,3.49a6.22,6.22,0,0,0,1.27,3.82l-.47.36q.87,11.46,1.73,22.91a10.31,10.31,0,0,0,1.3,5.09c1,1.47,3.14,2.31,4.61,1.31,3.64,5.7,14,4.36,16.09-2.08l3.09-.06q.1,7.08.73,14.14c-2.72,8.93-6.6,17.56-10.45,26.11a71.69,71.69,0,0,0,12-12.52c.32,2.08.66,4.16,1,6.24,1.11,6,2.4,12.4,2.69,18.57a206,206,0,0,1-6.67,22.06A29.37,29.37,0,0,1,222.93,610.29Z"/>
            <path class="cls-4" d="M241.17,675.4c4.07,3.64,1.84,10.62,4,15.57a10.87,10.87,0,0,0-5.36,2.65L234,687.79a8.32,8.32,0,0,1-3.63-8.91c3.47-.56,7-1.71,8.4-4.74A6,6,0,0,1,241.17,675.4Z"/>
            <path class="cls-1" d="M243.39,554.8v0a71.69,71.69,0,0,1-12,12.52c3.85-8.55,7.73-17.18,10.45-26.11C242.17,545.77,242.71,550.28,243.39,554.8Z"/>
            <path class="cls-10" d="M232.5,153.49a2.66,2.66,0,0,0,1,.69c1.24.5,2.6-1.33,1.9-2.48a1.75,1.75,0,0,0-3.06.56,1.3,1.3,0,0,0-.15.44A1.14,1.14,0,0,0,232.5,153.49Zm5.33-5.41c3.26,1.43,5,6.15,3.16,9.2a6.92,6.92,0,0,1-6.32,3.07,6.63,6.63,0,0,1-3-1c-3-1.9-5-6.88-2.45-9.41a4.67,4.67,0,0,1,1.52-1C233.51,147.81,237.83,148.08,237.83,148.08Z"/>
            <path class="cls-9" d="M238,494.58c-1.18-2.08-1.83-.68-2.12-8.48.94,2.45,2,4.87,3,7.28,2.68,9.7,2.07,20.39,2.1,30.61,0,1,0,2.06.06,3.1l-3.09.06c-2.06,6.44-12.45,7.78-16.09,2.08-1.47,1-3.6.16-4.61-1.31a10.31,10.31,0,0,1-1.3-5.09q-.87-11.46-1.73-22.91l.47-.36a9.93,9.93,0,0,0,9,3.68c4.77-.64,8.68-4,12.11-7.39Z"/>
            <path class="cls-11" d="M161.86,544.56c7.1,22.05-2.71,45.86-2.39,69.05.25,19.46,7.7,38.9,3.91,58a18.08,18.08,0,0,1-1,3.57,7.7,7.7,0,0,1-2.08,2.94,8.31,8.31,0,0,1-4.39,1.7c-.15-.55-.29-1.09-.47-1.63l-.77,1.74c-.74.05-1.47.05-2.21.07h-.48L150.16,677c-.66.93-1.34,1.85-2,2.76a31.13,31.13,0,0,0-15.34.36l-3.16,0c-3.92,0-8.82-.52-10.22-4.2a5.73,5.73,0,0,1-.28-1,13.1,13.1,0,0,1,.53-5,105.22,105.22,0,0,0-3.64-59.8l0-2.79c2.46,0,4.93-.24,7.28-.49,5.24-.57,10.76-1.25,15-4.39,7.9-5.9,8-17.47,7.67-27.32a441.35,441.35,0,0,1,5.6-86.08c10.69,20.1,20.89,40.51,28.41,62a267.84,267.84,0,0,1,11.8,47c.32,2.08.68,4.29,2.08,5.86a10.2,10.2,0,0,0,4.14,2.48c7.69,3,16,4.89,24.21,4a6.63,6.63,0,0,0,.76-.11c-2.62,7.7-1.56,16.06,1,23.86.59,1.79,1.25,3.57,2,5.29,3.89,9.22,9.29,17.79,12.48,27.28.79,2.31,1.42,4.89.5,7.15a1.59,1.59,0,0,1-.12.27,7.21,7.21,0,0,0-7.82,3.28,6.73,6.73,0,0,0-.58,1.46c-.6.09-1.2.16-1.79.23-.34,0-.7.07-1,.13l-.09-.06c-1.31-.57-2.81-.14-4.18.27l-1.38.43-8.86,1c-5.32.61-11.3,1.06-15.49-2.29a10.72,10.72,0,0,1-3-3.66c-2.35-4.5-2.14-10.55-2.19-15.89-.11-12.23-3.16-24.25-6.17-36.12C179.51,596.4,172.67,569.67,161.86,544.56Z"/>
            <path class="cls-9" d="M238,494.58l-2.17,1.27c-3.43,3.39-7.34,6.75-12.11,7.39a9.93,9.93,0,0,1-9-3.68,6.22,6.22,0,0,1-1.27-3.82c0-1.48.77-3.15,2.22-3.49a23,23,0,0,0,20-6.55c.06.14.09.27.16.4C236.18,493.9,236.83,492.5,238,494.58Z"/>
            <path class="cls-12" d="M235.77,146.88c.52,0,1,0,1.54,0A3.48,3.48,0,0,1,235.77,146.88Z"/>
            <path class="cls-1" d="M238.92,493.38c-1.07-2.41-2.09-4.83-3-7.28,0-.18,0-.36,0-.54A38.26,38.26,0,0,1,238.92,493.38Z"/>
            <path class="cls-1" d="M235.89,486.1c-.07-.13-.1-.26-.16-.4s.09-.09.15-.14C235.88,485.74,235.89,485.92,235.89,486.1Z"/>
            <path class="cls-13" d="M235.44,151.7c.7,1.15-.66,3-1.9,2.48a2.66,2.66,0,0,1-1-.69c.06,0,.06,0,.08-.07a.63.63,0,0,0-.35-.72,1.3,1.3,0,0,1,.15-.44A1.75,1.75,0,0,1,235.44,151.7Zm-.19,1a.89.89,0,0,0-.92-.85.87.87,0,0,0-.91.85.85.85,0,0,0,.91.82A.87.87,0,0,0,235.25,152.69Z"/>
            <path class="cls-7" d="M234.67,160.35h0l-.12,1.28h0c-4.75-.48-9.53-1.75-14.26-1a7.82,7.82,0,0,1-2.92.2,2.21,2.21,0,0,1-1.92-1.94,2.9,2.9,0,0,1,1-1.86,27.36,27.36,0,0,1,5.87-4.16l6.38-3.71a20.45,20.45,0,0,1,2.58-1.35,5.18,5.18,0,0,1-.89.57v0l.29.63a4.67,4.67,0,0,0-1.52,1c-2.51,2.53-.54,7.51,2.45,9.41A6.63,6.63,0,0,0,234.67,160.35Z"/>
            <path class="cls-14" d="M234.33,151.84a.89.89,0,0,1,.92.85.87.87,0,0,1-.92.82.85.85,0,0,1-.91-.82A.87.87,0,0,1,234.33,151.84Z"/>
            <path class="cls-12" d="M232.23,152.7a.63.63,0,0,1,.35.72s0,.06-.08.07A1.14,1.14,0,0,1,232.23,152.7Z"/>
            <path class="cls-15" d="M225,237.39l.07.33a14.53,14.53,0,0,0-1.42.44c-5.18,1.87-9.86,5.94-15.35,5.55-3.37-.25-6.58-2.21-9.92-1.71s-6,3.36-9.32,3.64c-2.17.18-4.24-.73-6.35-1.22-4.49-1-9.17-.14-13.78-.18a33.55,33.55,0,0,1-15-3.67,8.06,8.06,0,0,1-1.73-1.35c-.2-.21-.38-.43-.56-.64,4.54.86,9-1.29,13.32-2.94a66.64,66.64,0,0,1,13.46-3.57,11.09,11.09,0,0,1,5.61.18c1.36.52,2.55,1.52,4,1.77,3.19.56,5.74-2.72,8.88-3.53,2.44-.63,4.95.29,7.31,1.13A150.9,150.9,0,0,0,225,237.39Z"/>
            <path class="cls-12" d="M153.89,240.57a33.55,33.55,0,0,0,15,3.67c4.61,0,9.29-.86,13.78.18,2.11.49,4.18,1.4,6.35,1.22,3.35-.28,6-3.14,9.32-3.64s6.55,1.46,9.92,1.71c5.49.39,10.17-3.68,15.35-5.55l0,.11a35.77,35.77,0,0,1-33.48,22c-7.18-.22-14.1-2.65-20.79-5.24-3.66-1.41-7.37-2.92-10.42-5.38s-5.49-6-7.77-9.43l.94-1A8.06,8.06,0,0,0,153.89,240.57Z"/>
            <path class="cls-1" d="M134.15,82.42a134.74,134.74,0,0,0-17.22,23.76,151.76,151.76,0,0,0-10.62,23l3.66,1.29h0a8.53,8.53,0,0,0-.14,5.77,6.86,6.86,0,0,0,2.1,3.2,6.62,6.62,0,0,0,2.27,1.09A1.85,1.85,0,0,0,114,142a1,1,0,0,0,.83.5,3.51,3.51,0,0,0,.34,1.13,4.29,4.29,0,0,0,.48-.47c-.71,4.59-1.38,9.18-2,13.74-1.9,13.33-3.81,26.74-3.32,40.19.45,12.38,2.92,24.61,5.72,36.68a132.07,132.07,0,0,0,6.24,21l-1,.29a138.05,138.05,0,0,1,4.07,65.5h0l-1.51.11h0A427.67,427.67,0,0,1,125,364c-.58,21.9-3,44.35-12.29,64.1a22.32,22.32,0,0,0-1.4,2.26l-.29-.15c-3.6,6-7.37,11.81-11.26,17.58,0,.65.07,1.27.11,1.92-2,.41-2.39,3-2.76,5a40.07,40.07,0,0,1-1.83,5.79c-4.22,11.8-4.61,24.55-5,37.09q-3.63-17.06-5.79-34.36l-.33-.15c-.23.49-.46,1-.68,1.44q-2.24,4.89-4.21,9.9s0,0,0,0a201.24,201.24,0,0,0-9.31,30q-.33,12.2-.61,24.41L62,517.86a60.74,60.74,0,0,0,3.87,29.77,11.2,11.2,0,0,1-7.62-8.7,89.85,89.85,0,0,0,25.67,68.19c-11-6.83-22.06-13.86-31.12-23.14s-16.07-21.09-17.24-34a79.86,79.86,0,0,0,2.78,38.36L20.39,546c-5.72-13.53-11.48-27.14-14.78-41.47a125.25,125.25,0,0,1-3.16-26.09H1.9c-3.84-19.18,5.45-38.15,12.5-56.37a263.8,263.8,0,0,0,17.7-96.44c-.05-12.41-1-24.86,0-37.23,1.88-22.65,10.26-44.18,15-66.4C55.54,182,52.2,139,68.85,101.59c13.59-30.56,39.08-54,64.55-75.67C146,15.14,159.71,4.17,176.12,1.48,188.44-.57,202.53,4,210,13.42a23.72,23.72,0,0,1,4.88,10.78l5.38,6.31a20.61,20.61,0,0,1-3.3,4.78h0c-7,7.56-19.15,9.91-29.59,13C166.81,54.28,148.59,66.56,134.15,82.42Z"/>
            <path class="cls-5" d="M218.19,725.62a33.29,33.29,0,0,0-7.51.68c-2.62.52-5.31,1.29-7.93.71-3.5-.77-6.13-3.85-7.35-7.22a23.4,23.4,0,0,1-1.19-6.08c2.94,6.29,10.58,8.64,17.35,10.29Z"/>
            <path class="cls-3" d="M186.66,300.61c2.62.09,5.24.15,7.86.06-8.23,20.1-7.05,17.21-10.14,25.32a73.49,73.49,0,0,0-2.27,8.57q-4,15.72-8,31.39h-.31c.72-25.93-4.19-52.87-17.48-74.48a50.79,50.79,0,0,0,14.49,7.08A65.93,65.93,0,0,0,186.66,300.61Z"/>
            <path class="cls-16" d="M189.89,266.27a2.49,2.49,0,0,1,3.23-.84,2.55,2.55,0,0,1,.16,4,2.7,2.7,0,0,1-3.95-1.07,2,2,0,0,1,.38-2.21l.16.11Z"/>
            <path class="cls-9" d="M149.05,425.31l-.32.69a13,13,0,0,0-4.2,11.19,3.74,3.74,0,0,0,.68,1.92c1,1.25,3.16.91,4.29-.25a8.81,8.81,0,0,0,1.81-4.43c.45-2.19.9-4.51.09-6.59A4.87,4.87,0,0,0,149.05,425.31Zm4.58-40.3a57.31,57.31,0,0,0-.13,9.8,2.3,2.3,0,0,0,.52,1.56c.65.63,1.74.32,2.51-.15,4.65-2.85,5-10.61.59-13.84l-1.83,2.69Zm-42.1,45.43c.42-.79.79-1.59,1.15-2.38C122,408.31,124.39,385.86,125,364a427.67,427.67,0,0,0-1.13-43.26h0l1.51-.11h0a138.05,138.05,0,0,0-4.07-65.5l1-.29a54.71,54.71,0,0,0,7.32,12.91c3.68,4.76,8.25,8.72,12.79,12.67a146.63,146.63,0,0,0,13.9,11.1C169.61,313.08,174.52,340,173.8,366c0,2-.12,4-.25,6-2.17,35.7-13.2,70.21-19.94,105.36q-1.14,5.9-2.08,11.79a441.35,441.35,0,0,0-5.6,86.08c.32,9.85.23,21.42-7.67,27.32-4.22,3.14-9.74,3.82-15,4.39-2.35.25-4.82.47-7.28.49-6.22.07-12.36-1.08-16.18-5.69-3.37-4.11-3.85-9.81-4.12-15.12q-.78-15.17-1-30.36l.41-.14-.45-16.63c0-1.72,0-3.43.06-5.15a20.56,20.56,0,0,0,13.43,7.46c5.34.51,11-1.92,13.75-6.54,3.74-6.42,1.12-15,3.39-21.9,1,.09,1.92.14,2.89.14,4.83-4.77-.8-12.86-6.8-16s-13.72-6.3-14.38-13a40.34,40.34,0,0,0-8.32,14.74l-2.55-3c3.77-19.55,2.44-40.8,11.32-58.61,1.78-3.57,3-5.83,3.8-7.26Zm29.72,51.71a14.22,14.22,0,0,0,1.11-8.52c-.46-2.58-3.42-5.43-5.27-3.59l.16.18a20.43,20.43,0,0,0-1.85,9.83c.15,2.12,1.4,4.79,3.5,4.41A3.74,3.74,0,0,0,141.25,482.15Z"/>
            <path class="cls-6" d="M169.57,130.34c1.11,1.49,1.09,4-.5,4.9-1.11.66-2.53.36-3.79,0l-23.56-5.9a35.46,35.46,0,0,0-5.47-1.06c-6.87-.59-13.27,2.78-19.18,6.55.06-.34.13-.7.18-1a38,38,0,0,0,4.15-3.61h0c3-2.9,5.92-5.95,9.73-7.53,4.93-2.06,10.54-1.33,15.76-.23a131.49,131.49,0,0,1,18,5A9.57,9.57,0,0,1,169.57,130.34Z"/>
            <path class="cls-4" d="M89.62,724.25a11.55,11.55,0,0,1-1.56-5.43c-.17-4,1.65-7.73,3.42-11.28l2.1-4.16c.7-.06,1.42-.09,2.12-.15,2.78-1.9,5.54-3.82,8.32-5.74,5.58-1.74,11.87-3.4,17-.64a11.59,11.59,0,0,1,4,3.57l1.11-3.57c-8.74-2.32-14-13.35-10.19-21.58l3.18-.32a5.73,5.73,0,0,0,.28,1c1.4,3.68,6.3,4.23,10.22,4.2l3.16,0q9.56-.07,19.12-.18l1.52,2.55c.4-.88.78-1.74,1.17-2.62.41,0,.83,0,1.24-.11a8.31,8.31,0,0,0,4.39-1.7,7.7,7.7,0,0,0,2.08-2.94l3.5.32a126.26,126.26,0,0,1,2.1,18.4,34.58,34.58,0,0,1-.7,9.85,22.5,22.5,0,0,1-1.1,3.14,33.83,33.83,0,0,1-7.71,10.34,63.45,63.45,0,0,1-5.32,4.63h0c-2.26.56-4.15,2.28-5.92,4a64.22,64.22,0,0,1-11.77,5.62,58.73,58.73,0,0,1-28.35,3C100.22,733.44,92.75,729.94,89.62,724.25Z"/>
            <path class="cls-7" d="M156.8,147.13a23.8,23.8,0,0,1,10.08,8,3.21,3.21,0,0,1,.82,2.53,2.5,2.5,0,0,1-2.7,1.56,14.43,14.43,0,0,1-3.23-1c-3.48-1.17-7.18-.29-10.87.43l-.16-.76a5.39,5.39,0,0,0,1.56-.59,6,6,0,0,0,2.85-5.51,7,7,0,0,0-3.05-5.56,6.56,6.56,0,0,0-2.44-.8,17.75,17.75,0,0,1,2.62.36A23.13,23.13,0,0,1,156.8,147.13Z"/>
            <path class="cls-5" d="M166.14,706.86a20.26,20.26,0,0,1,.33,8.55c-.81,3.46-3.66,6.74-7.21,6.8-1.62,0-3.16-.59-4.76-.56a7,7,0,0,0-1.39.18,63.45,63.45,0,0,0,5.32-4.63A33.83,33.83,0,0,0,166.14,706.86Z"/>
            <path class="cls-9" d="M157.12,382.38c4.38,3.23,4.06,11-.59,13.84-.77.47-1.86.78-2.51.15a2.3,2.3,0,0,1-.52-1.56,57.31,57.31,0,0,1,.13-9.8l1.66.06Z"/>
            <path class="cls-10" d="M146,151.4c.19.87.68,1.57,1.52,1.23a1.49,1.49,0,0,0,.34-2.47,1.31,1.31,0,0,0-1.88,1.09.25.25,0,0,0,0,.13Zm9.16.35a6,6,0,0,1-2.85,5.51,5.39,5.39,0,0,1-1.56.59,10,10,0,0,1-4.5-.2,9.57,9.57,0,0,1-4.7-2.4,4.74,4.74,0,0,1-1.22-4.91c.23-.59,3.23-3.5,2.67-3.86a14.86,14.86,0,0,1,5.11-1.16c.49,0,1,0,1.42.05a.39.39,0,0,1,.14,0,6.56,6.56,0,0,1,2.44.8A7,7,0,0,1,155.15,151.75Z"/>
            <path class="cls-9" d="M151.4,427.84c.81,2.08.36,4.4-.09,6.59a8.81,8.81,0,0,1-1.81,4.43c-1.13,1.16-3.26,1.5-4.29.25a3.74,3.74,0,0,1-.68-1.92,13,13,0,0,1,4.2-11.19l.32-.69A4.87,4.87,0,0,1,151.4,427.84Z"/>
            <path class="cls-7" d="M143.83,145.64a21.58,21.58,0,0,1,3.84-.34,3.1,3.1,0,0,1,.43,0,14.86,14.86,0,0,0-5.11,1.16c.56.36-2.44,3.27-2.67,3.86a4.74,4.74,0,0,0,1.22,4.91,9.57,9.57,0,0,0,4.7,2.4,10,10,0,0,0,4.5.2l.16.76c-1.18.25-2.37.46-3.55.61a24.14,24.14,0,0,1-18.06-5.47l-.32-1.06a21.44,21.44,0,0,0,3.76-2.19c.83-.56,1.65-1.15,2.49-1.67.58-.36,1.17-.68,1.78-1a20.52,20.52,0,0,1,3.19-1.3A19.36,19.36,0,0,1,143.83,145.64Z"/>
            <path class="cls-3" d="M148.1,145.32a6.18,6.18,0,0,1,1.42.05C149.05,145.33,148.59,145.32,148.1,145.32Z"/>
            <path class="cls-13" d="M147.85,150.16a1.49,1.49,0,0,1-.34,2.47c-.84.34-1.33-.36-1.52-1.23v0a.25.25,0,0,1,0-.13A1.31,1.31,0,0,1,147.85,150.16Zm.23,1a.53.53,0,0,0-.5-.55.56.56,0,0,0,0,1.11A.54.54,0,0,0,148.08,151.16Z"/>
            <ellipse class="cls-14" cx="147.58" cy="151.16" rx="0.5" ry="0.56"/>
            <path class="cls-3" d="M142.29,143.36l-.45.11a3.17,3.17,0,0,1-.63-2l-.12-.58c.79-.18,1.58-.32,2.35-.46s1.68-.29,2.53-.38l.14,1.09a7,7,0,0,0,1.56,4v.18a21.58,21.58,0,0,0-3.84.34A3.67,3.67,0,0,1,142.29,143.36Z"/>
            <path class="cls-5" d="M147.17,725.88c-.68.7-1.36,1.4-2,2-3.73,3.51-8.42,5.81-13.16,7.78-7.89,3.29-16.45,5.9-24.89,4.56s-16.45-7.61-17.45-16c3.13,5.69,10.6,9.19,17.43,10.21a58.73,58.73,0,0,0,28.35-3A64.22,64.22,0,0,0,147.17,725.88Z"/>
            <path class="cls-9" d="M142.36,473.63a14.22,14.22,0,0,1-1.11,8.52,3.74,3.74,0,0,1-2.35,2.31c-2.1.38-3.35-2.29-3.5-4.41a20.43,20.43,0,0,1,1.85-9.83l-.16-.18C138.94,468.2,141.9,471.05,142.36,473.63Z"/>
            <path class="cls-8" d="M142.29,143.36a3.67,3.67,0,0,0,1.54,2.28,19.36,19.36,0,0,0-3.64.9v0l0-.07a11.84,11.84,0,0,1-3.24-4.4,39.93,39.93,0,0,1,4.16-1.13l.12.58a3.17,3.17,0,0,0,.63,2Z"/>
            <path class="cls-8" d="M136.66,147.16a5,5,0,0,1-5.08-2.65,23.63,23.63,0,0,1,5.35-2.46,11.84,11.84,0,0,0,3.24,4.4l0,.07v0a20.52,20.52,0,0,0-3.19,1.3h0Z"/>
            <path class="cls-8" d="M137,147.83h0c-.61.31-1.2.63-1.78,1-.84.52-1.66,1.11-2.49,1.67l-.3-.45a5,5,0,0,1-4.59-2.31,15,15,0,0,1,3.74-3.23,5,5,0,0,0,5.08,2.65Z"/>
            <path class="cls-9" d="M125.32,513.34a38.6,38.6,0,0,1-26.27-13.78l-.34-.39A40.34,40.34,0,0,1,107,484.43c.66,6.74,8.39,9.86,14.38,13s11.63,11.24,6.8,16C127.24,513.48,126.28,513.43,125.32,513.34Z"/>
            <path class="cls-9" d="M125.32,513.34c-2.27,6.92.35,15.48-3.39,21.9-2.7,4.62-8.41,7-13.75,6.54a20.56,20.56,0,0,1-13.43-7.46c0-2,0-4,.1-6,.24-9.76.85-20,3.86-29.2l.34.39A38.6,38.6,0,0,0,125.32,513.34Z"/>
            <path class="cls-3" d="M118.33,128.1c.09-.41.18-.83.25-1.26a5.31,5.31,0,0,1,2.73,3.28l.09.11a38,38,0,0,1-4.15,3.61C117.59,131.92,118,130,118.33,128.1Z"/>
            <path class="cls-1" d="M134.15,82.42c-7.87,13.66-12.41,28.86-15.57,44.42a5.68,5.68,0,0,0-2.42-.62,6.56,6.56,0,0,0-5.72,3.3,6.14,6.14,0,0,0-.45.93h0l-3.66-1.29a151.76,151.76,0,0,1,10.62-23A134.74,134.74,0,0,1,134.15,82.42Z"/>
            <path class="cls-1" d="M118.58,126.84c-.07.43-.16.85-.25,1.26l-1.29-.22a6.05,6.05,0,0,0-2.87,0,2,2,0,0,0-1.45,2.19l-.7,0c-1,2-1.6,4.4-.9,6.53a5.62,5.62,0,0,0,3.43,3.39l-.33.54a6.62,6.62,0,0,1-2.27-1.09,6.86,6.86,0,0,1-2.1-3.2,8.53,8.53,0,0,1,.14-5.77,6.14,6.14,0,0,1,.45-.93,6.56,6.56,0,0,1,5.72-3.3A5.68,5.68,0,0,1,118.58,126.84Z"/>
            <path class="cls-1" d="M115.33,140.2a3.66,3.66,0,0,1-.78-.23,5.62,5.62,0,0,1-3.43-3.39c-.7-2.13-.05-4.48.9-6.53l.7,0a2,2,0,0,1,1.45-2.19,6.05,6.05,0,0,1,2.87,0l1.29.22c-.38,1.92-.74,3.82-1.08,5.74,0,.34-.12.7-.18,1q-.48,2.72-.91,5.43A3.77,3.77,0,0,1,115.33,140.2Z"/>
            <path class="cls-12" d="M116.34,140.89a1.65,1.65,0,0,1,0,1.41,2.82,2.82,0,0,1-.67.88l.38-2.31h0l.21,0Z"/>
            <path class="cls-12" d="M116.32,140.89l-.21,0h0a1.09,1.09,0,0,1,0-.24h0A1,1,0,0,1,116.32,140.89Z"/>
            <path class="cls-1" d="M116.16,140.31c0,.11,0,.2,0,.31a1,1,0,0,0-.92-.15,1.16,1.16,0,0,1,.14-.27A3.77,3.77,0,0,0,116.16,140.31Z"/>
            <path class="cls-12" d="M116.11,140.62h0a1.09,1.09,0,0,0,0,.24c-.32,0-.65-.09-1-.16a.44.44,0,0,1,.09-.24A1,1,0,0,1,116.11,140.62Z"/>
            <path class="cls-12" d="M114.87,141.48a2.36,2.36,0,0,1,.23-.77c.32.07.65.12,1,.16l-.38,2.31a4.29,4.29,0,0,1-.48.47,3.51,3.51,0,0,1-.34-1.13A3,3,0,0,1,114.87,141.48Z"/>
            <path class="cls-1" d="M115.33,140.2a1.16,1.16,0,0,0-.14.27.78.78,0,0,0-.32.18c-.22,0-.43-.09-.65-.14l.33-.54A3.66,3.66,0,0,0,115.33,140.2Z"/>
            <path class="cls-12" d="M115.19,140.47a.44.44,0,0,0-.09.24.56.56,0,0,1-.23-.06A.78.78,0,0,1,115.19,140.47Z"/>
            <path class="cls-12" d="M114.87,140.65a.56.56,0,0,0,.23.06,2.36,2.36,0,0,0-.23.77.54.54,0,0,1-.18-.52A.69.69,0,0,1,114.87,140.65Z"/>
            <path class="cls-1" d="M114.87,141.48a3,3,0,0,0,0,1,1,1,0,0,1-.83-.5,1.85,1.85,0,0,1,.18-1.51c.22.05.43.11.65.14a.69.69,0,0,0-.18.31A.54.54,0,0,0,114.87,141.48Z"/>
            <path class="cls-1" d="M112.68,428.06c-.36.79-.73,1.59-1.15,2.38l-.25-.12A22.32,22.32,0,0,1,112.68,428.06Z"/>
            <path class="cls-9" d="M111,430.17l.29.15c-.81,1.43-2,3.69-3.8,7.26-8.88,17.81-7.55,39.06-11.32,58.61l2.55,3c-3,9.17-3.62,19.44-3.86,29.2,0,2-.09,4-.1,6a1.79,1.79,0,0,1-.22-.25l0,.5-3.86-.73c-3.57,4.07-10.87,1.81-13.61-2.84s-2.31-10.47-1.78-15.85c3.27-33.59.7-7.26,4-40.77,0,0,0,0,0,0q2-5,4.21-9.9c.22-.49.45-1,.68-1.44l.33.15q2.15,17.29,5.79,34.36c.36-12.54.75-25.29,5-37.09a40.07,40.07,0,0,0,1.83-5.79c.37-2,.77-4.58,2.76-5,0-.65-.07-1.27-.11-1.92C103.62,442,107.39,436.13,111,430.17Z"/>
            <path class="cls-3" d="M94.69,539.47c-.07,5.6,0,11.17,0,16.77l-4.23,1.52c-5.62-.75-10.12-5.31-12.4-10.49s-2.72-11-3.12-16.61l2.1.34c2.74,4.65,10,6.91,13.61,2.84l3.86.73Z"/>
            <path class="cls-12" d="M38.3,588.34c1.76,4.13,3.5,8.27,5.26,12.4A76.91,76.91,0,0,1,38.3,588.34Z"/>
          </g>
          <g>
            <path class="cls-17" d="M111.28,430.32c-.81,1.43-2,3.69-3.8,7.26-8.88,17.81-7.55,39.06-11.32,58.61l2.55,3,.34.39a38.6,38.6,0,0,0,26.27,13.78c1,.09,1.92.14,2.89.14,4.83-4.77-.8-12.86-6.8-16s-13.72-6.3-14.38-13a40.34,40.34,0,0,0-8.32,14.74c-3,9.17-3.62,19.44-3.86,29.2,0,2-.09,4-.1,6,0,1.72-.06,3.43-.06,5.15-.07,5.6,0,11.17,0,16.77q.18,15.19,1,30.36c.27,5.31.75,11,4.12,15.12,3.82,4.61,10,5.76,16.18,5.69,2.46,0,4.93-.24,7.28-.49,5.24-.57,10.76-1.25,15-4.39,7.9-5.9,8-17.47,7.67-27.32a441.35,441.35,0,0,1,5.6-86.08q.94-5.89,2.08-11.79c6.74-35.15,17.77-69.66,19.94-105.36.13-2,.22-4,.25-6,.72-25.93-4.19-52.87-17.48-74.48"/>
            <path class="cls-17" d="M79.27,474.38c-3.27,33.51-.7,7.18-4,40.77-.53,5.38-1,11.19,1.78,15.85s10,6.91,13.61,2.84l3.86.73"/>
            <path class="cls-18" d="M79.27,474.33v0"/>
            <path class="cls-17" d="M77.08,531l-2.1-.34c.4,5.65.84,11.43,3.12,16.61s6.78,9.74,12.4,10.49l4.23-1.52.41-.14-.45-16.63-.14-4.9,0-.5a1.79,1.79,0,0,0,.22.25,20.56,20.56,0,0,0,13.43,7.46c5.34.51,11-1.92,13.75-6.54,3.74-6.42,1.12-15,3.39-21.9a12.89,12.89,0,0,1,1.19-2.66"/>
            <path class="cls-17" d="M194.52,300.67c-8.23,20.1-7.05,17.21-10.14,25.32a73.49,73.49,0,0,0-2.27,8.57q-4,15.72-8,31.39"/>
            <path class="cls-17" d="M235.73,485.7a23,23,0,0,1-20,6.55c-1.45.34-2.21,2-2.22,3.49a6.22,6.22,0,0,0,1.27,3.82,9.93,9.93,0,0,0,9,3.68c4.77-.64,8.68-4,12.11-7.39"/>
            <path class="cls-17" d="M241.08,527.09c0-1-.06-2.06-.06-3.1,0-10.22.58-20.91-2.1-30.61"/>
            <path class="cls-18" d="M241.81,541.23q-.62-7.05-.73-14.14"/>
            <path class="cls-17" d="M247.12,579.63c-.29-6.17-1.58-12.54-2.69-18.57-.38-2.08-.72-4.16-1-6.24"/>
            <path class="cls-17" d="M151.22,488.55l.31.58c10.69,20.1,20.89,40.51,28.41,62a267.84,267.84,0,0,1,11.8,47c.32,2.08.68,4.29,2.08,5.86a10.2,10.2,0,0,0,4.14,2.48c7.69,3,16,4.89,24.21,4a6.63,6.63,0,0,0,.76-.11,29.37,29.37,0,0,0,17.52-8.6"/>
            <path class="cls-17" d="M214.26,499.92q.87,11.46,1.73,22.91a10.31,10.31,0,0,0,1.3,5.09c1,1.47,3.14,2.31,4.61,1.31,3.64,5.7,14,4.36,16.09-2.08"/>
            <path class="cls-18" d="M226.1,389.1c-6.71-9.59-6-16.85-16.86-33.61"/>
            <path class="cls-17" d="M210.14,338.4a56,56,0,0,1,20.05-44.31"/>
            <path class="cls-17" d="M240,501c-.79-3.75-1.45-5.47-2-6.44-1.18-2.08-1.83-.68-2.12-8.48"/>
            <path class="cls-17" d="M116.05,610.2a105.22,105.22,0,0,1,3.64,59.8,13.1,13.1,0,0,0-.53,5,5.73,5.73,0,0,0,.28,1c1.4,3.68,6.3,4.23,10.22,4.2l3.16,0q9.56-.07,19.12-.18h.48c.74,0,1.47,0,2.21-.07.41,0,.83,0,1.24-.11a8.31,8.31,0,0,0,4.39-1.7,7.7,7.7,0,0,0,2.08-2.94,18.08,18.08,0,0,0,1-3.57c3.79-19.07-3.66-38.51-3.91-58-.32-23.19,9.49-47,2.39-69.05,0-.1-.07-.23-.11-.34"/>
            <path class="cls-17" d="M157.27,534.52q2.41,5,4.59,10c10.81,25.11,17.65,51.84,24.39,78.38,3,11.87,6.06,23.89,6.17,36.12.05,5.34-.16,11.39,2.19,15.89a10.72,10.72,0,0,0,3,3.66c4.19,3.35,10.17,2.9,15.49,2.29l8.86-1,5.65-.64c.34-.06.7-.09,1-.13.59-.07,1.19-.14,1.79-.23,3.47-.56,7-1.71,8.4-4.74a1.59,1.59,0,0,0,.12-.27c.92-2.26.29-4.84-.5-7.15-3.19-9.49-8.59-18.06-12.48-27.28-.74-1.72-1.4-3.5-2-5.29-2.58-7.8-3.64-16.16-1-23.86a.43.43,0,0,0,0,0"/>
            <path class="cls-17" d="M116,675.27c-3.77,8.23,1.45,19.26,10.19,21.58a.35.35,0,0,0,.11,0"/>
            <path class="cls-17" d="M130.9,694.7c.59-4.22-5.45-8.13-3.26-11.77a5.79,5.79,0,0,1,3.19-2.15c.65-.23,1.31-.45,2-.63a31.13,31.13,0,0,1,15.34-.36c.66-.91,1.34-1.83,2-2.76l1.78,2.94,1.52,2.55c.4-.88.78-1.74,1.17-2.62l.77-1.74c.18.54.32,1.08.47,1.63a19.87,19.87,0,0,1-2.73,15.34"/>
            <path class="cls-17" d="M153.09,721.83a65.85,65.85,0,0,1-5.92,4,64.22,64.22,0,0,1-11.77,5.62,58.73,58.73,0,0,1-28.35,3c-6.83-1-14.3-4.52-17.43-10.21a11.55,11.55,0,0,1-1.56-5.43c-.17-4,1.65-7.73,3.42-11.28l2.1-4.16c.7-.06,1.42-.09,2.12-.15,2.78-1.9,5.54-3.82,8.32-5.74,5.58-1.74,11.87-3.4,17-.64a11.59,11.59,0,0,1,4,3.57c3.19,4.53,3.6,11.3,2.72,17.07"/>
            <path class="cls-17" d="M165.84,675.47a126.26,126.26,0,0,1,2.1,18.4,34.58,34.58,0,0,1-.7,9.85,22.5,22.5,0,0,1-1.1,3.14,33.83,33.83,0,0,1-7.71,10.34,63.45,63.45,0,0,1-5.32,4.63"/>
            <path class="cls-17" d="M193.28,675.69,190.05,679c-3.76,4.07.67,10.23,2.19,15.55,1.76,6.17-.75,13.17,1.9,19a1.07,1.07,0,0,0,.07.15c2.94,6.29,10.58,8.64,17.35,10.29l6.63,1.62,8.65,2.09,1.77.43c8.23,2,16.68,3.84,25.09,3,8.2-.81,16.54-4.65,21-11.42a21.08,21.08,0,0,0,1.25-2.17,20.11,20.11,0,0,0-27.49-26.67,16.56,16.56,0,0,0-2.51,1.54,7.72,7.72,0,0,1-.81-1.45c-2.12-5,.11-11.93-4-15.57a6,6,0,0,0-2.37-1.26,7.21,7.21,0,0,0-7.82,3.28,6.73,6.73,0,0,0-.58,1.46,8.32,8.32,0,0,0,3.63,8.91c-3.77-.09-3.07-7-6.46-8.55l-.09-.06c-1.31-.57-2.81-.14-4.18.27l-1.38.43-12.3,3.86q2.5,5.06,5,10.11c-1.08.86-2.78.18-3.59-1a19,19,0,0,1-1.65-3.8c-2.22-5.09-8.46-6.81-13.92-7.91"/>
            <path class="cls-17" d="M232.59,704.56c3.07-1.13,3.54-5.13,5-8a9.7,9.7,0,0,1,2.19-2.89,10.87,10.87,0,0,1,5.36-2.65,9.5,9.5,0,0,1,3.32-.09,3.55,3.55,0,0,1,.64.1"/>
            <path class="cls-17" d="M89.58,724.06a.65.65,0,0,0,0,.19c1,8.41,9.09,14.67,17.45,16s17-1.27,24.89-4.56c4.74-2,9.43-4.27,13.16-7.78.69-.65,1.37-1.35,2-2,1.77-1.77,3.66-3.49,5.92-4h0a7,7,0,0,1,1.39-.18c1.6,0,3.14.58,4.76.56,3.55-.06,6.4-3.34,7.21-6.8a20.26,20.26,0,0,0-.33-8.55c-.14-.69-.28-1.37-.43-2"/>
            <path class="cls-17" d="M194.07,709.15c0,1.51,0,3,.14,4.56a23.4,23.4,0,0,0,1.19,6.08c1.22,3.37,3.85,6.45,7.35,7.22,2.62.58,5.31-.19,7.93-.71a33.29,33.29,0,0,1,7.51-.68,23.79,23.79,0,0,1,5.58.73,27.84,27.84,0,0,1,4.84,1.79c2.32,1.08,4.56,2.37,6.8,3.61A50.22,50.22,0,0,0,249,737.31c4.81,1,10,.81,14.39-1.44,6.06-3.1,9.5-9.41,11.3-16.15a47.79,47.79,0,0,0,1.13-5.62"/>
            <path class="cls-17" d="M153.84,383.17c-.09.61-.16,1.24-.21,1.84a57.31,57.31,0,0,0-.13,9.8,2.3,2.3,0,0,0,.52,1.56c.65.63,1.74.32,2.51-.15,4.65-2.85,5-10.61.59-13.84l-1.83,2.69"/>
            <path class="cls-17" d="M148.73,426a13,13,0,0,0-4.2,11.19,3.74,3.74,0,0,0,.68,1.92c1,1.25,3.16.91,4.29-.25a8.81,8.81,0,0,0,1.81-4.43c.45-2.19.9-4.51.09-6.59a4.87,4.87,0,0,0-2.35-2.53,3.18,3.18,0,0,0-2.94-.05"/>
            <path class="cls-17" d="M137.25,470.22a20.43,20.43,0,0,0-1.85,9.83c.15,2.12,1.4,4.79,3.5,4.41a3.74,3.74,0,0,0,2.35-2.31,14.22,14.22,0,0,0,1.11-8.52c-.46-2.58-3.42-5.43-5.27-3.59"/>
            <line class="cls-18" x1="249.54" y1="152.01" x2="249.56" y2="151.99"/>
            <path class="cls-18" d="M214.48,131.24a1.17,1.17,0,0,0-.84.55,2.27,2.27,0,0,0,.55,2.84c1.19.82,2.8.61,4.22.32a134.64,134.64,0,0,0,17.05-4.63,60.23,60.23,0,0,1,8.18-2.49,24.75,24.75,0,0,1,25.13,11.26c-1-4.48-4.36-8-7.71-11.12-2.25-2.11-4.63-4.21-7.5-5.32-4.79-1.85-10.15-.69-15.16.48l-14.86,3.53c-3.68.88-7.88,2.21-9.92,5.11a6.7,6.7,0,0,0-1,2.12"/>
            <path class="cls-18" d="M114.49,135.61a17.48,17.48,0,0,0,2.76-1.77,38,38,0,0,0,4.15-3.61h0c3-2.9,5.92-5.95,9.73-7.53,4.93-2.06,10.54-1.33,15.76-.23a131.49,131.49,0,0,1,18,5,9.57,9.57,0,0,1,4.68,2.83c1.11,1.49,1.09,4-.5,4.9-1.11.66-2.53.36-3.79,0l-23.56-5.9a35.46,35.46,0,0,0-5.47-1.06c-6.87-.59-13.27,2.78-19.18,6.55-.87.55-1.74,1.13-2.6,1.7"/>
            <path class="cls-18" d="M213.83,152.6a26.77,26.77,0,0,1,26.06-12,13.88,13.88,0,0,1,4.34,1.25,15.89,15.89,0,0,1,3.46,2.44,45.46,45.46,0,0,1,4.56,4.54,34.12,34.12,0,0,1,2.56,3.14c.15.18.27.34.4.52"/>
            <path class="cls-18" d="M260.28,151.83c-.91,2.47-4.19,3.19-6.72,2.38a.73.73,0,0,1-.2-.05,15,15,0,0,1-3.8-2.17c-1-.7-1.94-1.46-3-2.1l-.07,0a19,19,0,0,0-9.22-3c-.5,0-1,0-1.54,0h-.42a12.07,12.07,0,0,0-3.26.58c-.27.09-.54.2-.81.32a20.45,20.45,0,0,0-2.58,1.35l-6.38,3.71a27.36,27.36,0,0,0-5.87,4.16,2.9,2.9,0,0,0-1,1.86,2.21,2.21,0,0,0,1.92,1.94,7.82,7.82,0,0,0,2.92-.2c4.73-.71,9.51.56,14.26,1a25.46,25.46,0,0,0,5.38,0c4.41-.5,10.56-4.11,13.63-7.48.09-.11.18-.2.27-.3"/>
            <path class="cls-18" d="M230.69,149a4.67,4.67,0,0,0-1.52,1c-2.51,2.53-.54,7.51,2.45,9.41a6.63,6.63,0,0,0,3,1,6.92,6.92,0,0,0,6.32-3.07c1.83-3.05.1-7.77-3.16-9.2C237.83,148.08,233.51,147.81,230.69,149Z"/>
            <path class="cls-18" d="M232,153.19c-.22.29.37.56.55.3.06,0,.06,0,.08-.07a.63.63,0,0,0-.35-.72.51.51,0,0,0-.23-.12"/>
            <path class="cls-18" d="M232.5,153.49a2.66,2.66,0,0,0,1,.69c1.24.5,2.6-1.33,1.9-2.48a1.75,1.75,0,0,0-3.06.56,1.3,1.3,0,0,0-.15.44A1.14,1.14,0,0,0,232.5,153.49Z"/>
            <path class="cls-18" d="M227.63,170.28a35.41,35.41,0,0,0,12.55,2.44c4.29-.11,8.68-1.6,11.57-4.77"/>
            <path class="cls-18" d="M221.56,152.53a5.11,5.11,0,0,0,2.6-5.49"/>
            <path class="cls-18" d="M225.17,150.61a4.85,4.85,0,0,0,3.26-4.56"/>
            <path class="cls-18" d="M230.39,148.36a5.18,5.18,0,0,0,.89-.57,6.31,6.31,0,0,0,2.34-4"/>
            <path class="cls-18" d="M235.25,146.73a3.39,3.39,0,0,0,.52.15,3.48,3.48,0,0,0,1.54,0,4.31,4.31,0,0,0,3.43-3.12"/>
            <path class="cls-18" d="M241.13,147.34a4.62,4.62,0,0,0,5.54-1.59"/>
            <path class="cls-18" d="M246.28,149.75l.32.14a5.33,5.33,0,0,0,5.65-1.06,3.52,3.52,0,0,0,.52-.56"/>
            <path class="cls-18" d="M249.56,152a8.14,8.14,0,0,0,5.25,0,7.91,7.91,0,0,0,2.91-1.67"/>
            <path class="cls-18" d="M149.66,145.39a17.75,17.75,0,0,1,2.62.36,23.13,23.13,0,0,1,4.52,1.38,23.8,23.8,0,0,1,10.08,8,3.21,3.21,0,0,1,.82,2.53,2.5,2.5,0,0,1-2.7,1.56,14.43,14.43,0,0,1-3.23-1c-3.48-1.17-7.18-.29-10.87.43-1.18.25-2.37.46-3.55.61a24.14,24.14,0,0,1-18.06-5.47l-.32-1.06"/>
            <path class="cls-18" d="M122,152.22c1.88,1.56,4.74,1.42,7,.47a21.44,21.44,0,0,0,3.76-2.19c.83-.56,1.65-1.15,2.49-1.67.58-.36,1.17-.68,1.78-1a20.52,20.52,0,0,1,3.19-1.3,19.36,19.36,0,0,1,3.64-.9,21.58,21.58,0,0,1,3.84-.34,3.1,3.1,0,0,1,.43,0c.49,0,1,0,1.42.05"/>
            <path class="cls-18" d="M126.87,149a8.53,8.53,0,0,1,1-1.27,15,15,0,0,1,3.74-3.23,23.63,23.63,0,0,1,5.35-2.46,39.93,39.93,0,0,1,4.16-1.13c.79-.18,1.58-.32,2.35-.46s1.68-.29,2.53-.38a22.91,22.91,0,0,1,6.51-.07c7.85,1.18,13.7,7.78,18.09,14.4"/>
            <path class="cls-18" d="M137,169.73a30.11,30.11,0,0,0,22.19-3.34"/>
            <path class="cls-18" d="M149.66,145.39a6.56,6.56,0,0,1,2.44.8,7,7,0,0,1,3.05,5.56,6,6,0,0,1-2.85,5.51,5.39,5.39,0,0,1-1.56.59,10,10,0,0,1-4.5-.2,9.57,9.57,0,0,1-4.7-2.4,4.74,4.74,0,0,1-1.22-4.91c.23-.59,3.23-3.5,2.67-3.86a14.86,14.86,0,0,1,5.11-1.16,6.18,6.18,0,0,1,1.42.05A.39.39,0,0,1,149.66,145.39Z"/>
            <path class="cls-18" d="M146,151.59a.54.54,0,0,1,0-.19"/>
            <path class="cls-18" d="M146,151.4c.19.87.68,1.57,1.52,1.23a1.49,1.49,0,0,0,.34-2.47,1.31,1.31,0,0,0-1.88,1.09"/>
            <path class="cls-18" d="M146,151.4v0a.25.25,0,0,1,0-.13"/>
            <path class="cls-18" d="M145.93,151.07c0,.06,0,.13,0,.18"/>
            <path class="cls-18" d="M129.45,152.4a7.77,7.77,0,0,1-4.74-3.78"/>
            <path class="cls-18" d="M132.43,150.05a5,5,0,0,1-4.59-2.31,4.64,4.64,0,0,1-.81-2.66"/>
            <path class="cls-18" d="M136.68,147.16h0a5,5,0,0,1-5.08-2.65,4.42,4.42,0,0,1-.59-2.35"/>
            <path class="cls-18" d="M140.17,146.45a11.84,11.84,0,0,1-3.24-4.4,10.93,10.93,0,0,1-.56-1.54"/>
            <path class="cls-18" d="M144.1,145.8l-.27-.16a3.67,3.67,0,0,1-1.54-2.28,3.57,3.57,0,0,1-.07-.56"/>
            <path class="cls-18" d="M147.67,145.12a7,7,0,0,1-1.56-4"/>
            <path class="cls-18" d="M141.84,143.47a3.17,3.17,0,0,1-.63-2"/>
            <path class="cls-18" d="M151,145.42a3.63,3.63,0,0,1-1.27-2.94"/>
            <path class="cls-18" d="M155.19,146.07a3,3,0,0,1-1.31-2.62"/>
            <path class="cls-18" d="M156.76,147.36c0-.07,0-.16,0-.23.09-.81.2-1.58.29-2.39"/>
            <path class="cls-18" d="M159.76,148v-.33"/>
            <path class="cls-18" d="M116.34,140.89a9,9,0,0,0,5.4-.78,4.46,4.46,0,0,0,2.37-4.8"/>
            <path class="cls-18" d="M121.31,130.12a5.31,5.31,0,0,0-2.73-3.28,5.68,5.68,0,0,0-2.42-.62,6.56,6.56,0,0,0-5.72,3.3,6.14,6.14,0,0,0-.45.93,8.53,8.53,0,0,0-.14,5.77,6.86,6.86,0,0,0,2.1,3.2,6.62,6.62,0,0,0,2.27,1.09c.22.05.43.11.65.14a.56.56,0,0,0,.23.06c.32.07.65.12,1,.16h0l.21,0"/>
            <path class="cls-18" d="M116.11,140.62a1,1,0,0,0-.92-.15.78.78,0,0,0-.32.18.69.69,0,0,0-.18.31.54.54,0,0,0,.18.52c.25.27.73.36.91,0"/>
            <path class="cls-18" d="M115.51,139.9a1.33,1.33,0,0,0-.18.3,1.16,1.16,0,0,0-.14.27.44.44,0,0,0-.09.24,2.36,2.36,0,0,0-.23.77,3,3,0,0,0,0,1,3.51,3.51,0,0,0,.34,1.13,4.29,4.29,0,0,0,.48-.47,2.82,2.82,0,0,0,.67-.88,1.65,1.65,0,0,0,0-1.41h0a1,1,0,0,0-.2-.26h0"/>
            <path class="cls-18" d="M204.38,149.32a5.92,5.92,0,0,0-2.89,5.3,17.72,17.72,0,0,0,1.42,6.16c1.72,4.69,3.46,9.47,6.22,13.64"/>
            <path class="cls-18" d="M168.15,206A8.09,8.09,0,0,0,172,213.4a1.19,1.19,0,0,0,.77.21c.34-.07.54-.41.76-.68,1.68-2.17,5.18-1.31,7.38.32s4.18,3.93,6.91,4.24c3.08.34,5.74-2,8.43-3.52a37,37,0,0,1,4.88-2.13,3.71,3.71,0,0,1,2.83-.27c.9.41,1.11,2,.16,2.26a9.6,9.6,0,0,0,8.81-14.44,5.49,5.49,0,0,0-3.53-2.82,3,3,0,0,0-3.48,2.28"/>
            <path class="cls-18" d="M153.21,240.23l.68.34a33.55,33.55,0,0,0,15,3.67c4.61,0,9.29-.86,13.78.18,2.11.49,4.18,1.4,6.35,1.22,3.35-.28,6-3.14,9.32-3.64s6.55,1.46,9.92,1.71c5.49.39,10.17-3.68,15.35-5.55a14.53,14.53,0,0,1,1.42-.44,13,13,0,0,1,2.4-.43"/>
            <path class="cls-18" d="M225,237.39a150.9,150.9,0,0,1-20.81-5.77c-2.36-.84-4.87-1.76-7.31-1.13-3.14.81-5.69,4.09-8.88,3.53-1.45-.25-2.64-1.25-4-1.77a11.09,11.09,0,0,0-5.61-.18,66.64,66.64,0,0,0-13.46,3.57c-4.32,1.65-8.78,3.8-13.32,2.94.18.21.36.43.56.64a8.06,8.06,0,0,0,1.73,1.35,2.79,2.79,0,0,0,.33.19"/>
            <path class="cls-18" d="M151.22,240.21c2.28,3.41,4.59,6.87,7.77,9.43s6.76,4,10.42,5.38c6.69,2.59,13.61,5,20.79,5.24a35.77,35.77,0,0,0,33.48-22"/>
            <path class="cls-19" d="M189.71,266.16a2,2,0,0,0-.38,2.21,2.7,2.7,0,0,0,3.95,1.07,2.55,2.55,0,0,0-.16-4,2.49,2.49,0,0,0-3.23.84"/>
            <path class="cls-18" d="M148.16,220c-1.42,1.82-2.82,3.63-4.24,5.44-1.75,2.28-3.57,4.64-4.14,7.46s.5,6.19,3.14,7.3"/>
            <path class="cls-18" d="M230.94,218.53c1.33,2.6,3.3,4.8,4.92,7.22s2.9,5.26,2.6,8.16c-.36,3.36-2.75,6.1-5,8.59"/>
            <path class="cls-18" d="M263,91.51v0c6.8,8.73,9.36,20,10.29,31s.42,22.15,1.94,33.1c.66,4.85,1.72,9.65,2.58,14.46a76.9,76.9,0,0,1,1.31,11.28c.06,1.06.06,2.1,0,3.16-.41,11.67-5.42,22.6-9.15,33.64C264.7,234,261.61,251,251.8,264.37a93,93,0,0,1-12.07,12.95c-.93.86-1.85,1.72-2.78,2.56-8,7.3-16.28,14.8-26.54,18.26a53.66,53.66,0,0,1-15.89,2.53c-2.62.09-5.24,0-7.86-.06a65.93,65.93,0,0,1-15.85-2.06,50.79,50.79,0,0,1-14.49-7.08,146.63,146.63,0,0,1-13.9-11.1c-4.54-3.95-9.11-7.91-12.79-12.67a54.71,54.71,0,0,1-7.32-12.91,132.07,132.07,0,0,1-6.24-21c-2.8-12.07-5.27-24.3-5.72-36.68-.49-13.45,1.42-26.86,3.32-40.19.64-4.56,1.31-9.15,2-13.74l.38-2.31a1.09,1.09,0,0,1,0-.24h0c0-.11,0-.2,0-.31q.44-2.72.91-5.43c.06-.34.13-.7.18-1,.34-1.92.7-3.82,1.08-5.74.09-.41.18-.83.25-1.26,3.16-15.56,7.7-30.76,15.57-44.42l1.07-1.83"/>
            <path class="cls-18" d="M220.22,30.51a20.61,20.61,0,0,1-3.3,4.78h0c-7,7.56-19.15,9.91-29.59,13-20.5,6-38.72,18.29-53.16,34.15a134.74,134.74,0,0,0-17.22,23.76,151.76,151.76,0,0,0-10.62,23c-7.73,21.23-11,44.17-10.65,66.84.34,24.21,4.59,48.17,6.37,72.31a358.26,358.26,0,0,1,.79,37.36"/>
            <path class="cls-18" d="M102.78,185.56c-.07,28.95,8.56,57.11,14.22,85.5a421.3,421.3,0,0,1,6.84,49.64A427.67,427.67,0,0,1,125,364c-.58,21.9-3,44.35-12.29,64.1-.36.79-.73,1.59-1.15,2.38s-.66,1.33-1,2"/>
            <path class="cls-18" d="M214.84,24.2A23.72,23.72,0,0,0,210,13.42C202.53,4,188.44-.57,176.12,1.48,159.71,4.17,146,15.14,133.4,25.92c-25.47,21.69-51,45.11-64.55,75.67C52.2,139,55.54,182,47.07,222c-4.69,22.22-13.07,43.75-15,66.4-1,12.37-.07,24.82,0,37.23a263.8,263.8,0,0,1-17.7,96.44c-7,18.22-16.34,37.19-12.5,56.37h0"/>
            <path class="cls-18" d="M211.29,12.83c22,1.53,41.8,15.37,55.33,32.84s21.77,38.38,29.43,59.11c7.89,21.31,15.4,42.9,18.92,65.36,3.44,21.9,3,44.22,1.76,66.36-.72,12.41-1.71,24.87-.6,37.25,1.37,14.94,5.72,29.41,9.19,44a362.21,362.21,0,0,1-1.3,171c-.41,1.69-.86,3.39-1.3,5.08"/>
            <path class="cls-18" d="M240.36,278c-8.27,22-9.92,45.81-11.48,69.23q-1.4,20.93-2.78,41.89c-.2,2.93-.39,5.87-.59,8.81-.7,10.35-1.38,20.73-1.11,31.1a169.26,169.26,0,0,0,11.33,56.69c.06.14.09.27.16.4.94,2.45,2,4.87,3,7.28s2.32,5.05,3.57,7.53"/>
            <path class="cls-18" d="M282.52,161.21a13.14,13.14,0,0,1,1-4,3.54,3.54,0,0,1,.43-.75,3.69,3.69,0,0,1,4.32-1.58c2,.93,2.1,3.71,1.74,5.9a49.3,49.3,0,0,1-8.43,20.54"/>
            <path class="cls-18" d="M78.75,139.4a293.24,293.24,0,0,0-8,33.7"/>
            <path class="cls-18" d="M78,163.59A248.29,248.29,0,0,1,62.8,242.7"/>
            <path class="cls-18" d="M83.7,206.28q-6,36-11.91,71.92c-1.31,8-2.64,15.94-3.28,24-.72,8.63-.65,17.32-1,26A266.65,266.65,0,0,1,36.3,442.55"/>
            <path class="cls-18" d="M90,393.57a309.24,309.24,0,0,0,10.17-47.64"/>
            <path class="cls-18" d="M79.27,474.38a201.24,201.24,0,0,0-9.31,30c-.16.65-.31,1.29-.45,1.94"/>
            <path class="cls-17" d="M79.27,474.37s0,0,0,0"/>
            <path class="cls-18" d="M112.18,324.63c1.86,38.88-.92,78.91-16.57,114.57-3.55,8.07-7.73,15.85-11.45,23.83-.23.49-.46,1-.68,1.44q-2.24,4.89-4.21,9.9"/>
            <path class="cls-18" d="M240.07,320.18a128.07,128.07,0,0,1,25.74-54.61"/>
            <path class="cls-18" d="M217.67,35.46a43.93,43.93,0,0,0,13.79,28.77c7.48,6.93,17.13,11,25.63,16.59A57.77,57.77,0,0,1,263.91,86c16.78,15,20.12,39.74,20,62.23"/>
            <path class="cls-18" d="M292.55,135c7.71,11.33,7.5,26.4,4,39.65s-10,25.52-14,38.62a112,112,0,0,0-4.31,45.59"/>
            <path class="cls-18" d="M298.77,242.7c-8,28-1.58,58.08-4.8,87-4.34,39.17-26.17,75.6-25.56,115"/>
            <path class="cls-18" d="M303.63,479c-5.29-16.3-3.58-34.06,0-50.81s9.15-33.12,11.41-50.11a133.77,133.77,0,0,0-2.59-48.87"/>
            <path class="cls-18" d="M38.3,588.34A79.86,79.86,0,0,1,35.52,550c1.17,12.91,8.18,24.75,17.24,34s20.11,16.31,31.12,23.14a89.85,89.85,0,0,1-25.67-68.19,11.2,11.2,0,0,0,7.62,8.7A60.74,60.74,0,0,1,62,517.86l7.39,10.92q.3-12.21.61-24.41l.16-6.29"/>
            <path class="cls-18" d="M38.3,588.34c1.76,4.13,3.5,8.27,5.26,12.4A76.91,76.91,0,0,1,38.3,588.34Z"/>
            <path class="cls-18" d="M2.44,478c0,.15,0,.27,0,.42a125.25,125.25,0,0,0,3.16,26.09c3.3,14.33,9.06,27.94,14.78,41.47L38.3,588.34"/>
            <path class="cls-18" d="M239.73,494.85a39.76,39.76,0,0,1,2.76,6.06s0,0,0,.09c3.51,9.67,3.62,20.55,1.67,30.74a96.14,96.14,0,0,1-2.39,9.49c-2.72,8.93-6.6,17.56-10.45,26.11a71.69,71.69,0,0,0,12-12.52v0a70.51,70.51,0,0,0,9.38-16.53,204,204,0,0,1-5.65,41.36,206,206,0,0,1-6.67,22.06,203.81,203.81,0,0,1-14.91,31.94A218.56,218.56,0,0,0,277,561c.61,10.6,1.22,21.4-1.36,31.69q11.67-21,23.37-42c9.63-17.31,19.51-35.4,20.51-55.19l2.21,15.34A83.21,83.21,0,0,0,324,488.71c0-1.86-.17-3.73-.35-5.57"/>
            <path class="cls-18" d="M111,430.17c-3.6,6-7.37,11.81-11.26,17.58,0,.65.07,1.27.11,1.92-2,.41-2.39,3-2.76,5a40.07,40.07,0,0,1-1.83,5.79c-4.22,11.8-4.61,24.55-5,37.09q-3.63-17.06-5.79-34.36"/>
            <path class="cls-18" d="M256,82.47c2.06,3.19,4.13,6.4,6.21,9.6.66,1,1.32,2.06,2,3.1"/>
            <path class="cls-18" d="M283.49,157.6l.06-.36a30.5,30.5,0,0,0,.05-9c-.09-.72-.22-1.44-.36-2.15"/>
            <path class="cls-18" d="M277.9,170.1a42.54,42.54,0,0,1,4.73-8.82c.52-.77,1.08-1.51,1.65-2.24"/>
            <path class="cls-18" d="M121.29,255.08a138.05,138.05,0,0,1,4.07,65.5"/>
            <path class="cls-20" d="M120,129.5c.44-.56-.49-1.2-1.21-1.31l-.48-.09-1.29-.22a6.05,6.05,0,0,0-2.87,0,2,2,0,0,0-1.45,2.19l-.7,0c-1,2-1.6,4.4-.9,6.53a5.62,5.62,0,0,0,3.43,3.39,3.66,3.66,0,0,0,.78.23,3.77,3.77,0,0,0,.83.11,5,5,0,0,0,1.54-.14,5.68,5.68,0,0,0,4-6.31"/>
            <path class="cls-20" d="M114.67,139.77c0,.08-.09.13-.12.2l-.33.54A1.85,1.85,0,0,0,114,142a1,1,0,0,0,.83.5c.45,0,.9-.22.79-.67"/>
            <path class="cls-20" d="M191.06,267.18l-.33,1"/>
          </g>
        </g>
      </g>
    </g>
  </g>
</svg>
