<?xml version="1.0" encoding="utf-8"?>
<!-- Generator: Adobe Illustrator 24.0.0, SVG Export Plug-In . SVG Version: 6.00 Build 0)  -->
<svg version="1.1" id="Layer_1" xmlns="http://www.w3.org/2000/svg" xmlns:xlink="http://www.w3.org/1999/xlink" x="0px" y="0px"
	 viewBox="0 0 595.3 841.9" style="enable-background:new 0 0 595.3 841.9;" xml:space="preserve">
<style type="text/css">
	.st0{fill:#281C20;}
	.st1{fill:#342423;}
	.st2{fill:#D4A79B;}
	.st3{fill:#673434;}
	.st4{fill:#010101;}
	.st5{fill:#493735;}
	.st6{fill:#CCCCC6;}
	.st7{fill:#CCAEA5;}
	.st8{fill:#1B3665;}
	.st9{fill:#676734;}
	.st10{fill:#0F1131;}
	.st11{fill:#AB5A69;}
	.st12{fill:#939785;}
	.st13{fill:#FFFFFF;}
	.st14{fill:#995B61;}
	.st15{fill:#4E5A6C;}
	.st16{fill:none;stroke:#010101;stroke-width:4;stroke-miterlimit:10;}
	.st17{fill:none;stroke:#010101;stroke-width:2;stroke-miterlimit:10;}
	.st18{fill:none;stroke:#010101;stroke-miterlimit:10;}
	.st19{fill:none;stroke:#FFFFFF;stroke-miterlimit:10;}
</style>
<g>
	<g id="face2">
		<g id="XMLID_7_">
			<g>
				<path class="st0" d="M453.7,540.5c0.2,7.4-0.5,14.9-2.3,22.1c-0.7-5.1-1.5-10.2-2.2-15.3c-1,19.8-10.9,37.9-20.5,55.2
					c-7.8,14-15.6,28-23.4,42c2.6-10.3,2-21.1,1.4-31.7c-11.9,27.4-29.6,52.3-51.5,72.6c5.9-10.2,10.9-20.9,14.9-31.9
					c1-1,1.8-2.1,2.5-3.2c3.6-5.6,4.5-12.1,4.1-18.8c3.3-13.5,5.2-27.4,5.6-41.4c-2.4,5.9-5.5,11.5-9.4,16.5
					c-0.7-4.5-1.2-9-1.6-13.6c1-3.1,1.8-6.3,2.4-9.5c2-10.2,1.8-21.1-1.7-30.7c0,0,0-0.1,0-0.1c-1.3-2.5-2.5-5-3.6-7.5
					c-0.7-2.7-1.7-5.3-3-7.8c-0.1,0.1-0.1,0.1-0.1,0.1c-7-18.1-10.9-37.3-11.3-56.7c-0.3-10.4,0.4-20.8,1.1-31.1
					c0.2-2.9,0.4-5.9,0.6-8.8c0.9-14,1.8-27.9,2.8-41.9c1.6-23.4,3.2-47.3,11.5-69.2l-0.6-0.7c4.3-4,8.6-8.2,12.1-12.9
					c9.8-13.4,12.9-30.4,18.2-46.2c3.7-11,8.7-22,9.1-33.6c0-1.1,0-2.1,0-3.2h0l2.4-0.1h0c4.3-6.1,7.2-13.2,8.4-20.5
					c0.4-2.2,0.3-5-1.7-5.9c-1.5-0.7-3.4,0.2-4.3,1.6c-0.2,0.2-0.3,0.5-0.4,0.8c0.5-3,0.5-6,0.1-9h0l0.3,0
					c0.1-22.5-3.2-47.3-20-62.2c-2.1-1.9-4.4-3.6-6.8-5.1c-8.5-5.6-18.2-9.7-25.6-16.6c-8-7.4-13-17.9-13.8-28.8l-0.8-0.2
					c1.3-1.4,2.4-3,3.3-4.8l-5.4-6.3c-0.7-4.1-2.4-7.7-4.9-10.8l1.3-0.6c22,1.5,41.8,15.4,55.3,32.8c13.5,17.5,21.8,38.4,29.4,59.1
					c7.9,21.3,15.4,42.9,18.9,65.4c3.4,21.9,3,44.2,1.8,66.4c-0.7,12.4-1.7,24.9-0.6,37.3c1.4,14.9,5.7,29.4,9.2,44
					C468.2,425.6,467.8,484.7,453.7,540.5z"/>
				<path class="st1" d="M413.2,209.1c0.1-0.3,0.3-0.5,0.4-0.8c0.9-1.4,2.8-2.3,4.3-1.6c2,0.9,2.1,3.7,1.7,5.9
					c-1.2,7.4-4.1,14.5-8.4,20.5h0l-2.4,0.1h0c-0.1-3.8-0.6-7.5-1.3-11.3l0.1,0c1.2-3.1,2.8-6.1,4.7-8.8l-0.1-0.1h0
					C412.4,211.7,412.6,210.3,413.2,209.1z"/>
				<path class="st0" d="M413.3,200.1c0.4,3,0.4,6-0.1,9c-0.6,1.2-0.8,2.6-1,4h0l0.1,0.1c-1.9,2.7-3.5,5.7-4.7,8.8l-0.1,0
					c-0.9-4.8-1.9-9.6-2.6-14.5c-1.5-11-1-22.1-1.9-33.1c-0.9-11-3.5-22.3-10.3-31l-0.8,0.5c-2.1-3.2-4.1-6.4-6.2-9.6l1.1-1.7
					c2.4,1.6,4.7,3.2,6.8,5.1c16.8,15,20.1,39.7,20,62.2L413.3,200.1L413.3,200.1z"/>
				<path class="st2" d="M275.7,191.9c-0.8,0.1-1.7,0.2-2.5,0.4c-0.8,0.1-1.6,0.3-2.3,0.5c-1.4,0.3-2.8,0.7-4.2,1.1
					c-1.9,0.6-3.7,1.4-5.3,2.5c-1.4,0.9-2.7,1.9-3.7,3.2c1,1.5,2.8,2.5,4.6,2.3l0.3,0.4c-1.2,0.8-2.4,1.6-3.8,2.2l0.3,1.1
					c4.9,4.2,11.6,6.2,18.1,5.5c1.2-0.1,2.4-0.4,3.6-0.6c3.7-0.7,7.4-1.6,10.9-0.4c1.1,0.4,2.1,0.9,3.2,1c1.1,0.1,2.4-0.5,2.7-1.6
					c0.2-0.9-0.3-1.8-0.8-2.5c-2.5-3.5-6.1-6.3-10.1-8c-1.5-0.6-3-1.1-4.5-1.4c-0.9-0.2-1.7-0.3-2.6-0.4c-0.1,0-0.1,0-0.1,0
					c-0.5-0.1-1-0.1-1.4-0.1c-0.1,0-0.3,0-0.4,0v-0.2c-0.9-1.1-1.5-2.5-1.6-3.9L275.7,191.9z M367,198.7c-0.5,0-1,0-1.5,0
					c-0.1,0-0.3,0-0.4,0c-1.1,0.1-2.2,0.2-3.3,0.6c-0.3,0.1-0.5,0.2-0.8,0.3c-0.9,0.4-1.7,0.9-2.6,1.3c-2.1,1.2-4.3,2.5-6.4,3.7
					c-2.1,1.2-4.2,2.4-5.9,4.2c-0.5,0.5-1,1.1-1,1.9c0,1,1,1.8,1.9,1.9c1,0.2,2,0,2.9-0.2c4.7-0.7,9.5,0.6,14.3,1
					c1.8,0.2,3.6,0.2,5.4,0c4.4-0.5,10.6-4.1,13.6-7.5c-0.1,0-0.1,0-0.2-0.1c-1.4-0.5-2.6-1.3-3.8-2.2c1.7,0.6,3.6,0.6,5.3,0
					c-0.8-1.1-1.6-2.1-2.6-3.1c-1.5,1.4-3.8,1.9-5.6,1.1c0,0-0.1,0-0.1-0.1C373.5,199.9,370.3,198.9,367,198.7z M324.2,352.5
					c-2.6,0.1-5.2,0-7.9-0.1c-5.3-0.2-10.7-0.6-15.9-2.1c-5.2-1.5-10-4-14.5-7.1c-4.9-3.3-9.5-7.2-13.9-11.1
					c-4.5-3.9-9.1-7.9-12.8-12.7c-3.1-3.9-5.4-8.3-7.3-12.9c-2.8-6.7-4.6-13.9-6.2-21c-2.8-12.1-5.3-24.3-5.7-36.7
					c-0.5-13.5,1.4-26.9,3.3-40.2c0.6-4.6,1.3-9.1,2-13.7c0.3-0.3,0.5-0.5,0.7-0.9c0.2-0.4,0.2-1,0-1.4h0c-0.1-0.1-0.1-0.2-0.2-0.3
					h0v0c0-0.1,0-0.2,0.1-0.3c0.3-1.8,0.6-3.6,0.9-5.4c5.9-3.8,12.3-7.1,19.2-6.5c1.8,0.2,3.7,0.6,5.5,1.1c7.9,2,15.7,3.9,23.6,5.9
					c1.3,0.3,2.7,0.6,3.8-0.1c1.6-0.9,1.6-3.4,0.5-4.9c-1.1-1.5-2.9-2.2-4.7-2.8c-5.9-2.1-11.9-3.8-18-5c-5.2-1.1-10.8-1.8-15.8,0.2
					c-3.8,1.6-6.7,4.6-9.7,7.5h0l-0.1-0.1c-0.4-1.4-1.4-2.6-2.7-3.3c3.2-15.6,7.7-30.8,15.6-44.4c14.4-15.9,32.7-28.1,53.2-34.1
					c10.4-3.1,22.6-5.4,29.6-13h0l0.8,0.2c0.8,10.9,5.8,21.4,13.8,28.8c7.5,6.9,17.1,11,25.6,16.6l-1.1,1.7c2.1,3.2,4.1,6.4,6.2,9.6
					l0.8-0.5c6.8,8.7,9.4,20,10.3,31c0.9,11,0.4,22.1,1.9,33.1c0.7,4.8,1.7,9.6,2.6,14.5c0.7,3.7,1.2,7.5,1.3,11.3
					c0.1,1.1,0.1,2.1,0,3.2c-0.4,11.7-5.4,22.6-9.1,33.6c-5.3,15.7-8.4,32.7-18.2,46.2c-3.5,4.8-7.7,8.9-12.1,12.9
					c-0.9,0.9-1.8,1.7-2.8,2.6c-8,7.3-16.3,14.8-26.5,18.3C335,351.7,329.6,352.3,324.2,352.5z M354.7,289.5l-0.1-0.3
					c-7.1-1.4-14-3.4-20.8-5.8c-2.4-0.8-4.9-1.8-7.3-1.1c-3.1,0.8-5.7,4.1-8.9,3.5c-1.5-0.3-2.6-1.3-4-1.8c-1.8-0.7-3.7-0.5-5.6-0.2
					c-4.6,0.7-9.1,1.9-13.5,3.6c-4.3,1.7-8.8,3.8-13.3,2.9c0.2,0.2,0.4,0.4,0.6,0.6l-0.9,1c2.3,3.4,4.6,6.9,7.8,9.4
					c3,2.5,6.8,4,10.4,5.4c6.7,2.6,13.6,5,20.8,5.2c14.2,0.4,28.2-8.8,33.5-22l0-0.1C353.8,289.8,354.3,289.7,354.7,289.5z
					 M343.3,183.6L343.3,183.6c-0.5,0.8-0.3,2.2,0.6,2.9c1.2,0.8,2.8,0.6,4.2,0.3c5.8-1.2,11.5-2.7,17.1-4.6c2.7-0.9,5.4-2,8.2-2.5
					c9.6-1.8,20.1,2.9,25.1,11.3c-1-4.5-4.4-8-7.7-11.1c-2.2-2.1-4.6-4.2-7.5-5.3c-4.8-1.8-10.2-0.7-15.2,0.5
					c-5,1.2-9.9,2.3-14.9,3.5C349.5,179.4,345.3,180.7,343.3,183.6z M323,321.3c1.3-1,1.2-3.2-0.2-4c-1.1-0.6-2.6-0.2-3.2,0.8h0
					l-0.2-0.1c-0.6,0.5-0.7,1.5-0.4,2.2C319.6,321.6,321.7,322.2,323,321.3z"/>
				<path class="st3" d="M323.9,765.5c0,0-0.1-0.1-0.1-0.1c-2.7-5.8-0.1-12.8-1.9-19c-1.5-5.3-6-11.5-2.2-15.5
					c1.1-1.1,2.2-2.2,3.2-3.3l1.3-0.7c0.7,1.4,1.7,2.6,3,3.7c4.2,3.4,10.2,2.9,15.5,2.3c3-0.3,5.9-0.7,8.9-1
					c1.9-0.2,3.8-0.4,5.6-0.6c3.4,1.6,2.7,8.5,6.5,8.6l5.7,5.8c1.5-1.4,3.4-2.3,5.4-2.7c0.2,0.5,0.5,1,0.8,1.5
					c0.8-0.6,1.6-1.1,2.5-1.5c7-3.6,16.3-2.8,22.4,2.3c6.9,5.7,9.1,16.3,5.1,24.4c-0.4,0.8-0.8,1.5-1.3,2.2
					c-4.4,6.8-12.8,10.6-21,11.4c-8.4,0.8-16.9-1-25.1-3c-1.6-0.7-3.2-1.4-4.8-1.8c-1.8-0.5-3.7-0.7-5.6-0.7
					c-2.2-0.5-4.4-1.1-6.6-1.6C334.5,774.2,326.8,771.8,323.9,765.5z"/>
				<path class="st4" d="M404.4,771.5c-1.8,6.7-5.2,13.1-11.3,16.2c-4.4,2.2-9.6,2.5-14.4,1.4c-4.8-1-9.3-3.2-13.6-5.6
					c-2.2-1.2-4.5-2.5-6.8-3.6c8.2,2,16.7,3.8,25.1,3C391.6,782.2,399.9,778.3,404.4,771.5z"/>
				<path class="st5" d="M343.3,183.6L343.3,183.6c2-2.9,6.2-4.3,9.9-5.1c5-1.2,9.9-2.3,14.9-3.5c5-1.2,10.4-2.3,15.2-0.5
					c2.9,1.1,5.3,3.2,7.5,5.3c3.4,3.1,6.7,6.6,7.7,11.1c-5-8.4-15.5-13.1-25.1-11.3c-2.8,0.5-5.5,1.6-8.2,2.5
					c-5.6,1.9-11.3,3.5-17.1,4.6c-1.4,0.3-3,0.5-4.2-0.3C343,185.8,342.8,184.4,343.3,183.6z"/>
				<path class="st6" d="M379.2,203.8c1.2,0.9,2.4,1.7,3.8,2.2c0.1,0,0.1,0.1,0.2,0.1c-3.1,3.4-9.2,7-13.6,7.5
					c-1.8,0.2-3.6,0.1-5.4,0v0l0.1-1.3v0c2.5,0.2,5-1,6.3-3.1c1.8-3,0.1-7.8-3.2-9.2c0,0-4.3-0.3-7.1,0.9l-0.3-0.6l0,0
					c0.3-0.2,0.6-0.4,0.9-0.6c0.3-0.1,0.5-0.2,0.8-0.3c1.1-0.4,2.2-0.5,3.3-0.6c0.1,0,0.3,0,0.4,0c0.5,0.1,1,0.1,1.5,0
					c3.3,0.2,6.5,1.2,9.2,2.9c0,0,0.1,0,0.1,0.1C377.3,202.4,378.3,203.1,379.2,203.8z"/>
				<path class="st7" d="M381.9,200.6c0.9,1,1.8,2.1,2.6,3.1c-1.7,0.6-3.6,0.6-5.3,0c-1-0.7-1.9-1.5-3-2.1
					C378.1,202.5,380.5,202,381.9,200.6z"/>
				<path class="st0" d="M376.8,631.4c0.3,6.7-0.5,13.2-4.1,18.8c-0.7,1.2-1.6,2.2-2.5,3.2C372.8,646.3,375,638.9,376.8,631.4z"/>
				<path class="st8" d="M355.8,440.9c-0.2,2.9-0.4,5.9-0.6,8.8c-0.7,10.3-1.4,20.7-1.1,31.1c0.5,19.4,4.4,38.6,11.3,56.7
					c-5.1,5.3-12.8,7.8-20.1,6.5c-1.5,0.3-2.2,2-2.2,3.5c0,1.4,0.5,2.7,1.3,3.8l-0.5,0.4c0.6,7.6,1.1,15.3,1.7,22.9
					c0.1,1.8,0.3,3.6,1.3,5.1c1,1.5,3.1,2.3,4.6,1.3c3.6,5.7,14,4.4,16.1-2.1l3.1-0.1c0.1,4.7,0.3,9.4,0.7,14.1
					c-2.7,8.9-6.6,17.6-10.5,26.1c4.5-3.7,8.5-7.9,12-12.5c0.3,2.1,0.7,4.2,1,6.2c1.1,6,2.4,12.4,2.7,18.6c-1.8,7.5-4,14.9-6.7,22.1
					c-4.5,4.8-10.9,7.7-17.5,8.6c-0.3,0.1-0.5,0.1-0.8,0.1c-8.2,0.9-16.5-1-24.2-4c-1.5-0.6-3.1-1.3-4.1-2.5
					c-1.4-1.6-1.8-3.8-2.1-5.9c-2.5-16-6.5-31.7-11.8-47c-7.5-21.5-17.7-41.9-28.4-62c0.6-3.9,1.3-7.9,2.1-11.8
					c6.7-35.2,17.8-69.7,19.9-105.4c0.1-2,0.2-4,0.3-6h0.3c2.7-10.5,5.3-20.9,8-31.4c0.7-2.9,1.2-5.8,2.3-8.6
					c3.1-8.1,1.9-5.2,10.1-25.3c5.4-0.1,10.8-0.8,15.9-2.5c10.3-3.5,18.6-11,26.5-18.3c0.9-0.8,1.8-1.7,2.8-2.6l0.6,0.7
					c-8.3,22-9.9,45.8-11.5,69.2C357.6,413,356.7,427,355.8,440.9z"/>
				<path class="st3" d="M370.8,727.2c4.1,3.6,1.8,10.6,4,15.6c-2,0.4-3.9,1.3-5.4,2.7l-5.7-5.8c-2.9-1.8-4.5-5.6-3.6-8.9
					c3.5-0.6,7-1.7,8.4-4.7C369.3,726.2,370.2,726.6,370.8,727.2z"/>
				<path class="st0" d="M373.1,606.6L373.1,606.6c-3.5,4.7-7.5,8.9-12,12.5c3.9-8.6,7.7-17.2,10.5-26.1
					C371.9,597.6,372.4,602.1,373.1,606.6z"/>
				<path class="st9" d="M362.2,205.3c0.2,0.2,0.5,0.5,1,0.7c1.2,0.5,2.6-1.3,1.9-2.5c-0.7-1.1-2.8-0.8-3.1,0.6c0,0-0.1,0.2-0.1,0.4
					C361.9,204.7,362,205,362.2,205.3z M367.5,199.9c3.3,1.4,5,6.2,3.2,9.2c-1.3,2.1-3.9,3.2-6.3,3.1c-1.1-0.1-2.1-0.4-3-1
					c-3-1.9-5-6.9-2.5-9.4c0.4-0.4,0.9-0.7,1.5-1C363.2,199.6,367.5,199.9,367.5,199.9z"/>
				<path class="st8" d="M367.7,546.4c-1.2-2.1-1.8-0.7-2.1-8.5c0.9,2.5,2,4.9,3,7.3c2.7,9.7,2.1,20.4,2.1,30.6c0,1,0,2.1,0.1,3.1
					l-3.1,0.1c-2.1,6.4-12.4,7.8-16.1,2.1c-1.5,1-3.6,0.2-4.6-1.3c-1-1.5-1.2-3.3-1.3-5.1c-0.6-7.6-1.1-15.3-1.7-22.9l0.5-0.4
					c1.9,2.6,5.6,4.1,9,3.7c4.8-0.6,8.7-4,12.1-7.4L367.7,546.4z"/>
				<path class="st10" d="M291.5,596.4c7.1,22-2.7,45.9-2.4,69c0.3,19.5,7.7,38.9,3.9,58c-0.3,1.2-0.6,2.5-1,3.6
					c-0.5,1.1-1.1,2.2-2.1,2.9c-1.2,1-2.8,1.5-4.4,1.7c-0.1-0.6-0.3-1.1-0.5-1.6c-0.3,0.6-0.5,1.2-0.8,1.7c-0.7,0.1-1.5,0.1-2.2,0.1
					c-0.2,0-0.3,0-0.5,0c-0.6-1-1.2-2-1.8-2.9c-0.7,0.9-1.3,1.8-2,2.8c-5-1.2-10.4-1-15.3,0.4c-1.1,0-2.1,0-3.2,0
					c-3.9,0-8.8-0.5-10.2-4.2c-0.1-0.3-0.2-0.7-0.3-1c-0.3-1.6,0.2-3.3,0.5-5c4.6-19.7,3.3-40.8-3.6-59.8l-0.1-2.8
					c2.5,0,4.9-0.2,7.3-0.5c5.2-0.6,10.8-1.3,15-4.4c7.9-5.9,8-17.5,7.7-27.3c-1-28.8,0.9-57.7,5.6-86.1
					c10.7,20.1,20.9,40.5,28.4,62c5.3,15.3,9.3,31,11.8,47c0.3,2.1,0.7,4.3,2.1,5.9c1.1,1.2,2.6,1.9,4.1,2.5c7.7,3,16,4.9,24.2,4
					c0.3,0,0.5-0.1,0.8-0.1c-2.6,7.7-1.6,16.1,1,23.9c0.6,1.8,1.3,3.6,2,5.3c3.9,9.2,9.3,17.8,12.5,27.3c0.8,2.3,1.4,4.9,0.5,7.2
					c0,0.1-0.1,0.2-0.1,0.3c-2.9-0.7-6.3,0.6-7.8,3.3c-0.3,0.5-0.4,1-0.6,1.5c-0.6,0.1-1.2,0.2-1.8,0.2c-0.3,0-0.7,0.1-1,0.1
					c0,0-0.1,0-0.1-0.1c-1.3-0.6-2.8-0.1-4.2,0.3c-0.5,0.1-0.9,0.3-1.4,0.4c-3,0.3-5.9,0.7-8.9,1c-5.3,0.6-11.3,1.1-15.5-2.3
					c-1.3-1-2.2-2.3-3-3.7c-2.3-4.5-2.1-10.5-2.2-15.9c-0.1-12.2-3.2-24.2-6.2-36.1C309.2,648.2,302.4,621.5,291.5,596.4z"/>
				<path class="st8" d="M367.7,546.4l-2.2,1.3c-3.4,3.4-7.3,6.7-12.1,7.4c-3.4,0.4-7.1-1.1-9-3.7c-0.8-1.1-1.3-2.4-1.3-3.8
					c0-1.5,0.8-3.2,2.2-3.5c7.2,1.2,15-1.3,20.1-6.5c0.1,0.1,0.1,0.3,0.2,0.4C365.9,545.7,366.5,544.3,367.7,546.4z"/>
				<path class="st11" d="M365.5,198.7c0.5,0,1,0,1.5,0C366.5,198.8,366,198.8,365.5,198.7z"/>
				<path class="st0" d="M368.6,545.2c-1.1-2.4-2.1-4.8-3-7.3c0-0.2,0-0.4,0-0.5C366.9,539.9,367.9,542.5,368.6,545.2z"/>
				<path class="st0" d="M365.6,537.9c-0.1-0.1-0.1-0.3-0.2-0.4c0.1,0,0.1-0.1,0.1-0.1C365.6,537.6,365.6,537.7,365.6,537.9z"/>
				<path class="st12" d="M365.1,203.5c0.7,1.1-0.7,3-1.9,2.5c-0.5-0.2-0.8-0.4-1-0.7c0.1,0,0.1,0,0.1-0.1c0.1-0.3-0.1-0.6-0.3-0.7
					c0-0.3,0.1-0.4,0.1-0.4C362.3,202.7,364.4,202.4,365.1,203.5z M364.9,204.5c0-0.5-0.4-0.8-0.9-0.8c-0.5,0-0.9,0.4-0.9,0.8
					s0.4,0.8,0.9,0.8C364.5,205.3,364.9,205,364.9,204.5z"/>
				<path class="st6" d="M364.4,212.2L364.4,212.2l-0.1,1.3v0c-4.8-0.5-9.5-1.8-14.3-1c-1,0.2-2,0.4-2.9,0.2c-1-0.2-1.9-1-1.9-1.9
					c0-0.7,0.5-1.3,1-1.9c1.7-1.7,3.8-2.9,5.9-4.2c2.1-1.2,4.3-2.5,6.4-3.7c0.8-0.5,1.7-1,2.6-1.3c-0.3,0.2-0.6,0.4-0.9,0.6l0,0
					l0.3,0.6c-0.6,0.3-1.1,0.6-1.5,1c-2.5,2.5-0.5,7.5,2.5,9.4C362.2,211.8,363.3,212.1,364.4,212.2z"/>
				<path class="st13" d="M364,203.7c0.5,0,0.9,0.4,0.9,0.8s-0.4,0.8-0.9,0.8c-0.5,0-0.9-0.4-0.9-0.8S363.5,203.7,364,203.7z"/>
				<path class="st11" d="M361.9,204.5c0.3,0.1,0.4,0.4,0.3,0.7c0,0,0,0.1-0.1,0.1C362,205,361.9,204.7,361.9,204.5z"/>
				<path class="st14" d="M354.7,289.2l0.1,0.3c-0.5,0.1-1,0.3-1.4,0.4c-5.2,1.9-9.9,5.9-15.4,5.5c-3.4-0.3-6.6-2.2-9.9-1.7
					c-3.3,0.5-6,3.4-9.3,3.6c-2.2,0.2-4.2-0.7-6.3-1.2c-4.5-1-9.2-0.1-13.8-0.2c-5.2,0-10.4-1.3-15-3.7c-0.6-0.4-1.2-0.8-1.7-1.3
					c-0.2-0.2-0.4-0.4-0.6-0.6c4.5,0.9,9-1.3,13.3-2.9c4.3-1.6,8.9-2.9,13.5-3.6c1.9-0.3,3.8-0.5,5.6,0.2c1.4,0.5,2.5,1.5,4,1.8
					c3.2,0.6,5.7-2.7,8.9-3.5c2.4-0.6,5,0.3,7.3,1.1C340.6,285.9,347.6,287.8,354.7,289.2z"/>
				<path class="st11" d="M283.6,292.4c4.6,2.4,9.8,3.6,15,3.7c4.6,0,9.3-0.9,13.8,0.2c2.1,0.5,4.2,1.4,6.3,1.2
					c3.4-0.3,6-3.1,9.3-3.6c3.3-0.5,6.5,1.5,9.9,1.7c5.5,0.4,10.2-3.7,15.4-5.5l0,0.1c-5.2,13.2-19.3,22.4-33.5,22
					c-7.2-0.2-14.1-2.7-20.8-5.2c-3.7-1.4-7.4-2.9-10.4-5.4c-3.2-2.6-5.5-6-7.8-9.4l0.9-1C282.4,291.6,282.9,292,283.6,292.4z"/>
				<path class="st0" d="M213.8,514.8c-0.2,0.5-0.5,1-0.7,1.4c-1.5,3.3-2.9,6.6-4.2,9.9c0,0,0,0,0,0c-3.9,9.7-7,19.8-9.3,30
					c-0.2,8.1-0.4,16.3-0.6,24.4c-2.5-3.6-4.9-7.3-7.4-10.9c-1.2,10,0.1,20.4,3.9,29.8c-3.9-1.2-7-4.7-7.6-8.7
					c-1.6,25,8,50.5,25.7,68.2c-11-6.8-22.1-13.9-31.1-23.1c-9.1-9.3-16.1-21.1-17.2-34c-2.2,12.8-1.2,26.1,2.8,38.4
					c-6-14.1-11.9-28.2-17.9-42.3c-5.7-13.5-11.5-27.1-14.8-41.5c-2-8.6-3-17.3-3.2-26.1h0h-0.5c-3.8-19.2,5.5-38.1,12.5-56.4
					c11.9-30.7,17.9-63.6,17.7-96.4c-0.1-12.4-1-24.9,0-37.2c1.9-22.7,10.3-44.2,15-66.4c8.5-40.1,5.1-83,21.8-120.4
					c13.6-30.6,39.1-54,64.5-75.7C275.7,67,289.4,56,305.8,53.3c12.3-2,26.4,2.6,33.8,11.9c2.5,3.1,4.2,6.7,4.9,10.8l5.4,6.3
					c-0.9,1.8-2,3.4-3.3,4.8h0c-7,7.6-19.2,9.9-29.6,13c-20.5,6-38.7,18.3-53.2,34.1c-6.6,7.3-12.4,15.3-17.2,23.8
					c-4.2,7.4-7.7,15-10.6,23l3.7,1.3h0c-0.7,1.8-0.8,3.9-0.1,5.8c0.4,1.2,1.1,2.4,2.1,3.2c0.7,0.5,1.5,0.9,2.3,1.1
					c-0.3,0.5-0.4,1-0.2,1.5c0.1,0.3,0.5,0.5,0.8,0.5c0.1,0.4,0.2,0.8,0.3,1.1c0.2-0.1,0.3-0.3,0.5-0.5c-0.7,4.6-1.4,9.2-2,13.7
					c-1.9,13.3-3.8,26.7-3.3,40.2c0.4,12.4,2.9,24.6,5.7,36.7c1.6,7.1,3.5,14.3,6.2,21l-1,0.3c6.6,21.1,8,43.8,4.1,65.5v0l-1.5,0.1
					h0c1.1,14.4,1.5,28.8,1.1,43.3c-0.6,21.9-3,44.4-12.3,64.1c0,0-0.4,0.4-1.4,2.3l-0.3-0.1c-3.6,6-7.4,11.8-11.3,17.6
					c0,0.6,0.1,1.3,0.1,1.9c-2,0.4-2.4,3-2.8,5c-0.4,2-1.1,3.9-1.8,5.8c-4.2,11.8-4.6,24.6-5,37.1c-2.4-11.4-4.4-22.8-5.8-34.4
					L213.8,514.8z"/>
				<path class="st4" d="M347.9,777.4c-2.5-0.1-5,0.2-7.5,0.7c-2.6,0.5-5.3,1.3-7.9,0.7c-3.5-0.8-6.1-3.9-7.4-7.2
					c-0.7-2-1-4-1.2-6.1c2.9,6.3,10.6,8.6,17.3,10.3C343.4,776.4,345.7,776.9,347.9,777.4z"/>
				<path class="st2" d="M316.3,352.4c2.6,0.1,5.2,0.1,7.9,0.1c-8.2,20.1-7,17.2-10.1,25.3c-1.1,2.8-1.6,5.7-2.3,8.6
					c-2.7,10.5-5.3,20.9-8,31.4h-0.3c0.7-25.9-4.2-52.9-17.5-74.5c4.5,3,9.3,5.6,14.5,7.1C305.6,351.8,311,352.2,316.3,352.4z"/>
				<path class="st15" d="M319.6,318.1c0.6-1,2.2-1.5,3.2-0.8c1.3,0.8,1.4,3.1,0.2,4c-1.2,1-3.3,0.4-3.9-1.1
					c-0.3-0.7-0.2-1.7,0.4-2.2L319.6,318.1L319.6,318.1z"/>
				<path class="st8" d="M283.3,436.8c-0.3,3.3-0.4,6.5-0.1,9.8c0,0.6,0.1,1.2,0.5,1.6c0.6,0.6,1.7,0.3,2.5-0.1
					c4.6-2.9,5-10.6,0.6-13.8c-0.6,0.9-1.2,1.8-1.8,2.7L283.3,436.8z M278.7,477.1l-0.3,0.7c-3.1,2.7-4.7,7.1-4.2,11.2
					c0.1,0.7,0.2,1.4,0.7,1.9c1,1.3,3.2,0.9,4.3-0.3c1.1-1.2,1.5-2.9,1.8-4.4c0.4-2.2,0.9-4.5,0.1-6.6
					C280.7,478.6,279.8,477.6,278.7,477.1z M241.2,482.3c0.4-0.8,0.8-1.6,1.1-2.4c9.3-19.7,11.7-42.2,12.3-64.1
					c0.4-14.4,0-28.9-1.1-43.3h0l1.5-0.1v0c3.9-21.7,2.5-44.4-4.1-65.5l1-0.3c1.9,4.6,4.3,9,7.3,12.9c3.7,4.8,8.3,8.7,12.8,12.7
					c4.4,3.9,9,7.8,13.9,11.1c13.3,21.6,18.2,48.5,17.5,74.5c0,2-0.1,4-0.3,6c-2.2,35.7-13.2,70.2-19.9,105.4
					c-0.8,3.9-1.5,7.9-2.1,11.8c-4.7,28.4-6.5,57.3-5.6,86.1c0.3,9.8,0.2,21.4-7.7,27.3c-4.2,3.1-9.7,3.8-15,4.4
					c-2.3,0.3-4.8,0.5-7.3,0.5c-6.2,0.1-12.4-1.1-16.2-5.7c-3.4-4.1-3.9-9.8-4.1-15.1c-0.5-10.1-0.8-20.2-1-30.4l0.4-0.1l-0.4-16.6
					c0-1.7,0-3.4,0.1-5.1c3.4,4,8.2,7,13.4,7.5c5.3,0.5,11-1.9,13.8-6.5c3.7-6.4,1.1-15,3.4-21.9c1,0.1,1.9,0.1,2.9,0.1
					c4.8-4.8-0.8-12.9-6.8-16c-6-3.2-13.7-6.3-14.4-13c-3.9,4.3-6.5,9.3-8.3,14.7l-2.5-3c3.8-19.5,2.4-40.8,11.3-58.6
					c1.8-3.6,3-5.8,3.8-7.3L241.2,482.3z M270.9,534c1.2-2.6,1.6-5.7,1.1-8.5c-0.5-2.6-3.4-5.4-5.3-3.6l0.2,0.2
					c-1.4,3-2.1,6.5-1.8,9.8c0.1,2.1,1.4,4.8,3.5,4.4C269.7,536.1,270.5,535,270.9,534z"/>
				<path class="st5" d="M299.3,182.2c1.1,1.5,1.1,4-0.5,4.9c-1.1,0.7-2.5,0.4-3.8,0.1c-7.9-2-15.7-3.9-23.6-5.9
					c-1.8-0.4-3.6-0.9-5.5-1.1c-6.9-0.6-13.3,2.8-19.2,6.5c0.1-0.3,0.1-0.7,0.2-1c1.5-1.1,2.8-2.3,4.1-3.6h0c3-2.9,5.9-6,9.7-7.5
					c4.9-2.1,10.5-1.3,15.8-0.2c6.1,1.3,12.1,2.9,18,5C296.3,180,298.1,180.7,299.3,182.2z"/>
				<path class="st3" d="M219.3,776.1c-0.9-1.6-1.5-3.4-1.6-5.4c-0.2-4,1.7-7.7,3.4-11.3c0.7-1.4,1.4-2.8,2.1-4.2
					c0.7-0.1,1.4-0.1,2.1-0.1c2.8-1.9,5.5-3.8,8.3-5.7c5.6-1.7,11.9-3.4,17-0.6c1.7,0.9,3,2.1,4,3.6l1.1-3.6
					c-8.7-2.3-14-13.3-10.2-21.6l3.2-0.3c0.1,0.3,0.1,0.7,0.3,1c1.4,3.7,6.3,4.2,10.2,4.2c1.1,0,2.1,0,3.2,0
					c6.4-0.1,12.8-0.1,19.1-0.2c0.5,0.8,1,1.7,1.5,2.5c0.4-0.9,0.8-1.7,1.2-2.6c0.4,0,0.8-0.1,1.2-0.1c1.6-0.2,3.2-0.7,4.4-1.7
					c0.9-0.8,1.6-1.8,2.1-2.9l3.5,0.3c1.1,6.1,1.8,12.2,2.1,18.4c0.1,3.3,0.1,6.7-0.7,9.8c-0.3,1.1-0.6,2.1-1.1,3.1
					c-1.7,3.9-4.6,7.4-7.7,10.3c-1.7,1.6-3.5,3.2-5.3,4.6h0c-2.3,0.6-4.1,2.3-5.9,4.1c-3.7,2.3-7.7,4.1-11.8,5.6
					c-9,3.2-18.9,4.4-28.4,3C229.9,785.3,222.4,781.8,219.3,776.1z"/>
				<path class="st6" d="M286.5,198.9c4,1.7,7.5,4.4,10.1,8c0.5,0.7,1,1.7,0.8,2.5c-0.3,1.1-1.6,1.7-2.7,1.6c-1.1-0.1-2.2-0.6-3.2-1
					c-3.5-1.2-7.2-0.3-10.9,0.4l-0.2-0.8c0.5-0.1,1.1-0.3,1.6-0.6c1.9-1.1,3-3.3,2.9-5.5c-0.1-2.2-1.2-4.4-3-5.6
					c-0.8-0.4-1.6-0.7-2.4-0.8c0.9,0.1,1.8,0.2,2.6,0.4C283.5,197.9,285,198.3,286.5,198.9z"/>
				<path class="st4" d="M295.8,758.7c0.6,2.9,1,5.7,0.3,8.6c-0.8,3.5-3.7,6.7-7.2,6.8c-1.6,0-3.2-0.6-4.8-0.6c-0.5,0-1,0.1-1.4,0.2
					c1.9-1.5,3.6-3,5.3-4.6C291.2,766,294.1,762.6,295.8,758.7z"/>
				<path class="st8" d="M286.8,434.2c4.4,3.2,4.1,11-0.6,13.8c-0.8,0.5-1.9,0.8-2.5,0.1c-0.4-0.4-0.5-1-0.5-1.6
					c-0.2-3.2-0.2-6.5,0.1-9.8l1.7,0.1C285.6,436,286.2,435.1,286.8,434.2z"/>
				<path class="st9" d="M275.7,203.1c0,0.1,0,0.1,0,0.1c0,0,0,0,0,0c0.2,0.9,0.7,1.6,1.5,1.2c1-0.4,1.2-1.9,0.3-2.5
					C276.8,201.5,275.7,202.2,275.7,203.1z M284.8,203.6c0.1,2.2-1,4.4-2.9,5.5c-0.5,0.3-1,0.5-1.6,0.6c-1.5,0.3-3,0.2-4.5-0.2
					c-1.7-0.4-3.5-1.1-4.7-2.4c-1.2-1.3-1.9-3.2-1.2-4.9c0.2-0.6,3.2-3.5,2.7-3.9c0,0,2.4-1.1,5.1-1.2c0.5,0,1,0,1.4,0.1
					c0,0,0.1,0,0.1,0c0.8,0.1,1.7,0.4,2.4,0.8C283.7,199.1,284.7,201.4,284.8,203.6z"/>
				<path class="st8" d="M281.1,479.7c0.8,2.1,0.4,4.4-0.1,6.6c-0.3,1.6-0.7,3.3-1.8,4.4c-1.1,1.2-3.3,1.5-4.3,0.3
					c-0.4-0.5-0.6-1.2-0.7-1.9c-0.5-4.1,1.1-8.4,4.2-11.2l0.3-0.7C279.8,477.6,280.7,478.6,281.1,479.7z"/>
				<path class="st6" d="M273.5,197.5c1.3-0.2,2.5-0.3,3.8-0.3c0.1,0,0.3,0,0.4,0c-2.7,0.1-5.1,1.2-5.1,1.2c0.6,0.4-2.4,3.3-2.7,3.9
					c-0.7,1.7,0,3.6,1.2,4.9c1.2,1.3,3,2,4.7,2.4c1.5,0.4,3,0.5,4.5,0.2l0.2,0.8c-1.2,0.3-2.4,0.5-3.6,0.6
					c-6.4,0.7-13.1-1.3-18.1-5.5l-0.3-1.1c1.3-0.6,2.6-1.4,3.8-2.2c0.8-0.6,1.7-1.1,2.5-1.7c0.6-0.4,1.2-0.7,1.8-1
					c1-0.5,2.1-1,3.2-1.3C271.1,197.9,272.3,197.6,273.5,197.5z"/>
				<path class="st2" d="M277.8,197.1c0.5,0,0.9,0,1.4,0.1C278.7,197.2,278.3,197.1,277.8,197.1z"/>
				<path class="st12" d="M277.5,202c0.8,0.6,0.6,2.1-0.3,2.5c-0.8,0.3-1.3-0.4-1.5-1.2c0,0,0,0,0,0c0,0,0-0.1,0-0.1
					C275.7,202.2,276.8,201.5,277.5,202z M277.8,203c0-0.3-0.2-0.6-0.5-0.6c-0.3,0-0.5,0.3-0.5,0.6c0,0.3,0.2,0.6,0.5,0.6
					C277.5,203.5,277.8,203.3,277.8,203z"/>
				<ellipse class="st13" cx="277.3" cy="203" rx="0.5" ry="0.6"/>
				<path class="st2" d="M272,195.2l-0.4,0.1c-0.4-0.6-0.6-1.3-0.6-2l-0.1-0.6c0.8-0.2,1.6-0.3,2.3-0.5c0.8-0.1,1.7-0.3,2.5-0.4
					l0.1,1.1c0.1,1.4,0.6,2.8,1.6,3.9v0.2c-1.3,0-2.6,0.1-3.8,0.3C272.7,196.9,272.2,196.1,272,195.2z"/>
				<path class="st4" d="M276.9,777.7c-0.7,0.7-1.4,1.4-2,2c-3.7,3.5-8.4,5.8-13.2,7.8c-7.9,3.3-16.4,5.9-24.9,4.6
					c-8.4-1.3-16.4-7.6-17.5-16c3.1,5.7,10.6,9.2,17.4,10.2c9.5,1.4,19.3,0.3,28.4-3C269.2,781.8,273.1,780,276.9,777.7z"/>
				<path class="st8" d="M272,525.4c0.5,2.9,0.1,5.9-1.1,8.5c-0.5,1-1.2,2.1-2.3,2.3c-2.1,0.4-3.4-2.3-3.5-4.4
					c-0.2-3.4,0.4-6.8,1.8-9.8l-0.2-0.2C268.6,520,271.6,522.9,272,525.4z"/>
				<path class="st7" d="M272,195.2c0.2,0.9,0.8,1.8,1.5,2.3c-1.2,0.2-2.5,0.5-3.6,0.9v0l0-0.1c-1.4-1.2-2.5-2.7-3.2-4.4
					c1.4-0.5,2.8-0.8,4.2-1.1l0.1,0.6c0,0.7,0.2,1.4,0.6,2L272,195.2z"/>
				<path class="st7" d="M266.3,199c-2,0.4-4.1-0.9-5.1-2.7c1.6-1,3.5-1.8,5.3-2.5c0.7,1.7,1.8,3.2,3.2,4.4l0,0.1v0
					c-1.1,0.3-2.2,0.8-3.2,1.3v0L266.3,199z"/>
				<path class="st7" d="M266.7,199.6L266.7,199.6c-0.6,0.3-1.2,0.6-1.8,1c-0.8,0.5-1.7,1.1-2.5,1.7l-0.3-0.4
					c-1.8,0.2-3.6-0.8-4.6-2.3c1.1-1.3,2.3-2.3,3.7-3.2c1,1.8,3,3,5.1,2.7L266.7,199.6z"/>
				<path class="st8" d="M255,565.2c-10.1-0.9-19.8-5.9-26.3-13.8l-0.3-0.4c1.8-5.4,4.4-10.5,8.3-14.7c0.7,6.7,8.4,9.9,14.4,13
					c6,3.2,11.6,11.2,6.8,16C256.9,565.3,256,565.2,255,565.2z"/>
				<path class="st8" d="M255,565.2c-2.3,6.9,0.3,15.5-3.4,21.9c-2.7,4.6-8.4,7-13.8,6.5c-5.2-0.5-10-3.5-13.4-7.5c0-2,0.1-4,0.1-6
					c0.2-9.8,0.8-20,3.9-29.2l0.3,0.4C235.2,559.2,244.9,564.3,255,565.2z"/>
				<path class="st2" d="M248,179.9c0.1-0.4,0.2-0.8,0.3-1.3c1.3,0.7,2.3,1.8,2.7,3.3l0.1,0.1c-1.3,1.3-2.7,2.5-4.1,3.6
					C247.3,183.7,247.6,181.8,248,179.9z"/>
				<path class="st0" d="M263.8,134.2c-7.9,13.7-12.4,28.9-15.6,44.4c-0.8-0.4-1.6-0.6-2.4-0.6c-2.3-0.1-4.6,1.3-5.7,3.3
					c-0.2,0.3-0.3,0.6-0.4,0.9h0L236,181c2.9-7.9,6.4-15.6,10.6-23C251.5,149.5,257.3,141.5,263.8,134.2z"/>
				<path class="st0" d="M248.3,178.7c-0.1,0.4-0.2,0.8-0.3,1.3c-0.4-0.1-0.9-0.1-1.3-0.2c-1-0.1-2-0.3-2.9,0
					c-0.9,0.3-1.7,1.3-1.5,2.2c-0.2,0-0.5,0-0.7,0c-1,2-1.6,4.4-0.9,6.5c0.5,1.6,1.9,2.8,3.4,3.4c-0.1,0.2-0.2,0.4-0.3,0.5
					c-0.8-0.2-1.6-0.6-2.3-1.1c-1-0.8-1.7-2-2.1-3.2c-0.6-1.9-0.6-4,0.1-5.8c0.1-0.3,0.3-0.6,0.4-0.9c1.2-2,3.4-3.4,5.7-3.3
					C246.7,178.1,247.5,178.3,248.3,178.7z"/>
				<path class="st0" d="M244.2,191.8c-1.6-0.6-2.9-1.8-3.4-3.4c-0.7-2.1-0.1-4.5,0.9-6.5c0.2,0,0.5,0,0.7,0
					c-0.2-0.9,0.6-1.9,1.5-2.2c0.9-0.3,1.9-0.2,2.9,0c0.4,0.1,0.9,0.1,1.3,0.2c-0.4,1.9-0.7,3.8-1.1,5.7c-0.1,0.3-0.1,0.7-0.2,1
					c-0.3,1.8-0.6,3.6-0.9,5.4c-0.3,0-0.6-0.1-0.8-0.1C244.8,192,244.5,191.9,244.2,191.8z"/>
				<path class="st11" d="M246,192.7c0.2,0.4,0.2,1,0,1.4c-0.2,0.3-0.4,0.6-0.7,0.9c0.1-0.8,0.3-1.5,0.4-2.3c0,0,0,0,0,0
					C245.9,192.7,245.9,192.7,246,192.7L246,192.7z"/>
				<path class="st11" d="M246,192.7c-0.1,0-0.1,0-0.2,0c0,0,0,0,0,0c0-0.1,0-0.2,0-0.2h0C245.9,192.5,246,192.6,246,192.7z"/>
				<path class="st0" d="M245.8,192.1c0,0.1,0,0.2-0.1,0.3c-0.3-0.2-0.6-0.3-0.9-0.1c0-0.1,0.1-0.2,0.1-0.3
					C245.3,192.1,245.6,192.1,245.8,192.1z"/>
				<path class="st11" d="M245.8,192.4L245.8,192.4c0,0.1,0,0.2,0,0.3c-0.3,0-0.6-0.1-1-0.2c0-0.1,0-0.2,0.1-0.2
					C245.2,192.2,245.5,192.2,245.8,192.4z"/>
				<path class="st11" d="M244.6,193.3c0-0.3,0.1-0.5,0.2-0.8c0.3,0.1,0.6,0.1,1,0.2c-0.1,0.8-0.3,1.5-0.4,2.3
					c-0.1,0.2-0.3,0.3-0.5,0.5c-0.2-0.4-0.3-0.7-0.3-1.1C244.5,194,244.5,193.6,244.6,193.3z"/>
				<path class="st0" d="M245,192c-0.1,0.1-0.1,0.2-0.1,0.3c-0.1,0-0.2,0.1-0.3,0.2c-0.2,0-0.4-0.1-0.6-0.1c0.1-0.2,0.2-0.4,0.3-0.5
					C244.5,191.9,244.8,192,245,192z"/>
				<path class="st11" d="M244.9,192.3c-0.1,0.1-0.1,0.1-0.1,0.2c-0.1,0-0.1,0-0.2-0.1C244.6,192.4,244.8,192.3,244.9,192.3z"/>
				<path class="st11" d="M244.6,192.5c0.1,0,0.2,0.1,0.2,0.1c-0.1,0.3-0.2,0.5-0.2,0.8c-0.1-0.1-0.2-0.3-0.2-0.5
					C244.4,192.6,244.5,192.6,244.6,192.5z"/>
				<path class="st0" d="M244.6,193.3c-0.1,0.3-0.1,0.7,0,1c-0.3,0-0.7-0.2-0.8-0.5c-0.2-0.5-0.1-1,0.2-1.5c0.2,0.1,0.4,0.1,0.6,0.1
					c-0.1,0.1-0.1,0.2-0.2,0.3C244.3,193,244.4,193.2,244.6,193.3z"/>
				<path class="st0" d="M242.4,479.9c-0.4,0.8-0.7,1.6-1.1,2.4l-0.3-0.1C242,480.3,242.4,479.9,242.4,479.9z"/>
				<path class="st8" d="M240.7,482l0.3,0.1c-0.8,1.4-2,3.7-3.8,7.3c-8.9,17.8-7.6,39.1-11.3,58.6l2.5,3c-3,9.2-3.6,19.4-3.9,29.2
					c-0.1,2-0.1,4-0.1,6c-0.1-0.1-0.1-0.2-0.2-0.3l0,0.5l-3.9-0.7c-3.6,4.1-10.9,1.8-13.6-2.8c-2.7-4.7-2.3-10.5-1.8-15.9
					c3.3-33.6,0.7-7.3,4-40.8c0,0,0,0,0,0c1.3-3.3,2.7-6.6,4.2-9.9c0.2-0.5,0.4-1,0.7-1.4l0.3,0.1c1.4,11.5,3.4,23,5.8,34.4
					c0.4-12.5,0.8-25.3,5-37.1c0.7-1.9,1.5-3.8,1.8-5.8c0.4-2,0.8-4.6,2.8-5c0-0.6-0.1-1.3-0.1-1.9
					C233.3,493.8,237.1,487.9,240.7,482z"/>
				<path class="st2" d="M224.4,591.3c-0.1,5.6-0.1,11.2,0,16.8l-4.2,1.5c-5.6-0.8-10.1-5.3-12.4-10.5s-2.7-11-3.1-16.6l2.1,0.3
					c2.7,4.6,10,6.9,13.6,2.8l3.9,0.7L224.4,591.3z"/>
				<path class="st11" d="M168,640.2c1.8,4.1,3.5,8.3,5.3,12.4C171.1,648.6,169.4,644.4,168,640.2z"/>
			</g>
			<g>
				<path class="st16" d="M241,482.1c-0.8,1.4-2,3.7-3.8,7.3c-8.9,17.8-7.6,39.1-11.3,58.6l2.5,3l0.3,0.4
					c6.4,7.9,16.2,12.9,26.3,13.8c1,0.1,1.9,0.1,2.9,0.1c4.8-4.8-0.8-12.9-6.8-16c-6-3.2-13.7-6.3-14.4-13
					c-3.9,4.3-6.5,9.3-8.3,14.7c-3,9.2-3.6,19.4-3.9,29.2c-0.1,2-0.1,4-0.1,6c0,1.7-0.1,3.4-0.1,5.1c-0.1,5.6-0.1,11.2,0,16.8
					c0.1,10.1,0.4,20.2,1,30.4c0.3,5.3,0.8,11,4.1,15.1c3.8,4.6,10,5.8,16.2,5.7c2.5,0,4.9-0.2,7.3-0.5c5.2-0.6,10.8-1.3,15-4.4
					c7.9-5.9,8-17.5,7.7-27.3c-1-28.8,0.9-57.7,5.6-86.1c0.6-3.9,1.3-7.9,2.1-11.8c6.7-35.2,17.8-69.7,19.9-105.4c0.1-2,0.2-4,0.3-6
					c0.7-25.9-4.2-52.9-17.5-74.5"/>
				<path class="st16" d="M209,526.2c-3.3,33.5-0.7,7.2-4,40.8c-0.5,5.4-1,11.2,1.8,15.9c2.7,4.6,10,6.9,13.6,2.8l3.9,0.7"/>
				<path class="st17" d="M209,526.1C209,526.2,209,526.2,209,526.1"/>
				<path class="st16" d="M206.8,582.8l-2.1-0.3c0.4,5.6,0.8,11.4,3.1,16.6s6.8,9.7,12.4,10.5l4.2-1.5l0.4-0.1l-0.4-16.6l-0.1-4.9
					l0-0.5c0.1,0.1,0.1,0.2,0.2,0.3c3.4,4,8.2,7,13.4,7.5c5.3,0.5,11-1.9,13.8-6.5c3.7-6.4,1.1-15,3.4-21.9c0.3-0.9,0.7-1.8,1.2-2.7
					"/>
				<path class="st16" d="M324.2,352.5c-8.2,20.1-7,17.2-10.1,25.3c-1.1,2.8-1.6,5.7-2.3,8.6c-2.7,10.5-5.3,20.9-8,31.4"/>
				<path class="st16" d="M365.4,537.5c-5.1,5.3-12.8,7.8-20.1,6.5c-1.5,0.3-2.2,2-2.2,3.5c0,1.4,0.5,2.7,1.3,3.8
					c1.9,2.6,5.6,4.1,9,3.7c4.8-0.6,8.7-4,12.1-7.4"/>
				<path class="st16" d="M370.8,578.9c0-1-0.1-2.1-0.1-3.1c0-10.2,0.6-20.9-2.1-30.6"/>
				<path class="st17" d="M371.5,593c-0.4-4.7-0.7-9.4-0.7-14.1"/>
				<path class="st16" d="M376.8,631.4c-0.3-6.2-1.6-12.5-2.7-18.6c-0.4-2.1-0.7-4.2-1-6.2"/>
				<path class="st16" d="M280.9,540.4c0.1,0.2,0.2,0.4,0.3,0.6c10.7,20.1,20.9,40.5,28.4,62c5.3,15.3,9.3,31,11.8,47
					c0.3,2.1,0.7,4.3,2.1,5.9c1.1,1.2,2.6,1.9,4.1,2.5c7.7,3,16,4.9,24.2,4c0.3,0,0.5-0.1,0.8-0.1c6.6-0.9,13-3.8,17.5-8.6"/>
				<path class="st16" d="M343.9,551.7c0.6,7.6,1.1,15.3,1.7,22.9c0.1,1.8,0.3,3.6,1.3,5.1c1,1.5,3.1,2.3,4.6,1.3
					c3.6,5.7,14,4.4,16.1-2.1"/>
				<path class="st17" d="M355.8,440.9c-6.7-9.6-6-16.9-16.9-33.6"/>
				<path class="st16" d="M339.8,390.2c-0.5-16.8,7.1-33.6,20.1-44.3"/>
				<path class="st16" d="M369.7,552.8c-0.8-3.7-1.5-5.5-2-6.4c-1.2-2.1-1.8-0.7-2.1-8.5"/>
				<path class="st16" d="M245.7,662c7,19,8.3,40.1,3.6,59.8c-0.4,1.6-0.8,3.3-0.5,5c0.1,0.3,0.1,0.7,0.3,1
					c1.4,3.7,6.3,4.2,10.2,4.2c1.1,0,2.1,0,3.2,0c6.4-0.1,12.8-0.1,19.1-0.2c0.2,0,0.3,0,0.5,0c0.7,0,1.5,0,2.2-0.1
					c0.4,0,0.8-0.1,1.2-0.1c1.6-0.2,3.2-0.7,4.4-1.7c0.9-0.8,1.6-1.8,2.1-2.9c0.5-1.1,0.8-2.4,1-3.6c3.8-19.1-3.7-38.5-3.9-58
					c-0.3-23.2,9.5-47,2.4-69c0-0.1-0.1-0.2-0.1-0.3"/>
				<path class="st16" d="M287,586.3c1.6,3.3,3.1,6.7,4.6,10c10.8,25.1,17.6,51.8,24.4,78.4c3,11.9,6.1,23.9,6.2,36.1
					c0.1,5.3-0.2,11.4,2.2,15.9c0.7,1.4,1.7,2.6,3,3.7c4.2,3.4,10.2,2.9,15.5,2.3c3-0.3,5.9-0.7,8.9-1c1.9-0.2,3.8-0.4,5.6-0.6
					c0.3-0.1,0.7-0.1,1-0.1c0.6-0.1,1.2-0.1,1.8-0.2c3.5-0.6,7-1.7,8.4-4.7c0.1-0.1,0.1-0.2,0.1-0.3c0.9-2.3,0.3-4.8-0.5-7.2
					c-3.2-9.5-8.6-18.1-12.5-27.3c-0.7-1.7-1.4-3.5-2-5.3c-2.6-7.8-3.6-16.2-1-23.9c0,0,0,0,0-0.1"/>
				<path class="st16" d="M245.7,727.1c-3.8,8.2,1.5,19.3,10.2,21.6c0,0,0.1,0,0.1,0"/>
				<path class="st16" d="M260.6,746.5c0.6-4.2-5.5-8.1-3.3-11.8c0.7-1.1,2-1.7,3.2-2.2c0.6-0.2,1.3-0.4,2-0.6
					c5-1.4,10.3-1.5,15.3-0.4c0.7-0.9,1.3-1.8,2-2.8c0.6,1,1.2,2,1.8,2.9c0.5,0.8,1,1.7,1.5,2.5c0.4-0.9,0.8-1.7,1.2-2.6
					c0.3-0.6,0.5-1.2,0.8-1.7c0.2,0.5,0.3,1.1,0.5,1.6c1.2,5.2,0.2,10.9-2.7,15.3"/>
				<path class="st16" d="M282.8,773.6c-1.9,1.5-3.9,2.8-5.9,4.1c-3.7,2.3-7.7,4.1-11.8,5.6c-9,3.2-18.9,4.4-28.4,3
					c-6.8-1-14.3-4.5-17.4-10.2c-0.9-1.6-1.5-3.4-1.6-5.4c-0.2-4,1.7-7.7,3.4-11.3c0.7-1.4,1.4-2.8,2.1-4.2c0.7-0.1,1.4-0.1,2.1-0.1
					c2.8-1.9,5.5-3.8,8.3-5.7c5.6-1.7,11.9-3.4,17-0.6c1.7,0.9,3,2.1,4,3.6c3.2,4.5,3.6,11.3,2.7,17.1"/>
				<path class="st16" d="M295.5,727.3c1.1,6.1,1.8,12.2,2.1,18.4c0.1,3.3,0.1,6.7-0.7,9.8c-0.3,1.1-0.6,2.1-1.1,3.1
					c-1.7,3.9-4.6,7.4-7.7,10.3c-1.7,1.6-3.5,3.2-5.3,4.6"/>
				<path class="st16" d="M323,727.5c-1.1,1.1-2.2,2.2-3.2,3.3c-3.8,4.1,0.7,10.2,2.2,15.5c1.8,6.2-0.8,13.2,1.9,19
					c0,0.1,0.1,0.1,0.1,0.1c2.9,6.3,10.6,8.6,17.3,10.3c2.2,0.5,4.4,1.1,6.6,1.6c2.9,0.7,5.8,1.4,8.6,2.1c0.6,0.1,1.2,0.3,1.8,0.4
					c8.2,2,16.7,3.8,25.1,3c8.2-0.8,16.5-4.6,21-11.4c0.5-0.7,0.9-1.4,1.3-2.2c4-8,1.7-18.6-5.1-24.4c-6.1-5.1-15.3-5.9-22.4-2.3
					c-0.9,0.4-1.7,1-2.5,1.5c-0.3-0.5-0.6-1-0.8-1.5c-2.1-5,0.1-11.9-4-15.6c-0.7-0.6-1.5-1-2.4-1.3c-2.9-0.7-6.3,0.6-7.8,3.3
					c-0.3,0.5-0.4,1-0.6,1.5c-0.9,3.3,0.7,7.1,3.6,8.9c-3.8-0.1-3.1-7-6.5-8.6c0,0-0.1,0-0.1-0.1c-1.3-0.6-2.8-0.1-4.2,0.3
					c-0.5,0.1-0.9,0.3-1.4,0.4c-4.1,1.3-8.2,2.6-12.3,3.9c1.7,3.4,3.4,6.7,5,10.1c-1.1,0.9-2.8,0.2-3.6-1c-0.8-1.1-1.1-2.5-1.6-3.8
					c-2.2-5.1-8.5-6.8-13.9-7.9"/>
				<path class="st16" d="M362.3,756.4c3.1-1.1,3.5-5.1,5-8.1c0.5-1.1,1.3-2.1,2.2-2.9c1.5-1.4,3.4-2.3,5.4-2.7
					c1.1-0.2,2.2-0.3,3.3-0.1c0.2,0,0.4,0.1,0.6,0.1"/>
				<path class="st16" d="M219.3,775.9c0,0.1,0,0.1,0,0.2c1,8.4,9.1,14.7,17.5,16c8.4,1.3,17-1.3,24.9-4.6c4.7-2,9.4-4.3,13.2-7.8
					c0.7-0.6,1.4-1.3,2-2c1.8-1.8,3.7-3.5,5.9-4.1h0c0.4-0.1,0.9-0.2,1.4-0.2c1.6,0,3.1,0.6,4.8,0.6c3.6-0.1,6.4-3.3,7.2-6.8
					c0.6-2.8,0.3-5.7-0.3-8.6c-0.1-0.7-0.3-1.4-0.4-2"/>
				<path class="st16" d="M323.8,761c0,1.5,0,3,0.1,4.6c0.2,2.1,0.5,4.1,1.2,6.1c1.2,3.4,3.9,6.5,7.4,7.2c2.6,0.6,5.3-0.2,7.9-0.7
					c2.5-0.5,5-0.8,7.5-0.7c1.9,0,3.8,0.3,5.6,0.7c1.7,0.4,3.3,1.1,4.8,1.8c2.3,1.1,4.6,2.4,6.8,3.6c4.3,2.4,8.8,4.5,13.6,5.6
					c4.8,1,10,0.8,14.4-1.4c6.1-3.1,9.5-9.4,11.3-16.2c0.5-1.8,0.9-3.7,1.1-5.6"/>
				<path class="st16" d="M283.5,435c-0.1,0.6-0.2,1.2-0.2,1.8c-0.3,3.3-0.4,6.5-0.1,9.8c0,0.6,0.1,1.2,0.5,1.6
					c0.6,0.6,1.7,0.3,2.5-0.1c4.6-2.9,5-10.6,0.6-13.8c-0.6,0.9-1.2,1.8-1.8,2.7"/>
				<path class="st16" d="M278.4,477.8c-3.1,2.7-4.7,7.1-4.2,11.2c0.1,0.7,0.2,1.4,0.7,1.9c1,1.3,3.2,0.9,4.3-0.3
					c1.1-1.2,1.5-2.9,1.8-4.4c0.4-2.2,0.9-4.5,0.1-6.6c-0.4-1.1-1.3-2-2.3-2.5c-1-0.5-2-0.6-2.9-0.1"/>
				<path class="st16" d="M266.9,522c-1.4,3-2.1,6.5-1.8,9.8c0.1,2.1,1.4,4.8,3.5,4.4c1.1-0.2,1.9-1.3,2.3-2.3
					c1.2-2.6,1.6-5.7,1.1-8.5c-0.5-2.6-3.4-5.4-5.3-3.6"/>
				<line class="st17" x1="379.2" y1="203.8" x2="379.2" y2="203.8"/>
				<path class="st17" d="M344.2,183.1c-0.4,0.1-0.7,0.3-0.8,0.6c-0.5,0.8-0.3,2.2,0.6,2.8c1.2,0.8,2.8,0.6,4.2,0.3
					c5.8-1.2,11.5-2.7,17.1-4.6c2.7-0.9,5.4-2,8.2-2.5c9.6-1.8,20.1,2.9,25.1,11.3c-1-4.5-4.4-8-7.7-11.1c-2.2-2.1-4.6-4.2-7.5-5.3
					c-4.8-1.8-10.2-0.7-15.2,0.5c-5,1.2-9.9,2.3-14.9,3.5c-3.7,0.9-7.9,2.2-9.9,5.1c-0.4,0.6-0.8,1.3-1,2.1"/>
				<path class="st17" d="M244.2,187.4c1-0.5,1.9-1.1,2.8-1.8c1.5-1.1,2.8-2.3,4.1-3.6h0c3-2.9,5.9-6,9.7-7.5
					c4.9-2.1,10.5-1.3,15.8-0.2c6.1,1.3,12.1,2.9,18,5c1.8,0.6,3.6,1.4,4.7,2.8c1.1,1.5,1.1,4-0.5,4.9c-1.1,0.7-2.5,0.4-3.8,0.1
					c-7.9-2-15.7-3.9-23.6-5.9c-1.8-0.4-3.6-0.9-5.5-1.1c-6.9-0.6-13.3,2.8-19.2,6.5c-0.9,0.6-1.7,1.1-2.6,1.7"/>
				<path class="st17" d="M343.5,204.4c5.4-8.6,16.1-13.5,26.1-12c1.5,0.2,3,0.6,4.3,1.3c1.3,0.6,2.4,1.5,3.5,2.4
					c1.6,1.4,3.2,2.9,4.6,4.5c0.9,1,1.8,2.1,2.6,3.1c0.1,0.2,0.3,0.3,0.4,0.5"/>
				<path class="st17" d="M390,203.6c-0.9,2.5-4.2,3.2-6.7,2.4c-0.1,0-0.1,0-0.2-0.1c-1.4-0.5-2.6-1.3-3.8-2.2c-1-0.7-1.9-1.5-3-2.1
					c0,0-0.1,0-0.1-0.1c-2.7-1.8-6-2.8-9.2-2.9c-0.5,0-1,0-1.5,0c-0.1,0-0.3,0-0.4,0c-1.1,0.1-2.2,0.2-3.3,0.6
					c-0.3,0.1-0.5,0.2-0.8,0.3c-0.9,0.4-1.7,0.9-2.6,1.3c-2.1,1.2-4.3,2.5-6.4,3.7c-2.1,1.2-4.2,2.4-5.9,4.2c-0.5,0.5-1,1.1-1,1.9
					c0,1,1,1.8,1.9,1.9c1,0.2,2,0,2.9-0.2c4.7-0.7,9.5,0.6,14.3,1c1.8,0.2,3.6,0.2,5.4,0c4.4-0.5,10.6-4.1,13.6-7.5
					c0.1-0.1,0.2-0.2,0.3-0.3"/>
				<path class="st17" d="M360.4,200.8c-0.6,0.3-1.1,0.6-1.5,1c-2.5,2.5-0.5,7.5,2.5,9.4c0.9,0.6,2,0.9,3,1c2.5,0.2,5-1,6.3-3.1
					c1.8-3,0.1-7.8-3.2-9.2C367.5,199.9,363.2,199.6,360.4,200.8z"/>
				<path class="st17" d="M361.6,205c-0.2,0.3,0.4,0.6,0.6,0.3c0.1,0,0.1,0,0.1-0.1c0.1-0.3-0.1-0.6-0.3-0.7
					c-0.1-0.1-0.2-0.1-0.2-0.1"/>
				<path class="st17" d="M362.2,205.3c0.2,0.2,0.5,0.5,1,0.7c1.2,0.5,2.6-1.3,1.9-2.5c-0.7-1.1-2.8-0.8-3.1,0.6
					c0,0-0.1,0.2-0.1,0.4C361.9,204.7,362,205,362.2,205.3z"/>
				<path class="st17" d="M357.3,222.1c4,1.4,8.3,2.5,12.6,2.4c4.3-0.1,8.7-1.6,11.6-4.8"/>
				<path class="st17" d="M351.2,204.3c1.9-1,3.1-3.4,2.6-5.5"/>
				<path class="st17" d="M354.9,202.4c1.9-0.6,3.3-2.5,3.3-4.6"/>
				<path class="st17" d="M360.1,200.2c0.3-0.2,0.6-0.4,0.9-0.6c1.3-1,2.1-2.5,2.3-4"/>
				<path class="st17" d="M364.9,198.6c0.2,0.1,0.3,0.1,0.5,0.1c0.5,0.1,1,0.1,1.5,0c1.6-0.3,3.1-1.5,3.4-3.1"/>
				<path class="st17" d="M370.8,199.2c1.9,0.8,4.4,0.1,5.5-1.6"/>
				<path class="st17" d="M376,201.6c0.1,0.1,0.2,0.1,0.3,0.1c1.9,0.8,4.2,0.3,5.6-1.1c0.2-0.2,0.4-0.3,0.5-0.6"/>
				<path class="st17" d="M379.2,203.8c1.7,0.6,3.6,0.6,5.3,0c1.1-0.3,2.1-0.9,2.9-1.7"/>
				<path class="st17" d="M279.3,197.2c0.9,0.1,1.8,0.2,2.6,0.4c1.5,0.3,3.1,0.8,4.5,1.4c4,1.7,7.5,4.4,10.1,8
					c0.5,0.7,1,1.7,0.8,2.5c-0.3,1.1-1.6,1.7-2.7,1.6c-1.1-0.1-2.2-0.6-3.2-1c-3.5-1.2-7.2-0.3-10.9,0.4c-1.2,0.3-2.4,0.5-3.6,0.6
					c-6.4,0.7-13.1-1.3-18.1-5.5l-0.3-1.1"/>
				<path class="st17" d="M251.7,204c1.9,1.6,4.7,1.4,7,0.5c1.3-0.6,2.6-1.4,3.8-2.2c0.8-0.6,1.7-1.1,2.5-1.7c0.6-0.4,1.2-0.7,1.8-1
					c1-0.5,2.1-1,3.2-1.3c1.2-0.4,2.4-0.7,3.6-0.9c1.3-0.2,2.5-0.3,3.8-0.3c0.1,0,0.3,0,0.4,0c0.5,0,1,0,1.4,0.1"/>
				<path class="st17" d="M256.6,200.8c0.3-0.4,0.6-0.9,1-1.3c1.1-1.3,2.3-2.3,3.7-3.2c1.6-1,3.5-1.8,5.3-2.5
					c1.4-0.5,2.8-0.8,4.2-1.1c0.8-0.2,1.6-0.3,2.3-0.5c0.8-0.1,1.7-0.3,2.5-0.4c2.2-0.3,4.4-0.4,6.5-0.1c7.9,1.2,13.7,7.8,18.1,14.4
					"/>
				<path class="st17" d="M266.7,221.5c7.4,1.8,15.6,0.6,22.2-3.3"/>
				<path class="st17" d="M279.3,197.2c0.8,0.1,1.7,0.4,2.4,0.8c1.9,1.1,2.9,3.4,3,5.6c0.1,2.2-1,4.4-2.9,5.5
					c-0.5,0.3-1,0.5-1.6,0.6c-1.5,0.3-3,0.2-4.5-0.2c-1.7-0.4-3.5-1.1-4.7-2.4c-1.2-1.3-1.9-3.2-1.2-4.9c0.2-0.6,3.2-3.5,2.7-3.9
					c0,0,2.4-1.1,5.1-1.2c0.5,0,0.9,0,1.4,0.1C279.2,197.2,279.3,197.2,279.3,197.2z"/>
				<path class="st17" d="M275.7,203.4c0-0.1,0-0.1,0-0.2"/>
				<path class="st17" d="M275.7,203.2c0.2,0.9,0.7,1.6,1.5,1.2c1-0.4,1.2-1.9,0.3-2.5c-0.8-0.5-1.9,0.3-1.9,1.1"/>
				<path class="st17" d="M275.7,203.2C275.7,203.2,275.7,203.2,275.7,203.2c0-0.1,0-0.1,0-0.1"/>
				<path class="st17" d="M275.6,202.9c0,0.1,0,0.1,0,0.2"/>
				<path class="st17" d="M259.1,204.2c-2-0.6-3.8-2-4.7-3.8"/>
				<path class="st17" d="M262.1,201.9c-1.8,0.2-3.6-0.8-4.6-2.3c-0.5-0.8-0.8-1.7-0.8-2.7"/>
				<path class="st17" d="M266.4,199L266.4,199c-2,0.4-4.1-0.9-5.1-2.7c-0.4-0.7-0.6-1.5-0.6-2.3"/>
				<path class="st17" d="M269.9,198.3c-1.4-1.2-2.5-2.7-3.2-4.4c-0.2-0.5-0.4-1-0.6-1.5"/>
				<path class="st17" d="M273.8,197.6c-0.1-0.1-0.2-0.1-0.3-0.2c-0.8-0.5-1.3-1.4-1.5-2.3c0-0.2-0.1-0.4-0.1-0.6"/>
				<path class="st17" d="M277.4,196.9c-0.9-1.1-1.5-2.5-1.6-3.9"/>
				<path class="st17" d="M271.5,195.3c-0.4-0.6-0.6-1.3-0.6-2"/>
				<path class="st17" d="M280.6,197.2c-0.8-0.7-1.3-1.8-1.3-2.9"/>
				<path class="st17" d="M284.9,197.9c-0.8-0.6-1.4-1.6-1.3-2.6"/>
				<path class="st17" d="M286.4,199.2c0-0.1,0-0.2,0-0.2c0.1-0.8,0.2-1.6,0.3-2.4"/>
				<path class="st17" d="M289.4,199.8c0-0.1,0-0.2,0-0.3"/>
				<path class="st17" d="M246,192.7c1.8,0.2,3.8,0.1,5.4-0.8c1.7-0.9,2.9-3,2.4-4.8"/>
				<path class="st17" d="M251,181.9c-0.4-1.4-1.4-2.6-2.7-3.3c-0.8-0.4-1.6-0.6-2.4-0.6c-2.3-0.1-4.6,1.3-5.7,3.3
					c-0.2,0.3-0.3,0.6-0.4,0.9c-0.7,1.8-0.8,3.9-0.1,5.8c0.4,1.2,1.1,2.4,2.1,3.2c0.7,0.5,1.5,0.9,2.3,1.1c0.2,0.1,0.4,0.1,0.6,0.1
					c0.1,0,0.2,0.1,0.2,0.1c0.3,0.1,0.6,0.1,1,0.2c0,0,0,0,0,0c0.1,0,0.1,0,0.2,0"/>
				<path class="st17" d="M245.8,192.4c-0.3-0.2-0.6-0.3-0.9-0.1c-0.1,0-0.2,0.1-0.3,0.2s-0.1,0.2-0.2,0.3c-0.1,0.2,0,0.4,0.2,0.5
					c0.3,0.3,0.7,0.4,0.9,0"/>
				<path class="st17" d="M245.2,191.7c-0.1,0.1-0.1,0.2-0.2,0.3c-0.1,0.1-0.1,0.2-0.1,0.3c-0.1,0.1-0.1,0.1-0.1,0.2
					c-0.1,0.3-0.2,0.5-0.2,0.8c-0.1,0.3-0.1,0.7,0,1c0.1,0.4,0.2,0.8,0.3,1.1c0.2-0.1,0.3-0.3,0.5-0.5c0.3-0.3,0.5-0.5,0.7-0.9
					c0.2-0.4,0.2-1,0-1.4h0c-0.1-0.1-0.1-0.2-0.2-0.3h0"/>
				<path class="st17" d="M334.1,201.1c-1.9,1-2.9,3.2-2.9,5.3c0,2.1,0.7,4.2,1.4,6.2c1.7,4.7,3.5,9.5,6.2,13.6"/>
				<path class="st17" d="M297.8,257.8c-0.3,2.9,1.3,5.9,3.8,7.4c0.2,0.1,0.5,0.3,0.8,0.2c0.3-0.1,0.5-0.4,0.8-0.7
					c1.7-2.2,5.2-1.3,7.4,0.3s4.2,3.9,6.9,4.2c3.1,0.3,5.7-2,8.4-3.5c1.6-0.9,3.2-1.5,4.9-2.1c0.9-0.3,2-0.7,2.8-0.3
					c0.9,0.4,1.1,2,0.2,2.3c3.4,0.2,6.9-1.6,8.7-4.6s1.8-6.9,0.1-9.8c-0.8-1.3-2-2.5-3.5-2.8c-1.5-0.3-3.3,0.7-3.5,2.3"/>
				<path class="st17" d="M282.9,292c0.2,0.1,0.4,0.2,0.7,0.3c4.6,2.4,9.8,3.6,15,3.7c4.6,0,9.3-0.9,13.8,0.2
					c2.1,0.5,4.2,1.4,6.3,1.2c3.4-0.3,6-3.1,9.3-3.6c3.3-0.5,6.5,1.5,9.9,1.7c5.5,0.4,10.2-3.7,15.4-5.5c0.5-0.2,0.9-0.3,1.4-0.4
					c0.8-0.2,1.6-0.4,2.4-0.4"/>
				<path class="st17" d="M354.7,289.2c-7.1-1.4-14-3.4-20.8-5.8c-2.4-0.8-4.9-1.8-7.3-1.1c-3.1,0.8-5.7,4.1-8.9,3.5
					c-1.5-0.3-2.6-1.3-4-1.8c-1.8-0.7-3.7-0.5-5.6-0.2c-4.6,0.7-9.1,1.9-13.5,3.6c-4.3,1.7-8.8,3.8-13.3,2.9
					c0.2,0.2,0.4,0.4,0.6,0.6c0.5,0.5,1.1,1,1.7,1.3c0.1,0.1,0.2,0.1,0.3,0.2"/>
				<path class="st17" d="M280.9,292c2.3,3.4,4.6,6.9,7.8,9.4c3,2.5,6.8,4,10.4,5.4c6.7,2.6,13.6,5,20.8,5.2
					c14.2,0.4,28.2-8.8,33.5-22"/>
				<path class="st18" d="M319.4,318c-0.6,0.5-0.7,1.5-0.4,2.2c0.6,1.5,2.7,2,3.9,1.1c1.3-1,1.2-3.2-0.2-4c-1.1-0.6-2.6-0.2-3.2,0.8
					"/>
				<path class="st17" d="M277.8,271.8c-1.4,1.8-2.8,3.6-4.2,5.4c-1.8,2.3-3.6,4.6-4.1,7.5c-0.6,2.8,0.5,6.2,3.1,7.3"/>
				<path class="st17" d="M360.6,270.3c1.3,2.6,3.3,4.8,4.9,7.2s2.9,5.3,2.6,8.2c-0.4,3.4-2.7,6.1-5,8.6"/>
				<path class="st17" d="M392.7,143.3L392.7,143.3c6.8,8.8,9.4,20,10.3,31c0.9,11,0.4,22.1,1.9,33.1c0.7,4.8,1.7,9.6,2.6,14.5
					c0.7,3.7,1.2,7.5,1.3,11.3c0.1,1.1,0.1,2.1,0,3.2c-0.4,11.7-5.4,22.6-9.1,33.6c-5.3,15.7-8.4,32.7-18.2,46.2
					c-3.5,4.8-7.7,8.9-12.1,12.9c-0.9,0.9-1.8,1.7-2.8,2.6c-8,7.3-16.3,14.8-26.5,18.3c-5.1,1.7-10.5,2.4-15.9,2.5
					c-2.6,0.1-5.2,0-7.9-0.1c-5.3-0.2-10.7-0.6-15.9-2.1c-5.2-1.5-10-4-14.5-7.1c-4.9-3.3-9.5-7.2-13.9-11.1
					c-4.5-3.9-9.1-7.9-12.8-12.7c-3.1-3.9-5.4-8.3-7.3-12.9c-2.8-6.7-4.6-13.9-6.2-21c-2.8-12.1-5.3-24.3-5.7-36.7
					c-0.5-13.5,1.4-26.9,3.3-40.2c0.6-4.6,1.3-9.1,2-13.7c0.1-0.8,0.3-1.5,0.4-2.3c0-0.1,0-0.2,0-0.2v0c0-0.1,0-0.2,0.1-0.3
					c0.3-1.8,0.6-3.6,0.9-5.4c0.1-0.3,0.1-0.7,0.2-1c0.3-1.9,0.7-3.8,1.1-5.7c0.1-0.4,0.2-0.8,0.3-1.3c3.2-15.6,7.7-30.8,15.6-44.4
					c0.4-0.6,0.7-1.2,1.1-1.8"/>
				<path class="st17" d="M349.9,82.3c-0.9,1.8-2,3.4-3.3,4.8h0c-7,7.6-19.2,9.9-29.6,13c-20.5,6-38.7,18.3-53.2,34.1
					c-6.6,7.3-12.4,15.3-17.2,23.8c-4.2,7.4-7.7,15-10.6,23c-7.7,21.2-11,44.2-10.7,66.8c0.3,24.2,4.6,48.2,6.4,72.3
					c0.9,12.4,1.2,24.9,0.8,37.4"/>
				<path class="st17" d="M232.5,237.4c-0.1,28.9,8.6,57.1,14.2,85.5c3.3,16.4,5.5,33,6.8,49.6c1.1,14.4,1.5,28.8,1.1,43.3
					c-0.6,21.9-3,44.4-12.3,64.1c-0.4,0.8-0.7,1.6-1.1,2.4c-0.3,0.7-0.7,1.3-1,2"/>
				<path class="st17" d="M344.5,76c-0.7-4.1-2.4-7.7-4.9-10.8c-7.4-9.4-21.5-14-33.8-11.9C289.4,56,275.7,67,263.1,77.7
					c-25.5,21.7-51,45.1-64.5,75.7c-16.6,37.4-13.3,80.4-21.8,120.4c-4.7,22.2-13.1,43.7-15,66.4c-1,12.4-0.1,24.8,0,37.2
					c0.2,32.9-5.8,65.8-17.7,96.4c-7,18.2-16.3,37.2-12.5,56.4v0"/>
				<path class="st17" d="M341,64.6c22,1.5,41.8,15.4,55.3,32.8c13.5,17.5,21.8,38.4,29.4,59.1c7.9,21.3,15.4,42.9,18.9,65.4
					c3.4,21.9,3,44.2,1.8,66.4c-0.7,12.4-1.7,24.9-0.6,37.3c1.4,14.9,5.7,29.4,9.2,44c13.2,56,12.8,115.2-1.3,171
					c-0.4,1.7-0.9,3.4-1.3,5.1"/>
				<path class="st17" d="M370,329.8c-8.3,22-9.9,45.8-11.5,69.2c-0.9,14-1.9,27.9-2.8,41.9c-0.2,2.9-0.4,5.9-0.6,8.8
					c-0.7,10.3-1.4,20.7-1.1,31.1c0.5,19.4,4.4,38.6,11.3,56.7c0.1,0.1,0.1,0.3,0.2,0.4c0.9,2.5,2,4.9,3,7.3
					c1.1,2.5,2.3,5.1,3.6,7.5"/>
				<path class="st17" d="M412.2,213c0.2-1.3,0.4-2.7,1-4c0.1-0.3,0.3-0.5,0.4-0.8c0.9-1.4,2.8-2.3,4.3-1.6c2,0.9,2.1,3.7,1.7,5.9
					c-1.2,7.4-4.1,14.5-8.4,20.5"/>
				<path class="st17" d="M208.4,191.2c-3.3,11.1-6,22.3-8,33.7"/>
				<path class="st17" d="M207.6,215.4c-0.7,27-5.8,53.8-15.2,79.1"/>
				<path class="st17" d="M213.4,258.1c-4,24-7.9,47.9-11.9,71.9c-1.3,8-2.6,15.9-3.3,24c-0.7,8.6-0.6,17.3-1,26
					c-1.7,39.8-12.4,79.2-31.2,114.4"/>
				<path class="st17" d="M219.7,445.4c4.6-15.6,8-31.5,10.2-47.6"/>
				<path class="st17" d="M209,526.2c-3.9,9.7-7,19.8-9.3,30c-0.2,0.6-0.3,1.3-0.4,1.9"/>
				<path class="st16" d="M209,526.2C208.9,526.2,208.9,526.2,209,526.2"/>
				<path class="st17" d="M241.9,376.4c1.9,38.9-0.9,78.9-16.6,114.6c-3.6,8.1-7.7,15.9-11.4,23.8c-0.2,0.5-0.5,1-0.7,1.4
					c-1.5,3.3-2.9,6.6-4.2,9.9"/>
				<path class="st17" d="M369.8,372c4.1-19.9,13-38.8,25.7-54.6"/>
				<path class="st17" d="M347.4,87.3c0.8,10.9,5.8,21.4,13.8,28.8c7.5,6.9,17.1,11,25.6,16.6c2.4,1.6,4.7,3.2,6.8,5.1
					c16.8,15,20.1,39.7,20,62.2"/>
				<path class="st17" d="M422.2,186.9c7.7,11.3,7.5,26.4,4,39.7c-3.5,13.2-10,25.5-14,38.6c-4.6,14.7-6,30.3-4.3,45.6"/>
				<path class="st17" d="M428.5,294.5c-8,28-1.6,58.1-4.8,87c-4.3,39.2-26.2,75.6-25.6,115"/>
				<path class="st17" d="M433.3,530.8c-5.3-16.3-3.6-34.1,0-50.8c3.6-16.8,9.1-33.1,11.4-50.1c2.2-16.3,1.3-32.9-2.6-48.9"/>
				<path class="st17" d="M168,640.2c-4-12.3-5-25.6-2.8-38.4c1.2,12.9,8.2,24.8,17.2,34c9.1,9.3,20.1,16.3,31.1,23.1
					c-17.7-17.7-27.3-43.2-25.7-68.2c0.7,4,3.7,7.5,7.6,8.7c-3.7-9.4-5.1-19.7-3.9-29.8c2.5,3.6,4.9,7.3,7.4,10.9
					c0.2-8.1,0.4-16.3,0.6-24.4c0.1-2.1,0.1-4.2,0.2-6.3"/>
				<path class="st17" d="M168,640.2c1.8,4.1,3.5,8.3,5.3,12.4C171.1,648.6,169.4,644.4,168,640.2z"/>
				<path class="st17" d="M132.1,529.9c0,0.1,0,0.3,0,0.4c0.1,8.8,1.2,17.5,3.2,26.1c3.3,14.3,9.1,27.9,14.8,41.5
					c6,14.1,11.9,28.2,17.9,42.3"/>
				<path class="st17" d="M369.4,546.7c1.1,2,2,4,2.8,6.1c0,0,0,0.1,0,0.1c3.5,9.7,3.6,20.6,1.7,30.7c-0.6,3.2-1.4,6.4-2.4,9.5
					c-2.7,8.9-6.6,17.6-10.5,26.1c4.5-3.7,8.5-7.9,12-12.5v0c3.9-5.1,7-10.6,9.4-16.5c-0.4,13.9-2.4,27.8-5.6,41.4
					c-1.8,7.5-4,14.9-6.7,22.1c-4,11-9,21.8-14.9,31.9c21.9-20.3,39.5-45.2,51.5-72.6c0.6,10.6,1.2,21.4-1.4,31.7
					c7.8-14,15.6-28,23.4-42c9.6-17.3,19.5-35.4,20.5-55.2c0.7,5.1,1.5,10.2,2.2,15.3c1.8-7.2,2.5-14.7,2.3-22.1
					c-0.1-1.9-0.2-3.7-0.4-5.6"/>
				<path class="st17" d="M240.7,482c-3.6,6-7.4,11.8-11.3,17.6c0,0.6,0.1,1.3,0.1,1.9c-2,0.4-2.4,3-2.8,5c-0.4,2-1.1,3.9-1.8,5.8
					c-4.2,11.8-4.6,24.6-5,37.1c-2.4-11.4-4.4-22.8-5.8-34.4"/>
				<path class="st17" d="M385.7,134.3c2.1,3.2,4.1,6.4,6.2,9.6c0.7,1,1.3,2.1,2,3.1"/>
				<path class="st17" d="M413.2,209.4c0-0.1,0-0.2,0.1-0.4c0.5-3,0.5-6,0.1-9c-0.1-0.7-0.2-1.4-0.4-2.2"/>
				<path class="st17" d="M407.6,221.9c1.2-3.1,2.8-6.1,4.7-8.8c0.5-0.8,1.1-1.5,1.6-2.2"/>
				<path class="st17" d="M251,306.9c6.6,21.1,8,43.8,4.1,65.5"/>
				<path class="st19" d="M249.7,181.3c0.4-0.6-0.5-1.2-1.2-1.3c-0.2,0-0.3-0.1-0.5-0.1c-0.4-0.1-0.9-0.1-1.3-0.2
					c-1-0.1-2-0.3-2.9,0c-0.9,0.3-1.7,1.3-1.5,2.2c-0.2,0-0.5,0-0.7,0c-1,2-1.6,4.4-0.9,6.5c0.5,1.6,1.9,2.8,3.4,3.4
					c0.3,0.1,0.5,0.2,0.8,0.2c0.3,0.1,0.5,0.1,0.8,0.1c0.5,0,1,0,1.5-0.1c2.7-0.7,4.5-3.6,4-6.3"/>
				<path class="st19" d="M244.4,191.6c0,0.1-0.1,0.1-0.1,0.2c-0.1,0.2-0.2,0.4-0.3,0.5c-0.3,0.5-0.4,1-0.2,1.5
					c0.1,0.3,0.5,0.5,0.8,0.5c0.4,0,0.9-0.2,0.8-0.7"/>
				<path class="st19" d="M320.7,319c-0.1,0.3-0.2,0.7-0.3,1"/>
			</g>
		</g>
	</g>
</g>
</svg>
