<?xml version="1.0" encoding="utf-8"?>
<!-- Generator: Adobe Illustrator 24.0.0, SVG Export Plug-In . SVG Version: 6.00 Build 0)  -->
<svg version="1.1" id="Layer_1" xmlns="http://www.w3.org/2000/svg" xmlns:xlink="http://www.w3.org/1999/xlink" x="0px" y="0px"
	 viewBox="0 0 595.3 841.9" style="enable-background:new 0 0 595.3 841.9;" xml:space="preserve">
<style type="text/css">
	.st0{fill:#335C64;}
	.st1{fill:none;stroke:#FFFFFF;stroke-width:5;stroke-miterlimit:10;}
	.st2{fill:none;stroke:#FFDE17;stroke-width:5;stroke-miterlimit:10;}
	.st3{fill:#FFFFFF;}
	.st4{fill:#F59CB0;}
	.st5{fill:#F276A0;}
	.st6{fill:#DB5C87;}
	.st7{fill:none;stroke:#000000;stroke-width:5;stroke-miterlimit:10;}
	.st8{fill:#F5FAF4;}
</style>
<g id="XMLID_2_">
	<g>
		<path class="st0" d="M523.6,105.5c1.9,1.5,3.9,2.9,6,4c-16.1,56-20.1,114.8-24.1,172.9c-2.4,35.8-4.9,71.5-7.1,107.3
			c-6.1,49.7-11.2,99.6-9.6,149.6c0.3,10.3,0.9,20.5,1.8,30.8c-1.3,67.7-0.4,135.4,4.5,202.9l-0.3,1.4
			c-127.9-27.5-260.1-34.8-390.3-21.5c-3.4-27.5-6.5-55.1-9.5-82.7c-2.1-58.3-8.4-116.3-16.2-174.4C68.1,358.7,62.1,221.2,60.9,83.6
			l-0.5-2.4c51-9.8,103.6-11.2,155.1-4.1c43.6,6,86.3,18.1,130.1,22.5C404.7,105.6,465.2,97.5,523.6,105.5z"/>
	</g>
	<g>
		<path class="st1" d="M161.8,671.9c4.8,12.6,9.5,25.2,14.3,37.8"/>
		<path class="st2" d="M60.9,83.6c1.2,137.6,7.2,275.1,17.9,412.2c4.5,58.2,10,116.3,16.2,174.4c3,27.6,6.2,55.2,9.5,82.7
			c0.1,0.5,0.1,1,0.2,1.5"/>
		<path class="st2" d="M531.9,101.8c-0.4,1.2-0.7,2.3-1.1,3.5c-0.1,0.4-0.2,0.8-0.3,1.2c-0.3,1-0.6,2-0.9,3
			c-16.1,56-20.1,114.8-24.1,172.9c-2.4,35.8-4.9,71.5-7.1,107.3c-3.7,60.1-6.7,120.3-7.9,180.4c-1.3,67.7-0.4,135.4,4.5,202.9"/>
		<path class="st2" d="M68.7,757.1c0.8-0.1,1.6-0.2,2.4-0.3c11.1-1.4,22.3-2.7,33.4-3.9c130.2-13.3,262.4-6,390.3,21.5
			c7.5,1.6,14.9,3.3,22.3,5"/>
		<path class="st2" d="M70.4,763.3c75.4,7.5,151,15.1,226.8,15.9c72.1,0.8,145.1-4.4,215.9,7.4c7.1,1.2,14.3,2.6,21.3,4.1"/>
		<path class="st2" d="M33.1,88.5c0.1,25,1.1,50,2.8,74.9c6.4,96.4,22.7,192.3,36.7,288.3c2.1,14.7,4.2,29.4,6.2,44.1
			c7.8,58,14.1,116.1,16.2,174.4c0.9,24.1,1,48.2,0.2,72.4"/>
		<path class="st2" d="M545.1,112.7c-0.2,0.6-0.3,1.3-0.5,1.9c-0.2,0.8-0.4,1.6-0.6,2.4c-20.2,76.4-30.7,155.1-40.6,233.6
			c-0.6,4.5-1.1,9-1.7,13.4c-1.1,8.5-2.1,17.1-3.2,25.6c-6.1,49.7-11.2,99.6-9.6,149.6c0.3,10.3,0.9,20.5,1.8,30.8
			c5.6,68.6,22.1,136,38.5,203"/>
		<path class="st2" d="M37.8,86.1c7.5-1.8,15-3.5,22.6-4.9c51-9.8,103.6-11.2,155.1-4.1c43.6,6,86.3,18.1,130.1,22.5
			c59,5.9,119.5-2.1,177.9,5.8c2.3,0.3,4.6,0.6,6.9,1c0.8,0.1,1.7,0.3,2.5,0.4c6.7,1.1,13.4,2.5,20.1,4.1"/>
		<path class="st2" d="M41.4,74.3c1.1,1.1,2.4,1.8,3.8,2.1c5.4,1.4,12.3-2.4,16-7.3C65.8,63,68.6,55,75,50.7
			c4.7-3.2,10.6-3.8,16.2-4.4c11.2-1.2,22.5-2.3,33.7-3.5c11.9-1.2,24.2-2.5,34.9-8c10.6-5.3,18.8-14.3,29.1-20.2
			c14.8-8.5,32.5-10,49.5-10.4c19.6-0.4,39.5,0.5,58.2,6.3c25.2,7.9,46.7,24.3,70.6,35.5c46.6,22,102.5,24.9,147,48.7
			c5.8,3.1,11.4,6.6,16.7,10.5c0.7,0.5,1.4,1,2.1,1.6c1.7,1.3,3.4,2.6,5,4"/>
		<path class="st2" d="M190,69.4c9.2,3,19.4,1.3,28.2-2.8c8.7-4.1,16.2-10.5,23.1-17.2c3.6-3.5,7.2-7.2,9.5-11.7
			c2.3-4.5,3.2-9.9,1.2-14.6c-2.1-5-7.1-8.3-12.4-9.7c-5.3-1.4-10.8-1.1-16.2-0.7c-4.6,0.3-9.3,0.7-13.6,2.6s-7.9,5.6-8.6,10.1
			c-0.7,5.3,2.9,10.4,7.3,13.4c3.6,2.4,8,3.9,12.4,3.4c4.3-0.5,8.5-3.1,10.4-7c1.8-4,0.9-9.2-2.6-11.8c-3.5-2.6-9.2-1.9-11.5,1.8
			c-2.3,3.7,0.2,9.5,4.5,10"/>
		<path class="st2" d="M296.7,82.3c-12.4-2.6-24.5-9.1-31.3-19.7c-6.8-10.7-7.1-25.9,1.4-35.3c5.7-6.3,14.5-9.2,22.9-8.5
			c8.4,0.6,16.4,4.6,22.7,10.2c4.2,3.7,7.8,8.3,9.5,13.6c1.6,5.3,1.1,11.5-2.3,16c-4.8,6.1-13.7,7.5-21.3,5.9c-4.8-1-9.6-2.9-13-6.4
			c-3.5-3.5-5.5-8.6-4.4-13.4s5.6-8.8,10.5-8.5c4.9,0.3,9.1,5.6,7.6,10.3c-1.5,4.7-8.9,6.2-11.7,2.1"/>
		<path class="st2" d="M542.2,116.6c-21,76.4-33.9,155-38.9,234c-9.2,146.7,9.2,295.2,54.8,434.9c0.6,1.9,1.3,3.9,1.9,5.8"/>
		<path class="st2" d="M27,106.6c3,18.9,6,37.9,9,56.8c14.9,95.7,28.8,192,36.7,288.3c8.3,101.8,9.8,203.7-1.5,305.1
			c-0.2,2.2-0.5,4.4-0.7,6.6c-0.5,4.6-1.1,9.3-1.7,13.9c0,0.1,0,0.1,0,0.2c-0.3,2-0.5,3.9-0.8,5.9"/>
		<path class="st2" d="M70.4,776.3c-0.5,0.4-1.1,0.7-1.7,1c-0.1,0-0.1,0.1-0.2,0.1c-10.7,6.1-25.2,5.1-34.8-2.6
			c-10.2-8.2-14.3-23.3-9.5-35.5c2.4-6.1,7.3-11.7,13.7-12.9c8.3-1.6,16.4,4.4,20.5,11.8c2.4,4.3,3.8,9.2,3.2,14.1
			c-0.5,4.9-3.3,9.6-7.6,11.8c-4.3,2.3-10.2,1.6-13.4-2.1c-3.2-3.7-2.7-10.2,1.3-12.9c4.1-2.7,10.7,0,11.2,4.8"/>
		<path class="st2" d="M58.2,768.1c3,3.7,6.5,6.8,10.5,9.2c0.1,0,0.1,0.1,0.2,0.1c13.6,8.4,31.8,10,48.3,10.7
			c114.8,4.8,229.8,2.2,344.7-0.3c17.1-0.4,34.3-0.8,51.4-1.1c12.4-0.3,24.8-0.5,37.1-0.8c2.6-0.1,5.2-0.1,7.8-0.3
			c10.1-0.5,20.2-2.1,28.2-8c8.2-6,13.1-16.4,12.5-26.5c-0.5-9.2-5.7-18.3-13.9-22.5c-8.2-4.2-19.2-2.8-25.3,4.1
			c-6.1,6.9-5.8,18.8,1.2,24.8c4.9,4.1,12.5,4.7,17.6,1c5.1-3.8,6.6-11.9,2.7-16.9s-12.8-5.1-16.4,0.1c-3.6,5.2,0.2,13.9,6.6,14.2"
			/>
		<path class="st2" d="M513,92.8c0.4,0.7,0.8,1.4,1.2,2c2.5,4.1,5.7,7.7,9.5,10.6c1.9,1.5,3.9,2.9,6,4c4.6,2.6,9.7,4.3,15,5.2
			c6.2,1,12.6,0.7,18.6-1.3c9.5-3,18.5-10.6,19.2-20.5c0.7-9.9-6.9-18.4-14.5-24.6c-7-5.7-14.7-10.8-23.5-12.7
			c-8.8-1.9-18.8-0.1-25,6.3c-7.5,7.7-7.8,21-1,29.4c3.5,4.3,8.5,7.2,13.9,8.3c5,1.1,10.4,0.7,15.2-1.3c6.1-2.6,11.5-8.9,9.7-15.2
			c-1.4-4.8-6.3-7.7-11-9.4c-5.8-2.1-13.9-2.3-16.6,3.3c-2.3,4.8,1.6,10.7,6.6,12.5s10.5,0.7,15.8-0.4"/>
		<path class="st2" d="M29.8,93.8c-5.9,1.6-11.9,3.1-18,2.9c-6.1-0.2-12.4-2.6-16.1-7.5c-3.4-4.5-4-10.6-3-16.1
			c1-5.5,3.5-10.7,6-15.7c3-6.1,6.4-12.7,12.5-15.8c5.8-3,12.8-2.2,19.3-1c6.9,1.3,14.2,3.3,18.7,8.7c6.7,7.8,4.4,21.1-3.9,27.1
			c0,0,0,0,0,0c-8.3,5.9-20.8,4.5-28.3-2.5c-3-2.8-5.4-7.2-3.6-10.8c1.9-4,8.2-4.3,11.2-1c3,3.3,2.6,8.6,0,12.2"/>
	</g>
</g>
<g>
	<g>
		<g>
			<path class="st3" d="M240,159.9c3.1,10.5,6.3,21.1,9.4,31.6c0.8,2.7,5.6,1.6,4.7-1.4c-3.1-10.5-6.3-21.1-9.4-31.6
				C243.9,155.8,239.1,156.9,240,159.9L240,159.9z"/>
		</g>
	</g>
	<g>
		<g>
			<path class="st3" d="M264,136.2c-0.3,2.4-0.7,4.8-1,7.1c-0.1,0.6,1.3,1.5,1.7,1.9c0.1,0.1,2.2,1.5,2.2,1.2c0.3-2.4,0.7-4.8,1-7.1
				c0.1-0.6-1.3-1.5-1.7-1.9C266.1,137.3,264,136,264,136.2L264,136.2z"/>
		</g>
	</g>
	<g>
		<g>
			<path class="st3" d="M283.8,163.8c-0.4,7.3-0.8,14.7-1.3,22c1.5,0.3,3,0.6,4.5,1c0.2-11.5,2.1-22.7,5.8-33.5
				c-1.4-0.1-2.8-0.2-4.2-0.3c4.1,7.1,8.2,14.2,12.3,21.2c0.7,1.2,3,2.7,4,0.8c3.8-7,7.6-14,11.4-21c-1.3-0.3-2.6-0.6-4-0.8
				c3,9.1,5.4,18.3,7.3,27.7c0.6,2.8,5.1,3,4.5-0.2c-1.9-9.8-4.5-19.4-7.6-28.9c-0.5-1.4-3.1-2.5-4-0.8c-3.8,7-7.6,14-11.4,21
				c1.3,0.3,2.6,0.6,4,0.8c-4.1-7.1-8.2-14.2-12.3-21.2c-0.9-1.5-3.4-2.6-4.2-0.3c-3.8,11.2-5.8,22.8-6,34.7c0,2.7,4.4,4.2,4.5,1
				c0.4-7.3,0.8-14.7,1.3-22C288.5,162,284,160.6,283.8,163.8L283.8,163.8z"/>
		</g>
	</g>
	<g>
		<g>
			<path class="st3" d="M137.7,662.9c5.1-5.6,11-10.3,17.8-13.7c3.2-1.6,6.9-3.3,10.4-3.9c5.4-0.9,7.1,2.8,5.8,7.6
				c-1.9,7.2-6.5,14.1-10.6,20.2c-4.5,6.6-9.6,12.6-15.3,18.2c0.9,1.4,1.7,2.8,2.6,4.3c7.8-8.2,16.9-15,27-20.1
				c4.5-2.3,9.3-4.6,14.3-5.5c2-0.4,6.2-1.1,8,0.3c1.6,1.2,2.4,4.5,2.2,6.4c-0.1,1.5-0.8,3.1-1.3,4.5c-6.9,19.2-27,32.3-47.2,31.8
				c-0.6,0,1.1,4.3,2.2,4.3c12,0.3,23.6-3.9,32.9-11.5c7.8-6.4,18.4-19.4,16.1-30.4c-5.6-27.4-48.5,7.2-56.9,16
				c-0.8,0.8,2.2,4.6,2.6,4.3c7.7-7.5,14.4-16,19.8-25.3c3.6-6.2,8.8-14.3,6.3-21.7c-6.3-18.7-32.3,2.3-39.5,10.2
				C134.3,659.5,137.4,663.2,137.7,662.9L137.7,662.9z"/>
		</g>
	</g>
	<g>
		<g>
			<path class="st3" d="M219.2,683.7c4.3-2.1,21.6-14.7,12.5-20.2c-4.1-2.5-8.1,0.5-11.5,2.9c-5,3.6-9.6,8.3-12.9,13.6
				c-5.4,9-0.7,17.6,9,20c11.4,2.9,19.7-5.8,26.3-13.8c1.3-1.6-3.1-3.9-4.1-2.6c-4.6,5.6-10.3,12.8-18,13.8
				c-3.4,0.5-7.5-0.5-9.6-3.4c-2.9-4-0.9-9,1.5-12.6c2.1-3.2,4.8-6.2,7.7-8.8c1.1-1,6.5-6.5,8.3-6.1c3,0.6-4,8.1-4.5,8.6
				c-2.6,2.5-5.5,4.5-8.7,6.1C213.6,681.8,217.6,684.5,219.2,683.7L219.2,683.7z"/>
		</g>
	</g>
	<g>
		<g>
			<path class="st3" d="M256.2,674.4c2.8-1.9,6-4.4,5.7-8.1c-0.2-2.9-2.4-5-5.3-5.2c-4.1-0.4-7.5,3-10.2,5.6
				c-3.7,3.6-7.5,7.5-10.4,11.8c-3.3,4.9-2.2,13,5.5,10.7c4.3-1.3,7.6-6,10.5-9.1c4.6-4.8,9.3-9.5,13.9-14.3
				c-1.1,0.2-2.3,0.4-3.4,0.5c2.5,0.9-1.8,8.6-0.5,11.4c1.1,2.4,3.9,3.7,6.4,4.1c8.8,1.4,12.4-6.8,14-13.9c0.6-2.5-3.1-2.9-4.5-1.6
				c-5.9,5.7-2.6,15,5,17c8.5,2.3,15.7-3.9,16.7-12.1c0.3-2.2-3.6-2.3-4.6-1.1c-4.3,5-3.9,13.1,1.9,16.9c5.3,3.5,12.7,2.1,16.7-2.5
				c1.9-2.1-2.8-3.7-4.2-2c-7,8.1-16.4-3.1-10.1-10.4c-1.5-0.4-3.1-0.7-4.6-1.1c-0.6,5-5,11.3-11,8.6c-4.7-2.1-4.8-8.1-1.5-11.3
				c-1.5-0.5-3-1-4.5-1.6c-0.7,3.1-1.5,6.7-3.5,9.2c-1.4,1.7-4.4,3.4-6.5,1.6c-2.2-1.8-0.6-4,0.1-6c1.1-3.3,1.3-7-2.5-8.4
				c-1.2-0.4-2.5-0.4-3.4,0.5c-3.7,3.8-7.4,7.6-11.1,11.4c-1.9,1.9-3.7,3.8-5.6,5.7c-0.9,1-1.9,1.9-2.8,2.9
				c-2.9,0.3-3.8-0.5-2.7-2.2c1.2-3.8,6-7.9,8.7-10.7c1.5-1.5,3.8-4.5,5.7-5.3c3.4-1,4,0.1,1.9,3.4c-1,1-2,1.9-3.2,2.6
				C250.2,673.4,254.3,675.7,256.2,674.4L256.2,674.4z"/>
		</g>
	</g>
	<g>
		<g>
			<path class="st3" d="M332.4,623.8c-6.9,16.2-8.9,33.8-5.6,51.1c1.5-0.3,3.1-0.7,4.6-1c-5.2-5.1-8.8-11.2-10.5-18.4
				c-1,0.6-2.1,1.1-3.1,1.7c13.6,0.7,27.1-0.8,40.1-4.8c-1-0.8-1.9-1.5-2.9-2.3c-4.8,5.9-11.2,15.7-3.9,22.4
				c4.3,3.9,12.9,2.8,14.7-3.2c0.7-2.3-4.3-2.7-4.9-0.7c-1.3,4.2-5.7,3.2-7.3-0.2c-0.9-1.9-1-3.9-0.6-6c0.7-4.3,3.6-7.7,6.3-10.9
				c1.4-1.7-1.7-2.6-2.9-2.3c-12.2,3.7-24.8,5.3-37.5,4.7c-0.8,0-3.5,0.2-3.1,1.7c1.9,7.7,5.6,14.4,11.3,20c0.9,0.9,5,1.1,4.6-1
				c-3.3-17-1.4-34.3,5.4-50.2C338.1,622.3,333.2,621.9,332.4,623.8L332.4,623.8z"/>
		</g>
	</g>
	<g>
		<g>
			<path class="st3" d="M379.6,658.6c11.3-9,21-19.8,28.6-32.1c4.9-8,13.8-25.3-1.2-28.5c-12.3-2.6-20.8,10.1-25.9,19.3
				c-7.3,13.2-11,28.2-12.1,43.2c-1.4,19.1,1.4,38.1,5.1,56.7c1.5-0.7,3-1.3,4.5-2c-6-18.3-7.6-37.5-4.9-56.5
				c-1.5,0.4-3.1,0.7-4.6,1.1c0.8,9.4,10.7,14.1,19.3,13.2c11.6-1.2,19.5-11.7,25.8-20.4c-1.4-0.1-2.7-0.2-4.1-0.3c-1,5-2,10-3,15
				c-0.3,1.5,1.4,1.9,2.5,1.4c6.2-2.5,11.3-6,15.9-10.9c-1.4-0.1-2.7-0.2-4.1-0.3c-1.8,5.6,1.9,11,7.2,13c5.8,2.3,12.3-0.2,17.1-3.7
				c12.4-8.9,21.7-24.2,27.2-38.2c1.3-3.2,2.4-6.5,3.4-9.9c0.8-2.9,2.7-7.4,1.5-10.3c-2.1-5.2-8.7-0.7-11.4,1.3
				c-11.2,8.5-19.2,21.4-21.6,35.2c-3,17,2.7,34.4,14.2,47.1c1.4,1.5,5.5-1.3,3.8-3.1c-20-21.9-18.4-57.3,5.1-76.1
				c1.1-0.9,3.8-3.5,5.5-1.8c0.6,0.6-0.7,4.2-0.9,5.1c-0.9,3.7-2,7.3-3.3,10.8c-2.5,6.6-5.7,13-9.6,19c-4.2,6.4-9.2,13-15.3,17.7
				c-3.5,2.7-8.2,5-12.7,3.2c-4.1-1.6-6.9-5.7-5.6-10.1c0.8-2.5-3.3-1.2-4.1-0.3c-3.6,3.8-7.8,6.7-12.7,8.7c0.8,0.5,1.7,1,2.5,1.4
				c1-5,2-10,3-15c0.5-2.4-3.3-1.5-4.1-0.3c-5,7-11.1,16.1-20.1,17.8c-7.3,1.4-16-2.9-16.7-10.8c-0.2-2.4-4.4-0.6-4.6,1.1
				c-2.8,19.7-1.1,39.4,5.1,58.3c0.6,1.9,4.9-0.2,4.5-2c-6.5-32.1-10-67.3,6.2-97.3c3.5-6.4,9.2-17,17.7-16.9
				c11.4,0.1,8.2,12.4,4.7,18.9c-7.4,14.1-17.9,26.3-30.4,36.1C374.3,658.4,377.5,660.2,379.6,658.6L379.6,658.6z"/>
		</g>
	</g>
</g>
<g id="XMLID_1_">
	<g>
		<path class="st4" d="M197,269c1.6,0.6,3.2,1.1,4.9,1.5L197,269z M196.9,269c-12.8-4.6-23.9-14.1-30.1-26.3
			c-7-13.7-7.8-30.4-2.2-44.7c17.2,0.8,34.8,1.6,50.8,8c16,6.4,30.3,19.7,33.1,36.7c25.4-14.5,59.3-12.7,83.1,4.4
			c23.1-27.2,56.6-45.5,92-50.2c-1.7,23.5-3.6,47.8-14.5,68.8c-10.9,20.9-33.3,37.8-56.7,34.7c10.6,19.4,8.5,43,5.8,64.9
			c-2.8,22.5-6.9,49.7-11.5,78.5c-9.2,56.3-20.8,118.3-30,161.7c0,0,0,0,0,0c-3.7-5-6.1-10.8-7.2-16.8c-6.7,9.6-12.9,19.7-18.3,30.1
			c-4.1-28.9-10.4-57.4-18.6-85.4c-4.5,27.9-10.3,55.6-17.5,83c-3.3-5.9-6.5-11.9-9.8-17.8c-1.3,7.3-2.5,14.6-3.8,21.9
			c-3.9-6.2-7.3-12.6-10.2-19.2c-11.7-26.7-15.7-56.7-19-85.9c-2.9-26.1-5.4-52.9-7.5-79.9C200.4,379.8,197.8,323.1,196.9,269z
			 M330.4,337.5c5.9-12,2.4-27.5-7.1-37c-9.5-9.5-24-13-37.1-10.7c-37.7,10.9-52,31.8-60.2,51.2c-2.8,6.6-4.1,15.3,1.4,19.8
			c3.4,2.8,8.2,2.7,12.5,1.2c15.6,11.2,34.8,16.3,62.7-6.7h0C314.4,353.8,325.3,347.9,330.4,337.5z"/>
		<path class="st5" d="M347.2,443.8c7.2,9.5,13.1,22,12.2,33.8c-0.9,11.9-4.6,23.3-8.3,34.6c-9.1,27.9-25.2,65.3-34.3,93.2l-0.2,0
			c9.2-43.4,20.8-105.4,30-161.7L347.2,443.8z"/>
		<path class="st5" d="M240,362.1c-4.3,1.5-9.1,1.6-12.5-1.2c-5.5-4.5-4.2-13.3-1.4-19.8c8.2-19.4,22.4-40.3,60.2-51.2
			c13.2-2.4,27.6,1.2,37.1,10.7c9.5,9.5,13,24.9,7.1,37c-5.1,10.4-16,16.4-27.7,17.9h0c-5.8,0.8-11.9,0.5-17.5-0.9
			c-8.2-2-16.5-5.8-24.6-3.8c-6,1.5-10.6,6-15.9,9.1C243.3,360.8,241.7,361.5,240,362.1z"/>
		<path class="st6" d="M285.3,354.5c5.6,1.4,11.6,1.7,17.5,0.9c-27.9,23-47.2,17.9-62.7,6.7c1.7-0.6,3.3-1.3,4.7-2.2
			c5.3-3.1,9.9-7.6,15.9-9.1C268.8,348.6,277.1,352.5,285.3,354.5z"/>
		<path class="st5" d="M231.2,601.3c-0.9,3.6-1.8,13.1-2.6,16.6c-20.8-27-41.9-54.8-51.6-87.4c-9.7-32.6,3-71.6,27.7-95.1l0.1,0
			c2.1,27,4.6,53.8,7.5,79.9C215.5,544.6,219.5,574.6,231.2,601.3z"/>
	</g>
	<g>
		<path class="st7" d="M302.7,355.4c11.7-1.6,22.6-7.5,27.7-17.9c5.9-12,2.4-27.5-7.1-37c-9.5-9.5-24-13-37.1-10.7
			c-37.7,10.9-52,31.8-60.2,51.2c-2.8,6.6-4.1,15.3,1.4,19.8c3.4,2.8,8.2,2.7,12.5,1.2c1.7-0.6,3.3-1.3,4.7-2.2
			c5.3-3.1,9.9-7.6,15.9-9.1c8.1-2.1,16.5,1.7,24.6,3.8C290.9,355.9,296.9,356.2,302.7,355.4"/>
		<path class="st7" d="M256.8,326.7c0-0.3,0-0.7,0-1"/>
		<path class="st7" d="M240,362.1C240,362.1,240,362.1,240,362.1c15.6,11.2,34.8,16.3,62.7-6.7h0"/>
		<path class="st7" d="M196.9,269c-12.8-4.6-23.9-14.1-30.1-26.3c-7-13.7-7.8-30.4-2.2-44.7c17.2,0.8,34.8,1.6,50.8,8
			c16,6.4,30.3,19.7,33.1,36.7c25.4-14.5,59.3-12.7,83.1,4.4c23.1-27.2,56.6-45.5,92-50.2c-1.7,23.5-3.6,47.8-14.5,68.8
			c-10.9,20.9-33.3,37.8-56.7,34.7c10.6,19.4,8.5,43,5.8,64.9c-2.8,22.5-6.9,49.7-11.5,78.5c-9.2,56.3-20.8,118.3-30,161.7
			c0,0,0,0,0,0"/>
		<path class="st7" d="M197,269l4.9,1.5C200.2,270.1,198.6,269.6,197,269z"/>
		<line class="st7" x1="197" y1="269" x2="196.9" y2="269"/>
		<path class="st7" d="M283,418.6c-0.9,38.4-4.4,76.8-10.5,114.8c-4.5,27.9-10.3,55.6-17.5,83c-3.3-5.9-6.5-11.9-9.8-17.8
			c-1.3,7.3-2.5,14.6-3.8,21.9c-3.9-6.2-7.3-12.6-10.2-19.2c-11.7-26.7-15.7-56.7-19-85.9c-2.9-26.1-5.4-52.9-7.5-79.9
			c-4.3-55.6-6.9-112.3-7.8-166.4"/>
		<path class="st7" d="M272.4,532.9c0.1,0.2,0.1,0.3,0.1,0.5c8.3,28,14.5,56.5,18.6,85.4c5.4-10.4,11.6-20.5,18.3-30.1
			c1.1,6.1,3.6,11.9,7.2,16.8"/>
		<path class="st7" d="M204.6,435.5c-24.6,23.5-37.4,62.5-27.7,95.1c9.7,32.6,30.9,60.4,51.6,87.4c0.9-3.6,1.7-13.1,2.6-16.6"/>
		<path class="st7" d="M347.2,443.8c7.2,9.5,13.1,22,12.2,33.8c-0.9,11.9-4.6,23.3-8.3,34.6c-9.1,27.9-25.2,65.3-34.3,93.2"/>
		<path class="st7" d="M189.4,214.3c9.8,2.7,19.2,7.1,27.6,12.9c1.8,1.3,3.8,3.5,2.6,5.3c-0.8,1.4-2.8,1.4-4.4,1.3
			c-5.4-0.3-10.8-0.7-16.1-1c3.9,0.6,8,1.4,11.1,3.8c3.1,2.5,4.7,7.3,2.4,10.5c-1.7,2.3-4.7,3-7.5,3.3c-13.9,1.5-28.4-5.6-35.8-17.5
			"/>
		<path class="st7" d="M389.5,220.4c-16.7,1.2-32.5,11.8-39.8,26.8c-1.2,2.5-2.1,5.6-0.4,7.8c2.3,2.8,6.9,1.3,9.8-0.9
			c2.9-2.1,6.4-4.8,9.8-3.5c-6.4,3.4-13,7.1-16.8,13.4c-3.7,6.2-3.1,15.6,3.2,19.2c4,2.3,9,1.6,13.5,0.3
			c17.7-5.1,32.9-18.5,40.1-35.5"/>
	</g>
</g>
<g>
	<g>
		<path d="M309.9,280.3c9.7,0,9.7-15,0-15C300.2,265.3,300.2,280.3,309.9,280.3L309.9,280.3z"/>
	</g>
</g>
<g>
	<g>
		<path d="M254.7,287.7c7.7,0,7.7-12,0-12C247,275.7,247,287.7,254.7,287.7L254.7,287.7z"/>
	</g>
</g>
<g>
	<g>
		<path d="M300.2,324.3c7.7,0,7.7-12,0-12C292.5,312.3,292.5,324.3,300.2,324.3L300.2,324.3z"/>
	</g>
</g>
<g>
	<g>
		<path d="M258.8,331.7c7.7,0,7.7-12,0-12C251.1,319.7,251.1,331.7,258.8,331.7L258.8,331.7z"/>
	</g>
</g>
<g>
	<g>
		<path class="st8" d="M311.9,271.6c3.2,0,3.2-5,0-5C308.7,266.6,308.7,271.6,311.9,271.6L311.9,271.6z"/>
	</g>
</g>
<g>
	<g>
		<path class="st8" d="M255.4,281.9c3.2,0,3.2-5,0-5C252.2,276.9,252.2,281.9,255.4,281.9L255.4,281.9z"/>
	</g>
</g>
<g>
	<g>
		<path class="st3" d="M359.4,640.2c3.2,0,3.2-5,0-5C356.2,635.2,356.2,640.2,359.4,640.2L359.4,640.2z"/>
	</g>
</g>
</svg>
