<svg xmlns="http://www.w3.org/2000/svg" viewBox="0 0 611.57 791.6">
  <defs>
    <style>
      .cls-1 {
        fill: #335c64;
      }

      .cls-2, .cls-3, .cls-8 {
        fill: none;
        stroke-miterlimit: 10;
        stroke-width: 5px;
      }

      .cls-2 {
        stroke: #fff;
      }

      .cls-3 {
        stroke: #ffde17;
      }

      .cls-4 {
        fill: #fff;
      }

      .cls-5 {
        fill: #f59cb0;
      }

      .cls-6 {
        fill: #f276a0;
      }

      .cls-7 {
        fill: #db5c87;
      }

      .cls-8 {
        stroke: #231f20;
      }

      .cls-9 {
        fill: #231f20;
      }

      .cls-10 {
        fill: #f5faf4;
      }
    </style>
  </defs>
  <title>notsu</title>
  <g id="Layer_2" data-name="Layer 2">
    <g id="Layer_1-2" data-name="Layer 1">
      <g>
        <g>
          <path class="cls-1" d="M533.79,103.8a43.54,43.54,0,0,0,6,4c-16.06,56-20.12,114.75-24.09,172.93-2.43,35.75-4.87,71.52-7.06,107.32-6.06,49.72-11.17,99.62-9.63,149.64q.48,15.42,1.75,30.77c-1.34,67.7-.38,135.38,4.51,202.93l-.29,1.36a1253.27,1253.27,0,0,0-390.31-21.53q-5-41.32-9.51-82.71C103.12,610.29,96.83,552.22,89,494.2Q72.91,288.48,71.1,82l-.46-2.41a478,478,0,0,1,155.08-4.07C269.34,81.52,312,93.59,355.85,98,414.89,103.93,475.37,95.88,533.79,103.8Z"/>
          <g>
            <path class="cls-2" d="M172,670.23q7.16,18.9,14.3,37.79"/>
            <path class="cls-3" d="M71.1,82Q72.9,288.32,89,494.2q6.83,87.29,16.21,174.35,4.47,41.38,9.51,82.71c.06.51.13,1,.19,1.54"/>
            <path class="cls-3" d="M542.12,100.15c-.36,1.16-.71,2.33-1.06,3.49-.12.39-.23.78-.35,1.17-.29,1-.59,2-.88,3-16.06,56-20.12,114.75-24.09,172.93-2.43,35.75-4.87,71.52-7.06,107.32C505,448.2,502,508.36,500.8,568.5c-1.34,67.7-.38,135.38,4.51,202.93"/>
            <path class="cls-3" d="M78.86,755.45l2.42-.32Q98,753,114.71,751.26A1253.27,1253.27,0,0,1,505,772.79q11.18,2.4,22.3,5"/>
            <path class="cls-3" d="M80.64,761.69c75.44,7.54,151,15.08,226.81,15.91,72.1.78,145.07-4.43,215.94,7.4q10.71,1.79,21.35,4.11"/>
            <path class="cls-3" d="M43.3,86.8c.14,25,1.15,50,2.82,74.93,6.44,96.45,22.72,192.35,36.67,288.32Q86,472.13,89,494.2c7.84,58,14.13,116.09,16.21,174.35.87,24.11,1,48.24.24,72.41"/>
            <path class="cls-3" d="M555.29,111.08c-.17.64-.35,1.29-.51,1.93-.22.8-.43,1.6-.64,2.4C533.91,191.85,523.45,270.49,513.56,349q-.84,6.72-1.69,13.45-1.61,12.81-3.19,25.64c-6.06,49.72-11.17,99.62-9.63,149.64q.48,15.42,1.75,30.77c5.61,68.56,22.11,136,38.54,203"/>
            <path class="cls-3" d="M48,84.45q11.24-2.73,22.6-4.9a478,478,0,0,1,155.08-4.07C269.34,81.52,312,93.59,355.85,98c59,5.93,119.52-2.12,177.94,5.8,2.31.31,4.62.64,6.92,1,.83.13,1.66.26,2.48.41q10.09,1.66,20.08,4.11"/>
            <path class="cls-3" d="M51.59,72.68a8.38,8.38,0,0,0,3.8,2.13c5.44,1.39,12.29-2.4,16-7.34C76,61.29,78.75,53.34,85.16,49c4.68-3.17,10.56-3.84,16.18-4.42L135,41.12c11.94-1.24,24.19-2.55,34.89-8S188.75,18.84,199,13c14.78-8.5,32.48-10,49.53-10.36,19.59-.42,39.48.47,58.18,6.33,25.19,7.88,46.74,24.26,70.6,35.53,46.65,22,102.51,24.86,147,48.72a141.41,141.41,0,0,1,16.74,10.47c.72.51,1.43,1,2.13,1.58,1.7,1.28,3.37,2.62,5,4"/>
            <path class="cls-3" d="M200.22,67.75c9.19,3,19.42,1.29,28.16-2.82s16.19-10.51,23.14-17.23c3.62-3.5,7.19-7.18,9.48-11.66s3.17-9.94,1.24-14.59c-2.08-5-7.11-8.32-12.36-9.68s-10.78-1.06-16.19-.69c-4.61.31-9.33.7-13.55,2.58s-7.92,5.57-8.55,10.15c-.72,5.32,2.85,10.43,7.3,13.42a18.83,18.83,0,0,0,12.35,3.4,13,13,0,0,0,10.36-7c1.84-3.95.9-9.18-2.56-11.83s-9.19-1.91-11.46,1.82.21,9.52,4.54,10"/>
            <path class="cls-3" d="M306.87,80.62C294.48,78,282.38,71.56,275.55,60.9S268.42,35,276.93,25.58c5.67-6.26,14.51-9.19,22.92-8.54s16.38,4.62,22.7,10.22c4.19,3.71,7.8,8.28,9.45,13.63s1.08,11.55-2.34,16C324.91,63,316,64.33,308.4,62.81c-4.82-1-9.56-2.94-13-6.43S289.9,47.75,291,43s5.62-8.83,10.53-8.53,9.09,5.62,7.58,10.3-8.92,6.18-11.67,2.11"/>
            <path class="cls-3" d="M552.43,115a1156.28,1156.28,0,0,0-38.87,234c-9.18,146.7,9.18,295.16,54.78,434.91l1.92,5.81"/>
            <path class="cls-3" d="M37.17,104.89q4.5,28.38,8.95,56.84C61,257.42,75,353.71,82.79,450.05c8.29,101.84,9.79,203.74-1.51,305.08-.24,2.18-.49,4.37-.74,6.55q-.81,7-1.72,13.93a1.23,1.23,0,0,1,0,.2q-.37,2.94-.77,5.88"/>
            <path class="cls-3" d="M80.64,774.67c-.55.37-1.1.72-1.67,1l-.17.1c-10.71,6.11-25.16,5.13-34.81-2.59a31.8,31.8,0,0,1-9.46-35.45c2.4-6.1,7.27-11.68,13.71-12.94,8.28-1.62,16.42,4.42,20.49,11.8A23.89,23.89,0,0,1,72,750.69c-.55,4.86-3.29,9.59-7.63,11.84s-10.22,1.56-13.42-2.13-2.74-10.19,1.33-12.9,10.7,0,11.22,4.82"/>
            <path class="cls-3" d="M68.35,766.41a41.35,41.35,0,0,0,10.47,9.2l.15.1c13.59,8.43,31.76,10,48.32,10.72,114.82,4.75,229.8,2.22,344.69-.3L523.39,785l37.12-.82c2.58-.06,5.21-.13,7.83-.27,10.08-.53,20.16-2.1,28.18-8A31.3,31.3,0,0,0,609,749.39c-.53-9.19-5.67-18.25-13.87-22.46s-19.22-2.78-25.33,4.11S564,749.87,571,755.79c4.87,4.08,12.54,4.73,17.65,1s6.63-11.88,2.71-16.88S578.6,734.74,575,740s.24,13.91,6.59,14.19"/>
            <path class="cls-3" d="M523.16,91.14c.36.69.75,1.37,1.16,2a40.41,40.41,0,0,0,9.47,10.63,43.54,43.54,0,0,0,6,4A45.21,45.21,0,0,0,554.78,113a40.41,40.41,0,0,0,18.57-1.25c9.49-3,18.49-10.6,19.16-20.53S585.66,72.87,578,66.59c-7-5.68-14.72-10.76-23.51-12.67s-18.76-.13-25,6.3c-7.49,7.66-7.75,21-1,29.37a24.14,24.14,0,0,0,13.93,8.3,25.61,25.61,0,0,0,15.18-1.33c6.07-2.56,11.52-8.87,9.74-15.21-1.36-4.84-6.31-7.7-11-9.38-5.84-2.07-13.9-2.27-16.58,3.31-2.29,4.8,1.61,10.72,6.61,12.54s10.54.74,15.75-.35"/>
            <path class="cls-3" d="M40,92.17c-5.91,1.57-11.93,3.14-18,2.9S9.56,92.5,5.92,87.59c-3.36-4.51-4-10.58-3-16.11s3.51-10.66,6-15.71c3-6.14,6.39-12.67,12.46-15.81,5.82-3,12.82-2.19,19.26-1,6.89,1.32,14.18,3.33,18.74,8.66,6.67,7.8,4.39,21.11-3.94,27.1l0,0c-8.33,5.94-20.75,4.48-28.28-2.47-3-2.77-5.39-7.18-3.59-10.84,1.95-4,8.21-4.26,11.16-1s2.62,8.65,0,12.17"/>
          </g>
        </g>
        <g>
          <path class="cls-4" d="M250.22,158.25l9.44,31.58c.8,2.7,5.55,1.61,4.67-1.35l-9.44-31.59c-.8-2.7-5.55-1.61-4.67,1.36Z"/>
          <path class="cls-4" d="M274.2,134.54l-1,7.15c0,.26.25.54.39.69a12.6,12.6,0,0,0,2.79,2.18c.07,0,.74.38.76.21l1-7.15c0-.25-.25-.53-.39-.68a12.6,12.6,0,0,0-2.79-2.18c-.07,0-.73-.38-.76-.22Z"/>
          <path class="cls-4" d="M294,162.14l-1.25,22,4.54,1a104.84,104.84,0,0,1,5.8-33.52l-4.21-.34,12.29,21.23c.68,1.18,3,2.67,3.95.84l11.44-21-3.95-.85a219,219,0,0,1,7.25,27.7,2.78,2.78,0,0,0,2.69,2.25,2,2,0,0,0,1.77-2.49A229.12,229.12,0,0,0,326.69,150c-.47-1.4-3.06-2.47-3.95-.84l-11.44,21,3.95.84L303,149.82c-.87-1.51-3.43-2.57-4.2-.34a108.91,108.91,0,0,0-6,34.67,2.85,2.85,0,0,0,2.15,2.81,2,2,0,0,0,2.39-1.84l1.25-22c.16-2.74-4.36-4.14-4.54-1Z"/>
          <path class="cls-4" d="M147.86,661.19A59.85,59.85,0,0,1,171.55,645c2.84-1.05,6.2-2.27,9.21-1.22a6.07,6.07,0,0,1,1.58.86c.22.15.4.6.19.12,0-.08-.41-1.08-.26-.35a12,12,0,0,1,.26,3.59,22.33,22.33,0,0,1-2.08,7.32,111.83,111.83,0,0,1-10,17.27,117.16,117.16,0,0,1-14.43,16.93l2.61,4.27A97.25,97.25,0,0,1,193.9,670c3.68-1.44,7.71-2.7,11.71-2.15a10.71,10.71,0,0,1,2.43.62,12,12,0,0,1,2.22,1.45c.38.24-1,.23-.29-.5,0,0,.24.72.2.59a8,8,0,0,1,.23,1.54,14.46,14.46,0,0,1-.35,3.71A38.62,38.62,0,0,1,205.18,687a50.71,50.71,0,0,1-17.1,17,48.22,48.22,0,0,1-26.44,7.17c-.72,0,.17,1.62.3,1.86.27.53,1.18,2.39,1.95,2.42,17.61.58,34.84-9.15,43.89-24.2A39.19,39.19,0,0,0,212.87,679a13.94,13.94,0,0,0-4.73-13.46c-3.1-2.53-7.47-2.4-11.18-1.62-4.64,1-9.13,3.1-13.35,5.19a97.68,97.68,0,0,0-27.55,20.39c-.76.82,2.21,4.65,2.61,4.27a112.5,112.5,0,0,0,24.82-35.1,20.48,20.48,0,0,0,1.88-8,13.49,13.49,0,0,0-3.19-8.45,8.3,8.3,0,0,0-8.13-3,36.78,36.78,0,0,0-9.87,3.5,60.22,60.22,0,0,0-18.92,14.2c-.8.89,2.31,4.6,2.6,4.27Z"/>
          <path class="cls-4" d="M229,682.2a32.91,32.91,0,0,0,9.7-6.91c2.35-2.46,5.41-5.82,5.55-9.4a4.71,4.71,0,0,0-2.67-4.23,6.5,6.5,0,0,0-6.35,0,43.74,43.74,0,0,0-10.07,7.45,45.42,45.42,0,0,0-7.87,9.56c-2,3.37-3.13,7.4-1.7,11.21,2.39,6.32,10.36,9.43,16.66,9,8.9-.56,15.26-8,20.52-14.38.69-.83-.2-1.71-.93-2.18s-2.52-1.24-3.17-.44c-4.08,4.94-8.53,10.4-14.65,12.84-4.27,1.71-9.81,1.48-12.75-2.17-4.42-5.49.68-12.72,4.37-17a52.13,52.13,0,0,1,7.61-7.24q2-1.54,4.13-2.89a14,14,0,0,1,2.14-1.19,7.82,7.82,0,0,0,1-.27c-.93-.77-1.3-.91-1.11-.45a1,1,0,0,1,.11.45c.22,1.54-.69,3.1-1.48,4.34a29.69,29.69,0,0,1-3.48,4.42,30.89,30.89,0,0,1-9,6.55c-2.14,1,1.9,3.69,3.39,3Z"/>
          <path class="cls-4" d="M266.39,672.71c2.45-1.66,5.07-3.61,5.65-6.7a5.48,5.48,0,0,0-3.89-6.42c-3.18-.92-6.3.71-8.66,2.75a85.84,85.84,0,0,0-7.16,7,67,67,0,0,0-6.12,7.44c-1.37,2-2.53,4.6-2.05,7.09.58,3,3.89,4.41,6.71,3.91,3.35-.59,5.68-3.45,7.92-5.74l17.39-17.83-2.86.73c.41.1.37.07-.1-.11,0-.11.08,0,.17.19s.26.56.32.84a4.13,4.13,0,0,1-.17,2.06c-.65,2-2,3.83-1.83,6,.19,3.38,3.22,5.57,6.31,6.22a10.48,10.48,0,0,0,9.89-2.95c2.82-2.93,3.88-7.05,4.76-10.89.49-2.09-2.67-3.12-4.11-1.91a9.76,9.76,0,0,0-3.25,9.8c.85,3.87,4.15,6.53,7.84,7.56,8.23,2.31,16-3.89,16.74-12.14.08-1-1-1.62-1.78-1.81a3,3,0,0,0-2.85.73,11.36,11.36,0,0,0,1.09,16.33c5.07,4,13.55,3.18,17.53-2,1.74-2.25-2.85-3.78-4.25-2-2.4,3.11-7.23,4-10.15,1.1s-2.87-8.47,0-11.49l-4.62-1.08c-.42,4.93-4.49,10.29-9.95,9a6.39,6.39,0,0,1-4.7-4.68,6.73,6.73,0,0,1,1.76-6.64l-4.11-1.91c-.78,3.37-1.6,7.12-4,9.77a5,5,0,0,1-3.09,1.81,4.49,4.49,0,0,1-2.8-.6A2.91,2.91,0,0,1,276.7,674c-.13-1.9,1.24-3.59,1.75-5.34.94-3.25-.87-7.9-5-7.22-1.26.21-2.07,1.34-2.92,2.2l-2.6,2.68-5.05,5.17L252.8,681.83a13.53,13.53,0,0,1-2.13,1.87c-.3.2-.86.67-1.22.5-.8-.37-.34-2.37-.15-3a13.12,13.12,0,0,1,2.34-4.07c1.33-1.72,2.73-3.4,4.18-5,1.66-1.85,3.39-3.64,5.19-5.35.82-.78,1.64-1.57,2.52-2.29a6.11,6.11,0,0,1,2.6-1.53c1.21-.08,1.11,2.09.89,2.86-.56,1.92-2.51,3.13-4.07,4.18a1.53,1.53,0,0,0-.09,2.56,3.18,3.18,0,0,0,3.53.13Z"/>
          <path class="cls-4" d="M342.56,622.17A86.12,86.12,0,0,0,337,673.26l4.62-1a36.38,36.38,0,0,1-10.54-18.36l-3.1,1.7a114.57,114.57,0,0,0,40.15-4.78l-2.92-2.27c-4.52,5.5-10.14,13.52-5.38,20.65a9.25,9.25,0,0,0,8.87,4c3.14-.34,6.64-2.09,7.35-5.45.49-2.39-4.44-2.67-4.86-.67a3.45,3.45,0,0,1-1.47,2.35,3.34,3.34,0,0,1-2,.58c.28,0-.42,0-.49,0-.47-.09-.06,0-.51-.14a3.67,3.67,0,0,1-1.14-.68,7,7,0,0,1-2-3.14c-2.07-6,2.45-11.64,6-16,1.38-1.67-1.72-2.63-2.92-2.26a107.17,107.17,0,0,1-37.49,4.66c-.78,0-3.43.23-3.1,1.7a39.19,39.19,0,0,0,11.29,20,3.21,3.21,0,0,0,2.85.62c.67-.14,1.95-.75,1.77-1.64a84.36,84.36,0,0,1,5.43-50.22c.93-2.13-4-2.58-4.86-.66Z"/>
          <path class="cls-4" d="M389.79,656.9a120.33,120.33,0,0,0,27.67-30.69q2.69-4.28,5-8.76a27,27,0,0,0,3.15-9.33,10.94,10.94,0,0,0-2.68-8.86,11.74,11.74,0,0,0-7.28-3.26c-6.75-.71-12.67,3.34-16.87,8.26a73.09,73.09,0,0,0-10.63,17.39c-5.87,12.94-8.66,27-9.28,41.19-.77,17.7,1.84,35.33,5.36,52.62l4.52-2a122.12,122.12,0,0,1-4.86-56.54L379.25,658c.31,7.34,7.08,11.87,13.73,13,8.28,1.44,16-2.84,21.74-8.48a87.4,87.4,0,0,0,9.58-11.78l-4.1-.35-3,15c-.3,1.47,1.43,1.83,2.49,1.42A41.22,41.22,0,0,0,435.54,656l-3.92-.83c-2.36,6,2.05,12,7.83,13.8,6.88,2.17,14.06-1.79,19.09-6.22a85,85,0,0,0,13.92-16.24,101,101,0,0,0,13.7-29.18q.72-2.49,1.29-5a13.57,13.57,0,0,0,.6-4.81c-.64-4.42-5.68-3.56-8.46-1.8a50.28,50.28,0,0,0-7.91,6.26,56.67,56.67,0,0,0-17.43,35.35,55.64,55.64,0,0,0,11.35,38.9c1.08,1.39,2.23,2.72,3.43,4,1.44,1.53,5.5-1.29,3.79-3.11a53.44,53.44,0,0,1-14.08-33.26,51.55,51.55,0,0,1,10-33.22,48.61,48.61,0,0,1,12.3-11.89c.84-.55,1.92-1.34,2.32.06.34,1.23-.2,2.72-.47,3.92a94.45,94.45,0,0,1-2.56,9.17,96,96,0,0,1-18.69,32.66c-4.12,4.72-9.27,10.52-15.92,11.18a9.81,9.81,0,0,1-7.74-3.05c-1.8-1.79-3.12-4.64-2.13-7.16.35-.91.17-1.79-.89-2a3.36,3.36,0,0,0-3,1.18,33.22,33.22,0,0,1-12.67,8.71l2.49,1.43,3-15c.49-2.44-3.28-1.51-4.11-.35-4.3,6-8.9,12.65-15.64,16.19a15.79,15.79,0,0,1-16.71-1.22,10.39,10.39,0,0,1-4.44-8c-.09-2.37-4.37-.59-4.62,1.08a125.65,125.65,0,0,0,5.08,58.34c.33,1,2,.68,2.69.39.82-.36,2-1.31,1.82-2.37-5.6-27.54-8.89-56.66.31-83.82a85.84,85.84,0,0,1,8.21-17.52c2.87-4.67,6.56-10.48,12-12.34,4.52-1.54,10.34.46,11.4,5.51.63,3-.23,6-1.39,8.77a75.19,75.19,0,0,1-4.35,8.29,113.7,113.7,0,0,1-28,31.92c-.77.6-1.41,1.86-.53,2.64s2.48.15,3.26-.46Z"/>
        </g>
        <g>
          <g>
            <path class="cls-5" d="M207.19,267.35a49.19,49.19,0,0,0,4.89,1.49Zm75.57,264.34q-6.69,41.89-17.51,83l-9.8-17.77q-1.92,11-3.82,21.94a137.34,137.34,0,0,1-10.23-19.22c-11.68-26.67-15.74-56.71-19-85.94-2.9-26.12-5.4-52.89-7.48-79.9-4.33-55.64-6.92-112.3-7.8-166.44a54,54,0,0,1-32.25-70.94c17.2.75,34.79,1.57,50.76,8s30.27,19.68,33.14,36.66c25.45-14.52,59.31-12.71,83.07,4.43a147.58,147.58,0,0,1,92-50.21c-1.72,23.54-3.64,47.84-14.54,68.77s-33.3,37.77-56.7,34.66c10.63,19.37,8.52,43,5.81,64.88-2.79,22.49-6.85,49.73-11.54,78.46-9.19,56.26-20.8,118.26-30,161.68a0,0,0,0,0,0,0A40.41,40.41,0,0,1,319.69,587a277.33,277.33,0,0,0-18.3,30.11A598.29,598.29,0,0,0,282.76,531.69Zm57.87-195.87c5.9-12,2.41-27.5-7.06-37s-23.95-13-37.13-10.68c-37.72,10.88-52,31.84-60.16,51.2-2.76,6.57-4.11,15.33,1.41,19.83,3.44,2.8,8.16,2.69,12.51,1.22,15.56,11.18,34.82,16.33,62.72-6.69h0C324.62,352.18,335.51,346.25,340.63,335.82Z"/>
            <path class="cls-6" d="M357.39,442.14c7.17,9.48,13.13,22,12.24,33.82s-4.59,23.28-8.26,34.57c-9.09,27.91-25.18,65.34-34.27,93.24l-.16,0c9.17-43.42,20.78-105.42,30-161.68Z"/>
            <path class="cls-6" d="M250.2,360.43c-4.35,1.47-9.07,1.58-12.51-1.22-5.52-4.5-4.17-13.26-1.41-19.83,8.15-19.36,22.44-40.32,60.16-51.2,13.18-2.35,27.65,1.22,37.13,10.68s13,24.94,7.06,37c-5.12,10.43-16,16.36-27.7,17.92h0a47.47,47.47,0,0,1-17.47-.91c-8.16-2-16.48-5.85-24.62-3.75-5.95,1.53-10.62,6-15.89,9.14A24.73,24.73,0,0,1,250.2,360.43Z"/>
            <path class="cls-7" d="M295.45,352.83a47.47,47.47,0,0,0,17.47.91c-27.9,23-47.16,17.87-62.72,6.69a24.73,24.73,0,0,0,4.74-2.21c5.27-3.15,9.94-7.61,15.89-9.14C279,347,287.29,350.82,295.45,352.83Z"/>
            <path class="cls-6" d="M241.4,599.62c-.88,3.56-1.75,13.09-2.62,16.65-20.75-27-41.92-54.76-51.63-87.38s3-71.64,27.66-95.1h.13c2.08,27,4.58,53.78,7.48,79.9C225.66,542.91,229.72,573,241.4,599.62Z"/>
          </g>
          <g>
            <path class="cls-8" d="M312.93,353.74c11.69-1.56,22.58-7.49,27.7-17.92,5.9-12,2.41-27.5-7.06-37s-23.95-13-37.13-10.68c-37.72,10.88-52,31.84-60.16,51.2-2.76,6.57-4.11,15.33,1.41,19.83,3.44,2.8,8.16,2.69,12.51,1.22a24.73,24.73,0,0,0,4.74-2.21c5.27-3.15,9.94-7.61,15.89-9.14,8.14-2.1,16.46,1.74,24.62,3.75a47.47,47.47,0,0,0,17.47.91"/>
            <path class="cls-8" d="M267,325v-1"/>
            <path class="cls-8" d="M250.19,360.42h0c15.56,11.18,34.82,16.33,62.72-6.69h0"/>
            <path class="cls-8" d="M207.14,267.34a54,54,0,0,1-32.25-70.94c17.2.75,34.79,1.57,50.76,8s30.27,19.68,33.14,36.66c25.45-14.52,59.31-12.71,83.07,4.43a147.58,147.58,0,0,1,92-50.21c-1.72,23.54-3.64,47.84-14.54,68.77s-33.3,37.77-56.7,34.66c10.63,19.37,8.52,43,5.81,64.88-2.79,22.49-6.85,49.73-11.54,78.46-9.19,56.26-20.8,118.26-30,161.68a0,0,0,0,0,0,0"/>
            <path class="cls-8" d="M207.19,267.35l4.89,1.49A49.19,49.19,0,0,1,207.19,267.35Z"/>
            <line class="cls-8" x1="207.19" y1="267.35" x2="207.14" y2="267.34"/>
            <path class="cls-8" d="M293.24,416.93a853.66,853.66,0,0,1-10.48,114.76q-6.69,41.89-17.51,83l-9.8-17.77q-1.92,11-3.82,21.94a137.34,137.34,0,0,1-10.23-19.22c-11.68-26.67-15.74-56.71-19-85.94-2.9-26.12-5.4-52.89-7.48-79.9-4.33-55.64-6.92-112.3-7.8-166.44"/>
            <path class="cls-8" d="M282.62,531.22l.14.47a598.29,598.29,0,0,1,18.63,85.38A277.33,277.33,0,0,1,319.69,587a40.41,40.41,0,0,0,7.24,16.81"/>
            <path class="cls-8" d="M214.81,433.79c-24.65,23.46-37.36,62.48-27.66,95.1S218,589.3,238.78,616.27c.87-3.56,1.74-13.09,2.62-16.65"/>
            <path class="cls-8" d="M357.39,442.14c7.17,9.48,13.13,22,12.24,33.82s-4.59,23.28-8.26,34.57c-9.09,27.91-25.18,65.34-34.27,93.24"/>
            <path class="cls-8" d="M199.57,212.68a90.41,90.41,0,0,1,27.63,12.91c1.8,1.25,3.77,3.47,2.61,5.34-.84,1.36-2.77,1.42-4.38,1.31l-16.12-1.05c3.92.65,8,1.38,11.12,3.85s4.71,7.32,2.36,10.52c-1.66,2.25-4.66,3-7.45,3.31a38.35,38.35,0,0,1-35.79-17.46"/>
            <path class="cls-8" d="M399.74,218.78a49,49,0,0,0-39.82,26.81c-1.21,2.47-2.13,5.65-.4,7.78,2.3,2.83,6.88,1.26,9.82-.89s6.42-4.83,9.81-3.51c-6.37,3.44-13,7.15-16.78,13.35s-3.12,15.63,3.18,19.19c4,2.27,9,1.57,13.46.31a62.83,62.83,0,0,0,40.08-35.46"/>
          </g>
        </g>
        <path class="cls-9" d="M320.09,278.65c9.65,0,9.66-15,0-15s-9.67,15,0,15Z"/>
        <path class="cls-9" d="M264.94,286.08c7.72,0,7.73-12,0-12s-7.74,12,0,12Z"/>
        <path class="cls-9" d="M310.38,322.59c7.73,0,7.74-12,0-12s-7.73,12,0,12Z"/>
        <path class="cls-9" d="M269,330c7.72,0,7.74-12,0-12s-7.73,12,0,12Z"/>
        <path class="cls-10" d="M322.13,270c3.22,0,3.22-5,0-5s-3.22,5,0,5Z"/>
        <path class="cls-10" d="M265.62,280.2c3.22,0,3.22-5,0-5s-3.22,5,0,5Z"/>
        <path class="cls-4" d="M369.62,638.5c3.22,0,3.22-5,0-5s-3.22,5,0,5Z"/>
      </g>
    </g>
  </g>
</svg>
