<svg xmlns="http://www.w3.org/2000/svg" viewBox="0 0 262.13 235.4">
  <defs>
    <style>
      .cls-1 {
        fill: #2b517e;
      }

      .cls-2 {
        fill: #fff;
      }

      .cls-3 {
        fill: #f58220;
      }

      .cls-4 {
        fill: none;
        stroke: #231f20;
        stroke-miterlimit: 10;
        stroke-width: 4px;
      }
    </style>
  </defs>
  <title>qr</title>
  <g id="Layer_2" data-name="Layer 2">
    <g id="Layer_1-2" data-name="Layer 1">
      <g>
        <g>
          <path class="cls-1" d="M175.28,9.93c48.55,14.6,88.19,62,84.62,112.52-2.23,31.56-20.38,60.67-45,80.49-40.41,32.48-100,40.42-146.13,16.82S-6.12,141,4,90.14C8.26,69.05,19.36,49.73,34.59,34.58,59.28,19,87.62,8.29,116.4,5.07A147.06,147.06,0,0,1,175.28,9.93Zm27.44,156c14-16.84,22.2-39.33,18.48-60.9-3.68-21.34-18.55-39.53-36.57-51.55-26-17.36-48.18-24.78-89.83-15.85C57.82,53.09,33.22,88,38.15,123.47s33.34,66.14,68.05,74.77S179.87,193.5,202.72,166Z"/>
          <path class="cls-2" d="M80.87,70c2.26,30.51-.77,55.66-8.23,85.33A141,141,0,0,1,168.14,166l12.33-86.39c.43-3,.74-6.46-1.27-8.74s-5.46-2.39-8.5-2.34ZM221.2,105.08c3.72,21.57-4.49,44.06-18.48,60.9-22.85,27.52-61.81,40.9-96.52,32.26S43.09,158.9,38.15,123.47,57.82,53.09,94.8,37.68c41.65-8.93,63.8-1.51,89.83,15.85C202.65,65.55,217.52,83.74,221.2,105.08Z"/>
          <path class="cls-3" d="M179.2,70.83c2,2.28,1.7,5.73,1.27,8.74L168.14,166a141,141,0,0,0-95.5-10.66C80.1,125.63,83.13,100.48,80.87,70l89.83-1.48C173.74,68.44,177.18,68.56,179.2,70.83Z"/>
        </g>
        <g>
          <path class="cls-4" d="M94.8,37.68C57.82,53.09,33.22,88,38.15,123.47s33.34,66.14,68.05,74.77,73.67-4.74,96.52-32.26c14-16.84,22.2-39.33,18.48-60.9-3.68-21.34-18.55-39.53-36.57-51.55C158.6,36.17,136.45,28.75,94.8,37.68Z"/>
          <path class="cls-4" d="M116.06,2.21c-30.26-2-60,11-81.47,32.37C19.36,49.73,8.26,69.05,4,90.14c-10.16,50.83,18.54,106,64.7,129.62s105.72,15.66,146.13-16.82c24.65-19.82,42.8-48.93,45-80.49,3.57-50.57-36.07-97.92-84.62-112.52A147.06,147.06,0,0,0,116.4,5.07C87.62,8.29,59.28,19,34.59,34.58q-2,1.28-4,2.59"/>
          <path class="cls-4" d="M80.87,70l-7,.11"/>
          <path class="cls-4" d="M80.87,70c2.26,30.51-.77,55.66-8.23,85.33A141,141,0,0,1,168.14,166l12.33-86.39c.43-3,.74-6.46-1.27-8.74s-5.46-2.39-8.5-2.34Z"/>
          <line class="cls-4" x1="80.87" y1="69.96" x2="80.87" y2="69.97"/>
        </g>
      </g>
      <path class="cls-3" d="M30.24,166.72a13.93,13.93,0,0,0,11.39-4.46.87.87,0,0,0-.38-1.43,2,2,0,0,0-2,.55A9.93,9.93,0,0,1,35.45,164c-.09,0-.21.09-.05,0l-.29.1-.58.17c-.2.06-.39.11-.59.15l-.3.06c-.09,0-.22,0,0,0q-.65.09-1.29.12a6.41,6.41,0,0,1-1.07,0,1.91,1.91,0,0,0-1.88.89.92.92,0,0,0,.89,1.24Z"/>
      <path class="cls-3" d="M26.84,162.26a11.32,11.32,0,0,0,6.56,11.51,2.73,2.73,0,0,0,1.86-.17c.11,0,1.32-.62.87-.82a11,11,0,0,1-6.39-11.3c.05-.34-2.78-.1-2.9.78Z"/>
      <path class="cls-3" d="M21.36,158.42l16.84-3.64c.6-.13,1.34-.73,1.17-1.42s-1.15-.78-1.73-.65L20.8,156.34c-.61.14-1.34.74-1.17,1.43s1.15.78,1.73.65Z"/>
      <path class="cls-3" d="M32.88,155.57a8.2,8.2,0,0,1-3-1.88,2.55,2.55,0,0,1-.52-2.7,1.24,1.24,0,0,1,.27-.49c.07-.09.24-.22.07-.09a.44.44,0,0,0,.11-.09c-.17.11-.19.13-.08.06l.06,0s-.55.2-.4.16-.27,0-.31.05H29c.14,0,.11,0-.09,0l.14,0c.06,0,.18,0-.05,0l.13,0a1.43,1.43,0,0,1,.34.14l.13.06c.21.11-.08-.05,0,0l.28.19.56.44c.35.3.69.61,1.06.88A3.36,3.36,0,0,0,33,153a4.07,4.07,0,0,0,2.7-.59c.33-.22.92-.73.29-1a2.58,2.58,0,0,0-2,.31l-.15.09a2.59,2.59,0,0,0,.45-.18c.44-.11.34-.06.22,0l.25,0h0c.23,0,0,0,0,0s.23.09.09,0l-.31-.14s-.17-.1,0,0l-.11-.08a3.06,3.06,0,0,1-.29-.21c-.19-.15-.38-.3-.56-.46a5.56,5.56,0,0,0-2.78-1.58,4.13,4.13,0,0,0-4.16,2,3.14,3.14,0,0,0,.24,3.21,8.15,8.15,0,0,0,3.71,2.54,2.57,2.57,0,0,0,2.05-.31c.35-.21.91-.71.29-1Z"/>
      <path class="cls-3" d="M27.45,143c-.1-2.29-.26-4.94-2.22-6.48a4.55,4.55,0,0,0-3.18-.94,6,6,0,0,0-3.7,1.44,3.56,3.56,0,0,0,0,4.74c1.68,1.94,4.81,1.52,7,.76,2.76-1,4.56-3.15,6-5.58.25-.43-1-.25-1.15-.23-.49.1-1.41.27-1.7.76a11.92,11.92,0,0,1-3.57,4.18l-.44.25-.15.06s-.28.1,0,0c0,0-.29.08,0,0-.26.06-.15,0-.08,0a2.76,2.76,0,0,1-.57,0,3.69,3.69,0,0,1-2.19-.9,3.42,3.42,0,0,1-.81-3.78,2.22,2.22,0,0,1,.53-.75s.12-.12.07-.06c.19-.21.1,0,0,0s-.39.12-.49.15-.17,0,0,0a6.38,6.38,0,0,1,1,.29,4.65,4.65,0,0,1,1,.68c1.66,1.49,1.75,4.06,1.84,6.13,0,.42,2.93,0,2.9-.78Z"/>
      <path class="cls-3" d="M16.8,127.89c2.37,1.39,6.62,1.44,8.15-1.28a3.27,3.27,0,0,0,0-3.07,2.91,2.91,0,0,0-3.07-1.45c-.49,0-2.48,1-1.35,1.53A29.85,29.85,0,0,1,34,136.41c.54,1,3.35.06,2.9-.77A31.12,31.12,0,0,0,22.84,122.2l-1.35,1.53c-.29,0,.07.07.25.22a2,2,0,0,1,.47.69,2.41,2.41,0,0,1,.08,1.77c-.53,1.35-2.3.58-3.19.06s-3.49.72-2.3,1.42Z"/>
      <path class="cls-3" d="M26.17,82.68C24.89,81,22.58,81,20.7,81.56s-3.44,2-3.17,4.14A3.74,3.74,0,0,0,21,88.82a27.06,27.06,0,0,0,2.7.23,5,5,0,0,1,2.08.44,2.25,2.25,0,0,1,1.16,2.36,5,5,0,0,1-2.12,2.92l2.56-.35.24-1.89c0-.34-2.79-.1-2.9.78l-.24,1.89c-.07.57,2.34-.2,2.56-.35,1.4-1,3.22-2.73,2.77-4.67-.35-1.52-1.87-2.05-3.25-2.22s-3.09,0-4.44-.61a3.18,3.18,0,0,1-1.53-3.9,2.35,2.35,0,0,1,.65-1c.49-.41-.14.06-.14-.07a4,4,0,0,1,1.15.26,2.69,2.69,0,0,1,1,.83c.52.7,3.12-.48,2.9-.78Z"/>
      <path class="cls-3" d="M33.34,84.08c2.22-.85,3.87-2.86,3.36-5.36-.54-2.66-3.3-3.23-5.6-2.78s-5.21,2-4.78,4.88c.5,3.25,4.63,2.44,6.59,1.17,3.43-2.24,1.69-6.19,0-9l-2.64.94A10.16,10.16,0,0,0,39,71.72a7.06,7.06,0,0,0,1.52-8.27l-2.82.88a16,16,0,0,0,4,1.1,3.63,3.63,0,0,0,2-.38c.2-.09,1-.63.37-.72a14.87,14.87,0,0,1-3.66-1c-.38-.16-3.13.24-2.82.87a6.74,6.74,0,0,1-.1,6.28,4.21,4.21,0,0,1-4.89,2.33c-.33-.08-3,.4-2.64.94,1.22,2,3,5.1,1.4,7.4a3.11,3.11,0,0,1-.55.6,1.75,1.75,0,0,1-.39.28L30.9,82c0,.21-1.19-.7-1.24-.78a3,3,0,0,1,0-3.29,2.51,2.51,0,0,1,.94-.92c.21-.11.06,0,.1-.06a2.27,2.27,0,0,1,.52,0,3,3,0,0,1,2.24,1.59,4,4,0,0,1,.29,2.75c-.17.71-.66,1.88-1.41,2.17-.24.09-1.19.41-.87.8s1.57-.07,1.86-.18Z"/>
      <path class="cls-3" d="M32.25,56h.52a1.77,1.77,0,0,0,.56-.05,1.88,1.88,0,0,0,.57-.17,1.46,1.46,0,0,0,.46-.28,1.05,1.05,0,0,0,.31-.32l.09-.24a.49.49,0,0,0-.11-.43l-.2-.15a1.41,1.41,0,0,0-.6-.16h-.51a2.09,2.09,0,0,0-.56.05,2.41,2.41,0,0,0-.58.17,1.48,1.48,0,0,0-.45.28,1,1,0,0,0-.31.33l-.1.23a.48.48,0,0,0,.12.43l.2.16a1.47,1.47,0,0,0,.59.15Z"/>
      <path class="cls-3" d="M51.18,59.63A6.41,6.41,0,0,0,56.58,55a5.12,5.12,0,0,0-3.38-5.69,6.53,6.53,0,0,0-6.83,1.63c-1.41,1.46-2.54,4.6-.52,6.09,2.19,1.6,4.75-.53,5.3-2.69a33.92,33.92,0,0,0,.56-9.38A45.51,45.51,0,0,0,51.26,40a10.13,10.13,0,0,0-1.18-4.07,3.55,3.55,0,0,0-5.81-.35c-1.59,2.1.29,4.94,1.73,6.52a14,14,0,0,0,7.85,4.28,2.32,2.32,0,0,0,2-.54c.39-.43.35-1-.32-1.17a12.22,12.22,0,0,1-8.1-5.3,4.82,4.82,0,0,1-.81-2,2.76,2.76,0,0,1,0-.86c0-.12.17-.41.14-.48s.06-.16-.17,0-.29,0-.11.12.64.61.73.74a5.11,5.11,0,0,1,.48.93,11.93,11.93,0,0,1,.61,2.77,46.64,46.64,0,0,1,.15,12.6A13.49,13.49,0,0,1,48,55.39s-.23.35-.22.37l.62-.13-.21-.19c-.06-.36-.38-.68-.42-1.1a3.49,3.49,0,0,1,2.15-3.59c1.66-.44,3.37,1.36,3.76,2.81s-.36,4-2.1,4.27c-.55.1-1.55.37-1.63,1.06s.8.82,1.28.74Z"/>
      <path class="cls-3" d="M81.63,25.19a1,1,0,0,0,0-1.11,1.37,1.37,0,0,0-1.19-.57,3.77,3.77,0,0,0-1.44.28c-.2.07-.87.28-.93.55a14.52,14.52,0,0,0,1.79,10.75c.42.68,3.1-.44,2.9-.77a14.36,14.36,0,0,1-1.84-10.51l-2.37.83c-.18,0,0,.07.1.13a.77.77,0,0,1,.19.29.67.67,0,0,1-.06.66c-.26.43,1,.26,1.15.24.51-.1,1.4-.28,1.7-.77Z"/>
      <path class="cls-3" d="M106.33,18.16,107.39,16c.09-.17-.1-.27-.24-.3a7,7,0,0,0-4.5.72,5.39,5.39,0,0,0-2.55,2.46,3.91,3.91,0,0,0,2.19,5.1,6.3,6.3,0,0,0,4.62,0c.19-.07,1.24-.47.86-.82-.16-.14-.56-.1-.73-.08a5.29,5.29,0,0,0-1.13.25c-.23.09.25-.09.31-.07-.11,0-.28,0,0,0-.23,0,.16,0-.06,0h-.25a4.32,4.32,0,0,1-1-.3,4.07,4.07,0,0,1-1.73-1.53,3.38,3.38,0,0,1,.74-4.31L104,17l.1-.07.06,0,.21-.13c.11-.08,0,0-.06,0a.75.75,0,0,0,.18-.08l-.11,0s.27-.09,0,0,0,0,0,0l-.1,0s-.28,0-.12,0,.24,0,.09,0,.17,0,.23,0l.24.05-.24-.3-1.06,2.11c-.23.47,1,.3,1.16.27a4.25,4.25,0,0,0,1.1-.34,1.21,1.21,0,0,0,.6-.44Z"/>
      <path class="cls-3" d="M114.69,22c1.68,2.58,5.83,2.26,7.9.41.23-.2.43-.56.18-.83a12.73,12.73,0,0,0-3.66-3,6.52,6.52,0,0,0-5.33-.07A4,4,0,0,0,111.26,22a2.5,2.5,0,0,0,2.36,2.48c1.56.19,3.79-.47,4.22-2.18.28-1.1-2.64-.68-2.9.34a.84.84,0,0,1,0,.17c0-.08,0-.08,0,0l-.09.14c.09-.1.1-.11,0,0s-.08.08.07,0c-.13.08-.1.06.1-.05-.15.07-.11.06.13,0l-.17,0c.25,0,.3,0,.13,0H115q.27,0,.06,0l-.17-.05c.13.05.13,0,0,0s-.31-.2-.18-.09a1.92,1.92,0,0,1,0-2.61c.09-.1.1-.12,0,0l.16-.15h0l.18-.12q-.19.11,0,0h0c.17,0,.16,0,0,0l.26,0c-.28,0,.23,0,.29,0h.2a4.63,4.63,0,0,1,.89.26,10.91,10.91,0,0,1,3.39,2.77l.17-.84-.15.14c.11-.08.12-.1.05-.05s-.35.2-.15.1-.19.09-.22.08l.18-.06-.2,0,.14,0-.15,0c-.1,0-.38,0,0,0h-.3l-.16,0-.3-.07-.15,0h0a4.73,4.73,0,0,1-.55-.28,2.16,2.16,0,0,1-.38-.31,3.45,3.45,0,0,1-.45-.56c-.14-.21-.58-.27-.79-.27a2.5,2.5,0,0,0-1.14.22c-.45.21-1.12.64-.76,1.2Z"/>
      <path class="cls-3" d="M126.42,18.58a4.6,4.6,0,0,0-2.26,5c.21.84,2.22.1,2.59-.23a4,4,0,0,1,3.38-.69c1.49.17,2.93.59,4.41.82,3,.46,6.49.17,8.68-2.19.47-.5-.4-.7-.74-.7a2.71,2.71,0,0,0-1.92.75,3.45,3.45,0,0,1-3,.86,36.19,36.19,0,0,1-4.26-.76c-3-.55-6.42-.52-8.82,1.59l2.59-.23a3.38,3.38,0,0,1,1.1-3.5c.37-.23.88-.67.3-1a2.58,2.58,0,0,0-2,.31Z"/>
      <path class="cls-3" d="M148.61,11.64a13.94,13.94,0,0,0-6.85,13.29c.07.61,3,0,2.9-.78a12.92,12.92,0,0,1,6.19-12.36c.5-.29.32-.64-.19-.69a3.53,3.53,0,0,0-2,.54Z"/>
      <path class="cls-3" d="M154.3,28.12c2.21.61,5.48.82,6.53-1.81.87-2.17-1.62-3.45-3.37-3.69a10.39,10.39,0,0,0-10.6,5.78c-.57,1.27,1.33,1.28,2,1A50.44,50.44,0,0,0,169,15c1-1.24-1-1.67-1.85-1.26-6,2.84-9.42,9-10.2,15.41-.18,1.46,2.77,1.07,2.93-.23.67-5.43,3.41-11,8.55-13.5l-1.85-1.26a47.21,47.21,0,0,1-18.93,13.57l2,1a6.86,6.86,0,0,1,5.1-4,3.86,3.86,0,0,1,2.94.47c.31.27.6.83.19,1.17s-1.41,0-1.88-.17a2,2,0,0,0-2,.55.83.83,0,0,0,.37,1.39Z"/>
      <path class="cls-3" d="M184,26.94c-3.85,1.85-7.87,5.54-8.12,10.07A6.24,6.24,0,0,0,178,42.09a5.79,5.79,0,0,0,5.82.8c2-.7,3.8-2.32,3.62-4.56,0-.21-.4-.28-.53-.31l-7.61-1.25a2.8,2.8,0,0,0-2,.55c-.45.37-.36.74.23.84l7.6,1.26-.53-.31c.09,1.2-.85,3.08-2.29,2.75-1.84-.42-3.05-2.34-3.36-4.09-.8-4.44,3.23-8.44,6.88-10.19.4-.19.85-.67.3-.95s-1.53.07-2,.31Z"/>
      <path class="cls-3" d="M185.37,42.1c1,1.75,2.33,3.69,4.42,4.19a6.59,6.59,0,0,0,3.65-.3A4.77,4.77,0,0,0,196,44.16a2.32,2.32,0,0,0,.17-2.17,3.06,3.06,0,0,0-1.7-1.46,6,6,0,0,0-6,1.3c-1.6,1.63-1.63,4.2-1,6.25.16.49,1.26.23,1.59.14s1.47-.43,1.31-.92a6.45,6.45,0,0,1,0-4.58,3.36,3.36,0,0,1,.54-.86,2.61,2.61,0,0,1,.23-.24s.16-.14,0,0l.21-.15c-.21.15,0,0,0,0s-.27.11-.09,0c-.46.17-.12.06,0,0-.28.12-.27,0-.13,0-.41,0-.09,0,0,0s.22,0,0,0l.27,0,.17,0c-.21,0,.09,0,.14,0a2.11,2.11,0,0,1,1.73,2.31,2.3,2.3,0,0,1-.29.71,3.28,3.28,0,0,1-.31.34c.15-.14-.08.06-.09.07s-.31.17-.06,0c0,0-.31.15-.09,0s-.11.05-.11,0,.32-.1.09,0l-.09,0q.35-.07.09,0h-.09l.16,0s-.39,0-.08,0h-.2l-.2,0c.08,0,.08,0,0,0-1.83-.43-3-2.24-3.89-3.76-.45-.78-3.19.26-2.89.78Z"/>
      <path class="cls-3" d="M217.81,60.05a6.21,6.21,0,0,0-6.44-4.31A7,7,0,0,0,205,60.9c-.14.67.86.78,1.28.73l9.46-1.11-1-1.2-4.53,5.05c-.41.46-.31,1,.32,1.16a2.27,2.27,0,0,0,2-.55l4.53-5.05c.73-.81-.22-1.29-1-1.2l-9.46,1.12,1.28.73a4.21,4.21,0,0,1,1.41-2.36,3.55,3.55,0,0,1,.89-.53c.16-.08-.19,0,.08,0l.41-.1c-.22,0,0,0,.09,0l.21,0h0a3.14,3.14,0,0,1,1.24.24,4.82,4.82,0,0,1,1.19.7,4.67,4.67,0,0,1,1.55,2.35c.31,1.13,3.21.35,2.89-.77Z"/>
      <path class="cls-3" d="M221.14,67.6l-5-.4a3.36,3.36,0,0,0-1.78.39c-.15.08-.9.54-.5.77l5.75,3.34,2.54-1.11c-2.21-1-6.07.68-6,3.37.12,3.64,4.65,4.31,7.41,4.51l-.51-.41c-.75,4.3,3.37,7.27,7.33,6.68l.5-1.22c-3.17.63-4.91,2.63-6.88,5-.85,1-2.11,2.83-3.56,2a2.27,2.27,0,0,1-1.07-3.21l-2.62.84A46.22,46.22,0,0,1,229,93.08a45.38,45.38,0,0,1,5.18,3.52c1.45,1.14,2.9,3,4.78,3.32a5,5,0,0,0,4.55-1.43c1-1.38-.36-2.81-1.75-3-2.12-.36-4.14.79-5.92,1.76L228.9,101c-.39.21-.86.55-.33.86s1.6-.11,2-.35l4.77-2.6,2.38-1.3c.82-.45,1.75-1.17,2.65-.53.23.16,1,1.29.42,1.53-.37.15-1.6-1.08-1.86-1.3-1.15-1-2.33-2-3.57-2.86A47.51,47.51,0,0,0,219.17,87a2.73,2.73,0,0,0-2.61.83,2.66,2.66,0,0,0,.95,3.6,5.05,5.05,0,0,0,4.66.37,9.68,9.68,0,0,0,4.29-3.07c.57-.67,1.09-1.38,1.66-2s1.41-1.72,2.32-1.9c.35-.07,1.67-.33,1.68-.84s-.83-.43-1.18-.38c-3,.45-5.42-3.29-5-5.93.06-.32-.25-.4-.51-.41-1.9-.14-4-.29-5.38-1.76a3.44,3.44,0,0,1-1-2.24,2.11,2.11,0,0,1,.28-1.07,2,2,0,0,1,.5-.59c-.42.08-.44.17-.06.26a2.66,2.66,0,0,0,1.87-.27c.16-.07,1.12-.58.67-.84l-5.75-3.34-2.29,1.16,5,.4a3,3,0,0,0,2.05-.55c.38-.35.44-.69-.2-.74Z"/>
      <path class="cls-3" d="M233.55,94.59a29.55,29.55,0,0,0-1,10.46c0,.26.39.45.59.51a2.12,2.12,0,0,0,1.09,0c.6-.16,1.27-.57,1.22-1.26a28.2,28.2,0,0,1,1-10c.19-.68-.87-.85-1.3-.81a1.81,1.81,0,0,0-1.62,1.09Z"/>
      <path class="cls-3" d="M246,112.83a17.2,17.2,0,0,0-9.44-3.32l-.28,1.88c.32-.1.18-.11-.43,0-.08,0-.05,0,.07,0-.07-.12.25.32.18.21a1.8,1.8,0,0,1,.26.81c0,.67-.37,1-.95,1.27-.81.34-1.7.48-2.53.78a6.42,6.42,0,0,0-2.61,1.63,3.07,3.07,0,0,0-.9,2.41A3.41,3.41,0,0,0,231,120.7a14,14,0,0,1,2.1,1.36c.23.22.57.62.51,1,0,.09-.06.16-.07.23-.17.17-.14.17.08,0a1,1,0,0,1,.9,0,1.75,1.75,0,0,0-2-.15c-.42.19-1.22.87-.72,1.38,1.43,1.47,4.52.23,4.69-1.78s-2.41-2.72-3.64-3.85a1.38,1.38,0,0,1-.34-1.89,3.27,3.27,0,0,1,2-1c1.76-.49,4.19-1.2,4.7-3.24a2.59,2.59,0,0,0-3.42-3.08c-.46.16-1.16.46-1.22,1s.48.82.94.84a14.76,14.76,0,0,1,8.22,3c.93.7,3.53-.63,2.26-1.58Z"/>
      <path class="cls-3" d="M243.05,122c1.63,0,2.24-2.07.27-2.07-1.64,0-2.25,2.07-.27,2.07Z"/>
      <path class="cls-3" d="M227,125.62l3.54,3.14c.45.4,1.42.13,1.89-.07.27-.11,1.26-.58.82-1a8.23,8.23,0,0,0-4.42-2.13,3.06,3.06,0,0,0-1.78.38c-.18.1-.9.6-.49.85a3.1,3.1,0,0,1,1.46,3.33,2.41,2.41,0,0,1-.33.8,3.47,3.47,0,0,1-.34.42l-.06.06-.2.15c-.18.15.1,0,0,0s-.15.11-.22.12c.24,0,.13-.07,0,0s.31-.11,0,0,.34,0,0,0h0c-.08,0-.27,0,0,0l-.29,0a2.89,2.89,0,0,0-2.05.55c-.15.12-.37.31-.31.53s.35.28.53.31c2.17.37,5-.69,5.94-2.76a3.66,3.66,0,0,0-1.44-4.52L227,127a6.76,6.76,0,0,1,3.54,1.8l2.71-1.06-3.54-3.14c-.45-.4-1.42-.14-1.9.06-.25.11-1.27.6-.81,1Z"/>
      <path class="cls-3" d="M233.89,146.52c2.61,1.29,6.75-.24,7.87-2.94s-1.63-5.13-4.23-5.24c-1.3-.06-3.67.3-4.38,1.58-.85,1.56,1.65,2.05,2.49,2.49,1.06.57.39,1.38-.39,1.79a24.42,24.42,0,0,1-2.85,1.3,25.23,25.23,0,0,1-6,1.57c-1.41.17-3.41,0-3.81-1.69a2.27,2.27,0,0,1,1-2.39c.82-.3,2.22.41,3,.77s3.36-.75,2.35-1.24a8,8,0,0,0-5.76-.63c-1.48.44-3.12,1.5-3.45,3.12-.73,3.62,4.32,3.65,6.58,3.3a35.77,35.77,0,0,0,6.19-1.57,21.59,21.59,0,0,0,5.55-2.58c.56-.41,1.22-1,1.09-1.81s-.77-1-1.36-1.27a8.41,8.41,0,0,1-1.07-.36c-.43-.22-.47-.53-.75-.85,0,0,0-.4-.08-.19,0,0-.24,0-.07,0a1.89,1.89,0,0,1,.94.16,3.34,3.34,0,0,1,2.35,3.51,3,3,0,0,1-1.28,2c-.54.36-1,.2-1.56-.08s-3.36.73-2.35,1.23Z"/>
      <path class="cls-2" d="M84.62,78.45l1.3,4.12.65,2.06c.1.3.19.61.29.91a1.26,1.26,0,0,0,.9.89c2.52.92,5.39,1.6,8,.66,2.12-.77,4.18-2.55,4-5a5.5,5.5,0,0,0-4.09-4.66c-3.06-.85-6.17.39-8.71,2.06A.89.89,0,0,0,86.84,81a1.93,1.93,0,0,0,2.07-.18c1.44-.94,3.27-1.84,5-1.44a3.85,3.85,0,0,1,2.9,3,2.47,2.47,0,0,1-.51,1.92,3.1,3.1,0,0,1-1.43,1,5.29,5.29,0,0,1-2.46.1,19.18,19.18,0,0,1-3.23-.92l.61.59-2.31-7.33c-.42-1.31-3.31-.52-2.9.78Z"/>
      <path class="cls-2" d="M81.4,139.57,79.62,145c-.12.35.3.53.56.59a22.92,22.92,0,0,0,12-.36c.52-.16,1.27-.46,1.25-1.11l-.15-5.92c0-.35-.66-.43-.88-.43l-8.51.06a2.38,2.38,0,0,0-1.91.78c-.37.57.32.85.78.85l8.51-.06L90.4,139l.15,5.92,1.26-1.11A18.51,18.51,0,0,1,82,144l.56.6,1.78-5.4c.2-.62-.91-.65-1.25-.61-.58.07-1.44.35-1.65,1Z"/>
      <path class="cls-2" d="M153.48,149.85a5.5,5.5,0,0,0-.17,2.9,4.76,4.76,0,0,0,.51,1.36,1.38,1.38,0,0,0,.23.36,2.08,2.08,0,0,0,.47.24l.81.38,6.5,3.09a2.4,2.4,0,0,0,1.52-.11,1.86,1.86,0,0,0,1.09-.74,8.43,8.43,0,0,0,0-7.55c-.16-.3-.56-.31-.85-.3l-8.2.24a2.71,2.71,0,0,0-1.92.74c-.43.51.36.65.73.64l8.19-.24-.85-.3a7.92,7.92,0,0,1,0,7.22l2.62-.85-7.6-3.61.27.24a4.86,4.86,0,0,1-.49-4.15c.19-.56-.94-.48-1.2-.44-.5.09-1.49.31-1.68.88Z"/>
      <path class="cls-2" d="M161.09,78.11a4.86,4.86,0,0,0,2,6.29,6.51,6.51,0,0,0,4.26.42,9.23,9.23,0,0,0,2.73-1,5.6,5.6,0,0,0,.79-.59c.12-.1.23-.21.34-.32a.86.86,0,0,0,.17-.64l.17-6a.33.33,0,0,0-.27-.19,13.79,13.79,0,0,0-7.78.68c-.22.09-1.25.5-.85.87.16.16.56.13.74.11a3.94,3.94,0,0,0,1.13-.25l.33-.12c.11,0,.28-.09.07,0,.22-.07.44-.13.67-.18-.22.05,0,0,.08,0l.34-.06.14,0h0l.34,0a9,9,0,0,1,2.44.19l-.26-.19-.17,6.3.13-.3a4.11,4.11,0,0,1-.3.29l-.16.14h0l-.31.2c.24-.14-.09,0-.14.06l.1,0-.2.08c.22-.07.24-.08.08,0s-.13,0,.09,0a.84.84,0,0,1-.31,0c.37,0-.08,0-.16,0,.21,0,0,0-.11,0a2.49,2.49,0,0,0-.26,0,4.32,4.32,0,0,1-.71-.17,3.86,3.86,0,0,1-1.18-.68A4.51,4.51,0,0,1,164,77.62c.24-.49-1-.36-1.17-.33-.5.1-1.44.29-1.69.82Z"/>
      <path class="cls-2" d="M102.31,76.19v1a.54.54,0,0,0,.08.39.55.55,0,0,0,.26.3,1.08,1.08,0,0,0,.45.17,1.38,1.38,0,0,0,.54,0L104,78a2.25,2.25,0,0,0,.7-.33l.25-.22a1,1,0,0,0,.26-.52V76a.52.52,0,0,0-.07-.39.62.62,0,0,0-.27-.31,1.06,1.06,0,0,0-.45-.16,1.35,1.35,0,0,0-.53,0l-.4.07a2,2,0,0,0-.69.32l-.26.23a1,1,0,0,0-.26.52Z"/>
      <path class="cls-2" d="M109,76.21v1.53a.45.45,0,0,0,.06.36.55.55,0,0,0,.26.28,1.21,1.21,0,0,0,.44.15,1.4,1.4,0,0,0,.54,0,2.15,2.15,0,0,0,1.09-.39l.26-.21a1,1,0,0,0,.26-.49V75.93a.45.45,0,0,0-.06-.36.51.51,0,0,0-.26-.28,1.21,1.21,0,0,0-.44-.15,1.4,1.4,0,0,0-.54,0,2.23,2.23,0,0,0-1.09.38l-.26.22a1,1,0,0,0-.26.49Z"/>
      <path class="cls-2" d="M125.13,76.24c.54,0,1.64-.21,1.93-.73s-.26-.64-.73-.64-1.64.22-1.92.74.26.63.72.63Z"/>
      <path class="cls-2" d="M134.85,78.84c.55,0,1.63-.21,1.92-.75s-.25-.71-.74-.71-1.64.21-1.93.76.26.7.75.7Z"/>
      <path class="cls-2" d="M139.37,76.81l-.51.51a.69.69,0,0,0-.23.33.41.41,0,0,0,0,.34.44.44,0,0,0,.21.27.7.7,0,0,0,.37.17l.32,0a2.44,2.44,0,0,0,.76-.09l.38-.13a2.05,2.05,0,0,0,.59-.38l.51-.51A.69.69,0,0,0,142,77a.44.44,0,0,0,0-.34.43.43,0,0,0-.2-.27.74.74,0,0,0-.37-.17l-.33-.05a2.44,2.44,0,0,0-.76.09l-.38.13a2,2,0,0,0-.58.38Z"/>
      <path class="cls-2" d="M153.35,75.7a3.07,3.07,0,0,0-.91.12,2.87,2.87,0,0,0-.84.37,1.91,1.91,0,0,0-.38.31,1.93,1.93,0,0,0-.28.36,1.66,1.66,0,0,0-.15.39,1.21,1.21,0,0,0,0,.38.47.47,0,0,0,0,.17,1.14,1.14,0,0,0,.19.34.63.63,0,0,0,.33.2,1.18,1.18,0,0,0,.46.09,1.75,1.75,0,0,0,.56-.05,2,2,0,0,0,.58-.17l.32-.17a1.36,1.36,0,0,0,.44-.42l.1-.23a.45.45,0,0,0-.11-.41.35.35,0,0,1-.05-.08l.11.2a.47.47,0,0,1-.07-.25v.22a.76.76,0,0,1,0-.27l-.09.22a.58.58,0,0,1,.11-.18l-.19.22a.52.52,0,0,1,.11-.1l-.26.2.07,0-.33.17.08,0-.37.13h.06l-.39.07h.07l-.36,0h0a2.09,2.09,0,0,0,.56,0,2.41,2.41,0,0,0,.58-.17,1.86,1.86,0,0,0,.45-.27,1.26,1.26,0,0,0,.32-.33l.09-.22a.46.46,0,0,0-.11-.42l-.2-.15a1.46,1.46,0,0,0-.59-.14Z"/>
      <path class="cls-2" d="M139.67,92.26l-.51,1.53a.57.57,0,0,0-.07.4.53.53,0,0,0,.12.38.81.81,0,0,0,.35.26A1,1,0,0,0,140,95a2.07,2.07,0,0,0,1.15-.2l.32-.19a1.3,1.3,0,0,0,.42-.48l.51-1.53a.55.55,0,0,0,.08-.41.48.48,0,0,0-.13-.37.78.78,0,0,0-.34-.26,1.16,1.16,0,0,0-.48-.14,2.15,2.15,0,0,0-1.14.21l-.32.19a1.33,1.33,0,0,0-.43.48Z"/>
      <path class="cls-2" d="M128.28,85.88l-.5,3.06a.73.73,0,0,0,.34.7,1.59,1.59,0,0,0,1,.21,2.09,2.09,0,0,0,1.09-.4,1.25,1.25,0,0,0,.52-.75l.51-3.06a.76.76,0,0,0-.35-.7,1.59,1.59,0,0,0-1-.21,2.13,2.13,0,0,0-1.09.4,1.25,1.25,0,0,0-.52.75Z"/>
      <path class="cls-2" d="M121.16,85l-.5,1.53c-.07.21.09.34.26.4a1,1,0,0,0,.42.06,2.27,2.27,0,0,0,.52,0,3.47,3.47,0,0,0,1.1-.36l.27-.16a.87.87,0,0,0,.31-.35l.5-1.54c.06-.2-.09-.33-.27-.4a1.13,1.13,0,0,0-.41,0,1.51,1.51,0,0,0-.52,0,3.22,3.22,0,0,0-1.1.35l-.27.17a.87.87,0,0,0-.31.35Z"/>
      <path class="cls-2" d="M119,85l-.51.51a.7.7,0,0,0-.24.3.37.37,0,0,0,0,.31.39.39,0,0,0,.19.24.7.7,0,0,0,.37.14l.32,0a2.71,2.71,0,0,0,.75-.1l.38-.13a1.85,1.85,0,0,0,.59-.35l.51-.51a.58.58,0,0,0,.24-.3.39.39,0,0,0,.06-.31.4.4,0,0,0-.2-.24.64.64,0,0,0-.36-.14l-.32,0a2.78,2.78,0,0,0-.76.1l-.38.12A2.22,2.22,0,0,0,119,85Z"/>
      <path class="cls-2" d="M121.36,92.53l-.51.51a.27.27,0,0,0-.13.2c0,.07,0,.12.07.16a.67.67,0,0,0,.3.08,1.55,1.55,0,0,0,.43,0l.36-.06a4.15,4.15,0,0,0,.77-.2l.34-.14a2,2,0,0,0,.48-.29l.51-.51a.24.24,0,0,0,.13-.2c0-.06,0-.12-.07-.16a.66.66,0,0,0-.3-.07,1.55,1.55,0,0,0-.43,0l-.36.05a5.16,5.16,0,0,0-.77.21l-.34.13a2.36,2.36,0,0,0-.48.29Z"/>
      <path class="cls-2" d="M126.32,93.07l-.51,2a.6.6,0,0,0,.32.61,1.08,1.08,0,0,0,.43.13,1.63,1.63,0,0,0,.54,0,2.35,2.35,0,0,0,1.09-.39,1.18,1.18,0,0,0,.53-.67l.51-2a.59.59,0,0,0-.31-.61,1.17,1.17,0,0,0-.44-.13,1.58,1.58,0,0,0-.53,0,2.43,2.43,0,0,0-1.1.39,1.22,1.22,0,0,0-.53.67Z"/>
      <path class="cls-2" d="M126.82,97.62v.51a.53.53,0,0,0,.08.41.59.59,0,0,0,.28.34,1,1,0,0,0,.45.19,1.38,1.38,0,0,0,.54.05l.39-.07a2,2,0,0,0,.7-.33l.25-.24a1.14,1.14,0,0,0,.25-.56v-.51a.58.58,0,0,0-.09-.41.65.65,0,0,0-.27-.34,1.11,1.11,0,0,0-.45-.19,1.42,1.42,0,0,0-.54,0l-.4.07a2,2,0,0,0-.69.33l-.25.24a1.06,1.06,0,0,0-.25.56Z"/>
      <path class="cls-2" d="M119,103.2c1.68,0,2.21-2.18.25-2.18-1.68,0-2.21,2.18-.25,2.18Z"/>
      <path class="cls-2" d="M113.7,97.13l-.51.51a.27.27,0,0,0-.13.2c0,.07,0,.12.07.16a.66.66,0,0,0,.3.07,1.55,1.55,0,0,0,.43,0l.36,0a5.16,5.16,0,0,0,.77-.21l.34-.13a2.36,2.36,0,0,0,.48-.29l.51-.51a.27.27,0,0,0,.13-.2c0-.07,0-.12-.07-.16a.63.63,0,0,0-.3-.07,1.55,1.55,0,0,0-.43,0l-.36,0a5.16,5.16,0,0,0-.77.21l-.34.13a2.36,2.36,0,0,0-.48.29Z"/>
      <path class="cls-2" d="M109.48,88.71v.51a.24.24,0,0,0,.17.17.6.6,0,0,0,.35.08,2,2,0,0,0,.49,0,2.62,2.62,0,0,0,.57-.11l.38-.12a3.14,3.14,0,0,0,.61-.3l.2-.17a.34.34,0,0,0,.12-.31v-.51a.24.24,0,0,0-.17-.17.7.7,0,0,0-.35-.09,2,2,0,0,0-.49,0,2.62,2.62,0,0,0-.57.11l-.38.12a2.66,2.66,0,0,0-.61.3l-.2.17a.34.34,0,0,0-.12.31Z"/>
      <path class="cls-2" d="M107.69,85.43l-.51.51a.75.75,0,0,0-.22.36.51.51,0,0,0,.18.67.75.75,0,0,0,.37.2l.33.06a2.22,2.22,0,0,0,.77-.08L109,87a1.94,1.94,0,0,0,.58-.4l.51-.51a.77.77,0,0,0,.23-.36.47.47,0,0,0,0-.37.47.47,0,0,0-.21-.3.78.78,0,0,0-.38-.2l-.33-.06a2.17,2.17,0,0,0-.76.08l-.38.13a1.94,1.94,0,0,0-.58.4Z"/>
      <path class="cls-2" d="M98.22,86.38v2.55a.6.6,0,0,0,.09.42.65.65,0,0,0,.27.34,1.56,1.56,0,0,0,1,.24,2,2,0,0,0,1.09-.4,1.17,1.17,0,0,0,.5-.8V86.18a.57.57,0,0,0-.08-.42.6.6,0,0,0-.28-.33,1.51,1.51,0,0,0-1-.25,2.05,2.05,0,0,0-1.09.41,1.15,1.15,0,0,0-.5.79Z"/>
      <path class="cls-2" d="M95.62,95.54h-.51a1.5,1.5,0,0,0-.56,0,2,2,0,0,0-.58.17,1.51,1.51,0,0,0-.45.29.92.92,0,0,0-.3.35l-.09.24a.57.57,0,0,0,.12.47l.2.17a1.44,1.44,0,0,0,.61.18h.51a1.75,1.75,0,0,0,.56,0,2.28,2.28,0,0,0,.58-.17,1.51,1.51,0,0,0,.45-.29,1,1,0,0,0,.31-.35l.09-.25a.59.59,0,0,0-.13-.46l-.2-.17a1.31,1.31,0,0,0-.61-.18Z"/>
      <path class="cls-2" d="M88.94,97.79a2.3,2.3,0,0,0-1,1.83,2.26,2.26,0,0,0,.64,1.65,2,2,0,0,0,.5.38,2.73,2.73,0,0,0,.93.29,2.15,2.15,0,0,0,1.14-.2,1.6,1.6,0,0,0,.75-.66.72.72,0,0,0-.05-.76,1.28,1.28,0,0,0-.81-.38H91l.34.07-.26-.08.28.13a1.57,1.57,0,0,1-.3-.2l.2.18a1.75,1.75,0,0,1-.33-.44l.12.23a2,2,0,0,1-.18-.67v.26a2,2,0,0,1,.07-.55l-.08.26A1.07,1.07,0,0,1,91,98.8l-.18.25a1.12,1.12,0,0,1,.17-.2l-.25.22.09-.06a1.25,1.25,0,0,0,.51-.74.7.7,0,0,0-.34-.68,1.66,1.66,0,0,0-1-.2,2.29,2.29,0,0,0-1.09.4Z"/>
      <path class="cls-2" d="M99.18,102.79l0,2.55a.33.33,0,0,0,0,.32.45.45,0,0,0,.25.24,1.67,1.67,0,0,0,1,.12,2.66,2.66,0,0,0,1.1-.37l.26-.2a.9.9,0,0,0,.28-.44v-2.56a.34.34,0,0,0-.06-.31.4.4,0,0,0-.25-.24,1.67,1.67,0,0,0-1-.13,2.67,2.67,0,0,0-1.1.38l-.26.2a.9.9,0,0,0-.28.44Z"/>
      <path class="cls-2" d="M104.37,103.52v4.09c0,.21.42.33.55.36a2.46,2.46,0,0,0,1.08-.07,2.33,2.33,0,0,0,1-.48l.19-.2a.46.46,0,0,0,.11-.39v-4.09c0-.22-.42-.34-.55-.36a2.46,2.46,0,0,0-1.08.07,2.33,2.33,0,0,0-1,.48l-.19.19a.46.46,0,0,0-.11.4Z"/>
      <path class="cls-2" d="M117,120.29l1-3.06c.07-.22-.11-.38-.28-.46a1.81,1.81,0,0,0-.95-.06,3,3,0,0,0-1.1.36,1.22,1.22,0,0,0-.56.56l-1,3.07c-.07.21.1.37.28.45a1.87,1.87,0,0,0,.94.07,3,3,0,0,0,1.1-.37,1.13,1.13,0,0,0,.56-.56Z"/>
      <path class="cls-2" d="M121.28,115.84l-.52,1a.41.41,0,0,0-.1.32.31.31,0,0,0,.11.28.63.63,0,0,0,.32.19,1.44,1.44,0,0,0,.46.08l.37,0a3,3,0,0,0,.77-.21l.32-.17a1.33,1.33,0,0,0,.45-.4l.52-1a.41.41,0,0,0,.1-.32.31.31,0,0,0-.11-.28.55.55,0,0,0-.32-.18,1.22,1.22,0,0,0-.46-.09l-.37,0a3.52,3.52,0,0,0-.77.21l-.32.17a1.33,1.33,0,0,0-.45.4Z"/>
      <path class="cls-2" d="M123.77,118.63v.51a.33.33,0,0,0,.06.3.37.37,0,0,0,.24.23,1,1,0,0,0,.43.11,1.57,1.57,0,0,0,.53,0l.39-.08a2.61,2.61,0,0,0,.71-.3l.26-.19a.87.87,0,0,0,.28-.43v-.51a.31.31,0,0,0,0-.31.41.41,0,0,0-.25-.23.92.92,0,0,0-.43-.11,1.51,1.51,0,0,0-.52,0l-.4.07a2.9,2.9,0,0,0-.7.3l-.26.2a.85.85,0,0,0-.29.43Z"/>
      <path class="cls-2" d="M128.68,119c1.67,0,2.21-2.16.24-2.16-1.67,0-2.21,2.16-.24,2.16Z"/>
      <path class="cls-2" d="M149.8,91.52v5.1a.7.7,0,0,0,.34.67,1.65,1.65,0,0,0,1,.19,2.35,2.35,0,0,0,1.09-.39c.21-.17.52-.43.52-.73v-5.1a.7.7,0,0,0-.34-.67,1.63,1.63,0,0,0-1-.19,2.35,2.35,0,0,0-1.1.39c-.21.17-.52.43-.52.73Z"/>
      <path class="cls-2" d="M157.5,92.75l-.51,1a.55.55,0,0,0-.08.41.51.51,0,0,0,.13.38.83.83,0,0,0,.35.26,1.07,1.07,0,0,0,.47.14h.37a2.05,2.05,0,0,0,.77-.21l.32-.19a1.42,1.42,0,0,0,.43-.48l.52-1a.58.58,0,0,0,.07-.41.47.47,0,0,0-.13-.37.75.75,0,0,0-.35-.26,1,1,0,0,0-.47-.14H159a2.51,2.51,0,0,0-.77.21l-.32.19a1.45,1.45,0,0,0-.43.49Z"/>
      <path class="cls-2" d="M160.42,91.76c.61,0,1.62-.19,1.91-.82s-.24-1-.81-1-1.62.19-1.91.82.23,1,.81,1Z"/>
      <path class="cls-2" d="M162.69,91.46l.51.51a.61.61,0,0,0,.33.19,1.06,1.06,0,0,0,.46.1,1.85,1.85,0,0,0,.57-.06,1.94,1.94,0,0,0,.57-.16l.32-.18a1.36,1.36,0,0,0,.45-.41l.1-.23a.45.45,0,0,0-.12-.41l-.51-.52a.69.69,0,0,0-.33-.19,1.18,1.18,0,0,0-.46-.09,1.75,1.75,0,0,0-.56,0,1.88,1.88,0,0,0-.57.17l-.33.17a1.36,1.36,0,0,0-.44.42l-.1.22a.46.46,0,0,0,.11.42Z"/>
      <path class="cls-2" d="M167.69,97.72l-.51,6.63c0,.61.81.6,1.23.53a3,3,0,0,0,1.1-.36c.19-.12.54-.32.56-.57l.51-6.64c0-.6-.8-.59-1.22-.52a2.8,2.8,0,0,0-1.1.36c-.19.12-.55.32-.57.57Z"/>
      <path class="cls-2" d="M159,106.58l-.37,5.56.1.14a6.68,6.68,0,0,0,6.88-.57,4.7,4.7,0,0,0,1.93-4.85c-.05-.2-.38-.27-.53-.29a3,3,0,0,0-1.07.11c-.28.07.23,0,0,0l-.2,0c-.23,0-.09,0,0,0a.47.47,0,0,0-.2,0h-.25c-.18,0,.28,0,0,0l-.45,0-.2,0-.09,0-.44-.13a4.94,4.94,0,0,1-.78-.33,2.31,2.31,0,0,0-1.89.08,2,2,0,0,0-.8.5c-.09.11-.22.36,0,.47a7.61,7.61,0,0,0,5.62.58l-1.6-.18a3.81,3.81,0,0,1-.16,2.31,3,3,0,0,1-.24.51,2.52,2.52,0,0,1-.29.44c-.06.07-.12.13-.17.2l-.13.12s-.11.11,0,0-.14.11-.17.14l-.11.07s-.2.12-.06,0-.15.06-.18.09l.13,0-.17.06c-.15.07.18,0,.17,0l-.13,0c-.35.09.3,0-.05,0s.21,0,0,0h-.36l-.36,0c-.11,0,0,0,0,0l-.17,0-.26-.09-.29-.11c-.15-.07-.08,0-.08-.13,0-.56.08-1.11.11-1.66l.25-3.72c0-.6-2.84-.21-2.9.77Z"/>
      <path class="cls-2" d="M126.81,107.82l.17,2.52a1,1,0,0,0,.51.87,1.8,1.8,0,0,0,1.25.11l3.24-.55c.77-.13,1.61-.19,2.06-.92a3.71,3.71,0,0,0,.53-1.36,4.15,4.15,0,0,0-1.85-4,4.24,4.24,0,0,0-3.22-.58c-.59.11-1.38.79-1.16,1.46s1.08.8,1.74.68c-.54.1-.23,0-.09,0s.34,0,0,0,0,0,.05,0,.36.12-.05,0c.13,0,.26.09.39.15s0,0-.07,0,.13.08.2.13a2.1,2.1,0,0,1,.33.26c.24.21-.13-.16,0,0l.12.14a3.25,3.25,0,0,1,.49.77l-.13-.27a3.11,3.11,0,0,1,.3,1.11l0-.3a6.48,6.48,0,0,1-.06.77c0-.27.06-.2,0-.07a1.22,1.22,0,0,1-.07.17l-.07.16c-.09.19.19-.28,0,0l.94-.59-4.25.73,1.76,1-.17-2.52a.94.94,0,0,0-.37-.79,1.51,1.51,0,0,0-1-.26,1.92,1.92,0,0,0-1.09.41c-.22.19-.52.5-.5.82Z"/>
      <path class="cls-2" d="M136.41,135.2l.47,3.84c.05.38.62.49.91.51a6.57,6.57,0,0,0,5.31-2.19,5.2,5.2,0,0,0,1.31-4.64.77.77,0,0,0-.58-.46l-2.38-.53a2.32,2.32,0,0,0-2,.55.77.77,0,0,0-.27.69.76.76,0,0,0,.58.47l2.38.52-.58-.46a4.1,4.1,0,0,1,.1.48c0,.08,0,.16,0,.24,0,.24,0-.16,0,.09a5.17,5.17,0,0,1-.13.95c0,.15-.09.31-.14.46,0-.16,0,0,0,.06l-.09.19a4.49,4.49,0,0,1-.24.42c-.05.07-.09.14-.14.2l-.08.12c.1-.14,0,0-.06.07l-.17.18a3.89,3.89,0,0,1-.36.34c-.21.19.24-.17,0,0l-.2.14-.2.13c-.25.16.3-.14,0,0s-.31.12-.44.19l.22-.07-.15,0-.23.06c-.27.07.36,0,.07,0l-.2,0c-.31,0,.19,0,0,0l-.29,0,.91.52-.47-3.85c0-.25-.38-.41-.58-.46a2.12,2.12,0,0,0-1.09,0c-.54.16-1.31.53-1.23,1.21Z"/>
      <path class="cls-2" d="M155.38,129.8h-.51a1.75,1.75,0,0,0-.56,0,2,2,0,0,0-.58.17,1.48,1.48,0,0,0-.45.28.9.9,0,0,0-.31.33l-.1.23a.5.5,0,0,0,.12.44l.2.15a1.41,1.41,0,0,0,.6.16h.51a3,3,0,0,0,1.14-.22,1.31,1.31,0,0,0,.45-.28.9.9,0,0,0,.31-.33l.1-.23a.51.51,0,0,0-.12-.44L156,130a1.41,1.41,0,0,0-.6-.16Z"/>
      <path class="cls-2" d="M154.78,138.24v1a.36.36,0,0,0,.2.23.72.72,0,0,0,.36.14,2.08,2.08,0,0,0,.5,0,2.71,2.71,0,0,0,.57-.09l.38-.13a2.73,2.73,0,0,0,.6-.34l.19-.2a.47.47,0,0,0,.1-.39v-1a.32.32,0,0,0-.19-.23.66.66,0,0,0-.36-.13,1.68,1.68,0,0,0-.5,0,2.8,2.8,0,0,0-.58.09l-.37.13a2.25,2.25,0,0,0-.6.35l-.19.19a.51.51,0,0,0-.11.39Z"/>
      <path class="cls-2" d="M159,131.61v.51a.2.2,0,0,0,.17.12.72.72,0,0,0,.33.06,2.63,2.63,0,0,0,.49,0,3.86,3.86,0,0,0,.57-.12L161,132a3.33,3.33,0,0,0,.61-.27l.2-.15a.29.29,0,0,0,.15-.26v-.51a.21.21,0,0,0-.17-.13.78.78,0,0,0-.34,0,2.77,2.77,0,0,0-.49,0,3.47,3.47,0,0,0-.56.11l-.39.12a3,3,0,0,0-.61.28l-.2.14a.3.3,0,0,0-.14.27Z"/>
      <path class="cls-2" d="M160.38,136c.56,0,1.64-.2,1.92-.75s-.25-.73-.75-.73-1.63.21-1.92.76.25.72.75.72Z"/>
      <path class="cls-2" d="M163,136.76c.64,0,1.59-.18,1.9-.84s-.24-1-.84-1-1.59.18-1.9.84.24,1,.84,1Z"/>
      <path class="cls-2" d="M162.32,140l-.51.51a.81.81,0,0,0-.22.38.52.52,0,0,0,0,.39.57.57,0,0,0,.22.32.77.77,0,0,0,.38.22l.33.06a2.22,2.22,0,0,0,.77-.07l.37-.13a1.85,1.85,0,0,0,.58-.41l.51-.51a.74.74,0,0,0,.22-.38.52.52,0,0,0,0-.39.5.5,0,0,0-.22-.32.77.77,0,0,0-.38-.22l-.33-.07a2.49,2.49,0,0,0-.77.07l-.37.14a2,2,0,0,0-.58.41Z"/>
      <path class="cls-2" d="M162.43,146.79c.56,0,1.63-.21,1.92-.77s-.25-.76-.76-.76-1.63.21-1.92.77.25.76.76.76Z"/>
      <path class="cls-2" d="M155.89,119.59h-.51a1.75,1.75,0,0,0-.56,0,2,2,0,0,0-.58.17,1.41,1.41,0,0,0-.45.28.9.9,0,0,0-.31.33l-.09.23a.48.48,0,0,0,.11.44l.2.15a1.41,1.41,0,0,0,.6.16h.51a2.09,2.09,0,0,0,.56-.05,2.41,2.41,0,0,0,.58-.17,1.48,1.48,0,0,0,.45-.28,1.08,1.08,0,0,0,.31-.33l.1-.23a.5.5,0,0,0-.12-.44l-.2-.15a1.41,1.41,0,0,0-.6-.16Z"/>
      <path class="cls-2" d="M153.3,117.9c.65,0,1.59-.18,1.89-.86s-.23-1.1-.85-1.1-1.59.17-1.89.85.23,1.11.85,1.11Z"/>
      <path class="cls-2" d="M155.84,115.82c.64,0,1.59-.18,1.9-.84s-.24-1-.84-1-1.59.18-1.9.84.25,1,.84,1Z"/>
      <path class="cls-2" d="M159.92,116.83c.64,0,1.6-.18,1.9-.84s-.24-1-.83-1-1.59.19-1.9.84.24,1,.83,1Z"/>
      <path class="cls-2" d="M142.17,113.08l-.51,3.06a.17.17,0,0,0,0,.21.31.31,0,0,0,.22.14,2.24,2.24,0,0,0,.93,0,3.54,3.54,0,0,0,1.1-.35l.28-.15a1,1,0,0,0,.31-.32l.51-3.07a.15.15,0,0,0,0-.2.25.25,0,0,0-.22-.14,2.09,2.09,0,0,0-.93,0,3.92,3.92,0,0,0-1.1.35l-.27.15a.85.85,0,0,0-.32.33Z"/>
      <path class="cls-2" d="M143.69,121.9v1a.3.3,0,0,0,.18.2.76.76,0,0,0,.35.11,2.08,2.08,0,0,0,.5,0,2.27,2.27,0,0,0,.58-.1l.38-.12a2.59,2.59,0,0,0,.59-.32l.2-.18a.39.39,0,0,0,.12-.35v-1a.31.31,0,0,0-.19-.2.68.68,0,0,0-.35-.1,1.68,1.68,0,0,0-.5,0,2.28,2.28,0,0,0-.57.1l-.38.12a2.89,2.89,0,0,0-.6.32l-.19.18a.39.39,0,0,0-.12.35Z"/>
      <path class="cls-2" d="M145.08,122.46l1,3.06c.22.62,1.17.58,1.67.43a2.05,2.05,0,0,0,1-.52c.16-.17.36-.43.27-.69l-1.05-3c-.21-.62-1.16-.58-1.66-.43a2,2,0,0,0-1,.51c-.17.18-.36.43-.27.69Z"/>
      <path class="cls-2" d="M98.79,108.12l3.58,1a2.24,2.24,0,0,0,1.09,0,2.12,2.12,0,0,0,1-.5c.16-.17.36-.42.27-.67a.74.74,0,0,0-.57-.44l-3.57-1a2.23,2.23,0,0,0-1.09,0,2.18,2.18,0,0,0-1,.51c-.16.16-.37.41-.28.66a.74.74,0,0,0,.57.44Z"/>
      <path class="cls-2" d="M100.41,103.71a2.9,2.9,0,0,0,2.1.85,5,5,0,0,0,1.79-.33,3.47,3.47,0,0,0,1.18-.78.77.77,0,0,0,.27-.69.79.79,0,0,0-.58-.47,2.24,2.24,0,0,0-1.09,0,2.18,2.18,0,0,0-1,.51,1.29,1.29,0,0,1-.17.16l.26-.21a1.7,1.7,0,0,1-.22.15l.32-.18a1.33,1.33,0,0,1-.24.11l.38-.13a1.43,1.43,0,0,1-.28.07l.39-.07a1.53,1.53,0,0,1-.3,0h.37a1.83,1.83,0,0,1-.33,0l.33.05a2.48,2.48,0,0,1-.39-.1l.27.1a1.76,1.76,0,0,1-.42-.24l.19.16a1.7,1.7,0,0,1-.19-.19,1.15,1.15,0,0,0-.79-.3,2.34,2.34,0,0,0-1.14.21,1.61,1.61,0,0,0-.77.61.57.57,0,0,0,0,.67Z"/>
      <path class="cls-2" d="M107.44,99.15a3.36,3.36,0,0,0,2-.55c.36-.31.47-.68-.18-.68a3.34,3.34,0,0,0-2,.55c-.36.31-.47.68.18.68Z"/>
      <path class="cls-2" d="M110,105.37l-.51,1a.2.2,0,0,0,0,.24.31.31,0,0,0,.23.18,1.16,1.16,0,0,0,.42.07,2.3,2.3,0,0,0,.52,0,3.1,3.1,0,0,0,1.1-.36l.27-.17a.88.88,0,0,0,.3-.36l.51-1a.22.22,0,0,0,0-.25.33.33,0,0,0-.24-.17,1,1,0,0,0-.41-.07,1.89,1.89,0,0,0-.53,0,3.39,3.39,0,0,0-1.1.36l-.26.17a.92.92,0,0,0-.31.37Z"/>
      <path class="cls-2" d="M111,110.49l-.52,1a.18.18,0,0,0,0,.22.27.27,0,0,0,.23.15,1.15,1.15,0,0,0,.41.05,1.8,1.8,0,0,0,.52,0,3.22,3.22,0,0,0,1.1-.35,1.23,1.23,0,0,0,.58-.5l.52-1a.18.18,0,0,0,0-.22.27.27,0,0,0-.23-.15,1.13,1.13,0,0,0-.41,0,2.3,2.3,0,0,0-.52,0,3.64,3.64,0,0,0-1.1.36,1.32,1.32,0,0,0-.58.49Z"/>
      <path class="cls-2" d="M95.56,120.31c.58,0,1.62-.2,1.91-.8s-.24-.87-.79-.87-1.62.19-1.91.79.24.88.79.88Z"/>
      <path class="cls-2" d="M94.48,113c.51,0,1.66-.22,1.94-.71s-.26-.56-.71-.56-1.66.22-1.93.71.25.56.7.56Z"/>
      <path class="cls-2" d="M94.16,103l.51,2.55a1,1,0,0,0,.62.64,1.83,1.83,0,0,0,1.11,0c.64-.2,1.31-.71,1.17-1.45l-.51-2.56a1,1,0,0,0-.63-.63,1.76,1.76,0,0,0-1.11,0c-.63.19-1.31.7-1.16,1.45Z"/>
      <path class="cls-2" d="M96.44,105.78l-.51.51a.88.88,0,0,0-.22.4.61.61,0,0,0,0,.4.59.59,0,0,0,.22.35.86.86,0,0,0,.39.23l.33.07a2,2,0,0,0,.77-.06l.38-.14a1.79,1.79,0,0,0,.57-.42l.51-.51a.75.75,0,0,0,.21-.39.58.58,0,0,0,0-.41.55.55,0,0,0-.23-.34.73.73,0,0,0-.38-.24l-.34-.07a2,2,0,0,0-.76.06l-.38.14a1.69,1.69,0,0,0-.57.42Z"/>
      <path class="cls-2" d="M90.59,111.4a3.45,3.45,0,0,0,2-.55c.36-.31.47-.67-.18-.67a3.41,3.41,0,0,0-2,.55c-.37.31-.47.67.18.67Z"/>
      <path class="cls-2" d="M90.08,108.35a3.36,3.36,0,0,0,2-.55c.36-.31.47-.69-.19-.69a3.29,3.29,0,0,0-2,.55c-.36.31-.47.69.19.69Z"/>
      <path class="cls-2" d="M93.48,105.61H93a2,2,0,0,0-.49,0,3.82,3.82,0,0,0-.57.11,3.13,3.13,0,0,0-.54.19,2.35,2.35,0,0,0-.45.22l-.2.15a.31.31,0,0,0-.14.27l.09.11a.76.76,0,0,0,.42.09h.51a2,2,0,0,0,.49,0,4.1,4.1,0,0,0,1.12-.3,2.58,2.58,0,0,0,.44-.22l.2-.15a.29.29,0,0,0,.14-.27l-.08-.11a.9.9,0,0,0-.43-.09Z"/>
      <path class="cls-2" d="M99.3,110.72h-.51a1.45,1.45,0,0,0-.58.14,1.37,1.37,0,0,0-.51.26,1.1,1.1,0,0,0-.33.38.79.79,0,0,0-.17.41l0,.29a.85.85,0,0,0,.34.47l.28.14a1.72,1.72,0,0,0,.71.09h.51a1.44,1.44,0,0,0,.58-.13,1.56,1.56,0,0,0,.51-.27,1.2,1.2,0,0,0,.34-.37.77.77,0,0,0,.16-.42l0-.29a.86.86,0,0,0-.34-.46l-.28-.15a1.72,1.72,0,0,0-.71-.09Z"/>
      <path class="cls-2" d="M99.15,112.7c.6,0,1.61-.19,1.9-.82s-.23-.95-.81-.95-1.62.18-1.91.81.23,1,.82,1Z"/>
      <path class="cls-2" d="M100.94,112.83l-.52,1a.38.38,0,0,0-.09.32.28.28,0,0,0,.1.28.61.61,0,0,0,.32.18,1.21,1.21,0,0,0,.46.08l.37,0a2.68,2.68,0,0,0,.77-.21l.32-.16a1.58,1.58,0,0,0,.45-.4l.52-1a.42.42,0,0,0,.1-.32.3.3,0,0,0-.1-.28.72.72,0,0,0-.33-.18,1.39,1.39,0,0,0-.46-.08l-.36,0a3.37,3.37,0,0,0-.77.21l-.33.17a1.33,1.33,0,0,0-.45.4Z"/>
      <path class="cls-2" d="M101.55,117.55l-1,1a.84.84,0,0,0-.22.39.52.52,0,0,0,0,.39.51.51,0,0,0,.22.33.77.77,0,0,0,.38.22l.33.07a2.24,2.24,0,0,0,.77-.07l.37-.14a2,2,0,0,0,.58-.41l1-1a.86.86,0,0,0,.22-.38.61.61,0,0,0,0-.4.51.51,0,0,0-.22-.33.77.77,0,0,0-.38-.22l-.33-.06a2,2,0,0,0-.77.06l-.37.14a2,2,0,0,0-.58.41Z"/>
      <path class="cls-2" d="M101.31,118.79h-.51a2.52,2.52,0,0,0-.55.08,2.94,2.94,0,0,0-.58.16,2,2,0,0,0-.46.24,1,1,0,0,0-.33.25l-.11.18a.24.24,0,0,0,.08.3l.18.09a1.37,1.37,0,0,0,.57.06h.51a2.6,2.6,0,0,0,.56-.07,2.69,2.69,0,0,0,.57-.17,2,2,0,0,0,.47-.23,1.35,1.35,0,0,0,.33-.26l.11-.17a.25.25,0,0,0-.08-.3l-.18-.1a1.88,1.88,0,0,0-.58-.06Z"/>
      <path class="cls-2" d="M102.27,111l-1.53.51a4,4,0,0,0-.48.2,2.39,2.39,0,0,0-.34.21c-.09.09-.23.24-.07.34l.17,0a1.75,1.75,0,0,0,.56,0,5.45,5.45,0,0,0,1.13-.26l1.53-.51a2.76,2.76,0,0,0,.47-.2,1.25,1.25,0,0,0,.35-.21c.09-.08.23-.24.07-.34l-.18,0a2.53,2.53,0,0,0-.55,0,6.18,6.18,0,0,0-1.13.26Z"/>
      <path class="cls-2" d="M102.68,108.87v1a.54.54,0,0,0,.08.39.62.62,0,0,0,.27.31,1,1,0,0,0,.44.17,1.41,1.41,0,0,0,.54,0l.39-.06a2.15,2.15,0,0,0,.7-.33l.25-.23a1,1,0,0,0,.26-.52v-1a.53.53,0,0,0-.07-.39.58.58,0,0,0-.27-.31,1,1,0,0,0-.44-.17,1.41,1.41,0,0,0-.54,0l-.4.07a2.2,2.2,0,0,0-.69.33l-.26.23a1,1,0,0,0-.26.52Z"/>
      <path class="cls-2" d="M106.31,112.76c.64,0,1.59-.19,1.9-.85s-.24-1-.84-1-1.59.18-1.9.84.24,1.05.84,1.05Z"/>
      <path class="cls-2" d="M109.24,110l-1,1a.71.71,0,0,0-.23.34.45.45,0,0,0,0,.34.48.48,0,0,0,.21.27.65.65,0,0,0,.37.18l.33,0a2.47,2.47,0,0,0,.76-.09L110,112a1.93,1.93,0,0,0,.59-.38l1-1a.67.67,0,0,0,.23-.34.4.4,0,0,0,0-.34.43.43,0,0,0-.2-.27.76.76,0,0,0-.37-.18l-.33,0a2.43,2.43,0,0,0-.76.08l-.38.13a2.24,2.24,0,0,0-.58.38Z"/>
      <path class="cls-2" d="M108.24,115.93c1.65,0,2.23-2.11.26-2.11-1.64,0-2.23,2.11-.26,2.11Z"/>
      <path class="cls-2" d="M98.29,112.8h-.51a1.59,1.59,0,0,0-.58.13,1.56,1.56,0,0,0-.51.27,1,1,0,0,0-.34.36.75.75,0,0,0-.17.41l0,.27a.84.84,0,0,0,.33.45l.28.14a1.71,1.71,0,0,0,.71.08H98a1.63,1.63,0,0,0,.58-.13,1.56,1.56,0,0,0,.51-.27,1,1,0,0,0,.34-.36.84.84,0,0,0,.17-.41l0-.27a.84.84,0,0,0-.33-.45l-.28-.14a1.71,1.71,0,0,0-.71-.08Z"/>
      <path class="cls-2" d="M96.77,117.25l-.51,1a.65.65,0,0,0-.07.43.56.56,0,0,0,.13.39.82.82,0,0,0,.36.28,1,1,0,0,0,.47.15h.38a2.11,2.11,0,0,0,.77-.21l.31-.19a1.29,1.29,0,0,0,.43-.5l.51-1a.65.65,0,0,0,.07-.43.52.52,0,0,0-.14-.39.74.74,0,0,0-.35-.28,1,1,0,0,0-.47-.15h-.38a2.11,2.11,0,0,0-.77.21l-.32.19a1.36,1.36,0,0,0-.42.5Z"/>
      <path class="cls-2" d="M101.43,121.07l-.51.51a.3.3,0,0,0-.12.24.18.18,0,0,0,.09.21.56.56,0,0,0,.3.12,1.71,1.71,0,0,0,.45,0l.36,0a3.52,3.52,0,0,0,.77-.21l.33-.14a1.77,1.77,0,0,0,.47-.34l.51-.51a.32.32,0,0,0,.12-.25.17.17,0,0,0-.09-.2.56.56,0,0,0-.3-.12,1.71,1.71,0,0,0-.45,0l-.36,0a3.52,3.52,0,0,0-.77.21l-.33.14a1.77,1.77,0,0,0-.47.34Z"/>
      <path class="cls-2" d="M103.58,121.59l-.51.51a.81.81,0,0,0-.21.41.69.69,0,0,0,.21.77.88.88,0,0,0,.38.24l.34.08a2.23,2.23,0,0,0,.77-.06l.37-.14a1.86,1.86,0,0,0,.57-.43l.51-.51a.93.93,0,0,0,.22-.4.67.67,0,0,0,0-.42.57.57,0,0,0-.23-.35.8.8,0,0,0-.39-.25l-.33-.07a2,2,0,0,0-.77.06l-.38.13a1.86,1.86,0,0,0-.57.43Z"/>
      <path class="cls-2" d="M105.25,126.39c.57,0,1.62-.2,1.91-.78s-.24-.8-.77-.8-1.63.2-1.92.78.25.8.78.8Z"/>
      <path class="cls-2" d="M110,120.1a3.27,3.27,0,0,0,2-.55c.36-.31.47-.7-.18-.7a3.28,3.28,0,0,0-2,.55c-.36.31-.47.7.19.7Z"/>
      <path class="cls-2" d="M111.31,127.17c1.65,0,2.22-2.12.26-2.12-1.66,0-2.23,2.12-.26,2.12Z"/>
      <path class="cls-2" d="M110.33,133.44c.54,0,1.64-.21,1.92-.74s-.25-.65-.73-.65-1.64.22-1.92.74.26.65.73.65Z"/>
      <path class="cls-2" d="M101.31,129.56v1a.28.28,0,0,0,.18.2.73.73,0,0,0,.35.12,1.67,1.67,0,0,0,.5,0,2.8,2.8,0,0,0,.58-.09l.38-.13a2.59,2.59,0,0,0,.59-.32l.2-.19a.39.39,0,0,0,.11-.35v-1a.28.28,0,0,0-.18-.2.73.73,0,0,0-.35-.12,1.67,1.67,0,0,0-.5,0,2.8,2.8,0,0,0-.58.09l-.38.13a2.59,2.59,0,0,0-.59.32l-.2.19a.42.42,0,0,0-.11.35Z"/>
      <path class="cls-2" d="M99.75,127.23v.51a.95.95,0,0,0,.36.76,1,1,0,0,0,.45.19,1.28,1.28,0,0,0,.55.06l.39-.07a1.83,1.83,0,0,0,.7-.34l.25-.24a1,1,0,0,0,.24-.56V127a.57.57,0,0,0-.08-.42.66.66,0,0,0-.28-.34,1,1,0,0,0-.45-.19,1.22,1.22,0,0,0-.54,0l-.4.06a2,2,0,0,0-.69.34l-.25.24a1.06,1.06,0,0,0-.25.56Z"/>
      <path class="cls-2" d="M92.39,124.8l-1,1a.61.61,0,0,0-.23.34.41.41,0,0,0,0,.34.48.48,0,0,0,.21.27.65.65,0,0,0,.37.18l.33,0a2.44,2.44,0,0,0,.76-.09l.38-.13a2,2,0,0,0,.58-.38l1-1A.67.67,0,0,0,95,125a.4.4,0,0,0,0-.34.47.47,0,0,0-.2-.28.74.74,0,0,0-.37-.17l-.33,0a2.44,2.44,0,0,0-.76.09l-.38.13a1.88,1.88,0,0,0-.58.38Z"/>
      <path class="cls-2" d="M89.36,119.26a2.4,2.4,0,0,0-.84,1.68,2.43,2.43,0,0,0,.12.89,2.18,2.18,0,0,0,.5.77,1.21,1.21,0,0,0,.78.25,2.8,2.8,0,0,0,1.14-.23,1.74,1.74,0,0,0,.78-.56.45.45,0,0,0,0-.59,1.45,1.45,0,0,1-.28-.36l.1.18a1.85,1.85,0,0,1-.23-.92v.2a1.91,1.91,0,0,1,.17-.77l-.1.21a1.6,1.6,0,0,1,.26-.38l-.19.21a.68.68,0,0,1,.12-.12c.15-.14.35-.38.29-.62s-.36-.35-.56-.39a2.76,2.76,0,0,0-2,.55Z"/>
      <path class="cls-2" d="M86.89,132.6c.6,0,1.61-.19,1.9-.81s-.23-.93-.8-.93-1.62.19-1.91.81.23.93.81.93Z"/>
      <path class="cls-2" d="M93.47,131.39c.54,0,1.64-.22,1.93-.73s-.26-.64-.72-.64-1.64.22-1.93.74.26.63.72.63Z"/>
      <path class="cls-2" d="M99.41,132.09l-1,2a.84.84,0,0,0,.07.85,1.21,1.21,0,0,0,.83.45,1.84,1.84,0,0,0,1.88-.91l1-2a.89.89,0,0,0-.07-.85,1.25,1.25,0,0,0-.84-.45,1.85,1.85,0,0,0-1.88.91Z"/>
      <path class="cls-2" d="M104.13,139.6l-.51.51a.71.71,0,0,0-.23.34.47.47,0,0,0,0,.35.45.45,0,0,0,.21.28.76.76,0,0,0,.37.18l.32,0a2.4,2.4,0,0,0,.76-.08l.38-.13a2.29,2.29,0,0,0,.59-.38l.51-.51a.74.74,0,0,0,.23-.35.44.44,0,0,0,0-.34.46.46,0,0,0-.21-.28.8.8,0,0,0-.37-.18l-.33-.05a2.44,2.44,0,0,0-.76.09l-.38.13a2,2,0,0,0-.58.38Z"/>
      <path class="cls-2" d="M104.72,144.2c.55,0,1.63-.21,1.92-.75s-.25-.71-.74-.71-1.64.21-1.93.76.26.7.75.7Z"/>
      <path class="cls-2" d="M112,136.2v.51a.26.26,0,0,0,.18.17.77.77,0,0,0,.34.08,2.1,2.1,0,0,0,.5,0,2.84,2.84,0,0,0,.57-.1l.38-.12a2.85,2.85,0,0,0,.6-.31l.2-.16a.35.35,0,0,0,.13-.31v-.52a.24.24,0,0,0-.18-.16.59.59,0,0,0-.34-.08,2.09,2.09,0,0,0-.5,0,2.87,2.87,0,0,0-.57.11l-.38.12a3.36,3.36,0,0,0-.6.3l-.2.17a.34.34,0,0,0-.13.31Z"/>
      <path class="cls-2" d="M84.83,142.84v1A.19.19,0,0,0,85,144a.72.72,0,0,0,.33,0,2,2,0,0,0,.49,0,3.86,3.86,0,0,0,.57-.12l.38-.11a4.22,4.22,0,0,0,.61-.28l.2-.15a.28.28,0,0,0,.14-.27v-1a.21.21,0,0,0-.16-.13.78.78,0,0,0-.34-.05,2,2,0,0,0-.49,0,3.82,3.82,0,0,0-.57.11l-.38.12a3,3,0,0,0-.61.28l-.2.14a.29.29,0,0,0-.14.27Z"/>
      <path class="cls-2" d="M92,83.13c.64,0,1.59-.18,1.9-.84s-.24-1-.83-1-1.6.18-1.9.84.24,1,.83,1Z"/>
      <path class="cls-2" d="M165.61,80.33l-.52,1a.27.27,0,0,0,0,.27.32.32,0,0,0,.23.19,1.07,1.07,0,0,0,.43.09,1.82,1.82,0,0,0,.52,0l.39-.08a2.92,2.92,0,0,0,.71-.28l.27-.18A.87.87,0,0,0,168,81l.52-1a.27.27,0,0,0-.05-.27.32.32,0,0,0-.23-.19,1.06,1.06,0,0,0-.43-.08,1.52,1.52,0,0,0-.52,0l-.39.08a3.12,3.12,0,0,0-.71.29l-.26.18a.85.85,0,0,0-.3.38Z"/>
      <path class="cls-2" d="M161.28,153.07l-.51-.51a.67.67,0,0,0-.34-.24,1.1,1.1,0,0,0-.47-.13,1.83,1.83,0,0,0-.57,0,1.88,1.88,0,0,0-.57.17l-.33.19a1.35,1.35,0,0,0-.43.46l-.09.26a.63.63,0,0,0,.13.48l.51.51a.69.69,0,0,0,.35.24.94.94,0,0,0,.47.12,1.5,1.5,0,0,0,.56,0,2,2,0,0,0,.58-.17l.32-.19a1.35,1.35,0,0,0,.43-.46l.09-.26a.63.63,0,0,0-.13-.48Z"/>
      <path class="cls-2" d="M131.15,146.12l.51-1a.55.55,0,0,0,.09-.39.43.43,0,0,0-.13-.35.69.69,0,0,0-.34-.24.94.94,0,0,0-.47-.12h-.37a2.31,2.31,0,0,0-.77.2l-.32.19a1.26,1.26,0,0,0-.43.46l-.52,1a.48.48,0,0,0-.08.38.49.49,0,0,0,.12.36.71.71,0,0,0,.34.23,1.1,1.1,0,0,0,.47.13h.37a2.51,2.51,0,0,0,.77-.21l.32-.18a1.41,1.41,0,0,0,.44-.47Z"/>
      <path class="cls-2" d="M131.27,141.25v-.51a.32.32,0,0,0-.05-.3.41.41,0,0,0-.25-.23,1,1,0,0,0-.43-.11,1.88,1.88,0,0,0-.53,0l-.39.08a3,3,0,0,0-.71.3l-.26.19a1,1,0,0,0-.28.43v.52a.32.32,0,0,0,0,.3.41.41,0,0,0,.25.23,1,1,0,0,0,.43.11,1.57,1.57,0,0,0,.53,0l.39-.07a2.9,2.9,0,0,0,.7-.3l.27-.2a.85.85,0,0,0,.28-.43Z"/>
      <path class="cls-2" d="M129.26,135.14c.6,0,1.62-.19,1.91-.81s-.23-.91-.8-.91-1.62.2-1.91.81.24.91.8.91Z"/>
      <path class="cls-2" d="M131.77,130.36c.53,0,1.64-.22,1.93-.73s-.26-.62-.72-.62-1.65.22-1.93.73.26.62.72.62Z"/>
      <path class="cls-2" d="M133.46,129.8v1a.51.51,0,0,0,.08.4.65.65,0,0,0,.26.31,1.08,1.08,0,0,0,.45.17,1.41,1.41,0,0,0,.54,0l.39-.07a2,2,0,0,0,.7-.33l.25-.23a1,1,0,0,0,.26-.52v-1a.48.48,0,0,0-.08-.39.55.55,0,0,0-.26-.32,1.08,1.08,0,0,0-.45-.17,1.38,1.38,0,0,0-.54,0l-.39.07a2.15,2.15,0,0,0-.7.33l-.25.23a1,1,0,0,0-.26.52Z"/>
      <path class="cls-2" d="M139.5,132.69c.65,0,1.6-.18,1.9-.85s-.24-1.07-.84-1.07-1.59.18-1.9.85.24,1.07.84,1.07Z"/>
      <path class="cls-2" d="M140.92,131.5l-.51.51a.71.71,0,0,0-.24.31.34.34,0,0,0,0,.31.32.32,0,0,0,.19.23.64.64,0,0,0,.36.15l.33,0a2.76,2.76,0,0,0,.75-.1l.38-.13a2,2,0,0,0,.59-.35l.51-.51a.67.67,0,0,0,.24-.31.35.35,0,0,0,.05-.3.36.36,0,0,0-.19-.24A.7.7,0,0,0,143,131l-.33,0a3.15,3.15,0,0,0-.75.1l-.38.13a2.3,2.3,0,0,0-.59.35Z"/>
      <path class="cls-2" d="M138.58,129.34v.51a.36.36,0,0,0,.06.32.42.42,0,0,0,.25.24,1.06,1.06,0,0,0,.43.12,1.57,1.57,0,0,0,.53,0l.39-.07a2.58,2.58,0,0,0,.7-.31l.26-.19a.9.9,0,0,0,.28-.44V129a.31.31,0,0,0,0-.31.45.45,0,0,0-.25-.24,1.11,1.11,0,0,0-.43-.12,1.57,1.57,0,0,0-.53,0l-.39.07a3,3,0,0,0-.71.3l-.26.2a.9.9,0,0,0-.28.44Z"/>
      <path class="cls-2" d="M140.85,128.4l.52-1.53c.06-.21-.09-.32-.26-.38a1.44,1.44,0,0,0-.41,0,2.24,2.24,0,0,0-.52,0,3.72,3.72,0,0,0-1.1.35l-.28.16a1,1,0,0,0-.31.34l-.51,1.53c-.07.2.09.31.26.37a1.13,1.13,0,0,0,.41.05,2.27,2.27,0,0,0,.52,0,3.64,3.64,0,0,0,1.1-.36l.27-.16a.76.76,0,0,0,.31-.33Z"/>
      <path class="cls-2" d="M140.5,124.41c.59,0,1.62-.19,1.91-.8s-.24-.91-.8-.91-1.62.19-1.91.81.24.9.8.9Z"/>
      <path class="cls-2" d="M138.46,120.85c.6,0,1.62-.19,1.91-.81s-.24-.93-.81-.93-1.62.19-1.91.82.24.92.81.92Z"/>
      <path class="cls-2" d="M136.49,115.49H136a1.75,1.75,0,0,0-.56.05,1.88,1.88,0,0,0-.57.17,1.67,1.67,0,0,0-.46.28,1.22,1.22,0,0,0-.31.33l-.09.24a.5.5,0,0,0,.12.44l.2.16a1.41,1.41,0,0,0,.6.16h.51a1.75,1.75,0,0,0,.56,0,2.41,2.41,0,0,0,.58-.17,1.48,1.48,0,0,0,.45-.28,1,1,0,0,0,.31-.34l.09-.23a.52.52,0,0,0-.12-.45l-.19-.16a1.57,1.57,0,0,0-.6-.16Z"/>
      <path class="cls-2" d="M131.24,117.52c1.69,0,2.19-2.22.23-2.22-1.69,0-2.2,2.22-.23,2.22Z"/>
      <path class="cls-2" d="M128.59,112.36l-1,1a.84.84,0,0,0-.21.42.66.66,0,0,0,0,.44.68.68,0,0,0,.23.38.93.93,0,0,0,.39.26l.34.09a2,2,0,0,0,.77-.06l.38-.14a1.5,1.5,0,0,0,.56-.44l1-1a.7.7,0,0,0,.21-.42.67.67,0,0,0,0-.44.69.69,0,0,0-.24-.38.82.82,0,0,0-.39-.26l-.33-.09a2.21,2.21,0,0,0-.77,0l-.38.15a1.62,1.62,0,0,0-.57.44Z"/>
      <path class="cls-2" d="M138.88,112.35c1.65,0,2.23-2.1.26-2.1-1.65,0-2.23,2.1-.26,2.1Z"/>
      <path class="cls-2" d="M137.46,108.69c.65,0,1.59-.18,1.9-.85s-.24-1.08-.85-1.08-1.59.18-1.89.85.24,1.08.84,1.08Z"/>
      <path class="cls-2" d="M140.46,103.86c.55,0,1.64-.21,1.93-.75s-.26-.7-.75-.7-1.63.21-1.92.75.25.7.74.7Z"/>
      <path class="cls-2" d="M140.34,102.68l-.51.51a.81.81,0,0,0-.21.41.71.71,0,0,0,.22.8.82.82,0,0,0,.38.25l.34.08a2,2,0,0,0,.77,0l.38-.14a1.74,1.74,0,0,0,.56-.44l.51-.51a.71.71,0,0,0,.21-.41.61.61,0,0,0,0-.44.58.58,0,0,0-.23-.36.74.74,0,0,0-.39-.25l-.33-.09a2,2,0,0,0-.77.06l-.38.14a1.62,1.62,0,0,0-.57.44Z"/>
      <path class="cls-2" d="M142,102.33h.51a2.15,2.15,0,0,0,.56-.07,2.19,2.19,0,0,0,.57-.16,1.77,1.77,0,0,0,.47-.25,1.18,1.18,0,0,0,.32-.27l.11-.19a.3.3,0,0,0-.09-.33l-.19-.11a1.9,1.9,0,0,0-.58-.09h-.51a2.7,2.7,0,0,0-.56.08,2.31,2.31,0,0,0-.57.16,1.83,1.83,0,0,0-.46.24,1.29,1.29,0,0,0-.33.28l-.11.19a.3.3,0,0,0,.09.33l.19.11a1.63,1.63,0,0,0,.58.08Z"/>
      <path class="cls-2" d="M145.34,100.12l-1,1a.28.28,0,0,0-.11.25.2.2,0,0,0,.08.23.63.63,0,0,0,.31.12,1.38,1.38,0,0,0,.45,0,3.62,3.62,0,0,0,1.13-.24l.33-.15A1.8,1.8,0,0,0,147,101l1-1a.3.3,0,0,0,.11-.26.19.19,0,0,0-.08-.22.63.63,0,0,0-.31-.12,1.38,1.38,0,0,0-.45,0,3.36,3.36,0,0,0-1.13.24l-.33.15a1.6,1.6,0,0,0-.47.35Z"/>
      <path class="cls-2" d="M146.36,101.18l.51.51a.69.69,0,0,0,.33.23,1.08,1.08,0,0,0,.47.11,1.83,1.83,0,0,0,.57,0,2.21,2.21,0,0,0,.57-.17l.32-.18a1.45,1.45,0,0,0,.44-.45l.09-.25a.52.52,0,0,0-.12-.45L149,100a.71.71,0,0,0-.34-.23,1.08,1.08,0,0,0-.47-.11,1.75,1.75,0,0,0-.56,0,2,2,0,0,0-.58.17l-.32.18a1.57,1.57,0,0,0-.44.45l-.09.24a.54.54,0,0,0,.13.46Z"/>
      <path class="cls-2" d="M148,98.14l-.51.51a.78.78,0,0,0-.22.38.62.62,0,0,0,.2.74.7.7,0,0,0,.38.22l.33.07A2,2,0,0,0,149,100l.37-.14a1.83,1.83,0,0,0,.58-.42l.51-.51a.81.81,0,0,0,.22-.38.61.61,0,0,0,0-.4.6.6,0,0,0-.22-.34.77.77,0,0,0-.38-.22l-.34-.07a2.18,2.18,0,0,0-.76.06l-.38.14a1.69,1.69,0,0,0-.57.42Z"/>
      <path class="cls-2" d="M149.2,97.92c.62,0,1.61-.18,1.9-.83s-.23-1-.83-1-1.61.19-1.9.84.23,1,.83,1Z"/>
      <path class="cls-2" d="M149.66,95.2c.56,0,1.63-.2,1.92-.76s-.25-.74-.75-.74-1.63.21-1.92.76.25.74.75.74Z"/>
      <path class="cls-2" d="M149.91,98.54l.51.51a.56.56,0,0,0,.31.12,1.6,1.6,0,0,0,.44,0,3.6,3.6,0,0,0,.56-.08,3.08,3.08,0,0,0,.57-.17l.33-.14a1.77,1.77,0,0,0,.47-.34l.11-.16a.23.23,0,0,0-.07-.29l-.52-.51a.56.56,0,0,0-.3-.12,1.71,1.71,0,0,0-.45,0,3.31,3.31,0,0,0-.55.08,3,3,0,0,0-.58.17l-.33.15a1.54,1.54,0,0,0-.47.33l-.11.17a.22.22,0,0,0,.08.28Z"/>
      <path class="cls-2" d="M151.2,101.35c.57,0,1.63-.2,1.92-.77s-.25-.78-.77-.78-1.63.2-1.92.77.25.78.77.78Z"/>
      <path class="cls-2" d="M152.15,104.68c1.64,0,2.24-2.07.27-2.07-1.63,0-2.24,2.07-.27,2.07Z"/>
      <path class="cls-2" d="M151.85,105.32v.51a.39.39,0,0,0,.07.35.47.47,0,0,0,.25.27,1,1,0,0,0,.44.14,1.62,1.62,0,0,0,.54,0l.39-.08a2.31,2.31,0,0,0,.7-.31l.26-.21a1.09,1.09,0,0,0,.27-.48V105a.43.43,0,0,0-.07-.35.49.49,0,0,0-.26-.27,1.11,1.11,0,0,0-.43-.15,1.63,1.63,0,0,0-.54,0l-.39.08a2.2,2.2,0,0,0-.7.31l-.26.21a.89.89,0,0,0-.27.48Z"/>
      <path class="cls-2" d="M154.52,108.81l.51.51a.59.59,0,0,0,.32.17,1,1,0,0,0,.46.08,2.09,2.09,0,0,0,.56,0,2.41,2.41,0,0,0,.58-.17l.32-.17a1.33,1.33,0,0,0,.45-.4l.1-.21a.4.4,0,0,0-.1-.39l-.51-.51a.72.72,0,0,0-.33-.18,1.17,1.17,0,0,0-.46-.08,2.67,2.67,0,0,0-.56.06,2.21,2.21,0,0,0-.57.17l-.33.17a1.33,1.33,0,0,0-.45.4l-.1.21a.4.4,0,0,0,.11.39Z"/>
      <path class="cls-2" d="M156.55,109.79l.51.51a.71.71,0,0,0,.31.13,1.38,1.38,0,0,0,.45,0,2.52,2.52,0,0,0,.55-.08,2.94,2.94,0,0,0,.58-.16l.33-.16a1.41,1.41,0,0,0,.46-.34l.11-.18a.27.27,0,0,0-.08-.31l-.51-.51a.71.71,0,0,0-.31-.13,1.38,1.38,0,0,0-.45,0,2.7,2.7,0,0,0-.56.08,3,3,0,0,0-.57.16L157,109a1.57,1.57,0,0,0-.47.34l-.1.18a.25.25,0,0,0,.08.31Z"/>
      <path class="cls-2" d="M160.47,109.8H160a1.54,1.54,0,0,0-.57,0,1.75,1.75,0,0,0-.58.17,1.23,1.23,0,0,0-.44.3,1,1,0,0,0-.31.35l-.09.26a.66.66,0,0,0,.13.49l.21.18a1.45,1.45,0,0,0,.61.19h.51a1.57,1.57,0,0,0,.57,0,1.63,1.63,0,0,0,.57-.17,1.51,1.51,0,0,0,.45-.29,1,1,0,0,0,.3-.36l.09-.26a.67.67,0,0,0-.13-.49l-.21-.18a1.41,1.41,0,0,0-.6-.19Z"/>
      <path class="cls-2" d="M151.71,90.1c.56,0,1.63-.2,1.92-.76s-.25-.75-.76-.75-1.63.2-1.92.76.25.75.76.75Z"/>
      <path class="cls-2" d="M152.15,91.89c1.62,0,2.25-2,.28-2-1.63,0-2.25,2-.28,2Z"/>
      <path class="cls-2" d="M155.42,93.56v.51a.47.47,0,0,0,.07.37.56.56,0,0,0,.27.3,1,1,0,0,0,.44.15,1.35,1.35,0,0,0,.53,0l.4-.07a2.36,2.36,0,0,0,.7-.33l.25-.22a1,1,0,0,0,.27-.5V93.3a.48.48,0,0,0-.08-.37.51.51,0,0,0-.26-.3,1,1,0,0,0-.44-.15,1.41,1.41,0,0,0-.54,0l-.39.07a2.25,2.25,0,0,0-.7.33l-.25.22a1,1,0,0,0-.27.5Z"/>
      <path class="cls-2" d="M158.5,96.06a3.47,3.47,0,0,0,2-.55c.38-.3.48-.62-.16-.62a3.48,3.48,0,0,0-2,.55c-.37.3-.47.62.17.62Z"/>
      <path class="cls-2" d="M161.4,96.72c.55,0,1.64-.21,1.92-.76s-.25-.71-.74-.71-1.64.21-1.93.75.26.72.75.72Z"/>
      <path class="cls-2" d="M162.68,93.16l-1,.52a1.18,1.18,0,0,0-.37.26.6.6,0,0,0-.2.27.21.21,0,0,0,0,.24.31.31,0,0,0,.23.17l.26.06a3.08,3.08,0,0,0,.68,0,3.84,3.84,0,0,0,1.1-.36l1-.52a1.18,1.18,0,0,0,.37-.26.6.6,0,0,0,.2-.27.2.2,0,0,0,0-.24.3.3,0,0,0-.23-.17l-.25-.06a3.08,3.08,0,0,0-.68,0,3.74,3.74,0,0,0-1.1.36Z"/>
      <path class="cls-2" d="M159.91,88.18c.6,0,1.62-.19,1.91-.81s-.24-1-.81-1-1.62.19-1.91.82.23.94.81.94Z"/>
      <path class="cls-2" d="M160.37,85.93c.53,0,1.64-.21,1.92-.73s-.26-.62-.72-.62-1.64.22-1.93.73.26.62.73.62Z"/>
      <path class="cls-2" d="M162.28,81.58l.51-.51a.27.27,0,0,0,.13-.22.13.13,0,0,0-.08-.17.61.61,0,0,0-.3-.08,1.24,1.24,0,0,0-.43,0l-.36,0a4.15,4.15,0,0,0-.77.2l-.34.14a2.09,2.09,0,0,0-.47.3l-.51.51a.25.25,0,0,0-.13.22.13.13,0,0,0,.07.17.67.67,0,0,0,.3.08,1.3,1.3,0,0,0,.44,0l.36,0a5.12,5.12,0,0,0,.77-.2l.33-.14a2,2,0,0,0,.48-.3Z"/>
      <path class="cls-2" d="M154.34,81.74h-.51a1.75,1.75,0,0,0-.56,0,2,2,0,0,0-.58.18,1.34,1.34,0,0,0-.45.29.92.92,0,0,0-.3.35l-.09.25a.56.56,0,0,0,.13.48l.2.17a1.45,1.45,0,0,0,.6.19h.52a1.75,1.75,0,0,0,.56,0,2,2,0,0,0,.58-.17,1.37,1.37,0,0,0,.45-.3,1,1,0,0,0,.3-.35l.09-.25a.59.59,0,0,0-.13-.48l-.2-.17a1.31,1.31,0,0,0-.61-.18Z"/>
      <path class="cls-2" d="M144.2,86.07h-.51a2.61,2.61,0,0,0-.56.08,2.94,2.94,0,0,0-.58.16,2,2,0,0,0-.46.24,1.4,1.4,0,0,0-.33.27l-.1.19a.28.28,0,0,0,.08.32l.19.1a1.58,1.58,0,0,0,.57.08H143a2.6,2.6,0,0,0,.56-.07,3,3,0,0,0,.58-.17,2,2,0,0,0,.46-.24,1.09,1.09,0,0,0,.33-.27l.11-.18a.28.28,0,0,0-.09-.32l-.18-.11a1.63,1.63,0,0,0-.58-.08Z"/>
      <path class="cls-2" d="M131.32,141.29c.6,0,1.61-.18,1.9-.81s-.23-1-.81-1-1.62.19-1.91.82.24.95.82.95Z"/>
      <path class="cls-2" d="M135.92,145.92c.62,0,1.61-.18,1.9-.83s-.23-1-.83-1-1.61.19-1.9.84.23,1,.83,1Z"/>
      <path class="cls-2" d="M139.16,144.26l-.52,1a.14.14,0,0,0,0,.19.25.25,0,0,0,.21.12,1.41,1.41,0,0,0,.41,0,2.21,2.21,0,0,0,.51-.05,4.32,4.32,0,0,0,1.11-.34l.27-.15a.84.84,0,0,0,.32-.3l.52-1c0-.07,0-.14,0-.18a.27.27,0,0,0-.22-.13,1.88,1.88,0,0,0-.41,0,2.21,2.21,0,0,0-.51.05,4.32,4.32,0,0,0-1.11.34l-.27.15a1,1,0,0,0-.32.3Z"/>
      <path class="cls-2" d="M112.64,76.82c.56,0,1.63-.2,1.92-.76s-.25-.75-.76-.75-1.63.21-1.92.77.25.74.76.74Z"/>
      <path class="cls-2" d="M116.47,75.29c.56,0,1.63-.2,1.92-.76s-.25-.75-.76-.75-1.63.2-1.92.76.25.75.76.75Z"/>
      <path class="cls-2" d="M117.23,74.48c.54,0,1.63-.21,1.92-.75s-.26-.67-.74-.67-1.63.21-1.92.75.25.67.74.67Z"/>
      <path class="cls-2" d="M120.36,70.16c.66,0,1.59-.18,1.9-.86s-.24-1.11-.86-1.11-1.59.18-1.89.86.23,1.11.85,1.11Z"/>
      <path class="cls-2" d="M123.26,68.56v2.3a.4.4,0,0,0,.06.34.46.46,0,0,0,.25.26,1.64,1.64,0,0,0,1,.15,2.3,2.3,0,0,0,1.1-.38l.26-.21a.93.93,0,0,0,.27-.47V68.26a.4.4,0,0,0-.06-.34.53.53,0,0,0-.26-.27,1.61,1.61,0,0,0-1-.15,2.45,2.45,0,0,0-1.09.38l-.26.21a.9.9,0,0,0-.27.47Z"/>
      <path class="cls-2" d="M128.75,77.68c.6,0,1.62-.19,1.91-.8s-.23-.9-.8-.9-1.61.2-1.9.81.23.89.79.89Z"/>
      <path class="cls-2" d="M134.86,72.26c.57,0,1.63-.2,1.92-.78s-.25-.79-.77-.79-1.63.2-1.92.77.25.8.77.8Z"/>
      <path class="cls-2" d="M137,71.6v.76a.49.49,0,0,0,.07.39.56.56,0,0,0,.27.3,1,1,0,0,0,.44.17,1.41,1.41,0,0,0,.54,0l.39-.07a1.94,1.94,0,0,0,.7-.32l.25-.23a.93.93,0,0,0,.26-.51v-.77a.46.46,0,0,0-.07-.38.55.55,0,0,0-.27-.31,1,1,0,0,0-.44-.17,1.41,1.41,0,0,0-.54,0l-.39.07a1.94,1.94,0,0,0-.7.32l-.25.23a1,1,0,0,0-.26.52Z"/>
      <path class="cls-2" d="M166.16,107.86v.77a.27.27,0,0,0,.18.18.72.72,0,0,0,.35.11,2.09,2.09,0,0,0,.5,0,2.28,2.28,0,0,0,.57-.1l.38-.12a2.89,2.89,0,0,0,.6-.32l.19-.18a.4.4,0,0,0,.13-.34v-.77a.31.31,0,0,0-.19-.18.69.69,0,0,0-.35-.11,2.1,2.1,0,0,0-.5,0,2.28,2.28,0,0,0-.57.1l-.38.12a2.89,2.89,0,0,0-.6.32l-.19.18a.37.37,0,0,0-.12.34Z"/>
      <path class="cls-2" d="M173.18,111.4c.6,0,1.62-.19,1.91-.81s-.23-.92-.8-.92-1.62.19-1.91.81.23.92.8.92Z"/>
      <path class="cls-2" d="M174.58,114v1.53a.28.28,0,0,0,.19.19.61.61,0,0,0,.35.11,1.4,1.4,0,0,0,.5,0,2.28,2.28,0,0,0,.57-.1,2.64,2.64,0,0,0,1-.44l.19-.18a.4.4,0,0,0,.12-.36v-1.53a.26.26,0,0,0-.19-.19.61.61,0,0,0-.35-.11,2,2,0,0,0-.49,0,2.27,2.27,0,0,0-.58.1,2.53,2.53,0,0,0-1,.45l-.2.18a.38.38,0,0,0-.12.35Z"/>
      <path class="cls-2" d="M163.86,121.44V123a.3.3,0,0,0,0,.3.41.41,0,0,0,.25.23.92.92,0,0,0,.43.11,1.88,1.88,0,0,0,.53,0,2.68,2.68,0,0,0,1.09-.38l.26-.19a.89.89,0,0,0,.29-.43v-1.54a.33.33,0,0,0-.06-.3.37.37,0,0,0-.24-.23,1,1,0,0,0-.43-.11,1.57,1.57,0,0,0-.53,0,2.66,2.66,0,0,0-1.1.37l-.26.2a.79.79,0,0,0-.28.43Z"/>
      <path class="cls-2" d="M165.39,126.79l-.77,2.3c-.07.23.13.45.31.55a1.72,1.72,0,0,0,.95.11,2.54,2.54,0,0,0,1.1-.38,1.28,1.28,0,0,0,.55-.62l.76-2.3c.08-.23-.12-.45-.3-.55a1.75,1.75,0,0,0-1-.11,2.54,2.54,0,0,0-1.1.38,1.21,1.21,0,0,0-.54.62Z"/>
      <path class="cls-2" d="M171.61,128.88c.55,0,1.64-.21,1.93-.75s-.26-.7-.75-.7-1.63.21-1.92.75.25.7.74.7Z"/>
      <path class="cls-2" d="M172.32,128.09l-.77,1.52a.4.4,0,0,0-.1.32.3.3,0,0,0,.1.29.67.67,0,0,0,.33.18,1.38,1.38,0,0,0,.45.08,2.77,2.77,0,0,0,1.14-.23l.33-.17a1.55,1.55,0,0,0,.45-.4l.77-1.52a.4.4,0,0,0,.1-.32.32.32,0,0,0-.1-.29.72.72,0,0,0-.33-.18,1.21,1.21,0,0,0-.46-.08,2.75,2.75,0,0,0-1.13.23l-.33.16a1.47,1.47,0,0,0-.45.41Z"/>
      <path class="cls-2" d="M172,130.25a3.68,3.68,0,0,0,2-.55c.38-.3.47-.58-.15-.58a3.68,3.68,0,0,0-2,.55c-.38.3-.48.58.15.58Z"/>
      <path class="cls-2" d="M165.26,129.5l-1.53.78a1.31,1.31,0,0,0-.37.24.61.61,0,0,0-.21.24.15.15,0,0,0,0,.21.29.29,0,0,0,.23.15,2.24,2.24,0,0,0,.93,0,4.27,4.27,0,0,0,1.1-.35L167,130a1.47,1.47,0,0,0,.37-.24.61.61,0,0,0,.21-.24.17.17,0,0,0,0-.21.3.3,0,0,0-.22-.15,2.24,2.24,0,0,0-.93,0,4.15,4.15,0,0,0-1.1.35Z"/>
      <path class="cls-2" d="M159.42,129.89c.65,0,1.59-.18,1.9-.86s-.24-1.08-.85-1.08-1.59.18-1.9.85.24,1.09.85,1.09Z"/>
      <path class="cls-2" d="M160.8,132.37v.77a.27.27,0,0,0,.18.18.6.6,0,0,0,.35.1,1.61,1.61,0,0,0,.49,0,2.27,2.27,0,0,0,.58-.1l.38-.12a2.89,2.89,0,0,0,.6-.32l.19-.17a.37.37,0,0,0,.12-.34v-.77a.27.27,0,0,0-.18-.18.68.68,0,0,0-.35-.1,1.61,1.61,0,0,0-.49,0,2.82,2.82,0,0,0-.58.1l-.38.12a2.89,2.89,0,0,0-.6.32l-.19.17a.37.37,0,0,0-.12.34Z"/>
      <path class="cls-2" d="M167.79,137.33c.55,0,1.63-.21,1.92-.76s-.25-.74-.75-.74-1.64.21-1.92.76.25.74.75.74Z"/>
      <path class="cls-2" d="M169.22,138.5v.76a.33.33,0,0,0,.19.22.69.69,0,0,0,.36.13,1.68,1.68,0,0,0,.5,0,2.61,2.61,0,0,0,.57-.09l.38-.13a2.22,2.22,0,0,0,.6-.34l.19-.19a.45.45,0,0,0,.11-.38v-.77a.38.38,0,0,0-.19-.22.67.67,0,0,0-.36-.12,1.4,1.4,0,0,0-.5,0,1.79,1.79,0,0,0-.57.09l-.38.13a2.19,2.19,0,0,0-.6.33l-.19.2a.45.45,0,0,0-.11.38Z"/>
      <path class="cls-2" d="M169,144.8a3.68,3.68,0,0,0,2-.55c.38-.3.47-.57-.16-.57a3.68,3.68,0,0,0-2,.55c-.38.29-.47.57.16.57Z"/>
      <path class="cls-2" d="M134,152.83v.77a.34.34,0,0,0,.06.31.44.44,0,0,0,.25.25,1.11,1.11,0,0,0,.43.12,1.57,1.57,0,0,0,.53,0l.4-.07a3.08,3.08,0,0,0,.7-.3l.26-.2a.89.89,0,0,0,.28-.45v-.76a.36.36,0,0,0-.06-.32.4.4,0,0,0-.25-.24.82.82,0,0,0-.43-.12,1.35,1.35,0,0,0-.53,0l-.39.07a2.64,2.64,0,0,0-.71.31l-.26.2a1,1,0,0,0-.28.44Z"/>
      <path class="cls-2" d="M132.2,153.27a3.4,3.4,0,0,0,2.05-.54c.37-.31.47-.68-.18-.68a3.45,3.45,0,0,0-2,.55c-.36.31-.47.67.18.67Z"/>
      <path class="cls-2" d="M126.42,149.56c.55,0,1.64-.21,1.93-.75s-.26-.7-.75-.7-1.63.2-1.92.75.25.7.74.7Z"/>
      <path class="cls-2" d="M130.76,154.8V154a.36.36,0,0,0-.06-.32.44.44,0,0,0-.25-.25,1.06,1.06,0,0,0-.43-.12,1.88,1.88,0,0,0-.53,0l-.39.08a2.18,2.18,0,0,0-.7.3l-.27.2a.91.91,0,0,0-.27.45v.77a.33.33,0,0,0,0,.32.45.45,0,0,0,.25.24,1,1,0,0,0,.44.13,1.57,1.57,0,0,0,.53,0l.39-.07a2.9,2.9,0,0,0,.7-.3l.26-.21a.9.9,0,0,0,.28-.44Z"/>
      <path class="cls-2" d="M96.58,152.74c.59,0,1.62-.19,1.91-.8s-.24-.88-.79-.88-1.62.19-1.91.79.23.89.79.89Z"/>
      <path class="cls-2" d="M98.52,147.53c1.61,0,2.27-2,.3-2-1.61,0-2.27,2-.3,2Z"/>
      <path class="cls-2" d="M100.08,142.24c1.66,0,2.22-2.13.25-2.13-1.66,0-2.22,2.13-.25,2.13Z"/>
      <path class="cls-2" d="M100,147.89a3.52,3.52,0,0,0,2-.55c.37-.3.47-.62-.17-.62a3.52,3.52,0,0,0-2,.55c-.37.3-.47.62.17.62Z"/>
      <path class="cls-2" d="M101.88,147.83h-.77a2,2,0,0,0-.58.14,1.76,1.76,0,0,0-.51.26,1,1,0,0,0-.34.34.78.78,0,0,0-.18.39l0,.26a.71.71,0,0,0,.32.42l.28.13a1.66,1.66,0,0,0,.7.06h.77a1.63,1.63,0,0,0,.58-.13,1.54,1.54,0,0,0,.51-.26,1,1,0,0,0,.34-.35.71.71,0,0,0,.18-.38l0-.26a.71.71,0,0,0-.32-.42l-.28-.13a1.84,1.84,0,0,0-.7-.07Z"/>
      <path class="cls-2" d="M102.81,149.9l-.77.76a.84.84,0,0,0-.21.42.66.66,0,0,0,0,.44.61.61,0,0,0,.23.37.82.82,0,0,0,.39.26l.34.08a1.83,1.83,0,0,0,.77,0l.37-.14a1.75,1.75,0,0,0,.57-.44l.77-.77a.75.75,0,0,0,.2-.41.61.61,0,0,0,0-.44.62.62,0,0,0-.23-.37.84.84,0,0,0-.39-.26l-.34-.09a2,2,0,0,0-.77.06l-.37.14a1.54,1.54,0,0,0-.57.44Z"/>
      <path class="cls-2" d="M107,152.22c1.68,0,2.21-2.18.25-2.18-1.68,0-2.21,2.18-.25,2.18Z"/>
      <path class="cls-2" d="M108.84,151.22c.59,0,1.62-.19,1.91-.81s-.24-.9-.8-.9-1.62.2-1.91.81.24.9.8.9Z"/>
      <path class="cls-2" d="M114.9,151.67h-.76a1.7,1.7,0,0,0-.59.14,1.73,1.73,0,0,0-.51.25,1.14,1.14,0,0,0-.34.35.77.77,0,0,0-.17.38v.26a.75.75,0,0,0,.32.42l.28.12a1.84,1.84,0,0,0,.7.07h.77a1.65,1.65,0,0,0,.58-.14,1.52,1.52,0,0,0,.51-.25,1,1,0,0,0,.34-.35.71.71,0,0,0,.18-.38l0-.26a.71.71,0,0,0-.32-.42l-.28-.12a1.66,1.66,0,0,0-.7-.07Z"/>
      <path class="cls-2" d="M81.14,103.26v1.54a.27.27,0,0,0,.18.18.69.69,0,0,0,.35.11,2.09,2.09,0,0,0,.5,0,2.84,2.84,0,0,0,.57-.1,2.89,2.89,0,0,0,1-.44l.19-.18A.37.37,0,0,0,84,104v-1.53a.27.27,0,0,0-.18-.19.68.68,0,0,0-.35-.1,1.68,1.68,0,0,0-.5,0,2.28,2.28,0,0,0-.57.1,2.55,2.55,0,0,0-1,.44l-.19.17a.37.37,0,0,0-.12.34Z"/>
      <path class="cls-2" d="M82.68,111.92l-.77,1.53a.63.63,0,0,0,0,.72.69.69,0,0,0,.33.23,1,1,0,0,0,.47.12,2.32,2.32,0,0,0,1.14-.21,1.59,1.59,0,0,0,.76-.64l.77-1.52a.63.63,0,0,0-.37-1,1,1,0,0,0-.47-.12,2.15,2.15,0,0,0-1.14.21,1.61,1.61,0,0,0-.76.63Z"/>
    </g>
  </g>
</svg>
