<?xml version="1.0" encoding="utf-8"?>
<!-- Generator: Adobe Illustrator 24.0.0, SVG Export Plug-In . SVG Version: 6.00 Build 0)  -->
<svg version="1.1" id="Layer_1" xmlns="http://www.w3.org/2000/svg" xmlns:xlink="http://www.w3.org/1999/xlink" x="0px" y="0px"
	 viewBox="0 0 595.3 841.9" style="enable-background:new 0 0 595.3 841.9;" xml:space="preserve">
<style type="text/css">
	.st0{fill:#2B517E;}
	.st1{fill:#FFFFFF;}
	.st2{fill:#F58220;}
	.st3{fill:none;stroke:#000000;stroke-width:4;stroke-miterlimit:10;}
</style>
<g id="XMLID_1_">
	<g>
		<path class="st0" d="M365.6,281.5c48.5,14.6,88.2,61.9,84.6,112.5c-2.2,31.6-20.4,60.7-45,80.5c-40.4,32.5-100,40.4-146.1,16.8
			c-46.2-23.6-74.9-78.8-64.7-129.6c4.2-21.1,15.3-40.4,30.6-55.6c24.7-15.5,53-26.3,81.8-29.5C326.5,274.4,346.4,275.7,365.6,281.5
			z M393,437.5c14-16.8,22.2-39.3,18.5-60.9c-3.7-21.3-18.5-39.5-36.6-51.6c-26-17.4-48.2-24.8-89.8-15.8
			c-37,15.4-61.6,50.4-56.6,85.8c4.9,35.4,33.3,66.1,68,74.8C331.2,478.4,370.2,465,393,437.5z"/>
		<path class="st1" d="M271.2,341.5c2.3,30.5-0.8,55.7-8.2,85.3c31.8-7.8,66.2-3.9,95.5,10.7c4.1-28.8,8.2-57.6,12.3-86.4
			c0.4-3,0.7-6.5-1.3-8.7c-2-2.3-5.5-2.4-8.5-2.3C331,340.5,301.1,341,271.2,341.5z M411.5,376.6c3.7,21.6-4.5,44.1-18.5,60.9
			c-22.9,27.5-61.8,40.9-96.5,32.3c-34.7-8.6-63.1-39.3-68-74.8c-4.9-35.4,19.7-70.4,56.6-85.8c41.6-8.9,63.8-1.5,89.8,15.8
			C392.9,337.1,407.8,355.3,411.5,376.6z"/>
		<path class="st2" d="M369.5,342.4c2,2.3,1.7,5.7,1.3,8.7c-4.1,28.8-8.2,57.6-12.3,86.4c-29.3-14.6-63.7-18.4-95.5-10.7
			c7.5-29.7,10.5-54.8,8.2-85.3c29.9-0.5,59.9-1,89.8-1.5C364,340,367.5,340.1,369.5,342.4z"/>
	</g>
	<g>
		<path class="st3" d="M285.1,309.2c-37,15.4-61.6,50.4-56.6,85.8c4.9,35.4,33.3,66.1,68,74.8c34.7,8.6,73.7-4.7,96.5-32.3
			c14-16.8,22.2-39.3,18.5-60.9c-3.7-21.3-18.5-39.5-36.6-51.6C348.9,307.7,326.7,300.3,285.1,309.2z"/>
		<path class="st3" d="M306.4,273.8c-30.3-2.1-60,11-81.5,32.4c-15.2,15.1-26.3,34.5-30.6,55.6c-10.2,50.8,18.5,106,64.7,129.6
			c46.1,23.6,105.7,15.7,146.1-16.8c24.6-19.8,42.8-48.9,45-80.5c3.6-50.6-36.1-97.9-84.6-112.5c-19.1-5.8-39.1-7.1-58.9-4.9
			c-28.8,3.2-57.1,14-81.8,29.5c-1.4,0.9-2.7,1.7-4,2.6"/>
		<path class="st3" d="M271.2,341.5c-2.3,0-4.6,0.1-7,0.1"/>
		<path class="st3" d="M271.2,341.5c2.3,30.5-0.8,55.7-8.2,85.3c31.8-7.8,66.2-3.9,95.5,10.7c4.1-28.8,8.2-57.6,12.3-86.4
			c0.4-3,0.7-6.5-1.3-8.7c-2-2.3-5.5-2.4-8.5-2.3C331,340.5,301.1,341,271.2,341.5z"/>
		<line class="st3" x1="271.2" y1="341.5" x2="271.2" y2="341.5"/>
	</g>
</g>
<g>
	<g>
		<path class="st2" d="M220.5,438.3c4.4,0.3,8.4-1.3,11.4-4.5c1.3-1.3-1.5-1.8-2.4-0.9c-2.1,2.2-4.9,3.4-8,3.2
			C220.1,436.1,218.6,438.2,220.5,438.3L220.5,438.3z"/>
	</g>
</g>
<g>
	<g>
		<path class="st2" d="M217.1,433.8c-0.5,4.9,2.1,9.5,6.6,11.5c0.8,0.4,3-0.8,2.7-1c-4.4-2-6.9-6.5-6.4-11.3
			C220.1,432.7,217.2,432.9,217.1,433.8L217.1,433.8z"/>
	</g>
</g>
<g>
	<g>
		<path class="st2" d="M211.6,430c5.6-1.2,11.2-2.4,16.8-3.6c1.8-0.4,1.3-2.5-0.6-2.1c-5.6,1.2-11.2,2.4-16.8,3.6
			C209.3,428.3,209.8,430.4,211.6,430L211.6,430z"/>
	</g>
</g>
<g>
	<g>
		<path class="st2" d="M223.2,427.1c-1.4-0.6-3.1-1.3-3.6-2.9c-0.2-0.7,0-1.2,0.2-1.9c0.1-0.2,0.2-0.3,0.3-0.4
			c-0.2,0.1-0.4,0.2-0.7,0.2c0,0,0.8,0.4,0.9,0.5c0.8,0.6,1.5,1.5,2.5,1.8c1.1,0.4,2.3,0.1,3.2-0.5c0.4-0.2,0.8-0.7,0.3-1
			c-0.5-0.3-1.6,0-2,0.3c1,0,1.2-0.1,0.7-0.2c-0.2-0.1-0.3-0.2-0.5-0.3c-0.2-0.2-0.5-0.4-0.7-0.6c-0.5-0.4-1.1-0.9-1.7-1.2
			c-1.3-0.6-3.1-0.3-4.2,0.6c-1.1,0.9-1.5,2.5-0.9,3.8c0.7,1.6,2.5,2.4,4,3.1C221.6,428.8,224.3,427.6,223.2,427.1L223.2,427.1z"/>
	</g>
</g>
<g>
	<g>
		<path class="st2" d="M217.7,414.6c-0.1-3.2-0.9-7.2-4.8-7.4c-2.3-0.1-5.2,1.1-5.2,3.8c0,3.2,3.4,4.1,6,3.6c3.6-0.6,6-3,7.8-6.1
			c0.2-0.3-2.4-0.2-2.9,0.5c-1.1,1.8-2.8,4.7-5.2,4.5c-1.8-0.1-3.1-1.9-3-3.6c0-0.4,0.1-0.8,0.3-1.1c0.2-0.4,0.8-0.6,0.2-0.6
			c0.8,0,1.8,0.9,2.3,1.4c1.3,1.6,1.3,3.7,1.4,5.6C214.9,415.8,217.8,415.3,217.7,414.6L217.7,414.6z"/>
	</g>
</g>
<g>
	<g>
		<path class="st2" d="M207.1,399.4c2.3,1.2,6,1.5,7.8-0.8c1.7-2.2,0.2-4.8-2.4-5c-0.5,0-3,0.9-1.7,1.6c5.8,2.8,10.4,7.2,13.5,12.8
			c0.6,1,3.4,0,2.9-0.8c-3.3-5.9-8-10.5-14.1-13.4c-0.6,0.5-1.1,1-1.7,1.6c1.1,0.1,3.5,5.5-2,2.7
			C208.5,397.6,205.9,398.8,207.1,399.4L207.1,399.4z"/>
	</g>
</g>
<g>
	<g>
		<path class="st2" d="M216.4,354.1c-2.5-2.9-9.4-1-8.5,3.4c0.5,2.3,2.7,2.8,4.8,3c1.2,0.1,2.9-0.1,3.9,0.8c1.9,1.7-0.2,4-1.6,5.1
			c0.9-0.2,1.8-0.3,2.8-0.5c0.1-0.6,0.2-1.3,0.2-1.9c0-0.3-2.8-0.1-2.9,0.8c-0.1,0.6-0.2,1.3-0.2,1.9c-0.1,0.6,2.5-0.3,2.8-0.5
			c1.4-1.1,3.1-2.8,2.5-4.7c-0.5-1.5-1.9-1.9-3.3-2.1c-1.7-0.2-3.8,0.1-5.1-1.2c-1.9-1.8-0.4-6.1,2.1-3.2
			C214.1,355.6,216.8,354.6,216.4,354.1L216.4,354.1z"/>
	</g>
</g>
<g>
	<g>
		<path class="st2" d="M224,355.5c2.8-1.4,4.7-5.6,1.3-7.6c-2.2-1.3-6.2-0.3-7.8,1.6c-2.5,3,0.3,5.7,3.5,5c5.3-1.3,4.4-6,2.2-9.9
			c-0.9,0.3-1.8,0.6-2.6,0.9c6.2,1.1,13.1-3.6,10.3-10.5c-0.9,0.3-1.9,0.6-2.8,0.9c1.3,0.5,2.6,0.9,4,1.1c0.7,0.1,3.1-1,2.4-1.1
			c-1.3-0.2-2.5-0.5-3.7-1c-0.4-0.1-3.1,0.2-2.8,0.9c1.5,3.5,0.4,9.5-5,8.6c-0.3-0.1-3,0.4-2.6,0.9c0.9,1.5,1.9,3.1,2,4.9
			c0.1,3.5-3.8,2.7-2.4-0.2c2.1-4,6.9,2.9,2.4,5.1C220.6,356,223.3,355.8,224,355.5L224,355.5z"/>
	</g>
</g>
<g>
	<g>
		<path class="st2" d="M222.5,327.6c0.2,0,0.3,0,0.5,0c0.7,0,1.5-0.2,1.9-0.8c0.3-0.6-0.3-1-0.8-1c-0.2,0-0.3,0-0.5,0
			c-0.7,0-1.5,0.2-1.9,0.8C221.4,327.2,222,327.6,222.5,327.6L222.5,327.6z"/>
	</g>
</g>
<g>
	<g>
		<path class="st2" d="M241.9,331.1c2.7-0.8,5.5-2.9,5.1-6.1c-0.4-3.1-3.6-4.9-6.5-4.4c-2.7,0.4-5.8,2.8-5.4,5.9
			c0.3,2.5,2.8,3.3,4.8,1.9c3.2-2.3,2.2-9.4,2.1-12.7c-0.2-2.9,0-9.4-4.1-9.9c-2.6-0.3-4.2,1.8-3.7,4.2c0.9,4.4,6.1,7.1,10,7.9
			c1,0.2,3.4-1.3,1.7-1.7c-3-0.7-5.7-2.1-7.6-4.6c-0.4-0.6-0.7-1.2-1.1-1.9c0.7-0.6,1-0.5,1,0.3c0.5,1,0.5,2.9,0.6,3.9
			c0.3,3,0.4,6.1,0.1,9.1c-0.1,0.9-0.2,1.7-0.3,2.5c-0.2-0.3-0.4-0.6-0.5-0.9c1.7-0.3,3.5-0.6,5.2-0.8c1.4,2.4,0.8,4.3-1.9,5.6
			C239.7,330,240.1,331.6,241.9,331.1L241.9,331.1z"/>
	</g>
</g>
<g>
	<g>
		<path class="st2" d="M271.9,296.7c0.3-0.9,0-1.4-0.9-1.7c-0.5-0.1-2.5,0.2-2.6,0.8c-0.7,3.8-0.2,7.4,1.8,10.8
			c0.4,0.7,3.1-0.4,2.9-0.8c-1.9-3.2-2.6-6.8-1.8-10.5c-0.9,0.3-1.7,0.5-2.6,0.8c0.2,0.4,0.3,0.7,0.5,1.1
			C268.9,297.7,271.7,297.5,271.9,296.7L271.9,296.7z"/>
	</g>
</g>
<g>
	<g>
		<path class="st2" d="M296.6,289.7c0.4-0.7,0.7-1.4,1.1-2.1c0.1-0.2-0.1-0.3-0.2-0.3c-2.9-0.5-7,1.1-7.4,4.3
			c-0.4,3.7,3.9,4.9,6.7,4c0.2-0.1,1.5-0.4,1.3-0.8c-0.2-0.4-1.3-0.1-1.6-0.1c-1.4,0.4-3-1.3-3.4-2.4c-0.4-1.1,0.1-4.3,1.9-3.9
			c-0.1-0.1-0.2-0.2-0.2-0.3c-0.4,0.7-0.7,1.4-1.1,2.1C293.6,290.6,296.2,290.4,296.6,289.7L296.6,289.7z"/>
	</g>
</g>
<g>
	<g>
		<path class="st2" d="M305,293.5c1.9,2.6,5.6,2.2,7.9,0.4c0.2-0.2,0.4-0.6,0.2-0.8c-1.7-1.8-3.5-3.5-6.1-3.6
			c-2-0.1-4.3,0.7-5.2,2.7c-1.8,4.2,5.1,5.1,6.3,1.6c0.4-1-2.6-0.7-2.9,0.3c-0.3,0-0.5-0.1-0.6-0.5c-0.1-0.3-0.2-0.7-0.1-1
			c0.1-1.2,1.3-1.6,2.4-1.2c1.4,0.5,2.5,1.7,3.5,2.8c0.1-0.3,0.1-0.6,0.2-0.8c-1,0.8-2.3-0.3-2.9-1
			C307.1,291.6,304.3,292.6,305,293.5L305,293.5z"/>
	</g>
</g>
<g>
	<g>
		<path class="st2" d="M316.4,290.3c-1.6,1.2-2.3,2.8-2,4.8c0.1,0.9,2.2,0,2.6-0.2c2.7-2,7.7,0.5,10.8,0.3c2-0.1,3.9-0.8,5.4-2.2
			c1.2-1.1-1.7-0.9-2.3-0.3c-1,0.9-3.5,1.1-4.7,0.8c-0.6-0.1-1.2-0.2-1.8-0.4c-1.4-0.3-2.8-0.5-4.2-0.5c-2.1,0.1-3.9,0.6-5.6,1.9
			c0.9-0.1,1.7-0.2,2.6-0.2c-0.2-1.6,0-2.6,1.4-3.7C320,289.7,317.1,289.8,316.4,290.3L316.4,290.3z"/>
	</g>
</g>
<g>
	<g>
		<path class="st2" d="M338.9,283.2c-4.6,2.8-7.3,7.8-6.8,13.3c0,0.6,3,0.1,2.9-0.8c-0.4-5,1.9-9.7,6.2-12.4
			C342.4,282.6,339.5,282.8,338.9,283.2L338.9,283.2z"/>
	</g>
</g>
<g>
	<g>
		<path class="st2" d="M344.6,299.7c2,0.5,4.4,0.8,5.9-0.9c1.4-1.6,0.6-3.3-1.1-4.1c-4.6-2.2-10.1,1.4-12.2,5.3
			c-0.6,1.2,1.4,1.3,2,1c7.8-3.2,14.6-8,20.1-14.4c1-1.2-1-1.7-1.8-1.3c-6,3.1-9.3,8.9-10.2,15.4c-0.2,1.5,2.7,1.1,2.9-0.2
			c0.8-5.6,3.4-10.8,8.5-13.5c-0.6-0.4-1.2-0.8-1.8-1.3c-5.2,6-11.5,10.6-18.9,13.6c0.7,0.3,1.3,0.7,2,1c0.5-1.2,1.3-2.1,2.3-2.8
			c1.5-1.5,2.9-1.4,4.1,0.3C345,297.4,342.8,299.3,344.6,299.7L344.6,299.7z"/>
	</g>
</g>
<g>
	<g>
		<path class="st2" d="M374.3,298.5c-4.7,2.4-11.6,9.5-6.4,14.8c3.1,3.2,9.7,1.2,9.8-3.4c0-0.2-0.4-0.3-0.5-0.3
			c-2.5-0.4-5.1-0.8-7.6-1.3c-0.8-0.1-3.4,1.1-1.8,1.4c1.1,0.2,2.2,0.4,3.3,0.5c0.4,0.1,3,0.2,3.3,0.5c1.5,1.5-1.5,2.8-2.8,2.1
			c-1-0.5-1.6-1.5-2-2.5c-1.8-4.8,2.7-9.3,6.6-11.3C377.8,298.3,375.1,298.1,374.3,298.5L374.3,298.5z"/>
	</g>
</g>
<g>
	<g>
		<path class="st2" d="M375.7,313.6c1.4,2.5,3.4,4.7,6.5,4.3c2-0.3,5.6-1.9,4.2-4.5c-1.1-2.1-4.4-1.9-6.2-1
			c-2.8,1.3-3.2,4.5-2.4,7.3c0.2,0.8,3.1,0,2.9-0.8c-0.4-1.4-0.6-2.9-0.1-4.2c0.3-0.7,0.7-1.6,1.5-1.4c0.5,0.1,1.1,0.5,1.4,1
			c0.8,1.3-0.1,3-1.6,2.3c-1.5-0.7-2.4-2.2-3.2-3.5C378.1,312.1,375.4,313.1,375.7,313.6L375.7,313.6z"/>
	</g>
</g>
<g>
	<g>
		<path class="st2" d="M408.1,331.6c-2-6.3-11.3-5.2-12.9,0.8c-0.2,0.7,0.9,0.8,1.3,0.7c3.2-0.4,6.3-0.7,9.5-1.1
			c-0.3-0.4-0.7-0.8-1-1.2c-1.5,1.7-3,3.4-4.5,5.1c-1.2,1.3,1.6,1.4,2.4,0.6c1.5-1.7,3-3.4,4.5-5.1c0.7-0.8-0.2-1.3-1-1.2
			c-3.2,0.4-6.3,0.7-9.5,1.1c0.4,0.2,0.9,0.5,1.3,0.7c1.1-4.3,5.8-3.5,7,0.2C405.6,333.5,408.5,332.7,408.1,331.6L408.1,331.6z"/>
	</g>
</g>
<g>
	<g>
		<path class="st2" d="M411.4,339.1c-1.7-0.1-3.3-0.3-5-0.4c-0.3,0-3,0.7-2.3,1.2c1.9,1.1,3.8,2.2,5.8,3.3c0.8-0.4,1.7-0.7,2.5-1.1
			c-3.4-0.7-8.1,2-4.9,5.7c0.9,1.1,1.9,1.2,3.1,1.7c1.5,0.7,1.4-0.3,2.6,1.4c0.4,0.6,0.4,1.7,0.8,2.4c1.4,2.3,3.7,3,6.3,2.9
			c0.2-0.4,0.3-0.8,0.5-1.2c-1.3,0.4-2.3,0.8-3.4,1.6c-1,0.8-1.7,1.9-2.6,2.8c-1.5,1.4-7,4.4-5.1-0.6c-0.9,0.3-1.7,0.6-2.6,0.8
			c6.7,1.8,12.7,4.7,18.1,9c2.2,1.8,4.5,3.9,7.4,2.1c2.2-1.3,1.7-3.5-0.9-3.9c-4-0.6-9.4,3.9-12.5,5.6c-1.7,0.9,0.9,0.9,1.7,0.5
			c1.3-0.7,7.4-2.9,7.8-4.3c0.3-0.9-3.9-3.5-5.3-4.3c-4.3-2.7-9-4.7-13.9-6c-0.7-0.2-2.3,0.1-2.6,0.8c-1.1,3,1.8,4.6,4.5,4.2
			c4.7-0.7,5.7-6.1,9.7-7.4c0.7-0.2,2.1-1.2,0.5-1.2c-3.5,0.1-5.5-2.9-5.3-6.1c0-0.2-0.4-0.3-0.5-0.3c-1.8,0-3.5-0.5-5.1-1.4
			c-1.4-1.1-1.6-2.4-0.6-3.9c0.4,0.1,3.2-0.7,2.5-1.1c-1.9-1.1-3.8-2.2-5.8-3.3c-0.8,0.4-1.5,0.8-2.3,1.2c1.7,0.1,3.3,0.3,5,0.4
			C410.3,340.5,412.9,339.3,411.4,339.1L411.4,339.1z"/>
	</g>
</g>
<g>
	<g>
		<path class="st2" d="M423.8,366.1c-0.9,3.4-1.3,6.9-1,10.5c0.1,1.1,3,0.5,2.9-0.8c-0.2-3.4,0.1-6.7,1-10
			C427.1,364.6,424.2,365,423.8,366.1L423.8,366.1z"/>
	</g>
</g>
<g>
	<g>
		<path class="st2" d="M436.3,384.4c-2.8-2-6-3.1-9.4-3.3c-0.2,0.6-0.4,1.3-0.7,1.9c1.4-0.2-1.1,2.4-1.2,2.4
			c-0.5,0.3-1.3,0.3-1.8,0.5c-1.2,0.4-2.4,1.1-3.1,2.2c-0.5,0.9-0.6,1.9-0.1,2.8c0.3,0.5,0.7,0.8,1.1,1.1c1,0.8,2.5,1.9,3.5,2.5
			c-1-0.6-3.6,0.8-2.3,1.6c1.4,0.8,3.7,0.3,4.3-1.3c0.4-1-0.1-1.9-0.7-2.6c-0.4-0.5-1.1-0.7-1.5-1.1c-0.8-0.2-1.1-0.8-0.9-1.8
			c-0.6-1.2-0.2-1.9,1.2-1.9c1.8-0.6,4.6-1.3,4.8-3.7c0.2-1.9-1.4-3-3.1-2.7c-1,0.2-2.6,1.8-0.7,1.9c3.1,0.2,5.7,1.2,8.2,3
			C435,386.6,437.6,385.3,436.3,384.4L436.3,384.4z"/>
	</g>
</g>
<g>
	<g>
		<path class="st2" d="M433.3,393.6c1.6,0,2.2-2.1,0.3-2.1C432,391.5,431.4,393.6,433.3,393.6L433.3,393.6z"/>
	</g>
</g>
<g>
	<g>
		<path class="st2" d="M417.3,397.2c1.2,1,2.4,2.1,3.5,3.1c0.7,0.6,3.3-0.5,2.7-1.1c-1.3-1.2-2.7-1.8-4.4-2.1
			c-0.4-0.1-3,0.7-2.3,1.2c0.8,0.5,1.4,1.3,1.5,2.3c0.1,0.9-0.3,2.6-1.5,2.5c-0.6-0.1-1.6,0.1-2,0.5c-0.4,0.4-0.4,0.8,0.2,0.8
			c2,0.2,4.4-0.4,5.6-2.1c1.2-1.7,0.6-4-1.1-5.1c-0.8,0.4-1.5,0.8-2.3,1.2c1.4,0.2,2.5,0.9,3.5,1.8c0.9-0.4,1.8-0.7,2.7-1.1
			c-1.2-1-2.4-2.1-3.5-3.1C419.3,395.5,416.7,396.6,417.3,397.2L417.3,397.2z"/>
	</g>
</g>
<g>
	<g>
		<path class="st2" d="M424.2,418.1c2.4,0.9,5.5,0.2,7.1-1.8c2.2-2.6,0.3-5.8-2.8-6.3c-1.3-0.2-5.3,0.1-5.2,2.2c0,1,0.9,0.8,1.3,1.4
			c0.3,0.2,0.7,0.3,1,0.4c-0.2,2-1.2,3.1-3.1,3.3c-1.5,0.6-4.9,1.7-6.4,1.5c-5.7-0.7-2.8-4.9,0.8-3.4c0.7,0.3,3.4-0.8,2.4-1.2
			c-2.6-1.1-6.5-1.5-8.5,1c-2.8,3.6,1.9,5.1,4.6,4.9c3.7-0.3,10.1-1.6,12.9-4.3c1.1-1,1.2-1.3,0.5-2.6c-0.3-0.1-0.6-0.3-0.9-0.4
			c-1.3-1.4-1.1-1.5,0.4-0.3c0.7,1.3,1.8,5.9-1.9,4.6C425.8,416.6,423.2,417.7,424.2,418.1L424.2,418.1z"/>
	</g>
</g>
<g>
	<g>
		<path class="st1" d="M290,382.4c-0.2,0-0.3,0-0.5,0c-0.7,0-1.5,0.2-1.9,0.9c-0.3,0.6,0.3,1.1,0.8,1.1c0.2,0,0.3,0,0.5,0
			c0.7,0,1.5-0.2,1.9-0.9C291.1,382.9,290.6,382.4,290,382.4L290,382.4z"/>
	</g>
</g>
<g>
	<g>
		<path class="st1" d="M331.2,375.7c1.6,0,2.2-2.1,0.3-2.1C329.8,373.6,329.2,375.7,331.2,375.7L331.2,375.7z"/>
	</g>
</g>
<g>
	<g>
		<path class="st1" d="M336.6,372.7c0.2,0.2,0.3,0.3,0.5,0.5c0.6,0.6,3.3-0.4,2.7-1.1c-0.2-0.2-0.3-0.3-0.5-0.5
			C338.7,371,336,372,336.6,372.7L336.6,372.7z"/>
	</g>
</g>
<g>
	<g>
		<path class="st1" d="M351.2,381.8c-0.2,0-0.3,0-0.5,0c-0.7,0-1.5,0.2-2,0.5c-0.4,0.3-0.4,0.6,0.2,0.6c0.2,0,0.3,0,0.5,0
			c0.7,0,1.5-0.2,2-0.5C351.8,382.1,351.8,381.8,351.2,381.8L351.2,381.8z"/>
	</g>
</g>
<g>
	<g>
		<path class="st1" d="M341.6,361.5c0.6,0,3.3-1.2,1.9-1.2C342.9,360.3,340.2,361.5,341.6,361.5L341.6,361.5z"/>
	</g>
</g>
<g>
	<g>
		<path class="st1" d="M341.6,363c0.6,0,3.3-1.2,1.9-1.2C342.9,361.8,340.2,363,341.6,363L341.6,363z"/>
	</g>
</g>
<g>
	<g>
		<path class="st1" d="M361.9,400.4c1,0,3.1-1.4,1.2-1.4C362.1,399,360,400.4,361.9,400.4L361.9,400.4z"/>
	</g>
</g>
<g id="qr">
	<g>
		<g>
			<path class="st1" d="M274.9,350c0.4,1.2,0.8,2.4,1.2,3.7c0.3,0.9,0.5,2.9,1.2,3.7c0.9,1.1,3.2,1.3,4.6,1.5
				c2.7,0.3,5.8-0.3,7.5-2.6c1.9-2.7,0.1-5.9-2.7-6.9c-3.1-1.2-6.6,0.2-9.2,1.9c-1.7,1,0.8,1.7,1.8,1c2-1.3,4.6-2.4,6.7-0.5
				c1.8,1.6,1.7,4.3-0.7,5.2c-1.2,0.4-2.4,0.1-3.6-0.2c-1.1-0.3-1.4-0.5-1.8-1.5c-0.8-1.9-1.3-4-1.9-6
				C277.4,348.1,274.6,348.9,274.9,350L274.9,350z"/>
		</g>
	</g>
	<g>
		<g>
			<path class="st1" d="M271.7,411.2c-0.6,1.8-1.2,3.6-1.8,5.4c-0.1,0.2,0.1,0.3,0.3,0.4c4.1,0.9,8.2,0.8,12.3-0.4
				c0.4-0.1,1.3-0.4,1.3-0.9c-0.1-2-0.1-3.9-0.2-5.9c0-0.3-0.7-0.2-0.8-0.2c-2.8,0-5.7,0-8.5,0.1c-0.8,0-3.1,1.3-1.2,1.3
				c2.8,0,5.7,0,8.5-0.1c-0.3-0.1-0.6-0.2-0.8-0.2c0.1,2,0.1,3.9,0.2,5.9c0.4-0.3,0.9-0.6,1.3-0.9c-2.5,0.7-5,0.9-7.5,0.6
				c-2-0.3-1.6-0.8-1.1-2.4c0.3-1,0.7-2.1,1-3.1C274.8,410,272,410.4,271.7,411.2L271.7,411.2z"/>
		</g>
	</g>
	<g>
		<g>
			<path class="st1" d="M343.8,421.5c-0.5,1.6-0.5,4,1.1,4.8c2.3,1.2,4.7,2.2,7,3.3c0.6,0.3,2.5-0.1,2.8-0.7c1.2-2.4,1.2-5.1,0-7.5
				c-0.1-0.2-0.4-0.2-0.5-0.2c-2.7,0.1-5.5,0.2-8.2,0.2c-0.6,0-1.6,0.1-2,0.5c-0.3,0.3-0.5,0.6,0.1,0.5c2.7-0.1,5.5-0.2,8.2-0.2
				c-0.2-0.1-0.3-0.1-0.5-0.2c1.1,2.4,1.1,4.9,0,7.3c0.9-0.2,1.9-0.5,2.8-0.7c-1.9-0.9-3.9-1.9-5.8-2.8c-0.9-0.4-1.9-0.8-2.2-1.9
				c-0.3-1-0.3-2,0-3.1C346.8,420.5,344,420.8,343.8,421.5L343.8,421.5z"/>
		</g>
	</g>
	<g>
		<g>
			<path class="st1" d="M351.4,349.3c-1.5,3.5,0.8,7.3,4.6,7.5c1.8,0.1,3.8-0.5,5.1-1.8c0.8-0.8,0.6-2,0.6-3.1c0-1.3,0.1-2.7,0.1-4
				c0-0.4-0.2-0.7-0.6-0.7c-2.6-0.5-5.1-0.3-7.6,0.6c-0.5,0.2-1.1,0.8-0.7,1.3c0.4,0.6,1.5,0.3,1.9,0.1c1.5-0.5,3.1-0.6,4.6-0.3
				c-0.2-0.2-0.4-0.5-0.6-0.7c0,1.5-0.1,3.1-0.1,4.6c0,0.7,0.1,1.4-0.5,1.8c-0.4,0.3-1,0.3-1.5,0.3c-2.5-0.3-3.6-3.3-2.7-5.4
				C354.8,348.1,351.9,348.3,351.4,349.3L351.4,349.3z"/>
		</g>
	</g>
	<g>
		<g>
			<g>
				<path class="st1" d="M292.6,348c0,0.3,0,0.7,0,1c0,0.7,2.9,0.2,2.9-0.8c0-0.3,0-0.7,0-1C295.5,346.5,292.6,347,292.6,348
					L292.6,348z"/>
			</g>
		</g>
	</g>
	<g>
		<g>
			<path class="st1" d="M299.2,347.8c0,0.5,0,1,0,1.5c0,0.7,0.7,0.8,1.3,0.7c0.5,0,1.6-0.4,1.6-1.1c0-0.5,0-1,0-1.5
				c0-0.7-0.7-0.8-1.3-0.7C300.4,346.8,299.2,347.1,299.2,347.8L299.2,347.8z"/>
		</g>
	</g>
	<g>
		<g>
			<path class="st1" d="M315.1,347.7c0.6,0,3.3-1.2,1.9-1.2C316.4,346.5,313.7,347.7,315.1,347.7L315.1,347.7z"/>
		</g>
	</g>
	<g>
		<g>
			<path class="st1" d="M325.2,350.6c1.3,0,3-2,1-2C324.9,348.7,323.3,350.6,325.2,350.6L325.2,350.6z"/>
		</g>
	</g>
	<g>
		<g>
			<path class="st1" d="M329.5,348.7c-0.2,0.2-0.3,0.3-0.5,0.5c-0.5,0.5,0.4,0.7,0.7,0.7c0.7,0,1.4-0.3,1.9-0.7
				c0.2-0.2,0.3-0.3,0.5-0.5c0.5-0.5-0.4-0.7-0.7-0.7C330.7,347.9,330,348.2,329.5,348.7L329.5,348.7z"/>
		</g>
	</g>
	<g>
		<g>
			<path class="st1" d="M343.3,347.2c-1.1,0.1-2.8,1.2-2,2.5c0.6,0.9,3.4-0.1,2.7-1.2c0,0.1,0,0,0,0c0-0.1,0-0.1,0,0
				c-0.1,0.1-0.2,0.3-0.4,0.3c-0.3,0.1-0.5,0.1-0.8,0.2c0,0,0.1,0,0.1,0c0.6-0.1,1.5-0.4,1.6-1.1
				C344.7,347.3,343.7,347.2,343.3,347.2L343.3,347.2z"/>
		</g>
	</g>
	<g>
		<g>
			<path class="st1" d="M329.9,364.1c-0.2,0.5-0.3,1-0.5,1.5c-0.2,0.6,0.9,0.6,1.2,0.6c0.6-0.1,1.4-0.3,1.7-1c0.2-0.5,0.3-1,0.5-1.5
				c0.2-0.6-0.9-0.6-1.2-0.6C331,363.3,330.1,363.5,329.9,364.1L329.9,364.1z"/>
		</g>
	</g>
	<g>
		<g>
			<path class="st1" d="M318.6,357.5c-0.2,1-0.3,2-0.5,3.1c-0.2,1,2.7,0.5,2.9-0.4c0.2-1,0.3-2,0.5-3.1
				C321.6,356.1,318.7,356.6,318.6,357.5L318.6,357.5z"/>
		</g>
	</g>
	<g>
		<g>
			<path class="st1" d="M311.4,356.5c-0.2,0.5-0.3,1-0.5,1.5c-0.2,0.6,0.9,0.6,1.2,0.6c0.6-0.1,1.5-0.3,1.7-1c0.2-0.5,0.3-1,0.5-1.5
				c0.2-0.6-0.9-0.6-1.2-0.6C312.5,355.6,311.6,355.8,311.4,356.5L311.4,356.5z"/>
		</g>
	</g>
	<g>
		<g>
			<path class="st1" d="M309.2,356.4c-0.2,0.2-0.3,0.3-0.5,0.5c-0.5,0.5-0.2,1.2,0.4,1.4c0.7,0.3,1.5,0,2-0.5
				c0.2-0.2,0.3-0.3,0.5-0.5c0.5-0.5,0.2-1.2-0.4-1.4C310.5,355.6,309.7,355.9,309.2,356.4L309.2,356.4z"/>
		</g>
	</g>
	<g>
		<g>
			<path class="st1" d="M311.8,363.6c-0.2,0.2-0.3,0.3-0.5,0.5c-0.4,0.4-0.3,1,0.3,1.2c0.7,0.2,1.6-0.1,2-0.5
				c0.2-0.2,0.3-0.3,0.5-0.5c0.4-0.4,0.3-1-0.3-1.2C313.2,362.9,312.3,363.1,311.8,363.6L311.8,363.6z"/>
		</g>
	</g>
	<g>
		<g>
			<path class="st1" d="M316.6,364.6c-0.2,0.7-0.3,1.4-0.5,2c-0.2,0.7,0.8,0.9,1.3,0.8c0.7-0.1,1.4-0.4,1.6-1.1
				c0.2-0.7,0.3-1.4,0.5-2c0.2-0.7-0.8-0.9-1.3-0.8C317.6,363.6,316.8,363.9,316.6,364.6L316.6,364.6z"/>
		</g>
	</g>
	<g>
		<g>
			<path class="st1" d="M317.1,369.5c0,0.2,0,0.3,0,0.5c0,0.2,0.4,0.4,0.6,0.4c0.3,0.1,0.7,0,1.1-0.1c0.5-0.1,1.3-0.5,1.3-1.1
				c0-0.2,0-0.3,0-0.5c0-0.2-0.4-0.4-0.6-0.4c-0.3-0.1-0.7,0-1.1,0.1C317.8,368.5,317.1,368.8,317.1,369.5L317.1,369.5z"/>
		</g>
	</g>
	<g>
		<g>
			<path class="st1" d="M308.8,374.5c1.2,0,3.1-1.8,1.1-1.8C308.8,372.8,306.9,374.5,308.8,374.5L308.8,374.5z"/>
		</g>
	</g>
	<g>
		<g>
			<path class="st1" d="M304.1,368.2c-0.2,0.2-0.3,0.3-0.5,0.5c-0.5,0.5-0.2,1.1,0.4,1.3c0.7,0.2,1.5,0,2-0.5
				c0.2-0.2,0.3-0.3,0.5-0.5c0.5-0.5,0.2-1.1-0.4-1.3C305.4,367.4,304.6,367.6,304.1,368.2L304.1,368.2z"/>
		</g>
	</g>
	<g>
		<g>
			<path class="st1" d="M299.8,360.3c0,0.2,0,0.3,0,0.5c0,0.5,2.9,0,2.9-0.8c0-0.2,0-0.3,0-0.5C302.7,359,299.8,359.4,299.8,360.3
				L299.8,360.3z"/>
		</g>
	</g>
	<g>
		<g>
			<path class="st1" d="M297.8,357.4c-0.2,0.2-0.3,0.3-0.5,0.5c-0.5,0.5,0.4,0.6,0.7,0.6c0.7,0,1.5-0.2,1.9-0.7
				c0.2-0.2,0.3-0.3,0.5-0.5c0.5-0.5-0.4-0.6-0.7-0.6C299.1,356.7,298.3,356.9,297.8,357.4L297.8,357.4z"/>
		</g>
	</g>
	<g>
		<g>
			<path class="st1" d="M288.5,358.2c0,0.9,0,1.7,0,2.6c0,0.6,2.9,0.2,2.9-0.8c0-0.9,0-1.7,0-2.6
				C291.4,356.8,288.5,357.3,288.5,358.2L288.5,358.2z"/>
		</g>
	</g>
	<g>
		<g>
			<path class="st1" d="M286,367.3c-0.2,0-0.3,0-0.5,0c-0.6,0-1.5,0.2-1.9,0.8c-0.4,0.5,0.3,0.7,0.8,0.7c0.2,0,0.3,0,0.5,0
				c0.6,0,1.5-0.2,1.9-0.8C287.1,367.5,286.4,367.3,286,367.3L286,367.3z"/>
		</g>
	</g>
	<g>
		<g>
			<path class="st1" d="M279,369.8c-1.4,1.1-0.8,3.1,0.9,3.4c0.7,0.1,1.5-0.1,2-0.5c0.5-0.4,0.3-0.8-0.2-0.9c0.2,0-0.1,0,0,0
				c-0.1-0.1-0.2-0.1-0.2-0.2c-0.1-0.2-0.2-0.3-0.3-0.5c0-0.2-0.1-0.4,0-0.5c0-0.1,0-0.2,0.1-0.2c0.1-0.2-0.1,0,0.1-0.1
				c0.5-0.4,0.3-0.8-0.2-0.9C280.4,369.1,279.6,369.4,279,369.8L279,369.8z"/>
		</g>
	</g>
	<g>
		<g>
			<path class="st1" d="M289.5,374.3c0,0.9,0,1.7,0,2.6c0,0.7,0.7,1,1.3,1c0.6,0,1.6-0.5,1.6-1.2c0-0.9,0-1.7,0-2.6
				c0-0.7-0.7-1-1.3-1C290.5,373.1,289.4,373.6,289.5,374.3L289.5,374.3z"/>
		</g>
	</g>
	<g>
		<g>
			<path class="st1" d="M294.7,374.8c0,1.4,0,2.7,0,4.1c0,1.3,2.9,0.7,2.9-0.3c0-1.4,0-2.7,0-4.1
				C297.6,373.2,294.7,373.8,294.7,374.8L294.7,374.8z"/>
		</g>
	</g>
	<g>
		<g>
			<path class="st1" d="M307.3,391.9c0.3-1,0.7-2,1-3.1c0.2-0.7-0.9-0.8-1.3-0.8c-0.7,0.1-1.4,0.4-1.6,1.1c-0.3,1-0.7,2-1,3.1
				c-0.2,0.7,0.9,0.8,1.3,0.8C306.3,392.9,307,392.6,307.3,391.9L307.3,391.9z"/>
		</g>
	</g>
	<g>
		<g>
			<path class="st1" d="M311.5,387.7c-0.2,0.3-0.3,0.7-0.5,1c-0.2,0.4,1,0.3,1.1,0.2c0.5-0.1,1.5-0.3,1.7-0.8c0.2-0.3,0.3-0.7,0.5-1
				c0.2-0.4-1-0.3-1.1-0.2C312.7,387,311.7,387.2,311.5,387.7L311.5,387.7z"/>
		</g>
	</g>
	<g>
		<g>
			<path class="st1" d="M314.1,390.2c0,0.2,0,0.3,0,0.5c0,0.7,0.7,0.8,1.3,0.7c0.5,0,1.6-0.4,1.6-1c0-0.2,0-0.3,0-0.5
				c0-0.7-0.7-0.8-1.3-0.7C315.2,389.2,314.1,389.5,314.1,390.2L314.1,390.2z"/>
		</g>
	</g>
	<g>
		<g>
			<path class="st1" d="M318.5,390.4c1.2,0,3-1.8,1.1-1.8C318.4,388.6,316.6,390.4,318.5,390.4L318.5,390.4z"/>
		</g>
	</g>
	<g>
		<g>
			<path class="st1" d="M340.1,363.1c0,1.7,0,3.4,0,5.1c0,1.4,2.9,0.9,2.9-0.3c0-1.7,0-3.4,0-5.1C343,361.4,340.1,361.9,340.1,363.1
				L340.1,363.1z"/>
		</g>
	</g>
	<g>
		<g>
			<path class="st1" d="M347.8,364.4c-0.2,0.3-0.3,0.7-0.5,1c-0.6,1.2,2.3,0.9,2.7,0.1c0.2-0.3,0.3-0.7,0.5-1
				C351.1,363.3,348.3,363.6,347.8,364.4L347.8,364.4z"/>
		</g>
	</g>
	<g>
		<g>
			<path class="st1" d="M350.3,363c0.6,0,3.3-1.1,1.9-1.1C351.6,361.9,349,363,350.3,363L350.3,363z"/>
		</g>
	</g>
	<g>
		<g>
			<path class="st1" d="M353,362.9c0.2,0.2,0.3,0.3,0.5,0.5c0.6,0.6,3.3-0.5,2.7-1c-0.2-0.2-0.3-0.3-0.5-0.5
				C355.1,361.3,352.4,362.4,353,362.9L353,362.9z"/>
		</g>
	</g>
	<g>
		<g>
			<path class="st1" d="M358,369.5c-0.2,2.2-0.3,4.4-0.5,6.6c0,0.4,2.8,0.1,2.9-0.8c0.2-2.2,0.3-4.4,0.5-6.6
				C360.9,368.3,358,368.6,358,369.5L358,369.5z"/>
		</g>
	</g>
	<g>
		<g>
			<path class="st1" d="M349.3,377.9c-0.1,1.9-0.2,3.7-0.4,5.6c0,0.3,0.1,0.6,0.4,0.7c4,2.1,9.6-0.8,8.6-5.7
				c-0.1-0.7-1.2-0.7-1.7-0.6c-0.9,0.2-1.9,0.1-2.7-0.4c-0.7-0.3-1.5-0.3-2.1,0.2c-0.4,0.3-0.8,1.1-0.2,1.5c1.8,0.9,3.5,1.1,5.5,0.7
				c-0.6-0.2-1.1-0.4-1.7-0.6c0.4,2.1-1.2,4.5-3.4,3.3c0.1,0.2,0.2,0.5,0.4,0.7c0.1-1.9,0.2-3.7,0.4-5.6
				C352.3,376.1,349.4,376.5,349.3,377.9L349.3,377.9z"/>
		</g>
	</g>
	<g>
		<g>
			<path class="st1" d="M317.1,379.4c0.1,0.8,0.1,1.7,0.2,2.5c0.1,0.9,1,1,1.7,0.9c0.8-0.1,1.7-0.3,2.5-0.4c0.7-0.1,1.6-0.1,2.3-0.5
				c0.9-0.6,1.2-1.9,1-3c-0.3-2.2-2.5-3.7-4.6-3.4c-0.6,0.1-1.5,0.4-1.6,1.2c-0.1,0.7,0.8,1.1,1.3,1c1.6-0.2,2.4,2.1,1.7,3.3
				c0.4-0.3,0.7-0.6,1.1-0.8c-1.4,0.2-2.8,0.5-4.3,0.7c0.6,0.3,1.2,0.6,1.7,0.9c-0.1-0.8-0.1-1.7-0.2-2.5
				C319.9,377.6,317,378.1,317.1,379.4L317.1,379.4z"/>
		</g>
	</g>
	<g>
		<g>
			<path class="st1" d="M326.7,406.7c0.2,1.3,0.3,2.6,0.5,3.8c0,0.4,0.6,0.5,0.9,0.6c3.7,0.1,7.5-3,6.6-6.9
				c-0.1-0.2-0.4-0.5-0.6-0.5c-0.8-0.2-1.6-0.4-2.4-0.5c-0.7-0.2-1.6,0-2,0.5c-0.4,0.4-0.3,1.1,0.3,1.2c0.8,0.2,1.6,0.4,2.4,0.5
				c-0.2-0.2-0.4-0.3-0.6-0.5c0.4,1.6-0.6,4.3-2.7,4.2c0.3,0.2,0.6,0.4,0.9,0.6c-0.2-1.3-0.3-2.6-0.5-3.8
				C329.5,404.8,326.5,405.5,326.7,406.7L326.7,406.7z"/>
		</g>
	</g>
	<g>
		<g>
			<path class="st1" d="M345.7,401.5c-0.2,0-0.3,0-0.5,0c-0.6,0-1.5,0.2-1.9,0.8c-0.4,0.5,0.4,0.7,0.7,0.7c0.2,0,0.3,0,0.5,0
				c0.6,0,1.5-0.2,1.9-0.8C346.9,401.7,346.1,401.5,345.7,401.5L345.7,401.5z"/>
		</g>
	</g>
	<g>
		<g>
			<path class="st1" d="M345.1,409.8c0,0.3,0,0.7,0,1c0,0.7,2.9,0.2,2.9-0.8c0-0.3,0-0.7,0-1C348,408.3,345.1,408.8,345.1,409.8
				L345.1,409.8z"/>
		</g>
	</g>
	<g>
		<g>
			<path class="st1" d="M349.3,402.9c0,0.2,0,0.3,0,0.5c0,0.7,0.7,0.8,1.3,0.7c0.5,0,1.6-0.4,1.6-1c0-0.2,0-0.3,0-0.5
				c0-0.7-0.7-0.8-1.3-0.7C350.5,401.9,349.3,402.3,349.3,402.9L349.3,402.9z"/>
		</g>
	</g>
	<g>
		<g>
			<path class="st1" d="M350.3,407.4c0.6,0,3.3-1.2,1.9-1.2C351.6,406.3,348.9,407.4,350.3,407.4L350.3,407.4z"/>
		</g>
	</g>
	<g>
		<g>
			<path class="st1" d="M353.2,408.2c1.1,0,3.1-1.6,1.1-1.6C353.3,406.6,351.3,408.2,353.2,408.2L353.2,408.2z"/>
		</g>
	</g>
	<g>
		<g>
			<path class="st1" d="M352.5,412c-0.2,0.2-0.3,0.3-0.5,0.5c-0.5,0.5,0.4,0.7,0.7,0.7c0.7,0,1.4-0.3,1.9-0.7
				c0.2-0.2,0.3-0.3,0.5-0.5c0.5-0.5-0.4-0.7-0.7-0.7C353.7,411.2,353,411.5,352.5,412L352.5,412z"/>
		</g>
	</g>
	<g>
		<g>
			<path class="st1" d="M352.7,418.3c1,0,3.1-1.5,1.2-1.5C352.8,416.8,350.8,418.3,352.7,418.3L352.7,418.3z"/>
		</g>
	</g>
	<g>
		<g>
			<path class="st1" d="M346.2,391.2c-0.2,0-0.3,0-0.5,0c-0.7,0-1.5,0.2-1.9,0.8c-0.4,0.6,0.3,0.9,0.8,0.9c0.2,0,0.3,0,0.5,0
				c0.7,0,1.5-0.2,1.9-0.8C347.3,391.5,346.7,391.2,346.2,391.2L346.2,391.2z"/>
		</g>
	</g>
	<g>
		<g>
			<path class="st1" d="M344,389.5c1.6,0,2.3-2,0.3-2C342.6,387.5,342,389.5,344,389.5L344,389.5z"/>
		</g>
	</g>
	<g>
		<g>
			<path class="st1" d="M346.1,387.2c1.1,0,3.1-1.6,1.1-1.6C346.2,385.6,344.1,387.2,346.1,387.2L346.1,387.2z"/>
		</g>
	</g>
	<g>
		<g>
			<path class="st1" d="M350.1,388.1c0.9,0,3.1-1.4,1.2-1.4C350.4,386.8,348.2,388.1,350.1,388.1L350.1,388.1z"/>
		</g>
	</g>
	<g>
		<g>
			<path class="st1" d="M332.5,384.6c-0.2,1-0.3,2-0.5,3.1c-0.1,0.9,2.7,0.3,2.9-0.5c0.2-1,0.3-2,0.5-3.1
				C335.5,383.3,332.6,383.8,332.5,384.6L332.5,384.6z"/>
		</g>
	</g>
	<g>
		<g>
			<path class="st1" d="M334,393.5c0,0.3,0,0.7,0,1c0,0.6,2.9,0.1,2.9-0.8c0-0.3,0-0.7,0-1C336.9,392.1,334,392.6,334,393.5
				L334,393.5z"/>
		</g>
	</g>
	<g>
		<g>
			<path class="st1" d="M335.4,394c0.3,1,0.7,2,1,3.1c0.3,0.9,3.2,0.1,2.9-0.8c-0.3-1-0.7-2-1-3.1
				C337.9,392.3,335.1,393.1,335.4,394L335.4,394z"/>
		</g>
	</g>
	<g>
		<g>
			<path class="st1" d="M289.1,379.7c1.2,0.3,2.4,0.7,3.6,1c0.7,0.2,1.6-0.1,2-0.5c0.4-0.5,0.3-1-0.3-1.2c-1.2-0.3-2.4-0.7-3.6-1
				c-0.7-0.2-1.6,0.1-2,0.5C288.3,379,288.5,379.5,289.1,379.7L289.1,379.7z"/>
		</g>
	</g>
	<g>
		<g>
			<path class="st1" d="M290.7,375.3c1.4,1.4,3.7,1.1,5.1-0.2c0.5-0.5,0.2-1.1-0.4-1.3c-0.7-0.2-1.5,0-2,0.5c0.1-0.1,0.1-0.1,0,0
				c0.1-0.1,0.1-0.1,0.2-0.1c0,0,0.1,0,0.1,0c-0.2,0-0.2,0,0,0c-0.1,0-0.2,0-0.1,0c0.1,0,0.1,0-0.1,0c0.2,0.1-0.2-0.2-0.2-0.1
				c-0.5-0.5-1.3-0.5-2-0.2C291,374.1,290.2,374.8,290.7,375.3L290.7,375.3z"/>
		</g>
	</g>
	<g>
		<g>
			<path class="st1" d="M298.1,370.8c0.9,0,3.1-1.4,1.2-1.4C298.3,369.4,296.1,370.8,298.1,370.8L298.1,370.8z"/>
		</g>
	</g>
	<g>
		<g>
			<path class="st1" d="M300.3,376.6c-0.2,0.3-0.3,0.7-0.5,1c-0.3,0.6,0.3,1.1,0.9,1.2c0.7,0.1,1.6-0.2,1.9-0.9
				c0.2-0.3,0.3-0.7,0.5-1c0.3-0.6-0.3-1.1-0.9-1.2C301.5,375.6,300.6,375.9,300.3,376.6L300.3,376.6z"/>
		</g>
	</g>
	<g>
		<g>
			<path class="st1" d="M301.4,381.8c-0.2,0.3-0.3,0.7-0.5,1c-0.6,1.2,2.3,0.8,2.7,0c0.2-0.3,0.3-0.7,0.5-1
				C304.6,380.6,301.8,381,301.4,381.8L301.4,381.8z"/>
		</g>
	</g>
	<g>
		<g>
			<path class="st1" d="M286.3,392.1c1.7,0,2.2-2.2,0.2-2.2C284.8,389.9,284.3,392.1,286.3,392.1L286.3,392.1z"/>
		</g>
	</g>
	<g>
		<g>
			<path class="st1" d="M284.8,384.5c0.9,0,3.1-1.3,1.2-1.3C285.1,383.2,282.9,384.5,284.8,384.5L284.8,384.5z"/>
		</g>
	</g>
	<g>
		<g>
			<path class="st1" d="M284.4,374.6c0.2,0.9,0.3,1.7,0.5,2.6c0.3,1.3,3.2,0.5,2.9-0.8c-0.2-0.9-0.3-1.7-0.5-2.6
				C287.1,372.5,284.2,373.3,284.4,374.6L284.4,374.6z"/>
		</g>
	</g>
	<g>
		<g>
			<path class="st1" d="M286.8,377.5c-0.2,0.2-0.3,0.3-0.5,0.5c-0.4,0.4-0.3,0.9,0.3,1.1c0.6,0.2,1.6-0.1,2-0.5
				c0.2-0.2,0.3-0.3,0.5-0.5c0.4-0.4,0.3-0.9-0.3-1.1C288.2,376.8,287.2,377,286.8,377.5L286.8,377.5z"/>
		</g>
	</g>
	<g>
		<g>
			<path class="st1" d="M280.9,382.9c0.6,0,3.3-1.1,1.9-1.1C282.2,381.8,279.5,382.9,280.9,382.9L280.9,382.9z"/>
		</g>
	</g>
	<g>
		<g>
			<path class="st1" d="M280.7,379.9c0.9,0,3.1-1.3,1.2-1.3C281,378.6,278.8,379.9,280.7,379.9L280.7,379.9z"/>
		</g>
	</g>
	<g>
		<g>
			<path class="st1" d="M283,376.7c-0.2,0-0.3,0-0.5,0c-0.6,0-1.5,0.5-1.6,1.1c-0.1,0.7,0.8,0.9,1.3,0.9c0.2,0,0.3,0,0.5,0
				c0.6,0,1.5-0.5,1.6-1.1C284.4,376.9,283.5,376.7,283,376.7L283,376.7z"/>
		</g>
	</g>
	<g>
		<g>
			<path class="st1" d="M289.5,384.3c1.3,0,3-1.9,1-1.9C289.2,382.4,287.5,384.3,289.5,384.3L289.5,384.3z"/>
		</g>
	</g>
	<g>
		<g>
			<path class="st1" d="M291.2,384.2c-0.2,0.3-0.3,0.7-0.5,1c-0.3,0.6,0.3,1.2,0.9,1.3c0.7,0.1,1.5-0.2,1.9-0.9
				c0.2-0.3,0.3-0.7,0.5-1c0.3-0.6-0.3-1.2-0.9-1.3C292.4,383.2,291.5,383.6,291.2,384.2L291.2,384.2z"/>
		</g>
	</g>
	<g>
		<g>
			<path class="st1" d="M291.8,389c-0.3,0.3-0.7,0.7-1,1c-0.5,0.5-0.2,1.2,0.4,1.4c0.7,0.3,1.5,0,2-0.5c0.3-0.3,0.7-0.7,1-1
				c0.5-0.5,0.2-1.2-0.4-1.4C293.2,388.2,292.3,388.5,291.8,389L291.8,389z"/>
		</g>
	</g>
	<g>
		<g>
			<path class="st1" d="M291.5,390.1c-0.2,0-0.3,0-0.5,0c-0.7,0-1.5,0.2-1.9,0.8c-0.3,0.6,0.3,1,0.8,1c0.2,0,0.3,0,0.5,0
				c0.7,0,1.5-0.2,1.9-0.8C292.7,390.5,292.1,390.1,291.5,390.1L291.5,390.1z"/>
		</g>
	</g>
	<g>
		<g>
			<path class="st1" d="M292.8,382c-0.5,0.2-1,0.3-1.5,0.5c-0.5,0.2-1.4,0.6-1.2,1.3c0.2,0.6,1.2,0.6,1.7,0.5c0.5-0.2,1-0.3,1.5-0.5
				c0.5-0.2,1.4-0.6,1.2-1.3C294.3,381.8,293.3,381.8,292.8,382L292.8,382z"/>
		</g>
	</g>
	<g>
		<g>
			<path class="st1" d="M293,380.7c0,0.3,0,0.7,0,1c0,0.2,0.4,0.3,0.6,0.4c0.3,0.1,0.7,0,1.1-0.1c0.5-0.1,1.3-0.4,1.3-1.1
				c0-0.3,0-0.7,0-1c0-0.2-0.4-0.3-0.6-0.4c-0.3-0.1-0.7,0-1.1,0.1C293.7,379.8,293,380.1,293,380.7L293,380.7z"/>
		</g>
	</g>
	<g>
		<g>
			<path class="st1" d="M296.2,383.9c0.6,0,3.3-1.1,1.9-1.1C297.5,382.8,294.8,383.9,296.2,383.9L296.2,383.9z"/>
		</g>
	</g>
	<g>
		<g>
			<path class="st1" d="M299.5,381.4c-0.3,0.3-0.7,0.7-1,1c-0.5,0.5-0.2,1.2,0.4,1.4c0.7,0.3,1.5,0,2-0.5c0.3-0.3,0.7-0.7,1-1
				c0.5-0.5,0.2-1.2-0.4-1.4C300.8,380.6,300,380.9,299.5,381.4L299.5,381.4z"/>
		</g>
	</g>
	<g>
		<g>
			<path class="st1" d="M298.1,387.1c0.9,0,3.1-1.3,1.2-1.3C298.4,385.8,296.1,387.1,298.1,387.1L298.1,387.1z"/>
		</g>
	</g>
	<g>
		<g>
			<path class="st1" d="M288.6,384.4c-0.2,0-0.3,0-0.5,0c-0.6,0-1.5,0.5-1.6,1.1c-0.1,0.7,0.8,0.9,1.3,0.9c0.2,0,0.3,0,0.5,0
				c0.6,0,1.5-0.5,1.6-1.1C290,384.5,289.1,384.4,288.6,384.4L288.6,384.4z"/>
		</g>
	</g>
	<g>
		<g>
			<path class="st1" d="M287.1,388.8c-0.2,0.3-0.3,0.7-0.5,1c-0.3,0.7,0.3,1.2,0.9,1.3c0.7,0.1,1.5-0.2,1.9-0.9
				c0.2-0.3,0.3-0.7,0.5-1c0.3-0.7-0.3-1.2-0.9-1.3C288.2,387.7,287.4,388.1,287.1,388.8L287.1,388.8z"/>
		</g>
	</g>
	<g>
		<g>
			<path class="st1" d="M291.8,392.2c-0.2,0.2-0.3,0.3-0.5,0.5c-0.5,0.5-0.2,1.1,0.3,1.3c0.7,0.2,1.5,0,2-0.5
				c0.2-0.2,0.3-0.3,0.5-0.5c0.5-0.5,0.2-1.1-0.3-1.3C293.2,391.4,292.3,391.7,291.8,392.2L291.8,392.2z"/>
		</g>
	</g>
	<g>
		<g>
			<path class="st1" d="M293.7,393.6c-0.2,0.2-0.3,0.3-0.5,0.5c-0.5,0.5,0.4,0.7,0.8,0.7c0.7,0,1.4-0.3,1.9-0.8
				c0.2-0.2,0.3-0.3,0.5-0.5c0.5-0.5-0.4-0.7-0.8-0.7C295,392.8,294.2,393.1,293.7,393.6L293.7,393.6z"/>
		</g>
	</g>
	<g>
		<g>
			<path class="st1" d="M296,398.2c1.6,0,2.3-2,0.3-2C294.6,396.1,294,398.2,296,398.2L296,398.2z"/>
		</g>
	</g>
	<g>
		<g>
			<path class="st1" d="M300.3,391.6c0.6,0,3.3-1.1,1.9-1.1C301.6,390.5,298.9,391.6,300.3,391.6L300.3,391.6z"/>
		</g>
	</g>
	<g>
		<g>
			<path class="st1" d="M301.6,398.7c1.6,0,2.3-2,0.3-2C300.3,396.7,299.6,398.7,301.6,398.7L301.6,398.7z"/>
		</g>
	</g>
	<g>
		<g>
			<path class="st1" d="M300.7,405.3c1.3,0,3-2,1-2C300.4,403.3,298.7,405.3,300.7,405.3L300.7,405.3z"/>
		</g>
	</g>
	<g>
		<g>
			<path class="st1" d="M291.6,401.1c0,0.3,0,0.7,0,1c0,0.2,0.4,0.4,0.6,0.4c0.3,0.1,0.7,0,1.1-0.1c0.5-0.1,1.3-0.5,1.3-1.1
				c0-0.3,0-0.7,0-1c0-0.2-0.4-0.4-0.6-0.4c-0.3-0.1-0.7,0-1.1,0.1C292.3,400.2,291.6,400.5,291.6,401.1L291.6,401.1z"/>
		</g>
	</g>
	<g>
		<g>
			<path class="st1" d="M290,398.8c0,0.2,0,0.3,0,0.5c0,0.7,0.7,1,1.3,0.9c0.5-0.1,1.6-0.4,1.6-1.1c0-0.2,0-0.3,0-0.5
				c0-0.7-0.7-1-1.3-0.9C291.1,397.7,290,398.1,290,398.8L290,398.8z"/>
		</g>
	</g>
	<g>
		<g>
			<path class="st1" d="M282.5,396.7c-0.3,0.3-0.7,0.7-1,1c-0.5,0.5,0.4,0.7,0.7,0.7c0.7,0,1.4-0.3,1.9-0.7c0.3-0.3,0.7-0.7,1-1
				c0.5-0.5-0.4-0.7-0.7-0.7C283.8,396,283,396.2,282.5,396.7L282.5,396.7z"/>
		</g>
	</g>
	<g>
		<g>
			<path class="st1" d="M279.5,391.1c-0.8,0.8-0.9,2.1-0.1,3c0.6,0.6,3.2-0.5,2.7-1c-0.6-0.6-0.6-1.6,0-2.1c0.5-0.5-0.4-0.6-0.7-0.5
				C280.8,390.4,280,390.7,279.5,391.1L279.5,391.1z"/>
		</g>
	</g>
	<g>
		<g>
			<path class="st1" d="M277.1,403.9c0.9,0,3.1-1.3,1.2-1.3C277.5,402.6,275.2,403.9,277.1,403.9L277.1,403.9z"/>
		</g>
	</g>
	<g>
		<g>
			<path class="st1" d="M283.8,403.2c1.3,0,3-1.9,1.1-1.9C283.6,401.3,281.9,403.2,283.8,403.2L283.8,403.2z"/>
		</g>
	</g>
	<g>
		<g>
			<path class="st1" d="M289.7,403.6c-0.3,0.7-0.7,1.4-1,2c-0.3,0.6,0.3,1.2,0.9,1.3c0.7,0.1,1.5-0.2,1.9-0.9c0.3-0.7,0.7-1.4,1-2
				c0.3-0.6-0.3-1.2-0.9-1.3C290.9,402.6,290,403,289.7,403.6L289.7,403.6z"/>
		</g>
	</g>
	<g>
		<g>
			<path class="st1" d="M294.4,411.1c-0.2,0.2-0.3,0.3-0.5,0.5c-0.5,0.5-0.2,1.1,0.3,1.3c0.7,0.2,1.5,0,2-0.5
				c0.2-0.2,0.3-0.3,0.5-0.5c0.5-0.5,0.2-1.1-0.3-1.3C295.8,410.3,294.9,410.6,294.4,411.1L294.4,411.1z"/>
		</g>
	</g>
	<g>
		<g>
			<path class="st1" d="M294.6,415.6c0.6,0,3.3-1.1,1.9-1.1C296,414.5,293.3,415.6,294.6,415.6L294.6,415.6z"/>
		</g>
	</g>
	<g>
		<g>
			<path class="st1" d="M302.3,407.5c0,0.2,0,0.3,0,0.5c0,0.7,0.7,0.8,1.3,0.7c0.5,0,1.6-0.4,1.6-1c0-0.2,0-0.3,0-0.5
				c0-0.7-0.7-0.8-1.3-0.7C303.5,406.5,302.3,406.9,302.3,407.5L302.3,407.5z"/>
		</g>
	</g>
	<g>
		<g>
			<path class="st1" d="M275.1,414.4c0,0.3,0,0.7,0,1c0,0.2,0.4,0.3,0.6,0.4c0.3,0.1,0.7,0,1.1-0.1c0.5-0.1,1.3-0.5,1.3-1.1
				c0-0.3,0-0.7,0-1c0-0.2-0.4-0.3-0.6-0.4c-0.3-0.1-0.7,0-1.1,0.1C275.9,413.5,275.1,413.8,275.1,414.4L275.1,414.4z"/>
		</g>
	</g>
	<g>
		<g>
			<path class="st1" d="M282.7,354.9c1.7,0,2.2-2.2,0.2-2.2C281.2,352.6,280.8,354.9,282.7,354.9L282.7,354.9z"/>
		</g>
	</g>
	<g>
		<g>
			<path class="st1" d="M356,351.6c-0.2,0.3-0.3,0.7-0.5,1c-0.3,0.6,0.3,0.9,0.8,1c0.6,0,1.6-0.2,1.9-0.8c0.2-0.3,0.3-0.7,0.5-1
				c0.3-0.6-0.3-0.9-0.8-1C357.3,350.7,356.3,351,356,351.6L356,351.6z"/>
		</g>
	</g>
	<g>
		<g>
			<path class="st1" d="M351.6,424.6c-0.2-0.2-0.3-0.3-0.5-0.5c-0.5-0.5-1.3-0.6-2-0.2c-0.4,0.2-1.2,1-0.7,1.5
				c0.2,0.2,0.3,0.3,0.5,0.5c0.5,0.5,1.3,0.6,2,0.2C351.3,425.9,352.1,425.1,351.6,424.6L351.6,424.6z"/>
		</g>
	</g>
	<g>
		<g>
			<path class="st1" d="M321.5,417.4c0.2-0.3,0.3-0.7,0.5-1c0.1-0.2-0.1-0.4-0.3-0.5c-0.3-0.1-0.7-0.1-0.9-0.1
				c-0.6,0.1-1.4,0.4-1.7,0.9c-0.2,0.3-0.3,0.7-0.5,1c-0.1,0.2,0.1,0.4,0.3,0.5c0.3,0.1,0.7,0.1,0.9,0.1
				C320.5,418.2,321.2,418,321.5,417.4L321.5,417.4z"/>
		</g>
	</g>
	<g>
		<g>
			<path class="st1" d="M321.6,412.6c0-0.2,0-0.3,0-0.5c0-0.2-0.4-0.4-0.6-0.4c-0.3-0.1-0.7,0-1.1,0.1c-0.5,0.1-1.3,0.5-1.3,1.1
				c0,0.2,0,0.3,0,0.5c0,0.2,0.4,0.4,0.6,0.4c0.3,0.1,0.7,0,1.1-0.1C320.8,413.5,321.6,413.2,321.6,412.6L321.6,412.6z"/>
		</g>
	</g>
	<g>
		<g>
			<path class="st1" d="M320,406.8c1.6,0,2.3-2,0.3-2C318.6,404.8,318,406.8,320,406.8L320,406.8z"/>
		</g>
	</g>
	<g>
		<g>
			<path class="st1" d="M322.1,402.1c1.2,0,3-1.8,1.1-1.8C322,400.3,320.2,402.1,322.1,402.1L322.1,402.1z"/>
		</g>
	</g>
	<g>
		<g>
			<path class="st1" d="M323.8,401.6c0,0.3,0,0.7,0,1c0,0.5,2.9,0.1,2.9-0.8c0-0.3,0-0.7,0-1C326.7,400.3,323.8,400.8,323.8,401.6
				L323.8,401.6z"/>
		</g>
	</g>
	<g>
		<g>
			<path class="st1" d="M329.8,404.1c1.1,0,3.1-1.7,1.1-1.7C329.7,402.4,327.8,404.1,329.8,404.1L329.8,404.1z"/>
		</g>
	</g>
	<g>
		<g>
			<path class="st1" d="M331,403.4c-0.2,0.2-0.3,0.3-0.5,0.5c-0.5,0.5,0.4,0.5,0.7,0.5c0.6,0,1.5-0.2,1.9-0.7
				c0.2-0.2,0.3-0.3,0.5-0.5c0.5-0.5-0.4-0.5-0.7-0.5C332.4,402.7,331.5,402.9,331,403.4L331,403.4z"/>
		</g>
	</g>
	<g>
		<g>
			<path class="st1" d="M328.9,400.8c0,0.2,0,0.3,0,0.5c0,0.7,0.7,1,1.3,0.9c0.6-0.1,1.6-0.4,1.6-1.2c0-0.2,0-0.3,0-0.5
				c0-0.7-0.7-1-1.3-0.9C329.9,399.7,328.9,400.1,328.9,400.8L328.9,400.8z"/>
		</g>
	</g>
	<g>
		<g>
			<path class="st1" d="M331.1,400c0.2-0.5,0.3-1,0.5-1.5c0.2-0.6-0.9-0.5-1.2-0.4c-0.5,0.1-1.5,0.3-1.7,0.9c-0.2,0.5-0.3,1-0.5,1.5
				c-0.2,0.6,0.9,0.5,1.2,0.4C329.9,400.8,331,400.5,331.1,400L331.1,400z"/>
		</g>
	</g>
	<g>
		<g>
			<path class="st1" d="M331.2,396.2c1.7,0,2.2-2.1,0.3-2.1C329.8,394,329.2,396.2,331.2,396.2L331.2,396.2z"/>
		</g>
	</g>
	<g>
		<g>
			<path class="st1" d="M328.7,392.3c1.1,0,3.1-1.6,1.1-1.6C328.8,390.7,326.8,392.3,328.7,392.3L328.7,392.3z"/>
		</g>
	</g>
	<g>
		<g>
			<path class="st1" d="M326.8,387.1c-0.2,0-0.3,0-0.5,0c-0.7,0-1.5,0.2-1.9,0.8c-0.3,0.6,0.3,0.9,0.8,0.9c0.2,0,0.3,0,0.5,0
				c0.7,0,1.5-0.2,1.9-0.8C327.9,387.4,327.3,387.1,326.8,387.1L326.8,387.1z"/>
		</g>
	</g>
	<g>
		<g>
			<path class="st1" d="M321,388.7c0.9,0,3.1-1.4,1.2-1.4C321.3,387.2,319.1,388.7,321,388.7L321,388.7z"/>
		</g>
	</g>
	<g>
		<g>
			<path class="st1" d="M318.9,384.2c-0.3,0.3-0.7,0.7-1,1c-0.4,0.4-0.3,0.9,0.3,1c0.6,0.1,1.6-0.1,2-0.5c0.3-0.3,0.7-0.7,1-1
				c0.4-0.4,0.3-0.9-0.3-1C320.4,383.5,319.4,383.7,318.9,384.2L318.9,384.2z"/>
		</g>
	</g>
	<g>
		<g>
			<path class="st1" d="M328.8,383.7c1.2,0,3-1.8,1.1-1.8C328.7,382,326.8,383.7,328.8,383.7L328.8,383.7z"/>
		</g>
	</g>
	<g>
		<g>
			<path class="st1" d="M328.2,380.4c1.7,0,2.2-2.2,0.2-2.2C326.7,378.2,326.2,380.4,328.2,380.4L328.2,380.4z"/>
		</g>
	</g>
	<g>
		<g>
			<path class="st1" d="M330.5,374.7c-0.2,0.2-0.3,0.3-0.5,0.5c-0.5,0.5,0.4,0.6,0.7,0.6c0.7,0,1.4-0.3,1.9-0.7
				c0.2-0.2,0.3-0.3,0.5-0.5c0.5-0.5-0.4-0.6-0.7-0.6C331.8,374,331,374.3,330.5,374.7L330.5,374.7z"/>
		</g>
	</g>
	<g>
		<g>
			<path class="st1" d="M332.3,373.9c0.2,0,0.3,0,0.5,0c0.6,0,1.5-0.2,1.9-0.8c0.4-0.6-0.3-0.8-0.8-0.8c-0.2,0-0.3,0-0.5,0
				c-0.6,0-1.5,0.2-1.9,0.8C331.1,373.7,331.9,373.9,332.3,373.9L332.3,373.9z"/>
		</g>
	</g>
	<g>
		<g>
			<path class="st1" d="M335.6,371.7c-0.3,0.3-0.7,0.7-1,1c-0.5,0.5,0.4,0.6,0.7,0.5c0.6,0,1.5-0.2,1.9-0.7c0.3-0.3,0.7-0.7,1-1
				c0.5-0.5-0.4-0.6-0.7-0.5C336.9,371,336.1,371.2,335.6,371.7L335.6,371.7z"/>
		</g>
	</g>
	<g>
		<g>
			<path class="st1" d="M338.2,370.2c-0.2,0.2-0.3,0.3-0.5,0.5c-0.4,0.4,0.4,0.4,0.7,0.4c0.6-0.1,1.5-0.2,1.9-0.7
				c0.2-0.2,0.3-0.3,0.5-0.5c0.4-0.4-0.4-0.4-0.7-0.4C339.6,369.6,338.6,369.8,338.2,370.2L338.2,370.2z"/>
		</g>
	</g>
	<g>
		<g>
			<path class="st1" d="M339.4,369.3c1,0,3.1-1.5,1.2-1.5C339.6,367.8,337.5,369.3,339.4,369.3L339.4,369.3z"/>
		</g>
	</g>
	<g>
		<g>
			<path class="st1" d="M339.9,366.7c0.9,0,3.1-1.3,1.2-1.3C340.2,365.3,338,366.7,339.9,366.7L339.9,366.7z"/>
		</g>
	</g>
	<g>
		<g>
			<path class="st1" d="M340.2,370.1c0.2,0.2,0.3,0.3,0.5,0.5c0.6,0.6,3.3-0.5,2.7-1c-0.2-0.2-0.3-0.3-0.5-0.5
				C342.3,368.5,339.6,369.5,340.2,370.1L340.2,370.1z"/>
		</g>
	</g>
	<g>
		<g>
			<path class="st1" d="M341.9,373.1c1.6,0,2.3-2,0.3-2C340.6,371.1,339.9,373.1,341.9,373.1L341.9,373.1z"/>
		</g>
	</g>
	<g>
		<g>
			<path class="st1" d="M342.4,376.3c1.7,0,2.2-2.1,0.3-2.1C341,374.1,340.5,376.3,342.4,376.3L342.4,376.3z"/>
		</g>
	</g>
	<g>
		<g>
			<path class="st1" d="M342.1,377.1c0,0.2,0,0.3,0,0.5c0,0.6,2.9,0.2,2.9-0.8c0-0.2,0-0.3,0-0.5C345,375.7,342.1,376.2,342.1,377.1
				L342.1,377.1z"/>
		</g>
	</g>
	<g>
		<g>
			<path class="st1" d="M344.8,380.3c0.2,0.2,0.3,0.3,0.5,0.5c0.1,0.1,0.6,0.1,0.7,0.1c0.4,0,0.8-0.1,1.1-0.3
				c0.2-0.1,1.2-0.4,0.9-0.8c-0.2-0.2-0.3-0.3-0.5-0.5c-0.1-0.1-0.6-0.1-0.7-0.1c-0.4,0-0.8,0.1-1.1,0.3
				C345.4,379.6,344.4,379.9,344.8,380.3L344.8,380.3z"/>
		</g>
	</g>
	<g>
		<g>
			<path class="st1" d="M346.9,381.4c0.2,0.2,0.3,0.3,0.5,0.5c0.5,0.5,1.3,0.5,2,0.2c0.4-0.2,1.2-0.9,0.7-1.4
				c-0.2-0.2-0.3-0.3-0.5-0.5c-0.5-0.5-1.3-0.5-2-0.2C347.1,380.2,346.3,380.9,346.9,381.4L346.9,381.4z"/>
		</g>
	</g>
	<g>
		<g>
			<path class="st1" d="M345.7,365.1c0,0.2,0,0.3,0,0.5c0,0.7,0.7,1,1.3,1c0.6-0.1,1.6-0.5,1.6-1.2c0-0.2,0-0.3,0-0.5
				c0-0.7-0.7-1-1.3-1C346.7,364,345.7,364.4,345.7,365.1L345.7,365.1z"/>
		</g>
	</g>
	<g>
		<g>
			<path class="st1" d="M349.6,368.1c1.7,0,2.2-2.1,0.3-2.1C348.2,366,347.6,368.1,349.6,368.1L349.6,368.1z"/>
		</g>
	</g>
	<g>
		<g>
			<path class="st1" d="M352.1,368.6c1.6,0,2.2-2,0.3-2C350.8,366.5,350.2,368.6,352.1,368.6L352.1,368.6z"/>
		</g>
	</g>
	<g>
		<g>
			<path class="st1" d="M353,364.8c-0.3,0.2-0.7,0.3-1,0.5c-0.3,0.1-1,0.6-0.4,0.8c0.6,0.2,1.5-0.1,2-0.4c0.3-0.2,0.7-0.3,1-0.5
				c0.3-0.1,1-0.6,0.4-0.8C354.4,364.3,353.5,364.6,353,364.8L353,364.8z"/>
		</g>
	</g>
	<g>
		<g>
			<path class="st1" d="M350.2,359.7c1.2,0,3.1-1.7,1.1-1.7C350.1,358,348.2,359.7,350.2,359.7L350.2,359.7z"/>
		</g>
	</g>
	<g>
		<g>
			<path class="st1" d="M350.7,357.6c1.1,0,3.1-1.6,1.1-1.6C350.8,356,348.7,357.6,350.7,357.6L350.7,357.6z"/>
		</g>
	</g>
	<g>
		<g>
			<path class="st1" d="M352.6,353.2c0.2-0.2,0.3-0.3,0.5-0.5c0.5-0.5-0.4-0.7-0.7-0.7c-0.7,0-1.4,0.3-1.9,0.7
				c-0.2,0.2-0.3,0.3-0.5,0.5c-0.5,0.5,0.4,0.7,0.7,0.7C351.3,353.9,352.1,353.7,352.6,353.2L352.6,353.2z"/>
		</g>
	</g>
	<g>
		<g>
			<path class="st1" d="M344.7,353.6c-0.2,0-0.3,0-0.5,0c-0.6,0-1.5,0.2-1.9,0.7c-0.4,0.5,0.4,0.6,0.7,0.6c0.2,0,0.3,0,0.5,0
				c0.6,0,1.5-0.2,1.9-0.7C345.9,353.7,345,353.6,344.7,353.6L344.7,353.6z"/>
		</g>
	</g>
	<g>
		<g>
			<path class="st1" d="M334.4,357.4c-0.2,0-0.3,0-0.5,0c-0.7,0-1.5,0.2-1.9,0.8c-0.3,0.6,0.3,1,0.8,1c0.2,0,0.3,0,0.5,0
				c0.7,0,1.5-0.2,1.9-0.8C335.6,357.8,335,357.4,334.4,357.4L334.4,357.4z"/>
		</g>
	</g>
	<g>
		<g>
			<path class="st1" d="M321.2,412.5c0.6,0,3.3-1.2,1.9-1.2C322.5,411.4,319.8,412.5,321.2,412.5L321.2,412.5z"/>
		</g>
	</g>
	<g>
		<g>
			<path class="st1" d="M326.2,417.3c1,0,3.1-1.5,1.2-1.5C326.3,415.8,324.2,417.3,326.2,417.3L326.2,417.3z"/>
		</g>
	</g>
	<g>
		<g>
			<path class="st1" d="M329.5,415.4c-0.2,0.3-0.3,0.7-0.5,1c-0.3,0.6,0.3,1.1,0.9,1.1c0.7,0.1,1.6-0.2,1.9-0.9
				c0.2-0.3,0.3-0.7,0.5-1c0.3-0.6-0.3-1.1-0.9-1.1C330.7,414.5,329.8,414.8,329.5,415.4L329.5,415.4z"/>
		</g>
	</g>
	<g>
		<g>
			<path class="st1" d="M302.9,348.4c1,0,3.1-1.5,1.2-1.5C303.1,346.9,301,348.4,302.9,348.4L302.9,348.4z"/>
		</g>
	</g>
	<g>
		<g>
			<path class="st1" d="M306.8,346.8c1,0,3.1-1.5,1.2-1.5C306.9,345.3,304.8,346.8,306.8,346.8L306.8,346.8z"/>
		</g>
	</g>
	<g>
		<g>
			<path class="st1" d="M307.5,346c0.9,0,3.1-1.4,1.2-1.4C307.8,344.6,305.6,346,307.5,346L307.5,346z"/>
		</g>
	</g>
	<g>
		<g>
			<path class="st1" d="M310.6,341.7c1.3,0,3-2,1-2C310.4,339.7,308.7,341.7,310.6,341.7L310.6,341.7z"/>
		</g>
	</g>
	<g>
		<g>
			<path class="st1" d="M313.5,340.1c0,0.8,0,1.5,0,2.3c0,0.7,0.7,0.8,1.3,0.8c0.5,0,1.6-0.4,1.6-1.1c0-0.8,0-1.5,0-2.3
				c0-0.7-0.7-0.8-1.3-0.8C314.7,339.1,313.5,339.5,313.5,340.1L313.5,340.1z"/>
		</g>
	</g>
	<g>
		<g>
			<path class="st1" d="M319,349.2c1.1,0,3.1-1.7,1.1-1.7C319,347.5,317.1,349.2,319,349.2L319,349.2z"/>
		</g>
	</g>
	<g>
		<g>
			<path class="st1" d="M325.2,343.8c1,0,3.1-1.6,1.1-1.6C325.3,342.2,323.2,343.8,325.2,343.8L325.2,343.8z"/>
		</g>
	</g>
	<g>
		<g>
			<path class="st1" d="M327.3,343.1c0,0.3,0,0.5,0,0.8c0,0.7,0.7,1,1.3,0.9c0.5-0.1,1.6-0.4,1.6-1.1c0-0.3,0-0.5,0-0.8
				c0-0.7-0.7-1-1.3-0.9C328.4,342.1,327.3,342.4,327.3,343.1L327.3,343.1z"/>
		</g>
	</g>
	<g>
		<g>
			<path class="st1" d="M356.4,379.4c0,0.3,0,0.5,0,0.8c0,0.7,2.9,0.2,2.9-0.8c0-0.3,0-0.5,0-0.8C359.3,378,356.4,378.4,356.4,379.4
				L356.4,379.4z"/>
		</g>
	</g>
	<g>
		<g>
			<path class="st1" d="M363.5,383c1.1,0,3.1-1.7,1.1-1.7C363.4,381.2,361.5,383,363.5,383L363.5,383z"/>
		</g>
	</g>
	<g>
		<g>
			<path class="st1" d="M364.9,385.5c0,0.5,0,1,0,1.5c0,0.7,2.9,0.2,2.9-0.8c0-0.5,0-1,0-1.5C367.8,384.1,364.9,384.5,364.9,385.5
				L364.9,385.5z"/>
		</g>
	</g>
	<g>
		<g>
			<path class="st1" d="M354.1,393c0,0.5,0,1,0,1.5c0,0.6,0.7,0.7,1.3,0.6c0.4,0,1.6-0.4,1.6-1c0-0.5,0-1,0-1.5
				c0-0.6-0.7-0.7-1.3-0.6C355.4,392,354.1,392.4,354.1,393L354.1,393z"/>
		</g>
	</g>
	<g>
		<g>
			<path class="st1" d="M355.7,398.3c-0.3,0.8-0.5,1.5-0.8,2.3c-0.2,0.6,0.9,0.7,1.3,0.7c0.6-0.1,1.4-0.4,1.6-1
				c0.3-0.8,0.5-1.5,0.8-2.3c0.2-0.6-0.9-0.7-1.3-0.7C356.7,397.4,355.9,397.7,355.7,398.3L355.7,398.3z"/>
		</g>
	</g>
	<g>
		<g>
			<path class="st1" d="M362.6,399.6c-0.3,0.5-0.5,1-0.8,1.5c-0.6,1.2,2.3,0.9,2.7,0.1c0.3-0.5,0.5-1,0.8-1.5
				C365.9,398.5,363,398.8,362.6,399.6L362.6,399.6z"/>
		</g>
	</g>
	<g>
		<g>
			<path class="st1" d="M362.3,401.8c0.6,0,3.3-1.1,1.9-1.1C363.6,400.7,360.9,401.8,362.3,401.8L362.3,401.8z"/>
		</g>
	</g>
	<g>
		<g>
			<path class="st1" d="M355.5,401.1c-0.5,0.3-1,0.5-1.5,0.8c-0.3,0.2-0.9,0.6-0.3,0.8c0.6,0.2,1.5-0.1,2-0.3c0.5-0.3,1-0.5,1.5-0.8
				c0.3-0.2,0.9-0.6,0.3-0.8C357,400.5,356.1,400.8,355.5,401.1L355.5,401.1z"/>
		</g>
	</g>
	<g>
		<g>
			<path class="st1" d="M349.7,401.4c1.3,0,3-1.9,1-1.9C349.5,399.5,347.8,401.4,349.7,401.4L349.7,401.4z"/>
		</g>
	</g>
	<g>
		<g>
			<path class="st1" d="M351.1,403.9c0,0.3,0,0.5,0,0.8c0,0.6,2.9,0.2,2.9-0.8c0-0.3,0-0.5,0-0.8C354,402.5,351.1,403,351.1,403.9
				L351.1,403.9z"/>
		</g>
	</g>
	<g>
		<g>
			<path class="st1" d="M358.1,408.9c1,0,3.1-1.5,1.2-1.5C358.2,407.4,356.1,408.9,358.1,408.9L358.1,408.9z"/>
		</g>
	</g>
	<g>
		<g>
			<path class="st1" d="M359.5,410c0,0.3,0,0.5,0,0.8c0,0.2,0.4,0.3,0.5,0.3c0.3,0.1,0.7,0,1.1-0.1c0.5-0.1,1.3-0.4,1.3-1
				c0-0.3,0-0.5,0-0.8c0-0.2-0.4-0.3-0.5-0.3c-0.3-0.1-0.7,0-1.1,0.1C360.3,409.1,359.5,409.4,359.5,410L359.5,410z"/>
		</g>
	</g>
	<g>
		<g>
			<path class="st1" d="M359.2,416.3c0.6,0,3.3-1.1,1.9-1.1C360.6,415.2,357.9,416.3,359.2,416.3L359.2,416.3z"/>
		</g>
	</g>
	<g>
		<g>
			<path class="st1" d="M324.3,424.4c0,0.3,0,0.5,0,0.8c0,0.7,0.7,0.7,1.3,0.7c0.4,0,1.6-0.4,1.6-1c0-0.3,0-0.5,0-0.8
				c0-0.7-0.7-0.7-1.3-0.7C325.5,423.4,324.3,423.8,324.3,424.4L324.3,424.4z"/>
		</g>
	</g>
	<g>
		<g>
			<path class="st1" d="M322.5,424.8c0.6,0,3.3-1.2,1.9-1.2C323.7,423.6,321.1,424.8,322.5,424.8L322.5,424.8z"/>
		</g>
	</g>
	<g>
		<g>
			<path class="st1" d="M316.7,421.1c1,0,3.1-1.5,1.2-1.5C316.9,419.7,314.8,421.1,316.7,421.1L316.7,421.1z"/>
		</g>
	</g>
	<g>
		<g>
			<path class="st1" d="M321,426.3c0-0.3,0-0.5,0-0.8c0-0.7-0.7-0.8-1.3-0.7c-0.4,0-1.6,0.4-1.6,1c0,0.3,0,0.5,0,0.8
				c0,0.7,0.7,0.8,1.3,0.7C319.9,427.3,321,427,321,426.3L321,426.3z"/>
		</g>
	</g>
	<g>
		<g>
			<path class="st1" d="M286.9,424.3c1.1,0,3.1-1.7,1.1-1.7C286.9,422.6,284.9,424.3,286.9,424.3L286.9,424.3z"/>
		</g>
	</g>
	<g>
		<g>
			<path class="st1" d="M288.8,419.1c1.6,0,2.3-2,0.3-2C287.5,417.1,286.8,419.1,288.8,419.1L288.8,419.1z"/>
		</g>
	</g>
	<g>
		<g>
			<path class="st1" d="M290.4,413.8c1.7,0,2.2-2.1,0.3-2.1C289,411.7,288.4,413.8,290.4,413.8L290.4,413.8z"/>
		</g>
	</g>
	<g>
		<g>
			<path class="st1" d="M290.3,419.4c0.6,0,3.3-1.2,1.9-1.2C291.6,418.3,288.9,419.4,290.3,419.4L290.3,419.4z"/>
		</g>
	</g>
	<g>
		<g>
			<path class="st1" d="M292.2,419.4c-0.3,0-0.5,0-0.8,0c-0.6,0-1.5,0.5-1.6,1.1c-0.1,0.7,0.8,0.9,1.3,0.9c0.3,0,0.5,0,0.8,0
				c0.6,0,1.5-0.5,1.6-1.1C293.6,419.5,292.7,419.4,292.2,419.4L292.2,419.4z"/>
		</g>
	</g>
	<g>
		<g>
			<path class="st1" d="M293.1,421.4c-0.3,0.3-0.5,0.5-0.8,0.8c-0.5,0.5-0.2,1.3,0.4,1.5c0.7,0.3,1.5,0,2-0.5
				c0.3-0.3,0.5-0.5,0.8-0.8c0.5-0.5,0.2-1.3-0.4-1.5C294.4,420.6,293.6,420.9,293.1,421.4L293.1,421.4z"/>
		</g>
	</g>
	<g>
		<g>
			<path class="st1" d="M297.3,423.8c1.7,0,2.2-2.2,0.2-2.2C295.8,421.6,295.3,423.8,297.3,423.8L297.3,423.8z"/>
		</g>
	</g>
	<g>
		<g>
			<path class="st1" d="M299.1,422.8c1.1,0,3.1-1.7,1.1-1.7C299.1,421.1,297.2,422.8,299.1,422.8L299.1,422.8z"/>
		</g>
	</g>
	<g>
		<g>
			<path class="st1" d="M305.2,423.2c-0.3,0-0.5,0-0.8,0c-0.6,0-1.5,0.5-1.6,1.1c-0.1,0.7,0.8,0.9,1.3,0.9c0.3,0,0.5,0,0.8,0
				c0.6,0,1.5-0.5,1.6-1.1C306.6,423.3,305.7,423.2,305.2,423.2L305.2,423.2z"/>
		</g>
	</g>
	<g>
		<g>
			<path class="st1" d="M271.4,374.8c0,0.5,0,1,0,1.5c0,0.7,2.9,0.2,2.9-0.8c0-0.5,0-1,0-1.5C274.3,373.4,271.4,373.8,271.4,374.8
				L271.4,374.8z"/>
		</g>
	</g>
	<g>
		<g>
			<path class="st1" d="M273,383.5c-0.3,0.5-0.5,1-0.8,1.5c-0.3,0.6,0.3,1,0.8,1.1c0.6,0.1,1.6-0.2,1.9-0.8c0.3-0.5,0.5-1,0.8-1.5
				c0.3-0.6-0.3-1-0.8-1.1C274.2,382.6,273.3,382.8,273,383.5L273,383.5z"/>
		</g>
	</g>
</g>
</svg>
