<svg xmlns="http://www.w3.org/2000/svg" viewBox="0 0 623.06 319.02">
  <defs>
    <style>
      .cls-1 {
        fill: #92d7e7;
      }

      .cls-2 {
        fill: #58595b;
      }

      .cls-3 {
        fill: #5bc9e1;
      }

      .cls-4 {
        fill: #808285;
      }

      .cls-5 {
        fill: #6d6e71;
      }

      .cls-6 {
        fill: #231f20;
      }

      .cls-10, .cls-7, .cls-8, .cls-9 {
        fill: none;
        stroke-miterlimit: 10;
      }

      .cls-10, .cls-7, .cls-9 {
        stroke: #231f20;
      }

      .cls-7 {
        stroke-width: 3px;
      }

      .cls-8 {
        stroke: #fff;
      }

      .cls-10, .cls-8 {
        stroke-width: 2px;
      }

      .cls-11 {
        fill: #fff;
      }
    </style>
  </defs>
  <title>sealo</title>
  <g id="Layer_2" data-name="Layer 2">
    <g id="Layer_1-2" data-name="Layer 1">
      <g>
        <g>
          <g>
            <path class="cls-1" d="M498.75,256.7c-38-18.35-70.92-54.06-85.15-94.07q7.42-1.47,14.8-3.13-9.12-4.11-18.29-8.13-1.44-5.4-2.57-10.86c-2.75-13.09-4.42-26.43-6.49-39.68l.74-.11c73.32-8.5,150-16.61,219,9.2-14.45,21,.28,53.36-14,74.84-10,15.11-30.92,19.2-42.92,32.81-14.78,16.76-12.13,42.59-21.82,62.73-13.23,27.47-47.08,39-77.55,38.17s-59.87-11.17-90.1-15.05c-32.08-4.12-64.86-1-97.06-2.8A211,211,0,0,0,346,288.33c13.07-4.68,25.8-10.69,39.5-12.91,11.94-1.93,24.13-.88,36.23-1a182.49,182.49,0,0,0,34.34-3.65A190.46,190.46,0,0,0,498.75,256.7Z"/>
            <path class="cls-2" d="M396.67,165.8q8.49-1.47,16.93-3.17c14.23,40,47.16,75.72,85.15,94.07a190.46,190.46,0,0,1-42.67,14.06c-32-9.63-71.76-23.44-104.19-15.37-13.71,3.42-26.69,9.94-40.74,11.37-31.3,3.19-58.57-18.84-87.92-30.93a245.82,245.82,0,0,1,34.19-60.53q6.88.24,13.78.34a671.65,671.65,0,0,0,110-7.35Q389,167.15,396.67,165.8Z"/>
            <path class="cls-3" d="M223.23,235.83c29.35,12.09,56.62,34.12,87.92,30.93,14.05-1.43,27-7.95,40.74-11.37,32.43-8.07,72.18,5.74,104.19,15.37a182.49,182.49,0,0,1-34.34,3.65c-12.1.13-24.29-.92-36.23,1-13.7,2.22-26.43,8.23-39.5,12.91a211,211,0,0,1-68.66,12.29,219.54,219.54,0,0,1-32.89-4.13C206.69,288.54,172.91,268.08,140,248c-.13-1.35-.28-2.7-.47-4,15.51-8.78,32.55-15.62,50.2-15.63,1,0,2,0,3,.06C203.25,228.83,213.36,231.77,223.23,235.83Z"/>
            <path class="cls-1" d="M428.4,159.5q-7.38,1.67-14.8,3.13-1.34-3.75-2.45-7.55c-.36-1.23-.71-2.47-1-3.71Q419.28,155.39,428.4,159.5Z"/>
            <path class="cls-4" d="M338.26,151.94l-.07-.1a10.3,10.3,0,0,0,4-6.62c.63-3.78-.58-7.66-2.35-11.06a34.55,34.55,0,0,1-3-6.29c-.64-2.23-.5-4.87,1.07-6.59s4.78-1.89,6,.07c1.07,1.66.39,3.94,1.2,5.74,1.27,2.79,5.58,2.83,7.88.8s3.11-5.23,3.79-8.23c-10.28-8.17-25-15.62-38-13.48S295.4,121,288.29,132.08a16.81,16.81,0,0,0,9.54,11.52,67.43,67.43,0,0,1,1.34-16.34,5.29,5.29,0,0,1,1.51-3.2c1.76-1.41,4.58,0,5.47,2s.46,4.44.07,6.65c-.93,5.38-1.47,11.1.6,16.15s11.29,9.57,16.61,8.32l.09-.74.71.08A28.53,28.53,0,0,0,338.26,151.94ZM341.21,76a41.9,41.9,0,0,0,15.61,21.14c1.59,1.12,3.54,2.16,5.4,1.6,2.88-.88,3.39-4.75,2.9-7.72A31.05,31.05,0,0,0,353,71.27c-3.16-2.33-8.27-3.74-10.54-.52a5.49,5.49,0,0,0-.41,5Zm68.9,75.34c.33,1.24.68,2.48,1,3.71q1.11,3.79,2.45,7.55-8.44,1.71-16.93,3.17-7.71,1.35-15.46,2.49a671.65,671.65,0,0,1-110,7.35q-6.88-.09-13.78-.34-8.4-.31-16.8-.83-13.2-.79-26.38-2.14c.57-5.1,1-10.34,1.37-15.71.06-.8.11-1.6.17-2.4.84-12.16,1.08-24.47,1.78-36.69q.34-6.32.91-12.57c.42.07.83.13,1.25.18a9.31,9.31,0,0,0-1.21-.54c.1-1,.2-2.1.32-3.14.27-2.52.58-5,.95-7.53A138.23,138.23,0,0,1,226,67.65c9.88-28,32.06-52.08,60.19-61.7s61.71-3.53,83,17.26c14.76,14.43,22.75,34.26,27.52,54.49.29,1.22.56,2.44.83,3.66l.15.71c.28,1.27.54,2.55.79,3.82l-2.23,3.35a12.58,12.58,0,0,0,2.6-1.35c.83,4.3,1.54,8.61,2.21,12.94,2.07,13.25,3.74,26.59,6.49,39.68Q408.68,146,410.11,151.37ZM281.65,84.67c.71-2.09,1.17-4.73-.46-6.2-1.93-1.73-5-.34-7,1.25a44.06,44.06,0,0,0-8.94,9.45A23,23,0,0,0,262.85,93h0a43.44,43.44,0,0,0-4.21,10.28c-.83,3.13-.71,7.47,2.38,8.46,2.38.77,4.75-1.14,6.4-3a48,48,0,0,0,4.18-5.55A61.54,61.54,0,0,0,281.65,84.67Z"/>
            <path class="cls-5" d="M408,66.44c2.31.88,2.95,4,2,6.34s-2.86,4-4.57,5.78c-.26.28-.53.56-.78.86a12.44,12.44,0,0,0,.35-3,14.51,14.51,0,0,0-7.55,5c-.27-1.22-.54-2.44-.83-3.66a58.81,58.81,0,0,1,4.41-7.45C402.73,67.91,405.37,65.42,408,66.44Z"/>
            <path class="cls-6" d="M405.08,76.38a12.44,12.44,0,0,1-.35,3,8.64,8.64,0,0,0-2.41,5.15,13.72,13.72,0,0,1-3.48,3.32c-.11-.65-.23-1.29-.36-1.94,0,0,0,0,0-.06,1.58-2.37,3.15-4.74,4.73-7.1a8.25,8.25,0,0,0-5.52,3.28l-.15-.71A14.51,14.51,0,0,1,405.08,76.38Z"/>
            <path class="cls-6" d="M403.2,78.79c-1.58,2.36-3.15,4.73-4.73,7.1-.25-1.27-.51-2.55-.79-3.82A8.25,8.25,0,0,1,403.2,78.79Z"/>
            <path class="cls-6" d="M342.09,75.75a5.49,5.49,0,0,1,.41-5c2.27-3.22,7.38-1.81,10.54.52a31.05,31.05,0,0,1,12.08,19.78c.49,3,0,6.84-2.9,7.72-1.86.56-3.81-.48-5.4-1.6A41.9,41.9,0,0,1,341.21,76Zm2.46,4.54a6.3,6.3,0,0,0,.78,1.08,50,50,0,0,0,9,9.25,15.11,15.11,0,0,0,1.36,1,17.44,17.44,0,0,0,1.84,2.2,1.46,1.46,0,0,0,1.06,1.47,1.76,1.76,0,0,0,.51,0h0s0,0,0,0a1.79,1.79,0,0,0,.59-.2L361.34,97a35.21,35.21,0,0,0-.37-5.13A5.1,5.1,0,0,0,362.76,88a10.83,10.83,0,0,0-2-5.61,35.39,35.39,0,0,0-8-9c-.3-.37-.6-.73-.92-1.08-1.5-1.67-3.56-3.33-5.75-2.81a3.23,3.23,0,0,0-1.31.65,3.11,3.11,0,0,0-.63.32c-2,1.29-1.69,4-.66,6.34a9.43,9.43,0,0,0,.66,2.82Q344.37,80,344.55,80.29Z"/>
            <path class="cls-6" d="M360.79,82.38a10.83,10.83,0,0,1,2,5.61A5.1,5.1,0,0,1,361,91.88c0-.1,0-.21-.05-.31.9-1,.84-2.9.38-4.33a20.92,20.92,0,0,0-4.21-7.39,36.09,36.09,0,0,0-4.26-6.46A35.39,35.39,0,0,1,360.79,82.38Z"/>
            <path class="cls-6" d="M360.74,91.76a1.93,1.93,0,0,1-.72.39,3,3,0,0,1-2.32-.45l-.27-.28a19.76,19.76,0,0,0-.47-3.83,16.36,16.36,0,0,1,2.15,1.83A6.73,6.73,0,0,1,360.74,91.76Z"/>
            <path class="cls-6" d="M357.43,91.42l-.16-.16-4.13-4.33.09.22-2.32-2.36a17.23,17.23,0,0,1,6,2.8A19.76,19.76,0,0,1,357.43,91.42Z"/>
            <path class="cls-6" d="M338.19,151.84l.07.1a28.53,28.53,0,0,1-14,4.61l-.71-.08-.09.74c-5.32,1.25-14.53-3.27-16.61-8.32s-1.53-10.77-.6-16.15c.39-2.21.82-4.58-.07-6.65s-3.71-3.44-5.47-2a5.29,5.29,0,0,0-1.51,3.2,67.43,67.43,0,0,0-1.34,16.34,16.81,16.81,0,0,1-9.54-11.52c7.11-11,17.6-23.76,30.56-25.9s27.69,5.31,38,13.48c-.68,3-1.48,6.2-3.79,8.23s-6.61,2-7.88-.8c-.81-1.8-.13-4.08-1.2-5.74-1.26-2-4.47-1.79-6-.07s-1.71,4.36-1.07,6.59a34.55,34.55,0,0,0,3,6.29c1.77,3.4,3,7.28,2.35,11.06A10.3,10.3,0,0,1,338.19,151.84Z"/>
            <path class="cls-6" d="M357.09,79.85a21.57,21.57,0,0,0-13.36-7.24,25.84,25.84,0,0,0-.21,3.29c-.06-.19-.12-.38-.17-.58a5.24,5.24,0,0,1,1.5-5.17c1.71-.62,3.78.3,5.37,1.35.9.59,1.77,1.23,2.61,1.89A36.09,36.09,0,0,1,357.09,79.85Z"/>
            <path class="cls-6" d="M271.78,83.26a24.31,24.31,0,0,0-6.55,5.91,44.06,44.06,0,0,1,8.94-9.45c2-1.59,5.09-3,7-1.25,1.63,1.47,1.17,4.11.46,6.2a61.54,61.54,0,0,1-10.06,18.46,49.65,49.65,0,0,0,6.34-14.2,8,8,0,0,0,1.26-3.42A4.15,4.15,0,0,0,279,84c.2-1.23.36-2.47.46-3.71A22.43,22.43,0,0,0,271.78,83.26Z"/>
            <path class="cls-6" d="M279.47,80.28c-.1,1.24-.26,2.48-.46,3.71a3,3,0,0,0-2.16-2.19c-1.58-.32-3,.9-4.11,2.09A36.69,36.69,0,0,0,266,94.71a8.08,8.08,0,0,0-.54,2.29,10.27,10.27,0,0,0-2.77,3.92c-.54,1.68-.06,3.83,1.53,4.6a2.84,2.84,0,0,0,1.6.27,3,3,0,0,1-.85.12,4.34,4.34,0,0,1-3.85-3.07,9.07,9.07,0,0,1,0-4.85,59,59,0,0,1,10.73-14.73A22.43,22.43,0,0,1,279.47,80.28Z"/>
            <path class="cls-6" d="M271.25,98l7.35-13.48a63.09,63.09,0,0,1-2.92,8.1v0q-2.91,4.65-5.8,9.31c-1,1.62-2.3,3.4-4.06,3.88h0a2.84,2.84,0,0,1-1.6-.27c-1.59-.77-2.07-2.92-1.53-4.6A10.27,10.27,0,0,1,265.42,97c-.16,1.91.38,3.79,2.14,4S270.44,99.44,271.25,98Z"/>
            <path class="cls-6" d="M277.36,89.88c.19-.31.39-.63.57-.95a49.65,49.65,0,0,1-6.34,14.2q-.6.77-1.23,1.5c-2.34,2.77-6.28,5.51-9.26,3.44s-1.87-6.44-.31-9.56c.09-.17.17-.35.26-.52a9.07,9.07,0,0,0,0,4.85,4.34,4.34,0,0,0,3.85,3.07,3,3,0,0,0,.85-.12h0c1.74-.23,3.41-1.91,4.48-3.5a61.94,61.94,0,0,0,5.38-9.69v0Z"/>
            <path class="cls-6" d="M270.36,104.63q.63-.73,1.23-1.5a48,48,0,0,1-4.18,5.55c-1.65,1.89-4,3.8-6.4,3-3.09-1-3.21-5.33-2.38-8.46A43.44,43.44,0,0,1,262.84,93a22.24,22.24,0,0,0-1.71,4.68c0,.11-.05.22-.08.34s-.17.35-.26.52c-1.56,3.12-2.55,7.56.31,9.56S268,107.4,270.36,104.63Z"/>
            <path class="cls-2" d="M240.62,174.47q8.4.53,16.8.83a245.82,245.82,0,0,0-34.19,60.53c-9.87-4.06-20-7-30.56-7.47-1,0-2-.06-3-.06,17-15.41,22.14-34.4,24.55-56Q227.41,173.68,240.62,174.47Z"/>
            <path class="cls-5" d="M215.5,90.47a21.29,21.29,0,0,1,4.28,3.46c-.37,2.5-.68,5-.95,7.53A9.28,9.28,0,0,1,215,98.73c-.89-.94-1.71-2-2.57-2.9-2.08-2.22-5.65-4-8-2.06a4.14,4.14,0,0,0-1.24,4.13l-1,.19c-1.65-3,.26-7.16,3.39-8.64S212.52,88.71,215.5,90.47Z"/>
            <path class="cls-6" d="M216.94,101.33a14.74,14.74,0,0,0-2-2.53l.08-.07a9.28,9.28,0,0,0,3.81,2.73c-.12,1-.22,2.09-.32,3.14a19.38,19.38,0,0,0-4.32-.89,21.26,21.26,0,0,1-5.47-3.28,16.65,16.65,0,0,0,3.23-.11,12.79,12.79,0,0,1-4.1-2.57,36.42,36.42,0,0,0,4.6,2.28,33.47,33.47,0,0,1,3.77,3.17,24.66,24.66,0,0,0-3.07-2.89c.56.22,1.12.42,1.69.61a3.62,3.62,0,0,0,1.86.56Z"/>
            <path class="cls-1" d="M215.61,156.62c-.38,5.37-.8,10.61-1.37,15.71-2.41,21.57-7.57,40.56-24.55,56-17.65,0-34.69,6.85-50.2,15.63a125.51,125.51,0,0,0-44.23-79.78,125.52,125.52,0,0,0-83.36-28c27.83-14.27,61.61-15.22,93.33-13.37,36.28,2.11,77.56,5.39,112.32-5.22h0c-.7,12.22-.94,24.53-1.78,36.69C215.72,155,215.67,155.82,215.61,156.62Z"/>
            <path class="cls-6" d="M215,98.73l-.08.07a16.31,16.31,0,0,0-6.06-4,4.54,4.54,0,0,0-1.71-.54,15.63,15.63,0,0,0-2.15-.39,8.52,8.52,0,0,0,.46.84,2.31,2.31,0,0,0-.4.37,2,2,0,0,0-.44.83,3.57,3.57,0,0,0,1.83,3.84,6.07,6.07,0,0,0,2.25.64,21.26,21.26,0,0,0,5.47,3.28l-2.16-.23c-2.63-.3-5.4-.87-7.29-2.71a5.65,5.65,0,0,1-1.54-2.87,4.14,4.14,0,0,1,1.24-4.13c2.36-1.91,5.93-.16,8,2.06C213.31,96.75,214.13,97.79,215,98.73Z"/>
            <path class="cls-6" d="M211.27,96.87c1.06,1.44,2.13,3.18,3.57,4-.57-.19-1.13-.39-1.69-.61a24.16,24.16,0,0,0-6.31-3.62,11.28,11.28,0,0,1-1.36-1.94,2.42,2.42,0,0,1,1.69-.45,13,13,0,0,1,1.71.54A6.93,6.93,0,0,1,211.27,96.87Z"/>
          </g>
          <g>
            <path class="cls-7" d="M189.68,228.31h0c17-15.41,22.14-34.4,24.55-56,.57-5.1,1-10.34,1.37-15.71.06-.8.11-1.6.17-2.4.84-12.16,1.08-24.47,1.78-36.69q.34-6.32.91-12.57c0-.12,0-.24,0-.36.1-1,.2-2.1.32-3.14.27-2.52.58-5,.95-7.53A138.23,138.23,0,0,1,226,67.65c9.88-28,32.06-52.08,60.19-61.7s61.71-3.53,83,17.26c14.76,14.43,22.75,34.26,27.52,54.49.29,1.22.56,2.44.83,3.66l.15.71c.28,1.27.54,2.55.79,3.82,0,0,0,0,0,.06.13.65.25,1.29.36,1.94.83,4.3,1.54,8.61,2.21,12.94,2.07,13.25,3.74,26.59,6.49,39.68q1.14,5.46,2.57,10.86c.33,1.24.68,2.48,1,3.71q1.11,3.79,2.45,7.55c14.23,40,47.16,75.72,85.15,94.07"/>
            <path class="cls-8" d="M185.89,168.84q14.13,2.06,28.35,3.49,13.17,1.35,26.38,2.14,8.4.53,16.8.83,6.88.24,13.78.34a671.65,671.65,0,0,0,110-7.35q7.74-1.14,15.46-2.49,8.49-1.47,16.93-3.17,7.42-1.47,14.8-3.13A661.68,661.68,0,0,0,497.61,140"/>
            <path class="cls-7" d="M263.71,135.37a81.2,81.2,0,0,1,111.6-18"/>
            <path class="cls-9" d="M288.17,131.53c0,.18.07.37.12.55a16.81,16.81,0,0,0,9.54,11.52,67.43,67.43,0,0,1,1.34-16.34,5.29,5.29,0,0,1,1.51-3.2c1.76-1.41,4.58,0,5.47,2s.46,4.44.07,6.65c-.93,5.38-1.47,11.1.6,16.15s11.29,9.57,16.61,8.32h0"/>
            <path class="cls-9" d="M356.82,119.66c-.68,3-1.48,6.2-3.79,8.23s-6.61,2-7.88-.8c-.81-1.8-.13-4.08-1.2-5.74-1.26-2-4.47-1.79-6-.07s-1.71,4.36-1.07,6.59a34.55,34.55,0,0,0,3,6.29c1.77,3.4,3,7.28,2.35,11.06a10.3,10.3,0,0,1-4,6.62,7.45,7.45,0,0,1-3.24,1.35"/>
            <path class="cls-7" d="M322.63,126.43a102.21,102.21,0,0,1,.89,30l-.09.74a100.16,100.16,0,0,1-2.89,14.47"/>
            <path class="cls-9" d="M324.23,156.55a28.53,28.53,0,0,0,14-4.61,17.18,17.18,0,0,0,3.41-3"/>
            <path class="cls-9" d="M288.29,132.08c7.11-11,17.6-23.76,30.56-25.9s27.69,5.31,38,13.48"/>
            <path class="cls-9" d="M280,159.46l1.5,1.51"/>
            <path class="cls-10" d="M292.82,168.49h3.76"/>
            <path class="cls-10" d="M369.62,135.42l-.75,4.51"/>
            <path class="cls-10" d="M363.55,148.23l-2.25,3"/>
            <path class="cls-10" d="M352.22,158l-2.26-.75"/>
            <path class="cls-9" d="M373.24,153.46c-.54-1-2.35.66-1.34,1.26"/>
            <path class="cls-10" d="M383.63,145.14c-.25,1-.49,2-.73,3"/>
            <path class="cls-10" d="M270.26,166.23h3"/>
            <path class="cls-9" d="M265.78,105.79a2.84,2.84,0,0,1-1.6-.27c-1.59-.77-2.07-2.92-1.53-4.6A10.27,10.27,0,0,1,265.42,97l.32-.32.12,3,2.9-2.66"/>
            <path class="cls-9" d="M275.67,92.6a61.94,61.94,0,0,1-5.38,9.69c-1.07,1.59-2.74,3.27-4.48,3.5"/>
            <path class="cls-9" d="M275.68,92.58l1.68-2.7c.19-.31.39-.63.57-.95a8,8,0,0,0,1.26-3.42A4.15,4.15,0,0,0,279,84a3,3,0,0,0-2.16-2.19c-1.58-.32-3,.9-4.11,2.09A36.69,36.69,0,0,0,266,94.71a8.08,8.08,0,0,0-.54,2.29c-.16,1.91.38,3.79,2.14,4s2.88-1.53,3.69-3l7.35-13.48a63.09,63.09,0,0,1-2.92,8.1"/>
            <path class="cls-9" d="M275.68,92.58v0"/>
            <path class="cls-9" d="M265.81,105.79c1.76-.48,3-2.26,4.06-3.88q2.89-4.65,5.8-9.31"/>
            <path class="cls-9" d="M265.81,105.79h0"/>
            <path class="cls-9" d="M262.84,93a22.24,22.24,0,0,0-1.71,4.68c0,.11-.05.22-.08.34a9.07,9.07,0,0,0,0,4.85,4.34,4.34,0,0,0,3.85,3.07,3,3,0,0,0,.85-.12"/>
            <path class="cls-9" d="M272.78,82.28c-.34.32-.67.65-1,1A59,59,0,0,0,261.05,98c-.09.17-.17.35-.26.52-1.56,3.12-2.55,7.56.31,9.56s6.92-.67,9.26-3.44q.63-.73,1.23-1.5a61.54,61.54,0,0,0,10.06-18.46c.71-2.09,1.17-4.73-.46-6.2-1.93-1.73-5-.34-7,1.25a44.06,44.06,0,0,0-8.94,9.45A41.47,41.47,0,0,0,262.85,93h0a43.44,43.44,0,0,0-4.21,10.28c-.83,3.13-.71,7.47,2.38,8.46,2.38.77,4.75-1.14,6.4-3a48,48,0,0,0,4.18-5.55,49.65,49.65,0,0,0,6.34-14.2A46.8,46.8,0,0,0,279,84c.2-1.23.36-2.47.46-3.71a22.43,22.43,0,0,0-7.69,3,24.31,24.31,0,0,0-6.55,5.91A23,23,0,0,0,262.85,93"/>
            <path class="cls-9" d="M357.7,91.7l.87.89a.46.46,0,0,1,.07.07l.73.74.5.51"/>
            <path class="cls-9" d="M357.27,91.26l-4.13-4.33.09.22c.11.29.22.57.35.85s.35.74.54,1.11a20.41,20.41,0,0,0,1.53,2.48,17.44,17.44,0,0,0,1.84,2.2,15.86,15.86,0,0,0,1.57,1.49h0s0,0,0,0a1.24,1.24,0,0,0,.34-.49,1.74,1.74,0,0,0-.05-1.38,1.59,1.59,0,0,0-.66-.74.46.46,0,0,0-.14-.07l-.2-.07a.77.77,0,0,0-.27.08.72.72,0,0,0-.34.25,1.36,1.36,0,0,0-.27.94,1.46,1.46,0,0,0,1.06,1.47,1.76,1.76,0,0,0,.51,0h0a1.79,1.79,0,0,0,.59-.2,2.59,2.59,0,0,0,1.27-2.27,3,3,0,0,0-.13-.8c0-.08-.05-.16-.07-.24a6.73,6.73,0,0,0-1.63-2.34A16.36,16.36,0,0,0,357,87.59a17.23,17.23,0,0,0-6-2.8l-.11,0L353.58,88l1.84,2.13,2,2.3.36.42c.56.64,1.11,1.29,1.66,1.93l.25.29L361.34,97a35.21,35.21,0,0,0-.37-5.13c0-.1,0-.21-.05-.31a37.61,37.61,0,0,0-3.83-11.72,36.09,36.09,0,0,0-4.26-6.46c-.3-.37-.6-.73-.92-1.08-1.5-1.67-3.56-3.33-5.75-2.81a3.23,3.23,0,0,0-1.31.65,5.24,5.24,0,0,0-1.5,5.17c0,.2.11.39.17.58a14.89,14.89,0,0,0,3.85,5.28c.65.66,1.29,1.32,1.95,2l1.59,1.63,2.32,2.36,4,4.11"/>
            <path class="cls-9" d="M357.27,91.26l.16.16"/>
            <path class="cls-9" d="M352,78.12a20.44,20.44,0,0,1,5,9.47,19.76,19.76,0,0,1,.47,3.83l.27.28"/>
            <path class="cls-9" d="M352,78.09a2.16,2.16,0,0,0-.39-.41Z"/>
            <path class="cls-9" d="M352,78.09l0,0"/>
            <path class="cls-9" d="M340.27,72.65c.26,1.14.58,2.27.94,3.38a41.9,41.9,0,0,0,15.61,21.14c1.59,1.12,3.54,2.16,5.4,1.6,2.88-.88,3.39-4.75,2.9-7.72A31.05,31.05,0,0,0,353,71.27c-3.16-2.33-8.27-3.74-10.54-.52a5.49,5.49,0,0,0-.41,5,14.55,14.55,0,0,0,1.84,3.65c.2.3.41.6.62.89s.51.73.78,1.08a50,50,0,0,0,9,9.25,15.11,15.11,0,0,0,1.36,1,7.21,7.21,0,0,0,1.75.84,3.4,3.4,0,0,0,.7.17,5,5,0,0,0,.54.06h.07a4.17,4.17,0,0,0,.85-.09,3.31,3.31,0,0,0,1.25-.57.83.83,0,0,0,.16-.12A5.1,5.1,0,0,0,362.76,88a10.83,10.83,0,0,0-2-5.61,35.39,35.39,0,0,0-8-9c-.84-.66-1.71-1.3-2.61-1.89-1.59-1-3.66-2-5.37-1.35a3.11,3.11,0,0,0-.63.32c-2,1.29-1.69,4-.66,6.34a12.14,12.14,0,0,0,.94,1.71,44.51,44.51,0,0,0,3.39,4.5,45.41,45.41,0,0,0,6.23,6.09c.42.35.86.69,1.3,1s1,.72,1.49,1.07c.25.17.52.35.79.5a3,3,0,0,0,2.32.45,1.93,1.93,0,0,0,.72-.39.8.8,0,0,0,.18-.19c.9-1,.84-2.9.38-4.33a20.92,20.92,0,0,0-4.21-7.39,21.57,21.57,0,0,0-13.36-7.24,25.84,25.84,0,0,0-.21,3.29c0,.31,0,.61,0,.91a9.43,9.43,0,0,0,.66,2.82q.15.33.33.66a6.3,6.3,0,0,0,.78,1.08A5.48,5.48,0,0,0,347.89,83a3.62,3.62,0,0,0,1.43.14,2,2,0,0,0,.47-.06c2.12-.44,3.39-3.33,2.21-5"/>
            <path class="cls-9" d="M219.32,101.6a3.94,3.94,0,0,1-.49-.14A9.28,9.28,0,0,1,215,98.73c-.89-.94-1.71-2-2.57-2.9-2.08-2.22-5.65-4-8-2.06a4.14,4.14,0,0,0-1.24,4.13,5.65,5.65,0,0,0,1.54,2.87c1.89,1.84,4.66,2.41,7.29,2.71l2.16.23a19.38,19.38,0,0,1,4.32.89,9.31,9.31,0,0,1,1.21.54c-.42,0-.83-.11-1.25-.18a20.59,20.59,0,0,1-4.28-1.25,21.26,21.26,0,0,1-5.47-3.28A20.78,20.78,0,0,1,204.66,96l.77.23c.23.07.47.15.7.24s.47.16.71.26a24.16,24.16,0,0,1,6.31,3.62,24.66,24.66,0,0,1,3.07,2.89,33.69,33.69,0,0,0-9.31-6.42c-.26-.13-.52-.25-.78-.35s-.64-.29-1-.42c.09.06.18.13.27.18.78.56,1.59,1.08,2.42,1.56a36.42,36.42,0,0,0,4.6,2.28l.7.28c.56.22,1.12.42,1.69.61s1.24.39,1.86.56a3.62,3.62,0,0,1-1.86-.56c-1.44-.87-2.51-2.61-3.57-4a6.93,6.93,0,0,0-2.39-2,4.54,4.54,0,0,0-1.71-.54,2.42,2.42,0,0,0-1.69.45,2.31,2.31,0,0,0-.4.37,2,2,0,0,0-.44.83,3.57,3.57,0,0,0,1.83,3.84,6.07,6.07,0,0,0,2.25.64,16.65,16.65,0,0,0,3.23-.11,12.79,12.79,0,0,1-4.1-2.57c-.33-.31-.64-.63-.94-1l-.07-.09a11.28,11.28,0,0,1-1.36-1.94,8.52,8.52,0,0,1-.46-.84,15.63,15.63,0,0,1,2.15.39,13,13,0,0,1,1.71.54,16.31,16.31,0,0,1,6.06,4,14.74,14.74,0,0,1,2,2.53c.1.15.19.3.28.45"/>
            <path class="cls-9" d="M202.18,98.09c-1.65-3,.26-7.16,3.39-8.64s7-.74,9.93,1a21.29,21.29,0,0,1,4.28,3.46c1.15,1.15,2.22,2.38,3.27,3.61"/>
            <path class="cls-9" d="M394.81,86.66a14.08,14.08,0,0,1,2.72-5.3,14.51,14.51,0,0,1,7.55-5,12.44,12.44,0,0,1-.35,3,14,14,0,0,1-2.41,5.15,13.72,13.72,0,0,1-3.48,3.32,12.58,12.58,0,0,1-2.6,1.35l2.23-3.35c1.58-2.37,3.15-4.74,4.73-7.1a8.25,8.25,0,0,0-5.52,3.28,7.65,7.65,0,0,0-1.4,3.05"/>
            <path class="cls-9" d="M393.6,85.06a61.31,61.31,0,0,1,7.51-14.81c1.62-2.34,4.26-4.83,6.93-3.81,2.31.88,2.95,4,2,6.34s-2.86,4-4.57,5.78c-.26.28-.53.56-.78.86a8.64,8.64,0,0,0-2.41,5.15,3.38,3.38,0,0,0,0,.45"/>
            <path class="cls-8" d="M216.12,156.62h-.51l-89.7-.86"/>
            <path class="cls-8" d="M406.53,140.73l1-.22a671.68,671.68,0,0,0,106.13-31.93"/>
            <path class="cls-10" d="M264.6,156.58a201.87,201.87,0,0,0-24,17.89,203.91,203.91,0,0,0-41.11,48.86"/>
            <path class="cls-10" d="M266.93,163.69q-4.94,5.66-9.51,11.61a245.82,245.82,0,0,0-34.19,60.53q-2.11,5.4-4,10.9"/>
            <path class="cls-10" d="M279.71,167.35a77.46,77.46,0,0,0-8.51,8.29,79.05,79.05,0,0,0-18.29,37.2"/>
            <path class="cls-10" d="M361.21,156.55a54.31,54.31,0,0,1,20,11.74,54.87,54.87,0,0,1,15.43,24.24"/>
            <path class="cls-10" d="M379.58,152.42a92.9,92.9,0,0,1,17.09,13.38q2.83,2.8,5.43,5.85c13.26,15.59,21.11,35.31,24.51,55.49"/>
            <path class="cls-10" d="M391.71,143.37q9.23,3.94,18.4,8t18.29,8.13q5.16,2.33,10.31,4.68c15,6.83,31.15,15.21,37,30.57"/>
            <path class="cls-9" d="M401.79,100.72c73.32-8.5,150-16.61,219,9.2l2.07.78"/>
            <path class="cls-9" d="M217.55,117.53c-34.76,10.61-76,7.33-112.32,5.22-31.72-1.85-65.5-.9-93.33,13.37a96.51,96.51,0,0,0-11.61,7"/>
            <path class="cls-8" d="M135.4,246.31q2-1.22,4.09-2.38c15.51-8.78,32.55-15.62,50.2-15.63,1,0,2,0,3,.06,10.58.47,20.69,3.41,30.56,7.47,29.35,12.09,56.62,34.12,87.92,30.93,14.05-1.43,27-7.95,40.74-11.37,32.43-8.07,72.18,5.74,104.19,15.37h0"/>
            <path class="cls-8" d="M238.08,297.38a209.31,209.31,0,0,0,39.27,3.24A211,211,0,0,0,346,288.33c13.07-4.68,25.8-10.69,39.5-12.91,11.94-1.93,24.13-.88,36.23-1a182.49,182.49,0,0,0,34.34-3.65,190.46,190.46,0,0,0,42.67-14.06,186.9,186.9,0,0,0,56.3-40.23"/>
            <path class="cls-9" d="M4.35,136.61c2.51-.25,5-.42,7.55-.49a125.52,125.52,0,0,1,83.36,28,125.51,125.51,0,0,1,44.23,79.78c.19,1.34.34,2.69.47,4,32.95,20.11,66.73,40.57,104.5,48.52a219.54,219.54,0,0,0,32.89,4.13c32.2,1.82,65-1.32,97.06,2.8,30.23,3.88,59.62,14.19,90.1,15.05s64.32-10.7,77.55-38.17c9.69-20.14,7-46,21.82-62.73,12-13.61,32.87-17.7,42.92-32.81,14.3-21.48-.43-53.87,14-74.84.31-.44.62-.87.95-1.3"/>
          </g>
        </g>
        <path class="cls-11" d="M312.9,120.94c4.34-8.81,16-13.77,25.21-9.92.78.32,1,.09.46-.6a7.73,7.73,0,0,0-2.8-2.17c-9.78-4.06-22-.06-26.83,9.63-.46.92,3.73,3.51,4,3.06Z"/>
        <path class="cls-6" d="M348.34,85.28a48.19,48.19,0,0,0,6.85,7.14c1.38,1.17,2.85,2.58,4.71,2.82a4.41,4.41,0,0,0,3.23-.67,2.5,2.5,0,0,0,.58-2c0-6.43-1.9-13.15-7.19-17.22a4.14,4.14,0,0,0-3.12-.5c-.4.08-2.08.6-1.46,1.33a29.5,29.5,0,0,1,3.8,5.66,25.44,25.44,0,0,1,1.37,3.12,3.7,3.7,0,0,1,.18,2.49c-.05.11-.18.22-.2.32a1.5,1.5,0,0,0,1.27-.14s0,0-.05,0a8.56,8.56,0,0,0-1.5-.7,21.22,21.22,0,0,1-2.71-1.64,24.47,24.47,0,0,1-4.89-4.59,3.47,3.47,0,0,0-3.06-.83c-.42,0-2.43.55-1.76,1.38a26.88,26.88,0,0,0,6.25,5.74c2.75,1.77,6.31,3.81,9.66,2.57,3-1.12,2.09-4.15,1.12-6.43a28.83,28.83,0,0,0-4.65-7.48l-4.58.83a16.07,16.07,0,0,1,5.19,7.37,22.8,22.8,0,0,1,1.13,5q.15,1.33.18,2.67c0,.3.21,1.84,0,2l.9-.39-.24.05,1.92-.1L361,93l1.1.3a13,13,0,0,1-2.34-1.79c-.81-.68-1.61-1.38-2.37-2.11a44.58,44.58,0,0,1-4.22-4.68c-.67-.86-2.07-1-3.07-.83-.43,0-2.41.54-1.76,1.38Z"/>
        <path class="cls-6" d="M341.75,71.31c-1.25,3.93,1,8.36,3.14,11.57a52.34,52.34,0,0,0,8.05,9c1.53,1.43,3.08,3.12,5.17,3.66a3.88,3.88,0,0,0,4.73-2.35,10.14,10.14,0,0,0,.25-5.22,25.34,25.34,0,0,0-1.41-5.56A27,27,0,0,0,354,71.59a2,2,0,0,0-2.95,2.51A26.79,26.79,0,0,1,353.72,79a25.7,25.7,0,0,1,.87,2.56,8.48,8.48,0,0,1,.5,2.48,1.13,1.13,0,0,1-.27.78c-.09.1-.26,0,.12,0-.42-.09-1.2-1.11-1.52-1.41l-4.51-4.29-2.57,3.06A12.9,12.9,0,0,0,353,85.06a1.8,1.8,0,0,0,2.11-1.28,13.4,13.4,0,0,0-1.67-9.18L350,76.65c2.56,3.2,5.58,7,4.12,11.31l2.1-1.28a1.69,1.69,0,0,1,1.24,1.54l-4.31-.82A8.27,8.27,0,0,0,355,91.16a4.46,4.46,0,0,0,4.47,1.36c3-1,2.27-5.6-.49-6.5a2,2,0,0,0-2.12.18c-.93.93-2,.35-2.81-.42-1.36-1.24-2.55-2.74-3.79-4.1s-2.78-3-4.08-4.5c-.85-1-1.81-2.18-1.46-3.56l-4.4-1.41A30.92,30.92,0,0,0,355.7,94.63a1.85,1.85,0,0,0,2.68-1.09,2.93,2.93,0,0,0-1.67-3.08,24.46,24.46,0,0,1-11.95-17.4,3,3,0,0,0-2-2.6,1.78,1.78,0,0,0-2.39,1.18c-.68,2.69.5,5.18,2.08,7.3a78.75,78.75,0,0,0,5.31,6c1.71,1.87,3.35,4.06,5.55,5.38,2,1.22,5,1.56,6.78-.27l-2.12.18c-.22-.07-1.3-1.22-.94-1.82s.36-.15.65-.14.13.5,0-.17c-.07-.33-.2-.66-.28-1-.47-1.8-3.64-3.3-4.31-.82a4.21,4.21,0,0,0,3.23,5,1.77,1.77,0,0,0,2.11-1.28c2-5.93-1.88-11.48-5.4-15.88a2.36,2.36,0,0,0-2.92-.74,2.06,2.06,0,0,0-.51,2.79,8.21,8.21,0,0,1,1.14,5.7l2.1-1.28a8,8,0,0,1-4.4-1.84,2.06,2.06,0,0,0-2.84.07,2.34,2.34,0,0,0,.27,3c2.1,2,4.18,4,6.3,6,2,1.83,5,2.53,6.68-.08,1.47-2.27.37-5.52-.42-7.85a30.62,30.62,0,0,0-3.54-7.19l-2.95,2.5a20,20,0,0,1,6.93,14.29c0,.55,0,1.72-.57,1.72s-1.05-.7-1.34-1c-.61-.54-1.2-1.09-1.79-1.65a49.28,49.28,0,0,1-6-6.55c-1.68-2.26-4-5.75-3-8.68.77-2.41-3.44-4.82-4.34-2Z"/>
        <path class="cls-6" d="M266.65,86.58c-3.31,4.56-6.89,10.51-3.67,16.12a2.55,2.55,0,0,0,2.67,1.11c6.52-1,10-6.88,12.66-12.28l-4.65-1.34A13.21,13.21,0,0,1,270,94.91a7.62,7.62,0,0,1-2.54,1.58l.15,0q-.47.07-.06,0c.11.09.35.17.48.26.32.21.08.26.22.11s.1-.4.15-.53a37.31,37.31,0,0,1,7.72-12.23l-4.05-2.35A48,48,0,0,0,267,89.08a20.32,20.32,0,0,0-1.66,4c-.41,1.4-.83,3-.13,4.37a3.93,3.93,0,0,0,4.34,1.9c1.88-.37,3.07-1.83,4.27-3.17l6.63-7.39a2,2,0,0,0-.58-3,2.81,2.81,0,0,0-3.47.67l-5.16,5.74c-.8.9-1.67,1.77-2.42,2.71-.1.13-.26.13-.21.22l.13,0a.75.75,0,0,1,.79.29c.58.47.16.34.27.14-.1.18,0-.3,0-.4A15.38,15.38,0,0,1,272,89.67a48.76,48.76,0,0,1,4.12-5.59,2,2,0,0,0-.58-3,2.81,2.81,0,0,0-3.47.67,43.4,43.4,0,0,0-5.79,7.94A42.78,42.78,0,0,0,264.19,94c-.63,1.5-1.33,3.25-.53,4.84,1.85,3.68,6.47,1.59,8.88-.15a18.1,18.1,0,0,0,5.77-7.12,2.06,2.06,0,0,0-1.44-2.75,2.74,2.74,0,0,0-3.21,1.41,29.66,29.66,0,0,1-3.89,6.4,8.27,8.27,0,0,1-4.94,3l2.67,1.11c-2.33-4.06.86-8.49,3.2-11.72,1.87-2.58-2.39-4.63-4.05-2.35Z"/>
        <path class="cls-11" d="M345.52,75.52a10.71,10.71,0,0,0,5.67,6.21,2,2,0,0,0,1.63-.23,1.13,1.13,0,0,0,.66-1.11,9.21,9.21,0,0,0-3.31-6,7.3,7.3,0,0,0-1.4-.94,2.77,2.77,0,0,0-3.25.46c-1.1,1.14.26,2.73,1,3.68a21.84,21.84,0,0,0,3.12,3.33,1.53,1.53,0,0,0,1,.21,2.24,2.24,0,0,0,1.09-.39c.53-.42.71-1,.17-1.45-.25-.22-.23-.2-.47-.43l-.61-.61c-.37-.39-.72-.79-1.06-1.2s-.68-.87-1-1.33l-.44-.66a1.74,1.74,0,0,1-.15-.26c.08.18,0-.12-.06-.18l0-.18s0,.18,0,.06v0a.33.33,0,0,1-.17.27l-.13.15-1,.29h-.06c-.11,0-.09,0,0,0s-.17-.09,0,0l.35.2q.28.18.57.39l.27.21.16.14a8.18,8.18,0,0,1,1.72,2.21l.07.13,0,.07.15.37a5.05,5.05,0,0,1,.27.74,7.86,7.86,0,0,1,.32,1.59l2.3-1.33,0,0-.22-.12-.39-.23a7.52,7.52,0,0,1-.75-.5l-.39-.31-.15-.13c-.06,0-.17-.15-.05,0a8.59,8.59,0,0,1-.67-.68,10,10,0,0,1-1.09-1.49c-.08-.13-.15-.26-.22-.39s-.1-.2,0-.07l-.09-.18c-.14-.31-.26-.62-.37-.93-.22-.66-1.12-.74-1.7-.57s-1.43.66-1.19,1.35Z"/>
        <path class="cls-11" d="M276,82.11a12.47,12.47,0,0,0-5.14,7.19,1.28,1.28,0,0,0,.95,1.71,3.37,3.37,0,0,0,3.12-1.24A26.56,26.56,0,0,0,278,85.86a7.27,7.27,0,0,0,1.11-2.07,1.36,1.36,0,0,0-1.36-1.66c-1.85-.17-3.39,1.4-4.56,2.64a17.73,17.73,0,0,0-2.68,3.7c-.54,1-1.94,3.3-.24,3.93a3.2,3.2,0,0,0,3.29-1.06,22.72,22.72,0,0,0,1.71-2.2A27.45,27.45,0,0,0,278,84.4c.63-1.39-2.27-1.2-2.73-.19a28.83,28.83,0,0,1-2.7,4.74c-.23.32-.46.64-.71,1l-.39.49-.2.24s-.23.28-.19.21l0,0c-.29.18-.1.19.56,0l.67-.06.05,0a1.48,1.48,0,0,1,.06-.32,7.85,7.85,0,0,1,.43-1,15.47,15.47,0,0,1,2.71-4,14.7,14.7,0,0,1,1.64-1.5c.27-.2.06,0,0,0l-.13,0-.8,0c-.08,0,0-.11-.08.13a3.88,3.88,0,0,1-.52,1A23.24,23.24,0,0,1,274,87.4c-.33.41-.67.81-1,1.19l-.48.52c-.09.09-.18.19-.28.28l-.1.09a.81.81,0,0,1,.66-.28l.7,0a.28.28,0,0,1,.19.16c0-.11,0-.13,0-.08a3.41,3.41,0,0,0,.1-.46,7.89,7.89,0,0,1,.3-.94,10.91,10.91,0,0,1,1-1.89,9.92,9.92,0,0,1,2.77-2.85c.44-.31.8-1,.2-1.31a2.09,2.09,0,0,0-2.06.23Z"/>
        <path class="cls-11" d="M332.39,112.56v.34a.4.4,0,0,0,.06.34.47.47,0,0,0,.26.26,1.08,1.08,0,0,0,.43.13,1.35,1.35,0,0,0,.53,0l.4-.07a2.31,2.31,0,0,0,.7-.31l.26-.2a1,1,0,0,0,.27-.47v-.34a.38.38,0,0,0-.06-.33.46.46,0,0,0-.25-.26,1,1,0,0,0-.44-.13,1.35,1.35,0,0,0-.53,0l-.4.07a2.58,2.58,0,0,0-.7.31l-.26.21a.94.94,0,0,0-.27.46Z"/>
        <path class="cls-6" d="M209.83,98a9.7,9.7,0,0,1,5.08,2.84l2.73-1c-1.86-.92-3.74-1.8-5.64-2.62-1.62-.7-3.23-1.65-5-1.23-.66.15-1.79.48-2,1.26s.63,1.22,1.17,1.47a9.21,9.21,0,0,0,5.39.59,3,3,0,0,0,1.48-.57c.2-.18.38-.44,0-.53-1.56-.34-3.12-.73-4.7-1-1-.19-3.11-.08-3.7,1-1.15,2.11,5.78,2.24,6.67,2.19a4,4,0,0,0,1.6-.47c.1-.06.74-.45.39-.62a11.59,11.59,0,0,1-4.75-4.11l-.13.28a1.77,1.77,0,0,1,.31-.3c-.53.1-.66.15-.37.16s.63.11.94.23a7.84,7.84,0,0,1,1.43.83c1.11.77,2.17,1.64,3.2,2.51,2.07,1.75,4,3.63,6,5.5l2.73-1-9.87-5a2.62,2.62,0,0,0-1.86.16c-.15.05-1.31.56-.87.83l11,6.64c.5.3,1.37,0,1.87-.16.15-.06,1.3-.57.86-.83l-11-6.64-2.73,1,9.87,5c.52.26,3.28-.46,2.73-1a95.8,95.8,0,0,0-8.11-7.23,8.09,8.09,0,0,0-4.16-2,5.91,5.91,0,0,0-4.57,1.55.29.29,0,0,0-.13.28,12,12,0,0,0,4.92,4.32l2-1.08a11.69,11.69,0,0,1-2.71-.16,5,5,0,0,1-2.35-1l-.07-.18-1.63.36c.07.07.38.08.47.1l1.41.3,3,.64,1.45-1.11a5.61,5.61,0,0,1-2.6-.27c-.36-.12-2.25-.9-1.45-1.51l-.81.44c-1,.05-1.21.11-.76.19a3,3,0,0,1,.5.17c.39.14.77.31,1.15.47.77.32,1.53.65,2.29,1q2.26,1,4.5,2.12c.51.25,3.28-.41,2.73-1a10.4,10.4,0,0,0-5.43-3,3.38,3.38,0,0,0-2,.37c-.24.11-1,.62-.36.76Z"/>
        <path class="cls-6" d="M201.3,98.16a10.15,10.15,0,0,0,6.78,3.58,2.94,2.94,0,0,0,2-.55c.15-.12.38-.3.32-.52s-.36-.28-.54-.3-.59-.08-.89-.13h0l-.24-.06-.44-.13a8.57,8.57,0,0,1-1.55-.65A9,9,0,0,1,204,97.1c-.14-.17-.59-.17-.76-.17a3.42,3.42,0,0,0-1.14.24c-.32.13-1.19.53-.82,1Z"/>
        <path class="cls-6" d="M396.46,88.13A28.6,28.6,0,0,1,400.94,81l-2.63-.69-4.07,6.88c-.34.57.23,1.15.74,1.28a1.87,1.87,0,0,0,1.88-.59q2.44-3.09,4.74-6.29a.94.94,0,0,0-.4-1.51,1.87,1.87,0,0,0-2.05.55c-1.54,2.12-3.12,4.22-4.74,6.28l2.62.69,4.07-6.88c.34-.57-.23-1.15-.74-1.28a1.88,1.88,0,0,0-1.88.59,32.7,32.7,0,0,0-4.82,7.67,1,1,0,0,0,.92,1.32,1.83,1.83,0,0,0,1.88-.91Z"/>
        <path class="cls-5" d="M398.38,75.52l-6,11.65c-.62,1.2,2.27.88,2.7,0l6-11.65c.62-1.2-2.27-.88-2.7,0Z"/>
        <path class="cls-5" d="M216.57,93.32l0-.64-2.79,1q3.54,3,7.25,5.82l2.49-1.3a23.24,23.24,0,0,1-6-5.29L215,94.18a16.62,16.62,0,0,1,6.19,5.58l2.5-1.3-6.42-3.63a2.14,2.14,0,0,0-1.89.17c-.29.15-1.07.73-.6,1.13q2.94,2.46,6,4.81a1.93,1.93,0,0,0,1.93.06c.32-.14,1.26-.76.76-1.21a109.23,109.23,0,0,0-10.23-8.5c-.65-.46-3.28.4-2.49,1.3a74.29,74.29,0,0,0,13.83,12.18c.81.56,3.48-.63,2.29-1.44a72.44,72.44,0,0,1-13.43-11.9l-2.49,1.3a107.12,107.12,0,0,1,9.83,8.21l2.69-1.15q-3-2.36-6-4.82L215,96.27l6.41,3.64c.67.38,3.2-.24,2.49-1.3a17.81,17.81,0,0,0-6.58-5.88c-.64-.33-3.3.29-2.49,1.3a24.27,24.27,0,0,0,6.37,5.58,2.18,2.18,0,0,0,1.89-.17c.27-.15,1.09-.76.6-1.13q-3.7-2.81-7.26-5.82c-.71-.6-2.87-.17-2.79,1l0,.63c.07,1,3,.38,2.9-.77Z"/>
        <path class="cls-5" d="M202.28,93.66a5.3,5.3,0,0,0,.14,5.37,9.34,9.34,0,0,0,4.35,3.54c2,.91,4.1,1.54,6.16,2.26l6.62,2.33a1.93,1.93,0,0,0,2-.55.89.89,0,0,0-.39-1.46c-3.79-1.33-7.62-2.59-11.38-4a9.54,9.54,0,0,1-4.24-2.64,3.83,3.83,0,0,1-.53-4.47c.38-.63-.34-1.19-.9-1.27a1.91,1.91,0,0,0-1.88.9Z"/>
        <path class="cls-5" d="M211.23,93.6q5.84,6,12.1,11.47c.5.44,3.21-.24,2.8-.92l-5.21-8.8-2.81.92,5.69,7.53c.49.65,3.27-.26,2.71-1.06l-4.59-6.56-2.71,1.06a40.28,40.28,0,0,1,4.91,5l2.71-1.06-6.28-6.5-2.71,1.07,6.77,6.39c.62.59,3.33-.45,2.71-1.06l-4.53-4.46-2.71,1.06a53.27,53.27,0,0,1,3.74,3.92c.27.32.58.63.82,1a1.55,1.55,0,0,1,.19.36c0,.1-.05.32,0,.39.08.24,1.42,0,1-.32a3.93,3.93,0,0,1-.42-.29,4.9,4.9,0,0,1-.77-.87l-2.72,1.07a6.26,6.26,0,0,0,3.07,1.56c1,.18,2.85-.08,3.36-1.2.43-1-.49-1.79-1.06-2.43A35.85,35.85,0,0,0,224.43,98c-.59-.52-3.34.32-2.71,1.06.79,1,1.58,1.93,2.31,2.95a5,5,0,0,1,.43.66,2.19,2.19,0,0,1,.15.43.72.72,0,0,1,0,.46l1.17-.37a1.41,1.41,0,0,1-.35-.23,4.28,4.28,0,0,1-.57-.64c-.52-.65-3.3.32-2.71,1.06a2.83,2.83,0,0,0,2.41,1.25c1,0,2.44-.42,2.88-1.41s-.35-1.8-.86-2.49c-.69-.93-1.41-1.84-2.15-2.73L221.72,99a29.67,29.67,0,0,1,3.41,3.5,3,3,0,0,1,.4.8l0,.17,1.48-.43c-.08-.08-.38-.09-.5-.13a5,5,0,0,1-1.87-1.15c-.58-.53-3.32.29-2.72,1.07a3.17,3.17,0,0,0,3.05,1.5c1-.11,2.67-.62,2.81-1.82a1.64,1.64,0,0,0-.53-1.23c-.44-.57-.93-1.11-1.41-1.65-1-1.07-2-2.11-3-3.1-.63-.6-3.34.44-2.71,1.06l4.53,4.46,2.71-1.06-6.77-6.4c-.61-.58-3.34.42-2.71,1.07l6.28,6.49c.57.59,3.32-.34,2.71-1.06a40.28,40.28,0,0,0-4.91-4.95c-.57-.49-3.3.22-2.71,1.06l4.59,6.56,2.71-1.06-5.69-7.53c-.47-.62-3.16.32-2.8.92l5.22,8.8L226,104Q219.77,98.52,214,92.54c-.61-.62-3.33.43-2.72,1.06Z"/>
        <path class="cls-5" d="M203.92,91.78l-.73.86a.79.79,0,0,0,.36,1.34,2.09,2.09,0,0,0,2-.55c.7-.71,2-.15,2.83.13a26.58,26.58,0,0,1,3.41,1.51,30.81,30.81,0,0,1,6.16,4.3c.91.81,3.46-.54,2.24-1.63a31.88,31.88,0,0,0-7.78-5.1c-2.93-1.35-6.64-2.64-9.27,0l2.41.79.73-.86a.79.79,0,0,0-.36-1.34,2.05,2.05,0,0,0-2.05.55Z"/>
        <path class="cls-5" d="M394,86.44l6.18-8.77c1-1.37,3.87-6.51,5.52-3a4.6,4.6,0,0,1-.43,4.09,30.92,30.92,0,0,1-2.65,4,45.09,45.09,0,0,1-6.6,7c-.49.42-.27.93.29,1.09a2.43,2.43,0,0,0,2.05-.55,47.71,47.71,0,0,0,6.23-6.48,42.86,42.86,0,0,0,2.63-3.66,9.51,9.51,0,0,0,1.7-4,3.89,3.89,0,0,0-4.43-4.43c-3.21.34-4.93,2.87-6.64,5.3l-6.56,9.31c-.4.57.35.89.8.92a2.28,2.28,0,0,0,1.91-.81Z"/>
        <path class="cls-5" d="M397.42,81.69a45.57,45.57,0,0,1,8.11-8.25,15.7,15.7,0,0,0,2.4-1.74c-.84-.12-1.09,0-.76.24a.52.52,0,0,1,.21.35,2.61,2.61,0,0,1,.06,1.21,17.91,17.91,0,0,1-2,5.76c-.26.5,1,.36,1.18.34a2.52,2.52,0,0,0,1.69-.83,10.53,10.53,0,0,0,.81-10.23l-2.81.9c3.31,2.51.78,6.83-1.07,9.34l2.75-.33a11.92,11.92,0,0,0,1-9.89l-2.81.89c3.62,3.15,1.63,8.41-1.09,11.38-3.12,3.4-7.37,5.79-9.37,10.13-.23.51,1,.37,1.18.34.49-.08,1.44-.3,1.69-.82,2.14-4.65,7-7,10.07-10.92,2.44-3.15,3.68-8.14.25-11.12-.44-.38-3.06.19-2.82.9a11.48,11.48,0,0,1-.94,9.6c-.26.44.88.37,1,.36a2.86,2.86,0,0,0,1.76-.69c2-2.77,4.81-7.42,1.15-10.19-.44-.33-3.12.23-2.81.9a10.12,10.12,0,0,1-.78,9.94l2.87-.49a20.91,20.91,0,0,0,1.44-3.53,9.16,9.16,0,0,0,.6-3.19c-.19-2.66-3.72-1.15-5-.29a46,46,0,0,0-10.6,10.1c-.39.5.34.55.7.54a3,3,0,0,0,1.93-.71Z"/>
      </g>
    </g>
  </g>
</svg>
