<svg xmlns="http://www.w3.org/2000/svg" viewBox="0 0 486.33 398.82">
  <defs>
    <style>
      .cls-1 {
        fill: #fff200;
      }

      .cls-2 {
        fill: #ec008c;
      }

      .cls-3 {
        fill: #00aeef;
      }

      .cls-4 {
        fill: none;
        stroke: #231f20;
        stroke-miterlimit: 10;
        stroke-width: 4px;
      }
    </style>
  </defs>
  <title>spiku</title>
  <g id="Layer_2" data-name="Layer 2">
    <g id="Layer_1-2" data-name="Layer 1">
      <g>
        <g>
          <path class="cls-1" d="M371.51,184.87a14.74,14.74,0,0,1-1.18-7.23c.51-3.86,4.27-7.53,8-6.42,2.89.87,4.36,4,6.58,6,5.16,4.72,13.23,3,20.11,1.71a92.84,92.84,0,0,1,43.31,2.41c13,3.91,25.65,11.32,32,23.28,9,16.91,2.16,39.41-12.77,51.37s-36,14.35-54.53,9.68c-11.13-2.8-22.59-7.94-33.61-4.73-6.44,1.88-11.79,6.43-18.09,8.72s-14.95,1.21-17.49-5c-2.21-5.43,1.5-11.47,5.84-15.4s9.66-7.2,12.12-12.51c3.28-7.09.43-15.38-2.69-22.54s-6.58-15-4.36-22.49C356.77,184.82,366.51,180.46,371.51,184.87Z"/>
          <path class="cls-2" d="M464.84,78.21a8.14,8.14,0,0,1,3.07,6.37c-.1,5.49-4.81,10.57-10.1,12.59-4.69,1.8-11,.78-12-3.88-1-4.9,4.28-9.24,8.83-12,2.36-1.45,4.82-2.94,7.48-3.26A6.77,6.77,0,0,1,464.84,78.21Z"/>
          <path class="cls-2" d="M419.49,341a56.84,56.84,0,0,1,13.24,36.78c0,4.61-.72,9.39-3.23,13.26s-7.21,6.58-11.72,5.61c-6.09-1.31-9.06-8.15-10.57-14.2a114.42,114.42,0,0,1-3.35-24.15c-.27-8.68.41-17.64-2.61-25.78a23.55,23.55,0,0,0-4.92-7.88A56.76,56.76,0,0,1,419.49,341Z"/>
          <path class="cls-3" d="M321.62,15.2l1.92-.59C338,4.11,360.81,8,370.92,22.76c9.3-5.22,20-9.08,30.49-7.44s20.51,10.25,20.75,20.91c.17,7.77-4.55,14.73-9.36,20.84a236.83,236.83,0,0,1-41.42,41c6.26,2.43,12.64,4.93,17.89,9.12s9.29,10.44,9.18,17.16c-.19,11.55-11.68,19.29-22.1,24.26a276.54,276.54,0,0,1-118.23,26.8c-10.33,0-22.31-1.46-27.82-10.2-13.22,12.25-28.25,23.21-45.59,28.12s-37.36,3-51.32-8.43-19.63-33.2-10-48.43c-7.93.78-16.17.79-23.56-2.19s-13.78-9.46-14.7-17.37C83.64,104,96,94.11,107.43,88.06A217.55,217.55,0,0,1,218.11,63.17c-6.43-8.78-4.88-21.57,1.18-30.61s15.73-15,25.53-19.68C258.15,6.46,272.64,1.68,287.43,2,299.92,2.31,312.66,6.69,321.62,15.2Z"/>
          <path class="cls-2" d="M237.56,232c7.14,1.4,14.4-2.1,20.11-6.63s10.64-10.33,16.78-14.42a39.75,39.75,0,0,1,34.41-4.43c9.3,3.2,18,12,16.24,21.65-1.69,9.09-11.73,14.24-20.94,15.1s-18.55-1.17-27.71.12-18.83,7.57-19.22,16.81c-.27,6.24,3.89,12,9.09,15.42s11.36,5.07,17.35,6.82c15.18,4.42,30.28,10.16,42.67,20s21.81,24.29,22.52,40.07c.81,18.24-10.82,36.08-27.35,43.82S284.56,392,269.23,382c-13.78-8.91-23.19-23.11-31.26-37.4s-15.36-29.29-26.43-41.41S184.59,282,168.27,283.74c-19.07,2-33.42,17.41-47.55,30.36C106.37,327.23,90,338.93,71.21,343.89s-40.46,2.26-55-10.66-19.33-37-7.69-52.57c10.78-14.45,30.89-17.86,48.91-17.9s36.94,2,53.28-5.6c16.49-7.67,27.26-23.74,41.6-34.91a82.06,82.06,0,0,1,54.62-17c7.57.44,15.31,2.05,21.49,6.43s10.49,12,9.29,19.46Z"/>
          <path class="cls-1" d="M88.89,29.57A51.55,51.55,0,0,1,109.52,46.2a24.07,24.07,0,0,0-8.67-2.54c-8.54-.82-17.14,1.8-25.65,3.52A127.25,127.25,0,0,1,51,49.69c-6.2,0-13.47-1-16-6.08-1.85-3.74-.16-8.48,3.1-11.55s7.77-4.74,12.25-5.82A60.86,60.86,0,0,1,88.89,29.57Z"/>
          <path class="cls-3" d="M42,221.13l-.53-.78a15.08,15.08,0,0,1,5.79-2.61c3.71-.68,8.18,1.22,9,4.9.53,2.52-.81,5.14-2.74,6.83a9,9,0,0,1-9.41,1.76c-3.07-1.39-4.9-5.35-3.46-8.4A4.63,4.63,0,0,1,42,221.13Z"/>
        </g>
        <g>
          <path class="cls-4" d="M237.71,231.17c1.2-7.48-3.11-15.08-9.29-19.46s-13.92-6-21.49-6.43a82.06,82.06,0,0,0-54.62,17c-14.34,11.17-25.11,27.24-41.6,34.91-16.34,7.6-35.26,5.57-53.28,5.6s-38.13,3.45-48.91,17.9c-11.64,15.59-6.86,39.65,7.69,52.57s36.19,15.63,55,10.66,35.16-16.66,49.51-29.79c14.13-13,28.48-28.37,47.55-30.36,16.32-1.7,32.19,7.37,43.27,19.49s18.35,27.12,26.43,41.41,17.48,28.49,31.26,37.4c15.33,9.91,35.75,12,52.28,4.28s28.16-25.58,27.35-43.82c-.71-15.78-10.14-30.25-22.52-40.07s-27.49-15.56-42.67-20c-6-1.75-12.15-3.36-17.35-6.82s-9.36-9.18-9.09-15.42c.39-9.24,10.07-15.52,19.22-16.81s18.5.74,27.71-.12,19.25-6,20.94-15.1c1.79-9.68-6.94-18.45-16.24-21.65A39.75,39.75,0,0,0,274.45,211c-6.14,4.09-11,9.82-16.78,14.42s-13,8-20.11,6.63l-.29,0"/>
          <path class="cls-4" d="M464.84,78.21a7.22,7.22,0,0,0-7.92-1.07"/>
          <path class="cls-4" d="M464.84,78.21a6.77,6.77,0,0,0-2.69-.22c-2.66.32-5.12,1.81-7.48,3.26-4.55,2.8-9.85,7.14-8.83,12,1,4.66,7.28,5.68,12,3.88,5.29-2,10-7.1,10.1-12.59A8.14,8.14,0,0,0,464.84,78.21Z"/>
          <path class="cls-4" d="M468.24,81.48a4.55,4.55,0,0,0-3.4-3.27"/>
          <path class="cls-4" d="M371.51,184.87c.52,1.32,1.13,2.62,1.74,3.88"/>
          <path class="cls-4" d="M371.51,184.87c-5-4.41-14.74-.05-16.78,6.87-2.22,7.49,1.23,15.34,4.36,22.49s6,15.45,2.69,22.54c-2.46,5.31-7.78,8.57-12.12,12.51s-8.05,10-5.84,15.4c2.54,6.21,11.18,7.29,17.49,5S373,262.84,379.4,261c11-3.21,22.48,1.93,33.61,4.73,18.55,4.67,39.6,2.29,54.53-9.68s21.73-34.46,12.77-51.37c-6.34-12-19-19.37-32-23.28A92.84,92.84,0,0,0,405,179c-6.88,1.27-14.95,3-20.11-1.71-2.22-2-3.69-5.15-6.58-6-3.72-1.11-7.48,2.56-8,6.42A14.74,14.74,0,0,0,371.51,184.87Z"/>
          <path class="cls-4" d="M372.66,186.15a6.77,6.77,0,0,0-1.15-1.28"/>
          <path class="cls-4" d="M326.18,20.35a39.32,39.32,0,0,0-4.56-5.15c-9-8.51-21.7-12.89-34.19-13.18-14.79-.34-29.28,4.44-42.61,10.86-9.8,4.72-19.48,10.65-25.53,19.68s-7.61,21.83-1.18,30.61A217.55,217.55,0,0,0,107.43,88.06c-11.44,6-23.79,16-22.29,28.81.92,7.91,7.32,14.4,14.7,17.37s15.63,3,23.56,2.19c-9.64,15.23-4,37,10,48.43s34,13.35,51.32,8.43,32.37-15.87,45.59-28.12c5.51,8.74,17.49,10.21,27.82,10.2a276.54,276.54,0,0,0,118.23-26.8c10.42-5,21.91-12.71,22.1-24.26.11-6.72-3.93-13-9.18-17.16s-11.63-6.69-17.89-9.12a236.83,236.83,0,0,0,41.42-41c4.81-6.11,9.53-13.07,9.36-20.84-.24-10.66-10.22-19.26-20.75-20.91s-21.19,2.22-30.49,7.44C360.81,8,338,4.11,323.54,14.61"/>
          <path class="cls-4" d="M396.33,324.62c-3.94-4.16-9.33-6.72-14.83-5.53"/>
          <path class="cls-4" d="M396.33,324.62a56.2,56.2,0,0,1,36.4,53.14c0,4.61-.72,9.39-3.23,13.26s-7.21,6.58-11.72,5.61c-6.09-1.31-9.06-8.15-10.57-14.2a114.42,114.42,0,0,1-3.35-24.15c-.27-8.68.41-17.64-2.61-25.78A23.55,23.55,0,0,0,396.33,324.62Z"/>
          <path class="cls-4" d="M385.48,321.7a55.55,55.55,0,0,1,10.85,2.92"/>
          <path class="cls-4" d="M49,221.52c-1.63-2.05-4.9-2-7-.39a4.63,4.63,0,0,0-1.4,1.7c-1.44,3,.39,7,3.46,8.4a9,9,0,0,0,9.41-1.76c1.93-1.69,3.27-4.31,2.74-6.83-.77-3.68-5.24-5.58-9-4.9a15.08,15.08,0,0,0-5.79,2.61c-1.34.91-2.61,2-3.86,3"/>
          <path class="cls-4" d="M109.52,46.2c4.86,2.51,8.45,6.67,8.4,11.76"/>
          <path class="cls-4" d="M109.52,46.2A51.55,51.55,0,0,0,88.89,29.57a60.86,60.86,0,0,0-38.53-3.33c-4.48,1.08-9,2.75-12.25,5.82s-5,7.81-3.1,11.55c2.52,5,9.79,6.12,16,6.08a127.25,127.25,0,0,0,24.2-2.51c8.51-1.72,17.11-4.34,25.65-3.52A24.07,24.07,0,0,1,109.52,46.2Z"/>
          <path class="cls-4" d="M114.57,55.05a46.26,46.26,0,0,0-5-8.85"/>
        </g>
      </g>
    </g>
  </g>
</svg>
